<?xml version="1.0"?>
<svg xmlns="http://www.w3.org/2000/svg" xmlns:xlink="http://www.w3.org/1999/xlink" version="1.1" width="1377" height="432" viewBox="0 -432 1377 432">
<defs>
<g id="shape0">
<path d="M 6 -54 C 2.686 -54 0 -51.314 0 -48 L 0 -6 C 0 -2.686 2.686 0 6 0 L 48 0 C 51.314 0 54 -2.686 54 -6 L 54 -48 C 54 -51.314 51.314 -54 48 -54 Z" fill="#000000"/>
<path d="M 6 -53 C 3.239 -53 1 -50.761 1 -48 L 1 -6 C 1 -3.239 3.239 -1 6 -1 L 48 -1 C 50.761 -1 53 -3.239 53 -6 L 53 -48 C 53 -50.761 50.761 -53 48 -53 Z" fill="#8a8a8a"/>
<path d="M 6 -52 C 3.791 -52 2 -50.209 2 -48 L 2 -6 C 2 -3.791 3.791 -2 6 -2 L 48 -2 C 50.209 -2 52 -3.791 52 -6 L 52 -48 C 52 -50.209 50.209 -52 48 -52 Z" fill="#999999"/>
<path d="M 12 -51 C 10.343 -51 9 -49.657 9 -48 L 9 -18 C 9 -16.343 10.343 -15 12 -15 L 42 -15 C 43.657 -15 45 -16.343 45 -18 L 45 -48 C 45 -49.657 43.657 -51 42 -51 Z" fill="#8a8a8a"/>
<path d="M 12 -50 C 10.895 -50 10 -49.105 10 -48 L 10 -18 C 10 -16.895 10.895 -16 12 -16 L 42 -16 C 43.105 -16 44 -16.895 44 -18 L 44 -48 C 44 -49.105 43.105 -50 42 -50 Z" fill="#bababa"/>
</g>
<g id="shape1">
<path d="M 6 -54 C 2.686 -54 0 -51.314 0 -48 L 0 -6 C 0 -2.686 2.686 0 6 0 L 48 0 C 51.314 0 54 -2.686 54 -6 L 54 -48 C 54 -51.314 51.314 -54 48 -54 Z" fill="#000000"/>
<path d="M 6 -53 C 3.239 -53 1 -50.761 1 -48 L 1 -6 C 1 -3.239 3.239 -1 6 -1 L 48 -1 C 50.761 -1 53 -3.239 53 -6 L 53 -48 C 53 -50.761 50.761 -53 48 -53 Z" fill="#dadada"/>
<path d="M 6 -52 C 3.791 -52 2 -50.209 2 -48 L 2 -6 C 2 -3.791 3.791 -2 6 -2 L 48 -2 C 50.209 -2 52 -3.791 52 -6 L 52 -48 C 52 -50.209 50.209 -52 48 -52 Z" fill="#f2f2f2"/>
<path d="M 12 -51 C 10.343 -51 9 -49.657 9 -48 L 9 -18 C 9 -16.343 10.343 -15 12 -15 L 42 -15 C 43.657 -15 45 -16.343 45 -18 L 45 -48 C 45 -49.657 43.657 -51 42 -51 Z" fill="#dadada"/>
<path d="M 12 -50 C 10.895 -50 10 -49.105 10 -48 L 10 -18 C 10 -16.895 10.895 -16 12 -16 L 42 -16 C 43.105 -16 44 -16.895 44 -18 L 44 -48 C 44 -49.105 43.105 -50 42 -50 Z" fill="#ffffff"/>
</g>
<g id="shape2">
<path d="M 6 -54 C 2.686 -54 0 -51.314 0 -48 L 0 -6 C 0 -2.686 2.686 0 6 0 L 102 0 C 105.314 0 108 -2.686 108 -6 L 108 -48 C 108 -51.314 105.314 -54 102 -54 Z" fill="#000000"/>
<path d="M 6 -53 C 3.239 -53 1 -50.761 1 -48 L 1 -6 C 1 -3.239 3.239 -1 6 -1 L 102 -1 C 104.761 -1 107 -3.239 107 -6 L 107 -48 C 107 -50.761 104.761 -53 102 -53 Z" fill="#8a8a8a"/>
<path d="M 6 -52 C 3.791 -52 2 -50.209 2 -48 L 2 -6 C 2 -3.791 3.791 -2 6 -2 L 102 -2 C 104.209 -2 106 -3.791 106 -6 L 106 -48 C 106 -50.209 104.209 -52 102 -52 Z" fill="#999999"/>
<path d="M 12 -51 C 10.343 -51 9 -49.657 9 -48 L 9 -18 C 9 -16.343 10.343 -15 12 -15 L 96 -15 C 97.657 -15 99 -16.343 99 -18 L 99 -48 C 99 -49.657 97.657 -51 96 -51 Z" fill="#8a8a8a"/>
<path d="M 12 -50 C 10.895 -50 10 -49.105 10 -48 L 10 -18 C 10 -16.895 10.895 -16 12 -16 L 96 -16 C 97.105 -16 98 -16.895 98 -18 L 98 -48 C 98 -49.105 97.105 -50 96 -50 Z" fill="#bababa"/>
</g>
<g id="shape3">
<path d="M 6 -54 C 2.686 -54 0 -51.314 0 -48 L 0 -6 C 0 -2.686 2.686 0 6 0 L 75 0 C 78.314 0 81 -2.686 81 -6 L 81 -48 C 81 -51.314 78.314 -54 75 -54 Z" fill="#000000"/>
<path d="M 6 -53 C 3.239 -53 1 -50.761 1 -48 L 1 -6 C 1 -3.239 3.239 -1 6 -1 L 75 -1 C 77.761 -1 80 -3.239 80 -6 L 80 -48 C 80 -50.761 77.761 -53 75 -53 Z" fill="#8a8a8a"/>
<path d="M 6 -52 C 3.791 -52 2 -50.209 2 -48 L 2 -6 C 2 -3.791 3.791 -2 6 -2 L 75 -2 C 77.209 -2 79 -3.791 79 -6 L 79 -48 C 79 -50.209 77.209 -52 75 -52 Z" fill="#999999"/>
<path d="M 12 -51 C 10.343 -51 9 -49.657 9 -48 L 9 -18 C 9 -16.343 10.343 -15 12 -15 L 69 -15 C 70.657 -15 72 -16.343 72 -18 L 72 -48 C 72 -49.657 70.657 -51 69 -51 Z" fill="#8a8a8a"/>
<path d="M 12 -50 C 10.895 -50 10 -49.105 10 -48 L 10 -18 C 10 -16.895 10.895 -16 12 -16 L 69 -16 C 70.105 -16 71 -16.895 71 -18 L 71 -48 C 71 -49.105 70.105 -50 69 -50 Z" fill="#bababa"/>
</g>
<g id="shape4">
<path d="M 6 -54 C 2.686 -54 0 -51.314 0 -48 L 0 -6 C 0 -2.686 2.686 0 6 0 L 88.5 0 C 91.814 0 94.5 -2.686 94.5 -6 L 94.5 -48 C 94.5 -51.314 91.814 -54 88.5 -54 Z" fill="#000000"/>
<path d="M 6 -53 C 3.239 -53 1 -50.761 1 -48 L 1 -6 C 1 -3.239 3.239 -1 6 -1 L 88.5 -1 C 91.261 -1 93.5 -3.239 93.5 -6 L 93.5 -48 C 93.5 -50.761 91.261 -53 88.5 -53 Z" fill="#8a8a8a"/>
<path d="M 6 -52 C 3.791 -52 2 -50.209 2 -48 L 2 -6 C 2 -3.791 3.791 -2 6 -2 L 88.5 -2 C 90.709 -2 92.5 -3.791 92.5 -6 L 92.5 -48 C 92.5 -50.209 90.709 -52 88.5 -52 Z" fill="#999999"/>
<path d="M 12 -51 C 10.343 -51 9 -49.657 9 -48 L 9 -18 C 9 -16.343 10.343 -15 12 -15 L 55.5 -15 C 57.157 -15 58.5 -16.343 58.5 -18 L 58.5 -48 C 58.5 -49.657 57.157 -51 55.5 -51 Z M 61.146 -51 C 61.976 -50.267 62.5 -49.195 62.5 -48 L 62.5 -12 C 62.5 -10.805 61.976 -9.733 61.146 -9 L 85.5 -9 C 87.157 -9 88.5 -10.343 88.5 -12 L 88.5 -48 C 88.5 -49.657 87.157 -51 85.5 -51 Z" fill="#8a8a8a"/>
<path d="M 12 -50 C 10.895 -50 10 -49.105 10 -48 L 10 -18 C 10 -16.895 10.895 -16 12 -16 L 55.5 -16 C 56.605 -16 57.5 -16.895 57.5 -18 L 57.5 -48 C 57.5 -49.105 56.605 -50 55.5 -50 Z M 63.084 -50 C 63.352 -49.388 63.5 -48.711 63.5 -48 L 63.5 -12 C 63.5 -11.289 63.352 -10.612 63.084 -10 L 85.5 -10 C 86.605 -10 87.5 -10.895 87.5 -12 L 87.5 -48 C 87.5 -49.105 86.605 -50 85.5 -50 Z" fill="#bababa"/>
</g>
<g id="shape5">
<path d="M -7.5 -108 C -10.814 -108 -13.5 -105.314 -13.5 -102 L -13.5 -60 C -13.5 -56.686 -10.814 -54 -7.5 -54 L 0 -54 L 0 -6 C 0 -2.686 2.686 0 6 0 L 61.5 0 C 64.814 0 67.5 -2.686 67.5 -6 L 67.5 -102 C 67.5 -105.314 64.814 -108 61.5 -108 Z" fill="#000000"/>
<path d="M -7.5 -107 C -10.261 -107 -12.5 -104.761 -12.5 -102 L -12.5 -60 C -12.5 -57.239 -10.261 -55 -7.5 -55 L 1 -55 L 1 -54 L 1 -54 L 1 -6 C 1 -3.239 3.239 -1 6 -1 L 61.5 -1 C 64.261 -1 66.5 -3.239 66.5 -6 L 66.5 -102 C 66.5 -104.761 64.261 -107 61.5 -107 Z" fill="#8a8a8a"/>
<path d="M -7.5 -106 C -9.709 -106 -11.5 -104.209 -11.5 -102 L -11.5 -60 C -11.5 -57.791 -9.709 -56 -7.5 -56 L 2 -56 L 2 -54 L 2 -6 C 2 -3.791 3.791 -2 6 -2 L 61.5 -2 C 63.709 -2 65.5 -3.791 65.5 -6 L 65.5 -102 C 65.5 -104.209 63.709 -106 61.5 -106 Z" fill="#999999"/>
<path d="M -4.5 -105 C -6.157 -105 -7.5 -103.657 -7.5 -102 L -7.5 -66 C -7.5 -64.343 -6.157 -63 -4.5 -63 L 5 -63 L 5 -102 C 5 -103.195 5.524 -104.267 6.354 -105 Z M 12 -105 C 10.343 -105 9 -103.657 9 -102 L 9 -18 C 9 -16.343 10.343 -15 12 -15 L 55.5 -15 C 57.157 -15 58.5 -16.343 58.5 -18 L 58.5 -102 C 58.5 -103.657 57.157 -105 55.5 -105 Z" fill="#8a8a8a"/>
<path d="M -4.5 -104 C -5.605 -104 -6.5 -103.105 -6.5 -102 L -6.5 -66 C -6.5 -64.895 -5.605 -64 -4.5 -64 L 4 -64 L 4 -102 C 4 -102.711 4.148 -103.388 4.416 -104 Z M 12 -104 C 10.895 -104 10 -103.105 10 -102 L 10 -18 C 10 -16.895 10.895 -16 12 -16 L 55.5 -16 C 56.605 -16 57.5 -16.895 57.5 -18 L 57.5 -102 C 57.5 -103.105 56.605 -104 55.5 -104 Z" fill="#bababa"/>
</g>
<g id="shape6">
<path d="M 6 -54 C 2.686 -54 0 -51.314 0 -48 L 0 -6 C 0 -2.686 2.686 0 6 0 L 61.5 0 C 64.814 0 67.5 -2.686 67.5 -6 L 67.5 -48 C 67.5 -51.314 64.814 -54 61.5 -54 Z" fill="#000000"/>
<path d="M 6 -53 C 3.239 -53 1 -50.761 1 -48 L 1 -6 C 1 -3.239 3.239 -1 6 -1 L 61.5 -1 C 64.261 -1 66.5 -3.239 66.5 -6 L 66.5 -48 C 66.5 -50.761 64.261 -53 61.5 -53 Z" fill="#8a8a8a"/>
<path d="M 6 -52 C 3.791 -52 2 -50.209 2 -48 L 2 -6 C 2 -3.791 3.791 -2 6 -2 L 61.5 -2 C 63.709 -2 65.5 -3.791 65.5 -6 L 65.5 -48 C 65.5 -50.209 63.709 -52 61.5 -52 Z" fill="#999999"/>
<path d="M 12 -51 C 10.343 -51 9 -49.657 9 -48 L 9 -18 C 9 -16.343 10.343 -15 12 -15 L 55.5 -15 C 57.157 -15 58.5 -16.343 58.5 -18 L 58.5 -48 C 58.5 -49.657 57.157 -51 55.5 -51 Z" fill="#8a8a8a"/>
<path d="M 12 -50 C 10.895 -50 10 -49.105 10 -48 L 10 -18 C 10 -16.895 10.895 -16 12 -16 L 55.5 -16 C 56.605 -16 57.5 -16.895 57.5 -18 L 57.5 -48 C 57.5 -49.105 56.605 -50 55.5 -50 Z" fill="#bababa"/>
</g>
<g id="shape7">
<path d="M 6 -54 C 2.686 -54 0 -51.314 0 -48 L 0 -6 C 0 -2.686 2.686 0 6 0 L 142.5 0 C 145.814 0 148.5 -2.686 148.5 -6 L 148.5 -48 C 148.5 -51.314 145.814 -54 142.5 -54 Z" fill="#000000"/>
<path d="M 6 -53 C 3.239 -53 1 -50.761 1 -48 L 1 -6 C 1 -3.239 3.239 -1 6 -1 L 142.5 -1 C 145.261 -1 147.5 -3.239 147.5 -6 L 147.5 -48 C 147.5 -50.761 145.261 -53 142.5 -53 Z" fill="#8a8a8a"/>
<path d="M 6 -52 C 3.791 -52 2 -50.209 2 -48 L 2 -6 C 2 -3.791 3.791 -2 6 -2 L 142.5 -2 C 144.709 -2 146.5 -3.791 146.5 -6 L 146.5 -48 C 146.5 -50.209 144.709 -52 142.5 -52 Z" fill="#999999"/>
<path d="M 12 -51 C 10.343 -51 9 -49.657 9 -48 L 9 -18 C 9 -16.343 10.343 -15 12 -15 L 136.5 -15 C 138.157 -15 139.5 -16.343 139.5 -18 L 139.5 -48 C 139.5 -49.657 138.157 -51 136.5 -51 Z" fill="#8a8a8a"/>
<path d="M 12 -50 C 10.895 -50 10 -49.105 10 -48 L 10 -18 C 10 -16.895 10.895 -16 12 -16 L 136.5 -16 C 137.605 -16 138.5 -16.895 138.5 -18 L 138.5 -48 C 138.5 -49.105 137.605 -50 136.5 -50 Z" fill="#bababa"/>
</g>
<g id="shape8">
<path d="M 6 -54 C 2.686 -54 0 -51.314 0 -48 L 0 -6 C 0 -2.686 2.686 0 6 0 L 372 0 C 375.314 0 378 -2.686 378 -6 L 378 -48 C 378 -51.314 375.314 -54 372 -54 Z" fill="#000000"/>
<path d="M 6 -53 C 3.239 -53 1 -50.761 1 -48 L 1 -6 C 1 -3.239 3.239 -1 6 -1 L 372 -1 C 374.761 -1 377 -3.239 377 -6 L 377 -48 C 377 -50.761 374.761 -53 372 -53 Z" fill="#dadada"/>
<path d="M 6 -52 C 3.791 -52 2 -50.209 2 -48 L 2 -6 C 2 -3.791 3.791 -2 6 -2 L 372 -2 C 374.209 -2 376 -3.791 376 -6 L 376 -48 C 376 -50.209 374.209 -52 372 -52 Z" fill="#f2f2f2"/>
<path d="M 12 -51 C 10.343 -51 9 -49.657 9 -48 L 9 -18 C 9 -16.343 10.343 -15 12 -15 L 366 -15 C 367.657 -15 369 -16.343 369 -18 L 369 -48 C 369 -49.657 367.657 -51 366 -51 Z" fill="#dadada"/>
<path d="M 12 -50 C 10.895 -50 10 -49.105 10 -48 L 10 -18 C 10 -16.895 10.895 -16 12 -16 L 366 -16 C 367.105 -16 368 -16.895 368 -18 L 368 -48 C 368 -49.105 367.105 -50 366 -50 Z" fill="#ffffff"/>
</g>
<g id="shape9">
<path d="M 6 -54 C 2.686 -54 0 -51.314 0 -48 L 0 -6 C 0 -2.686 2.686 0 6 0 L 102 0 C 105.314 0 108 -2.686 108 -6 L 108 -48 C 108 -51.314 105.314 -54 102 -54 Z" fill="#000000"/>
<path d="M 6 -53 C 3.239 -53 1 -50.761 1 -48 L 1 -6 C 1 -3.239 3.239 -1 6 -1 L 102 -1 C 104.761 -1 107 -3.239 107 -6 L 107 -48 C 107 -50.761 104.761 -53 102 -53 Z" fill="#dadada"/>
<path d="M 6 -52 C 3.791 -52 2 -50.209 2 -48 L 2 -6 C 2 -3.791 3.791 -2 6 -2 L 102 -2 C 104.209 -2 106 -3.791 106 -6 L 106 -48 C 106 -50.209 104.209 -52 102 -52 Z" fill="#f2f2f2"/>
<path d="M 12 -51 C 10.343 -51 9 -49.657 9 -48 L 9 -18 C 9 -16.343 10.343 -15 12 -15 L 96 -15 C 97.657 -15 99 -16.343 99 -18 L 99 -48 C 99 -49.657 97.657 -51 96 -51 Z" fill="#dadada"/>
<path d="M 12 -50 C 10.895 -50 10 -49.105 10 -48 L 10 -18 C 10 -16.895 10.895 -16 12 -16 L 96 -16 C 97.105 -16 98 -16.895 98 -18 L 98 -48 C 98 -49.105 97.105 -50 96 -50 Z" fill="#ffffff"/>
</g>
<g id="shape10">
<path d="M 6 -108 C 2.686 -108 0 -105.314 0 -102 L 0 -6 C 0 -2.686 2.686 0 6 0 L 48 0 C 51.314 0 54 -2.686 54 -6 L 54 -102 C 54 -105.314 51.314 -108 48 -108 Z" fill="#000000"/>
<path d="M 6 -107 C 3.239 -107 1 -104.761 1 -102 L 1 -6 C 1 -3.239 3.239 -1 6 -1 L 48 -1 C 50.761 -1 53 -3.239 53 -6 L 53 -102 C 53 -104.761 50.761 -107 48 -107 Z" fill="#8a8a8a"/>
<path d="M 6 -106 C 3.791 -106 2 -104.209 2 -102 L 2 -6 C 2 -3.791 3.791 -2 6 -2 L 48 -2 C 50.209 -2 52 -3.791 52 -6 L 52 -102 C 52 -104.209 50.209 -106 48 -106 Z" fill="#999999"/>
<path d="M 12 -105 C 10.343 -105 9 -103.657 9 -102 L 9 -18 C 9 -16.343 10.343 -15 12 -15 L 42 -15 C 43.657 -15 45 -16.343 45 -18 L 45 -102 C 45 -103.657 43.657 -105 42 -105 Z" fill="#8a8a8a"/>
<path d="M 12 -104 C 10.895 -104 10 -103.105 10 -102 L 10 -18 C 10 -16.895 10.895 -16 12 -16 L 42 -16 C 43.105 -16 44 -16.895 44 -18 L 44 -102 C 44 -103.105 43.105 -104 42 -104 Z" fill="#bababa"/>
</g>
<path id="path0" d="M 0.549 0.484 c 0.008 0.009 0.008 0.022 0 0.031 L 0.481 0.584 C 0.477 0.588 0.471 0.59 0.466 0.59 c -0.003 0 -0.005 -0.001 -0.008 -0.002 C 0.45 0.585 0.444 0.577 0.444 0.568 V 0.521 H 0.351 v 0.047 c 0 0.009 -0.005 0.017 -0.013 0.02 C 0.334 0.589 0.332 0.59 0.329 0.59 c -0.005 0 -0.011 -0.002 -0.015 -0.006 L 0.246 0.516 c -0.008 -0.009 -0.008 -0.022 0 -0.031 l 0.068 -0.068 C 0.32 0.41 0.329 0.408 0.337 0.412 c 0.008 0.003 0.013 0.011 0.013 0.02 v 0.047 h 0.094 V 0.432 c 0 -0.009 0.005 -0.017 0.013 -0.02 C 0.466 0.408 0.475 0.41 0.481 0.416 L 0.549 0.484 z M 0.18 0.432 v 0.137 c 0 0.012 -0.01 0.021 -0.021 0.021 H 0.021 C 0.01 0.59 0 0.58 0 0.568 V 0.432 C 0 0.42 0.01 0.41 0.021 0.41 h 0.137 C 0.17 0.41 0.18 0.42 0.18 0.432 z M 0.137 0.453 H 0.043 v 0.094 h 0.094 V 0.453 z M 1 0.329 v 0.342 c 0 0.012 -0.01 0.021 -0.021 0.021 H 0.637 c -0.012 0 -0.021 -0.01 -0.021 -0.021 V 0.329 c 0 -0.012 0.01 -0.021 0.021 -0.021 h 0.342 C 0.99 0.308 1 0.317 1 0.329 z M 0.957 0.351 H 0.658 v 0.299 h 0.299 V 0.351 z"/>
<path id="path1" d="M 0.828 0.328 H 0.737 v -0.09 C 0.737 0.106 0.631 0 0.5 0 S 0.262 0.106 0.262 0.238 v 0.09 h -0.09 c -0.022 0 -0.041 0.019 -0.041 0.041 v 0.263 C 0.131 0.834 0.296 1 0.5 1 c 0.203 0 0.369 -0.166 0.369 -0.369 V 0.369 C 0.869 0.346 0.851 0.328 0.828 0.328 z M 0.344 0.238 c 0 -0.086 0.07 -0.156 0.156 -0.156 s 0.155 0.07 0.155 0.156 v 0.09 H 0.344 V 0.238 z M 0.787 0.631 c 0 0.158 -0.129 0.287 -0.287 0.287 S 0.213 0.789 0.213 0.631 V 0.41 h 0.574 V 0.631 z M 0.589 0.53 c 0.012 0.007 0.02 0.021 0.02 0.035 c 0 0.023 -0.019 0.041 -0.041 0.041 c -0.001 0 -0.002 0 -0.002 0 H 0.541 v 0.221 c 0 0.023 -0.019 0.041 -0.041 0.041 c -0.023 0 -0.041 -0.018 -0.041 -0.041 V 0.606 H 0.435 c -0.017 0 -0.032 -0.01 -0.038 -0.025 C 0.39 0.566 0.394 0.548 0.405 0.537 l 0.065 -0.065 c 0.004 -0.004 0.008 -0.007 0.014 -0.009 C 0.488 0.46 0.493 0.459 0.498 0.459 c 0.001 0 0.001 0 0.002 0 h 0.001 c 0.005 0 0.01 0.001 0.015 0.003 C 0.52 0.464 0.523 0.467 0.527 0.47 c 0 0 0.001 0 0.002 0.001 L 0.589 0.53 z"/>
</defs>
<g class="keyboard">
<g class="key">
<use xlink:href="#shape0" transform="translate(189 -378)"/>
<text x="201" y="-408" text-anchor="start" font-family="Arial" font-size="10" fill="#1a1a1a">F13</text>
</g>
<g class="key">
<use xlink:href="#shape0" transform="translate(243 -378)"/>
<text x="255" y="-408" text-anchor="start" font-family="Arial" font-size="10" fill="#1a1a1a">F14</text>
</g>
<g class="key">
<use xlink:href="#shape0" transform="translate(297 -378)"/>
<text x="309" y="-408" text-anchor="start" font-family="Arial" font-size="10" fill="#1a1a1a">F15</text>
</g>
<g class="key">
<use xlink:href="#shape0" transform="translate(351 -378)"/>
<text x="363" y="-408" text-anchor="start" font-family="Arial" font-size="10" fill="#1a1a1a">F16</text>
</g>
<g class="key">
<use xlink:href="#shape1" transform="translate(405 -378)"/>
<text x="417" y="-408" text-anchor="start" font-family="Arial" font-size="10" fill="#1a1a1a">F17</text>
</g>
<g class="key">
<use xlink:href="#shape1" transform="translate(459 -378)"/>
<text x="471" y="-408" text-anchor="start" font-family="Arial" font-size="10" fill="#1a1a1a">F18</text>
</g>
<g class="key">
<use xlink:href="#shape1" transform="translate(513 -378)"/>
<text x="525" y="-408" text-anchor="start" font-family="Arial" font-size="10" fill="#1a1a1a">F19</text>
</g>
<g class="key">
<use xlink:href="#shape1" transform="translate(567 -378)"/>
<text x="579" y="-408" text-anchor="start" font-family="Arial" font-size="10" fill="#1a1a1a">F20</text>
</g>
<g class="key">
<use xlink:href="#shape0" transform="translate(621 -378)"/>
<text x="633" y="-408" text-anchor="start" font-family="Arial" font-size="10" fill="#1a1a1a">F21</text>
</g>
<g class="key">
<use xlink:href="#shape0" transform="translate(675 -378)"/>
<text x="687" y="-408" text-anchor="start" font-family="Arial" font-size="10" fill="#1a1a1a">F22</text>
</g>
<g class="key">
<use xlink:href="#shape0" transform="translate(729 -378)"/>
<text x="741" y="-408" text-anchor="start" font-family="Arial" font-size="10" fill="#1a1a1a">F23</text>
</g>
<g class="key">
<use xlink:href="#shape0" transform="translate(783 -378)"/>
<text x="795" y="-408" text-anchor="start" font-family="Arial" font-size="10" fill="#1a1a1a">F24</text>
<text x="795" y="-383" text-anchor="start" font-family="Arial" font-size="10" fill="#1a1a1a">+Cr</text>
</g>
<g class="key">
<use xlink:href="#shape0" transform="translate(189 -324)"/>
<text x="201" y="-354" text-anchor="start" font-family="Arial" font-size="10" fill="#1a1a1a">F1</text>
</g>
<g class="key">
<use xlink:href="#shape0" transform="translate(243 -324)"/>
<text x="255" y="-354" text-anchor="start" font-family="Arial" font-size="10" fill="#1a1a1a">F2</text>
</g>
<g class="key">
<use xlink:href="#shape0" transform="translate(297 -324)"/>
<text x="309" y="-354" text-anchor="start" font-family="Arial" font-size="10" fill="#1a1a1a">F3</text>
</g>
<g class="key">
<use xlink:href="#shape0" transform="translate(351 -324)"/>
<text x="363" y="-354" text-anchor="start" font-family="Arial" font-size="10" fill="#1a1a1a">F4</text>
</g>
<g class="key">
<use xlink:href="#shape1" transform="translate(405 -324)"/>
<text x="417" y="-354" text-anchor="start" font-family="Arial" font-size="10" fill="#1a1a1a">F5</text>
</g>
<g class="key">
<use xlink:href="#shape1" transform="translate(459 -324)"/>
<text x="471" y="-354" text-anchor="start" font-family="Arial" font-size="10" fill="#1a1a1a">F6</text>
</g>
<g class="key">
<use xlink:href="#shape1" transform="translate(513 -324)"/>
<text x="525" y="-354" text-anchor="start" font-family="Arial" font-size="10" fill="#1a1a1a">F7</text>
</g>
<g class="key">
<use xlink:href="#shape1" transform="translate(567 -324)"/>
<text x="579" y="-354" text-anchor="start" font-family="Arial" font-size="10" fill="#1a1a1a">F8</text>
</g>
<g class="key">
<use xlink:href="#shape0" transform="translate(621 -324)"/>
<text x="633" y="-354" text-anchor="start" font-family="Arial" font-size="10" fill="#1a1a1a">F9</text>
<text x="633" y="-329" text-anchor="start" font-family="Arial" font-size="10" fill="#1a1a1a">Back</text>
</g>
<g class="key">
<use xlink:href="#shape0" transform="translate(675 -324)"/>
<text x="687" y="-354" text-anchor="start" font-family="Arial" font-size="10" fill="#1a1a1a">F10</text>
<text x="687" y="-329" text-anchor="start" font-family="Arial" font-size="10" fill="#1a1a1a">Fwd</text>
</g>
<g class="key">
<use xlink:href="#shape0" transform="translate(729 -324)"/>
<text x="741" y="-354" text-anchor="start" font-family="Arial" font-size="10" fill="#1a1a1a">F11</text>
</g>
<g class="key">
<use xlink:href="#shape0" transform="translate(783 -324)"/>
<text x="795" y="-354" text-anchor="start" font-family="Arial" font-size="10" fill="#1a1a1a">F12</text>
</g>
<g class="key">
<use xlink:href="#shape0" transform="translate(0 -216)"/>
<text x="12" y="-238.5" text-anchor="start" font-family="Arial" font-size="10" fill="#1a1a1a">Attn</text>
<text x="12" y="-253.5" text-anchor="start" font-family="Arial" font-size="10" fill="#1a1a1a">SysRq</text>
</g>
<g class="key">
<use xlink:href="#shape0" transform="translate(54 -216)"/>
<text x="66" y="-221" text-anchor="start" font-family="Arial" font-size="10" fill="#1a1a1a">Clear</text>
</g>
<g class="key">
<use xlink:href="#shape1" transform="translate(135 -216)"/>
<text x="147" y="-239.4" text-anchor="start" font-family="Arial" font-size="12" fill="#1a1a1a">`</text>
<text x="147" y="-254.4" text-anchor="start" font-family="Arial" font-size="12" fill="#1a1a1a">~</text>
</g>
<g class="key">
<use xlink:href="#shape1" transform="translate(189 -216)"/>
<text x="201" y="-239.4" text-anchor="start" font-family="Arial" font-size="12" fill="#1a1a1a">1</text>
<text x="201" y="-254.4" text-anchor="start" font-family="Arial" font-size="12" fill="#1a1a1a">|</text>
</g>
<g class="key">
<use xlink:href="#shape1" transform="translate(243 -216)"/>
<text x="255" y="-239.4" text-anchor="start" font-family="Arial" font-size="12" fill="#1a1a1a">2</text>
<text x="255" y="-254.4" text-anchor="start" font-family="Arial" font-size="12" fill="#1a1a1a">@</text>
</g>
<g class="key">
<use xlink:href="#shape1" transform="translate(297 -216)"/>
<text x="309" y="-239.4" text-anchor="start" font-family="Arial" font-size="12" fill="#1a1a1a">3</text>
<text x="309" y="-254.4" text-anchor="start" font-family="Arial" font-size="12" fill="#1a1a1a">#</text>
</g>
<g class="key">
<use xlink:href="#shape1" transform="translate(351 -216)"/>
<text x="363" y="-239.4" text-anchor="start" font-family="Arial" font-size="12" fill="#1a1a1a">4</text>
<text x="363" y="-254.4" text-anchor="start" font-family="Arial" font-size="12" fill="#1a1a1a">$</text>
</g>
<g class="key">
<use xlink:href="#shape1" transform="translate(405 -216)"/>
<text x="417" y="-239.4" text-anchor="start" font-family="Arial" font-size="12" fill="#1a1a1a">5</text>
<text x="417" y="-254.4" text-anchor="start" font-family="Arial" font-size="12" fill="#1a1a1a">%</text>
</g>
<g class="key">
<use xlink:href="#shape1" transform="translate(459 -216)"/>
<text x="471" y="-239.4" text-anchor="start" font-family="Arial" font-size="12" fill="#1a1a1a">6</text>
<text x="471" y="-254.4" text-anchor="start" font-family="Arial" font-size="12" fill="#1a1a1a">&#172;</text>
</g>
<g class="key">
<use xlink:href="#shape1" transform="translate(513 -216)"/>
<text x="525" y="-239.4" text-anchor="start" font-family="Arial" font-size="12" fill="#1a1a1a">7</text>
<text x="525" y="-254.4" text-anchor="start" font-family="Arial" font-size="12" fill="#1a1a1a">&amp;</text>
</g>
<g class="key">
<use xlink:href="#shape1" transform="translate(567 -216)"/>
<text x="579" y="-239.4" text-anchor="start" font-family="Arial" font-size="12" fill="#1a1a1a">8</text>
<text x="579" y="-254.4" text-anchor="start" font-family="Arial" font-size="12" fill="#1a1a1a">*</text>
</g>
<g class="key">
<use xlink:href="#shape1" transform="translate(621 -216)"/>
<text x="633" y="-239.4" text-anchor="start" font-family="Arial" font-size="12" fill="#1a1a1a">9</text>
<text x="633" y="-254.4" text-anchor="start" font-family="Arial" font-size="12" fill="#1a1a1a">(</text>
</g>
<g class="key">
<use xlink:href="#shape1" transform="translate(675 -216)"/>
<text x="687" y="-239.4" text-anchor="start" font-family="Arial" font-size="12" fill="#1a1a1a">0</text>
<text x="687" y="-254.4" text-anchor="start" font-family="Arial" font-size="12" fill="#1a1a1a">)</text>
</g>
<g class="key">
<use xlink:href="#shape1" transform="translate(729 -216)"/>
<text x="741" y="-239.4" text-anchor="start" font-family="Arial" font-size="12" fill="#1a1a1a">&#8722;</text>
<text x="741" y="-254.4" text-anchor="start" font-family="Arial" font-size="12" fill="#1a1a1a">_</text>
</g>
<g class="key">
<use xlink:href="#shape1" transform="translate(783 -216)"/>
<text x="795" y="-239.4" text-anchor="start" font-family="Arial" font-size="12" fill="#1a1a1a">=</text>
<text x="795" y="-254.4" text-anchor="start" font-family="Arial" font-size="12" fill="#1a1a1a">+</text>
</g>
<g class="key">
<use xlink:href="#shape2" transform="translate(837 -216)"/>
<text x="849" y="-246" text-anchor="start" font-family="Arial" font-size="10" fill="#1a1a1a">&#8592;</text>
</g>
<g class="key">
<use xlink:href="#shape0" transform="translate(972 -216)"/>
<text x="984" y="-246" text-anchor="start" font-family="Arial" font-size="10" fill="#1a1a1a">&#8676;</text>
<use xlink:href="#path0" transform="translate(984 -236) scale(24 24)" fill="#1a1a1a"/>
</g>
<g class="key">
<use xlink:href="#shape0" transform="translate(1026 -216)"/>
<text x="1038" y="-246" text-anchor="start" font-family="Arial" font-size="10" fill="#1a1a1a">Dup</text>
</g>
<g class="key">
<use xlink:href="#shape0" transform="translate(1080 -216)"/>
<text x="1092" y="-221" text-anchor="start" font-family="Arial" font-size="10" fill="#1a1a1a">Jump</text>
</g>
<g class="key">
<use xlink:href="#shape0" transform="translate(1161 -216)"/>
</g>
<g class="key">
<use xlink:href="#shape0" transform="translate(1215 -216)"/>
</g>
<g class="key">
<use xlink:href="#shape0" transform="translate(1269 -216)"/>
</g>
<g class="key">
<use xlink:href="#shape0" transform="translate(1323 -216)"/>
</g>
<g class="key">
<use xlink:href="#shape0" transform="translate(0 -162)"/>
</g>
<g class="key">
<use xlink:href="#shape0" transform="translate(54 -162)"/>
<text x="66" y="-192" text-anchor="start" font-family="Arial" font-size="10" fill="#1a1a1a">ErInp</text>
</g>
<g class="key">
<use xlink:href="#shape3" transform="translate(135 -162)"/>
<text x="147" y="-192" text-anchor="start" font-family="Arial" font-size="10" fill="#1a1a1a">&#8677;</text>
</g>
<g class="key">
<use xlink:href="#shape1" transform="translate(216 -162)"/>
<text x="228" y="-198" text-anchor="start" font-family="Arial" font-size="15" fill="#1a1a1a">Q</text>
</g>
<g class="key">
<use xlink:href="#shape1" transform="translate(270 -162)"/>
<text x="282" y="-198" text-anchor="start" font-family="Arial" font-size="15" fill="#1a1a1a">W</text>
</g>
<g class="key">
<use xlink:href="#shape1" transform="translate(324 -162)"/>
<text x="336" y="-198" text-anchor="start" font-family="Arial" font-size="15" fill="#1a1a1a">E</text>
</g>
<g class="key">
<use xlink:href="#shape1" transform="translate(378 -162)"/>
<text x="390" y="-198" text-anchor="start" font-family="Arial" font-size="15" fill="#1a1a1a">R</text>
</g>
<g class="key">
<use xlink:href="#shape1" transform="translate(432 -162)"/>
<text x="444" y="-198" text-anchor="start" font-family="Arial" font-size="15" fill="#1a1a1a">T</text>
</g>
<g class="key">
<use xlink:href="#shape1" transform="translate(486 -162)"/>
<text x="498" y="-198" text-anchor="start" font-family="Arial" font-size="15" fill="#1a1a1a">Y</text>
</g>
<g class="key">
<use xlink:href="#shape1" transform="translate(540 -162)"/>
<text x="552" y="-198" text-anchor="start" font-family="Arial" font-size="15" fill="#1a1a1a">U</text>
</g>
<g class="key">
<use xlink:href="#shape1" transform="translate(594 -162)"/>
<text x="606" y="-198" text-anchor="start" font-family="Arial" font-size="15" fill="#1a1a1a">I</text>
</g>
<g class="key">
<use xlink:href="#shape1" transform="translate(648 -162)"/>
<text x="660" y="-198" text-anchor="start" font-family="Arial" font-size="15" fill="#1a1a1a">O</text>
</g>
<g class="key">
<use xlink:href="#shape1" transform="translate(702 -162)"/>
<text x="714" y="-198" text-anchor="start" font-family="Arial" font-size="15" fill="#1a1a1a">P</text>
</g>
<g class="key">
<use xlink:href="#shape1" transform="translate(756 -162)"/>
<text x="768" y="-185.4" text-anchor="start" font-family="Arial" font-size="12" fill="#1a1a1a">&#162;</text>
<text x="768" y="-200.4" text-anchor="start" font-family="Arial" font-size="12" fill="#1a1a1a">!</text>
</g>
<g class="key">
<use xlink:href="#shape1" transform="translate(810 -162)"/>
<text x="822" y="-185.4" text-anchor="start" font-family="Arial" font-size="12" fill="#1a1a1a">{</text>
<text x="822" y="-200.4" text-anchor="start" font-family="Arial" font-size="12" fill="#1a1a1a">}</text>
</g>
<g class="key">
<use xlink:href="#shape0" transform="translate(972 -162)"/>
<text x="984" y="-192" text-anchor="start" font-family="Arial" font-size="10" fill="#1a1a1a">&#8629;</text>
</g>
<g class="key">
<use xlink:href="#shape0" transform="translate(1026 -162)"/>
<text x="1038" y="-192" text-anchor="start" font-family="Arial" font-size="10" fill="#1a1a1a">Insert</text>
</g>
<g class="key">
<use xlink:href="#shape0" transform="translate(1080 -162)"/>
<text x="1092" y="-192" text-anchor="start" font-family="Arial" font-size="10" fill="#1a1a1a">Delete</text>
</g>
<g class="key">
<use xlink:href="#shape1" transform="translate(1161 -162)"/>
<text x="1173" y="-198" text-anchor="start" font-family="Arial" font-size="15" fill="#1a1a1a">7</text>
</g>
<g class="key">
<use xlink:href="#shape1" transform="translate(1215 -162)"/>
<text x="1227" y="-198" text-anchor="start" font-family="Arial" font-size="15" fill="#1a1a1a">8</text>
</g>
<g class="key">
<use xlink:href="#shape1" transform="translate(1269 -162)"/>
<text x="1281" y="-198" text-anchor="start" font-family="Arial" font-size="15" fill="#1a1a1a">9</text>
</g>
<g class="key">
<use xlink:href="#shape0" transform="translate(1323 -162)"/>
<text x="1335" y="-197" text-anchor="start" font-family="Arial" font-size="10" fill="#1a1a1a">Field</text>
<text x="1335" y="-187" text-anchor="start" font-family="Arial" font-size="10" fill="#1a1a1a">&#8722;</text>
</g>
<g class="key">
<use xlink:href="#shape0" transform="translate(0 -108)"/>
<text x="12" y="-138" text-anchor="start" font-family="Arial" font-size="10" fill="#1a1a1a">Print</text>
</g>
<g class="key">
<use xlink:href="#shape0" transform="translate(54 -108)"/>
<text x="66" y="-138" text-anchor="start" font-family="Arial" font-size="10" fill="#1a1a1a">Help</text>
<text x="66" y="-113" text-anchor="start" font-family="Arial" font-size="10" fill="#1a1a1a">Hex</text>
</g>
<g class="key">
<use xlink:href="#shape4" transform="translate(135 -108)"/>
<use xlink:href="#path1" transform="translate(147 -146) scale(10 10)" fill="#1a1a1a"/>
</g>
<g class="key">
<use xlink:href="#shape1" transform="translate(229.5 -108)"/>
<text x="241.5" y="-144" text-anchor="start" font-family="Arial" font-size="15" fill="#1a1a1a">A</text>
</g>
<g class="key">
<use xlink:href="#shape1" transform="translate(283.5 -108)"/>
<text x="295.5" y="-144" text-anchor="start" font-family="Arial" font-size="15" fill="#1a1a1a">S</text>
</g>
<g class="key">
<use xlink:href="#shape1" transform="translate(337.5 -108)"/>
<text x="349.5" y="-144" text-anchor="start" font-family="Arial" font-size="15" fill="#1a1a1a">D</text>
</g>
<g class="key">
<use xlink:href="#shape1" transform="translate(391.5 -108)"/>
<text x="403.5" y="-144" text-anchor="start" font-family="Arial" font-size="15" fill="#1a1a1a">F</text>
</g>
<g class="key">
<use xlink:href="#shape1" transform="translate(445.5 -108)"/>
<text x="457.5" y="-144" text-anchor="start" font-family="Arial" font-size="15" fill="#1a1a1a">G</text>
</g>
<g class="key">
<use xlink:href="#shape1" transform="translate(499.5 -108)"/>
<text x="511.5" y="-144" text-anchor="start" font-family="Arial" font-size="15" fill="#1a1a1a">H</text>
</g>
<g class="key">
<use xlink:href="#shape1" transform="translate(553.5 -108)"/>
<text x="565.5" y="-144" text-anchor="start" font-family="Arial" font-size="15" fill="#1a1a1a">J</text>
</g>
<g class="key">
<use xlink:href="#shape1" transform="translate(607.5 -108)"/>
<text x="619.5" y="-144" text-anchor="start" font-family="Arial" font-size="15" fill="#1a1a1a">K</text>
</g>
<g class="key">
<use xlink:href="#shape1" transform="translate(661.5 -108)"/>
<text x="673.5" y="-144" text-anchor="start" font-family="Arial" font-size="15" fill="#1a1a1a">L</text>
</g>
<g class="key">
<use xlink:href="#shape1" transform="translate(715.5 -108)"/>
<text x="727.5" y="-131.4" text-anchor="start" font-family="Arial" font-size="12" fill="#1a1a1a">;</text>
<text x="727.5" y="-146.4" text-anchor="start" font-family="Arial" font-size="12" fill="#1a1a1a">:</text>
</g>
<g class="key">
<use xlink:href="#shape1" transform="translate(769.5 -108)"/>
<text x="781.5" y="-131.4" text-anchor="start" font-family="Arial" font-size="12" fill="#1a1a1a">&#39;</text>
<text x="781.5" y="-146.4" text-anchor="start" font-family="Arial" font-size="12" fill="#1a1a1a">&#34;</text>
</g>
<g class="key">
<use xlink:href="#shape1" transform="translate(823.5 -108)"/>
<text x="835.5" y="-131.4" text-anchor="start" font-family="Arial" font-size="12" fill="#1a1a1a">\</text>
<text x="835.5" y="-146.4" text-anchor="start" font-family="Arial" font-size="12" fill="#1a1a1a">&#166;</text>
</g>
<g class="key">
<use xlink:href="#shape5" transform="translate(877.5 -108)"/>
<text x="889.5" y="-170" text-anchor="start" font-family="Arial" font-size="10" fill="#1a1a1a">Field</text>
<text x="889.5" y="-160" text-anchor="start" font-family="Arial" font-size="10" fill="#1a1a1a">Exit</text>
</g>
<g class="key">
<use xlink:href="#shape0" transform="translate(1026 -108)"/>
<text x="1038" y="-130.5" text-anchor="start" font-family="Arial" font-size="10" fill="#1a1a1a">&#8593;</text>
<text x="1038" y="-145.5" text-anchor="start" font-family="Arial" font-size="10" fill="#1a1a1a">Roll &#8593;</text>
</g>
<g class="key">
<use xlink:href="#shape1" transform="translate(1161 -108)"/>
<text x="1173" y="-144" text-anchor="start" font-family="Arial" font-size="15" fill="#1a1a1a">4</text>
</g>
<g class="key">
<use xlink:href="#shape1" transform="translate(1215 -108)"/>
<text x="1227" y="-144" text-anchor="start" font-family="Arial" font-size="15" fill="#1a1a1a">5</text>
</g>
<g class="key">
<use xlink:href="#shape1" transform="translate(1269 -108)"/>
<text x="1281" y="-144" text-anchor="start" font-family="Arial" font-size="15" fill="#1a1a1a">6</text>
</g>
<g class="key">
<use xlink:href="#shape0" transform="translate(1323 -108)"/>
</g>
<g class="key">
<use xlink:href="#shape0" transform="translate(0 -54)"/>
</g>
<g class="key">
<use xlink:href="#shape0" transform="translate(54 -54)"/>
<text x="66" y="-84" text-anchor="start" font-family="Arial" font-size="10" fill="#1a1a1a">Play</text>
<text x="66" y="-59" text-anchor="start" font-family="Arial" font-size="10" fill="#1a1a1a">Test</text>
</g>
<g class="key">
<use xlink:href="#shape6" transform="translate(135 -54)"/>
<text x="147" y="-84" text-anchor="start" font-family="Arial" font-size="10" fill="#1a1a1a">&#8679;</text>
</g>
<g class="key">
<use xlink:href="#shape1" transform="translate(202.5 -54)"/>
<text x="214.5" y="-77.4" text-anchor="start" font-family="Arial" font-size="12" fill="#1a1a1a">&lt;</text>
<text x="214.5" y="-92.4" text-anchor="start" font-family="Arial" font-size="12" fill="#1a1a1a">&gt;</text>
</g>
<g class="key">
<use xlink:href="#shape1" transform="translate(256.5 -54)"/>
<text x="268.5" y="-90" text-anchor="start" font-family="Arial" font-size="15" fill="#1a1a1a">Z</text>
</g>
<g class="key">
<use xlink:href="#shape1" transform="translate(310.5 -54)"/>
<text x="322.5" y="-90" text-anchor="start" font-family="Arial" font-size="15" fill="#1a1a1a">X</text>
</g>
<g class="key">
<use xlink:href="#shape1" transform="translate(364.5 -54)"/>
<text x="376.5" y="-90" text-anchor="start" font-family="Arial" font-size="15" fill="#1a1a1a">C</text>
</g>
<g class="key">
<use xlink:href="#shape1" transform="translate(418.5 -54)"/>
<text x="430.5" y="-90" text-anchor="start" font-family="Arial" font-size="15" fill="#1a1a1a">V</text>
</g>
<g class="key">
<use xlink:href="#shape1" transform="translate(472.5 -54)"/>
<text x="484.5" y="-90" text-anchor="start" font-family="Arial" font-size="15" fill="#1a1a1a">B</text>
</g>
<g class="key">
<use xlink:href="#shape1" transform="translate(526.5 -54)"/>
<text x="538.5" y="-90" text-anchor="start" font-family="Arial" font-size="15" fill="#1a1a1a">N</text>
</g>
<g class="key">
<use xlink:href="#shape1" transform="translate(580.5 -54)"/>
<text x="592.5" y="-90" text-anchor="start" font-family="Arial" font-size="15" fill="#1a1a1a">M</text>
</g>
<g class="key">
<use xlink:href="#shape1" transform="translate(634.5 -54)"/>
<text x="646.5" y="-77.4" text-anchor="start" font-family="Arial" font-size="12" fill="#1a1a1a">,</text>
<text x="646.5" y="-92.4" text-anchor="start" font-family="Arial" font-size="12" fill="#1a1a1a">,</text>
</g>
<g class="key">
<use xlink:href="#shape1" transform="translate(688.5 -54)"/>
<text x="700.5" y="-77.4" text-anchor="start" font-family="Arial" font-size="12" fill="#1a1a1a">.</text>
<text x="700.5" y="-92.4" text-anchor="start" font-family="Arial" font-size="12" fill="#1a1a1a">.</text>
</g>
<g class="key">
<use xlink:href="#shape1" transform="translate(742.5 -54)"/>
<text x="754.5" y="-77.4" text-anchor="start" font-family="Arial" font-size="12" fill="#1a1a1a">/</text>
<text x="754.5" y="-92.4" text-anchor="start" font-family="Arial" font-size="12" fill="#1a1a1a">?</text>
</g>
<g class="key">
<use xlink:href="#shape7" transform="translate(796.5 -54)"/>
<text x="808.5" y="-84" text-anchor="start" font-family="Arial" font-size="10" fill="#1a1a1a">&#8679;</text>
</g>
<g class="key">
<use xlink:href="#shape0" transform="translate(972 -54)"/>
<text x="984" y="-84" text-anchor="start" font-family="Arial" font-size="10" fill="#1a1a1a">&#8592;</text>
</g>
<g class="key">
<use xlink:href="#shape0" transform="translate(1026 -54)"/>
<text x="1038" y="-84" text-anchor="start" font-family="Arial" font-size="10" fill="#1a1a1a">Rule</text>
<text x="1038" y="-59" text-anchor="start" font-family="Arial" font-size="10" fill="#1a1a1a">Home</text>
</g>
<g class="key">
<use xlink:href="#shape0" transform="translate(1080 -54)"/>
<text x="1092" y="-84" text-anchor="start" font-family="Arial" font-size="10" fill="#1a1a1a">&#8594;</text>
</g>
<g class="key">
<use xlink:href="#shape1" transform="translate(1161 -54)"/>
<text x="1173" y="-90" text-anchor="start" font-family="Arial" font-size="15" fill="#1a1a1a">1</text>
</g>
<g class="key">
<use xlink:href="#shape1" transform="translate(1215 -54)"/>
<text x="1227" y="-90" text-anchor="start" font-family="Arial" font-size="15" fill="#1a1a1a">2</text>
</g>
<g class="key">
<use xlink:href="#shape1" transform="translate(1269 -54)"/>
<text x="1281" y="-90" text-anchor="start" font-family="Arial" font-size="15" fill="#1a1a1a">3</text>
</g>
<g class="key">
<use xlink:href="#shape0" transform="translate(0 0)"/>
<text x="12" y="-30" text-anchor="start" font-family="Arial" font-size="10" fill="#1a1a1a">SetUp</text>
</g>
<g class="key">
<use xlink:href="#shape0" transform="translate(54 0)"/>
<text x="66" y="-30" text-anchor="start" font-family="Arial" font-size="10" fill="#1a1a1a">Recrd</text>
<text x="66" y="-5" text-anchor="start" font-family="Arial" font-size="10" fill="#1a1a1a">Pause</text>
</g>
<g class="key">
<use xlink:href="#shape3" transform="translate(135 0)"/>
<text x="147" y="-30" text-anchor="start" font-family="Arial" font-size="10" fill="#1a1a1a">Reset</text>
<text x="147" y="-5" text-anchor="start" font-family="Arial" font-size="10" fill="#1a1a1a">Quit</text>
</g>
<g class="key">
<use xlink:href="#shape3" transform="translate(270 0)"/>
<text x="282" y="-30" text-anchor="start" font-family="Arial" font-size="10" fill="#1a1a1a">Alt</text>
</g>
<g class="key">
<use xlink:href="#shape8" transform="translate(351 0)"/>
</g>
<g class="key">
<use xlink:href="#shape3" transform="translate(729 0)"/>
<text x="741" y="-30" text-anchor="start" font-family="Arial" font-size="10" fill="#1a1a1a">Alt</text>
</g>
<g class="key">
<use xlink:href="#shape3" transform="translate(864 0)"/>
<text x="876" y="-30" text-anchor="start" font-family="Arial" font-size="10" fill="#1a1a1a">Enter</text>
</g>
<g class="key">
<use xlink:href="#shape0" transform="translate(1026 0)"/>
<text x="1038" y="-22.5" text-anchor="start" font-family="Arial" font-size="10" fill="#1a1a1a">&#8595;</text>
<text x="1038" y="-37.5" text-anchor="start" font-family="Arial" font-size="10" fill="#1a1a1a">Roll &#8595;</text>
</g>
<g class="key">
<use xlink:href="#shape9" transform="translate(1161 0)"/>
<text x="1173" y="-36" text-anchor="start" font-family="Arial" font-size="15" fill="#1a1a1a">0</text>
</g>
<g class="key">
<use xlink:href="#shape1" transform="translate(1269 0)"/>
<text x="1281" y="-36" text-anchor="start" font-family="Arial" font-size="15" fill="#1a1a1a">.</text>
</g>
<g class="key">
<use xlink:href="#shape10" transform="translate(1323 0)"/>
<text x="1335" y="-62" text-anchor="start" font-family="Arial" font-size="10" fill="#1a1a1a">Field</text>
<text x="1335" y="-52" text-anchor="start" font-family="Arial" font-size="10" fill="#1a1a1a">+</text>
</g>
</g>
</svg>
