<?xml version="1.0"?>
<svg xmlns="http://www.w3.org/2000/svg" xmlns:xlink="http://www.w3.org/1999/xlink" version="1.1" width="783" height="335.25" viewBox="0 -317.25 783 335.25">
<defs>
<g id="shape0">
<path d="M 6 -40.5 C 2.686 -40.5 0 -37.814 0 -34.5 L 0 -6 C 0 -2.686 2.686 0 6 0 L 40.059 0 C 43.373 0 46.059 -2.686 46.059 -6 L 46.059 -34.5 C 46.059 -37.814 43.373 -40.5 40.059 -40.5 Z" fill="#000000"/>
<path d="M 6 -39.5 C 3.239 -39.5 1 -37.261 1 -34.5 L 1 -6 C 1 -3.239 3.239 -1 6 -1 L 40.059 -1 C 42.82 -1 45.059 -3.239 45.059 -6 L 45.059 -34.5 C 45.059 -37.261 42.82 -39.5 40.059 -39.5 Z" fill="#5c5c5c"/>
<path d="M 6 -38.5 C 3.791 -38.5 2 -36.709 2 -34.5 L 2 -6 C 2 -3.791 3.791 -2 6 -2 L 40.059 -2 C 42.268 -2 44.059 -3.791 44.059 -6 L 44.059 -34.5 C 44.059 -36.709 42.268 -38.5 40.059 -38.5 Z" fill="#666666"/>
<path d="M 10 -37.5 C 8.343 -37.5 7 -36.157 7 -34.5 L 7 -14 C 7 -12.343 8.343 -11 10 -11 L 36.059 -11 C 37.716 -11 39.059 -12.343 39.059 -14 L 39.059 -34.5 C 39.059 -36.157 37.716 -37.5 36.059 -37.5 Z" fill="#5c5c5c"/>
<path d="M 10 -36.5 C 8.895 -36.5 8 -35.605 8 -34.5 L 8 -14 C 8 -12.895 8.895 -12 10 -12 L 36.059 -12 C 37.163 -12 38.059 -12.895 38.059 -14 L 38.059 -34.5 C 38.059 -35.605 37.163 -36.5 36.059 -36.5 Z" fill="#838383"/>
</g>
<g id="shape1">
<path d="M 6 -40.5 C 2.686 -40.5 0 -37.814 0 -34.5 L 0 -6 C 0 -2.686 2.686 0 6 0 L 40.059 0 C 43.373 0 46.059 -2.686 46.059 -6 L 46.059 -34.5 C 46.059 -37.814 43.373 -40.5 40.059 -40.5 Z" fill="#000000"/>
<path d="M 6 -39.5 C 3.239 -39.5 1 -37.261 1 -34.5 L 1 -6 C 1 -3.239 3.239 -1 6 -1 L 40.059 -1 C 42.82 -1 45.059 -3.239 45.059 -6 L 45.059 -34.5 C 45.059 -37.261 42.82 -39.5 40.059 -39.5 Z" fill="#8a8a8a"/>
<path d="M 6 -38.5 C 3.791 -38.5 2 -36.709 2 -34.5 L 2 -6 C 2 -3.791 3.791 -2 6 -2 L 40.059 -2 C 42.268 -2 44.059 -3.791 44.059 -6 L 44.059 -34.5 C 44.059 -36.709 42.268 -38.5 40.059 -38.5 Z" fill="#999999"/>
<path d="M 10 -37.5 C 8.343 -37.5 7 -36.157 7 -34.5 L 7 -14 C 7 -12.343 8.343 -11 10 -11 L 36.059 -11 C 37.716 -11 39.059 -12.343 39.059 -14 L 39.059 -34.5 C 39.059 -36.157 37.716 -37.5 36.059 -37.5 Z" fill="#8a8a8a"/>
<path d="M 10 -36.5 C 8.895 -36.5 8 -35.605 8 -34.5 L 8 -14 C 8 -12.895 8.895 -12 10 -12 L 36.059 -12 C 37.163 -12 38.059 -12.895 38.059 -14 L 38.059 -34.5 C 38.059 -35.605 37.163 -36.5 36.059 -36.5 Z" fill="#bababa"/>
</g>
<g id="shape2">
<path d="M 6 -54 C 2.686 -54 0 -51.314 0 -48 L 0 -6 C 0 -2.686 2.686 0 6 0 L 48 0 C 51.314 0 54 -2.686 54 -6 L 54 -48 C 54 -51.314 51.314 -54 48 -54 Z" fill="#000000"/>
<path d="M 6 -53 C 3.239 -53 1 -50.761 1 -48 L 1 -6 C 1 -3.239 3.239 -1 6 -1 L 48 -1 C 50.761 -1 53 -3.239 53 -6 L 53 -48 C 53 -50.761 50.761 -53 48 -53 Z" fill="#001f1f"/>
<path d="M 6 -52 C 3.791 -52 2 -50.209 2 -48 L 2 -6 C 2 -3.791 3.791 -2 6 -2 L 48 -2 C 50.209 -2 52 -3.791 52 -6 L 52 -48 C 52 -50.209 50.209 -52 48 -52 Z" fill="#002222"/>
<path d="M 12 -51 C 10.343 -51 9 -49.657 9 -48 L 9 -18 C 9 -16.343 10.343 -15 12 -15 L 42 -15 C 43.657 -15 45 -16.343 45 -18 L 45 -48 C 45 -49.657 43.657 -51 42 -51 Z" fill="#001f1f"/>
<path d="M 12 -50 C 10.895 -50 10 -49.105 10 -48 L 10 -18 C 10 -16.895 10.895 -16 12 -16 L 42 -16 C 43.105 -16 44 -16.895 44 -18 L 44 -48 C 44 -49.105 43.105 -50 42 -50 Z" fill="#143939"/>
</g>
<g id="shape3">
<path d="M 6 -54 C 2.686 -54 0 -51.314 0 -48 L 0 -6 C 0 -2.686 2.686 0 6 0 L 75 0 C 78.314 0 81 -2.686 81 -6 L 81 -48 C 81 -51.314 78.314 -54 75 -54 Z" fill="#000000"/>
<path d="M 6 -53 C 3.239 -53 1 -50.761 1 -48 L 1 -6 C 1 -3.239 3.239 -1 6 -1 L 75 -1 C 77.761 -1 80 -3.239 80 -6 L 80 -48 C 80 -50.761 77.761 -53 75 -53 Z" fill="#001f1f"/>
<path d="M 6 -52 C 3.791 -52 2 -50.209 2 -48 L 2 -6 C 2 -3.791 3.791 -2 6 -2 L 75 -2 C 77.209 -2 79 -3.791 79 -6 L 79 -48 C 79 -50.209 77.209 -52 75 -52 Z" fill="#002222"/>
<path d="M 12 -51 C 10.343 -51 9 -49.657 9 -48 L 9 -18 C 9 -16.343 10.343 -15 12 -15 L 69 -15 C 70.657 -15 72 -16.343 72 -18 L 72 -48 C 72 -49.657 70.657 -51 69 -51 Z" fill="#001f1f"/>
<path d="M 12 -50 C 10.895 -50 10 -49.105 10 -48 L 10 -18 C 10 -16.895 10.895 -16 12 -16 L 69 -16 C 70.105 -16 71 -16.895 71 -18 L 71 -48 C 71 -49.105 70.105 -50 69 -50 Z" fill="#143939"/>
</g>
<g id="shape4">
<path d="M 6 -54 C 2.686 -54 0 -51.314 0 -48 L 0 -6 C 0 -2.686 2.686 0 6 0 L 88.5 0 C 91.814 0 94.5 -2.686 94.5 -6 L 94.5 -48 C 94.5 -51.314 91.814 -54 88.5 -54 Z" fill="#000000"/>
<path d="M 6 -53 C 3.239 -53 1 -50.761 1 -48 L 1 -6 C 1 -3.239 3.239 -1 6 -1 L 88.5 -1 C 91.261 -1 93.5 -3.239 93.5 -6 L 93.5 -48 C 93.5 -50.761 91.261 -53 88.5 -53 Z" fill="#001f1f"/>
<path d="M 6 -52 C 3.791 -52 2 -50.209 2 -48 L 2 -6 C 2 -3.791 3.791 -2 6 -2 L 88.5 -2 C 90.709 -2 92.5 -3.791 92.5 -6 L 92.5 -48 C 92.5 -50.209 90.709 -52 88.5 -52 Z" fill="#002222"/>
<path d="M 12 -51 C 10.343 -51 9 -49.657 9 -48 L 9 -18 C 9 -16.343 10.343 -15 12 -15 L 82.5 -15 C 84.157 -15 85.5 -16.343 85.5 -18 L 85.5 -48 C 85.5 -49.657 84.157 -51 82.5 -51 Z" fill="#001f1f"/>
<path d="M 12 -50 C 10.895 -50 10 -49.105 10 -48 L 10 -18 C 10 -16.895 10.895 -16 12 -16 L 82.5 -16 C 83.605 -16 84.5 -16.895 84.5 -18 L 84.5 -48 C 84.5 -49.105 83.605 -50 82.5 -50 Z" fill="#143939"/>
</g>
<g id="shape5">
<path d="M 6 -54 C 2.686 -54 0 -51.314 0 -48 L 0 -6 C 0 -2.686 2.686 0 6 0 L 115.5 0 C 118.814 0 121.5 -2.686 121.5 -6 L 121.5 -48 C 121.5 -51.314 118.814 -54 115.5 -54 Z" fill="#000000"/>
<path d="M 6 -53 C 3.239 -53 1 -50.761 1 -48 L 1 -6 C 1 -3.239 3.239 -1 6 -1 L 115.5 -1 C 118.261 -1 120.5 -3.239 120.5 -6 L 120.5 -48 C 120.5 -50.761 118.261 -53 115.5 -53 Z" fill="#001f1f"/>
<path d="M 6 -52 C 3.791 -52 2 -50.209 2 -48 L 2 -6 C 2 -3.791 3.791 -2 6 -2 L 115.5 -2 C 117.709 -2 119.5 -3.791 119.5 -6 L 119.5 -48 C 119.5 -50.209 117.709 -52 115.5 -52 Z" fill="#002222"/>
<path d="M 12 -51 C 10.343 -51 9 -49.657 9 -48 L 9 -18 C 9 -16.343 10.343 -15 12 -15 L 109.5 -15 C 111.157 -15 112.5 -16.343 112.5 -18 L 112.5 -48 C 112.5 -49.657 111.157 -51 109.5 -51 Z" fill="#001f1f"/>
<path d="M 12 -50 C 10.895 -50 10 -49.105 10 -48 L 10 -18 C 10 -16.895 10.895 -16 12 -16 L 109.5 -16 C 110.605 -16 111.5 -16.895 111.5 -18 L 111.5 -48 C 111.5 -49.105 110.605 -50 109.5 -50 Z" fill="#143939"/>
</g>
<g id="shape6">
<path d="M 6 -36 C 2.686 -36 0 -33.314 0 -30 L 0 -6 C 0 -2.686 2.686 0 6 0 L 43.5 0 C 46.814 0 49.5 -2.686 49.5 -6 L 49.5 -30 C 49.5 -33.314 46.814 -36 43.5 -36 Z" fill="#000000"/>
<path d="M 6 -35 C 3.239 -35 1 -32.761 1 -30 L 1 -6 C 1 -3.239 3.239 -1 6 -1 L 43.5 -1 C 46.261 -1 48.5 -3.239 48.5 -6 L 48.5 -30 C 48.5 -32.761 46.261 -35 43.5 -35 Z" fill="#001f1f"/>
<path d="M 6 -34 C 3.791 -34 2 -32.209 2 -30 L 2 -6 C 2 -3.791 3.791 -2 6 -2 L 43.5 -2 C 45.709 -2 47.5 -3.791 47.5 -6 L 47.5 -30 C 47.5 -32.209 45.709 -34 43.5 -34 Z" fill="#002222"/>
<path d="M 9 -33 C 7.343 -33 6 -31.657 6 -30 L 6 -12 C 6 -10.343 7.343 -9 9 -9 L 40.5 -9 C 42.157 -9 43.5 -10.343 43.5 -12 L 43.5 -30 C 43.5 -31.657 42.157 -33 40.5 -33 Z" fill="#001f1f"/>
<path d="M 9 -32 C 7.895 -32 7 -31.105 7 -30 L 7 -12 C 7 -10.895 7.895 -10 9 -10 L 40.5 -10 C 41.605 -10 42.5 -10.895 42.5 -12 L 42.5 -30 C 42.5 -31.105 41.605 -32 40.5 -32 Z" fill="#143939"/>
</g>
<g id="shape7">
<path d="M 6 -54 C 2.686 -54 0 -51.314 0 -48 L 0 -6 C 0 -2.686 2.686 0 6 0 L 61.5 0 C 64.814 0 67.5 -2.686 67.5 -6 L 67.5 -48 C 67.5 -51.314 64.814 -54 61.5 -54 Z" fill="#000000"/>
<path d="M 6 -53 C 3.239 -53 1 -50.761 1 -48 L 1 -6 C 1 -3.239 3.239 -1 6 -1 L 61.5 -1 C 64.261 -1 66.5 -3.239 66.5 -6 L 66.5 -48 C 66.5 -50.761 64.261 -53 61.5 -53 Z" fill="#001f1f"/>
<path d="M 6 -52 C 3.791 -52 2 -50.209 2 -48 L 2 -6 C 2 -3.791 3.791 -2 6 -2 L 61.5 -2 C 63.709 -2 65.5 -3.791 65.5 -6 L 65.5 -48 C 65.5 -50.209 63.709 -52 61.5 -52 Z" fill="#002222"/>
<path d="M 12 -51 C 10.343 -51 9 -49.657 9 -48 L 9 -18 C 9 -16.343 10.343 -15 12 -15 L 55.5 -15 C 57.157 -15 58.5 -16.343 58.5 -18 L 58.5 -48 C 58.5 -49.657 57.157 -51 55.5 -51 Z" fill="#001f1f"/>
<path d="M 12 -50 C 10.895 -50 10 -49.105 10 -48 L 10 -18 C 10 -16.895 10.895 -16 12 -16 L 55.5 -16 C 56.605 -16 57.5 -16.895 57.5 -18 L 57.5 -48 C 57.5 -49.105 56.605 -50 55.5 -50 Z" fill="#143939"/>
</g>
<g id="shape8">
<path d="M 6 -54 C 2.686 -54 0 -51.314 0 -48 L 0 -6 C 0 -2.686 2.686 0 6 0 L 291 0 C 294.314 0 297 -2.686 297 -6 L 297 -48 C 297 -51.314 294.314 -54 291 -54 Z" fill="#000000"/>
<path d="M 6 -53 C 3.239 -53 1 -50.761 1 -48 L 1 -6 C 1 -3.239 3.239 -1 6 -1 L 291 -1 C 293.761 -1 296 -3.239 296 -6 L 296 -48 C 296 -50.761 293.761 -53 291 -53 Z" fill="#001f1f"/>
<path d="M 6 -52 C 3.791 -52 2 -50.209 2 -48 L 2 -6 C 2 -3.791 3.791 -2 6 -2 L 291 -2 C 293.209 -2 295 -3.791 295 -6 L 295 -48 C 295 -50.209 293.209 -52 291 -52 Z" fill="#002222"/>
<path d="M 12 -51 C 10.343 -51 9 -49.657 9 -48 L 9 -18 C 9 -16.343 10.343 -15 12 -15 L 285 -15 C 286.657 -15 288 -16.343 288 -18 L 288 -48 C 288 -49.657 286.657 -51 285 -51 Z" fill="#001f1f"/>
<path d="M 12 -50 C 10.895 -50 10 -49.105 10 -48 L 10 -18 C 10 -16.895 10.895 -16 12 -16 L 285 -16 C 286.105 -16 287 -16.895 287 -18 L 287 -48 C 287 -49.105 286.105 -50 285 -50 Z" fill="#143939"/>
</g>
</defs>
<g class="keyboard">
<g class="key">
<use xlink:href="#shape0" transform="translate(0 -276.75)"/>
<text x="23.029" y="-298" text-anchor="middle" font-family="Arial" font-size="10" fill="#f2f2f2">on/off</text>
</g>
<g class="key">
<use xlink:href="#shape1" transform="translate(46.059 -276.75)"/>
<text x="69.088" y="-298" text-anchor="middle" font-family="Arial" font-size="10" fill="#f2f2f2">file 1</text>
</g>
<g class="key">
<use xlink:href="#shape1" transform="translate(92.118 -276.75)"/>
<text x="115.147" y="-298" text-anchor="middle" font-family="Arial" font-size="10" fill="#f2f2f2">file 2</text>
</g>
<g class="key">
<use xlink:href="#shape1" transform="translate(138.176 -276.75)"/>
<text x="161.206" y="-298" text-anchor="middle" font-family="Arial" font-size="10" fill="#f2f2f2">file 3</text>
</g>
<g class="key">
<use xlink:href="#shape1" transform="translate(184.235 -276.75)"/>
<text x="207.265" y="-298" text-anchor="middle" font-family="Arial" font-size="10" fill="#f2f2f2">file 4</text>
</g>
<g class="key">
<use xlink:href="#shape1" transform="translate(230.294 -276.75)"/>
<text x="253.324" y="-298" text-anchor="middle" font-family="Arial" font-size="10" fill="#f2f2f2">file 5</text>
</g>
<g class="key">
<use xlink:href="#shape1" transform="translate(276.353 -276.75)"/>
<text x="299.382" y="-298" text-anchor="middle" font-family="Arial" font-size="10" fill="#f2f2f2">file 6</text>
</g>
<g class="key">
<use xlink:href="#shape1" transform="translate(322.412 -276.75)"/>
<text x="345.441" y="-298" text-anchor="middle" font-family="Arial" font-size="10" fill="#f2f2f2">file 7</text>
</g>
<g class="key">
<use xlink:href="#shape1" transform="translate(368.471 -276.75)"/>
<text x="391.5" y="-298" text-anchor="middle" font-family="Arial" font-size="10" fill="#f2f2f2">file 8</text>
</g>
<g class="key">
<use xlink:href="#shape1" transform="translate(414.529 -276.75)"/>
<text x="437.559" y="-298" text-anchor="middle" font-family="Arial" font-size="10" fill="#f2f2f2">print</text>
</g>
<g class="key">
<use xlink:href="#shape1" transform="translate(460.588 -276.75)"/>
<text x="483.618" y="-303" text-anchor="middle" font-family="Arial" font-size="10" fill="#f2f2f2">spell</text>
<text x="483.618" y="-293" text-anchor="middle" font-family="Arial" font-size="10" textLength="26.059" lengthAdjust="spacingAndGlyphs" fill="#f2f2f2">check</text>
</g>
<g class="key">
<use xlink:href="#shape1" transform="translate(506.647 -276.75)"/>
<text x="529.676" y="-298" text-anchor="middle" font-family="Arial" font-size="10" fill="#f2f2f2">find</text>
</g>
<g class="key">
<use xlink:href="#shape1" transform="translate(552.706 -276.75)"/>
<text x="575.735" y="-303" text-anchor="middle" font-family="Arial" font-size="10" fill="#f2f2f2">clear</text>
<text x="575.735" y="-293" text-anchor="middle" font-family="Arial" font-size="10" fill="#f2f2f2">file</text>
</g>
<g class="key">
<use xlink:href="#shape1" transform="translate(598.765 -276.75)"/>
<text x="621.794" y="-298" text-anchor="middle" font-family="Arial" font-size="10" fill="#f2f2f2">home</text>
</g>
<g class="key">
<use xlink:href="#shape1" transform="translate(644.824 -276.75)"/>
<text x="667.853" y="-298" text-anchor="middle" font-family="Arial" font-size="10" fill="#f2f2f2">end</text>
</g>
<g class="key">
<use xlink:href="#shape1" transform="translate(690.882 -276.75)"/>
<text x="713.912" y="-298" text-anchor="middle" font-family="Arial" font-size="10" textLength="26.059" lengthAdjust="spacingAndGlyphs" fill="#f2f2f2">applets</text>
</g>
<g class="key">
<use xlink:href="#shape0" transform="translate(736.941 -276.75)"/>
<text x="759.971" y="-298" text-anchor="middle" font-family="Arial" font-size="10" fill="#f2f2f2">send</text>
</g>
<g class="key">
<use xlink:href="#shape2" transform="translate(0 -216)"/>
<text x="12" y="-239.4" text-anchor="start" font-family="Arial" font-size="12" fill="#f2f2f2">`</text>
<text x="12" y="-254.4" text-anchor="start" font-family="Arial" font-size="12" fill="#f2f2f2">~</text>
</g>
<g class="key">
<use xlink:href="#shape2" transform="translate(54 -216)"/>
<text x="66" y="-239.4" text-anchor="start" font-family="Arial" font-size="12" fill="#f2f2f2">1</text>
<text x="66" y="-254.4" text-anchor="start" font-family="Arial" font-size="12" fill="#f2f2f2">!</text>
</g>
<g class="key">
<use xlink:href="#shape2" transform="translate(108 -216)"/>
<text x="120" y="-239.4" text-anchor="start" font-family="Arial" font-size="12" fill="#f2f2f2">2</text>
<text x="120" y="-254.4" text-anchor="start" font-family="Arial" font-size="12" fill="#f2f2f2">@</text>
</g>
<g class="key">
<use xlink:href="#shape2" transform="translate(162 -216)"/>
<text x="174" y="-239.4" text-anchor="start" font-family="Arial" font-size="12" fill="#f2f2f2">3</text>
<text x="174" y="-254.4" text-anchor="start" font-family="Arial" font-size="12" fill="#f2f2f2">#</text>
</g>
<g class="key">
<use xlink:href="#shape2" transform="translate(216 -216)"/>
<text x="228" y="-239.4" text-anchor="start" font-family="Arial" font-size="12" fill="#f2f2f2">4</text>
<text x="228" y="-254.4" text-anchor="start" font-family="Arial" font-size="12" fill="#f2f2f2">$</text>
</g>
<g class="key">
<use xlink:href="#shape2" transform="translate(270 -216)"/>
<text x="282" y="-239.4" text-anchor="start" font-family="Arial" font-size="12" fill="#f2f2f2">5</text>
<text x="282" y="-254.4" text-anchor="start" font-family="Arial" font-size="12" fill="#f2f2f2">%</text>
</g>
<g class="key">
<use xlink:href="#shape2" transform="translate(324 -216)"/>
<text x="336" y="-239.4" text-anchor="start" font-family="Arial" font-size="12" fill="#f2f2f2">6</text>
<text x="336" y="-254.4" text-anchor="start" font-family="Arial" font-size="12" fill="#f2f2f2">^</text>
</g>
<g class="key">
<use xlink:href="#shape2" transform="translate(378 -216)"/>
<text x="390" y="-239.4" text-anchor="start" font-family="Arial" font-size="12" fill="#f2f2f2">7</text>
<text x="390" y="-254.4" text-anchor="start" font-family="Arial" font-size="12" fill="#f2f2f2">&amp;</text>
</g>
<g class="key">
<use xlink:href="#shape2" transform="translate(432 -216)"/>
<text x="444" y="-239.4" text-anchor="start" font-family="Arial" font-size="12" fill="#f2f2f2">8</text>
<text x="444" y="-254.4" text-anchor="start" font-family="Arial" font-size="12" fill="#f2f2f2">*</text>
</g>
<g class="key">
<use xlink:href="#shape2" transform="translate(486 -216)"/>
<text x="498" y="-239.4" text-anchor="start" font-family="Arial" font-size="12" fill="#f2f2f2">9</text>
<text x="498" y="-254.4" text-anchor="start" font-family="Arial" font-size="12" fill="#f2f2f2">(</text>
</g>
<g class="key">
<use xlink:href="#shape2" transform="translate(540 -216)"/>
<text x="552" y="-239.4" text-anchor="start" font-family="Arial" font-size="12" fill="#f2f2f2">0</text>
<text x="552" y="-254.4" text-anchor="start" font-family="Arial" font-size="12" fill="#f2f2f2">)</text>
</g>
<g class="key">
<use xlink:href="#shape2" transform="translate(594 -216)"/>
<text x="606" y="-239.4" text-anchor="start" font-family="Arial" font-size="12" fill="#f2f2f2">&#8722;</text>
<text x="606" y="-254.4" text-anchor="start" font-family="Arial" font-size="12" fill="#f2f2f2">_</text>
</g>
<g class="key">
<use xlink:href="#shape2" transform="translate(648 -216)"/>
<text x="660" y="-239.4" text-anchor="start" font-family="Arial" font-size="12" fill="#f2f2f2">=</text>
<text x="660" y="-254.4" text-anchor="start" font-family="Arial" font-size="12" fill="#f2f2f2">+</text>
</g>
<g class="key">
<use xlink:href="#shape3" transform="translate(702 -216)"/>
<text x="714" y="-256" text-anchor="start" font-family="Arial" font-size="10" fill="#f2f2f2">back</text>
<text x="714" y="-246" text-anchor="start" font-family="Arial" font-size="10" fill="#f2f2f2">space</text>
<text x="714" y="-236" text-anchor="start" font-family="Arial" font-size="10" fill="#f2f2f2">&#8592;</text>
</g>
<g class="key">
<use xlink:href="#shape3" transform="translate(0 -162)"/>
<text x="12" y="-202" text-anchor="start" font-family="Arial" font-size="10" fill="#f2f2f2">tab</text>
<text x="12" y="-192" text-anchor="start" font-family="Arial" font-size="10" fill="#f2f2f2">&#8633;</text>
</g>
<g class="key">
<use xlink:href="#shape2" transform="translate(81 -162)"/>
<text x="93" y="-198" text-anchor="start" font-family="Arial" font-size="15" fill="#f2f2f2">Q</text>
</g>
<g class="key">
<use xlink:href="#shape2" transform="translate(135 -162)"/>
<text x="147" y="-198" text-anchor="start" font-family="Arial" font-size="15" fill="#f2f2f2">W</text>
</g>
<g class="key">
<use xlink:href="#shape2" transform="translate(189 -162)"/>
<text x="201" y="-198" text-anchor="start" font-family="Arial" font-size="15" fill="#f2f2f2">E</text>
</g>
<g class="key">
<use xlink:href="#shape2" transform="translate(243 -162)"/>
<text x="255" y="-198" text-anchor="start" font-family="Arial" font-size="15" fill="#f2f2f2">R</text>
</g>
<g class="key">
<use xlink:href="#shape2" transform="translate(297 -162)"/>
<text x="309" y="-198" text-anchor="start" font-family="Arial" font-size="15" fill="#f2f2f2">T</text>
</g>
<g class="key">
<use xlink:href="#shape2" transform="translate(351 -162)"/>
<text x="363" y="-198" text-anchor="start" font-family="Arial" font-size="15" fill="#f2f2f2">Y</text>
</g>
<g class="key">
<use xlink:href="#shape2" transform="translate(405 -162)"/>
<text x="417" y="-198" text-anchor="start" font-family="Arial" font-size="15" fill="#f2f2f2">U</text>
</g>
<g class="key">
<use xlink:href="#shape2" transform="translate(459 -162)"/>
<text x="471" y="-198" text-anchor="start" font-family="Arial" font-size="15" fill="#f2f2f2">I</text>
</g>
<g class="key">
<use xlink:href="#shape2" transform="translate(513 -162)"/>
<text x="525" y="-198" text-anchor="start" font-family="Arial" font-size="15" fill="#f2f2f2">O</text>
</g>
<g class="key">
<use xlink:href="#shape2" transform="translate(567 -162)"/>
<text x="579" y="-198" text-anchor="start" font-family="Arial" font-size="15" fill="#f2f2f2">P</text>
</g>
<g class="key">
<use xlink:href="#shape2" transform="translate(621 -162)"/>
<text x="633" y="-185.4" text-anchor="start" font-family="Arial" font-size="12" fill="#f2f2f2">[</text>
<text x="633" y="-200.4" text-anchor="start" font-family="Arial" font-size="12" fill="#f2f2f2">{</text>
</g>
<g class="key">
<use xlink:href="#shape2" transform="translate(675 -162)"/>
<text x="687" y="-185.4" text-anchor="start" font-family="Arial" font-size="12" fill="#f2f2f2">]</text>
<text x="687" y="-200.4" text-anchor="start" font-family="Arial" font-size="12" fill="#f2f2f2">}</text>
</g>
<g class="key">
<use xlink:href="#shape2" transform="translate(729 -162)"/>
<text x="741" y="-185.4" text-anchor="start" font-family="Arial" font-size="12" fill="#f2f2f2">\</text>
<text x="741" y="-200.4" text-anchor="start" font-family="Arial" font-size="12" fill="#f2f2f2">|</text>
</g>
<g class="key">
<use xlink:href="#shape4" transform="translate(0 -108)"/>
<text x="12" y="-148" text-anchor="start" font-family="Arial" font-size="10" fill="#f2f2f2">caps lock</text>
</g>
<g class="key">
<use xlink:href="#shape2" transform="translate(94.5 -108)"/>
<text x="106.5" y="-144" text-anchor="start" font-family="Arial" font-size="15" fill="#f2f2f2">A</text>
</g>
<g class="key">
<use xlink:href="#shape2" transform="translate(148.5 -108)"/>
<text x="160.5" y="-144" text-anchor="start" font-family="Arial" font-size="15" fill="#f2f2f2">S</text>
</g>
<g class="key">
<use xlink:href="#shape2" transform="translate(202.5 -108)"/>
<text x="214.5" y="-144" text-anchor="start" font-family="Arial" font-size="15" fill="#f2f2f2">D</text>
</g>
<g class="key">
<use xlink:href="#shape2" transform="translate(256.5 -108)"/>
<text x="268.5" y="-144" text-anchor="start" font-family="Arial" font-size="15" fill="#f2f2f2">F</text>
</g>
<g class="key">
<use xlink:href="#shape2" transform="translate(310.5 -108)"/>
<text x="322.5" y="-144" text-anchor="start" font-family="Arial" font-size="15" fill="#f2f2f2">G</text>
</g>
<g class="key">
<use xlink:href="#shape2" transform="translate(364.5 -108)"/>
<text x="376.5" y="-144" text-anchor="start" font-family="Arial" font-size="15" fill="#f2f2f2">H</text>
</g>
<g class="key">
<use xlink:href="#shape2" transform="translate(418.5 -108)"/>
<text x="430.5" y="-144" text-anchor="start" font-family="Arial" font-size="15" fill="#f2f2f2">J</text>
</g>
<g class="key">
<use xlink:href="#shape2" transform="translate(472.5 -108)"/>
<text x="484.5" y="-144" text-anchor="start" font-family="Arial" font-size="15" fill="#f2f2f2">K</text>
</g>
<g class="key">
<use xlink:href="#shape2" transform="translate(526.5 -108)"/>
<text x="538.5" y="-144" text-anchor="start" font-family="Arial" font-size="15" fill="#f2f2f2">L</text>
</g>
<g class="key">
<use xlink:href="#shape2" transform="translate(580.5 -108)"/>
<text x="592.5" y="-131.4" text-anchor="start" font-family="Arial" font-size="12" fill="#f2f2f2">;</text>
<text x="592.5" y="-146.4" text-anchor="start" font-family="Arial" font-size="12" fill="#f2f2f2">:</text>
</g>
<g class="key">
<use xlink:href="#shape2" transform="translate(634.5 -108)"/>
<text x="646.5" y="-131.4" text-anchor="start" font-family="Arial" font-size="12" fill="#f2f2f2">&#39;</text>
<text x="646.5" y="-146.4" text-anchor="start" font-family="Arial" font-size="12" fill="#f2f2f2">&#34;</text>
</g>
<g class="key">
<use xlink:href="#shape4" transform="translate(688.5 -108)"/>
<text x="700.5" y="-148" text-anchor="start" font-family="Arial" font-size="10" fill="#f2f2f2">enter</text>
<text x="700.5" y="-138" text-anchor="start" font-family="Arial" font-size="10" fill="#f2f2f2">&#8629;</text>
</g>
<g class="key">
<use xlink:href="#shape5" transform="translate(0 -54)"/>
<text x="12" y="-94" text-anchor="start" font-family="Arial" font-size="10" fill="#f2f2f2">shift</text>
<text x="12" y="-84" text-anchor="start" font-family="Arial" font-size="10" fill="#f2f2f2">&#8679;</text>
</g>
<g class="key">
<use xlink:href="#shape2" transform="translate(121.5 -54)"/>
<text x="133.5" y="-90" text-anchor="start" font-family="Arial" font-size="15" fill="#f2f2f2">Z</text>
</g>
<g class="key">
<use xlink:href="#shape2" transform="translate(175.5 -54)"/>
<text x="187.5" y="-90" text-anchor="start" font-family="Arial" font-size="15" fill="#f2f2f2">X</text>
</g>
<g class="key">
<use xlink:href="#shape2" transform="translate(229.5 -54)"/>
<text x="241.5" y="-90" text-anchor="start" font-family="Arial" font-size="15" fill="#f2f2f2">C</text>
</g>
<g class="key">
<use xlink:href="#shape2" transform="translate(283.5 -54)"/>
<text x="295.5" y="-90" text-anchor="start" font-family="Arial" font-size="15" fill="#f2f2f2">V</text>
</g>
<g class="key">
<use xlink:href="#shape2" transform="translate(337.5 -54)"/>
<text x="349.5" y="-90" text-anchor="start" font-family="Arial" font-size="15" fill="#f2f2f2">B</text>
</g>
<g class="key">
<use xlink:href="#shape2" transform="translate(391.5 -54)"/>
<text x="403.5" y="-90" text-anchor="start" font-family="Arial" font-size="15" fill="#f2f2f2">N</text>
</g>
<g class="key">
<use xlink:href="#shape2" transform="translate(445.5 -54)"/>
<text x="457.5" y="-90" text-anchor="start" font-family="Arial" font-size="15" fill="#f2f2f2">M</text>
</g>
<g class="key">
<use xlink:href="#shape2" transform="translate(499.5 -54)"/>
<text x="511.5" y="-77.4" text-anchor="start" font-family="Arial" font-size="12" fill="#f2f2f2">,</text>
<text x="511.5" y="-92.4" text-anchor="start" font-family="Arial" font-size="12" fill="#f2f2f2">&lt;</text>
</g>
<g class="key">
<use xlink:href="#shape2" transform="translate(553.5 -54)"/>
<text x="565.5" y="-77.4" text-anchor="start" font-family="Arial" font-size="12" fill="#f2f2f2">.</text>
<text x="565.5" y="-92.4" text-anchor="start" font-family="Arial" font-size="12" fill="#f2f2f2">&gt;</text>
</g>
<g class="key">
<use xlink:href="#shape2" transform="translate(607.5 -54)"/>
<text x="619.5" y="-77.4" text-anchor="start" font-family="Arial" font-size="12" fill="#f2f2f2">/</text>
<text x="619.5" y="-92.4" text-anchor="start" font-family="Arial" font-size="12" fill="#f2f2f2">?</text>
</g>
<g class="key">
<use xlink:href="#shape5" transform="translate(661.5 -54)"/>
<text x="673.5" y="-94" text-anchor="start" font-family="Arial" font-size="10" fill="#f2f2f2">shift</text>
<text x="673.5" y="-84" text-anchor="start" font-family="Arial" font-size="10" fill="#f2f2f2">&#8679;</text>
</g>
<g class="key">
<use xlink:href="#shape6" transform="translate(684 -18)"/>
<text x="708.75" y="-36" text-anchor="middle" font-family="Arial" font-size="10" fill="#f2f2f2">&#8593;</text>
</g>
<g class="key">
<use xlink:href="#shape7" transform="translate(0 0)"/>
<text x="12" y="-40" text-anchor="start" font-family="Arial" font-size="10" fill="#f2f2f2">ctrl</text>
</g>
<g class="key">
<use xlink:href="#shape7" transform="translate(67.5 0)"/>
<text x="79.5" y="-25" text-anchor="start" font-family="Arial" font-size="10" fill="#f2f2f2">option</text>
<text x="79.5" y="-40" text-anchor="start" font-family="Arial" font-size="10" fill="#f2f2f2">alt</text>
</g>
<g class="key">
<use xlink:href="#shape7" transform="translate(135 0)"/>
<text x="147" y="-25" text-anchor="start" font-family="Arial" font-size="10" fill="#f2f2f2">cmd</text>
<text x="147" y="-40" text-anchor="start" font-family="Arial" font-size="10" fill="#f2f2f2">&#8984;</text>
</g>
<g class="key">
<use xlink:href="#shape8" transform="translate(202.5 0)"/>
</g>
<g class="key">
<use xlink:href="#shape2" transform="translate(499.5 0)"/>
<text x="511.5" y="-40" text-anchor="start" font-family="Arial" font-size="10" fill="#f2f2f2">esc</text>
</g>
<g class="key">
<use xlink:href="#shape2" transform="translate(553.5 0)"/>
<text x="565.5" y="-25" text-anchor="start" font-family="Arial" font-size="10" fill="#f2f2f2">option</text>
<text x="565.5" y="-40" text-anchor="start" font-family="Arial" font-size="10" fill="#f2f2f2">alt</text>
</g>
<g class="key">
<use xlink:href="#shape6" transform="translate(634.5 0)"/>
<text x="659.25" y="-18" text-anchor="middle" font-family="Arial" font-size="10" fill="#f2f2f2">&#8592;</text>
</g>
<g class="key">
<use xlink:href="#shape6" transform="translate(733.5 0)"/>
<text x="758.25" y="-18" text-anchor="middle" font-family="Arial" font-size="10" fill="#f2f2f2">&#8594;</text>
</g>
<g class="key">
<use xlink:href="#shape6" transform="translate(684 18)"/>
<text x="708.75" y="0" text-anchor="middle" font-family="Arial" font-size="10" fill="#f2f2f2">&#8595;</text>
</g>
</g>
</svg>
