<?xml version="1.0"?>
<svg xmlns="http://www.w3.org/2000/svg" xmlns:xlink="http://www.w3.org/1999/xlink" version="1.1" width="810" height="324" viewBox="0 -324 810 324">
<defs>
<g id="shape0">
<path d="M 6 -54 C 2.686 -54 0 -51.314 0 -48 L 0 -6 C 0 -2.686 2.686 0 6 0 L 48 0 C 51.314 0 54 -2.686 54 -6 L 54 -48 C 54 -51.314 51.314 -54 48 -54 Z" fill="#000000"/>
<path d="M 6 -53 C 3.239 -53 1 -50.761 1 -48 L 1 -6 C 1 -3.239 3.239 -1 6 -1 L 48 -1 C 50.761 -1 53 -3.239 53 -6 L 53 -48 C 53 -50.761 50.761 -53 48 -53 Z" fill="#dadada"/>
<path d="M 6 -52 C 3.791 -52 2 -50.209 2 -48 L 2 -6 C 2 -3.791 3.791 -2 6 -2 L 48 -2 C 50.209 -2 52 -3.791 52 -6 L 52 -48 C 52 -50.209 50.209 -52 48 -52 Z" fill="#f2f2f2"/>
<path d="M 12 -51 C 10.343 -51 9 -49.657 9 -48 L 9 -18 C 9 -16.343 10.343 -15 12 -15 L 42 -15 C 43.657 -15 45 -16.343 45 -18 L 45 -48 C 45 -49.657 43.657 -51 42 -51 Z" fill="#dadada"/>
<path d="M 12 -50 C 10.895 -50 10 -49.105 10 -48 L 10 -18 C 10 -16.895 10.895 -16 12 -16 L 42 -16 C 43.105 -16 44 -16.895 44 -18 L 44 -48 C 44 -49.105 43.105 -50 42 -50 Z" fill="#ffffff"/>
</g>
<g id="shape1">
<path d="M 6 -54 C 2.686 -54 0 -51.314 0 -48 L 0 -6 C 0 -2.686 2.686 0 6 0 L 75 0 C 78.314 0 81 -2.686 81 -6 L 81 -48 C 81 -51.314 78.314 -54 75 -54 Z" fill="#000000"/>
<path d="M 6 -53 C 3.239 -53 1 -50.761 1 -48 L 1 -6 C 1 -3.239 3.239 -1 6 -1 L 75 -1 C 77.761 -1 80 -3.239 80 -6 L 80 -48 C 80 -50.761 77.761 -53 75 -53 Z" fill="#dadada"/>
<path d="M 6 -52 C 3.791 -52 2 -50.209 2 -48 L 2 -6 C 2 -3.791 3.791 -2 6 -2 L 75 -2 C 77.209 -2 79 -3.791 79 -6 L 79 -48 C 79 -50.209 77.209 -52 75 -52 Z" fill="#f2f2f2"/>
<path d="M 12 -51 C 10.343 -51 9 -49.657 9 -48 L 9 -18 C 9 -16.343 10.343 -15 12 -15 L 69 -15 C 70.657 -15 72 -16.343 72 -18 L 72 -48 C 72 -49.657 70.657 -51 69 -51 Z" fill="#dadada"/>
<path d="M 12 -50 C 10.895 -50 10 -49.105 10 -48 L 10 -18 C 10 -16.895 10.895 -16 12 -16 L 69 -16 C 70.105 -16 71 -16.895 71 -18 L 71 -48 C 71 -49.105 70.105 -50 69 -50 Z" fill="#ffffff"/>
</g>
<g id="shape2">
<path d="M 6 -54 C 2.686 -54 0 -51.314 0 -48 L 0 -6 C 0 -2.686 2.686 0 6 0 L 88.5 0 C 91.814 0 94.5 -2.686 94.5 -6 L 94.5 -48 C 94.5 -51.314 91.814 -54 88.5 -54 Z" fill="#000000"/>
<path d="M 6 -53 C 3.239 -53 1 -50.761 1 -48 L 1 -6 C 1 -3.239 3.239 -1 6 -1 L 88.5 -1 C 91.261 -1 93.5 -3.239 93.5 -6 L 93.5 -48 C 93.5 -50.761 91.261 -53 88.5 -53 Z" fill="#dadada"/>
<path d="M 6 -52 C 3.791 -52 2 -50.209 2 -48 L 2 -6 C 2 -3.791 3.791 -2 6 -2 L 88.5 -2 C 90.709 -2 92.5 -3.791 92.5 -6 L 92.5 -48 C 92.5 -50.209 90.709 -52 88.5 -52 Z" fill="#f2f2f2"/>
<path d="M 12 -51 C 10.343 -51 9 -49.657 9 -48 L 9 -18 C 9 -16.343 10.343 -15 12 -15 L 82.5 -15 C 84.157 -15 85.5 -16.343 85.5 -18 L 85.5 -48 C 85.5 -49.657 84.157 -51 82.5 -51 Z" fill="#dadada"/>
<path d="M 12 -50 C 10.895 -50 10 -49.105 10 -48 L 10 -18 C 10 -16.895 10.895 -16 12 -16 L 82.5 -16 C 83.605 -16 84.5 -16.895 84.5 -18 L 84.5 -48 C 84.5 -49.105 83.605 -50 82.5 -50 Z" fill="#ffffff"/>
</g>
<g id="shape3">
<path d="M 6 -54 C 2.686 -54 0 -51.314 0 -48 L 0 -6 C 0 -2.686 2.686 0 6 0 L 61.5 0 C 64.814 0 67.5 -2.686 67.5 -6 L 67.5 -48 C 67.5 -51.314 64.814 -54 61.5 -54 Z" fill="#000000"/>
<path d="M 6 -53 C 3.239 -53 1 -50.761 1 -48 L 1 -6 C 1 -3.239 3.239 -1 6 -1 L 61.5 -1 C 64.261 -1 66.5 -3.239 66.5 -6 L 66.5 -48 C 66.5 -50.761 64.261 -53 61.5 -53 Z" fill="#dadada"/>
<path d="M 6 -52 C 3.791 -52 2 -50.209 2 -48 L 2 -6 C 2 -3.791 3.791 -2 6 -2 L 61.5 -2 C 63.709 -2 65.5 -3.791 65.5 -6 L 65.5 -48 C 65.5 -50.209 63.709 -52 61.5 -52 Z" fill="#f2f2f2"/>
<path d="M 12 -51 C 10.343 -51 9 -49.657 9 -48 L 9 -18 C 9 -16.343 10.343 -15 12 -15 L 55.5 -15 C 57.157 -15 58.5 -16.343 58.5 -18 L 58.5 -48 C 58.5 -49.657 57.157 -51 55.5 -51 Z" fill="#dadada"/>
<path d="M 12 -50 C 10.895 -50 10 -49.105 10 -48 L 10 -18 C 10 -16.895 10.895 -16 12 -16 L 55.5 -16 C 56.605 -16 57.5 -16.895 57.5 -18 L 57.5 -48 C 57.5 -49.105 56.605 -50 55.5 -50 Z" fill="#ffffff"/>
</g>
<g id="shape4">
<path d="M 6 -54 C 2.686 -54 0 -51.314 0 -48 L 0 -6 C 0 -2.686 2.686 0 6 0 L 129 0 C 132.314 0 135 -2.686 135 -6 L 135 -48 C 135 -51.314 132.314 -54 129 -54 Z" fill="#000000"/>
<path d="M 6 -53 C 3.239 -53 1 -50.761 1 -48 L 1 -6 C 1 -3.239 3.239 -1 6 -1 L 129 -1 C 131.761 -1 134 -3.239 134 -6 L 134 -48 C 134 -50.761 131.761 -53 129 -53 Z" fill="#dadada"/>
<path d="M 6 -52 C 3.791 -52 2 -50.209 2 -48 L 2 -6 C 2 -3.791 3.791 -2 6 -2 L 129 -2 C 131.209 -2 133 -3.791 133 -6 L 133 -48 C 133 -50.209 131.209 -52 129 -52 Z" fill="#f2f2f2"/>
<path d="M 12 -51 C 10.343 -51 9 -49.657 9 -48 L 9 -18 C 9 -16.343 10.343 -15 12 -15 L 123 -15 C 124.657 -15 126 -16.343 126 -18 L 126 -48 C 126 -49.657 124.657 -51 123 -51 Z" fill="#dadada"/>
<path d="M 12 -50 C 10.895 -50 10 -49.105 10 -48 L 10 -18 C 10 -16.895 10.895 -16 12 -16 L 123 -16 C 124.105 -16 125 -16.895 125 -18 L 125 -48 C 125 -49.105 124.105 -50 123 -50 Z" fill="#ffffff"/>
</g>
<path id="path0" d="M 0 0 h 0.45 v 0.45 h -0.45 z M 1 0 v 0.45 h -0.45 v -0.45 z M 1 1 h -0.45 v -0.45 h 0.45 z M 0 1 v -0.45 h 0.45 v 0.45 z"/>
</defs>
<g class="keyboard">
<g class="key">
<use xlink:href="#shape0" transform="translate(0 -270)"/>
<text x="27" y="-300" text-anchor="middle" font-family="Arial" font-size="10" fill="#000000">Esc</text>
<text x="4" y="-274" font-family="monospace" font-size="12" fill="#000000">0x29</text>
</g>
<g class="key">
<use xlink:href="#shape0" transform="translate(108 -270)"/>
<text x="135" y="-300" text-anchor="middle" font-family="Arial" font-size="10" fill="#000000">F1</text>
<text x="112" y="-274" font-family="monospace" font-size="12" fill="#000000">0x3A</text>
</g>
<g class="key">
<use xlink:href="#shape0" transform="translate(162 -270)"/>
<text x="189" y="-300" text-anchor="middle" font-family="Arial" font-size="10" fill="#000000">F2</text>
<text x="166" y="-274" font-family="monospace" font-size="12" fill="#000000">0x3B</text>
</g>
<g class="key">
<use xlink:href="#shape0" transform="translate(216 -270)"/>
<text x="243" y="-300" text-anchor="middle" font-family="Arial" font-size="10" fill="#000000">F3</text>
<text x="220" y="-274" font-family="monospace" font-size="12" fill="#000000">0x3C</text>
</g>
<g class="key">
<use xlink:href="#shape0" transform="translate(270 -270)"/>
<text x="297" y="-300" text-anchor="middle" font-family="Arial" font-size="10" fill="#000000">F4</text>
<text x="274" y="-274" font-family="monospace" font-size="12" fill="#000000">0x3D</text>
</g>
<g class="key">
<use xlink:href="#shape0" transform="translate(351 -270)"/>
<text x="378" y="-300" text-anchor="middle" font-family="Arial" font-size="10" fill="#000000">F5</text>
<text x="355" y="-274" font-family="monospace" font-size="12" fill="#000000">0x3E</text>
</g>
<g class="key">
<use xlink:href="#shape0" transform="translate(405 -270)"/>
<text x="432" y="-300" text-anchor="middle" font-family="Arial" font-size="10" fill="#000000">F6</text>
<text x="409" y="-274" font-family="monospace" font-size="12" fill="#000000">0x3F</text>
</g>
<g class="key">
<use xlink:href="#shape0" transform="translate(459 -270)"/>
<text x="486" y="-300" text-anchor="middle" font-family="Arial" font-size="10" fill="#000000">F7</text>
<text x="463" y="-274" font-family="monospace" font-size="12" fill="#000000">0x40</text>
</g>
<g class="key">
<use xlink:href="#shape0" transform="translate(513 -270)"/>
<text x="540" y="-300" text-anchor="middle" font-family="Arial" font-size="10" fill="#000000">F8</text>
<text x="517" y="-274" font-family="monospace" font-size="12" fill="#000000">0x41</text>
</g>
<g class="key">
<use xlink:href="#shape0" transform="translate(594 -270)"/>
<text x="621" y="-300" text-anchor="middle" font-family="Arial" font-size="10" fill="#000000">F9</text>
<text x="598" y="-274" font-family="monospace" font-size="12" fill="#000000">0x42</text>
</g>
<g class="key">
<use xlink:href="#shape0" transform="translate(648 -270)"/>
<text x="675" y="-300" text-anchor="middle" font-family="Arial" font-size="10" fill="#000000">F10</text>
<text x="652" y="-274" font-family="monospace" font-size="12" fill="#000000">0x43</text>
</g>
<g class="key">
<use xlink:href="#shape0" transform="translate(702 -270)"/>
<text x="729" y="-300" text-anchor="middle" font-family="Arial" font-size="10" fill="#000000">F11</text>
<text x="706" y="-274" font-family="monospace" font-size="12" fill="#000000">0x44</text>
</g>
<g class="key">
<use xlink:href="#shape0" transform="translate(756 -270)"/>
<text x="783" y="-300" text-anchor="middle" font-family="Arial" font-size="10" fill="#000000">F12</text>
<text x="760" y="-274" font-family="monospace" font-size="12" fill="#000000">0x45</text>
</g>
<g class="key">
<use xlink:href="#shape0" transform="translate(0 -216)"/>
<text x="27" y="-237.9" text-anchor="middle" font-family="Arial" font-size="12" fill="#000000">`</text>
<text x="27" y="-252.9" text-anchor="middle" font-family="Arial" font-size="12" fill="#000000">~</text>
<text x="4" y="-220" font-family="monospace" font-size="12" fill="#000000">0x35</text>
</g>
<g class="key">
<use xlink:href="#shape0" transform="translate(54 -216)"/>
<text x="81" y="-237.9" text-anchor="middle" font-family="Arial" font-size="12" fill="#000000">1</text>
<text x="81" y="-252.9" text-anchor="middle" font-family="Arial" font-size="12" fill="#000000">!</text>
<text x="58" y="-220" font-family="monospace" font-size="12" fill="#000000">0x1E</text>
</g>
<g class="key">
<use xlink:href="#shape0" transform="translate(108 -216)"/>
<text x="135" y="-237.9" text-anchor="middle" font-family="Arial" font-size="12" fill="#000000">2</text>
<text x="135" y="-252.9" text-anchor="middle" font-family="Arial" font-size="12" fill="#000000">@</text>
<text x="112" y="-220" font-family="monospace" font-size="12" fill="#000000">0x1F</text>
</g>
<g class="key">
<use xlink:href="#shape0" transform="translate(162 -216)"/>
<text x="189" y="-237.9" text-anchor="middle" font-family="Arial" font-size="12" fill="#000000">3</text>
<text x="189" y="-252.9" text-anchor="middle" font-family="Arial" font-size="12" fill="#000000">#</text>
<text x="166" y="-220" font-family="monospace" font-size="12" fill="#000000">0x20</text>
</g>
<g class="key">
<use xlink:href="#shape0" transform="translate(216 -216)"/>
<text x="243" y="-237.9" text-anchor="middle" font-family="Arial" font-size="12" fill="#000000">4</text>
<text x="243" y="-252.9" text-anchor="middle" font-family="Arial" font-size="12" fill="#000000">$</text>
<text x="220" y="-220" font-family="monospace" font-size="12" fill="#000000">0x21</text>
</g>
<g class="key">
<use xlink:href="#shape0" transform="translate(270 -216)"/>
<text x="297" y="-237.9" text-anchor="middle" font-family="Arial" font-size="12" fill="#000000">5</text>
<text x="297" y="-252.9" text-anchor="middle" font-family="Arial" font-size="12" fill="#000000">%</text>
<text x="274" y="-220" font-family="monospace" font-size="12" fill="#000000">0x22</text>
</g>
<g class="key">
<use xlink:href="#shape0" transform="translate(324 -216)"/>
<text x="351" y="-237.9" text-anchor="middle" font-family="Arial" font-size="12" fill="#000000">6</text>
<text x="351" y="-252.9" text-anchor="middle" font-family="Arial" font-size="12" fill="#000000">^</text>
<text x="328" y="-220" font-family="monospace" font-size="12" fill="#000000">0x23</text>
</g>
<g class="key">
<use xlink:href="#shape0" transform="translate(378 -216)"/>
<text x="405" y="-237.9" text-anchor="middle" font-family="Arial" font-size="12" fill="#000000">7</text>
<text x="405" y="-252.9" text-anchor="middle" font-family="Arial" font-size="12" fill="#000000">&amp;</text>
<text x="382" y="-220" font-family="monospace" font-size="12" fill="#000000">0x24</text>
</g>
<g class="key">
<use xlink:href="#shape0" transform="translate(432 -216)"/>
<text x="459" y="-237.9" text-anchor="middle" font-family="Arial" font-size="12" fill="#000000">8</text>
<text x="459" y="-252.9" text-anchor="middle" font-family="Arial" font-size="12" fill="#000000">*</text>
<text x="436" y="-220" font-family="monospace" font-size="12" fill="#000000">0x25</text>
</g>
<g class="key">
<use xlink:href="#shape0" transform="translate(486 -216)"/>
<text x="513" y="-237.9" text-anchor="middle" font-family="Arial" font-size="12" fill="#000000">9</text>
<text x="513" y="-252.9" text-anchor="middle" font-family="Arial" font-size="12" fill="#000000">(</text>
<text x="490" y="-220" font-family="monospace" font-size="12" fill="#000000">0x26</text>
</g>
<g class="key">
<use xlink:href="#shape0" transform="translate(540 -216)"/>
<text x="567" y="-237.9" text-anchor="middle" font-family="Arial" font-size="12" fill="#000000">0</text>
<text x="567" y="-252.9" text-anchor="middle" font-family="Arial" font-size="12" fill="#000000">)</text>
<text x="544" y="-220" font-family="monospace" font-size="12" fill="#000000">0x27</text>
</g>
<g class="key">
<use xlink:href="#shape0" transform="translate(594 -216)"/>
<text x="621" y="-237.9" text-anchor="middle" font-family="Arial" font-size="12" fill="#000000">&#8722;</text>
<text x="621" y="-252.9" text-anchor="middle" font-family="Arial" font-size="12" fill="#000000">_</text>
<text x="598" y="-220" font-family="monospace" font-size="12" fill="#000000">0x2D</text>
</g>
<g class="key">
<use xlink:href="#shape0" transform="translate(648 -216)"/>
<text x="675" y="-237.9" text-anchor="middle" font-family="Arial" font-size="12" fill="#000000">=</text>
<text x="675" y="-252.9" text-anchor="middle" font-family="Arial" font-size="12" fill="#000000">+</text>
<text x="652" y="-220" font-family="monospace" font-size="12" fill="#000000">0x2E</text>
</g>
<g class="key">
<use xlink:href="#shape0" transform="translate(702 -216)"/>
<text x="729" y="-237.9" text-anchor="middle" font-family="Arial" font-size="12" fill="#000000">&#165;</text>
<text x="729" y="-252.9" text-anchor="middle" font-family="Arial" font-size="12" fill="#000000">|</text>
<text x="706" y="-220" font-family="monospace" font-size="12" fill="#000000">0x89</text>
</g>
<g class="key">
<use xlink:href="#shape0" transform="translate(756 -216)"/>
<text x="783" y="-251" text-anchor="middle" font-family="Arial" font-size="10" fill="#000000">Back</text>
<text x="783" y="-241" text-anchor="middle" font-family="Arial" font-size="10" fill="#000000">Space</text>
<text x="760" y="-220" font-family="monospace" font-size="12" fill="#000000">0x2A</text>
</g>
<g class="key">
<use xlink:href="#shape1" transform="translate(0 -162)"/>
<text x="40.5" y="-192" text-anchor="middle" font-family="Arial" font-size="10" fill="#000000">Tab</text>
<text x="4" y="-166" font-family="monospace" font-size="12" fill="#000000">0x2B</text>
</g>
<g class="key">
<use xlink:href="#shape0" transform="translate(81 -162)"/>
<text x="108" y="-190.5" text-anchor="middle" font-family="Arial" font-size="15" fill="#000000">Q</text>
<text x="85" y="-166" font-family="monospace" font-size="12" fill="#000000">0x14</text>
</g>
<g class="key">
<use xlink:href="#shape0" transform="translate(135 -162)"/>
<text x="162" y="-190.5" text-anchor="middle" font-family="Arial" font-size="15" fill="#000000">W</text>
<text x="139" y="-166" font-family="monospace" font-size="12" fill="#000000">0x1A</text>
</g>
<g class="key">
<use xlink:href="#shape0" transform="translate(189 -162)"/>
<text x="216" y="-190.5" text-anchor="middle" font-family="Arial" font-size="15" fill="#000000">E</text>
<text x="193" y="-166" font-family="monospace" font-size="12" fill="#000000">0x08</text>
</g>
<g class="key">
<use xlink:href="#shape0" transform="translate(243 -162)"/>
<text x="270" y="-190.5" text-anchor="middle" font-family="Arial" font-size="15" fill="#000000">R</text>
<text x="247" y="-166" font-family="monospace" font-size="12" fill="#000000">0x15</text>
</g>
<g class="key">
<use xlink:href="#shape0" transform="translate(297 -162)"/>
<text x="324" y="-190.5" text-anchor="middle" font-family="Arial" font-size="15" fill="#000000">T</text>
<text x="301" y="-166" font-family="monospace" font-size="12" fill="#000000">0x17</text>
</g>
<g class="key">
<use xlink:href="#shape0" transform="translate(351 -162)"/>
<text x="378" y="-190.5" text-anchor="middle" font-family="Arial" font-size="15" fill="#000000">Y</text>
<text x="355" y="-166" font-family="monospace" font-size="12" fill="#000000">0x1C</text>
</g>
<g class="key">
<use xlink:href="#shape0" transform="translate(405 -162)"/>
<text x="432" y="-190.5" text-anchor="middle" font-family="Arial" font-size="15" fill="#000000">U</text>
<text x="409" y="-166" font-family="monospace" font-size="12" fill="#000000">0x18</text>
</g>
<g class="key">
<use xlink:href="#shape0" transform="translate(459 -162)"/>
<text x="486" y="-190.5" text-anchor="middle" font-family="Arial" font-size="15" fill="#000000">I</text>
<text x="463" y="-166" font-family="monospace" font-size="12" fill="#000000">0x0C</text>
</g>
<g class="key">
<use xlink:href="#shape0" transform="translate(513 -162)"/>
<text x="540" y="-190.5" text-anchor="middle" font-family="Arial" font-size="15" fill="#000000">O</text>
<text x="517" y="-166" font-family="monospace" font-size="12" fill="#000000">0x12</text>
</g>
<g class="key">
<use xlink:href="#shape0" transform="translate(567 -162)"/>
<text x="594" y="-190.5" text-anchor="middle" font-family="Arial" font-size="15" fill="#000000">P</text>
<text x="571" y="-166" font-family="monospace" font-size="12" fill="#000000">0x13</text>
</g>
<g class="key">
<use xlink:href="#shape0" transform="translate(621 -162)"/>
<text x="648" y="-183.9" text-anchor="middle" font-family="Arial" font-size="12" fill="#000000">[</text>
<text x="648" y="-198.9" text-anchor="middle" font-family="Arial" font-size="12" fill="#000000">{</text>
<text x="625" y="-166" font-family="monospace" font-size="12" fill="#000000">0x2F</text>
</g>
<g class="key">
<use xlink:href="#shape0" transform="translate(675 -162)"/>
<text x="702" y="-183.9" text-anchor="middle" font-family="Arial" font-size="12" fill="#000000">]</text>
<text x="702" y="-198.9" text-anchor="middle" font-family="Arial" font-size="12" fill="#000000">}</text>
<text x="679" y="-166" font-family="monospace" font-size="12" fill="#000000">0x30</text>
</g>
<g class="key">
<use xlink:href="#shape1" transform="translate(729 -162)"/>
<text x="769.5" y="-183.9" text-anchor="middle" font-family="Arial" font-size="12" fill="#000000">\</text>
<text x="769.5" y="-198.9" text-anchor="middle" font-family="Arial" font-size="12" fill="#000000">|</text>
<text x="733" y="-166" font-family="monospace" font-size="12" fill="#000000">0x31</text>
</g>
<g class="key">
<use xlink:href="#shape2" transform="translate(0 -108)"/>
<text x="47.25" y="-138" text-anchor="middle" font-family="Arial" font-size="10" fill="#000000">Caps Lock</text>
<text x="4" y="-112" font-family="monospace" font-size="12" fill="#000000">0x39</text>
</g>
<g class="key">
<use xlink:href="#shape0" transform="translate(94.5 -108)"/>
<text x="121.5" y="-136.5" text-anchor="middle" font-family="Arial" font-size="15" fill="#000000">A</text>
<text x="98.5" y="-112" font-family="monospace" font-size="12" fill="#000000">0x04</text>
</g>
<g class="key">
<use xlink:href="#shape0" transform="translate(148.5 -108)"/>
<text x="175.5" y="-136.5" text-anchor="middle" font-family="Arial" font-size="15" fill="#000000">S</text>
<text x="152.5" y="-112" font-family="monospace" font-size="12" fill="#000000">0x16</text>
</g>
<g class="key">
<use xlink:href="#shape0" transform="translate(202.5 -108)"/>
<text x="229.5" y="-136.5" text-anchor="middle" font-family="Arial" font-size="15" fill="#000000">D</text>
<text x="206.5" y="-112" font-family="monospace" font-size="12" fill="#000000">0x07</text>
</g>
<g class="key">
<use xlink:href="#shape0" transform="translate(256.5 -108)"/>
<text x="283.5" y="-136.5" text-anchor="middle" font-family="Arial" font-size="15" fill="#000000">F</text>
<text x="260.5" y="-112" font-family="monospace" font-size="12" fill="#000000">0x09</text>
</g>
<g class="key">
<use xlink:href="#shape0" transform="translate(310.5 -108)"/>
<text x="337.5" y="-136.5" text-anchor="middle" font-family="Arial" font-size="15" fill="#000000">G</text>
<text x="314.5" y="-112" font-family="monospace" font-size="12" fill="#000000">0x0A</text>
</g>
<g class="key">
<use xlink:href="#shape0" transform="translate(364.5 -108)"/>
<text x="391.5" y="-136.5" text-anchor="middle" font-family="Arial" font-size="15" fill="#000000">H</text>
<text x="368.5" y="-112" font-family="monospace" font-size="12" fill="#000000">0x0B</text>
</g>
<g class="key">
<use xlink:href="#shape0" transform="translate(418.5 -108)"/>
<text x="445.5" y="-136.5" text-anchor="middle" font-family="Arial" font-size="15" fill="#000000">J</text>
<text x="422.5" y="-112" font-family="monospace" font-size="12" fill="#000000">0x0D</text>
</g>
<g class="key">
<use xlink:href="#shape0" transform="translate(472.5 -108)"/>
<text x="499.5" y="-136.5" text-anchor="middle" font-family="Arial" font-size="15" fill="#000000">K</text>
<text x="476.5" y="-112" font-family="monospace" font-size="12" fill="#000000">0x0E</text>
</g>
<g class="key">
<use xlink:href="#shape0" transform="translate(526.5 -108)"/>
<text x="553.5" y="-136.5" text-anchor="middle" font-family="Arial" font-size="15" fill="#000000">L</text>
<text x="530.5" y="-112" font-family="monospace" font-size="12" fill="#000000">0x0F</text>
</g>
<g class="key">
<use xlink:href="#shape0" transform="translate(580.5 -108)"/>
<text x="607.5" y="-129.9" text-anchor="middle" font-family="Arial" font-size="12" fill="#000000">;</text>
<text x="607.5" y="-144.9" text-anchor="middle" font-family="Arial" font-size="12" fill="#000000">:</text>
<text x="584.5" y="-112" font-family="monospace" font-size="12" fill="#000000">0x33</text>
</g>
<g class="key">
<use xlink:href="#shape0" transform="translate(634.5 -108)"/>
<text x="661.5" y="-129.9" text-anchor="middle" font-family="Arial" font-size="12" fill="#000000">&#39;</text>
<text x="661.5" y="-144.9" text-anchor="middle" font-family="Arial" font-size="12" fill="#000000">&#34;</text>
<text x="638.5" y="-112" font-family="monospace" font-size="12" fill="#000000">0x34</text>
</g>
<g class="key">
<use xlink:href="#shape0" transform="translate(688.5 -108)"/>
<text x="715.5" y="-129.9" text-anchor="middle" font-family="Arial" font-size="12" fill="#000000">\</text>
<text x="715.5" y="-144.9" text-anchor="middle" font-family="Arial" font-size="12" fill="#000000">|</text>
<text x="692.5" y="-112" font-family="monospace" font-size="12" fill="#000000">0x32</text>
</g>
<g class="key">
<use xlink:href="#shape3" transform="translate(742.5 -108)"/>
<text x="776.25" y="-138" text-anchor="middle" font-family="Arial" font-size="10" fill="#000000">Enter</text>
<text x="746.5" y="-112" font-family="monospace" font-size="12" fill="#000000">0x28</text>
</g>
<g class="key">
<use xlink:href="#shape3" transform="translate(0 -54)"/>
<text x="33.75" y="-84" text-anchor="middle" font-family="Arial" font-size="10" fill="#000000">Shift</text>
<text x="4" y="-58" font-family="monospace" font-size="12" fill="#000000">0xE1</text>
</g>
<g class="key">
<use xlink:href="#shape0" transform="translate(67.5 -54)"/>
<text x="94.5" y="-75.9" text-anchor="middle" font-family="Arial" font-size="12" fill="#000000">&lt;</text>
<text x="94.5" y="-90.9" text-anchor="middle" font-family="Arial" font-size="12" fill="#000000">&gt;</text>
<text x="71.5" y="-58" font-family="monospace" font-size="12" fill="#000000">0x64</text>
</g>
<g class="key">
<use xlink:href="#shape0" transform="translate(121.5 -54)"/>
<text x="148.5" y="-82.5" text-anchor="middle" font-family="Arial" font-size="15" fill="#000000">Z</text>
<text x="125.5" y="-58" font-family="monospace" font-size="12" fill="#000000">0x1D</text>
</g>
<g class="key">
<use xlink:href="#shape0" transform="translate(175.5 -54)"/>
<text x="202.5" y="-82.5" text-anchor="middle" font-family="Arial" font-size="15" fill="#000000">X</text>
<text x="179.5" y="-58" font-family="monospace" font-size="12" fill="#000000">0x1B</text>
</g>
<g class="key">
<use xlink:href="#shape0" transform="translate(229.5 -54)"/>
<text x="256.5" y="-82.5" text-anchor="middle" font-family="Arial" font-size="15" fill="#000000">C</text>
<text x="233.5" y="-58" font-family="monospace" font-size="12" fill="#000000">0x06</text>
</g>
<g class="key">
<use xlink:href="#shape0" transform="translate(283.5 -54)"/>
<text x="310.5" y="-82.5" text-anchor="middle" font-family="Arial" font-size="15" fill="#000000">V</text>
<text x="287.5" y="-58" font-family="monospace" font-size="12" fill="#000000">0x19</text>
</g>
<g class="key">
<use xlink:href="#shape0" transform="translate(337.5 -54)"/>
<text x="364.5" y="-82.5" text-anchor="middle" font-family="Arial" font-size="15" fill="#000000">B</text>
<text x="341.5" y="-58" font-family="monospace" font-size="12" fill="#000000">0x05</text>
</g>
<g class="key">
<use xlink:href="#shape0" transform="translate(391.5 -54)"/>
<text x="418.5" y="-82.5" text-anchor="middle" font-family="Arial" font-size="15" fill="#000000">N</text>
<text x="395.5" y="-58" font-family="monospace" font-size="12" fill="#000000">0x11</text>
</g>
<g class="key">
<use xlink:href="#shape0" transform="translate(445.5 -54)"/>
<text x="472.5" y="-82.5" text-anchor="middle" font-family="Arial" font-size="15" fill="#000000">M</text>
<text x="449.5" y="-58" font-family="monospace" font-size="12" fill="#000000">0x10</text>
</g>
<g class="key">
<use xlink:href="#shape0" transform="translate(499.5 -54)"/>
<text x="526.5" y="-75.9" text-anchor="middle" font-family="Arial" font-size="12" fill="#000000">,</text>
<text x="526.5" y="-90.9" text-anchor="middle" font-family="Arial" font-size="12" fill="#000000">&lt;</text>
<text x="503.5" y="-58" font-family="monospace" font-size="12" fill="#000000">0x36</text>
</g>
<g class="key">
<use xlink:href="#shape0" transform="translate(553.5 -54)"/>
<text x="580.5" y="-75.9" text-anchor="middle" font-family="Arial" font-size="12" fill="#000000">.</text>
<text x="580.5" y="-90.9" text-anchor="middle" font-family="Arial" font-size="12" fill="#000000">&gt;</text>
<text x="557.5" y="-58" font-family="monospace" font-size="12" fill="#000000">0x37</text>
</g>
<g class="key">
<use xlink:href="#shape0" transform="translate(607.5 -54)"/>
<text x="634.5" y="-75.9" text-anchor="middle" font-family="Arial" font-size="12" fill="#000000">/</text>
<text x="634.5" y="-90.9" text-anchor="middle" font-family="Arial" font-size="12" fill="#000000">?</text>
<text x="611.5" y="-58" font-family="monospace" font-size="12" fill="#000000">0x38</text>
</g>
<g class="key">
<use xlink:href="#shape0" transform="translate(661.5 -54)"/>
<text x="688.5" y="-75.9" text-anchor="middle" font-family="Arial" font-size="12" fill="#000000">\</text>
<text x="688.5" y="-90.9" text-anchor="middle" font-family="Arial" font-size="12" fill="#000000">_</text>
<text x="665.5" y="-58" font-family="monospace" font-size="12" fill="#000000">0x87</text>
</g>
<g class="key">
<use xlink:href="#shape2" transform="translate(715.5 -54)"/>
<text x="762.75" y="-84" text-anchor="middle" font-family="Arial" font-size="10" fill="#000000">Shift</text>
<text x="719.5" y="-58" font-family="monospace" font-size="12" fill="#000000">0xE5</text>
</g>
<g class="key">
<use xlink:href="#shape1" transform="translate(0 0)"/>
<text x="40.5" y="-30" text-anchor="middle" font-family="Arial" font-size="10" fill="#000000">Ctrl</text>
<text x="4" y="-4" font-family="monospace" font-size="12" fill="#000000">0xE0</text>
</g>
<g class="key">
<use xlink:href="#shape3" transform="translate(81 0)"/>
<use xlink:href="#path0" transform="translate(109.75 -38) scale(10 10)" fill="#000000"/>
<text x="85" y="-4" font-family="monospace" font-size="12" fill="#000000">0xE3</text>
</g>
<g class="key">
<use xlink:href="#shape3" transform="translate(148.5 0)"/>
<text x="182.25" y="-30" text-anchor="middle" font-family="Arial" font-size="10" fill="#000000">Alt</text>
<text x="152.5" y="-4" font-family="monospace" font-size="12" fill="#000000">0xE2</text>
</g>
<g class="key">
<use xlink:href="#shape1" transform="translate(216 0)"/>
<text x="256.5" y="-30" text-anchor="middle" font-family="Arial" font-size="10" fill="#000000">Muhenkan</text>
<text x="220" y="-4" font-family="monospace" font-size="12" fill="#000000">0x8B</text>
</g>
<g class="key">
<use xlink:href="#shape4" transform="translate(297 0)"/>
<text x="301" y="-4" font-family="monospace" font-size="12" fill="#000000">0x2C</text>
</g>
<g class="key">
<use xlink:href="#shape1" transform="translate(432 0)"/>
<text x="472.5" y="-30" text-anchor="middle" font-family="Arial" font-size="10" fill="#000000">Henkan</text>
<text x="436" y="-4" font-family="monospace" font-size="12" fill="#000000">0x8A</text>
</g>
<g class="key">
<use xlink:href="#shape3" transform="translate(513 0)"/>
<text x="546.75" y="-30" text-anchor="middle" font-family="Arial" font-size="10" fill="#000000">Kana</text>
<text x="517" y="-4" font-family="monospace" font-size="12" fill="#000000">0x88</text>
</g>
<g class="key">
<use xlink:href="#shape0" transform="translate(580.5 0)"/>
<text x="607.5" y="-30" text-anchor="middle" font-family="Arial" font-size="10" fill="#000000">Alt</text>
<text x="584.5" y="-4" font-family="monospace" font-size="12" fill="#000000">0xE6</text>
</g>
<g class="key">
<use xlink:href="#shape0" transform="translate(634.5 0)"/>
<use xlink:href="#path0" transform="translate(656.5 -38) scale(10 10)" fill="#000000"/>
<text x="638.5" y="-4" font-family="monospace" font-size="12" fill="#000000">0xE7</text>
</g>
<g class="key">
<use xlink:href="#shape0" transform="translate(688.5 0)"/>
<text x="715.5" y="-30" text-anchor="middle" font-family="Arial" font-size="10" fill="#000000">Ctrl</text>
<text x="692.5" y="-4" font-family="monospace" font-size="12" fill="#000000">0xE4</text>
</g>
<g class="key">
<use xlink:href="#shape3" transform="translate(742.5 0)"/>
<text x="776.25" y="-30" text-anchor="middle" font-family="Arial" font-size="10" fill="#000000">Fn</text>
<text x="746.5" y="-4" font-family="monospace" font-size="12" fill="#000000">0x01</text>
</g>
</g>
</svg>
