<?xml version="1.0"?>
<svg xmlns="http://www.w3.org/2000/svg" xmlns:xlink="http://www.w3.org/1999/xlink" version="1.1" width="270" height="324" viewBox="0 -324 270 324">
<defs>
<g id="shape0">
<path d="M 6 -54 C 2.686 -54 0 -51.314 0 -48 L 0 -6 C 0 -2.686 2.686 0 6 0 L 48 0 C 51.314 0 54 -2.686 54 -6 L 54 -48 C 54 -51.314 51.314 -54 48 -54 Z" fill="#000000"/>
<path d="M 6 -53 C 3.239 -53 1 -50.761 1 -48 L 1 -6 C 1 -3.239 3.239 -1 6 -1 L 48 -1 C 50.761 -1 53 -3.239 53 -6 L 53 -48 C 53 -50.761 50.761 -53 48 -53 Z" fill="#dadada"/>
<path d="M 6 -52 C 3.791 -52 2 -50.209 2 -48 L 2 -6 C 2 -3.791 3.791 -2 6 -2 L 48 -2 C 50.209 -2 52 -3.791 52 -6 L 52 -48 C 52 -50.209 50.209 -52 48 -52 Z" fill="#f2f2f2"/>
<path d="M 12 -51 C 10.343 -51 9 -49.657 9 -48 L 9 -18 C 9 -16.343 10.343 -15 12 -15 L 42 -15 C 43.657 -15 45 -16.343 45 -18 L 45 -48 C 45 -49.657 43.657 -51 42 -51 Z" fill="#dadada"/>
<path d="M 12 -50 C 10.895 -50 10 -49.105 10 -48 L 10 -18 C 10 -16.895 10.895 -16 12 -16 L 42 -16 C 43.105 -16 44 -16.895 44 -18 L 44 -48 C 44 -49.105 43.105 -50 42 -50 Z" fill="#ffffff"/>
</g>
</defs>
<g class="keyboard">
<g class="key">
<use xlink:href="#shape0" transform="translate(0 -270)"/>
<text x="27" y="-300" text-anchor="middle" font-family="Arial" font-size="10" fill="#000000">Insert</text>
<text x="4" y="-274" font-family="monospace" font-size="12" fill="#000000">0x49</text>
</g>
<g class="key">
<use xlink:href="#shape0" transform="translate(54 -270)"/>
<text x="81" y="-292.5" text-anchor="middle" font-family="Arial" font-size="10" fill="#000000">PrtSc</text>
<text x="81" y="-307.5" text-anchor="middle" font-family="Arial" font-size="10" fill="#000000">SysRq</text>
<text x="58" y="-274" font-family="monospace" font-size="12" fill="#000000">0x46</text>
</g>
<g class="key">
<use xlink:href="#shape0" transform="translate(108 -270)"/>
<text x="135" y="-305" text-anchor="middle" font-family="Arial" font-size="10" fill="#000000">Scroll</text>
<text x="135" y="-295" text-anchor="middle" font-family="Arial" font-size="10" fill="#000000">Lock</text>
<text x="112" y="-274" font-family="monospace" font-size="12" fill="#000000">0x47</text>
</g>
<g class="key">
<use xlink:href="#shape0" transform="translate(162 -270)"/>
<text x="189" y="-292.5" text-anchor="middle" font-family="Arial" font-size="10" fill="#000000">Pause</text>
<text x="189" y="-307.5" text-anchor="middle" font-family="Arial" font-size="10" fill="#000000">Break</text>
<text x="166" y="-274" font-family="monospace" font-size="12" fill="#000000">0x48</text>
</g>
<g class="key">
<use xlink:href="#shape0" transform="translate(216 -270)"/>
<text x="243" y="-305" text-anchor="middle" font-family="Arial" font-size="10" fill="#000000">Num</text>
<text x="243" y="-295" text-anchor="middle" font-family="Arial" font-size="10" fill="#000000">Lock</text>
<text x="220" y="-274" font-family="monospace" font-size="12" fill="#000000">0x53</text>
</g>
<g class="key">
<use xlink:href="#shape0" transform="translate(0 -216)"/>
<text x="27" y="-246" text-anchor="middle" font-family="Arial" font-size="10" fill="#000000">Delete</text>
<text x="4" y="-220" font-family="monospace" font-size="12" fill="#000000">0x4C</text>
</g>
<g class="key">
<use xlink:href="#shape0" transform="translate(54 -216)"/>
<text x="81" y="-250.5" text-anchor="middle" font-family="Arial" font-size="15" fill="#000000">7</text>
<text x="81" y="-237" text-anchor="middle" font-family="Arial" font-size="10" fill="#000000">Home</text>
<text x="58" y="-220" font-family="monospace" font-size="12" fill="#000000">0x5F</text>
</g>
<g class="key">
<use xlink:href="#shape0" transform="translate(108 -216)"/>
<text x="135" y="-250.5" text-anchor="middle" font-family="Arial" font-size="15" fill="#000000">8</text>
<text x="135" y="-237" text-anchor="middle" font-family="Arial" font-size="10" fill="#000000">&#8593;</text>
<text x="112" y="-220" font-family="monospace" font-size="12" fill="#000000">0x60</text>
</g>
<g class="key">
<use xlink:href="#shape0" transform="translate(162 -216)"/>
<text x="189" y="-250.5" text-anchor="middle" font-family="Arial" font-size="15" fill="#000000">9</text>
<text x="189" y="-237" text-anchor="middle" font-family="Arial" font-size="10" fill="#000000">PgUp</text>
<text x="166" y="-220" font-family="monospace" font-size="12" fill="#000000">0x61</text>
</g>
<g class="key">
<use xlink:href="#shape0" transform="translate(216 -216)"/>
<text x="243" y="-244.5" text-anchor="middle" font-family="Arial" font-size="15" fill="#000000">/</text>
<text x="220" y="-220" font-family="monospace" font-size="12" fill="#000000">0x54</text>
</g>
<g class="key">
<use xlink:href="#shape0" transform="translate(0 -162)"/>
<text x="27" y="-192" text-anchor="middle" font-family="Arial" font-size="10" fill="#000000">Home</text>
<text x="4" y="-166" font-family="monospace" font-size="12" fill="#000000">0x4A</text>
</g>
<g class="key">
<use xlink:href="#shape0" transform="translate(54 -162)"/>
<text x="81" y="-196.5" text-anchor="middle" font-family="Arial" font-size="15" fill="#000000">4</text>
<text x="81" y="-183" text-anchor="middle" font-family="Arial" font-size="10" fill="#000000">&#8592;</text>
<text x="58" y="-166" font-family="monospace" font-size="12" fill="#000000">0x5C</text>
</g>
<g class="key">
<use xlink:href="#shape0" transform="translate(108 -162)"/>
<text x="135" y="-196.5" text-anchor="middle" font-family="Arial" font-size="15" fill="#000000">5</text>
<text x="112" y="-166" font-family="monospace" font-size="12" fill="#000000">0x5D</text>
</g>
<g class="key">
<use xlink:href="#shape0" transform="translate(162 -162)"/>
<text x="189" y="-196.5" text-anchor="middle" font-family="Arial" font-size="15" fill="#000000">6</text>
<text x="189" y="-183" text-anchor="middle" font-family="Arial" font-size="10" fill="#000000">&#8594;</text>
<text x="166" y="-166" font-family="monospace" font-size="12" fill="#000000">0x5E</text>
</g>
<g class="key">
<use xlink:href="#shape0" transform="translate(216 -162)"/>
<text x="243" y="-190.5" text-anchor="middle" font-family="Arial" font-size="15" fill="#000000">*</text>
<text x="220" y="-166" font-family="monospace" font-size="12" fill="#000000">0x55</text>
</g>
<g class="key">
<use xlink:href="#shape0" transform="translate(0 -108)"/>
<text x="27" y="-138" text-anchor="middle" font-family="Arial" font-size="10" fill="#000000">End</text>
<text x="4" y="-112" font-family="monospace" font-size="12" fill="#000000">0x4D</text>
</g>
<g class="key">
<use xlink:href="#shape0" transform="translate(54 -108)"/>
<text x="81" y="-142.5" text-anchor="middle" font-family="Arial" font-size="15" fill="#000000">1</text>
<text x="81" y="-129" text-anchor="middle" font-family="Arial" font-size="10" fill="#000000">End</text>
<text x="58" y="-112" font-family="monospace" font-size="12" fill="#000000">0x59</text>
</g>
<g class="key">
<use xlink:href="#shape0" transform="translate(108 -108)"/>
<text x="135" y="-142.5" text-anchor="middle" font-family="Arial" font-size="15" fill="#000000">2</text>
<text x="135" y="-129" text-anchor="middle" font-family="Arial" font-size="10" fill="#000000">&#8595;</text>
<text x="112" y="-112" font-family="monospace" font-size="12" fill="#000000">0x5A</text>
</g>
<g class="key">
<use xlink:href="#shape0" transform="translate(162 -108)"/>
<text x="189" y="-142.5" text-anchor="middle" font-family="Arial" font-size="15" fill="#000000">3</text>
<text x="189" y="-129" text-anchor="middle" font-family="Arial" font-size="10" fill="#000000">PgDn</text>
<text x="166" y="-112" font-family="monospace" font-size="12" fill="#000000">0x5B</text>
</g>
<g class="key">
<use xlink:href="#shape0" transform="translate(216 -108)"/>
<text x="243" y="-136.5" text-anchor="middle" font-family="Arial" font-size="15" fill="#000000">&#8722;</text>
<text x="220" y="-112" font-family="monospace" font-size="12" fill="#000000">0x56</text>
</g>
<g class="key">
<use xlink:href="#shape0" transform="translate(0 -54)"/>
<text x="27" y="-89" text-anchor="middle" font-family="Arial" font-size="10" fill="#000000">Page</text>
<text x="27" y="-79" text-anchor="middle" font-family="Arial" font-size="10" fill="#000000">Up</text>
<text x="4" y="-58" font-family="monospace" font-size="12" fill="#000000">0x4B</text>
</g>
<g class="key">
<use xlink:href="#shape0" transform="translate(54 -54)"/>
<text x="81" y="-88.5" text-anchor="middle" font-family="Arial" font-size="15" fill="#000000">0</text>
<text x="81" y="-75" text-anchor="middle" font-family="Arial" font-size="10" fill="#000000">Ins</text>
<text x="58" y="-58" font-family="monospace" font-size="12" fill="#000000">0x62</text>
</g>
<g class="key">
<use xlink:href="#shape0" transform="translate(108 -54)"/>
<text x="135" y="-84" text-anchor="middle" font-family="Arial" font-size="10" fill="#000000">&#8593;</text>
<text x="112" y="-58" font-family="monospace" font-size="12" fill="#000000">0x52</text>
</g>
<g class="key">
<use xlink:href="#shape0" transform="translate(162 -54)"/>
<text x="189" y="-88.5" text-anchor="middle" font-family="Arial" font-size="15" fill="#000000">.</text>
<text x="189" y="-75" text-anchor="middle" font-family="Arial" font-size="10" fill="#000000">Del</text>
<text x="166" y="-58" font-family="monospace" font-size="12" fill="#000000">0x63</text>
</g>
<g class="key">
<use xlink:href="#shape0" transform="translate(216 -54)"/>
<text x="243" y="-82.5" text-anchor="middle" font-family="Arial" font-size="15" fill="#000000">+</text>
<text x="220" y="-58" font-family="monospace" font-size="12" fill="#000000">0x57</text>
</g>
<g class="key">
<use xlink:href="#shape0" transform="translate(0 0)"/>
<text x="27" y="-35" text-anchor="middle" font-family="Arial" font-size="10" fill="#000000">Page</text>
<text x="27" y="-25" text-anchor="middle" font-family="Arial" font-size="10" fill="#000000">Down</text>
<text x="4" y="-4" font-family="monospace" font-size="12" fill="#000000">0x4E</text>
</g>
<g class="key">
<use xlink:href="#shape0" transform="translate(54 0)"/>
<text x="81" y="-30" text-anchor="middle" font-family="Arial" font-size="10" fill="#000000">&#8592;</text>
<text x="58" y="-4" font-family="monospace" font-size="12" fill="#000000">0x50</text>
</g>
<g class="key">
<use xlink:href="#shape0" transform="translate(108 0)"/>
<text x="135" y="-30" text-anchor="middle" font-family="Arial" font-size="10" fill="#000000">&#8595;</text>
<text x="112" y="-4" font-family="monospace" font-size="12" fill="#000000">0x51</text>
</g>
<g class="key">
<use xlink:href="#shape0" transform="translate(162 0)"/>
<text x="189" y="-30" text-anchor="middle" font-family="Arial" font-size="10" fill="#000000">&#8594;</text>
<text x="166" y="-4" font-family="monospace" font-size="12" fill="#000000">0x4F</text>
</g>
<g class="key">
<use xlink:href="#shape0" transform="translate(216 0)"/>
<text x="243" y="-30" text-anchor="middle" font-family="Arial" font-size="10" fill="#000000">Enter</text>
<text x="220" y="-4" font-family="monospace" font-size="12" fill="#000000">0x58</text>
</g>
</g>
</svg>
