<?xml version="1.0"?>
<svg xmlns="http://www.w3.org/2000/svg" xmlns:xlink="http://www.w3.org/1999/xlink" version="1.1" width="985.5" height="270" viewBox="0 -270 985.5 270">
<defs>
<g id="shape0">
<path d="M 6 -54 C 2.686 -54 0 -51.314 0 -48 L 0 -6 C 0 -2.686 2.686 0 6 0 L 48 0 C 51.314 0 54 -2.686 54 -6 L 54 -48 C 54 -51.314 51.314 -54 48 -54 Z" fill="#000000"/>
<path d="M 6 -53 C 3.239 -53 1 -50.761 1 -48 L 1 -6 C 1 -3.239 3.239 -1 6 -1 L 48 -1 C 50.761 -1 53 -3.239 53 -6 L 53 -48 C 53 -50.761 50.761 -53 48 -53 Z" fill="#171717"/>
<path d="M 6 -52 C 3.791 -52 2 -50.209 2 -48 L 2 -6 C 2 -3.791 3.791 -2 6 -2 L 48 -2 C 50.209 -2 52 -3.791 52 -6 L 52 -48 C 52 -50.209 50.209 -52 48 -52 Z" fill="#1a1a1a"/>
<path d="M 12 -51 C 10.343 -51 9 -49.657 9 -48 L 9 -18 C 9 -16.343 10.343 -15 12 -15 L 42 -15 C 43.657 -15 45 -16.343 45 -18 L 45 -48 C 45 -49.657 43.657 -51 42 -51 Z" fill="#171717"/>
<path d="M 12 -50 C 10.895 -50 10 -49.105 10 -48 L 10 -18 C 10 -16.895 10.895 -16 12 -16 L 42 -16 C 43.105 -16 44 -16.895 44 -18 L 44 -48 C 44 -49.105 43.105 -50 42 -50 Z" fill="#303030"/>
</g>
<g id="shape1">
<path d="M 6 -54 C 2.686 -54 0 -51.314 0 -48 L 0 -6 C 0 -2.686 2.686 0 6 0 L 75 0 C 78.314 0 81 -2.686 81 -6 L 81 -48 C 81 -51.314 78.314 -54 75 -54 Z" fill="#000000"/>
<path d="M 6 -53 C 3.239 -53 1 -50.761 1 -48 L 1 -6 C 1 -3.239 3.239 -1 6 -1 L 75 -1 C 77.761 -1 80 -3.239 80 -6 L 80 -48 C 80 -50.761 77.761 -53 75 -53 Z" fill="#171717"/>
<path d="M 6 -52 C 3.791 -52 2 -50.209 2 -48 L 2 -6 C 2 -3.791 3.791 -2 6 -2 L 75 -2 C 77.209 -2 79 -3.791 79 -6 L 79 -48 C 79 -50.209 77.209 -52 75 -52 Z" fill="#1a1a1a"/>
<path d="M 12 -51 C 10.343 -51 9 -49.657 9 -48 L 9 -18 C 9 -16.343 10.343 -15 12 -15 L 69 -15 C 70.657 -15 72 -16.343 72 -18 L 72 -48 C 72 -49.657 70.657 -51 69 -51 Z" fill="#171717"/>
<path d="M 12 -50 C 10.895 -50 10 -49.105 10 -48 L 10 -18 C 10 -16.895 10.895 -16 12 -16 L 69 -16 C 70.105 -16 71 -16.895 71 -18 L 71 -48 C 71 -49.105 70.105 -50 69 -50 Z" fill="#303030"/>
</g>
<g id="shape2">
<path d="M 6 -54 C 2.686 -54 0 -51.314 0 -48 L 0 -6 C 0 -2.686 2.686 0 6 0 L 102 0 C 105.314 0 108 -2.686 108 -6 L 108 -48 C 108 -51.314 105.314 -54 102 -54 Z" fill="#000000"/>
<path d="M 6 -53 C 3.239 -53 1 -50.761 1 -48 L 1 -6 C 1 -3.239 3.239 -1 6 -1 L 102 -1 C 104.761 -1 107 -3.239 107 -6 L 107 -48 C 107 -50.761 104.761 -53 102 -53 Z" fill="#171717"/>
<path d="M 6 -52 C 3.791 -52 2 -50.209 2 -48 L 2 -6 C 2 -3.791 3.791 -2 6 -2 L 102 -2 C 104.209 -2 106 -3.791 106 -6 L 106 -48 C 106 -50.209 104.209 -52 102 -52 Z" fill="#1a1a1a"/>
<path d="M 12 -51 C 10.343 -51 9 -49.657 9 -48 L 9 -18 C 9 -16.343 10.343 -15 12 -15 L 96 -15 C 97.657 -15 99 -16.343 99 -18 L 99 -48 C 99 -49.657 97.657 -51 96 -51 Z" fill="#171717"/>
<path d="M 12 -50 C 10.895 -50 10 -49.105 10 -48 L 10 -18 C 10 -16.895 10.895 -16 12 -16 L 96 -16 C 97.105 -16 98 -16.895 98 -18 L 98 -48 C 98 -49.105 97.105 -50 96 -50 Z" fill="#303030"/>
</g>
<g id="shape3">
<path d="M 6 -54 C 2.686 -54 0 -51.314 0 -48 L 0 -6 C 0 -2.686 2.686 0 6 0 L 426 0 C 429.314 0 432 -2.686 432 -6 L 432 -48 C 432 -51.314 429.314 -54 426 -54 Z" fill="#000000"/>
<path d="M 6 -53 C 3.239 -53 1 -50.761 1 -48 L 1 -6 C 1 -3.239 3.239 -1 6 -1 L 426 -1 C 428.761 -1 431 -3.239 431 -6 L 431 -48 C 431 -50.761 428.761 -53 426 -53 Z" fill="#171717"/>
<path d="M 6 -52 C 3.791 -52 2 -50.209 2 -48 L 2 -6 C 2 -3.791 3.791 -2 6 -2 L 426 -2 C 428.209 -2 430 -3.791 430 -6 L 430 -48 C 430 -50.209 428.209 -52 426 -52 Z" fill="#1a1a1a"/>
<path d="M 12 -51 C 10.343 -51 9 -49.657 9 -48 L 9 -18 C 9 -16.343 10.343 -15 12 -15 L 420 -15 C 421.657 -15 423 -16.343 423 -18 L 423 -48 C 423 -49.657 421.657 -51 420 -51 Z" fill="#171717"/>
<path d="M 12 -50 C 10.895 -50 10 -49.105 10 -48 L 10 -18 C 10 -16.895 10.895 -16 12 -16 L 420 -16 C 421.105 -16 422 -16.895 422 -18 L 422 -48 C 422 -49.105 421.105 -50 420 -50 Z" fill="#303030"/>
</g>
<path id="path0" d="M 0.436 0.218 v 0.564 c 0 0.011 -0.006 0.021 -0.017 0.026 C 0.415 0.811 0.41 0.812 0.406 0.812 c -0.006 0 -0.012 -0.002 -0.018 -0.006 L 0.012 0.524 C 0.004 0.519 0 0.51 0 0.5 s 0.004 -0.018 0.012 -0.024 l 0.376 -0.282 c 0.009 -0.007 0.021 -0.008 0.031 -0.003 C 0.429 0.197 0.436 0.207 0.436 0.218 z M 0.547 0.188 c -0.016 0 -0.029 0.013 -0.029 0.03 v 0.564 c 0 0.016 0.013 0.029 0.029 0.029 c 0.017 0 0.03 -0.013 0.03 -0.029 V 0.218 C 0.577 0.202 0.563 0.188 0.547 0.188 z M 0.688 0.188 c -0.016 0 -0.029 0.013 -0.029 0.03 v 0.564 c 0 0.016 0.013 0.029 0.029 0.029 c 0.017 0 0.03 -0.013 0.03 -0.029 V 0.218 C 0.718 0.202 0.705 0.188 0.688 0.188 z M 0.83 0.188 c -0.017 0 -0.03 0.013 -0.03 0.03 v 0.564 c 0 0.016 0.013 0.029 0.03 0.029 c 0.016 0 0.029 -0.013 0.029 -0.029 V 0.218 C 0.859 0.202 0.846 0.188 0.83 0.188 z M 0.97 0.188 c -0.016 0 -0.029 0.013 -0.029 0.03 v 0.564 c 0 0.016 0.014 0.029 0.029 0.029 C 0.987 0.812 1 0.799 1 0.783 V 0.218 C 1 0.202 0.987 0.188 0.97 0.188 z"/>
<path id="path1" d="M 1 0.5 C 1 0.51 0.996 0.519 0.988 0.524 L 0.612 0.806 C 0.606 0.81 0.601 0.812 0.594 0.812 c -0.004 0 -0.009 -0.001 -0.013 -0.003 c -0.01 -0.005 -0.017 -0.015 -0.017 -0.026 V 0.218 c 0 -0.011 0.006 -0.021 0.017 -0.026 c 0.01 -0.005 0.022 -0.004 0.031 0.003 l 0.376 0.282 C 0.996 0.482 1 0.491 1 0.5 z M 0.029 0.188 C 0.013 0.188 0 0.202 0 0.218 v 0.564 c 0 0.016 0.013 0.029 0.029 0.029 c 0.017 0 0.03 -0.013 0.03 -0.029 V 0.218 C 0.059 0.202 0.046 0.188 0.029 0.188 z M 0.17 0.188 c -0.016 0 -0.029 0.013 -0.029 0.03 v 0.564 c 0 0.016 0.013 0.029 0.029 0.029 c 0.017 0 0.03 -0.013 0.03 -0.029 V 0.218 C 0.2 0.202 0.187 0.188 0.17 0.188 z M 0.312 0.188 c -0.017 0 -0.03 0.013 -0.03 0.03 v 0.564 c 0 0.016 0.013 0.029 0.03 0.029 c 0.016 0 0.029 -0.013 0.029 -0.029 V 0.218 C 0.341 0.202 0.328 0.188 0.312 0.188 z M 0.453 0.188 c -0.017 0 -0.03 0.013 -0.03 0.03 v 0.564 c 0 0.016 0.013 0.029 0.03 0.029 c 0.016 0 0.029 -0.013 0.029 -0.029 V 0.218 C 0.482 0.202 0.469 0.188 0.453 0.188 z"/>
</defs>
<g class="keyboard">
<g class="key">
<use xlink:href="#shape0" transform="translate(13.5 -216)"/>
<text x="40.5" y="-246" text-anchor="middle" font-family="Arial" font-size="10" fill="#f2f2f2">ESC</text>
</g>
<g class="key">
<use xlink:href="#shape0" transform="translate(67.5 -216)"/>
<text x="94.5" y="-237.9" text-anchor="middle" font-family="Arial" font-size="12" fill="#f2f2f2">1</text>
<text x="94.5" y="-252.9" text-anchor="middle" font-family="Arial" font-size="12" fill="#f2f2f2">!</text>
</g>
<g class="key">
<use xlink:href="#shape0" transform="translate(121.5 -216)"/>
<text x="148.5" y="-237.9" text-anchor="middle" font-family="Arial" font-size="12" fill="#f2f2f2">2</text>
<text x="148.5" y="-252.9" text-anchor="middle" font-family="Arial" font-size="12" fill="#f2f2f2">@</text>
</g>
<g class="key">
<use xlink:href="#shape0" transform="translate(175.5 -216)"/>
<text x="202.5" y="-237.9" text-anchor="middle" font-family="Arial" font-size="12" fill="#f2f2f2">3</text>
<text x="202.5" y="-252.9" text-anchor="middle" font-family="Arial" font-size="12" fill="#f2f2f2">#</text>
</g>
<g class="key">
<use xlink:href="#shape0" transform="translate(229.5 -216)"/>
<text x="256.5" y="-237.9" text-anchor="middle" font-family="Arial" font-size="12" fill="#f2f2f2">4</text>
<text x="256.5" y="-252.9" text-anchor="middle" font-family="Arial" font-size="12" fill="#f2f2f2">$</text>
</g>
<g class="key">
<use xlink:href="#shape0" transform="translate(283.5 -216)"/>
<text x="310.5" y="-237.9" text-anchor="middle" font-family="Arial" font-size="12" fill="#f2f2f2">5</text>
<text x="310.5" y="-252.9" text-anchor="middle" font-family="Arial" font-size="12" fill="#f2f2f2">%</text>
</g>
<g class="key">
<use xlink:href="#shape0" transform="translate(337.5 -216)"/>
<text x="364.5" y="-237.9" text-anchor="middle" font-family="Arial" font-size="12" fill="#f2f2f2">6</text>
<text x="364.5" y="-252.9" text-anchor="middle" font-family="Arial" font-size="12" fill="#f2f2f2">^</text>
</g>
<g class="key">
<use xlink:href="#shape0" transform="translate(391.5 -216)"/>
<text x="418.5" y="-237.9" text-anchor="middle" font-family="Arial" font-size="12" fill="#f2f2f2">7</text>
<text x="418.5" y="-252.9" text-anchor="middle" font-family="Arial" font-size="12" fill="#f2f2f2">&amp;</text>
</g>
<g class="key">
<use xlink:href="#shape0" transform="translate(445.5 -216)"/>
<text x="472.5" y="-237.9" text-anchor="middle" font-family="Arial" font-size="12" fill="#f2f2f2">8</text>
<text x="472.5" y="-252.9" text-anchor="middle" font-family="Arial" font-size="12" fill="#f2f2f2">*</text>
</g>
<g class="key">
<use xlink:href="#shape0" transform="translate(499.5 -216)"/>
<text x="526.5" y="-237.9" text-anchor="middle" font-family="Arial" font-size="12" fill="#f2f2f2">9</text>
<text x="526.5" y="-252.9" text-anchor="middle" font-family="Arial" font-size="12" fill="#f2f2f2">(</text>
</g>
<g class="key">
<use xlink:href="#shape0" transform="translate(553.5 -216)"/>
<text x="580.5" y="-237.9" text-anchor="middle" font-family="Arial" font-size="12" fill="#f2f2f2">0</text>
<text x="580.5" y="-252.9" text-anchor="middle" font-family="Arial" font-size="12" fill="#f2f2f2">)</text>
</g>
<g class="key">
<use xlink:href="#shape0" transform="translate(607.5 -216)"/>
<text x="634.5" y="-237.9" text-anchor="middle" font-family="Arial" font-size="12" fill="#f2f2f2">&#8722;</text>
<text x="634.5" y="-252.9" text-anchor="middle" font-family="Arial" font-size="12" fill="#f2f2f2">_</text>
</g>
<g class="key">
<use xlink:href="#shape0" transform="translate(661.5 -216)"/>
<text x="688.5" y="-237.9" text-anchor="middle" font-family="Arial" font-size="12" fill="#f2f2f2">=</text>
<text x="688.5" y="-252.9" text-anchor="middle" font-family="Arial" font-size="12" fill="#f2f2f2">+</text>
</g>
<g class="key">
<use xlink:href="#shape0" transform="translate(715.5 -216)"/>
<text x="742.5" y="-246" text-anchor="middle" font-family="Arial" font-size="10" textLength="30" lengthAdjust="spacingAndGlyphs" fill="#cc0000">PAUSE</text>
</g>
<g class="key">
<use xlink:href="#shape0" transform="translate(769.5 -216)"/>
<text x="796.5" y="-256" text-anchor="middle" font-family="Arial" font-size="10" fill="#ffff00">TV</text>
<text x="796.5" y="-246" text-anchor="middle" font-family="Arial" font-size="10" fill="#ffff00">&#8661;</text>
<text x="796.5" y="-236" text-anchor="middle" font-family="Arial" font-size="10" fill="#ffff00">NABU</text>
</g>
<g class="key">
<use xlink:href="#shape0" transform="translate(877.5 -216)"/>
<text x="904.5" y="-243.6" text-anchor="middle" font-family="Arial" font-size="18" fill="#f2f2f2">&#8593;</text>
</g>
<g class="key">
<use xlink:href="#shape0" transform="translate(931.5 -216)"/>
<text x="958.5" y="-246" text-anchor="middle" font-family="Arial" font-size="10" fill="#f2f2f2">YES</text>
</g>
<g class="key">
<use xlink:href="#shape1" transform="translate(13.5 -162)"/>
<text x="54" y="-192" text-anchor="middle" font-family="Arial" font-size="10" fill="#f2f2f2">TAB</text>
</g>
<g class="key">
<use xlink:href="#shape0" transform="translate(94.5 -162)"/>
<text x="121.5" y="-190.5" text-anchor="middle" font-family="Arial" font-size="15" fill="#f2f2f2">Q</text>
</g>
<g class="key">
<use xlink:href="#shape0" transform="translate(148.5 -162)"/>
<text x="175.5" y="-190.5" text-anchor="middle" font-family="Arial" font-size="15" fill="#f2f2f2">W</text>
</g>
<g class="key">
<use xlink:href="#shape0" transform="translate(202.5 -162)"/>
<text x="229.5" y="-190.5" text-anchor="middle" font-family="Arial" font-size="15" fill="#f2f2f2">E</text>
</g>
<g class="key">
<use xlink:href="#shape0" transform="translate(256.5 -162)"/>
<text x="283.5" y="-190.5" text-anchor="middle" font-family="Arial" font-size="15" fill="#f2f2f2">R</text>
</g>
<g class="key">
<use xlink:href="#shape0" transform="translate(310.5 -162)"/>
<text x="337.5" y="-190.5" text-anchor="middle" font-family="Arial" font-size="15" fill="#f2f2f2">T</text>
</g>
<g class="key">
<use xlink:href="#shape0" transform="translate(364.5 -162)"/>
<text x="391.5" y="-190.5" text-anchor="middle" font-family="Arial" font-size="15" fill="#f2f2f2">Y</text>
</g>
<g class="key">
<use xlink:href="#shape0" transform="translate(418.5 -162)"/>
<text x="445.5" y="-190.5" text-anchor="middle" font-family="Arial" font-size="15" fill="#f2f2f2">U</text>
</g>
<g class="key">
<use xlink:href="#shape0" transform="translate(472.5 -162)"/>
<text x="499.5" y="-190.5" text-anchor="middle" font-family="Arial" font-size="15" fill="#f2f2f2">I</text>
</g>
<g class="key">
<use xlink:href="#shape0" transform="translate(526.5 -162)"/>
<text x="553.5" y="-190.5" text-anchor="middle" font-family="Arial" font-size="15" fill="#f2f2f2">O</text>
</g>
<g class="key">
<use xlink:href="#shape0" transform="translate(580.5 -162)"/>
<text x="607.5" y="-190.5" text-anchor="middle" font-family="Arial" font-size="15" fill="#f2f2f2">P</text>
</g>
<g class="key">
<use xlink:href="#shape0" transform="translate(634.5 -162)"/>
<text x="661.5" y="-183.9" text-anchor="middle" font-family="Arial" font-size="12" fill="#f2f2f2">[</text>
<text x="661.5" y="-198.9" text-anchor="middle" font-family="Arial" font-size="12" fill="#f2f2f2">{</text>
</g>
<g class="key">
<use xlink:href="#shape0" transform="translate(688.5 -162)"/>
<text x="715.5" y="-183.9" text-anchor="middle" font-family="Arial" font-size="12" fill="#f2f2f2">]</text>
<text x="715.5" y="-198.9" text-anchor="middle" font-family="Arial" font-size="12" fill="#f2f2f2">}</text>
</g>
<g class="key">
<use xlink:href="#shape1" transform="translate(742.5 -162)"/>
<text x="783" y="-192" text-anchor="middle" font-family="Arial" font-size="10" fill="#f2f2f2">DELETE</text>
</g>
<g class="key">
<use xlink:href="#shape0" transform="translate(877.5 -162)"/>
<text x="904.5" y="-189.6" text-anchor="middle" font-family="Arial" font-size="18" fill="#f2f2f2">&#8592;</text>
</g>
<g class="key">
<use xlink:href="#shape0" transform="translate(931.5 -162)"/>
<text x="958.5" y="-189.6" text-anchor="middle" font-family="Arial" font-size="18" fill="#f2f2f2">&#8594;</text>
</g>
<g class="key">
<use xlink:href="#shape0" transform="translate(0 -108)"/>
<text x="27" y="-138" text-anchor="middle" font-family="Arial" font-size="10" fill="#f2f2f2">CTRL</text>
</g>
<g class="key">
<use xlink:href="#shape0" transform="translate(54 -108)"/>
<text x="81" y="-138" text-anchor="middle" font-family="Arial" font-size="10" fill="#f2f2f2">CAPS</text>
</g>
<g class="key">
<use xlink:href="#shape0" transform="translate(108 -108)"/>
<text x="135" y="-136.5" text-anchor="middle" font-family="Arial" font-size="15" fill="#f2f2f2">A</text>
</g>
<g class="key">
<use xlink:href="#shape0" transform="translate(162 -108)"/>
<text x="189" y="-136.5" text-anchor="middle" font-family="Arial" font-size="15" fill="#f2f2f2">S</text>
</g>
<g class="key">
<use xlink:href="#shape0" transform="translate(216 -108)"/>
<text x="243" y="-136.5" text-anchor="middle" font-family="Arial" font-size="15" fill="#f2f2f2">D</text>
</g>
<g class="key">
<use xlink:href="#shape0" transform="translate(270 -108)"/>
<text x="297" y="-136.5" text-anchor="middle" font-family="Arial" font-size="15" fill="#f2f2f2">F</text>
</g>
<g class="key">
<use xlink:href="#shape0" transform="translate(324 -108)"/>
<text x="351" y="-136.5" text-anchor="middle" font-family="Arial" font-size="15" fill="#f2f2f2">G</text>
</g>
<g class="key">
<use xlink:href="#shape0" transform="translate(378 -108)"/>
<text x="405" y="-136.5" text-anchor="middle" font-family="Arial" font-size="15" fill="#f2f2f2">H</text>
</g>
<g class="key">
<use xlink:href="#shape0" transform="translate(432 -108)"/>
<text x="459" y="-136.5" text-anchor="middle" font-family="Arial" font-size="15" fill="#f2f2f2">J</text>
</g>
<g class="key">
<use xlink:href="#shape0" transform="translate(486 -108)"/>
<text x="513" y="-136.5" text-anchor="middle" font-family="Arial" font-size="15" fill="#f2f2f2">K</text>
</g>
<g class="key">
<use xlink:href="#shape0" transform="translate(540 -108)"/>
<text x="567" y="-136.5" text-anchor="middle" font-family="Arial" font-size="15" fill="#f2f2f2">L</text>
</g>
<g class="key">
<use xlink:href="#shape0" transform="translate(594 -108)"/>
<text x="621" y="-129.9" text-anchor="middle" font-family="Arial" font-size="12" fill="#f2f2f2">;</text>
<text x="621" y="-144.9" text-anchor="middle" font-family="Arial" font-size="12" fill="#f2f2f2">:</text>
</g>
<g class="key">
<use xlink:href="#shape0" transform="translate(648 -108)"/>
<text x="675" y="-129.9" text-anchor="middle" font-family="Arial" font-size="12" fill="#f2f2f2">&#39;</text>
<text x="675" y="-144.9" text-anchor="middle" font-family="Arial" font-size="12" fill="#f2f2f2">&#34;</text>
</g>
<g class="key">
<use xlink:href="#shape2" transform="translate(702 -108)"/>
<text x="756" y="-138" text-anchor="middle" font-family="Arial" font-size="10" fill="#66bbff">GO &#8629;</text>
</g>
<g class="key">
<use xlink:href="#shape0" transform="translate(877.5 -108)"/>
<text x="904.5" y="-135.6" text-anchor="middle" font-family="Arial" font-size="18" fill="#f2f2f2">&#8595;</text>
</g>
<g class="key">
<use xlink:href="#shape0" transform="translate(931.5 -108)"/>
<text x="958.5" y="-138" text-anchor="middle" font-family="Arial" font-size="10" fill="#f2f2f2">NO</text>
</g>
<g class="key">
<use xlink:href="#shape0" transform="translate(0 -54)"/>
<text x="27" y="-84" text-anchor="middle" font-family="Arial" font-size="10" fill="#f2f2f2">SYM</text>
</g>
<g class="key">
<use xlink:href="#shape1" transform="translate(54 -54)"/>
<text x="94.5" y="-84" text-anchor="middle" font-family="Arial" font-size="10" fill="#f2f2f2">SHIFT</text>
</g>
<g class="key">
<use xlink:href="#shape0" transform="translate(135 -54)"/>
<text x="162" y="-82.5" text-anchor="middle" font-family="Arial" font-size="15" fill="#f2f2f2">Z</text>
</g>
<g class="key">
<use xlink:href="#shape0" transform="translate(189 -54)"/>
<text x="216" y="-82.5" text-anchor="middle" font-family="Arial" font-size="15" fill="#f2f2f2">X</text>
</g>
<g class="key">
<use xlink:href="#shape0" transform="translate(243 -54)"/>
<text x="270" y="-82.5" text-anchor="middle" font-family="Arial" font-size="15" fill="#f2f2f2">C</text>
</g>
<g class="key">
<use xlink:href="#shape0" transform="translate(297 -54)"/>
<text x="324" y="-82.5" text-anchor="middle" font-family="Arial" font-size="15" fill="#f2f2f2">V</text>
</g>
<g class="key">
<use xlink:href="#shape0" transform="translate(351 -54)"/>
<text x="378" y="-82.5" text-anchor="middle" font-family="Arial" font-size="15" fill="#f2f2f2">B</text>
</g>
<g class="key">
<use xlink:href="#shape0" transform="translate(405 -54)"/>
<text x="432" y="-82.5" text-anchor="middle" font-family="Arial" font-size="15" fill="#f2f2f2">N</text>
</g>
<g class="key">
<use xlink:href="#shape0" transform="translate(459 -54)"/>
<text x="486" y="-82.5" text-anchor="middle" font-family="Arial" font-size="15" fill="#f2f2f2">M</text>
</g>
<g class="key">
<use xlink:href="#shape0" transform="translate(513 -54)"/>
<text x="540" y="-75.9" text-anchor="middle" font-family="Arial" font-size="12" fill="#f2f2f2">,</text>
<text x="540" y="-90.9" text-anchor="middle" font-family="Arial" font-size="12" fill="#f2f2f2">&lt;</text>
</g>
<g class="key">
<use xlink:href="#shape0" transform="translate(567 -54)"/>
<text x="594" y="-75.9" text-anchor="middle" font-family="Arial" font-size="12" fill="#f2f2f2">.</text>
<text x="594" y="-90.9" text-anchor="middle" font-family="Arial" font-size="12" fill="#f2f2f2">&gt;</text>
</g>
<g class="key">
<use xlink:href="#shape0" transform="translate(621 -54)"/>
<text x="648" y="-75.9" text-anchor="middle" font-family="Arial" font-size="12" fill="#f2f2f2">/</text>
<text x="648" y="-90.9" text-anchor="middle" font-family="Arial" font-size="12" fill="#f2f2f2">?</text>
</g>
<g class="key">
<use xlink:href="#shape1" transform="translate(675 -54)"/>
<text x="715.5" y="-84" text-anchor="middle" font-family="Arial" font-size="10" fill="#f2f2f2">SHIFT</text>
</g>
<g class="key">
<use xlink:href="#shape0" transform="translate(756 -54)"/>
<text x="783" y="-84" text-anchor="middle" font-family="Arial" font-size="10" fill="#f2f2f2">SYM</text>
</g>
<g class="key">
<use xlink:href="#shape0" transform="translate(877.5 -54)"/>
<use xlink:href="#path0" transform="translate(891 -100.5) scale(27 27)" fill="#f2f2f2"/>
</g>
<g class="key">
<use xlink:href="#shape0" transform="translate(931.5 -54)"/>
<use xlink:href="#path1" transform="translate(945 -100.5) scale(27 27)" fill="#f2f2f2"/>
</g>
<g class="key">
<use xlink:href="#shape3" transform="translate(189 0)"/>
</g>
</g>
</svg>
