<?xml version="1.0"?>
<svg xmlns="http://www.w3.org/2000/svg" xmlns:xlink="http://www.w3.org/1999/xlink" version="1.1" width="418.5" height="216" viewBox="0 -216 418.5 216">
<defs>
<g id="shape0">
<path d="M 6 -54 C 2.686 -54 0 -51.314 0 -48 L 0 -6 C 0 -2.686 2.686 0 6 0 L 48 0 C 51.314 0 54 -2.686 54 -6 L 54 -48 C 54 -51.314 51.314 -54 48 -54 Z" fill="#000000"/>
<path d="M 6 -53 C 3.239 -53 1 -50.761 1 -48 L 1 -6 C 1 -3.239 3.239 -1 6 -1 L 48 -1 C 50.761 -1 53 -3.239 53 -6 L 53 -48 C 53 -50.761 50.761 -53 48 -53 Z" fill="#99998a"/>
<path d="M 6 -52 C 3.791 -52 2 -50.209 2 -48 L 2 -6 C 2 -3.791 3.791 -2 6 -2 L 48 -2 C 50.209 -2 52 -3.791 52 -6 L 52 -48 C 52 -50.209 50.209 -52 48 -52 Z" fill="#aaaa99"/>
<path d="M 12 -51 C 10.343 -51 9 -49.657 9 -48 L 9 -18 C 9 -16.343 10.343 -15 12 -15 L 42 -15 C 43.657 -15 45 -16.343 45 -18 L 45 -48 C 45 -49.657 43.657 -51 42 -51 Z" fill="#99998a"/>
<path d="M 12 -50 C 10.895 -50 10 -49.105 10 -48 L 10 -18 C 10 -16.895 10.895 -16 12 -16 L 42 -16 C 43.105 -16 44 -16.895 44 -18 L 44 -48 C 44 -49.105 43.105 -50 42 -50 Z" fill="#cdcdba"/>
</g>
<g id="shape1">
<path d="M 6 -54 C 2.686 -54 0 -51.314 0 -48 L 0 -6 C 0 -2.686 2.686 0 6 0 L 75 0 C 78.314 0 81 -2.686 81 -6 L 81 -48 C 81 -51.314 78.314 -54 75 -54 Z" fill="#000000"/>
<path d="M 6 -53 C 3.239 -53 1 -50.761 1 -48 L 1 -6 C 1 -3.239 3.239 -1 6 -1 L 75 -1 C 77.761 -1 80 -3.239 80 -6 L 80 -48 C 80 -50.761 77.761 -53 75 -53 Z" fill="#99998a"/>
<path d="M 6 -52 C 3.791 -52 2 -50.209 2 -48 L 2 -6 C 2 -3.791 3.791 -2 6 -2 L 75 -2 C 77.209 -2 79 -3.791 79 -6 L 79 -48 C 79 -50.209 77.209 -52 75 -52 Z" fill="#aaaa99"/>
<path d="M 12 -51 C 10.343 -51 9 -49.657 9 -48 L 9 -18 C 9 -16.343 10.343 -15 12 -15 L 69 -15 C 70.657 -15 72 -16.343 72 -18 L 72 -48 C 72 -49.657 70.657 -51 69 -51 Z" fill="#99998a"/>
<path d="M 12 -50 C 10.895 -50 10 -49.105 10 -48 L 10 -18 C 10 -16.895 10.895 -16 12 -16 L 69 -16 C 70.105 -16 71 -16.895 71 -18 L 71 -48 C 71 -49.105 70.105 -50 69 -50 Z" fill="#cdcdba"/>
</g>
</defs>
<g class="keyboard">
<g class="key">
<use xlink:href="#shape0" transform="translate(0 -162)"/>
<text x="12" y="-202" text-anchor="start" font-family="Arial" font-size="10" fill="#1a1a1a">Esc</text>
</g>
<g class="key">
<use xlink:href="#shape0" transform="translate(108 -162)"/>
<text x="120" y="-198" text-anchor="start" font-family="Arial" font-size="15" fill="#1a1a1a">7</text>
</g>
<g class="key">
<use xlink:href="#shape0" transform="translate(162 -162)"/>
<text x="174" y="-198" text-anchor="start" font-family="Arial" font-size="15" fill="#1a1a1a">8</text>
</g>
<g class="key">
<use xlink:href="#shape0" transform="translate(216 -162)"/>
<text x="228" y="-198" text-anchor="start" font-family="Arial" font-size="15" fill="#1a1a1a">9</text>
</g>
<g class="key">
<use xlink:href="#shape0" transform="translate(310.5 -162)"/>
<text x="322.5" y="-198" text-anchor="start" font-family="Arial" font-size="15" fill="#1a1a1a">(</text>
</g>
<g class="key">
<use xlink:href="#shape0" transform="translate(364.5 -162)"/>
<text x="376.5" y="-198" text-anchor="start" font-family="Arial" font-size="15" fill="#1a1a1a">)</text>
</g>
<g class="key">
<use xlink:href="#shape0" transform="translate(0 -108)"/>
<text x="12" y="-148" text-anchor="start" font-family="Arial" font-size="10" fill="#1a1a1a">&#8592;</text>
</g>
<g class="key">
<use xlink:href="#shape0" transform="translate(108 -108)"/>
<text x="120" y="-144" text-anchor="start" font-family="Arial" font-size="15" fill="#1a1a1a">4</text>
</g>
<g class="key">
<use xlink:href="#shape0" transform="translate(162 -108)"/>
<text x="174" y="-144" text-anchor="start" font-family="Arial" font-size="15" fill="#1a1a1a">5</text>
</g>
<g class="key">
<use xlink:href="#shape0" transform="translate(216 -108)"/>
<text x="228" y="-144" text-anchor="start" font-family="Arial" font-size="15" fill="#1a1a1a">6</text>
</g>
<g class="key">
<use xlink:href="#shape0" transform="translate(310.5 -108)"/>
<text x="322.5" y="-144" text-anchor="start" font-family="Arial" font-size="15" fill="#1a1a1a">&#8722;</text>
</g>
<g class="key">
<use xlink:href="#shape0" transform="translate(364.5 -108)"/>
<text x="376.5" y="-144" text-anchor="start" font-family="Arial" font-size="15" fill="#1a1a1a">&#247;</text>
</g>
<g class="key">
<use xlink:href="#shape0" transform="translate(0 -54)"/>
<text x="12" y="-94" text-anchor="start" font-family="Arial" font-size="10" fill="#1a1a1a">&#8594;</text>
</g>
<g class="key">
<use xlink:href="#shape0" transform="translate(108 -54)"/>
<text x="120" y="-90" text-anchor="start" font-family="Arial" font-size="15" fill="#1a1a1a">1</text>
</g>
<g class="key">
<use xlink:href="#shape0" transform="translate(162 -54)"/>
<text x="174" y="-90" text-anchor="start" font-family="Arial" font-size="15" fill="#1a1a1a">2</text>
</g>
<g class="key">
<use xlink:href="#shape0" transform="translate(216 -54)"/>
<text x="228" y="-90" text-anchor="start" font-family="Arial" font-size="15" fill="#1a1a1a">3</text>
</g>
<g class="key">
<use xlink:href="#shape0" transform="translate(310.5 -54)"/>
<text x="322.5" y="-90" text-anchor="start" font-family="Arial" font-size="15" fill="#1a1a1a">+</text>
</g>
<g class="key">
<use xlink:href="#shape0" transform="translate(364.5 -54)"/>
<text x="376.5" y="-90" text-anchor="start" font-family="Arial" font-size="15" fill="#1a1a1a">&#215;</text>
</g>
<g class="key">
<use xlink:href="#shape0" transform="translate(0 0)"/>
<text x="12" y="-40" text-anchor="start" font-family="Arial" font-size="10" fill="#1a1a1a">Space</text>
</g>
<g class="key">
<use xlink:href="#shape1" transform="translate(81 0)"/>
<text x="93" y="-36" text-anchor="start" font-family="Arial" font-size="15" fill="#1a1a1a">0</text>
</g>
<g class="key">
<use xlink:href="#shape0" transform="translate(162 0)"/>
<text x="174" y="-36" text-anchor="start" font-family="Arial" font-size="15" fill="#1a1a1a">,</text>
</g>
<g class="key">
<use xlink:href="#shape0" transform="translate(216 0)"/>
<text x="228" y="-36" text-anchor="start" font-family="Arial" font-size="15" fill="#1a1a1a">.</text>
</g>
<g class="key">
<use xlink:href="#shape0" transform="translate(310.5 0)"/>
<text x="322.5" y="-40" text-anchor="start" font-family="Arial" font-size="10" fill="#1a1a1a">Ret</text>
</g>
<g class="key">
<use xlink:href="#shape0" transform="translate(364.5 0)"/>
<text x="376.5" y="-40" text-anchor="start" font-family="Arial" font-size="10" fill="#1a1a1a">Print</text>
</g>
</g>
</svg>
