<?xml version="1.0"?>
<svg xmlns="http://www.w3.org/2000/svg" xmlns:xlink="http://www.w3.org/1999/xlink" version="1.1" width="378" height="216" viewBox="0 -216 378 216">
<defs>
<g id="shape0">
<path d="M 6 -54 C 2.686 -54 0 -51.314 0 -48 L 0 -6 C 0 -2.686 2.686 0 6 0 L 48 0 C 51.314 0 54 -2.686 54 -6 L 54 -48 C 54 -51.314 51.314 -54 48 -54 Z" fill="#000000"/>
<path d="M 6 -53 C 3.239 -53 1 -50.761 1 -48 L 1 -6 C 1 -3.239 3.239 -1 6 -1 L 48 -1 C 50.761 -1 53 -3.239 53 -6 L 53 -48 C 53 -50.761 50.761 -53 48 -53 Z" fill="#171717"/>
<path d="M 6 -52 C 3.791 -52 2 -50.209 2 -48 L 2 -6 C 2 -3.791 3.791 -2 6 -2 L 48 -2 C 50.209 -2 52 -3.791 52 -6 L 52 -48 C 52 -50.209 50.209 -52 48 -52 Z" fill="#1a1a1a"/>
<path d="M 12 -51 C 10.343 -51 9 -49.657 9 -48 L 9 -18 C 9 -16.343 10.343 -15 12 -15 L 42 -15 C 43.657 -15 45 -16.343 45 -18 L 45 -48 C 45 -49.657 43.657 -51 42 -51 Z" fill="#171717"/>
<path d="M 12 -50 C 10.895 -50 10 -49.105 10 -48 L 10 -18 C 10 -16.895 10.895 -16 12 -16 L 42 -16 C 43.105 -16 44 -16.895 44 -18 L 44 -48 C 44 -49.105 43.105 -50 42 -50 Z" fill="#303030"/>
</g>
</defs>
<g class="keyboard">
<g class="key">
<use xlink:href="#shape0" transform="translate(0 -162)"/>
<text x="16.5" y="-184.5" text-anchor="middle" font-family="Arial" font-size="10" fill="#cc0000">+</text>
<text x="37.5" y="-184.5" text-anchor="middle" font-family="Arial" font-size="10" fill="#00aa00">IF</text>
<text x="27" y="-184.5" text-anchor="middle" font-family="Arial" font-size="10" fill="#66bbff">A</text>
<text x="27" y="-199.5" text-anchor="middle" font-family="Arial" font-size="10" textLength="30" lengthAdjust="spacingAndGlyphs" fill="#f2f2f2">STATUS</text>
</g>
<g class="key">
<use xlink:href="#shape0" transform="translate(54 -162)"/>
<text x="70.5" y="-184.5" text-anchor="middle" font-family="Arial" font-size="10" fill="#cc0000">&#8722;</text>
<text x="91.5" y="-184.5" text-anchor="middle" font-family="Arial" font-size="10" textLength="9" lengthAdjust="spacingAndGlyphs" fill="#00aa00">THEN</text>
<text x="81" y="-184.5" text-anchor="middle" font-family="Arial" font-size="10" fill="#66bbff">B</text>
<text x="81" y="-199.5" text-anchor="middle" font-family="Arial" font-size="10" textLength="30" lengthAdjust="spacingAndGlyphs" fill="#f2f2f2">PROGRAM</text>
</g>
<g class="key">
<use xlink:href="#shape0" transform="translate(108 -162)"/>
<text x="124.5" y="-184.5" text-anchor="middle" font-family="Arial" font-size="10" textLength="9" lengthAdjust="spacingAndGlyphs" fill="#cc0000">&#8592;</text>
<text x="145.5" y="-184.5" text-anchor="middle" font-family="Arial" font-size="10" textLength="9" lengthAdjust="spacingAndGlyphs" fill="#00aa00">ELSE</text>
<text x="135" y="-184.5" text-anchor="middle" font-family="Arial" font-size="10" fill="#66bbff">C</text>
<text x="135" y="-199.5" text-anchor="middle" font-family="Arial" font-size="10" textLength="30" lengthAdjust="spacingAndGlyphs" fill="#f2f2f2">STACK</text>
</g>
<g class="key">
<use xlink:href="#shape0" transform="translate(216 -162)"/>
<text x="232.5" y="-184.5" text-anchor="middle" font-family="Arial" font-size="10" fill="#cc0000">1</text>
<text x="253.5" y="-184.5" text-anchor="middle" font-family="Arial" font-size="10" fill="#00aa00">U</text>
<text x="243" y="-184.5" text-anchor="middle" font-family="Arial" font-size="10" fill="#66bbff">J</text>
</g>
<g class="key">
<use xlink:href="#shape0" transform="translate(270 -162)"/>
<text x="286.5" y="-184.5" text-anchor="middle" font-family="Arial" font-size="10" fill="#cc0000">2</text>
<text x="307.5" y="-184.5" text-anchor="middle" font-family="Arial" font-size="10" fill="#00aa00">V</text>
<text x="297" y="-184.5" text-anchor="middle" font-family="Arial" font-size="10" fill="#66bbff">K</text>
</g>
<g class="key">
<use xlink:href="#shape0" transform="translate(324 -162)"/>
<text x="340.5" y="-184.5" text-anchor="middle" font-family="Arial" font-size="10" fill="#cc0000">3</text>
<text x="361.5" y="-184.5" text-anchor="middle" font-family="Arial" font-size="10" textLength="9" lengthAdjust="spacingAndGlyphs" fill="#00aa00">W</text>
<text x="351" y="-184.5" text-anchor="middle" font-family="Arial" font-size="10" fill="#66bbff">L</text>
</g>
<g class="key">
<use xlink:href="#shape0" transform="translate(0 -108)"/>
<text x="16.5" y="-130.5" text-anchor="middle" font-family="Arial" font-size="10" fill="#cc0000">&#215;</text>
<text x="37.5" y="-130.5" text-anchor="middle" font-family="Arial" font-size="10" textLength="9" lengthAdjust="spacingAndGlyphs" fill="#00aa00">GOTO</text>
<text x="27" y="-130.5" text-anchor="middle" font-family="Arial" font-size="10" fill="#66bbff">D</text>
<text x="27" y="-145.5" text-anchor="middle" font-family="Arial" font-size="10" textLength="30" lengthAdjust="spacingAndGlyphs" fill="#f2f2f2">VARIABLES</text>
</g>
<g class="key">
<use xlink:href="#shape0" transform="translate(54 -108)"/>
<text x="70.5" y="-130.5" text-anchor="middle" font-family="Arial" font-size="10" fill="#cc0000">&#247;</text>
<text x="91.5" y="-130.5" text-anchor="middle" font-family="Arial" font-size="10" textLength="9" lengthAdjust="spacingAndGlyphs" fill="#00aa00">PRINT</text>
<text x="81" y="-130.5" text-anchor="middle" font-family="Arial" font-size="10" fill="#66bbff">E</text>
<text x="81" y="-145.5" text-anchor="middle" font-family="Arial" font-size="10" textLength="30" lengthAdjust="spacingAndGlyphs" fill="#f2f2f2">OUTPUT</text>
</g>
<g class="key">
<use xlink:href="#shape0" transform="translate(108 -108)"/>
<text x="124.5" y="-130.5" text-anchor="middle" font-family="Arial" font-size="10" textLength="9" lengthAdjust="spacingAndGlyphs" fill="#cc0000">NOTE</text>
<text x="145.5" y="-130.5" text-anchor="middle" font-family="Arial" font-size="10" fill="#00aa00">&#34;</text>
<text x="135" y="-130.5" text-anchor="middle" font-family="Arial" font-size="10" fill="#66bbff">F</text>
<text x="135" y="-145.5" text-anchor="middle" font-family="Arial" font-size="10" textLength="30" lengthAdjust="spacingAndGlyphs" fill="#f2f2f2">GRAPHICS</text>
</g>
<g class="key">
<use xlink:href="#shape0" transform="translate(216 -108)"/>
<text x="232.5" y="-130.5" text-anchor="middle" font-family="Arial" font-size="10" fill="#cc0000">4</text>
<text x="253.5" y="-130.5" text-anchor="middle" font-family="Arial" font-size="10" fill="#00aa00">X</text>
<text x="243" y="-130.5" text-anchor="middle" font-family="Arial" font-size="10" fill="#66bbff">M</text>
</g>
<g class="key">
<use xlink:href="#shape0" transform="translate(270 -108)"/>
<text x="286.5" y="-130.5" text-anchor="middle" font-family="Arial" font-size="10" fill="#cc0000">5</text>
<text x="307.5" y="-130.5" text-anchor="middle" font-family="Arial" font-size="10" fill="#00aa00">Y</text>
<text x="297" y="-130.5" text-anchor="middle" font-family="Arial" font-size="10" fill="#66bbff">N</text>
</g>
<g class="key">
<use xlink:href="#shape0" transform="translate(324 -108)"/>
<text x="340.5" y="-130.5" text-anchor="middle" font-family="Arial" font-size="10" fill="#cc0000">6</text>
<text x="361.5" y="-130.5" text-anchor="middle" font-family="Arial" font-size="10" fill="#00aa00">Z</text>
<text x="351" y="-130.5" text-anchor="middle" font-family="Arial" font-size="10" fill="#66bbff">O</text>
</g>
<g class="key">
<use xlink:href="#shape0" transform="translate(0 -54)"/>
<text x="16.5" y="-76.5" text-anchor="middle" font-family="Arial" font-size="10" textLength="9" lengthAdjust="spacingAndGlyphs" fill="#cc0000">HOR1</text>
<text x="37.5" y="-76.5" text-anchor="middle" font-family="Arial" font-size="10" fill="#00aa00">(</text>
<text x="27" y="-76.5" text-anchor="middle" font-family="Arial" font-size="10" fill="#66bbff">G</text>
<text x="27" y="-91.5" text-anchor="middle" font-family="Arial" font-size="10" fill="#f2f2f2">STEP</text>
</g>
<g class="key">
<use xlink:href="#shape0" transform="translate(54 -54)"/>
<text x="70.5" y="-76.5" text-anchor="middle" font-family="Arial" font-size="10" textLength="9" lengthAdjust="spacingAndGlyphs" fill="#cc0000">VER1</text>
<text x="91.5" y="-76.5" text-anchor="middle" font-family="Arial" font-size="10" fill="#00aa00">)</text>
<text x="81" y="-76.5" text-anchor="middle" font-family="Arial" font-size="10" fill="#66bbff">H</text>
<text x="81" y="-91.5" text-anchor="middle" font-family="Arial" font-size="10" textLength="30" lengthAdjust="spacingAndGlyphs" fill="#f2f2f2">SLOWER</text>
</g>
<g class="key">
<use xlink:href="#shape0" transform="translate(108 -54)"/>
<text x="124.5" y="-76.5" text-anchor="middle" font-family="Arial" font-size="10" textLength="9" lengthAdjust="spacingAndGlyphs" fill="#cc0000">KEY</text>
<text x="145.5" y="-76.5" text-anchor="middle" font-family="Arial" font-size="10" fill="#00aa00">,</text>
<text x="135" y="-76.5" text-anchor="middle" font-family="Arial" font-size="10" fill="#66bbff">I</text>
<text x="135" y="-91.5" text-anchor="middle" font-family="Arial" font-size="10" textLength="30" lengthAdjust="spacingAndGlyphs" fill="#f2f2f2">FASTER</text>
</g>
<g class="key">
<use xlink:href="#shape0" transform="translate(216 -54)"/>
<text x="232.5" y="-76.5" text-anchor="middle" font-family="Arial" font-size="10" fill="#cc0000">7</text>
<text x="253.5" y="-76.5" text-anchor="middle" font-family="Arial" font-size="10" textLength="9" lengthAdjust="spacingAndGlyphs" fill="#00aa00">CLEAR</text>
<text x="243" y="-76.5" text-anchor="middle" font-family="Arial" font-size="10" fill="#66bbff">P</text>
</g>
<g class="key">
<use xlink:href="#shape0" transform="translate(270 -54)"/>
<text x="286.5" y="-76.5" text-anchor="middle" font-family="Arial" font-size="10" fill="#cc0000">8</text>
<text x="307.5" y="-76.5" text-anchor="middle" font-family="Arial" font-size="10" textLength="9" lengthAdjust="spacingAndGlyphs" fill="#00aa00">MOD</text>
<text x="297" y="-76.5" text-anchor="middle" font-family="Arial" font-size="10" fill="#66bbff">Q</text>
</g>
<g class="key">
<use xlink:href="#shape0" transform="translate(324 -54)"/>
<text x="340.5" y="-76.5" text-anchor="middle" font-family="Arial" font-size="10" fill="#cc0000">9</text>
<text x="361.5" y="-76.5" text-anchor="middle" font-family="Arial" font-size="10" textLength="9" lengthAdjust="spacingAndGlyphs" fill="#00aa00">HIT</text>
<text x="351" y="-76.5" text-anchor="middle" font-family="Arial" font-size="10" fill="#66bbff">R</text>
</g>
<g class="key">
<use xlink:href="#shape0" transform="translate(0 0)"/>
<text x="27" y="-22.5" text-anchor="middle" font-family="Arial" font-size="10" fill="#f2f2f2">HALT</text>
<text x="27" y="-37.5" text-anchor="middle" font-family="Arial" font-size="10" fill="#f2f2f2">RUN</text>
</g>
<g class="key">
<use xlink:href="#shape0" transform="translate(54 0)"/>
<text x="70.5" y="-30" text-anchor="middle" font-family="Arial" font-size="10" fill="#cc0000">&#8595;</text>
<text x="91.5" y="-30" text-anchor="middle" font-family="Arial" font-size="10" fill="#00aa00">&#8593;</text>
<text x="81" y="-19.8" text-anchor="middle" font-family="Arial" font-size="9" fill="#66bbff">&#8594;</text>
<text x="81" y="-40.8" text-anchor="middle" font-family="Arial" font-size="9" fill="#f2f2f2">&#8592;</text>
</g>
<g class="key">
<use xlink:href="#shape0" transform="translate(108 0)"/>
<text x="135" y="-30" text-anchor="middle" font-family="Arial" font-size="10" textLength="30" lengthAdjust="spacingAndGlyphs" fill="#f2f2f2">ERASE</text>
</g>
<g class="key">
<use xlink:href="#shape0" transform="translate(216 0)"/>
<text x="232.5" y="-22.5" text-anchor="middle" font-family="Arial" font-size="10" textLength="9" lengthAdjust="spacingAndGlyphs" fill="#cc0000">HOR2</text>
<text x="253.5" y="-22.5" text-anchor="middle" font-family="Arial" font-size="10" fill="#00aa00">=</text>
<text x="243" y="-22.5" text-anchor="middle" font-family="Arial" font-size="10" fill="#66bbff">S</text>
<text x="243" y="-37.5" text-anchor="middle" font-family="Arial" font-size="10" textLength="30" lengthAdjust="spacingAndGlyphs" fill="#f2f2f2">BACKWARD</text>
</g>
<g class="key">
<use xlink:href="#shape0" transform="translate(270 0)"/>
<text x="286.5" y="-22.5" text-anchor="middle" font-family="Arial" font-size="10" textLength="9" lengthAdjust="spacingAndGlyphs" fill="#cc0000">VER2</text>
<text x="307.5" y="-22.5" text-anchor="middle" font-family="Arial" font-size="10" fill="#00aa00">&gt;</text>
<text x="297" y="-22.5" text-anchor="middle" font-family="Arial" font-size="10" fill="#66bbff">T</text>
<text x="297" y="-37.5" text-anchor="middle" font-family="Arial" font-size="10" textLength="30" lengthAdjust="spacingAndGlyphs" fill="#f2f2f2">FORWARD</text>
</g>
<g class="key">
<use xlink:href="#shape0" transform="translate(324 0)"/>
<text x="340.5" y="-22.5" text-anchor="middle" font-family="Arial" font-size="10" fill="#cc0000">0</text>
<text x="361.5" y="-22.5" text-anchor="middle" font-family="Arial" font-size="10" fill="#00aa00">&lt;</text>
<text x="351" y="-22.5" text-anchor="middle" font-family="Arial" font-size="10" textLength="9" lengthAdjust="spacingAndGlyphs" fill="#66bbff">SPACE</text>
<text x="351" y="-37.5" text-anchor="middle" font-family="Arial" font-size="10" textLength="30" lengthAdjust="spacingAndGlyphs" fill="#f2f2f2">NEW LINE</text>
</g>
</g>
</svg>
