<?xml version="1.0"?>
<svg xmlns="http://www.w3.org/2000/svg" xmlns:xlink="http://www.w3.org/1999/xlink" version="1.1" width="931.5" height="270" viewBox="0 -270 931.5 270">
<defs>
<g id="shape0">
<path d="M 6 -54 C 2.686 -54 0 -51.314 0 -48 L 0 -6 C 0 -2.686 2.686 0 6 0 L 61.5 0 C 64.814 0 67.5 -2.686 67.5 -6 L 67.5 -48 C 67.5 -51.314 64.814 -54 61.5 -54 Z" fill="#000000"/>
<path d="M 6 -53 C 3.239 -53 1 -50.761 1 -48 L 1 -6 C 1 -3.239 3.239 -1 6 -1 L 61.5 -1 C 64.261 -1 66.5 -3.239 66.5 -6 L 66.5 -48 C 66.5 -50.761 64.261 -53 61.5 -53 Z" fill="#171717"/>
<path d="M 6 -52 C 3.791 -52 2 -50.209 2 -48 L 2 -6 C 2 -3.791 3.791 -2 6 -2 L 61.5 -2 C 63.709 -2 65.5 -3.791 65.5 -6 L 65.5 -48 C 65.5 -50.209 63.709 -52 61.5 -52 Z" fill="#1a1a1a"/>
<path d="M 12 -51 C 10.343 -51 9 -49.657 9 -48 L 9 -18 C 9 -16.343 10.343 -15 12 -15 L 55.5 -15 C 57.157 -15 58.5 -16.343 58.5 -18 L 58.5 -48 C 58.5 -49.657 57.157 -51 55.5 -51 Z" fill="#171717"/>
<path d="M 12 -50 C 10.895 -50 10 -49.105 10 -48 L 10 -18 C 10 -16.895 10.895 -16 12 -16 L 55.5 -16 C 56.605 -16 57.5 -16.895 57.5 -18 L 57.5 -48 C 57.5 -49.105 56.605 -50 55.5 -50 Z" fill="#303030"/>
</g>
<g id="shape1">
<path d="M 6 -54 C 2.686 -54 0 -51.314 0 -48 L 0 -6 C 0 -2.686 2.686 0 6 0 L 48 0 C 51.314 0 54 -2.686 54 -6 L 54 -48 C 54 -51.314 51.314 -54 48 -54 Z" fill="#000000"/>
<path d="M 6 -53 C 3.239 -53 1 -50.761 1 -48 L 1 -6 C 1 -3.239 3.239 -1 6 -1 L 48 -1 C 50.761 -1 53 -3.239 53 -6 L 53 -48 C 53 -50.761 50.761 -53 48 -53 Z" fill="#171717"/>
<path d="M 6 -52 C 3.791 -52 2 -50.209 2 -48 L 2 -6 C 2 -3.791 3.791 -2 6 -2 L 48 -2 C 50.209 -2 52 -3.791 52 -6 L 52 -48 C 52 -50.209 50.209 -52 48 -52 Z" fill="#1a1a1a"/>
<path d="M 12 -51 C 10.343 -51 9 -49.657 9 -48 L 9 -18 C 9 -16.343 10.343 -15 12 -15 L 42 -15 C 43.657 -15 45 -16.343 45 -18 L 45 -48 C 45 -49.657 43.657 -51 42 -51 Z" fill="#171717"/>
<path d="M 12 -50 C 10.895 -50 10 -49.105 10 -48 L 10 -18 C 10 -16.895 10.895 -16 12 -16 L 42 -16 C 43.105 -16 44 -16.895 44 -18 L 44 -48 C 44 -49.105 43.105 -50 42 -50 Z" fill="#303030"/>
</g>
<g id="shape2">
<path d="M 6 -54 C 2.686 -54 0 -51.314 0 -48 L 0 -6 C 0 -2.686 2.686 0 6 0 L 48 0 C 51.314 0 54 -2.686 54 -6 L 54 -48 C 54 -51.314 51.314 -54 48 -54 Z" fill="#000000"/>
<path d="M 6 -53 C 3.239 -53 1 -50.761 1 -48 L 1 -6 C 1 -3.239 3.239 -1 6 -1 L 48 -1 C 50.761 -1 53 -3.239 53 -6 L 53 -48 C 53 -50.761 50.761 -53 48 -53 Z" fill="#b8b8b8"/>
<path d="M 6 -52 C 3.791 -52 2 -50.209 2 -48 L 2 -6 C 2 -3.791 3.791 -2 6 -2 L 48 -2 C 50.209 -2 52 -3.791 52 -6 L 52 -48 C 52 -50.209 50.209 -52 48 -52 Z" fill="#cccccc"/>
<path d="M 9 -51 C 7.343 -51 6 -49.657 6 -48 L 6 -12 C 6 -10.343 7.343 -9 9 -9 L 45 -9 C 46.657 -9 48 -10.343 48 -12 L 48 -48 C 48 -49.657 46.657 -51 45 -51 Z" fill="#b8b8b8"/>
<path d="M 9 -50 C 7.895 -50 7 -49.105 7 -48 L 7 -12 C 7 -10.895 7.895 -10 9 -10 L 45 -10 C 46.105 -10 47 -10.895 47 -12 L 47 -48 C 47 -49.105 46.105 -50 45 -50 Z" fill="#f2f2f2"/>
</g>
<g id="shape3">
<path d="M 6 -54 C 2.686 -54 0 -51.314 0 -48 L 0 -6 C 0 -2.686 2.686 0 6 0 L 88.5 0 C 91.814 0 94.5 -2.686 94.5 -6 L 94.5 -48 C 94.5 -51.314 91.814 -54 88.5 -54 Z" fill="#000000"/>
<path d="M 6 -53 C 3.239 -53 1 -50.761 1 -48 L 1 -6 C 1 -3.239 3.239 -1 6 -1 L 88.5 -1 C 91.261 -1 93.5 -3.239 93.5 -6 L 93.5 -48 C 93.5 -50.761 91.261 -53 88.5 -53 Z" fill="#171717"/>
<path d="M 6 -52 C 3.791 -52 2 -50.209 2 -48 L 2 -6 C 2 -3.791 3.791 -2 6 -2 L 88.5 -2 C 90.709 -2 92.5 -3.791 92.5 -6 L 92.5 -48 C 92.5 -50.209 90.709 -52 88.5 -52 Z" fill="#1a1a1a"/>
<path d="M 12 -51 C 10.343 -51 9 -49.657 9 -48 L 9 -18 C 9 -16.343 10.343 -15 12 -15 L 82.5 -15 C 84.157 -15 85.5 -16.343 85.5 -18 L 85.5 -48 C 85.5 -49.657 84.157 -51 82.5 -51 Z" fill="#171717"/>
<path d="M 12 -50 C 10.895 -50 10 -49.105 10 -48 L 10 -18 C 10 -16.895 10.895 -16 12 -16 L 82.5 -16 C 83.605 -16 84.5 -16.895 84.5 -18 L 84.5 -48 C 84.5 -49.105 83.605 -50 82.5 -50 Z" fill="#303030"/>
</g>
<g id="shape4">
<path d="M 6 -54 C 2.686 -54 0 -51.314 0 -48 L 0 -6 C 0 -2.686 2.686 0 6 0 L 75 0 C 78.314 0 81 -2.686 81 -6 L 81 -48 C 81 -51.314 78.314 -54 75 -54 Z" fill="#000000"/>
<path d="M 6 -53 C 3.239 -53 1 -50.761 1 -48 L 1 -6 C 1 -3.239 3.239 -1 6 -1 L 75 -1 C 77.761 -1 80 -3.239 80 -6 L 80 -48 C 80 -50.761 77.761 -53 75 -53 Z" fill="#171717"/>
<path d="M 6 -52 C 3.791 -52 2 -50.209 2 -48 L 2 -6 C 2 -3.791 3.791 -2 6 -2 L 75 -2 C 77.209 -2 79 -3.791 79 -6 L 79 -48 C 79 -50.209 77.209 -52 75 -52 Z" fill="#1a1a1a"/>
<path d="M 12 -51 C 10.343 -51 9 -49.657 9 -48 L 9 -18 C 9 -16.343 10.343 -15 12 -15 L 69 -15 C 70.657 -15 72 -16.343 72 -18 L 72 -48 C 72 -49.657 70.657 -51 69 -51 Z" fill="#171717"/>
<path d="M 12 -50 C 10.895 -50 10 -49.105 10 -48 L 10 -18 C 10 -16.895 10.895 -16 12 -16 L 69 -16 C 70.105 -16 71 -16.895 71 -18 L 71 -48 C 71 -49.105 70.105 -50 69 -50 Z" fill="#303030"/>
</g>
<g id="shape5">
<path d="M 6 -54 C 2.686 -54 0 -51.314 0 -48 L 0 -6 C 0 -2.686 2.686 0 6 0 L 102 0 C 105.314 0 108 -2.686 108 -6 L 108 -48 C 108 -51.314 105.314 -54 102 -54 Z" fill="#000000"/>
<path d="M 6 -53 C 3.239 -53 1 -50.761 1 -48 L 1 -6 C 1 -3.239 3.239 -1 6 -1 L 102 -1 C 104.761 -1 107 -3.239 107 -6 L 107 -48 C 107 -50.761 104.761 -53 102 -53 Z" fill="#171717"/>
<path d="M 6 -52 C 3.791 -52 2 -50.209 2 -48 L 2 -6 C 2 -3.791 3.791 -2 6 -2 L 102 -2 C 104.209 -2 106 -3.791 106 -6 L 106 -48 C 106 -50.209 104.209 -52 102 -52 Z" fill="#1a1a1a"/>
<path d="M 12 -51 C 10.343 -51 9 -49.657 9 -48 L 9 -18 C 9 -16.343 10.343 -15 12 -15 L 96 -15 C 97.657 -15 99 -16.343 99 -18 L 99 -48 C 99 -49.657 97.657 -51 96 -51 Z" fill="#171717"/>
<path d="M 12 -50 C 10.895 -50 10 -49.105 10 -48 L 10 -18 C 10 -16.895 10.895 -16 12 -16 L 96 -16 C 97.105 -16 98 -16.895 98 -18 L 98 -48 C 98 -49.105 97.105 -50 96 -50 Z" fill="#303030"/>
</g>
<g id="shape6">
<path d="M 6 -54 C 2.686 -54 0 -51.314 0 -48 L 0 -6 C 0 -2.686 2.686 0 6 0 L 129 0 C 132.314 0 135 -2.686 135 -6 L 135 -48 C 135 -51.314 132.314 -54 129 -54 Z" fill="#000000"/>
<path d="M 6 -53 C 3.239 -53 1 -50.761 1 -48 L 1 -6 C 1 -3.239 3.239 -1 6 -1 L 129 -1 C 131.761 -1 134 -3.239 134 -6 L 134 -48 C 134 -50.761 131.761 -53 129 -53 Z" fill="#171717"/>
<path d="M 6 -52 C 3.791 -52 2 -50.209 2 -48 L 2 -6 C 2 -3.791 3.791 -2 6 -2 L 129 -2 C 131.209 -2 133 -3.791 133 -6 L 133 -48 C 133 -50.209 131.209 -52 129 -52 Z" fill="#1a1a1a"/>
<path d="M 12 -51 C 10.343 -51 9 -49.657 9 -48 L 9 -18 C 9 -16.343 10.343 -15 12 -15 L 123 -15 C 124.657 -15 126 -16.343 126 -18 L 126 -48 C 126 -49.657 124.657 -51 123 -51 Z" fill="#171717"/>
<path d="M 12 -50 C 10.895 -50 10 -49.105 10 -48 L 10 -18 C 10 -16.895 10.895 -16 12 -16 L 123 -16 C 124.105 -16 125 -16.895 125 -18 L 125 -48 C 125 -49.105 124.105 -50 123 -50 Z" fill="#303030"/>
</g>
<g id="shape7">
<path d="M 6 -54 C 2.686 -54 0 -51.314 0 -48 L 0 -6 C 0 -2.686 2.686 0 6 0 L 480 0 C 483.314 0 486 -2.686 486 -6 L 486 -48 C 486 -51.314 483.314 -54 480 -54 Z" fill="#000000"/>
<path d="M 6 -53 C 3.239 -53 1 -50.761 1 -48 L 1 -6 C 1 -3.239 3.239 -1 6 -1 L 480 -1 C 482.761 -1 485 -3.239 485 -6 L 485 -48 C 485 -50.761 482.761 -53 480 -53 Z" fill="#171717"/>
<path d="M 6 -52 C 3.791 -52 2 -50.209 2 -48 L 2 -6 C 2 -3.791 3.791 -2 6 -2 L 480 -2 C 482.209 -2 484 -3.791 484 -6 L 484 -48 C 484 -50.209 482.209 -52 480 -52 Z" fill="#1a1a1a"/>
<path d="M 12 -51 C 10.343 -51 9 -49.657 9 -48 L 9 -18 C 9 -16.343 10.343 -15 12 -15 L 474 -15 C 475.657 -15 477 -16.343 477 -18 L 477 -48 C 477 -49.657 475.657 -51 474 -51 Z" fill="#171717"/>
<path d="M 12 -50 C 10.895 -50 10 -49.105 10 -48 L 10 -18 C 10 -16.895 10.895 -16 12 -16 L 474 -16 C 475.105 -16 476 -16.895 476 -18 L 476 -48 C 476 -49.105 475.105 -50 474 -50 Z" fill="#303030"/>
</g>
<path id="path0" d="M 0 0 h 1 v 1 h -1 z M 0.1 0.9 h 0.8 v -0.8 z"/>
</defs>
<g class="keyboard">
<g class="key">
<use xlink:href="#shape0" transform="translate(0 -216)"/>
<text x="33.75" y="-246" text-anchor="middle" font-family="Arial" font-size="10" fill="#f2f2f2">ESC</text>
</g>
<g class="key">
<use xlink:href="#shape1" transform="translate(67.5 -216)"/>
<text x="94.5" y="-237.9" text-anchor="middle" font-family="Arial" font-size="12" fill="#f2f2f2">1</text>
<text x="94.5" y="-252.9" text-anchor="middle" font-family="Arial" font-size="12" fill="#f2f2f2">!</text>
</g>
<g class="key">
<use xlink:href="#shape1" transform="translate(121.5 -216)"/>
<text x="148.5" y="-237.9" text-anchor="middle" font-family="Arial" font-size="12" fill="#f2f2f2">2</text>
<text x="148.5" y="-252.9" text-anchor="middle" font-family="Arial" font-size="12" fill="#f2f2f2">&#34;</text>
</g>
<g class="key">
<use xlink:href="#shape1" transform="translate(175.5 -216)"/>
<text x="202.5" y="-237.9" text-anchor="middle" font-family="Arial" font-size="12" fill="#f2f2f2">3</text>
<text x="202.5" y="-252.9" text-anchor="middle" font-family="Arial" font-size="12" fill="#f2f2f2">#</text>
</g>
<g class="key">
<use xlink:href="#shape1" transform="translate(229.5 -216)"/>
<text x="256.5" y="-237.9" text-anchor="middle" font-family="Arial" font-size="12" fill="#f2f2f2">4</text>
<text x="256.5" y="-252.9" text-anchor="middle" font-family="Arial" font-size="12" fill="#f2f2f2">$</text>
</g>
<g class="key">
<use xlink:href="#shape1" transform="translate(283.5 -216)"/>
<text x="310.5" y="-237.9" text-anchor="middle" font-family="Arial" font-size="12" fill="#f2f2f2">5</text>
<text x="310.5" y="-252.9" text-anchor="middle" font-family="Arial" font-size="12" fill="#f2f2f2">%</text>
</g>
<g class="key">
<use xlink:href="#shape1" transform="translate(337.5 -216)"/>
<text x="364.5" y="-237.9" text-anchor="middle" font-family="Arial" font-size="12" fill="#f2f2f2">6</text>
<text x="364.5" y="-252.9" text-anchor="middle" font-family="Arial" font-size="12" fill="#f2f2f2">&amp;</text>
</g>
<g class="key">
<use xlink:href="#shape1" transform="translate(391.5 -216)"/>
<text x="418.5" y="-237.9" text-anchor="middle" font-family="Arial" font-size="12" fill="#f2f2f2">7</text>
<text x="418.5" y="-252.9" text-anchor="middle" font-family="Arial" font-size="12" fill="#f2f2f2">&#39;</text>
</g>
<g class="key">
<use xlink:href="#shape1" transform="translate(445.5 -216)"/>
<text x="472.5" y="-237.9" text-anchor="middle" font-family="Arial" font-size="12" fill="#f2f2f2">8</text>
<text x="472.5" y="-252.9" text-anchor="middle" font-family="Arial" font-size="12" fill="#f2f2f2">@</text>
</g>
<g class="key">
<use xlink:href="#shape1" transform="translate(499.5 -216)"/>
<text x="526.5" y="-237.9" text-anchor="middle" font-family="Arial" font-size="12" fill="#f2f2f2">9</text>
<text x="526.5" y="-252.9" text-anchor="middle" font-family="Arial" font-size="12" fill="#f2f2f2">(</text>
</g>
<g class="key">
<use xlink:href="#shape1" transform="translate(553.5 -216)"/>
<text x="580.5" y="-237.9" text-anchor="middle" font-family="Arial" font-size="12" fill="#f2f2f2">0</text>
<text x="580.5" y="-252.9" text-anchor="middle" font-family="Arial" font-size="12" fill="#f2f2f2">)</text>
</g>
<g class="key">
<use xlink:href="#shape1" transform="translate(607.5 -216)"/>
<text x="634.5" y="-253.5" text-anchor="middle" font-family="Arial" font-size="10" textLength="30" lengthAdjust="spacingAndGlyphs" fill="#f2f2f2">CLEAR</text>
<text x="634.5" y="-237.9" text-anchor="middle" font-family="Arial" font-size="12" fill="#f2f2f2">&lt;</text>
</g>
<g class="key">
<use xlink:href="#shape1" transform="translate(661.5 -216)"/>
<text x="688.5" y="-253.5" text-anchor="middle" font-family="Arial" font-size="10" textLength="30" lengthAdjust="spacingAndGlyphs" fill="#f2f2f2">INSERT</text>
<text x="688.5" y="-237.9" text-anchor="middle" font-family="Arial" font-size="12" fill="#f2f2f2">&gt;</text>
</g>
<g class="key">
<use xlink:href="#shape1" transform="translate(715.5 -216)"/>
<text x="742.5" y="-243" text-anchor="middle" font-family="Arial" font-size="7.5" fill="#f2f2f2">BACK</text>
<text x="742.5" y="-235.5" text-anchor="middle" font-family="Arial" font-size="7.5" fill="#f2f2f2">SPACE</text>
<text x="742.5" y="-253.5" text-anchor="middle" font-family="Arial" font-size="10" textLength="30" lengthAdjust="spacingAndGlyphs" fill="#f2f2f2">DELETE</text>
</g>
<g class="key">
<use xlink:href="#shape1" transform="translate(769.5 -216)"/>
<text x="796.5" y="-246" text-anchor="middle" font-family="Arial" font-size="10" textLength="30" lengthAdjust="spacingAndGlyphs" fill="#f2f2f2">BREAK</text>
</g>
<g class="key">
<use xlink:href="#shape2" transform="translate(877.5 -216)"/>
<text x="904.5" y="-243" text-anchor="middle" font-family="Arial" font-size="10" fill="#1a1a1a">RESET</text>
</g>
<g class="key">
<use xlink:href="#shape3" transform="translate(0 -162)"/>
<text x="29.625" y="-199.5" text-anchor="middle" font-family="Arial" font-size="10" fill="#f2f2f2">CLR</text>
<text x="64.875" y="-199.5" text-anchor="middle" font-family="Arial" font-size="10" fill="#f2f2f2">SET</text>
<text x="47.25" y="-184.5" text-anchor="middle" font-family="Arial" font-size="10" fill="#f2f2f2">TAB</text>
</g>
<g class="key">
<use xlink:href="#shape1" transform="translate(94.5 -162)"/>
<text x="121.5" y="-190.5" text-anchor="middle" font-family="Arial" font-size="15" fill="#f2f2f2">Q</text>
</g>
<g class="key">
<use xlink:href="#shape1" transform="translate(148.5 -162)"/>
<text x="175.5" y="-190.5" text-anchor="middle" font-family="Arial" font-size="15" fill="#f2f2f2">W</text>
</g>
<g class="key">
<use xlink:href="#shape1" transform="translate(202.5 -162)"/>
<text x="229.5" y="-190.5" text-anchor="middle" font-family="Arial" font-size="15" fill="#f2f2f2">E</text>
</g>
<g class="key">
<use xlink:href="#shape1" transform="translate(256.5 -162)"/>
<text x="283.5" y="-190.5" text-anchor="middle" font-family="Arial" font-size="15" fill="#f2f2f2">R</text>
</g>
<g class="key">
<use xlink:href="#shape1" transform="translate(310.5 -162)"/>
<text x="337.5" y="-190.5" text-anchor="middle" font-family="Arial" font-size="15" fill="#f2f2f2">T</text>
</g>
<g class="key">
<use xlink:href="#shape1" transform="translate(364.5 -162)"/>
<text x="391.5" y="-190.5" text-anchor="middle" font-family="Arial" font-size="15" fill="#f2f2f2">Y</text>
</g>
<g class="key">
<use xlink:href="#shape1" transform="translate(418.5 -162)"/>
<text x="445.5" y="-190.5" text-anchor="middle" font-family="Arial" font-size="15" fill="#f2f2f2">U</text>
</g>
<g class="key">
<use xlink:href="#shape1" transform="translate(472.5 -162)"/>
<text x="499.5" y="-190.5" text-anchor="middle" font-family="Arial" font-size="15" fill="#f2f2f2">I</text>
</g>
<g class="key">
<use xlink:href="#shape1" transform="translate(526.5 -162)"/>
<text x="553.5" y="-190.5" text-anchor="middle" font-family="Arial" font-size="15" fill="#f2f2f2">O</text>
</g>
<g class="key">
<use xlink:href="#shape1" transform="translate(580.5 -162)"/>
<text x="607.5" y="-190.5" text-anchor="middle" font-family="Arial" font-size="15" fill="#f2f2f2">P</text>
</g>
<g class="key">
<use xlink:href="#shape1" transform="translate(634.5 -162)"/>
<text x="661.5" y="-183.9" text-anchor="middle" font-family="Arial" font-size="12" fill="#f2f2f2">&#8722;</text>
<text x="654" y="-198.9" text-anchor="middle" font-family="Arial" font-size="12" fill="#f2f2f2">&#8593;</text>
<text x="669" y="-198.9" text-anchor="middle" font-family="Arial" font-size="12" fill="#f2f2f2">_</text>
</g>
<g class="key">
<use xlink:href="#shape1" transform="translate(688.5 -162)"/>
<text x="715.5" y="-183.9" text-anchor="middle" font-family="Arial" font-size="12" fill="#f2f2f2">=</text>
<text x="708" y="-198.9" text-anchor="middle" font-family="Arial" font-size="12" fill="#f2f2f2">&#8595;</text>
<text x="723" y="-198.9" text-anchor="middle" font-family="Arial" font-size="12" fill="#f2f2f2">|</text>
</g>
<g class="key">
<use xlink:href="#shape4" transform="translate(742.5 -162)"/>
<text x="783" y="-192" text-anchor="middle" font-family="Arial" font-size="10" fill="#f2f2f2">RETURN</text>
</g>
<g class="key">
<use xlink:href="#shape2" transform="translate(877.5 -162)"/>
<text x="904.5" y="-189" text-anchor="middle" font-family="Arial" font-size="10" textLength="36" lengthAdjust="spacingAndGlyphs" fill="#1a1a1a">OPTION</text>
</g>
<g class="key">
<use xlink:href="#shape5" transform="translate(0 -108)"/>
<text x="54" y="-138" text-anchor="middle" font-family="Arial" font-size="10" fill="#f2f2f2">CTRL</text>
</g>
<g class="key">
<use xlink:href="#shape1" transform="translate(108 -108)"/>
<text x="135" y="-136.5" text-anchor="middle" font-family="Arial" font-size="15" fill="#f2f2f2">A</text>
</g>
<g class="key">
<use xlink:href="#shape1" transform="translate(162 -108)"/>
<text x="189" y="-136.5" text-anchor="middle" font-family="Arial" font-size="15" fill="#f2f2f2">S</text>
</g>
<g class="key">
<use xlink:href="#shape1" transform="translate(216 -108)"/>
<text x="243" y="-136.5" text-anchor="middle" font-family="Arial" font-size="15" fill="#f2f2f2">D</text>
</g>
<g class="key">
<use xlink:href="#shape1" transform="translate(270 -108)"/>
<text x="297" y="-136.5" text-anchor="middle" font-family="Arial" font-size="15" fill="#f2f2f2">F</text>
</g>
<g class="key">
<use xlink:href="#shape1" transform="translate(324 -108)"/>
<text x="351" y="-136.5" text-anchor="middle" font-family="Arial" font-size="15" fill="#f2f2f2">G</text>
</g>
<g class="key">
<use xlink:href="#shape1" transform="translate(378 -108)"/>
<text x="405" y="-136.5" text-anchor="middle" font-family="Arial" font-size="15" fill="#f2f2f2">H</text>
</g>
<g class="key">
<use xlink:href="#shape1" transform="translate(432 -108)"/>
<text x="459" y="-136.5" text-anchor="middle" font-family="Arial" font-size="15" fill="#f2f2f2">J</text>
</g>
<g class="key">
<use xlink:href="#shape1" transform="translate(486 -108)"/>
<text x="513" y="-136.5" text-anchor="middle" font-family="Arial" font-size="15" fill="#f2f2f2">K</text>
</g>
<g class="key">
<use xlink:href="#shape1" transform="translate(540 -108)"/>
<text x="567" y="-136.5" text-anchor="middle" font-family="Arial" font-size="15" fill="#f2f2f2">L</text>
</g>
<g class="key">
<use xlink:href="#shape1" transform="translate(594 -108)"/>
<text x="621" y="-129.9" text-anchor="middle" font-family="Arial" font-size="12" fill="#f2f2f2">;</text>
<text x="621" y="-144.9" text-anchor="middle" font-family="Arial" font-size="12" fill="#f2f2f2">:</text>
</g>
<g class="key">
<use xlink:href="#shape1" transform="translate(648 -108)"/>
<text x="675" y="-129.9" text-anchor="middle" font-family="Arial" font-size="12" fill="#f2f2f2">+</text>
<text x="667.5" y="-144.9" text-anchor="middle" font-family="Arial" font-size="12" fill="#f2f2f2">&#8592;</text>
<text x="682.5" y="-144.9" text-anchor="middle" font-family="Arial" font-size="12" fill="#f2f2f2">\</text>
</g>
<g class="key">
<use xlink:href="#shape1" transform="translate(702 -108)"/>
<text x="729" y="-129.9" text-anchor="middle" font-family="Arial" font-size="12" fill="#f2f2f2">*</text>
<text x="721.5" y="-144.9" text-anchor="middle" font-family="Arial" font-size="12" fill="#f2f2f2">&#8594;</text>
<text x="736.5" y="-144.9" text-anchor="middle" font-family="Arial" font-size="12" fill="#f2f2f2">^</text>
</g>
<g class="key">
<use xlink:href="#shape0" transform="translate(756 -108)"/>
<text x="789.75" y="-138" text-anchor="middle" font-family="Arial" font-size="10" fill="#f2f2f2">CAPS</text>
</g>
<g class="key">
<use xlink:href="#shape2" transform="translate(877.5 -108)"/>
<text x="904.5" y="-135" text-anchor="middle" font-family="Arial" font-size="10" textLength="36" lengthAdjust="spacingAndGlyphs" fill="#1a1a1a">SELECT</text>
</g>
<g class="key">
<use xlink:href="#shape6" transform="translate(0 -54)"/>
<text x="67.5" y="-84" text-anchor="middle" font-family="Arial" font-size="10" fill="#f2f2f2">SHIFT</text>
</g>
<g class="key">
<use xlink:href="#shape1" transform="translate(135 -54)"/>
<text x="162" y="-82.5" text-anchor="middle" font-family="Arial" font-size="15" fill="#f2f2f2">Z</text>
</g>
<g class="key">
<use xlink:href="#shape1" transform="translate(189 -54)"/>
<text x="216" y="-82.5" text-anchor="middle" font-family="Arial" font-size="15" fill="#f2f2f2">X</text>
</g>
<g class="key">
<use xlink:href="#shape1" transform="translate(243 -54)"/>
<text x="270" y="-82.5" text-anchor="middle" font-family="Arial" font-size="15" fill="#f2f2f2">C</text>
</g>
<g class="key">
<use xlink:href="#shape1" transform="translate(297 -54)"/>
<text x="324" y="-82.5" text-anchor="middle" font-family="Arial" font-size="15" fill="#f2f2f2">V</text>
</g>
<g class="key">
<use xlink:href="#shape1" transform="translate(351 -54)"/>
<text x="378" y="-82.5" text-anchor="middle" font-family="Arial" font-size="15" fill="#f2f2f2">B</text>
</g>
<g class="key">
<use xlink:href="#shape1" transform="translate(405 -54)"/>
<text x="432" y="-82.5" text-anchor="middle" font-family="Arial" font-size="15" fill="#f2f2f2">N</text>
</g>
<g class="key">
<use xlink:href="#shape1" transform="translate(459 -54)"/>
<text x="486" y="-82.5" text-anchor="middle" font-family="Arial" font-size="15" fill="#f2f2f2">M</text>
</g>
<g class="key">
<use xlink:href="#shape1" transform="translate(513 -54)"/>
<text x="540" y="-75.9" text-anchor="middle" font-family="Arial" font-size="12" fill="#f2f2f2">,</text>
<text x="540" y="-90.9" text-anchor="middle" font-family="Arial" font-size="12" fill="#f2f2f2">[</text>
</g>
<g class="key">
<use xlink:href="#shape1" transform="translate(567 -54)"/>
<text x="594" y="-75.9" text-anchor="middle" font-family="Arial" font-size="12" fill="#f2f2f2">.</text>
<text x="594" y="-90.9" text-anchor="middle" font-family="Arial" font-size="12" fill="#f2f2f2">]</text>
</g>
<g class="key">
<use xlink:href="#shape1" transform="translate(621 -54)"/>
<text x="648" y="-75.9" text-anchor="middle" font-family="Arial" font-size="12" fill="#f2f2f2">/</text>
<text x="648" y="-90.9" text-anchor="middle" font-family="Arial" font-size="12" fill="#f2f2f2">?</text>
</g>
<g class="key">
<use xlink:href="#shape3" transform="translate(675 -54)"/>
<text x="722.25" y="-84" text-anchor="middle" font-family="Arial" font-size="10" fill="#f2f2f2">SHIFT</text>
</g>
<g class="key">
<use xlink:href="#shape1" transform="translate(769.5 -54)"/>
<use xlink:href="#path0" transform="translate(791.5 -92) scale(10 10)" fill="#f2f2f2"/>
</g>
<g class="key">
<use xlink:href="#shape2" transform="translate(877.5 -54)"/>
<text x="904.5" y="-81" text-anchor="middle" font-family="Arial" font-size="10" fill="#1a1a1a">START</text>
</g>
<g class="key">
<use xlink:href="#shape7" transform="translate(162 0)"/>
</g>
<g class="key">
<use xlink:href="#shape2" transform="translate(877.5 0)"/>
<text x="904.5" y="-27" text-anchor="middle" font-family="Arial" font-size="10" fill="#1a1a1a">HELP</text>
</g>
</g>
</svg>
