<?xml version="1.0"?>
<svg xmlns="http://www.w3.org/2000/svg" xmlns:xlink="http://www.w3.org/1999/xlink" version="1.1" width="984" height="240" viewBox="0 -240 984 240">
<defs>
<g id="shape0">
<path d="M 41 -41 L 41 -7 L 7 -7 L 7 -41 Z M 3 -47 C 1.896 -47 1 -46.104 1 -45 L 1 -41 L 1 -7 L 1 -3 C 1 -1.896 1.896 -1 3 -1 L 45 -1 C 46.104 -1 47 -1.896 47 -3 L 47 -7 L 47 -41 L 47 -45 C 47 -46.104 46.104 -47 45 -47 Z" fill="#000000"/>
<path d="M 45.707 -45.707 L 41 -41 L 41 -7 L 7 -7 L 2.293 -2.293 C 2.474 -2.112 2.724 -2 3 -2 L 45 -2 C 45.553 -2 46 -2.447 46 -3 L 46 -7 L 46 -41 L 46 -45 C 46 -45.276 45.888 -45.526 45.707 -45.707 Z" fill="#555555"/>
<path d="M 44.766 -44.765 L 41 -41 L 41 -7 L 7 -7 L 3.234 -3.234 C 3.379 -3.09 3.579 -3 3.8 -3 L 44.2 -3 C 44.642 -3 45 -3.358 45 -3.8 L 45 -7 L 45 -41 L 45 -44.2 C 45 -44.421 44.91 -44.621 44.766 -44.765 Z" fill="#777777"/>
<path d="M 43.824 -43.824 L 41 -41 L 41 -7 L 7 -7 L 4.176 -4.176 C 4.284 -4.067 4.435 -4 4.6 -4 L 43.4 -4 C 43.731 -4 44 -4.269 44 -4.6 L 44 -7 L 44 -41 L 44 -43.4 C 44 -43.566 43.933 -43.716 43.824 -43.824 Z" fill="#888888"/>
<path d="M 41 -41 L 41 -7 L 7 -7 L 7 -41 Z M 3 -46 C 2.448 -46 2 -45.552 2 -45 L 2 -41 L 2 -7 L 2 -3 C 2 -2.724 2.112 -2.474 2.293 -2.293 L 5.117 -5.117 C 5.189 -5.045 5.29 -5 5.4 -5 L 42.6 -5 C 42.821 -5 43 -5.179 43 -5.4 L 43 -7 L 43 -41 L 43 -42.6 C 43 -42.71 42.955 -42.81 42.883 -42.883 L 45.707 -45.707 C 45.526 -45.888 45.276 -46 45 -46 Z" fill="#aaaaaa"/>
<path d="M 3.8 -45 C 3.358 -45 3 -44.642 3 -44.2 L 3 -41 L 3 -7 L 3 -3.8 C 3 -3.579 3.09 -3.379 3.234 -3.235 L 7 -7 L 7 -7 L 7 -41 L 41 -41 L 41 -41 L 44.766 -44.766 C 44.621 -44.91 44.421 -45 44.2 -45 Z" fill="#bbbbbb"/>
<path d="M 4.6 -44 C 4.269 -44 4 -43.731 4 -43.4 L 4 -41 L 4 -7 L 4 -4.6 C 4 -4.434 4.067 -4.285 4.176 -4.176 L 7 -7 L 7 -7 L 7 -41 L 41 -41 L 41 -41 L 43.824 -43.824 C 43.716 -43.933 43.566 -44 43.4 -44 Z" fill="#dddddd"/>
<path d="M 5.4 -43 C 5.179 -43 5 -42.821 5 -42.6 L 5 -41 L 5 -7 L 5 -5.4 C 5 -5.29 5.045 -5.189 5.117 -5.117 L 7 -7 L 7 -7 L 7 -41 L 41 -41 L 41 -41 L 42.883 -42.883 C 42.811 -42.955 42.71 -43 42.6 -43 Z" fill="#eeeeee"/>
<path d="M 6.2 -42 C 6.089 -42 6 -41.911 6 -41.8 L 6 -41 L 6 -7 L 6 -6.2 C 6 -6.09 6.089 -6 6.2 -6 L 41.8 -6 C 41.91 -6 42 -6.09 42 -6.2 L 42 -7 L 42 -41 L 42 -41.8 C 42 -41.911 41.91 -42 41.8 -42 Z" fill="#cccccc"/>
<path d="M 43 -5.707 L 43 -5.4 C 43 -5.179 42.821 -5 42.6 -5 L 42.293 -5 L 45.244 -2.049 C 45.595 -2.14 45.86 -2.405 45.951 -2.756 L 43 -5.707 Z" fill="#555555"/>
<path d="M 45.244 -45.951 L 41.293 -42 L 41.8 -42 C 41.91 -42 42 -41.911 42 -41.8 L 42 -41.293 L 45.951 -45.244 C 45.905 -45.42 45.831 -45.583 45.707 -45.707 C 45.583 -45.832 45.42 -45.906 45.244 -45.951 Z M 42 -6.707 L 42 -6.2 C 42 -6.09 41.91 -6 41.8 -6 L 41.293 -6 L 42.293 -5 L 42.6 -5 C 42.821 -5 43 -5.179 43 -5.4 L 43 -5.707 L 42 -6.707 Z" fill="#777777"/>
<path d="M 2.756 -45.951 C 2.405 -45.86 2.14 -45.595 2.049 -45.244 L 6 -41.293 L 6 -41.8 C 6 -41.911 6.089 -42 6.2 -42 L 6.707 -42 L 2.756 -45.951 Z M 6 -6.707 L 2.049 -2.756 C 2.094 -2.58 2.168 -2.417 2.293 -2.293 C 2.417 -2.169 2.581 -2.095 2.756 -2.049 L 6.708 -6 L 6.2 -6 C 6.089 -6 6 -6.09 6 -6.2 L 6 -6.707 Z" fill="#eeeeee"/>
</g>
<g id="shape1">
<path d="M 3 -47 C 1.896 -47 1 -46.104 1 -45 L 1 -41 L 1 -7 L 1 -3 C 1 -1.896 1.896 -1 3 -1 L 65 -1 L 65 -7 L 7 -7 L 7 -41 L 65 -41 L 65 -47 Z M 65 -47 L 65 -41 L 65 -7 L 65 -1 L 69 -1 C 70.104 -1 71 -1.896 71 -3 L 71 -7 L 71 -41 L 71 -45 C 71 -46.104 70.104 -47 69 -47 Z" fill="#000000"/>
<path d="M 7 -7 L 2.293 -2.293 C 2.474 -2.112 2.724 -2 3 -2 L 65 -2 L 65 -7 Z M 69.707 -45.707 L 65 -41 L 65 -7 L 65 -2 L 69 -2 C 69.553 -2 70 -2.447 70 -3 L 70 -7 L 70 -41 L 70 -45 C 70 -45.276 69.888 -45.526 69.707 -45.707 Z" fill="#555555"/>
<path d="M 7 -7 L 3.234 -3.234 C 3.379 -3.09 3.579 -3 3.8 -3 L 65 -3 L 65 -7 Z M 68.766 -44.765 L 65 -41 L 65 -7 L 65 -3 L 68.2 -3 C 68.642 -3 69 -3.358 69 -3.8 L 69 -7 L 69 -41 L 69 -44.2 C 69 -44.421 68.91 -44.621 68.766 -44.765 Z" fill="#777777"/>
<path d="M 7 -7 L 4.176 -4.176 C 4.284 -4.067 4.435 -4 4.6 -4 L 65 -4 L 65 -7 Z M 67.824 -43.824 L 65 -41 L 65 -7 L 65 -4 L 67.4 -4 C 67.731 -4 68 -4.269 68 -4.6 L 68 -7 L 68 -41 L 68 -43.4 C 68 -43.566 67.933 -43.716 67.824 -43.824 Z" fill="#888888"/>
<path d="M 65 -46 L 65 -41 L 65 -7 L 65 -5 L 66.6 -5 C 66.821 -5 67 -5.179 67 -5.4 L 67 -7 L 67 -41 L 67 -42.6 C 67 -42.71 66.955 -42.81 66.883 -42.883 L 69.707 -45.707 C 69.526 -45.888 69.276 -46 69 -46 Z M 3 -46 C 2.448 -46 2 -45.552 2 -45 L 2 -41 L 2 -7 L 2 -3 C 2 -2.724 2.112 -2.474 2.293 -2.293 L 5.117 -5.117 C 5.189 -5.045 5.29 -5 5.4 -5 L 65 -5 L 65 -7 L 7 -7 L 7 -41 L 65 -41 L 65 -46 Z" fill="#aaaaaa"/>
<path d="M 65 -45 L 65 -41 L 68.766 -44.766 C 68.621 -44.91 68.421 -45 68.2 -45 Z M 3.8 -45 C 3.358 -45 3 -44.642 3 -44.2 L 3 -41 L 3 -7 L 3 -3.8 C 3 -3.579 3.09 -3.379 3.234 -3.235 L 7 -7 L 7 -7 L 7 -41 L 65 -41 L 65 -45 Z" fill="#bbbbbb"/>
<path d="M 65 -44 L 65 -41 L 67.824 -43.824 C 67.716 -43.933 67.566 -44 67.4 -44 Z M 4.6 -44 C 4.269 -44 4 -43.731 4 -43.4 L 4 -41 L 4 -7 L 4 -4.6 C 4 -4.434 4.067 -4.285 4.176 -4.176 L 7 -7 L 7 -7 L 7 -41 L 65 -41 L 65 -44 Z" fill="#dddddd"/>
<path d="M 65 -43 L 65 -41 L 66.883 -42.883 C 66.811 -42.955 66.71 -43 66.6 -43 Z M 5.4 -43 C 5.179 -43 5 -42.821 5 -42.6 L 5 -41 L 5 -7 L 5 -5.4 C 5 -5.29 5.045 -5.189 5.117 -5.117 L 7 -7 L 7 -7 L 7 -41 L 65 -41 L 65 -43 Z" fill="#eeeeee"/>
<path d="M 6.2 -42 C 6.089 -42 6 -41.911 6 -41.8 L 6 -41 L 6 -7 L 6 -6.2 C 6 -6.09 6.089 -6 6.2 -6 L 65 -6 L 65 -7 L 65 -7 L 65 -6 L 65.8 -6 C 65.91 -6 66 -6.09 66 -6.2 L 66 -7 L 66 -41 L 66 -41.8 C 66 -41.911 65.91 -42 65.8 -42 L 65 -42 L 65 -41 L 65 -41 L 65 -42 Z" fill="#cccccc"/>
<path d="M 67 -5.707 L 67 -5.4 C 67 -5.179 66.821 -5 66.6 -5 L 66.293 -5 L 69.244 -2.049 C 69.595 -2.14 69.86 -2.405 69.951 -2.756 L 67 -5.707 Z" fill="#555555"/>
<path d="M 69.244 -45.951 L 65.293 -42 L 65.8 -42 C 65.91 -42 66 -41.911 66 -41.8 L 66 -41.293 L 69.951 -45.244 C 69.905 -45.42 69.831 -45.583 69.707 -45.707 C 69.583 -45.832 69.42 -45.906 69.244 -45.951 Z M 66 -6.707 L 66 -6.2 C 66 -6.09 65.91 -6 65.8 -6 L 65.293 -6 L 66.293 -5 L 66.6 -5 C 66.821 -5 67 -5.179 67 -5.4 L 67 -5.707 L 66 -6.707 Z" fill="#777777"/>
<path d="M 2.756 -45.951 C 2.405 -45.86 2.14 -45.595 2.049 -45.244 L 6 -41.293 L 6 -41.8 C 6 -41.911 6.089 -42 6.2 -42 L 6.707 -42 L 2.756 -45.951 Z M 6 -6.707 L 2.049 -2.756 C 2.094 -2.58 2.168 -2.417 2.293 -2.293 C 2.417 -2.169 2.581 -2.095 2.756 -2.049 L 6.708 -6 L 6.2 -6 C 6.089 -6 6 -6.09 6 -6.2 L 6 -6.707 Z" fill="#eeeeee"/>
</g>
<g id="shape2">
<path d="M 3 -47 C 1.896 -47 1 -46.104 1 -45 L 1 -41 L 1 -7 L 1 -3 C 1 -1.896 1.896 -1 3 -1 L 353 -1 L 353 -7 L 7 -7 L 7 -41 L 353 -41 L 353 -47 Z M 353 -47 L 353 -41 L 353 -7 L 353 -1 L 357 -1 C 358.104 -1 359 -1.896 359 -3 L 359 -7 L 359 -41 L 359 -45 C 359 -46.104 358.104 -47 357 -47 Z" fill="#000000"/>
<path d="M 7 -7 L 2.293 -2.293 C 2.474 -2.112 2.724 -2 3 -2 L 353 -2 L 353 -7 Z M 357.707 -45.707 L 353 -41 L 353 -7 L 353 -2 L 357 -2 C 357.553 -2 358 -2.447 358 -3 L 358 -7 L 358 -41 L 358 -45 C 358 -45.276 357.888 -45.526 357.707 -45.707 Z" fill="#555555"/>
<path d="M 7 -7 L 3.234 -3.234 C 3.379 -3.09 3.579 -3 3.8 -3 L 353 -3 L 353 -7 Z M 356.766 -44.765 L 353 -41 L 353 -7 L 353 -3 L 356.2 -3 C 356.642 -3 357 -3.358 357 -3.8 L 357 -7 L 357 -41 L 357 -44.2 C 357 -44.421 356.91 -44.621 356.766 -44.765 Z" fill="#777777"/>
<path d="M 7 -7 L 4.176 -4.176 C 4.284 -4.067 4.435 -4 4.6 -4 L 353 -4 L 353 -7 Z M 355.824 -43.824 L 353 -41 L 353 -7 L 353 -4 L 355.4 -4 C 355.731 -4 356 -4.269 356 -4.6 L 356 -7 L 356 -41 L 356 -43.4 C 356 -43.566 355.933 -43.716 355.824 -43.824 Z" fill="#888888"/>
<path d="M 353 -46 L 353 -41 L 353 -7 L 353 -5 L 354.6 -5 C 354.821 -5 355 -5.179 355 -5.4 L 355 -7 L 355 -41 L 355 -42.6 C 355 -42.71 354.955 -42.81 354.883 -42.883 L 357.707 -45.707 C 357.526 -45.888 357.276 -46 357 -46 Z M 3 -46 C 2.448 -46 2 -45.552 2 -45 L 2 -41 L 2 -7 L 2 -3 C 2 -2.724 2.112 -2.474 2.293 -2.293 L 5.117 -5.117 C 5.189 -5.045 5.29 -5 5.4 -5 L 353 -5 L 353 -7 L 7 -7 L 7 -41 L 353 -41 L 353 -46 Z" fill="#aaaaaa"/>
<path d="M 353 -45 L 353 -41 L 356.766 -44.766 C 356.621 -44.91 356.421 -45 356.2 -45 Z M 3.8 -45 C 3.358 -45 3 -44.642 3 -44.2 L 3 -41 L 3 -7 L 3 -3.8 C 3 -3.579 3.09 -3.379 3.234 -3.235 L 7 -7 L 7 -7 L 7 -41 L 353 -41 L 353 -45 Z" fill="#bbbbbb"/>
<path d="M 353 -44 L 353 -41 L 355.824 -43.824 C 355.716 -43.933 355.566 -44 355.4 -44 Z M 4.6 -44 C 4.269 -44 4 -43.731 4 -43.4 L 4 -41 L 4 -7 L 4 -4.6 C 4 -4.434 4.067 -4.285 4.176 -4.176 L 7 -7 L 7 -7 L 7 -41 L 353 -41 L 353 -44 Z" fill="#dddddd"/>
<path d="M 353 -43 L 353 -41 L 354.883 -42.883 C 354.811 -42.955 354.71 -43 354.6 -43 Z M 5.4 -43 C 5.179 -43 5 -42.821 5 -42.6 L 5 -41 L 5 -7 L 5 -5.4 C 5 -5.29 5.045 -5.189 5.117 -5.117 L 7 -7 L 7 -7 L 7 -41 L 353 -41 L 353 -43 Z" fill="#eeeeee"/>
<path d="M 6.2 -42 C 6.089 -42 6 -41.911 6 -41.8 L 6 -41 L 6 -7 L 6 -6.2 C 6 -6.09 6.089 -6 6.2 -6 L 353 -6 L 353 -7 L 353 -7 L 353 -6 L 353.8 -6 C 353.91 -6 354 -6.09 354 -6.2 L 354 -7 L 354 -41 L 354 -41.8 C 354 -41.911 353.91 -42 353.8 -42 L 353 -42 L 353 -41 L 353 -41 L 353 -42 Z" fill="#cccccc"/>
<path d="M 355 -5.707 L 355 -5.4 C 355 -5.179 354.821 -5 354.6 -5 L 354.293 -5 L 357.244 -2.049 C 357.595 -2.14 357.86 -2.405 357.951 -2.756 L 355 -5.707 Z" fill="#555555"/>
<path d="M 357.244 -45.951 L 353.293 -42 L 353.8 -42 C 353.91 -42 354 -41.911 354 -41.8 L 354 -41.293 L 357.951 -45.244 C 357.905 -45.42 357.831 -45.583 357.707 -45.707 C 357.583 -45.832 357.42 -45.906 357.244 -45.951 Z M 354 -6.707 L 354 -6.2 C 354 -6.09 353.91 -6 353.8 -6 L 353.293 -6 L 354.293 -5 L 354.6 -5 C 354.821 -5 355 -5.179 355 -5.4 L 355 -5.707 L 354 -6.707 Z" fill="#777777"/>
<path d="M 2.756 -45.951 C 2.405 -45.86 2.14 -45.595 2.049 -45.244 L 6 -41.293 L 6 -41.8 C 6 -41.911 6.089 -42 6.2 -42 L 6.707 -42 L 2.756 -45.951 Z M 6 -6.707 L 2.049 -2.756 C 2.094 -2.58 2.168 -2.417 2.293 -2.293 C 2.417 -2.169 2.581 -2.095 2.756 -2.049 L 6.708 -6 L 6.2 -6 C 6.089 -6 6 -6.09 6 -6.2 L 6 -6.707 Z" fill="#eeeeee"/>
</g>
<g id="shape3">
<path d="M 89 -41 L 89 -7 L 7 -7 L 7 -41 Z M 3 -47 C 1.896 -47 1 -46.104 1 -45 L 1 -41 L 1 -7 L 1 -3 C 1 -1.896 1.896 -1 3 -1 L 93 -1 C 94.104 -1 95 -1.896 95 -3 L 95 -7 L 95 -41 L 95 -45 C 95 -46.104 94.104 -47 93 -47 Z" fill="#000000"/>
<path d="M 93.707 -45.707 L 89 -41 L 89 -7 L 7 -7 L 2.293 -2.293 C 2.474 -2.112 2.724 -2 3 -2 L 93 -2 C 93.553 -2 94 -2.447 94 -3 L 94 -7 L 94 -41 L 94 -45 C 94 -45.276 93.888 -45.526 93.707 -45.707 Z" fill="#555555"/>
<path d="M 92.766 -44.765 L 89 -41 L 89 -7 L 7 -7 L 3.234 -3.234 C 3.379 -3.09 3.579 -3 3.8 -3 L 92.2 -3 C 92.642 -3 93 -3.358 93 -3.8 L 93 -7 L 93 -41 L 93 -44.2 C 93 -44.421 92.91 -44.621 92.766 -44.765 Z" fill="#777777"/>
<path d="M 91.824 -43.824 L 89 -41 L 89 -7 L 7 -7 L 4.176 -4.176 C 4.284 -4.067 4.435 -4 4.6 -4 L 91.4 -4 C 91.731 -4 92 -4.269 92 -4.6 L 92 -7 L 92 -41 L 92 -43.4 C 92 -43.566 91.933 -43.716 91.824 -43.824 Z" fill="#888888"/>
<path d="M 89 -41 L 89 -7 L 7 -7 L 7 -41 Z M 3 -46 C 2.448 -46 2 -45.552 2 -45 L 2 -41 L 2 -7 L 2 -3 C 2 -2.724 2.112 -2.474 2.293 -2.293 L 5.117 -5.117 C 5.189 -5.045 5.29 -5 5.4 -5 L 90.6 -5 C 90.821 -5 91 -5.179 91 -5.4 L 91 -7 L 91 -41 L 91 -42.6 C 91 -42.71 90.955 -42.81 90.883 -42.883 L 93.707 -45.707 C 93.526 -45.888 93.276 -46 93 -46 Z" fill="#aaaaaa"/>
<path d="M 3.8 -45 C 3.358 -45 3 -44.642 3 -44.2 L 3 -41 L 3 -7 L 3 -3.8 C 3 -3.579 3.09 -3.379 3.234 -3.235 L 7 -7 L 7 -7 L 7 -41 L 89 -41 L 89 -41 L 92.766 -44.766 C 92.621 -44.91 92.421 -45 92.2 -45 Z" fill="#bbbbbb"/>
<path d="M 4.6 -44 C 4.269 -44 4 -43.731 4 -43.4 L 4 -41 L 4 -7 L 4 -4.6 C 4 -4.434 4.067 -4.285 4.176 -4.176 L 7 -7 L 7 -7 L 7 -41 L 89 -41 L 89 -41 L 91.824 -43.824 C 91.716 -43.933 91.566 -44 91.4 -44 Z" fill="#dddddd"/>
<path d="M 5.4 -43 C 5.179 -43 5 -42.821 5 -42.6 L 5 -41 L 5 -7 L 5 -5.4 C 5 -5.29 5.045 -5.189 5.117 -5.117 L 7 -7 L 7 -7 L 7 -41 L 89 -41 L 89 -41 L 90.883 -42.883 C 90.811 -42.955 90.71 -43 90.6 -43 Z" fill="#eeeeee"/>
<path d="M 6.2 -42 C 6.089 -42 6 -41.911 6 -41.8 L 6 -41 L 6 -7 L 6 -6.2 C 6 -6.09 6.089 -6 6.2 -6 L 89.8 -6 C 89.91 -6 90 -6.09 90 -6.2 L 90 -7 L 90 -41 L 90 -41.8 C 90 -41.911 89.91 -42 89.8 -42 Z" fill="#cccccc"/>
<path d="M 91 -5.707 L 91 -5.4 C 91 -5.179 90.821 -5 90.6 -5 L 90.293 -5 L 93.244 -2.049 C 93.595 -2.14 93.86 -2.405 93.951 -2.756 L 91 -5.707 Z" fill="#555555"/>
<path d="M 93.244 -45.951 L 89.293 -42 L 89.8 -42 C 89.91 -42 90 -41.911 90 -41.8 L 90 -41.293 L 93.951 -45.244 C 93.905 -45.42 93.831 -45.583 93.707 -45.707 C 93.583 -45.832 93.42 -45.906 93.244 -45.951 Z M 90 -6.707 L 90 -6.2 C 90 -6.09 89.91 -6 89.8 -6 L 89.293 -6 L 90.293 -5 L 90.6 -5 C 90.821 -5 91 -5.179 91 -5.4 L 91 -5.707 L 90 -6.707 Z" fill="#777777"/>
<path d="M 2.756 -45.951 C 2.405 -45.86 2.14 -45.595 2.049 -45.244 L 6 -41.293 L 6 -41.8 C 6 -41.911 6.089 -42 6.2 -42 L 6.707 -42 L 2.756 -45.951 Z M 6 -6.707 L 2.049 -2.756 C 2.094 -2.58 2.168 -2.417 2.293 -2.293 C 2.417 -2.169 2.581 -2.095 2.756 -2.049 L 6.708 -6 L 6.2 -6 C 6.089 -6 6 -6.09 6 -6.2 L 6 -6.707 Z" fill="#eeeeee"/>
</g>
<g id="shape4">
<path d="M 41 -89 L 41 -7 L 7 -7 L 7 -89 Z M 3 -95 C 1.896 -95 1 -94.104 1 -93 L 1 -89 L 1 -7 L 1 -3 C 1 -1.896 1.896 -1 3 -1 L 45 -1 C 46.104 -1 47 -1.896 47 -3 L 47 -7 L 47 -89 L 47 -93 C 47 -94.104 46.104 -95 45 -95 Z" fill="#000000"/>
<path d="M 45.707 -93.707 L 41 -89 L 41 -7 L 7 -7 L 2.293 -2.293 C 2.474 -2.112 2.724 -2 3 -2 L 45 -2 C 45.553 -2 46 -2.447 46 -3 L 46 -7 L 46 -89 L 46 -93 C 46 -93.276 45.888 -93.526 45.707 -93.707 Z" fill="#555555"/>
<path d="M 44.766 -92.765 L 41 -89 L 41 -7 L 7 -7 L 3.234 -3.234 C 3.379 -3.09 3.579 -3 3.8 -3 L 44.2 -3 C 44.642 -3 45 -3.358 45 -3.8 L 45 -7 L 45 -89 L 45 -92.2 C 45 -92.421 44.91 -92.621 44.766 -92.765 Z" fill="#777777"/>
<path d="M 43.824 -91.824 L 41 -89 L 41 -7 L 7 -7 L 4.176 -4.176 C 4.284 -4.067 4.435 -4 4.6 -4 L 43.4 -4 C 43.731 -4 44 -4.269 44 -4.6 L 44 -7 L 44 -89 L 44 -91.4 C 44 -91.566 43.933 -91.716 43.824 -91.824 Z" fill="#888888"/>
<path d="M 41 -89 L 41 -7 L 7 -7 L 7 -89 Z M 3 -94 C 2.448 -94 2 -93.552 2 -93 L 2 -89 L 2 -7 L 2 -3 C 2 -2.724 2.112 -2.474 2.293 -2.293 L 5.117 -5.117 C 5.189 -5.045 5.29 -5 5.4 -5 L 42.6 -5 C 42.821 -5 43 -5.179 43 -5.4 L 43 -7 L 43 -89 L 43 -90.6 C 43 -90.71 42.955 -90.81 42.883 -90.883 L 45.707 -93.707 C 45.526 -93.888 45.276 -94 45 -94 Z" fill="#aaaaaa"/>
<path d="M 3.8 -93 C 3.358 -93 3 -92.642 3 -92.2 L 3 -89 L 3 -7 L 3 -3.8 C 3 -3.579 3.09 -3.379 3.234 -3.235 L 7 -7 L 7 -7 L 7 -89 L 41 -89 L 41 -89 L 44.766 -92.766 C 44.621 -92.91 44.421 -93 44.2 -93 Z" fill="#bbbbbb"/>
<path d="M 4.6 -92 C 4.269 -92 4 -91.731 4 -91.4 L 4 -89 L 4 -7 L 4 -4.6 C 4 -4.434 4.067 -4.285 4.176 -4.176 L 7 -7 L 7 -7 L 7 -89 L 41 -89 L 41 -89 L 43.824 -91.824 C 43.716 -91.933 43.566 -92 43.4 -92 Z" fill="#dddddd"/>
<path d="M 5.4 -91 C 5.179 -91 5 -90.821 5 -90.6 L 5 -89 L 5 -7 L 5 -5.4 C 5 -5.29 5.045 -5.189 5.117 -5.117 L 7 -7 L 7 -7 L 7 -89 L 41 -89 L 41 -89 L 42.883 -90.883 C 42.811 -90.955 42.71 -91 42.6 -91 Z" fill="#eeeeee"/>
<path d="M 6.2 -90 C 6.089 -90 6 -89.911 6 -89.8 L 6 -89 L 6 -7 L 6 -6.2 C 6 -6.09 6.089 -6 6.2 -6 L 41.8 -6 C 41.91 -6 42 -6.09 42 -6.2 L 42 -7 L 42 -89 L 42 -89.8 C 42 -89.911 41.91 -90 41.8 -90 Z" fill="#cccccc"/>
<path d="M 43 -5.707 L 43 -5.4 C 43 -5.179 42.821 -5 42.6 -5 L 42.293 -5 L 45.244 -2.049 C 45.595 -2.14 45.86 -2.405 45.951 -2.756 L 43 -5.707 Z" fill="#555555"/>
<path d="M 45.244 -93.951 L 41.293 -90 L 41.8 -90 C 41.91 -90 42 -89.911 42 -89.8 L 42 -89.293 L 45.951 -93.244 C 45.905 -93.42 45.831 -93.583 45.707 -93.707 C 45.583 -93.832 45.42 -93.906 45.244 -93.951 Z M 42 -6.707 L 42 -6.2 C 42 -6.09 41.91 -6 41.8 -6 L 41.293 -6 L 42.293 -5 L 42.6 -5 C 42.821 -5 43 -5.179 43 -5.4 L 43 -5.707 L 42 -6.707 Z" fill="#777777"/>
<path d="M 2.756 -93.951 C 2.405 -93.86 2.14 -93.595 2.049 -93.244 L 6 -89.293 L 6 -89.8 C 6 -89.911 6.089 -90 6.2 -90 L 6.707 -90 L 2.756 -93.951 Z M 6 -6.707 L 2.049 -2.756 C 2.094 -2.58 2.168 -2.417 2.293 -2.293 C 2.417 -2.169 2.581 -2.095 2.756 -2.049 L 6.708 -6 L 6.2 -6 C 6.089 -6 6 -6.09 6 -6.2 L 6 -6.707 Z" fill="#eeeeee"/>
</g>
<g id="shape5">
<path d="M 101 -41 L 101 -7 L 7 -7 L 7 -41 Z M 3 -47 C 1.896 -47 1 -46.104 1 -45 L 1 -41 L 1 -7 L 1 -3 C 1 -1.896 1.896 -1 3 -1 L 105 -1 C 106.104 -1 107 -1.896 107 -3 L 107 -7 L 107 -41 L 107 -45 C 107 -46.104 106.104 -47 105 -47 Z" fill="#000000"/>
<path d="M 105.707 -45.707 L 101 -41 L 101 -7 L 7 -7 L 2.293 -2.293 C 2.474 -2.112 2.724 -2 3 -2 L 105 -2 C 105.553 -2 106 -2.447 106 -3 L 106 -7 L 106 -41 L 106 -45 C 106 -45.276 105.888 -45.526 105.707 -45.707 Z" fill="#555555"/>
<path d="M 104.766 -44.765 L 101 -41 L 101 -7 L 7 -7 L 3.234 -3.234 C 3.379 -3.09 3.579 -3 3.8 -3 L 104.2 -3 C 104.642 -3 105 -3.358 105 -3.8 L 105 -7 L 105 -41 L 105 -44.2 C 105 -44.421 104.91 -44.621 104.766 -44.765 Z" fill="#777777"/>
<path d="M 103.824 -43.824 L 101 -41 L 101 -7 L 7 -7 L 4.176 -4.176 C 4.284 -4.067 4.435 -4 4.6 -4 L 103.4 -4 C 103.731 -4 104 -4.269 104 -4.6 L 104 -7 L 104 -41 L 104 -43.4 C 104 -43.566 103.933 -43.716 103.824 -43.824 Z" fill="#888888"/>
<path d="M 101 -41 L 101 -7 L 7 -7 L 7 -41 Z M 3 -46 C 2.448 -46 2 -45.552 2 -45 L 2 -41 L 2 -7 L 2 -3 C 2 -2.724 2.112 -2.474 2.293 -2.293 L 5.117 -5.117 C 5.189 -5.045 5.29 -5 5.4 -5 L 102.6 -5 C 102.821 -5 103 -5.179 103 -5.4 L 103 -7 L 103 -41 L 103 -42.6 C 103 -42.71 102.955 -42.81 102.883 -42.883 L 105.707 -45.707 C 105.526 -45.888 105.276 -46 105 -46 Z" fill="#aaaaaa"/>
<path d="M 3.8 -45 C 3.358 -45 3 -44.642 3 -44.2 L 3 -41 L 3 -7 L 3 -3.8 C 3 -3.579 3.09 -3.379 3.234 -3.235 L 7 -7 L 7 -7 L 7 -41 L 101 -41 L 101 -41 L 104.766 -44.766 C 104.621 -44.91 104.421 -45 104.2 -45 Z" fill="#bbbbbb"/>
<path d="M 4.6 -44 C 4.269 -44 4 -43.731 4 -43.4 L 4 -41 L 4 -7 L 4 -4.6 C 4 -4.434 4.067 -4.285 4.176 -4.176 L 7 -7 L 7 -7 L 7 -41 L 101 -41 L 101 -41 L 103.824 -43.824 C 103.716 -43.933 103.566 -44 103.4 -44 Z" fill="#dddddd"/>
<path d="M 5.4 -43 C 5.179 -43 5 -42.821 5 -42.6 L 5 -41 L 5 -7 L 5 -5.4 C 5 -5.29 5.045 -5.189 5.117 -5.117 L 7 -7 L 7 -7 L 7 -41 L 101 -41 L 101 -41 L 102.883 -42.883 C 102.811 -42.955 102.71 -43 102.6 -43 Z" fill="#eeeeee"/>
<path d="M 6.2 -42 C 6.089 -42 6 -41.911 6 -41.8 L 6 -41 L 6 -7 L 6 -6.2 C 6 -6.09 6.089 -6 6.2 -6 L 101.8 -6 C 101.91 -6 102 -6.09 102 -6.2 L 102 -7 L 102 -41 L 102 -41.8 C 102 -41.911 101.91 -42 101.8 -42 Z" fill="#cccccc"/>
<path d="M 103 -5.707 L 103 -5.4 C 103 -5.179 102.821 -5 102.6 -5 L 102.293 -5 L 105.244 -2.049 C 105.595 -2.14 105.86 -2.405 105.951 -2.756 L 103 -5.707 Z" fill="#555555"/>
<path d="M 105.244 -45.951 L 101.293 -42 L 101.8 -42 C 101.91 -42 102 -41.911 102 -41.8 L 102 -41.293 L 105.951 -45.244 C 105.905 -45.42 105.831 -45.583 105.707 -45.707 C 105.583 -45.832 105.42 -45.906 105.244 -45.951 Z M 102 -6.707 L 102 -6.2 C 102 -6.09 101.91 -6 101.8 -6 L 101.293 -6 L 102.293 -5 L 102.6 -5 C 102.821 -5 103 -5.179 103 -5.4 L 103 -5.707 L 102 -6.707 Z" fill="#777777"/>
<path d="M 2.756 -45.951 C 2.405 -45.86 2.14 -45.595 2.049 -45.244 L 6 -41.293 L 6 -41.8 C 6 -41.911 6.089 -42 6.2 -42 L 6.707 -42 L 2.756 -45.951 Z M 6 -6.707 L 2.049 -2.756 C 2.094 -2.58 2.168 -2.417 2.293 -2.293 C 2.417 -2.169 2.581 -2.095 2.756 -2.049 L 6.708 -6 L 6.2 -6 C 6.089 -6 6 -6.09 6 -6.2 L 6 -6.707 Z" fill="#eeeeee"/>
</g>
<g id="shape6">
<path d="M 77 -41 L 77 -7 L 7 -7 L 7 -41 Z M 3 -47 C 1.896 -47 1 -46.104 1 -45 L 1 -41 L 1 -7 L 1 -3 C 1 -1.896 1.896 -1 3 -1 L 81 -1 C 82.104 -1 83 -1.896 83 -3 L 83 -7 L 83 -41 L 83 -45 C 83 -46.104 82.104 -47 81 -47 Z" fill="#000000"/>
<path d="M 81.707 -45.707 L 77 -41 L 77 -7 L 7 -7 L 2.293 -2.293 C 2.474 -2.112 2.724 -2 3 -2 L 81 -2 C 81.553 -2 82 -2.447 82 -3 L 82 -7 L 82 -41 L 82 -45 C 82 -45.276 81.888 -45.526 81.707 -45.707 Z" fill="#555555"/>
<path d="M 80.766 -44.765 L 77 -41 L 77 -7 L 7 -7 L 3.234 -3.234 C 3.379 -3.09 3.579 -3 3.8 -3 L 80.2 -3 C 80.642 -3 81 -3.358 81 -3.8 L 81 -7 L 81 -41 L 81 -44.2 C 81 -44.421 80.91 -44.621 80.766 -44.765 Z" fill="#777777"/>
<path d="M 79.824 -43.824 L 77 -41 L 77 -7 L 7 -7 L 4.176 -4.176 C 4.284 -4.067 4.435 -4 4.6 -4 L 79.4 -4 C 79.731 -4 80 -4.269 80 -4.6 L 80 -7 L 80 -41 L 80 -43.4 C 80 -43.566 79.933 -43.716 79.824 -43.824 Z" fill="#888888"/>
<path d="M 77 -41 L 77 -7 L 7 -7 L 7 -41 Z M 3 -46 C 2.448 -46 2 -45.552 2 -45 L 2 -41 L 2 -7 L 2 -3 C 2 -2.724 2.112 -2.474 2.293 -2.293 L 5.117 -5.117 C 5.189 -5.045 5.29 -5 5.4 -5 L 78.6 -5 C 78.821 -5 79 -5.179 79 -5.4 L 79 -7 L 79 -41 L 79 -42.6 C 79 -42.71 78.955 -42.81 78.883 -42.883 L 81.707 -45.707 C 81.526 -45.888 81.276 -46 81 -46 Z" fill="#aaaaaa"/>
<path d="M 3.8 -45 C 3.358 -45 3 -44.642 3 -44.2 L 3 -41 L 3 -7 L 3 -3.8 C 3 -3.579 3.09 -3.379 3.234 -3.235 L 7 -7 L 7 -7 L 7 -41 L 77 -41 L 80.766 -44.766 C 80.621 -44.91 80.421 -45 80.2 -45 Z" fill="#bbbbbb"/>
<path d="M 4.6 -44 C 4.269 -44 4 -43.731 4 -43.4 L 4 -41 L 4 -7 L 4 -4.6 C 4 -4.434 4.067 -4.285 4.176 -4.176 L 7 -7 L 7 -7 L 7 -41 L 77 -41 L 79.824 -43.824 C 79.716 -43.933 79.566 -44 79.4 -44 Z" fill="#dddddd"/>
<path d="M 5.4 -43 C 5.179 -43 5 -42.821 5 -42.6 L 5 -41 L 5 -7 L 5 -5.4 C 5 -5.29 5.045 -5.189 5.117 -5.117 L 7 -7 L 7 -7 L 7 -41 L 77 -41 L 78.883 -42.883 C 78.811 -42.955 78.71 -43 78.6 -43 Z" fill="#eeeeee"/>
<path d="M 6.2 -42 C 6.089 -42 6 -41.911 6 -41.8 L 6 -41 L 6 -7 L 6 -6.2 C 6 -6.09 6.089 -6 6.2 -6 L 77.8 -6 C 77.91 -6 78 -6.09 78 -6.2 L 78 -7 L 78 -41 L 78 -41.8 C 78 -41.911 77.91 -42 77.8 -42 Z" fill="#cccccc"/>
<path d="M 79 -5.707 L 79 -5.4 C 79 -5.179 78.821 -5 78.6 -5 L 78.293 -5 L 81.244 -2.049 C 81.595 -2.14 81.86 -2.405 81.951 -2.756 L 79 -5.707 Z" fill="#555555"/>
<path d="M 81.244 -45.951 L 77.293 -42 L 77.8 -42 C 77.91 -42 78 -41.911 78 -41.8 L 78 -41.293 L 81.951 -45.244 C 81.905 -45.42 81.831 -45.583 81.707 -45.707 C 81.583 -45.832 81.42 -45.906 81.244 -45.951 Z M 78 -6.707 L 78 -6.2 C 78 -6.09 77.91 -6 77.8 -6 L 77.293 -6 L 78.293 -5 L 78.6 -5 C 78.821 -5 79 -5.179 79 -5.4 L 79 -5.707 L 78 -6.707 Z" fill="#777777"/>
<path d="M 2.756 -45.951 C 2.405 -45.86 2.14 -45.595 2.049 -45.244 L 6 -41.293 L 6 -41.8 C 6 -41.911 6.089 -42 6.2 -42 L 6.707 -42 L 2.756 -45.951 Z M 6 -6.707 L 2.049 -2.756 C 2.094 -2.58 2.168 -2.417 2.293 -2.293 C 2.417 -2.169 2.581 -2.095 2.756 -2.049 L 6.708 -6 L 6.2 -6 C 6.089 -6 6 -6.09 6 -6.2 L 6 -6.707 Z" fill="#eeeeee"/>
</g>
<path id="path0" d="M 0.424 0.249 c 0.041 0.012 0.068 0.018 0.082 0.018 c 0.018 0 0.046 -0.007 0.086 -0.021 s 0.074 -0.021 0.104 -0.021 c 0.048 0 0.091 0.013 0.129 0.039 C 0.845 0.28 0.867 0.3 0.887 0.325 c -0.031 0.026 -0.055 0.05 -0.068 0.071 c -0.026 0.038 -0.04 0.079 -0.04 0.124 c 0 0.05 0.015 0.095 0.042 0.134 c 0.027 0.04 0.06 0.065 0.095 0.076 C 0.901 0.778 0.876 0.828 0.842 0.88 C 0.79 0.959 0.739 0.998 0.687 0.998 c -0.021 0 -0.048 -0.006 -0.084 -0.019 c -0.035 -0.013 -0.065 -0.02 -0.09 -0.02 S 0.459 0.966 0.428 0.98 C 0.396 0.993 0.37 1 0.35 1 C 0.289 1 0.23 0.948 0.172 0.844 C 0.114 0.742 0.084 0.641 0.084 0.542 c 0 -0.092 0.022 -0.167 0.067 -0.225 C 0.196 0.26 0.252 0.231 0.319 0.231 C 0.348 0.231 0.383 0.237 0.424 0.249 z M 0.689 0.014 c 0 0.004 0.001 0.008 0.001 0.012 c 0 0.025 -0.006 0.052 -0.018 0.082 C 0.661 0.137 0.642 0.165 0.617 0.19 C 0.594 0.211 0.573 0.226 0.551 0.233 C 0.538 0.237 0.517 0.241 0.49 0.243 c 0 -0.06 0.016 -0.111 0.046 -0.154 C 0.566 0.046 0.616 0.016 0.686 0 C 0.688 0.005 0.689 0.01 0.689 0.014 z"/>
<path id="path1" d="M 1 0.188 v 0.623 c 0 0.018 -0.015 0.033 -0.033 0.033 H 0.655 c -0.018 0 -0.032 -0.016 -0.032 -0.033 c 0 -0.019 0.015 -0.033 0.032 -0.033 h 0.279 V 0.222 H 0.065 v 0.557 h 0.279 c 0.018 0 0.032 0.015 0.032 0.033 c 0 0.018 -0.015 0.033 -0.032 0.033 H 0.033 C 0.015 0.845 0 0.829 0 0.812 V 0.188 c 0 -0.018 0.015 -0.033 0.033 -0.033 h 0.934 C 0.985 0.155 1 0.171 1 0.188 z M 0.683 0.325 C 0.676 0.316 0.666 0.312 0.655 0.312 H 0.345 c -0.011 0 -0.021 0.005 -0.027 0.014 C 0.312 0.334 0.31 0.345 0.313 0.354 l 0.155 0.468 C 0.474 0.835 0.486 0.845 0.5 0.845 s 0.026 -0.01 0.031 -0.022 l 0.155 -0.468 C 0.69 0.345 0.688 0.334 0.683 0.325 z"/>
<path id="path2" d="M 1 0.188 v 0.623 c 0 0.018 -0.015 0.033 -0.033 0.033 H 0.033 C 0.015 0.845 0 0.829 0 0.812 V 0.188 c 0 -0.018 0.015 -0.033 0.033 -0.033 h 0.312 c 0.018 0 0.033 0.016 0.033 0.033 c 0 0.019 -0.015 0.033 -0.033 0.033 H 0.066 v 0.557 h 0.868 V 0.222 H 0.656 c -0.018 0 -0.033 -0.015 -0.033 -0.033 c 0 -0.018 0.015 -0.033 0.033 -0.033 h 0.312 C 0.985 0.155 1 0.171 1 0.188 z M 0.317 0.675 c 0.006 0.009 0.016 0.014 0.027 0.014 h 0.312 h 0 c 0.018 0 0.033 -0.015 0.033 -0.033 c 0 -0.005 -0.001 -0.011 -0.004 -0.015 L 0.531 0.178 C 0.527 0.165 0.514 0.155 0.5 0.155 s -0.027 0.01 -0.031 0.022 L 0.313 0.646 C 0.31 0.655 0.312 0.666 0.317 0.675 z"/>
<path id="path3" d="M 1 0.188 v 0.623 C 1 0.83 0.985 0.844 0.967 0.844 H 0.033 C 0.015 0.844 0 0.83 0 0.812 V 0.656 c 0 -0.018 0.015 -0.033 0.033 -0.033 s 0.033 0.015 0.033 0.033 v 0.123 h 0.868 V 0.222 H 0.066 v 0.123 c 0 0.018 -0.015 0.033 -0.033 0.033 S 0 0.362 0 0.344 V 0.188 C 0 0.17 0.015 0.156 0.033 0.156 h 0.935 C 0.985 0.156 1 0.17 1 0.188 z M 0.595 0.688 c 0.003 0 0.006 0.001 0.009 0.001 c 0.007 0 0.014 -0.002 0.02 -0.007 c 0.008 -0.006 0.013 -0.016 0.013 -0.026 V 0.344 c 0 -0.01 -0.005 -0.02 -0.013 -0.026 C 0.616 0.312 0.605 0.31 0.595 0.313 L 0.024 0.468 C 0.01 0.472 0 0.485 0 0.5 s 0.01 0.028 0.024 0.032 L 0.595 0.688 z"/>
<path id="path4" d="M 1 0.188 v 0.156 c 0 0.018 -0.015 0.033 -0.033 0.033 c -0.018 0 -0.032 -0.015 -0.032 -0.033 V 0.222 H 0.065 v 0.557 h 0.869 V 0.656 c 0 -0.018 0.015 -0.033 0.032 -0.033 C 0.985 0.623 1 0.638 1 0.656 v 0.156 C 1 0.83 0.985 0.844 0.967 0.844 H 0.033 C 0.015 0.844 0 0.83 0 0.812 V 0.188 C 0 0.17 0.015 0.156 0.033 0.156 h 0.934 C 0.985 0.156 1 0.17 1 0.188 z M 0.405 0.313 c -0.011 -0.002 -0.021 0 -0.029 0.006 C 0.368 0.324 0.363 0.334 0.363 0.344 v 0.312 c 0 0.01 0.005 0.02 0.013 0.026 c 0.006 0.004 0.013 0.007 0.021 0.007 c 0.003 0 0.006 0 0.009 -0.001 l 0.57 -0.156 C 0.99 0.528 1 0.515 1 0.5 S 0.99 0.472 0.976 0.468 L 0.405 0.313 z"/>
</defs>
<g class="keyboard">
<g class="key">
<use xlink:href="#shape0" transform="translate(48 0)"/>
<text x="72" y="-20.6" text-anchor="middle" font-family="Arial" font-size="11.333" fill="#000000">option</text>
</g>
<g class="key">
<use xlink:href="#shape1" transform="translate(96 0)"/>
<use xlink:href="#path0" transform="translate(126.333 -29.667) scale(11.333 11.333)" fill="#000000"/>
</g>
<g class="key">
<use xlink:href="#shape2" transform="translate(168 0)"/>
</g>
<g class="key">
<use xlink:href="#shape1" transform="translate(528 0)"/>
<text x="564" y="-20.6" text-anchor="middle" font-family="Arial" font-size="11.333" fill="#000000">enter</text>
</g>
<g class="key">
<use xlink:href="#shape0" transform="translate(600 0)"/>
<text x="624" y="-20.6" text-anchor="middle" font-family="Arial" font-size="11.333" fill="#000000">option</text>
</g>
<g class="key">
<use xlink:href="#shape3" transform="translate(792 0)"/>
<text x="840" y="-18.9" text-anchor="middle" font-family="Arial" font-size="17" fill="#000000">0</text>
</g>
<g class="key">
<use xlink:href="#shape0" transform="translate(888 0)"/>
<text x="912" y="-18.9" text-anchor="middle" font-family="Arial" font-size="17" fill="#000000">.</text>
</g>
<g class="key">
<use xlink:href="#shape4" transform="translate(936 0)"/>
<text x="960" y="-44.6" text-anchor="middle" font-family="Arial" font-size="11.333" fill="#000000">enter</text>
</g>
<g class="key">
<use xlink:href="#shape5" transform="translate(0 -48)"/>
<text x="54" y="-68.6" text-anchor="middle" font-family="Arial" font-size="11.333" fill="#000000">shift</text>
</g>
<g class="key">
<use xlink:href="#shape0" transform="translate(108 -48)"/>
<text x="132" y="-66.9" text-anchor="middle" font-family="Arial" font-size="17" fill="#000000">Z</text>
</g>
<g class="key">
<use xlink:href="#shape0" transform="translate(156 -48)"/>
<text x="180" y="-66.9" text-anchor="middle" font-family="Arial" font-size="17" fill="#000000">X</text>
</g>
<g class="key">
<use xlink:href="#shape0" transform="translate(204 -48)"/>
<text x="228" y="-66.9" text-anchor="middle" font-family="Arial" font-size="17" fill="#000000">C</text>
</g>
<g class="key">
<use xlink:href="#shape0" transform="translate(252 -48)"/>
<text x="276" y="-66.9" text-anchor="middle" font-family="Arial" font-size="17" fill="#000000">V</text>
</g>
<g class="key">
<use xlink:href="#shape0" transform="translate(300 -48)"/>
<text x="324" y="-66.9" text-anchor="middle" font-family="Arial" font-size="17" fill="#000000">B</text>
</g>
<g class="key">
<use xlink:href="#shape0" transform="translate(348 -48)"/>
<text x="372" y="-66.9" text-anchor="middle" font-family="Arial" font-size="17" fill="#000000">N</text>
</g>
<g class="key">
<use xlink:href="#shape0" transform="translate(396 -48)"/>
<text x="420" y="-66.9" text-anchor="middle" font-family="Arial" font-size="17" fill="#000000">M</text>
</g>
<g class="key">
<use xlink:href="#shape0" transform="translate(444 -48)"/>
<text x="468" y="-59.42" text-anchor="middle" font-family="Arial" font-size="13.6" fill="#000000">,</text>
<text x="468" y="-76.42" text-anchor="middle" font-family="Arial" font-size="13.6" fill="#000000">&lt;</text>
</g>
<g class="key">
<use xlink:href="#shape0" transform="translate(492 -48)"/>
<text x="516" y="-59.42" text-anchor="middle" font-family="Arial" font-size="13.6" fill="#000000">.</text>
<text x="516" y="-76.42" text-anchor="middle" font-family="Arial" font-size="13.6" fill="#000000">&gt;</text>
</g>
<g class="key">
<use xlink:href="#shape0" transform="translate(540 -48)"/>
<text x="564" y="-59.42" text-anchor="middle" font-family="Arial" font-size="13.6" fill="#000000">/</text>
<text x="564" y="-76.42" text-anchor="middle" font-family="Arial" font-size="13.6" fill="#000000">?</text>
</g>
<g class="key">
<use xlink:href="#shape5" transform="translate(588 -48)"/>
<text x="642" y="-68.6" text-anchor="middle" font-family="Arial" font-size="11.333" fill="#000000">shift</text>
</g>
<g class="key">
<use xlink:href="#shape0" transform="translate(792 -48)"/>
<text x="816" y="-66.9" text-anchor="middle" font-family="Arial" font-size="17" fill="#000000">1</text>
</g>
<g class="key">
<use xlink:href="#shape0" transform="translate(840 -48)"/>
<text x="864" y="-66.9" text-anchor="middle" font-family="Arial" font-size="17" fill="#000000">2</text>
</g>
<g class="key">
<use xlink:href="#shape0" transform="translate(888 -48)"/>
<text x="912" y="-66.9" text-anchor="middle" font-family="Arial" font-size="17" fill="#000000">3</text>
</g>
<g class="key">
<use xlink:href="#shape6" transform="translate(0 -96)"/>
<text x="42" y="-116.6" text-anchor="middle" font-family="Arial" font-size="11.333" fill="#000000">caps lock</text>
</g>
<g class="key">
<use xlink:href="#shape0" transform="translate(84 -96)"/>
<text x="108" y="-114.9" text-anchor="middle" font-family="Arial" font-size="17" fill="#000000">A</text>
</g>
<g class="key">
<use xlink:href="#shape0" transform="translate(132 -96)"/>
<text x="156" y="-114.9" text-anchor="middle" font-family="Arial" font-size="17" fill="#000000">S</text>
</g>
<g class="key">
<use xlink:href="#shape0" transform="translate(180 -96)"/>
<text x="204" y="-114.9" text-anchor="middle" font-family="Arial" font-size="17" fill="#000000">D</text>
</g>
<g class="key">
<use xlink:href="#shape0" transform="translate(228 -96)"/>
<text x="252" y="-114.9" text-anchor="middle" font-family="Arial" font-size="17" fill="#000000">F</text>
</g>
<g class="key">
<use xlink:href="#shape0" transform="translate(276 -96)"/>
<text x="300" y="-114.9" text-anchor="middle" font-family="Arial" font-size="17" fill="#000000">G</text>
</g>
<g class="key">
<use xlink:href="#shape0" transform="translate(324 -96)"/>
<text x="348" y="-114.9" text-anchor="middle" font-family="Arial" font-size="17" fill="#000000">H</text>
</g>
<g class="key">
<use xlink:href="#shape0" transform="translate(372 -96)"/>
<text x="396" y="-114.9" text-anchor="middle" font-family="Arial" font-size="17" fill="#000000">J</text>
</g>
<g class="key">
<use xlink:href="#shape0" transform="translate(420 -96)"/>
<text x="444" y="-114.9" text-anchor="middle" font-family="Arial" font-size="17" fill="#000000">K</text>
</g>
<g class="key">
<use xlink:href="#shape0" transform="translate(468 -96)"/>
<text x="492" y="-114.9" text-anchor="middle" font-family="Arial" font-size="17" fill="#000000">L</text>
</g>
<g class="key">
<use xlink:href="#shape0" transform="translate(516 -96)"/>
<text x="540" y="-107.42" text-anchor="middle" font-family="Arial" font-size="13.6" fill="#000000">;</text>
<text x="540" y="-124.42" text-anchor="middle" font-family="Arial" font-size="13.6" fill="#000000">:</text>
</g>
<g class="key">
<use xlink:href="#shape0" transform="translate(564 -96)"/>
<text x="588" y="-107.42" text-anchor="middle" font-family="Arial" font-size="13.6" fill="#000000">&#39;</text>
<text x="588" y="-124.42" text-anchor="middle" font-family="Arial" font-size="13.6" fill="#000000">&#34;</text>
</g>
<g class="key">
<use xlink:href="#shape6" transform="translate(612 -96)"/>
<text x="654" y="-116.6" text-anchor="middle" font-family="Arial" font-size="11.333" fill="#000000">return</text>
</g>
<g class="key">
<use xlink:href="#shape0" transform="translate(792 -96)"/>
<text x="816" y="-114.9" text-anchor="middle" font-family="Arial" font-size="17" fill="#000000">4</text>
</g>
<g class="key">
<use xlink:href="#shape0" transform="translate(840 -96)"/>
<text x="864" y="-114.9" text-anchor="middle" font-family="Arial" font-size="17" fill="#000000">5</text>
</g>
<g class="key">
<use xlink:href="#shape0" transform="translate(888 -96)"/>
<text x="912" y="-114.9" text-anchor="middle" font-family="Arial" font-size="17" fill="#000000">6</text>
</g>
<g class="key">
<use xlink:href="#shape0" transform="translate(936 -96)"/>
<text x="960" y="-121.7" text-anchor="middle" font-family="Arial" font-size="17" fill="#000000">,</text>
<use xlink:href="#path1" transform="translate(954.333 -115.467) scale(11.333 11.333)" fill="#000000"/>
</g>
<g class="key">
<use xlink:href="#shape1" transform="translate(0 -144)"/>
<text x="36" y="-164.6" text-anchor="middle" font-family="Arial" font-size="11.333" fill="#000000">tab</text>
</g>
<g class="key">
<use xlink:href="#shape0" transform="translate(72 -144)"/>
<text x="96" y="-162.9" text-anchor="middle" font-family="Arial" font-size="17" fill="#000000">Q</text>
</g>
<g class="key">
<use xlink:href="#shape0" transform="translate(120 -144)"/>
<text x="144" y="-162.9" text-anchor="middle" font-family="Arial" font-size="17" fill="#000000">W</text>
</g>
<g class="key">
<use xlink:href="#shape0" transform="translate(168 -144)"/>
<text x="192" y="-162.9" text-anchor="middle" font-family="Arial" font-size="17" fill="#000000">E</text>
</g>
<g class="key">
<use xlink:href="#shape0" transform="translate(216 -144)"/>
<text x="240" y="-162.9" text-anchor="middle" font-family="Arial" font-size="17" fill="#000000">R</text>
</g>
<g class="key">
<use xlink:href="#shape0" transform="translate(264 -144)"/>
<text x="288" y="-162.9" text-anchor="middle" font-family="Arial" font-size="17" fill="#000000">T</text>
</g>
<g class="key">
<use xlink:href="#shape0" transform="translate(312 -144)"/>
<text x="336" y="-162.9" text-anchor="middle" font-family="Arial" font-size="17" fill="#000000">Y</text>
</g>
<g class="key">
<use xlink:href="#shape0" transform="translate(360 -144)"/>
<text x="384" y="-162.9" text-anchor="middle" font-family="Arial" font-size="17" fill="#000000">U</text>
</g>
<g class="key">
<use xlink:href="#shape0" transform="translate(408 -144)"/>
<text x="432" y="-162.9" text-anchor="middle" font-family="Arial" font-size="17" fill="#000000">I</text>
</g>
<g class="key">
<use xlink:href="#shape0" transform="translate(456 -144)"/>
<text x="480" y="-162.9" text-anchor="middle" font-family="Arial" font-size="17" fill="#000000">O</text>
</g>
<g class="key">
<use xlink:href="#shape0" transform="translate(504 -144)"/>
<text x="528" y="-162.9" text-anchor="middle" font-family="Arial" font-size="17" fill="#000000">P</text>
</g>
<g class="key">
<use xlink:href="#shape0" transform="translate(552 -144)"/>
<text x="576" y="-155.42" text-anchor="middle" font-family="Arial" font-size="13.6" fill="#000000">[</text>
<text x="576" y="-172.42" text-anchor="middle" font-family="Arial" font-size="13.6" fill="#000000">{</text>
</g>
<g class="key">
<use xlink:href="#shape0" transform="translate(600 -144)"/>
<text x="624" y="-155.42" text-anchor="middle" font-family="Arial" font-size="13.6" fill="#000000">]</text>
<text x="624" y="-172.42" text-anchor="middle" font-family="Arial" font-size="13.6" fill="#000000">}</text>
</g>
<g class="key">
<use xlink:href="#shape0" transform="translate(648 -144)"/>
<text x="672" y="-155.42" text-anchor="middle" font-family="Arial" font-size="13.6" fill="#000000">\</text>
<text x="672" y="-172.42" text-anchor="middle" font-family="Arial" font-size="13.6" fill="#000000">|</text>
</g>
<g class="key">
<use xlink:href="#shape0" transform="translate(792 -144)"/>
<text x="816" y="-162.9" text-anchor="middle" font-family="Arial" font-size="17" fill="#000000">7</text>
</g>
<g class="key">
<use xlink:href="#shape0" transform="translate(840 -144)"/>
<text x="864" y="-162.9" text-anchor="middle" font-family="Arial" font-size="17" fill="#000000">8</text>
</g>
<g class="key">
<use xlink:href="#shape0" transform="translate(888 -144)"/>
<text x="912" y="-162.9" text-anchor="middle" font-family="Arial" font-size="17" fill="#000000">9</text>
</g>
<g class="key">
<use xlink:href="#shape0" transform="translate(936 -144)"/>
<text x="960" y="-169.7" text-anchor="middle" font-family="Arial" font-size="17" fill="#000000">/</text>
<use xlink:href="#path2" transform="translate(954.333 -163.467) scale(11.333 11.333)" fill="#000000"/>
</g>
<g class="key">
<use xlink:href="#shape0" transform="translate(0 -192)"/>
<text x="24" y="-203.42" text-anchor="middle" font-family="Arial" font-size="13.6" fill="#000000">`</text>
<text x="24" y="-220.42" text-anchor="middle" font-family="Arial" font-size="13.6" fill="#000000">~</text>
</g>
<g class="key">
<use xlink:href="#shape0" transform="translate(48 -192)"/>
<text x="72" y="-203.42" text-anchor="middle" font-family="Arial" font-size="13.6" fill="#000000">1</text>
<text x="72" y="-220.42" text-anchor="middle" font-family="Arial" font-size="13.6" fill="#000000">!</text>
</g>
<g class="key">
<use xlink:href="#shape0" transform="translate(96 -192)"/>
<text x="120" y="-203.42" text-anchor="middle" font-family="Arial" font-size="13.6" fill="#000000">2</text>
<text x="120" y="-220.42" text-anchor="middle" font-family="Arial" font-size="13.6" fill="#000000">@</text>
</g>
<g class="key">
<use xlink:href="#shape0" transform="translate(144 -192)"/>
<text x="168" y="-203.42" text-anchor="middle" font-family="Arial" font-size="13.6" fill="#000000">3</text>
<text x="168" y="-220.42" text-anchor="middle" font-family="Arial" font-size="13.6" fill="#000000">#</text>
</g>
<g class="key">
<use xlink:href="#shape0" transform="translate(192 -192)"/>
<text x="216" y="-203.42" text-anchor="middle" font-family="Arial" font-size="13.6" fill="#000000">4</text>
<text x="216" y="-220.42" text-anchor="middle" font-family="Arial" font-size="13.6" fill="#000000">$</text>
</g>
<g class="key">
<use xlink:href="#shape0" transform="translate(240 -192)"/>
<text x="264" y="-203.42" text-anchor="middle" font-family="Arial" font-size="13.6" fill="#000000">5</text>
<text x="264" y="-220.42" text-anchor="middle" font-family="Arial" font-size="13.6" fill="#000000">%</text>
</g>
<g class="key">
<use xlink:href="#shape0" transform="translate(288 -192)"/>
<text x="312" y="-203.42" text-anchor="middle" font-family="Arial" font-size="13.6" fill="#000000">6</text>
<text x="312" y="-220.42" text-anchor="middle" font-family="Arial" font-size="13.6" fill="#000000">^</text>
</g>
<g class="key">
<use xlink:href="#shape0" transform="translate(336 -192)"/>
<text x="360" y="-203.42" text-anchor="middle" font-family="Arial" font-size="13.6" fill="#000000">7</text>
<text x="360" y="-220.42" text-anchor="middle" font-family="Arial" font-size="13.6" fill="#000000">&amp;</text>
</g>
<g class="key">
<use xlink:href="#shape0" transform="translate(384 -192)"/>
<text x="408" y="-203.42" text-anchor="middle" font-family="Arial" font-size="13.6" fill="#000000">8</text>
<text x="408" y="-220.42" text-anchor="middle" font-family="Arial" font-size="13.6" fill="#000000">*</text>
</g>
<g class="key">
<use xlink:href="#shape0" transform="translate(432 -192)"/>
<text x="456" y="-203.42" text-anchor="middle" font-family="Arial" font-size="13.6" fill="#000000">9</text>
<text x="456" y="-220.42" text-anchor="middle" font-family="Arial" font-size="13.6" fill="#000000">(</text>
</g>
<g class="key">
<use xlink:href="#shape0" transform="translate(480 -192)"/>
<text x="504" y="-203.42" text-anchor="middle" font-family="Arial" font-size="13.6" fill="#000000">0</text>
<text x="504" y="-220.42" text-anchor="middle" font-family="Arial" font-size="13.6" fill="#000000">)</text>
</g>
<g class="key">
<use xlink:href="#shape0" transform="translate(528 -192)"/>
<text x="552" y="-203.42" text-anchor="middle" font-family="Arial" font-size="13.6" fill="#000000">&#8722;</text>
<text x="552" y="-220.42" text-anchor="middle" font-family="Arial" font-size="13.6" fill="#000000">_</text>
</g>
<g class="key">
<use xlink:href="#shape0" transform="translate(576 -192)"/>
<text x="600" y="-203.42" text-anchor="middle" font-family="Arial" font-size="13.6" fill="#000000">=</text>
<text x="600" y="-220.42" text-anchor="middle" font-family="Arial" font-size="13.6" fill="#000000">+</text>
</g>
<g class="key">
<use xlink:href="#shape1" transform="translate(624 -192)"/>
<text x="660" y="-212.6" text-anchor="middle" font-family="Arial" font-size="11.333" fill="#000000">backspace</text>
</g>
<g class="key">
<use xlink:href="#shape0" transform="translate(792 -192)"/>
<text x="816" y="-212.6" text-anchor="middle" font-family="Arial" font-size="11.333" fill="#000000">clear</text>
</g>
<g class="key">
<use xlink:href="#shape0" transform="translate(840 -192)"/>
<text x="864" y="-217.7" text-anchor="middle" font-family="Arial" font-size="17" fill="#000000">&#8722;</text>
</g>
<g class="key">
<use xlink:href="#shape0" transform="translate(888 -192)"/>
<text x="912" y="-217.7" text-anchor="middle" font-family="Arial" font-size="17" fill="#000000">+</text>
<use xlink:href="#path3" transform="translate(906.333 -211.467) scale(11.333 11.333)" fill="#000000"/>
</g>
<g class="key">
<use xlink:href="#shape0" transform="translate(936 -192)"/>
<text x="960" y="-217.7" text-anchor="middle" font-family="Arial" font-size="17" fill="#000000">*</text>
<use xlink:href="#path4" transform="translate(954.333 -211.467) scale(11.333 11.333)" fill="#000000"/>
</g>
</g>
</svg>
