<?xml version="1.0"?>
<svg xmlns="http://www.w3.org/2000/svg" xmlns:xlink="http://www.w3.org/1999/xlink" version="1.1" width="960" height="336" viewBox="0 -336 960 336">
<defs>
<g id="shape0">
  <g>
    <path d="M 41 -41 L 41 -7 L 7 -7 L 7 -41 Z M 3 -47 C 1.896 -47 1 -46.104 1 -45 L 1 -41 L 1 -7 L 1 -3 C 1 -1.896 1.896 -1 3 -1 L 45 -1 C 46.104 -1 47 -1.896 47 -3 L 47 -7 L 47 -41 L 47 -45 C 47 -46.104 46.104 -47 45 -47 Z" fill="#000000"/>
    <path d="M 45.707 -45.707 L 41 -41 L 41 -7 L 7 -7 L 2.293 -2.293 C 2.474 -2.112 2.724 -2 3 -2 L 45 -2 C 45.553 -2 46 -2.447 46 -3 L 46 -7 L 46 -41 L 46 -45 C 46 -45.276 45.888 -45.526 45.707 -45.707 Z" fill="#555555"/>
    <path d="M 44.766 -44.765 L 41 -41 L 41 -7 L 7 -7 L 3.234 -3.234 C 3.379 -3.09 3.579 -3 3.8 -3 L 44.2 -3 C 44.642 -3 45 -3.358 45 -3.8 L 45 -7 L 45 -41 L 45 -44.2 C 45 -44.421 44.91 -44.621 44.766 -44.765 Z" fill="#777777"/>
    <path d="M 43.824 -43.824 L 41 -41 L 41 -7 L 7 -7 L 4.176 -4.176 C 4.284 -4.067 4.435 -4 4.6 -4 L 43.4 -4 C 43.731 -4 44 -4.269 44 -4.6 L 44 -7 L 44 -41 L 44 -43.4 C 44 -43.566 43.933 -43.716 43.824 -43.824 Z" fill="#888888"/>
    <path d="M 41 -41 L 41 -7 L 7 -7 L 7 -41 Z M 3 -46 C 2.448 -46 2 -45.552 2 -45 L 2 -41 L 2 -7 L 2 -3 C 2 -2.724 2.112 -2.474 2.293 -2.293 L 5.117 -5.117 C 5.189 -5.045 5.29 -5 5.4 -5 L 42.6 -5 C 42.821 -5 43 -5.179 43 -5.4 L 43 -7 L 43 -41 L 43 -42.6 C 43 -42.71 42.955 -42.81 42.883 -42.883 L 45.707 -45.707 C 45.526 -45.888 45.276 -46 45 -46 Z" fill="#aaaaaa"/>
    <path d="M 3.8 -45 C 3.358 -45 3 -44.642 3 -44.2 L 3 -41 L 3 -7 L 3 -3.8 C 3 -3.579 3.09 -3.379 3.234 -3.235 L 7 -7 L 7 -7 L 7 -41 L 41 -41 L 41 -41 L 44.766 -44.766 C 44.621 -44.91 44.421 -45 44.2 -45 Z" fill="#bbbbbb"/>
    <path d="M 4.6 -44 C 4.269 -44 4 -43.731 4 -43.4 L 4 -41 L 4 -7 L 4 -4.6 C 4 -4.434 4.067 -4.285 4.176 -4.176 L 7 -7 L 7 -7 L 7 -41 L 41 -41 L 41 -41 L 43.824 -43.824 C 43.716 -43.933 43.566 -44 43.4 -44 Z" fill="#dddddd"/>
    <path d="M 5.4 -43 C 5.179 -43 5 -42.821 5 -42.6 L 5 -41 L 5 -7 L 5 -5.4 C 5 -5.29 5.045 -5.189 5.117 -5.117 L 7 -7 L 7 -7 L 7 -41 L 41 -41 L 41 -41 L 42.883 -42.883 C 42.811 -42.955 42.71 -43 42.6 -43 Z" fill="#eeeeee"/>
    <path d="M 6.2 -42 C 6.089 -42 6 -41.911 6 -41.8 L 6 -41 L 6 -7 L 6 -6.2 C 6 -6.09 6.089 -6 6.2 -6 L 41.8 -6 C 41.91 -6 42 -6.09 42 -6.2 L 42 -7 L 42 -41 L 42 -41.8 C 42 -41.911 41.91 -42 41.8 -42 Z" fill="#cccccc"/>
    <path d="M 43 -5.707 L 43 -5.4 C 43 -5.179 42.821 -5 42.6 -5 L 42.293 -5 L 45.244 -2.049 C 45.595 -2.14 45.86 -2.405 45.951 -2.756 L 43 -5.707 Z" fill="#555555"/>
    <path d="M 45.244 -45.951 L 41.293 -42 L 41.8 -42 C 41.91 -42 42 -41.911 42 -41.8 L 42 -41.293 L 45.951 -45.244 C 45.905 -45.42 45.831 -45.583 45.707 -45.707 C 45.583 -45.832 45.42 -45.906 45.244 -45.951 Z M 42 -6.707 L 42 -6.2 C 42 -6.09 41.91 -6 41.8 -6 L 41.293 -6 L 42.293 -5 L 42.6 -5 C 42.821 -5 43 -5.179 43 -5.4 L 43 -5.707 L 42 -6.707 Z" fill="#777777"/>
    <path d="M 2.756 -45.951 C 2.405 -45.86 2.14 -45.595 2.049 -45.244 L 6 -41.293 L 6 -41.8 C 6 -41.911 6.089 -42 6.2 -42 L 6.707 -42 L 2.756 -45.951 Z M 6 -6.707 L 2.049 -2.756 C 2.094 -2.58 2.168 -2.417 2.293 -2.293 C 2.417 -2.169 2.581 -2.095 2.756 -2.049 L 6.708 -6 L 6.2 -6 C 6.089 -6 6 -6.09 6 -6.2 L 6 -6.707 Z" fill="#eeeeee"/>
  </g></g>
<g id="shape1">
  <g>
    <path d="M 53 -41 L 53 -7 L 7 -7 L 7 -41 Z M 3 -47 C 1.896 -47 1 -46.104 1 -45 L 1 -41 L 1 -7 L 1 -3 C 1 -1.896 1.896 -1 3 -1 L 57 -1 C 58.104 -1 59 -1.896 59 -3 L 59 -7 L 59 -41 L 59 -45 C 59 -46.104 58.104 -47 57 -47 Z" fill="#000000"/>
    <path d="M 57.707 -45.707 L 53 -41 L 53 -7 L 7 -7 L 2.293 -2.293 C 2.474 -2.112 2.724 -2 3 -2 L 57 -2 C 57.553 -2 58 -2.447 58 -3 L 58 -7 L 58 -41 L 58 -45 C 58 -45.276 57.888 -45.526 57.707 -45.707 Z" fill="#555555"/>
    <path d="M 56.766 -44.765 L 53 -41 L 53 -7 L 7 -7 L 3.234 -3.234 C 3.379 -3.09 3.579 -3 3.8 -3 L 56.2 -3 C 56.642 -3 57 -3.358 57 -3.8 L 57 -7 L 57 -41 L 57 -44.2 C 57 -44.421 56.91 -44.621 56.766 -44.765 Z" fill="#777777"/>
    <path d="M 55.824 -43.824 L 53 -41 L 53 -7 L 7 -7 L 4.176 -4.176 C 4.284 -4.067 4.435 -4 4.6 -4 L 55.4 -4 C 55.731 -4 56 -4.269 56 -4.6 L 56 -7 L 56 -41 L 56 -43.4 C 56 -43.566 55.933 -43.716 55.824 -43.824 Z" fill="#888888"/>
    <path d="M 53 -41 L 53 -7 L 7 -7 L 7 -41 Z M 3 -46 C 2.448 -46 2 -45.552 2 -45 L 2 -41 L 2 -7 L 2 -3 C 2 -2.724 2.112 -2.474 2.293 -2.293 L 5.117 -5.117 C 5.189 -5.045 5.29 -5 5.4 -5 L 54.6 -5 C 54.821 -5 55 -5.179 55 -5.4 L 55 -7 L 55 -41 L 55 -42.6 C 55 -42.71 54.955 -42.81 54.883 -42.883 L 57.707 -45.707 C 57.526 -45.888 57.276 -46 57 -46 Z" fill="#aaaaaa"/>
    <path d="M 3.8 -45 C 3.358 -45 3 -44.642 3 -44.2 L 3 -41 L 3 -7 L 3 -3.8 C 3 -3.579 3.09 -3.379 3.234 -3.235 L 7 -7 L 7 -7 L 7 -41 L 53 -41 L 53 -41 L 56.766 -44.766 C 56.621 -44.91 56.421 -45 56.2 -45 Z" fill="#bbbbbb"/>
    <path d="M 4.6 -44 C 4.269 -44 4 -43.731 4 -43.4 L 4 -41 L 4 -7 L 4 -4.6 C 4 -4.434 4.067 -4.285 4.176 -4.176 L 7 -7 L 7 -7 L 7 -41 L 53 -41 L 53 -41 L 55.824 -43.824 C 55.716 -43.933 55.566 -44 55.4 -44 Z" fill="#dddddd"/>
    <path d="M 5.4 -43 C 5.179 -43 5 -42.821 5 -42.6 L 5 -41 L 5 -7 L 5 -5.4 C 5 -5.29 5.045 -5.189 5.117 -5.117 L 7 -7 L 7 -7 L 7 -41 L 53 -41 L 53 -41 L 54.883 -42.883 C 54.811 -42.955 54.71 -43 54.6 -43 Z" fill="#eeeeee"/>
    <path d="M 6.2 -42 C 6.089 -42 6 -41.911 6 -41.8 L 6 -41 L 6 -7 L 6 -6.2 C 6 -6.09 6.089 -6 6.2 -6 L 53.8 -6 C 53.91 -6 54 -6.09 54 -6.2 L 54 -7 L 54 -41 L 54 -41.8 C 54 -41.911 53.91 -42 53.8 -42 Z" fill="#cccccc"/>
    <path d="M 55 -5.707 L 55 -5.4 C 55 -5.179 54.821 -5 54.6 -5 L 54.293 -5 L 57.244 -2.049 C 57.595 -2.14 57.86 -2.405 57.951 -2.756 L 55 -5.707 Z" fill="#555555"/>
    <path d="M 57.244 -45.951 L 53.293 -42 L 53.8 -42 C 53.91 -42 54 -41.911 54 -41.8 L 54 -41.293 L 57.951 -45.244 C 57.905 -45.42 57.831 -45.583 57.707 -45.707 C 57.583 -45.832 57.42 -45.906 57.244 -45.951 Z M 54 -6.707 L 54 -6.2 C 54 -6.09 53.91 -6 53.8 -6 L 53.293 -6 L 54.293 -5 L 54.6 -5 C 54.821 -5 55 -5.179 55 -5.4 L 55 -5.707 L 54 -6.707 Z" fill="#777777"/>
    <path d="M 2.756 -45.951 C 2.405 -45.86 2.14 -45.595 2.049 -45.244 L 6 -41.293 L 6 -41.8 C 6 -41.911 6.089 -42 6.2 -42 L 6.707 -42 L 2.756 -45.951 Z M 6 -6.707 L 2.049 -2.756 C 2.094 -2.58 2.168 -2.417 2.293 -2.293 C 2.417 -2.169 2.581 -2.095 2.756 -2.049 L 6.708 -6 L 6.2 -6 C 6.089 -6 6 -6.09 6 -6.2 L 6 -6.707 Z" fill="#eeeeee"/>
  </g></g>
<g id="shape2">
  <g>
    <path d="M 77 -41 L 77 -7 L 7 -7 L 7 -41 Z M 3 -47 C 1.896 -47 1 -46.104 1 -45 L 1 -41 L 1 -7 L 1 -3 C 1 -1.896 1.896 -1 3 -1 L 81 -1 C 82.104 -1 83 -1.896 83 -3 L 83 -7 L 83 -41 L 83 -45 C 83 -46.104 82.104 -47 81 -47 Z" fill="#000000"/>
    <path d="M 81.707 -45.707 L 77 -41 L 77 -7 L 7 -7 L 2.293 -2.293 C 2.474 -2.112 2.724 -2 3 -2 L 81 -2 C 81.553 -2 82 -2.447 82 -3 L 82 -7 L 82 -41 L 82 -45 C 82 -45.276 81.888 -45.526 81.707 -45.707 Z" fill="#555555"/>
    <path d="M 80.766 -44.765 L 77 -41 L 77 -7 L 7 -7 L 3.234 -3.234 C 3.379 -3.09 3.579 -3 3.8 -3 L 80.2 -3 C 80.642 -3 81 -3.358 81 -3.8 L 81 -7 L 81 -41 L 81 -44.2 C 81 -44.421 80.91 -44.621 80.766 -44.765 Z" fill="#777777"/>
    <path d="M 79.824 -43.824 L 77 -41 L 77 -7 L 7 -7 L 4.176 -4.176 C 4.284 -4.067 4.435 -4 4.6 -4 L 79.4 -4 C 79.731 -4 80 -4.269 80 -4.6 L 80 -7 L 80 -41 L 80 -43.4 C 80 -43.566 79.933 -43.716 79.824 -43.824 Z" fill="#888888"/>
    <path d="M 77 -41 L 77 -7 L 7 -7 L 7 -41 Z M 3 -46 C 2.448 -46 2 -45.552 2 -45 L 2 -41 L 2 -7 L 2 -3 C 2 -2.724 2.112 -2.474 2.293 -2.293 L 5.117 -5.117 C 5.189 -5.045 5.29 -5 5.4 -5 L 78.6 -5 C 78.821 -5 79 -5.179 79 -5.4 L 79 -7 L 79 -41 L 79 -42.6 C 79 -42.71 78.955 -42.81 78.883 -42.883 L 81.707 -45.707 C 81.526 -45.888 81.276 -46 81 -46 Z" fill="#aaaaaa"/>
    <path d="M 3.8 -45 C 3.358 -45 3 -44.642 3 -44.2 L 3 -41 L 3 -7 L 3 -3.8 C 3 -3.579 3.09 -3.379 3.234 -3.235 L 7 -7 L 7 -7 L 7 -41 L 77 -41 L 80.766 -44.766 C 80.621 -44.91 80.421 -45 80.2 -45 Z" fill="#bbbbbb"/>
    <path d="M 4.6 -44 C 4.269 -44 4 -43.731 4 -43.4 L 4 -41 L 4 -7 L 4 -4.6 C 4 -4.434 4.067 -4.285 4.176 -4.176 L 7 -7 L 7 -7 L 7 -41 L 77 -41 L 79.824 -43.824 C 79.716 -43.933 79.566 -44 79.4 -44 Z" fill="#dddddd"/>
    <path d="M 5.4 -43 C 5.179 -43 5 -42.821 5 -42.6 L 5 -41 L 5 -7 L 5 -5.4 C 5 -5.29 5.045 -5.189 5.117 -5.117 L 7 -7 L 7 -7 L 7 -41 L 77 -41 L 78.883 -42.883 C 78.811 -42.955 78.71 -43 78.6 -43 Z" fill="#eeeeee"/>
    <path d="M 6.2 -42 C 6.089 -42 6 -41.911 6 -41.8 L 6 -41 L 6 -7 L 6 -6.2 C 6 -6.09 6.089 -6 6.2 -6 L 77.8 -6 C 77.91 -6 78 -6.09 78 -6.2 L 78 -7 L 78 -41 L 78 -41.8 C 78 -41.911 77.91 -42 77.8 -42 Z" fill="#cccccc"/>
    <path d="M 79 -5.707 L 79 -5.4 C 79 -5.179 78.821 -5 78.6 -5 L 78.293 -5 L 81.244 -2.049 C 81.595 -2.14 81.86 -2.405 81.951 -2.756 L 79 -5.707 Z" fill="#555555"/>
    <path d="M 81.244 -45.951 L 77.293 -42 L 77.8 -42 C 77.91 -42 78 -41.911 78 -41.8 L 78 -41.293 L 81.951 -45.244 C 81.905 -45.42 81.831 -45.583 81.707 -45.707 C 81.583 -45.832 81.42 -45.906 81.244 -45.951 Z M 78 -6.707 L 78 -6.2 C 78 -6.09 77.91 -6 77.8 -6 L 77.293 -6 L 78.293 -5 L 78.6 -5 C 78.821 -5 79 -5.179 79 -5.4 L 79 -5.707 L 78 -6.707 Z" fill="#777777"/>
    <path d="M 2.756 -45.951 C 2.405 -45.86 2.14 -45.595 2.049 -45.244 L 6 -41.293 L 6 -41.8 C 6 -41.911 6.089 -42 6.2 -42 L 6.707 -42 L 2.756 -45.951 Z M 6 -6.707 L 2.049 -2.756 C 2.094 -2.58 2.168 -2.417 2.293 -2.293 C 2.417 -2.169 2.581 -2.095 2.756 -2.049 L 6.708 -6 L 6.2 -6 C 6.089 -6 6 -6.09 6 -6.2 L 6 -6.707 Z" fill="#eeeeee"/>
  </g></g>
<g id="shape3">
  <g>
    <path d="M 3 -47 C 1.896 -47 1 -46.104 1 -45 L 1 -41 L 1 -7 L 1 -3 C 1 -1.896 1.896 -1 3 -1 L 281 -1 L 281 -7 L 7 -7 L 7 -41 L 281 -41 L 281 -47 Z M 281 -47 L 281 -41 L 281 -7 L 281 -1 L 285 -1 C 286.104 -1 287 -1.896 287 -3 L 287 -7 L 287 -41 L 287 -45 C 287 -46.104 286.104 -47 285 -47 Z" fill="#000000"/>
    <path d="M 7 -7 L 2.293 -2.293 C 2.474 -2.112 2.724 -2 3 -2 L 281 -2 L 281 -7 Z M 285.707 -45.707 L 281 -41 L 281 -7 L 281 -2 L 285 -2 C 285.553 -2 286 -2.447 286 -3 L 286 -7 L 286 -41 L 286 -45 C 286 -45.276 285.888 -45.526 285.707 -45.707 Z" fill="#555555"/>
    <path d="M 7 -7 L 3.234 -3.234 C 3.379 -3.09 3.579 -3 3.8 -3 L 281 -3 L 281 -7 Z M 284.766 -44.765 L 281 -41 L 281 -7 L 281 -3 L 284.2 -3 C 284.642 -3 285 -3.358 285 -3.8 L 285 -7 L 285 -41 L 285 -44.2 C 285 -44.421 284.91 -44.621 284.766 -44.765 Z" fill="#777777"/>
    <path d="M 7 -7 L 4.176 -4.176 C 4.284 -4.067 4.435 -4 4.6 -4 L 281 -4 L 281 -7 Z M 283.824 -43.824 L 281 -41 L 281 -7 L 281 -4 L 283.4 -4 C 283.731 -4 284 -4.269 284 -4.6 L 284 -7 L 284 -41 L 284 -43.4 C 284 -43.566 283.933 -43.716 283.824 -43.824 Z" fill="#888888"/>
    <path d="M 281 -46 L 281 -41 L 281 -7 L 281 -5 L 282.6 -5 C 282.821 -5 283 -5.179 283 -5.4 L 283 -7 L 283 -41 L 283 -42.6 C 283 -42.71 282.955 -42.81 282.883 -42.883 L 285.707 -45.707 C 285.526 -45.888 285.276 -46 285 -46 Z M 3 -46 C 2.448 -46 2 -45.552 2 -45 L 2 -41 L 2 -7 L 2 -3 C 2 -2.724 2.112 -2.474 2.293 -2.293 L 5.117 -5.117 C 5.189 -5.045 5.29 -5 5.4 -5 L 281 -5 L 281 -7 L 7 -7 L 7 -41 L 281 -41 L 281 -46 Z" fill="#aaaaaa"/>
    <path d="M 281 -45 L 281 -41 L 284.766 -44.766 C 284.621 -44.91 284.421 -45 284.2 -45 Z M 3.8 -45 C 3.358 -45 3 -44.642 3 -44.2 L 3 -41 L 3 -7 L 3 -3.8 C 3 -3.579 3.09 -3.379 3.234 -3.235 L 7 -7 L 7 -7 L 7 -41 L 281 -41 L 281 -45 Z" fill="#bbbbbb"/>
    <path d="M 281 -44 L 281 -41 L 283.824 -43.824 C 283.716 -43.933 283.566 -44 283.4 -44 Z M 4.6 -44 C 4.269 -44 4 -43.731 4 -43.4 L 4 -41 L 4 -7 L 4 -4.6 C 4 -4.434 4.067 -4.285 4.176 -4.176 L 7 -7 L 7 -7 L 7 -41 L 281 -41 L 281 -44 Z" fill="#dddddd"/>
    <path d="M 281 -43 L 281 -41 L 282.883 -42.883 C 282.811 -42.955 282.71 -43 282.6 -43 Z M 5.4 -43 C 5.179 -43 5 -42.821 5 -42.6 L 5 -41 L 5 -7 L 5 -5.4 C 5 -5.29 5.045 -5.189 5.117 -5.117 L 7 -7 L 7 -7 L 7 -41 L 281 -41 L 281 -43 Z" fill="#eeeeee"/>
    <path d="M 6.2 -42 C 6.089 -42 6 -41.911 6 -41.8 L 6 -41 L 6 -7 L 6 -6.2 C 6 -6.09 6.089 -6 6.2 -6 L 281 -6 L 281 -7 L 281 -7 L 281 -6 L 281.8 -6 C 281.91 -6 282 -6.09 282 -6.2 L 282 -7 L 282 -41 L 282 -41.8 C 282 -41.911 281.91 -42 281.8 -42 L 281 -42 L 281 -41 L 281 -41 L 281 -42 Z" fill="#cccccc"/>
    <path d="M 283 -5.707 L 283 -5.4 C 283 -5.179 282.821 -5 282.6 -5 L 282.293 -5 L 285.244 -2.049 C 285.595 -2.14 285.86 -2.405 285.951 -2.756 L 283 -5.707 Z" fill="#555555"/>
    <path d="M 285.244 -45.951 L 281.293 -42 L 281.8 -42 C 281.91 -42 282 -41.911 282 -41.8 L 282 -41.293 L 285.951 -45.244 C 285.905 -45.42 285.831 -45.583 285.707 -45.707 C 285.583 -45.832 285.42 -45.906 285.244 -45.951 Z M 282 -6.707 L 282 -6.2 C 282 -6.09 281.91 -6 281.8 -6 L 281.293 -6 L 282.293 -5 L 282.6 -5 C 282.821 -5 283 -5.179 283 -5.4 L 283 -5.707 L 282 -6.707 Z" fill="#777777"/>
    <path d="M 2.756 -45.951 C 2.405 -45.86 2.14 -45.595 2.049 -45.244 L 6 -41.293 L 6 -41.8 C 6 -41.911 6.089 -42 6.2 -42 L 6.707 -42 L 2.756 -45.951 Z M 6 -6.707 L 2.049 -2.756 C 2.094 -2.58 2.168 -2.417 2.293 -2.293 C 2.417 -2.169 2.581 -2.095 2.756 -2.049 L 6.708 -6 L 6.2 -6 C 6.089 -6 6 -6.09 6 -6.2 L 6 -6.707 Z" fill="#eeeeee"/>
  </g></g>
<g id="shape4">
  <g>
    <path d="M 89 -41 L 89 -7 L 7 -7 L 7 -41 Z M 3 -47 C 1.896 -47 1 -46.104 1 -45 L 1 -41 L 1 -7 L 1 -3 C 1 -1.896 1.896 -1 3 -1 L 93 -1 C 94.104 -1 95 -1.896 95 -3 L 95 -7 L 95 -41 L 95 -45 C 95 -46.104 94.104 -47 93 -47 Z" fill="#000000"/>
    <path d="M 93.707 -45.707 L 89 -41 L 89 -7 L 7 -7 L 2.293 -2.293 C 2.474 -2.112 2.724 -2 3 -2 L 93 -2 C 93.553 -2 94 -2.447 94 -3 L 94 -7 L 94 -41 L 94 -45 C 94 -45.276 93.888 -45.526 93.707 -45.707 Z" fill="#555555"/>
    <path d="M 92.766 -44.765 L 89 -41 L 89 -7 L 7 -7 L 3.234 -3.234 C 3.379 -3.09 3.579 -3 3.8 -3 L 92.2 -3 C 92.642 -3 93 -3.358 93 -3.8 L 93 -7 L 93 -41 L 93 -44.2 C 93 -44.421 92.91 -44.621 92.766 -44.765 Z" fill="#777777"/>
    <path d="M 91.824 -43.824 L 89 -41 L 89 -7 L 7 -7 L 4.176 -4.176 C 4.284 -4.067 4.435 -4 4.6 -4 L 91.4 -4 C 91.731 -4 92 -4.269 92 -4.6 L 92 -7 L 92 -41 L 92 -43.4 C 92 -43.566 91.933 -43.716 91.824 -43.824 Z" fill="#888888"/>
    <path d="M 89 -41 L 89 -7 L 7 -7 L 7 -41 Z M 3 -46 C 2.448 -46 2 -45.552 2 -45 L 2 -41 L 2 -7 L 2 -3 C 2 -2.724 2.112 -2.474 2.293 -2.293 L 5.117 -5.117 C 5.189 -5.045 5.29 -5 5.4 -5 L 90.6 -5 C 90.821 -5 91 -5.179 91 -5.4 L 91 -7 L 91 -41 L 91 -42.6 C 91 -42.71 90.955 -42.81 90.883 -42.883 L 93.707 -45.707 C 93.526 -45.888 93.276 -46 93 -46 Z" fill="#aaaaaa"/>
    <path d="M 3.8 -45 C 3.358 -45 3 -44.642 3 -44.2 L 3 -41 L 3 -7 L 3 -3.8 C 3 -3.579 3.09 -3.379 3.234 -3.235 L 7 -7 L 7 -7 L 7 -41 L 89 -41 L 89 -41 L 92.766 -44.766 C 92.621 -44.91 92.421 -45 92.2 -45 Z" fill="#bbbbbb"/>
    <path d="M 4.6 -44 C 4.269 -44 4 -43.731 4 -43.4 L 4 -41 L 4 -7 L 4 -4.6 C 4 -4.434 4.067 -4.285 4.176 -4.176 L 7 -7 L 7 -7 L 7 -41 L 89 -41 L 89 -41 L 91.824 -43.824 C 91.716 -43.933 91.566 -44 91.4 -44 Z" fill="#dddddd"/>
    <path d="M 5.4 -43 C 5.179 -43 5 -42.821 5 -42.6 L 5 -41 L 5 -7 L 5 -5.4 C 5 -5.29 5.045 -5.189 5.117 -5.117 L 7 -7 L 7 -7 L 7 -41 L 89 -41 L 89 -41 L 90.883 -42.883 C 90.811 -42.955 90.71 -43 90.6 -43 Z" fill="#eeeeee"/>
    <path d="M 6.2 -42 C 6.089 -42 6 -41.911 6 -41.8 L 6 -41 L 6 -7 L 6 -6.2 C 6 -6.09 6.089 -6 6.2 -6 L 89.8 -6 C 89.91 -6 90 -6.09 90 -6.2 L 90 -7 L 90 -41 L 90 -41.8 C 90 -41.911 89.91 -42 89.8 -42 Z" fill="#cccccc"/>
    <path d="M 91 -5.707 L 91 -5.4 C 91 -5.179 90.821 -5 90.6 -5 L 90.293 -5 L 93.244 -2.049 C 93.595 -2.14 93.86 -2.405 93.951 -2.756 L 91 -5.707 Z" fill="#555555"/>
    <path d="M 93.244 -45.951 L 89.293 -42 L 89.8 -42 C 89.91 -42 90 -41.911 90 -41.8 L 90 -41.293 L 93.951 -45.244 C 93.905 -45.42 93.831 -45.583 93.707 -45.707 C 93.583 -45.832 93.42 -45.906 93.244 -45.951 Z M 90 -6.707 L 90 -6.2 C 90 -6.09 89.91 -6 89.8 -6 L 89.293 -6 L 90.293 -5 L 90.6 -5 C 90.821 -5 91 -5.179 91 -5.4 L 91 -5.707 L 90 -6.707 Z" fill="#777777"/>
    <path d="M 2.756 -45.951 C 2.405 -45.86 2.14 -45.595 2.049 -45.244 L 6 -41.293 L 6 -41.8 C 6 -41.911 6.089 -42 6.2 -42 L 6.707 -42 L 2.756 -45.951 Z M 6 -6.707 L 2.049 -2.756 C 2.094 -2.58 2.168 -2.417 2.293 -2.293 C 2.417 -2.169 2.581 -2.095 2.756 -2.049 L 6.708 -6 L 6.2 -6 C 6.089 -6 6 -6.09 6 -6.2 L 6 -6.707 Z" fill="#eeeeee"/>
  </g></g>
<g id="shape5">
  <g>
    <path d="M 41 -89 L 41 -7 L 7 -7 L 7 -89 Z M 3 -95 C 1.896 -95 1 -94.104 1 -93 L 1 -89 L 1 -7 L 1 -3 C 1 -1.896 1.896 -1 3 -1 L 45 -1 C 46.104 -1 47 -1.896 47 -3 L 47 -7 L 47 -89 L 47 -93 C 47 -94.104 46.104 -95 45 -95 Z" fill="#000000"/>
    <path d="M 45.707 -93.707 L 41 -89 L 41 -7 L 7 -7 L 2.293 -2.293 C 2.474 -2.112 2.724 -2 3 -2 L 45 -2 C 45.553 -2 46 -2.447 46 -3 L 46 -7 L 46 -89 L 46 -93 C 46 -93.276 45.888 -93.526 45.707 -93.707 Z" fill="#555555"/>
    <path d="M 44.766 -92.765 L 41 -89 L 41 -7 L 7 -7 L 3.234 -3.234 C 3.379 -3.09 3.579 -3 3.8 -3 L 44.2 -3 C 44.642 -3 45 -3.358 45 -3.8 L 45 -7 L 45 -89 L 45 -92.2 C 45 -92.421 44.91 -92.621 44.766 -92.765 Z" fill="#777777"/>
    <path d="M 43.824 -91.824 L 41 -89 L 41 -7 L 7 -7 L 4.176 -4.176 C 4.284 -4.067 4.435 -4 4.6 -4 L 43.4 -4 C 43.731 -4 44 -4.269 44 -4.6 L 44 -7 L 44 -89 L 44 -91.4 C 44 -91.566 43.933 -91.716 43.824 -91.824 Z" fill="#888888"/>
    <path d="M 41 -89 L 41 -7 L 7 -7 L 7 -89 Z M 3 -94 C 2.448 -94 2 -93.552 2 -93 L 2 -89 L 2 -7 L 2 -3 C 2 -2.724 2.112 -2.474 2.293 -2.293 L 5.117 -5.117 C 5.189 -5.045 5.29 -5 5.4 -5 L 42.6 -5 C 42.821 -5 43 -5.179 43 -5.4 L 43 -7 L 43 -89 L 43 -90.6 C 43 -90.71 42.955 -90.81 42.883 -90.883 L 45.707 -93.707 C 45.526 -93.888 45.276 -94 45 -94 Z" fill="#aaaaaa"/>
    <path d="M 3.8 -93 C 3.358 -93 3 -92.642 3 -92.2 L 3 -89 L 3 -7 L 3 -3.8 C 3 -3.579 3.09 -3.379 3.234 -3.235 L 7 -7 L 7 -7 L 7 -89 L 41 -89 L 41 -89 L 44.766 -92.766 C 44.621 -92.91 44.421 -93 44.2 -93 Z" fill="#bbbbbb"/>
    <path d="M 4.6 -92 C 4.269 -92 4 -91.731 4 -91.4 L 4 -89 L 4 -7 L 4 -4.6 C 4 -4.434 4.067 -4.285 4.176 -4.176 L 7 -7 L 7 -7 L 7 -89 L 41 -89 L 41 -89 L 43.824 -91.824 C 43.716 -91.933 43.566 -92 43.4 -92 Z" fill="#dddddd"/>
    <path d="M 5.4 -91 C 5.179 -91 5 -90.821 5 -90.6 L 5 -89 L 5 -7 L 5 -5.4 C 5 -5.29 5.045 -5.189 5.117 -5.117 L 7 -7 L 7 -7 L 7 -89 L 41 -89 L 41 -89 L 42.883 -90.883 C 42.811 -90.955 42.71 -91 42.6 -91 Z" fill="#eeeeee"/>
    <path d="M 6.2 -90 C 6.089 -90 6 -89.911 6 -89.8 L 6 -89 L 6 -7 L 6 -6.2 C 6 -6.09 6.089 -6 6.2 -6 L 41.8 -6 C 41.91 -6 42 -6.09 42 -6.2 L 42 -7 L 42 -89 L 42 -89.8 C 42 -89.911 41.91 -90 41.8 -90 Z" fill="#cccccc"/>
    <path d="M 43 -5.707 L 43 -5.4 C 43 -5.179 42.821 -5 42.6 -5 L 42.293 -5 L 45.244 -2.049 C 45.595 -2.14 45.86 -2.405 45.951 -2.756 L 43 -5.707 Z" fill="#555555"/>
    <path d="M 45.244 -93.951 L 41.293 -90 L 41.8 -90 C 41.91 -90 42 -89.911 42 -89.8 L 42 -89.293 L 45.951 -93.244 C 45.905 -93.42 45.831 -93.583 45.707 -93.707 C 45.583 -93.832 45.42 -93.906 45.244 -93.951 Z M 42 -6.707 L 42 -6.2 C 42 -6.09 41.91 -6 41.8 -6 L 41.293 -6 L 42.293 -5 L 42.6 -5 C 42.821 -5 43 -5.179 43 -5.4 L 43 -5.707 L 42 -6.707 Z" fill="#777777"/>
    <path d="M 2.756 -93.951 C 2.405 -93.86 2.14 -93.595 2.049 -93.244 L 6 -89.293 L 6 -89.8 C 6 -89.911 6.089 -90 6.2 -90 L 6.707 -90 L 2.756 -93.951 Z M 6 -6.707 L 2.049 -2.756 C 2.094 -2.58 2.168 -2.417 2.293 -2.293 C 2.417 -2.169 2.581 -2.095 2.756 -2.049 L 6.708 -6 L 6.2 -6 C 6.089 -6 6 -6.09 6 -6.2 L 6 -6.707 Z" fill="#eeeeee"/>
  </g></g>
<g id="shape6">
  <g>
    <path d="M 113 -41 L 113 -7 L 7 -7 L 7 -41 Z M 3 -47 C 1.896 -47 1 -46.104 1 -45 L 1 -41 L 1 -7 L 1 -3 C 1 -1.896 1.896 -1 3 -1 L 117 -1 C 118.104 -1 119 -1.896 119 -3 L 119 -7 L 119 -41 L 119 -45 C 119 -46.104 118.104 -47 117 -47 Z" fill="#000000"/>
    <path d="M 117.707 -45.707 L 113 -41 L 113 -7 L 7 -7 L 2.293 -2.293 C 2.474 -2.112 2.724 -2 3 -2 L 117 -2 C 117.553 -2 118 -2.447 118 -3 L 118 -7 L 118 -41 L 118 -45 C 118 -45.276 117.888 -45.526 117.707 -45.707 Z" fill="#555555"/>
    <path d="M 116.766 -44.765 L 113 -41 L 113 -7 L 7 -7 L 3.234 -3.234 C 3.379 -3.09 3.579 -3 3.8 -3 L 116.2 -3 C 116.642 -3 117 -3.358 117 -3.8 L 117 -7 L 117 -41 L 117 -44.2 C 117 -44.421 116.91 -44.621 116.766 -44.765 Z" fill="#777777"/>
    <path d="M 115.824 -43.824 L 113 -41 L 113 -7 L 7 -7 L 4.176 -4.176 C 4.284 -4.067 4.435 -4 4.6 -4 L 115.4 -4 C 115.731 -4 116 -4.269 116 -4.6 L 116 -7 L 116 -41 L 116 -43.4 C 116 -43.566 115.933 -43.716 115.824 -43.824 Z" fill="#888888"/>
    <path d="M 113 -41 L 113 -7 L 7 -7 L 7 -41 Z M 3 -46 C 2.448 -46 2 -45.552 2 -45 L 2 -41 L 2 -7 L 2 -3 C 2 -2.724 2.112 -2.474 2.293 -2.293 L 5.117 -5.117 C 5.189 -5.045 5.29 -5 5.4 -5 L 114.6 -5 C 114.821 -5 115 -5.179 115 -5.4 L 115 -7 L 115 -41 L 115 -42.6 C 115 -42.71 114.955 -42.81 114.883 -42.883 L 117.707 -45.707 C 117.526 -45.888 117.276 -46 117 -46 Z" fill="#aaaaaa"/>
    <path d="M 3.8 -45 C 3.358 -45 3 -44.642 3 -44.2 L 3 -41 L 3 -7 L 3 -3.8 C 3 -3.579 3.09 -3.379 3.234 -3.235 L 7 -7 L 7 -7 L 7 -41 L 113 -41 L 113 -41 L 116.766 -44.766 C 116.621 -44.91 116.421 -45 116.2 -45 Z" fill="#bbbbbb"/>
    <path d="M 4.6 -44 C 4.269 -44 4 -43.731 4 -43.4 L 4 -41 L 4 -7 L 4 -4.6 C 4 -4.434 4.067 -4.285 4.176 -4.176 L 7 -7 L 7 -7 L 7 -41 L 113 -41 L 113 -41 L 115.824 -43.824 C 115.716 -43.933 115.566 -44 115.4 -44 Z" fill="#dddddd"/>
    <path d="M 5.4 -43 C 5.179 -43 5 -42.821 5 -42.6 L 5 -41 L 5 -7 L 5 -5.4 C 5 -5.29 5.045 -5.189 5.117 -5.117 L 7 -7 L 7 -7 L 7 -41 L 113 -41 L 113 -41 L 114.883 -42.883 C 114.811 -42.955 114.71 -43 114.6 -43 Z" fill="#eeeeee"/>
    <path d="M 6.2 -42 C 6.089 -42 6 -41.911 6 -41.8 L 6 -41 L 6 -7 L 6 -6.2 C 6 -6.09 6.089 -6 6.2 -6 L 113.8 -6 C 113.91 -6 114 -6.09 114 -6.2 L 114 -7 L 114 -41 L 114 -41.8 C 114 -41.911 113.91 -42 113.8 -42 Z" fill="#cccccc"/>
    <path d="M 115 -5.707 L 115 -5.4 C 115 -5.179 114.821 -5 114.6 -5 L 114.293 -5 L 117.244 -2.049 C 117.595 -2.14 117.86 -2.405 117.951 -2.756 L 115 -5.707 Z" fill="#555555"/>
    <path d="M 117.244 -45.951 L 113.293 -42 L 113.8 -42 C 113.91 -42 114 -41.911 114 -41.8 L 114 -41.293 L 117.951 -45.244 C 117.905 -45.42 117.831 -45.583 117.707 -45.707 C 117.583 -45.832 117.42 -45.906 117.244 -45.951 Z M 114 -6.707 L 114 -6.2 C 114 -6.09 113.91 -6 113.8 -6 L 113.293 -6 L 114.293 -5 L 114.6 -5 C 114.821 -5 115 -5.179 115 -5.4 L 115 -5.707 L 114 -6.707 Z" fill="#777777"/>
    <path d="M 2.756 -45.951 C 2.405 -45.86 2.14 -45.595 2.049 -45.244 L 6 -41.293 L 6 -41.8 C 6 -41.911 6.089 -42 6.2 -42 L 6.707 -42 L 2.756 -45.951 Z M 6 -6.707 L 2.049 -2.756 C 2.094 -2.58 2.168 -2.417 2.293 -2.293 C 2.417 -2.169 2.581 -2.095 2.756 -2.049 L 6.708 -6 L 6.2 -6 C 6.089 -6 6 -6.09 6 -6.2 L 6 -6.707 Z" fill="#eeeeee"/>
  </g></g>
</defs>
<g class="keyboard">
<g class="key">
<use xlink:href="#shape0" transform="translate(0 0)"/>
<text x="24" y="-20.6" text-anchor="middle" font-family="Arial" font-size="11.333" textLength="34" lengthAdjust="spacingAndGlyphs" fill="#000000">control</text>
</g>
<g class="key">
<use xlink:href="#shape1" transform="translate(48 0)"/>
<text x="78" y="-20.6" text-anchor="middle" font-family="Arial" font-size="11.333" fill="#000000">option</text>
</g>
<g class="key">
<use xlink:href="#shape2" transform="translate(108 0)"/>
<text x="150" y="-20.6" text-anchor="middle" font-family="Arial" font-size="11.333" fill="#000000">&#8984;</text>
</g>
<g class="key">
<use xlink:href="#shape3" transform="translate(192 0)"/>
</g>
<g class="key">
<use xlink:href="#shape0" transform="translate(480 0)"/>
<text x="504" y="-20.6" text-anchor="middle" font-family="Arial" font-size="11.333" fill="#000000">esc</text>
</g>
<g class="key">
<use xlink:href="#shape0" transform="translate(528 0)"/>
<text x="552" y="-20.6" text-anchor="middle" font-family="Arial" font-size="11.333" fill="#000000">&#8592;</text>
</g>
<g class="key">
<use xlink:href="#shape0" transform="translate(576 0)"/>
<text x="600" y="-20.6" text-anchor="middle" font-family="Arial" font-size="11.333" fill="#000000">&#8594;</text>
</g>
<g class="key">
<use xlink:href="#shape0" transform="translate(624 0)"/>
<text x="648" y="-20.6" text-anchor="middle" font-family="Arial" font-size="11.333" fill="#000000">&#8595;</text>
</g>
<g class="key">
<use xlink:href="#shape0" transform="translate(672 0)"/>
<text x="696" y="-20.6" text-anchor="middle" font-family="Arial" font-size="11.333" fill="#000000">&#8593;</text>
</g>
<g class="key">
<use xlink:href="#shape4" transform="translate(768 0)"/>
<text x="816" y="-18.9" text-anchor="middle" font-family="Arial" font-size="17" fill="#000000">0</text>
</g>
<g class="key">
<use xlink:href="#shape0" transform="translate(864 0)"/>
<text x="888" y="-18.9" text-anchor="middle" font-family="Arial" font-size="17" fill="#000000">.</text>
</g>
<g class="key">
<use xlink:href="#shape5" transform="translate(912 0)"/>
<text x="936" y="-44.6" text-anchor="middle" font-family="Arial" font-size="11.333" fill="#000000">enter</text>
</g>
<g class="key">
<use xlink:href="#shape6" transform="translate(0 -48)"/>
<text x="60" y="-68.6" text-anchor="middle" font-family="Arial" font-size="11.333" fill="#000000">shift</text>
</g>
<g class="key">
<use xlink:href="#shape0" transform="translate(120 -48)"/>
<text x="144" y="-66.9" text-anchor="middle" font-family="Arial" font-size="17" fill="#000000">Z</text>
</g>
<g class="key">
<use xlink:href="#shape0" transform="translate(168 -48)"/>
<text x="192" y="-66.9" text-anchor="middle" font-family="Arial" font-size="17" fill="#000000">X</text>
</g>
<g class="key">
<use xlink:href="#shape0" transform="translate(216 -48)"/>
<text x="240" y="-66.9" text-anchor="middle" font-family="Arial" font-size="17" fill="#000000">C</text>
</g>
<g class="key">
<use xlink:href="#shape0" transform="translate(264 -48)"/>
<text x="288" y="-66.9" text-anchor="middle" font-family="Arial" font-size="17" fill="#000000">V</text>
</g>
<g class="key">
<use xlink:href="#shape0" transform="translate(312 -48)"/>
<text x="336" y="-66.9" text-anchor="middle" font-family="Arial" font-size="17" fill="#000000">B</text>
</g>
<g class="key">
<use xlink:href="#shape0" transform="translate(360 -48)"/>
<text x="384" y="-66.9" text-anchor="middle" font-family="Arial" font-size="17" fill="#000000">N</text>
</g>
<g class="key">
<use xlink:href="#shape0" transform="translate(408 -48)"/>
<text x="432" y="-66.9" text-anchor="middle" font-family="Arial" font-size="17" fill="#000000">M</text>
</g>
<g class="key">
<use xlink:href="#shape0" transform="translate(456 -48)"/>
<text x="480" y="-59.42" text-anchor="middle" font-family="Arial" font-size="13.6" fill="#000000">,</text>
<text x="480" y="-76.42" text-anchor="middle" font-family="Arial" font-size="13.6" fill="#000000">&lt;</text>
</g>
<g class="key">
<use xlink:href="#shape0" transform="translate(504 -48)"/>
<text x="528" y="-59.42" text-anchor="middle" font-family="Arial" font-size="13.6" fill="#000000">.</text>
<text x="528" y="-76.42" text-anchor="middle" font-family="Arial" font-size="13.6" fill="#000000">&gt;</text>
</g>
<g class="key">
<use xlink:href="#shape0" transform="translate(552 -48)"/>
<text x="576" y="-59.42" text-anchor="middle" font-family="Arial" font-size="13.6" fill="#000000">/</text>
<text x="576" y="-76.42" text-anchor="middle" font-family="Arial" font-size="13.6" fill="#000000">?</text>
</g>
<g class="key">
<use xlink:href="#shape6" transform="translate(600 -48)"/>
<text x="660" y="-68.6" text-anchor="middle" font-family="Arial" font-size="11.333" fill="#000000">shift</text>
</g>
<g class="key">
<use xlink:href="#shape0" transform="translate(768 -48)"/>
<text x="792" y="-66.9" text-anchor="middle" font-family="Arial" font-size="17" fill="#000000">1</text>
</g>
<g class="key">
<use xlink:href="#shape0" transform="translate(816 -48)"/>
<text x="840" y="-66.9" text-anchor="middle" font-family="Arial" font-size="17" fill="#000000">2</text>
</g>
<g class="key">
<use xlink:href="#shape0" transform="translate(864 -48)"/>
<text x="888" y="-66.9" text-anchor="middle" font-family="Arial" font-size="17" fill="#000000">3</text>
</g>
<g class="key">
<use xlink:href="#shape4" transform="translate(0 -96)"/>
<text x="48" y="-116.6" text-anchor="middle" font-family="Arial" font-size="11.333" fill="#000000">caps lock</text>
</g>
<g class="key">
<use xlink:href="#shape0" transform="translate(96 -96)"/>
<text x="120" y="-114.9" text-anchor="middle" font-family="Arial" font-size="17" fill="#000000">A</text>
</g>
<g class="key">
<use xlink:href="#shape0" transform="translate(144 -96)"/>
<text x="168" y="-114.9" text-anchor="middle" font-family="Arial" font-size="17" fill="#000000">S</text>
</g>
<g class="key">
<use xlink:href="#shape0" transform="translate(192 -96)"/>
<text x="216" y="-114.9" text-anchor="middle" font-family="Arial" font-size="17" fill="#000000">D</text>
</g>
<g class="key">
<use xlink:href="#shape0" transform="translate(240 -96)"/>
<text x="264" y="-114.9" text-anchor="middle" font-family="Arial" font-size="17" fill="#000000">F</text>
</g>
<g class="key">
<use xlink:href="#shape0" transform="translate(288 -96)"/>
<text x="312" y="-114.9" text-anchor="middle" font-family="Arial" font-size="17" fill="#000000">G</text>
</g>
<g class="key">
<use xlink:href="#shape0" transform="translate(336 -96)"/>
<text x="360" y="-114.9" text-anchor="middle" font-family="Arial" font-size="17" fill="#000000">H</text>
</g>
<g class="key">
<use xlink:href="#shape0" transform="translate(384 -96)"/>
<text x="408" y="-114.9" text-anchor="middle" font-family="Arial" font-size="17" fill="#000000">J</text>
</g>
<g class="key">
<use xlink:href="#shape0" transform="translate(432 -96)"/>
<text x="456" y="-114.9" text-anchor="middle" font-family="Arial" font-size="17" fill="#000000">K</text>
</g>
<g class="key">
<use xlink:href="#shape0" transform="translate(480 -96)"/>
<text x="504" y="-114.9" text-anchor="middle" font-family="Arial" font-size="17" fill="#000000">L</text>
</g>
<g class="key">
<use xlink:href="#shape0" transform="translate(528 -96)"/>
<text x="552" y="-107.42" text-anchor="middle" font-family="Arial" font-size="13.6" fill="#000000">;</text>
<text x="552" y="-124.42" text-anchor="middle" font-family="Arial" font-size="13.6" fill="#000000">:</text>
</g>
<g class="key">
<use xlink:href="#shape0" transform="translate(576 -96)"/>
<text x="600" y="-107.42" text-anchor="middle" font-family="Arial" font-size="13.6" fill="#000000">&#39;</text>
<text x="600" y="-124.42" text-anchor="middle" font-family="Arial" font-size="13.6" fill="#000000">&#34;</text>
</g>
<g class="key">
<use xlink:href="#shape4" transform="translate(624 -96)"/>
<text x="672" y="-116.6" text-anchor="middle" font-family="Arial" font-size="11.333" fill="#000000">return</text>
</g>
<g class="key">
<use xlink:href="#shape0" transform="translate(768 -96)"/>
<text x="792" y="-114.9" text-anchor="middle" font-family="Arial" font-size="17" fill="#000000">4</text>
</g>
<g class="key">
<use xlink:href="#shape0" transform="translate(816 -96)"/>
<text x="840" y="-114.9" text-anchor="middle" font-family="Arial" font-size="17" fill="#000000">5</text>
</g>
<g class="key">
<use xlink:href="#shape0" transform="translate(864 -96)"/>
<text x="888" y="-114.9" text-anchor="middle" font-family="Arial" font-size="17" fill="#000000">6</text>
</g>
<g class="key">
<use xlink:href="#shape0" transform="translate(912 -96)"/>
<text x="936" y="-114.9" text-anchor="middle" font-family="Arial" font-size="17" fill="#000000">+</text>
</g>
<g class="key">
<use xlink:href="#shape2" transform="translate(0 -144)"/>
<text x="42" y="-164.6" text-anchor="middle" font-family="Arial" font-size="11.333" fill="#000000">tab</text>
</g>
<g class="key">
<use xlink:href="#shape0" transform="translate(84 -144)"/>
<text x="108" y="-162.9" text-anchor="middle" font-family="Arial" font-size="17" fill="#000000">Q</text>
</g>
<g class="key">
<use xlink:href="#shape0" transform="translate(132 -144)"/>
<text x="156" y="-162.9" text-anchor="middle" font-family="Arial" font-size="17" fill="#000000">W</text>
</g>
<g class="key">
<use xlink:href="#shape0" transform="translate(180 -144)"/>
<text x="204" y="-162.9" text-anchor="middle" font-family="Arial" font-size="17" fill="#000000">E</text>
</g>
<g class="key">
<use xlink:href="#shape0" transform="translate(228 -144)"/>
<text x="252" y="-162.9" text-anchor="middle" font-family="Arial" font-size="17" fill="#000000">R</text>
</g>
<g class="key">
<use xlink:href="#shape0" transform="translate(276 -144)"/>
<text x="300" y="-162.9" text-anchor="middle" font-family="Arial" font-size="17" fill="#000000">T</text>
</g>
<g class="key">
<use xlink:href="#shape0" transform="translate(324 -144)"/>
<text x="348" y="-162.9" text-anchor="middle" font-family="Arial" font-size="17" fill="#000000">Y</text>
</g>
<g class="key">
<use xlink:href="#shape0" transform="translate(372 -144)"/>
<text x="396" y="-162.9" text-anchor="middle" font-family="Arial" font-size="17" fill="#000000">U</text>
</g>
<g class="key">
<use xlink:href="#shape0" transform="translate(420 -144)"/>
<text x="444" y="-162.9" text-anchor="middle" font-family="Arial" font-size="17" fill="#000000">I</text>
</g>
<g class="key">
<use xlink:href="#shape0" transform="translate(468 -144)"/>
<text x="492" y="-162.9" text-anchor="middle" font-family="Arial" font-size="17" fill="#000000">O</text>
</g>
<g class="key">
<use xlink:href="#shape0" transform="translate(516 -144)"/>
<text x="540" y="-162.9" text-anchor="middle" font-family="Arial" font-size="17" fill="#000000">P</text>
</g>
<g class="key">
<use xlink:href="#shape0" transform="translate(564 -144)"/>
<text x="588" y="-155.42" text-anchor="middle" font-family="Arial" font-size="13.6" fill="#000000">[</text>
<text x="588" y="-172.42" text-anchor="middle" font-family="Arial" font-size="13.6" fill="#000000">{</text>
</g>
<g class="key">
<use xlink:href="#shape0" transform="translate(612 -144)"/>
<text x="636" y="-155.42" text-anchor="middle" font-family="Arial" font-size="13.6" fill="#000000">]</text>
<text x="636" y="-172.42" text-anchor="middle" font-family="Arial" font-size="13.6" fill="#000000">}</text>
</g>
<g class="key">
<use xlink:href="#shape1" transform="translate(660 -144)"/>
<text x="690" y="-155.42" text-anchor="middle" font-family="Arial" font-size="13.6" fill="#000000">\</text>
<text x="690" y="-172.42" text-anchor="middle" font-family="Arial" font-size="13.6" fill="#000000">|</text>
</g>
<g class="key">
<use xlink:href="#shape0" transform="translate(768 -144)"/>
<text x="792" y="-162.9" text-anchor="middle" font-family="Arial" font-size="17" fill="#000000">7</text>
</g>
<g class="key">
<use xlink:href="#shape0" transform="translate(816 -144)"/>
<text x="840" y="-162.9" text-anchor="middle" font-family="Arial" font-size="17" fill="#000000">8</text>
</g>
<g class="key">
<use xlink:href="#shape0" transform="translate(864 -144)"/>
<text x="888" y="-162.9" text-anchor="middle" font-family="Arial" font-size="17" fill="#000000">9</text>
</g>
<g class="key">
<use xlink:href="#shape0" transform="translate(912 -144)"/>
<text x="936" y="-162.9" text-anchor="middle" font-family="Arial" font-size="17" fill="#000000">&#8722;</text>
</g>
<g class="key">
<use xlink:href="#shape1" transform="translate(0 -192)"/>
<text x="30" y="-203.42" text-anchor="middle" font-family="Arial" font-size="13.6" fill="#000000">`</text>
<text x="30" y="-220.42" text-anchor="middle" font-family="Arial" font-size="13.6" fill="#000000">~</text>
</g>
<g class="key">
<use xlink:href="#shape0" transform="translate(60 -192)"/>
<text x="84" y="-203.42" text-anchor="middle" font-family="Arial" font-size="13.6" fill="#000000">1</text>
<text x="84" y="-220.42" text-anchor="middle" font-family="Arial" font-size="13.6" fill="#000000">!</text>
</g>
<g class="key">
<use xlink:href="#shape0" transform="translate(108 -192)"/>
<text x="132" y="-203.42" text-anchor="middle" font-family="Arial" font-size="13.6" fill="#000000">2</text>
<text x="132" y="-220.42" text-anchor="middle" font-family="Arial" font-size="13.6" fill="#000000">@</text>
</g>
<g class="key">
<use xlink:href="#shape0" transform="translate(156 -192)"/>
<text x="180" y="-203.42" text-anchor="middle" font-family="Arial" font-size="13.6" fill="#000000">3</text>
<text x="180" y="-220.42" text-anchor="middle" font-family="Arial" font-size="13.6" fill="#000000">#</text>
</g>
<g class="key">
<use xlink:href="#shape0" transform="translate(204 -192)"/>
<text x="228" y="-203.42" text-anchor="middle" font-family="Arial" font-size="13.6" fill="#000000">4</text>
<text x="228" y="-220.42" text-anchor="middle" font-family="Arial" font-size="13.6" fill="#000000">$</text>
</g>
<g class="key">
<use xlink:href="#shape0" transform="translate(252 -192)"/>
<text x="276" y="-203.42" text-anchor="middle" font-family="Arial" font-size="13.6" fill="#000000">5</text>
<text x="276" y="-220.42" text-anchor="middle" font-family="Arial" font-size="13.6" fill="#000000">%</text>
</g>
<g class="key">
<use xlink:href="#shape0" transform="translate(300 -192)"/>
<text x="324" y="-203.42" text-anchor="middle" font-family="Arial" font-size="13.6" fill="#000000">6</text>
<text x="324" y="-220.42" text-anchor="middle" font-family="Arial" font-size="13.6" fill="#000000">^</text>
</g>
<g class="key">
<use xlink:href="#shape0" transform="translate(348 -192)"/>
<text x="372" y="-203.42" text-anchor="middle" font-family="Arial" font-size="13.6" fill="#000000">7</text>
<text x="372" y="-220.42" text-anchor="middle" font-family="Arial" font-size="13.6" fill="#000000">&amp;</text>
</g>
<g class="key">
<use xlink:href="#shape0" transform="translate(396 -192)"/>
<text x="420" y="-203.42" text-anchor="middle" font-family="Arial" font-size="13.6" fill="#000000">8</text>
<text x="420" y="-220.42" text-anchor="middle" font-family="Arial" font-size="13.6" fill="#000000">*</text>
</g>
<g class="key">
<use xlink:href="#shape0" transform="translate(444 -192)"/>
<text x="468" y="-203.42" text-anchor="middle" font-family="Arial" font-size="13.6" fill="#000000">9</text>
<text x="468" y="-220.42" text-anchor="middle" font-family="Arial" font-size="13.6" fill="#000000">(</text>
</g>
<g class="key">
<use xlink:href="#shape0" transform="translate(492 -192)"/>
<text x="516" y="-203.42" text-anchor="middle" font-family="Arial" font-size="13.6" fill="#000000">0</text>
<text x="516" y="-220.42" text-anchor="middle" font-family="Arial" font-size="13.6" fill="#000000">)</text>
</g>
<g class="key">
<use xlink:href="#shape0" transform="translate(540 -192)"/>
<text x="564" y="-203.42" text-anchor="middle" font-family="Arial" font-size="13.6" fill="#000000">&#8722;</text>
<text x="564" y="-220.42" text-anchor="middle" font-family="Arial" font-size="13.6" fill="#000000">_</text>
</g>
<g class="key">
<use xlink:href="#shape0" transform="translate(588 -192)"/>
<text x="612" y="-203.42" text-anchor="middle" font-family="Arial" font-size="13.6" fill="#000000">=</text>
<text x="612" y="-220.42" text-anchor="middle" font-family="Arial" font-size="13.6" fill="#000000">+</text>
</g>
<g class="key">
<use xlink:href="#shape2" transform="translate(636 -192)"/>
<text x="678" y="-212.6" text-anchor="middle" font-family="Arial" font-size="11.333" fill="#000000">delete</text>
</g>
<g class="key">
<use xlink:href="#shape0" transform="translate(768 -192)"/>
<text x="792" y="-212.6" text-anchor="middle" font-family="Arial" font-size="11.333" fill="#000000">clear</text>
</g>
<g class="key">
<use xlink:href="#shape0" transform="translate(816 -192)"/>
<text x="840" y="-210.9" text-anchor="middle" font-family="Arial" font-size="17" fill="#000000">=</text>
</g>
<g class="key">
<use xlink:href="#shape0" transform="translate(864 -192)"/>
<text x="888" y="-210.9" text-anchor="middle" font-family="Arial" font-size="17" fill="#000000">/</text>
</g>
<g class="key">
<use xlink:href="#shape0" transform="translate(912 -192)"/>
<text x="936" y="-210.9" text-anchor="middle" font-family="Arial" font-size="17" fill="#000000">*</text>
</g>
<g class="key">
<use xlink:href="#shape4" transform="translate(228 -288)"/>
<text x="276" y="-308.6" text-anchor="middle" font-family="Arial" font-size="11.333" fill="#000000">&#9665;</text>
</g>
</g>
</svg>

