<?xml version="1.0"?>
<svg xmlns="http://www.w3.org/2000/svg" xmlns:xlink="http://www.w3.org/1999/xlink" version="1.1" width="888" height="288" viewBox="-96 -240 888 288">
<defs>
<g id="shape0">
<path d="M 3 -71 C 1.896 -71 1 -70.104 1 -69 L 1 -65 L 1 -7 L 7 -7 L 7 -65 L 329 -65 L 329 -7 L 335 -7 L 335 -65 L 335 -69 C 335 -70.104 334.104 -71 333 -71 Z M 1 -7 L 1 -3 C 1 -1.896 1.896 -1 3 -1 L 333 -1 C 334.104 -1 335 -1.896 335 -3 L 335 -7 Z" fill="#000000"/>
<path d="M 333.707 -69.707 L 329 -65 L 329 -7 L 334 -7 L 334 -65 L 334 -69 C 334 -69.276 333.888 -69.526 333.707 -69.707 Z M 7 -7 L 2.293 -2.293 C 2.474 -2.112 2.724 -2 3 -2 L 333 -2 C 333.553 -2 334 -2.447 334 -3 L 334 -7 Z" fill="#555555"/>
<path d="M 332.766 -68.765 L 329 -65 L 329 -7 L 333 -7 L 333 -65 L 333 -68.2 C 333 -68.421 332.91 -68.621 332.766 -68.765 Z M 7 -7 L 3.234 -3.234 C 3.379 -3.09 3.579 -3 3.8 -3 L 332.2 -3 C 332.642 -3 333 -3.358 333 -3.8 L 333 -7 Z" fill="#777777"/>
<path d="M 331.824 -67.824 L 329 -65 L 329 -7 L 332 -7 L 332 -65 L 332 -67.4 C 332 -67.566 331.933 -67.716 331.824 -67.824 Z M 7 -7 L 4.176 -4.176 C 4.284 -4.067 4.435 -4 4.6 -4 L 331.4 -4 C 331.731 -4 332 -4.269 332 -4.6 L 332 -7 Z" fill="#888888"/>
<path d="M 3 -70 C 2.448 -70 2 -69.552 2 -69 L 2 -65 L 2 -7 L 7 -7 L 7 -65 L 329 -65 L 329 -7 L 331 -7 L 331 -65 L 331 -66.6 C 331 -66.71 330.955 -66.81 330.883 -66.883 L 333.707 -69.707 C 333.526 -69.888 333.276 -70 333 -70 Z M 2 -7 L 2 -3 C 2 -2.724 2.112 -2.474 2.293 -2.293 L 5.117 -5.117 C 5.189 -5.045 5.29 -5 5.4 -5 L 330.6 -5 C 330.821 -5 331 -5.179 331 -5.4 L 331 -7 Z" fill="#aaaaaa"/>
<path d="M 3.8 -69 C 3.358 -69 3 -68.642 3 -68.2 L 3 -65 L 3 -7 L 7 -7 L 7 -65 L 329 -65 L 332.766 -68.766 C 332.621 -68.91 332.421 -69 332.2 -69 Z M 3 -7 L 3 -3.8 C 3 -3.579 3.09 -3.379 3.234 -3.235 L 7 -7 Z" fill="#bbbbbb"/>
<path d="M 4.6 -68 C 4.269 -68 4 -67.731 4 -67.4 L 4 -65 L 4 -7 L 7 -7 L 7 -65 L 329 -65 L 331.824 -67.824 C 331.716 -67.933 331.566 -68 331.4 -68 Z M 4 -7 L 4 -4.6 C 4 -4.434 4.067 -4.285 4.176 -4.176 L 7 -7 Z" fill="#dddddd"/>
<path d="M 5.4 -67 C 5.179 -67 5 -66.821 5 -66.6 L 5 -65 L 5 -7 L 7 -7 L 7 -65 L 329 -65 L 330.883 -66.883 C 330.811 -66.955 330.71 -67 330.6 -67 Z M 5 -7 L 5 -5.4 C 5 -5.29 5.045 -5.189 5.117 -5.117 L 7 -7 Z" fill="#eeeeee"/>
<path d="M 6.2 -66 C 6.089 -66 6 -65.911 6 -65.8 L 6 -65 L 6 -7 L 7 -7 L 7 -7 L 6 -7 L 6 -6.2 C 6 -6.09 6.089 -6 6.2 -6 L 329.8 -6 C 329.91 -6 330 -6.09 330 -6.2 L 330 -7 L 329 -7 L 329 -7 L 330 -7 L 330 -65 L 330 -65.8 C 330 -65.911 329.91 -66 329.8 -66 Z" fill="#cccccc"/>
<path d="M 331 -5.707 L 331 -5.4 C 331 -5.179 330.821 -5 330.6 -5 L 330.293 -5 L 333.244 -2.049 C 333.595 -2.14 333.86 -2.405 333.951 -2.756 L 331 -5.707 Z" fill="#555555"/>
<path d="M 333.244 -69.951 L 329.293 -66 L 329.8 -66 C 329.91 -66 330 -65.911 330 -65.8 L 330 -65.293 L 333.951 -69.244 C 333.905 -69.42 333.831 -69.583 333.707 -69.707 C 333.583 -69.832 333.42 -69.906 333.244 -69.951 Z M 330 -6.707 L 330 -6.2 C 330 -6.09 329.91 -6 329.8 -6 L 329.293 -6 L 330.293 -5 L 330.6 -5 C 330.821 -5 331 -5.179 331 -5.4 L 331 -5.707 L 330 -6.707 Z" fill="#777777"/>
<path d="M 2.756 -69.951 C 2.405 -69.86 2.14 -69.595 2.049 -69.244 L 6 -65.293 L 6 -65.8 C 6 -65.911 6.089 -66 6.2 -66 L 6.707 -66 L 2.756 -69.951 Z M 6 -6.707 L 2.049 -2.756 C 2.094 -2.58 2.168 -2.417 2.293 -2.293 C 2.417 -2.169 2.581 -2.095 2.756 -2.049 L 6.708 -6 L 6.2 -6 C 6.089 -6 6 -6.09 6 -6.2 L 6 -6.707 Z" fill="#eeeeee"/>
</g>
<g id="shape1">
<path d="M 3 -47 C 1.896 -47 1 -46.104 1 -45 L 1 -41 L 1 -7 L 1 -3 C 1 -1.896 1.896 -1 3 -1 L 65 -1 L 65 -7 L 7 -7 L 7 -41 L 65 -41 L 65 -47 Z M 65 -47 L 65 -41 L 65 -7 L 65 -1 L 69 -1 C 70.104 -1 71 -1.896 71 -3 L 71 -7 L 71 -41 L 71 -45 C 71 -46.104 70.104 -47 69 -47 Z" fill="#000000"/>
<path d="M 7 -7 L 2.293 -2.293 C 2.474 -2.112 2.724 -2 3 -2 L 65 -2 L 65 -7 Z M 69.707 -45.707 L 65 -41 L 65 -7 L 65 -2 L 69 -2 C 69.553 -2 70 -2.447 70 -3 L 70 -7 L 70 -41 L 70 -45 C 70 -45.276 69.888 -45.526 69.707 -45.707 Z" fill="#555555"/>
<path d="M 7 -7 L 3.234 -3.234 C 3.379 -3.09 3.579 -3 3.8 -3 L 65 -3 L 65 -7 Z M 68.766 -44.765 L 65 -41 L 65 -7 L 65 -3 L 68.2 -3 C 68.642 -3 69 -3.358 69 -3.8 L 69 -7 L 69 -41 L 69 -44.2 C 69 -44.421 68.91 -44.621 68.766 -44.765 Z" fill="#777777"/>
<path d="M 7 -7 L 4.176 -4.176 C 4.284 -4.067 4.435 -4 4.6 -4 L 65 -4 L 65 -7 Z M 67.824 -43.824 L 65 -41 L 65 -7 L 65 -4 L 67.4 -4 C 67.731 -4 68 -4.269 68 -4.6 L 68 -7 L 68 -41 L 68 -43.4 C 68 -43.566 67.933 -43.716 67.824 -43.824 Z" fill="#888888"/>
<path d="M 65 -46 L 65 -41 L 65 -7 L 65 -5 L 66.6 -5 C 66.821 -5 67 -5.179 67 -5.4 L 67 -7 L 67 -41 L 67 -42.6 C 67 -42.71 66.955 -42.81 66.883 -42.883 L 69.707 -45.707 C 69.526 -45.888 69.276 -46 69 -46 Z M 3 -46 C 2.448 -46 2 -45.552 2 -45 L 2 -41 L 2 -7 L 2 -3 C 2 -2.724 2.112 -2.474 2.293 -2.293 L 5.117 -5.117 C 5.189 -5.045 5.29 -5 5.4 -5 L 65 -5 L 65 -7 L 7 -7 L 7 -41 L 65 -41 L 65 -46 Z" fill="#aaaaaa"/>
<path d="M 65 -45 L 65 -41 L 68.766 -44.766 C 68.621 -44.91 68.421 -45 68.2 -45 Z M 3.8 -45 C 3.358 -45 3 -44.642 3 -44.2 L 3 -41 L 3 -7 L 3 -3.8 C 3 -3.579 3.09 -3.379 3.234 -3.235 L 7 -7 L 7 -7 L 7 -41 L 65 -41 L 65 -45 Z" fill="#bbbbbb"/>
<path d="M 65 -44 L 65 -41 L 67.824 -43.824 C 67.716 -43.933 67.566 -44 67.4 -44 Z M 4.6 -44 C 4.269 -44 4 -43.731 4 -43.4 L 4 -41 L 4 -7 L 4 -4.6 C 4 -4.434 4.067 -4.285 4.176 -4.176 L 7 -7 L 7 -7 L 7 -41 L 65 -41 L 65 -44 Z" fill="#dddddd"/>
<path d="M 65 -43 L 65 -41 L 66.883 -42.883 C 66.811 -42.955 66.71 -43 66.6 -43 Z M 5.4 -43 C 5.179 -43 5 -42.821 5 -42.6 L 5 -41 L 5 -7 L 5 -5.4 C 5 -5.29 5.045 -5.189 5.117 -5.117 L 7 -7 L 7 -7 L 7 -41 L 65 -41 L 65 -43 Z" fill="#eeeeee"/>
<path d="M 6.2 -42 C 6.089 -42 6 -41.911 6 -41.8 L 6 -41 L 6 -7 L 6 -6.2 C 6 -6.09 6.089 -6 6.2 -6 L 65 -6 L 65 -7 L 65 -7 L 65 -6 L 65.8 -6 C 65.91 -6 66 -6.09 66 -6.2 L 66 -7 L 66 -41 L 66 -41.8 C 66 -41.911 65.91 -42 65.8 -42 L 65 -42 L 65 -41 L 65 -41 L 65 -42 Z" fill="#cccccc"/>
<path d="M 67 -5.707 L 67 -5.4 C 67 -5.179 66.821 -5 66.6 -5 L 66.293 -5 L 69.244 -2.049 C 69.595 -2.14 69.86 -2.405 69.951 -2.756 L 67 -5.707 Z" fill="#555555"/>
<path d="M 69.244 -45.951 L 65.293 -42 L 65.8 -42 C 65.91 -42 66 -41.911 66 -41.8 L 66 -41.293 L 69.951 -45.244 C 69.905 -45.42 69.831 -45.583 69.707 -45.707 C 69.583 -45.832 69.42 -45.906 69.244 -45.951 Z M 66 -6.707 L 66 -6.2 C 66 -6.09 65.91 -6 65.8 -6 L 65.293 -6 L 66.293 -5 L 66.6 -5 C 66.821 -5 67 -5.179 67 -5.4 L 67 -5.707 L 66 -6.707 Z" fill="#777777"/>
<path d="M 2.756 -45.951 C 2.405 -45.86 2.14 -45.595 2.049 -45.244 L 6 -41.293 L 6 -41.8 C 6 -41.911 6.089 -42 6.2 -42 L 6.707 -42 L 2.756 -45.951 Z M 6 -6.707 L 2.049 -2.756 C 2.094 -2.58 2.168 -2.417 2.293 -2.293 C 2.417 -2.169 2.581 -2.095 2.756 -2.049 L 6.708 -6 L 6.2 -6 C 6.089 -6 6 -6.09 6 -6.2 L 6 -6.707 Z" fill="#eeeeee"/>
</g>
<g id="shape2">
<path d="M 53 -41 L 53 -7 L 7 -7 L 7 -41 Z M 3 -47 C 1.896 -47 1 -46.104 1 -45 L 1 -41 L 1 -7 L 1 -3 C 1 -1.896 1.896 -1 3 -1 L 57 -1 C 58.104 -1 59 -1.896 59 -3 L 59 -7 L 59 -41 L 59 -45 C 59 -46.104 58.104 -47 57 -47 Z" fill="#000000"/>
<path d="M 57.707 -45.707 L 53 -41 L 53 -7 L 7 -7 L 2.293 -2.293 C 2.474 -2.112 2.724 -2 3 -2 L 57 -2 C 57.553 -2 58 -2.447 58 -3 L 58 -7 L 58 -41 L 58 -45 C 58 -45.276 57.888 -45.526 57.707 -45.707 Z" fill="#555555"/>
<path d="M 56.766 -44.765 L 53 -41 L 53 -7 L 7 -7 L 3.234 -3.234 C 3.379 -3.09 3.579 -3 3.8 -3 L 56.2 -3 C 56.642 -3 57 -3.358 57 -3.8 L 57 -7 L 57 -41 L 57 -44.2 C 57 -44.421 56.91 -44.621 56.766 -44.765 Z" fill="#777777"/>
<path d="M 55.824 -43.824 L 53 -41 L 53 -7 L 7 -7 L 4.176 -4.176 C 4.284 -4.067 4.435 -4 4.6 -4 L 55.4 -4 C 55.731 -4 56 -4.269 56 -4.6 L 56 -7 L 56 -41 L 56 -43.4 C 56 -43.566 55.933 -43.716 55.824 -43.824 Z" fill="#888888"/>
<path d="M 53 -41 L 53 -7 L 7 -7 L 7 -41 Z M 3 -46 C 2.448 -46 2 -45.552 2 -45 L 2 -41 L 2 -7 L 2 -3 C 2 -2.724 2.112 -2.474 2.293 -2.293 L 5.117 -5.117 C 5.189 -5.045 5.29 -5 5.4 -5 L 54.6 -5 C 54.821 -5 55 -5.179 55 -5.4 L 55 -7 L 55 -41 L 55 -42.6 C 55 -42.71 54.955 -42.81 54.883 -42.883 L 57.707 -45.707 C 57.526 -45.888 57.276 -46 57 -46 Z" fill="#aaaaaa"/>
<path d="M 3.8 -45 C 3.358 -45 3 -44.642 3 -44.2 L 3 -41 L 3 -7 L 3 -3.8 C 3 -3.579 3.09 -3.379 3.234 -3.235 L 7 -7 L 7 -7 L 7 -41 L 53 -41 L 53 -41 L 56.766 -44.766 C 56.621 -44.91 56.421 -45 56.2 -45 Z" fill="#bbbbbb"/>
<path d="M 4.6 -44 C 4.269 -44 4 -43.731 4 -43.4 L 4 -41 L 4 -7 L 4 -4.6 C 4 -4.434 4.067 -4.285 4.176 -4.176 L 7 -7 L 7 -7 L 7 -41 L 53 -41 L 53 -41 L 55.824 -43.824 C 55.716 -43.933 55.566 -44 55.4 -44 Z" fill="#dddddd"/>
<path d="M 5.4 -43 C 5.179 -43 5 -42.821 5 -42.6 L 5 -41 L 5 -7 L 5 -5.4 C 5 -5.29 5.045 -5.189 5.117 -5.117 L 7 -7 L 7 -7 L 7 -41 L 53 -41 L 53 -41 L 54.883 -42.883 C 54.811 -42.955 54.71 -43 54.6 -43 Z" fill="#eeeeee"/>
<path d="M 6.2 -42 C 6.089 -42 6 -41.911 6 -41.8 L 6 -41 L 6 -7 L 6 -6.2 C 6 -6.09 6.089 -6 6.2 -6 L 53.8 -6 C 53.91 -6 54 -6.09 54 -6.2 L 54 -7 L 54 -41 L 54 -41.8 C 54 -41.911 53.91 -42 53.8 -42 Z" fill="#cccccc"/>
<path d="M 55 -5.707 L 55 -5.4 C 55 -5.179 54.821 -5 54.6 -5 L 54.293 -5 L 57.244 -2.049 C 57.595 -2.14 57.86 -2.405 57.951 -2.756 L 55 -5.707 Z" fill="#555555"/>
<path d="M 57.244 -45.951 L 53.293 -42 L 53.8 -42 C 53.91 -42 54 -41.911 54 -41.8 L 54 -41.293 L 57.951 -45.244 C 57.905 -45.42 57.831 -45.583 57.707 -45.707 C 57.583 -45.832 57.42 -45.906 57.244 -45.951 Z M 54 -6.707 L 54 -6.2 C 54 -6.09 53.91 -6 53.8 -6 L 53.293 -6 L 54.293 -5 L 54.6 -5 C 54.821 -5 55 -5.179 55 -5.4 L 55 -5.707 L 54 -6.707 Z" fill="#777777"/>
<path d="M 2.756 -45.951 C 2.405 -45.86 2.14 -45.595 2.049 -45.244 L 6 -41.293 L 6 -41.8 C 6 -41.911 6.089 -42 6.2 -42 L 6.707 -42 L 2.756 -45.951 Z M 6 -6.707 L 2.049 -2.756 C 2.094 -2.58 2.168 -2.417 2.293 -2.293 C 2.417 -2.169 2.581 -2.095 2.756 -2.049 L 6.708 -6 L 6.2 -6 C 6.089 -6 6 -6.09 6 -6.2 L 6 -6.707 Z" fill="#eeeeee"/>
</g>
<g id="shape3">
<path d="M 41 -41 L 41 -7 L 7 -7 L 7 -41 Z M 3 -47 C 1.896 -47 1 -46.104 1 -45 L 1 -41 L 1 -7 L 1 -3 C 1 -1.896 1.896 -1 3 -1 L 45 -1 C 46.104 -1 47 -1.896 47 -3 L 47 -7 L 47 -41 L 47 -45 C 47 -46.104 46.104 -47 45 -47 Z" fill="#000000"/>
<path d="M 45.707 -45.707 L 41 -41 L 41 -7 L 7 -7 L 2.293 -2.293 C 2.474 -2.112 2.724 -2 3 -2 L 45 -2 C 45.553 -2 46 -2.447 46 -3 L 46 -7 L 46 -41 L 46 -45 C 46 -45.276 45.888 -45.526 45.707 -45.707 Z" fill="#555555"/>
<path d="M 44.766 -44.765 L 41 -41 L 41 -7 L 7 -7 L 3.234 -3.234 C 3.379 -3.09 3.579 -3 3.8 -3 L 44.2 -3 C 44.642 -3 45 -3.358 45 -3.8 L 45 -7 L 45 -41 L 45 -44.2 C 45 -44.421 44.91 -44.621 44.766 -44.765 Z" fill="#777777"/>
<path d="M 43.824 -43.824 L 41 -41 L 41 -7 L 7 -7 L 4.176 -4.176 C 4.284 -4.067 4.435 -4 4.6 -4 L 43.4 -4 C 43.731 -4 44 -4.269 44 -4.6 L 44 -7 L 44 -41 L 44 -43.4 C 44 -43.566 43.933 -43.716 43.824 -43.824 Z" fill="#888888"/>
<path d="M 41 -41 L 41 -7 L 7 -7 L 7 -41 Z M 3 -46 C 2.448 -46 2 -45.552 2 -45 L 2 -41 L 2 -7 L 2 -3 C 2 -2.724 2.112 -2.474 2.293 -2.293 L 5.117 -5.117 C 5.189 -5.045 5.29 -5 5.4 -5 L 42.6 -5 C 42.821 -5 43 -5.179 43 -5.4 L 43 -7 L 43 -41 L 43 -42.6 C 43 -42.71 42.955 -42.81 42.883 -42.883 L 45.707 -45.707 C 45.526 -45.888 45.276 -46 45 -46 Z" fill="#aaaaaa"/>
<path d="M 3.8 -45 C 3.358 -45 3 -44.642 3 -44.2 L 3 -41 L 3 -7 L 3 -3.8 C 3 -3.579 3.09 -3.379 3.234 -3.235 L 7 -7 L 7 -7 L 7 -41 L 41 -41 L 41 -41 L 44.766 -44.766 C 44.621 -44.91 44.421 -45 44.2 -45 Z" fill="#bbbbbb"/>
<path d="M 4.6 -44 C 4.269 -44 4 -43.731 4 -43.4 L 4 -41 L 4 -7 L 4 -4.6 C 4 -4.434 4.067 -4.285 4.176 -4.176 L 7 -7 L 7 -7 L 7 -41 L 41 -41 L 41 -41 L 43.824 -43.824 C 43.716 -43.933 43.566 -44 43.4 -44 Z" fill="#dddddd"/>
<path d="M 5.4 -43 C 5.179 -43 5 -42.821 5 -42.6 L 5 -41 L 5 -7 L 5 -5.4 C 5 -5.29 5.045 -5.189 5.117 -5.117 L 7 -7 L 7 -7 L 7 -41 L 41 -41 L 41 -41 L 42.883 -42.883 C 42.811 -42.955 42.71 -43 42.6 -43 Z" fill="#eeeeee"/>
<path d="M 6.2 -42 C 6.089 -42 6 -41.911 6 -41.8 L 6 -41 L 6 -7 L 6 -6.2 C 6 -6.09 6.089 -6 6.2 -6 L 41.8 -6 C 41.91 -6 42 -6.09 42 -6.2 L 42 -7 L 42 -41 L 42 -41.8 C 42 -41.911 41.91 -42 41.8 -42 Z" fill="#cccccc"/>
<path d="M 43 -5.707 L 43 -5.4 C 43 -5.179 42.821 -5 42.6 -5 L 42.293 -5 L 45.244 -2.049 C 45.595 -2.14 45.86 -2.405 45.951 -2.756 L 43 -5.707 Z" fill="#555555"/>
<path d="M 45.244 -45.951 L 41.293 -42 L 41.8 -42 C 41.91 -42 42 -41.911 42 -41.8 L 42 -41.293 L 45.951 -45.244 C 45.905 -45.42 45.831 -45.583 45.707 -45.707 C 45.583 -45.832 45.42 -45.906 45.244 -45.951 Z M 42 -6.707 L 42 -6.2 C 42 -6.09 41.91 -6 41.8 -6 L 41.293 -6 L 42.293 -5 L 42.6 -5 C 42.821 -5 43 -5.179 43 -5.4 L 43 -5.707 L 42 -6.707 Z" fill="#777777"/>
<path d="M 2.756 -45.951 C 2.405 -45.86 2.14 -45.595 2.049 -45.244 L 6 -41.293 L 6 -41.8 C 6 -41.911 6.089 -42 6.2 -42 L 6.707 -42 L 2.756 -45.951 Z M 6 -6.707 L 2.049 -2.756 C 2.094 -2.58 2.168 -2.417 2.293 -2.293 C 2.417 -2.169 2.581 -2.095 2.756 -2.049 L 6.708 -6 L 6.2 -6 C 6.089 -6 6 -6.09 6 -6.2 L 6 -6.707 Z" fill="#eeeeee"/>
</g>
<g id="shape4">
<path d="M 77 -41 L 77 -7 L 7 -7 L 7 -41 Z M 3 -47 C 1.896 -47 1 -46.104 1 -45 L 1 -41 L 1 -7 L 1 -3 C 1 -1.896 1.896 -1 3 -1 L 81 -1 C 82.104 -1 83 -1.896 83 -3 L 83 -7 L 83 -41 L 83 -45 C 83 -46.104 82.104 -47 81 -47 Z" fill="#000000"/>
<path d="M 81.707 -45.707 L 77 -41 L 77 -7 L 7 -7 L 2.293 -2.293 C 2.474 -2.112 2.724 -2 3 -2 L 81 -2 C 81.553 -2 82 -2.447 82 -3 L 82 -7 L 82 -41 L 82 -45 C 82 -45.276 81.888 -45.526 81.707 -45.707 Z" fill="#555555"/>
<path d="M 80.766 -44.765 L 77 -41 L 77 -7 L 7 -7 L 3.234 -3.234 C 3.379 -3.09 3.579 -3 3.8 -3 L 80.2 -3 C 80.642 -3 81 -3.358 81 -3.8 L 81 -7 L 81 -41 L 81 -44.2 C 81 -44.421 80.91 -44.621 80.766 -44.765 Z" fill="#777777"/>
<path d="M 79.824 -43.824 L 77 -41 L 77 -7 L 7 -7 L 4.176 -4.176 C 4.284 -4.067 4.435 -4 4.6 -4 L 79.4 -4 C 79.731 -4 80 -4.269 80 -4.6 L 80 -7 L 80 -41 L 80 -43.4 C 80 -43.566 79.933 -43.716 79.824 -43.824 Z" fill="#888888"/>
<path d="M 77 -41 L 77 -7 L 7 -7 L 7 -41 Z M 3 -46 C 2.448 -46 2 -45.552 2 -45 L 2 -41 L 2 -7 L 2 -3 C 2 -2.724 2.112 -2.474 2.293 -2.293 L 5.117 -5.117 C 5.189 -5.045 5.29 -5 5.4 -5 L 78.6 -5 C 78.821 -5 79 -5.179 79 -5.4 L 79 -7 L 79 -41 L 79 -42.6 C 79 -42.71 78.955 -42.81 78.883 -42.883 L 81.707 -45.707 C 81.526 -45.888 81.276 -46 81 -46 Z" fill="#aaaaaa"/>
<path d="M 3.8 -45 C 3.358 -45 3 -44.642 3 -44.2 L 3 -41 L 3 -7 L 3 -3.8 C 3 -3.579 3.09 -3.379 3.234 -3.235 L 7 -7 L 7 -7 L 7 -41 L 77 -41 L 80.766 -44.766 C 80.621 -44.91 80.421 -45 80.2 -45 Z" fill="#bbbbbb"/>
<path d="M 4.6 -44 C 4.269 -44 4 -43.731 4 -43.4 L 4 -41 L 4 -7 L 4 -4.6 C 4 -4.434 4.067 -4.285 4.176 -4.176 L 7 -7 L 7 -7 L 7 -41 L 77 -41 L 79.824 -43.824 C 79.716 -43.933 79.566 -44 79.4 -44 Z" fill="#dddddd"/>
<path d="M 5.4 -43 C 5.179 -43 5 -42.821 5 -42.6 L 5 -41 L 5 -7 L 5 -5.4 C 5 -5.29 5.045 -5.189 5.117 -5.117 L 7 -7 L 7 -7 L 7 -41 L 77 -41 L 78.883 -42.883 C 78.811 -42.955 78.71 -43 78.6 -43 Z" fill="#eeeeee"/>
<path d="M 6.2 -42 C 6.089 -42 6 -41.911 6 -41.8 L 6 -41 L 6 -7 L 6 -6.2 C 6 -6.09 6.089 -6 6.2 -6 L 77.8 -6 C 77.91 -6 78 -6.09 78 -6.2 L 78 -7 L 78 -41 L 78 -41.8 C 78 -41.911 77.91 -42 77.8 -42 Z" fill="#cccccc"/>
<path d="M 79 -5.707 L 79 -5.4 C 79 -5.179 78.821 -5 78.6 -5 L 78.293 -5 L 81.244 -2.049 C 81.595 -2.14 81.86 -2.405 81.951 -2.756 L 79 -5.707 Z" fill="#555555"/>
<path d="M 81.244 -45.951 L 77.293 -42 L 77.8 -42 C 77.91 -42 78 -41.911 78 -41.8 L 78 -41.293 L 81.951 -45.244 C 81.905 -45.42 81.831 -45.583 81.707 -45.707 C 81.583 -45.832 81.42 -45.906 81.244 -45.951 Z M 78 -6.707 L 78 -6.2 C 78 -6.09 77.91 -6 77.8 -6 L 77.293 -6 L 78.293 -5 L 78.6 -5 C 78.821 -5 79 -5.179 79 -5.4 L 79 -5.707 L 78 -6.707 Z" fill="#777777"/>
<path d="M 2.756 -45.951 C 2.405 -45.86 2.14 -45.595 2.049 -45.244 L 6 -41.293 L 6 -41.8 C 6 -41.911 6.089 -42 6.2 -42 L 6.707 -42 L 2.756 -45.951 Z M 6 -6.707 L 2.049 -2.756 C 2.094 -2.58 2.168 -2.417 2.293 -2.293 C 2.417 -2.169 2.581 -2.095 2.756 -2.049 L 6.708 -6 L 6.2 -6 C 6.089 -6 6 -6.09 6 -6.2 L 6 -6.707 Z" fill="#eeeeee"/>
</g>
<g id="shape5">
<path d="M 101 -41 L 101 -7 L 7 -7 L 7 -41 Z M 3 -47 C 1.896 -47 1 -46.104 1 -45 L 1 -41 L 1 -7 L 1 -3 C 1 -1.896 1.896 -1 3 -1 L 105 -1 C 106.104 -1 107 -1.896 107 -3 L 107 -7 L 107 -41 L 107 -45 C 107 -46.104 106.104 -47 105 -47 Z" fill="#000000"/>
<path d="M 105.707 -45.707 L 101 -41 L 101 -7 L 7 -7 L 2.293 -2.293 C 2.474 -2.112 2.724 -2 3 -2 L 105 -2 C 105.553 -2 106 -2.447 106 -3 L 106 -7 L 106 -41 L 106 -45 C 106 -45.276 105.888 -45.526 105.707 -45.707 Z" fill="#555555"/>
<path d="M 104.766 -44.765 L 101 -41 L 101 -7 L 7 -7 L 3.234 -3.234 C 3.379 -3.09 3.579 -3 3.8 -3 L 104.2 -3 C 104.642 -3 105 -3.358 105 -3.8 L 105 -7 L 105 -41 L 105 -44.2 C 105 -44.421 104.91 -44.621 104.766 -44.765 Z" fill="#777777"/>
<path d="M 103.824 -43.824 L 101 -41 L 101 -7 L 7 -7 L 4.176 -4.176 C 4.284 -4.067 4.435 -4 4.6 -4 L 103.4 -4 C 103.731 -4 104 -4.269 104 -4.6 L 104 -7 L 104 -41 L 104 -43.4 C 104 -43.566 103.933 -43.716 103.824 -43.824 Z" fill="#888888"/>
<path d="M 101 -41 L 101 -7 L 7 -7 L 7 -41 Z M 3 -46 C 2.448 -46 2 -45.552 2 -45 L 2 -41 L 2 -7 L 2 -3 C 2 -2.724 2.112 -2.474 2.293 -2.293 L 5.117 -5.117 C 5.189 -5.045 5.29 -5 5.4 -5 L 102.6 -5 C 102.821 -5 103 -5.179 103 -5.4 L 103 -7 L 103 -41 L 103 -42.6 C 103 -42.71 102.955 -42.81 102.883 -42.883 L 105.707 -45.707 C 105.526 -45.888 105.276 -46 105 -46 Z" fill="#aaaaaa"/>
<path d="M 3.8 -45 C 3.358 -45 3 -44.642 3 -44.2 L 3 -41 L 3 -7 L 3 -3.8 C 3 -3.579 3.09 -3.379 3.234 -3.235 L 7 -7 L 7 -7 L 7 -41 L 101 -41 L 101 -41 L 104.766 -44.766 C 104.621 -44.91 104.421 -45 104.2 -45 Z" fill="#bbbbbb"/>
<path d="M 4.6 -44 C 4.269 -44 4 -43.731 4 -43.4 L 4 -41 L 4 -7 L 4 -4.6 C 4 -4.434 4.067 -4.285 4.176 -4.176 L 7 -7 L 7 -7 L 7 -41 L 101 -41 L 101 -41 L 103.824 -43.824 C 103.716 -43.933 103.566 -44 103.4 -44 Z" fill="#dddddd"/>
<path d="M 5.4 -43 C 5.179 -43 5 -42.821 5 -42.6 L 5 -41 L 5 -7 L 5 -5.4 C 5 -5.29 5.045 -5.189 5.117 -5.117 L 7 -7 L 7 -7 L 7 -41 L 101 -41 L 101 -41 L 102.883 -42.883 C 102.811 -42.955 102.71 -43 102.6 -43 Z" fill="#eeeeee"/>
<path d="M 6.2 -42 C 6.089 -42 6 -41.911 6 -41.8 L 6 -41 L 6 -7 L 6 -6.2 C 6 -6.09 6.089 -6 6.2 -6 L 101.8 -6 C 101.91 -6 102 -6.09 102 -6.2 L 102 -7 L 102 -41 L 102 -41.8 C 102 -41.911 101.91 -42 101.8 -42 Z" fill="#cccccc"/>
<path d="M 103 -5.707 L 103 -5.4 C 103 -5.179 102.821 -5 102.6 -5 L 102.293 -5 L 105.244 -2.049 C 105.595 -2.14 105.86 -2.405 105.951 -2.756 L 103 -5.707 Z" fill="#555555"/>
<path d="M 105.244 -45.951 L 101.293 -42 L 101.8 -42 C 101.91 -42 102 -41.911 102 -41.8 L 102 -41.293 L 105.951 -45.244 C 105.905 -45.42 105.831 -45.583 105.707 -45.707 C 105.583 -45.832 105.42 -45.906 105.244 -45.951 Z M 102 -6.707 L 102 -6.2 C 102 -6.09 101.91 -6 101.8 -6 L 101.293 -6 L 102.293 -5 L 102.6 -5 C 102.821 -5 103 -5.179 103 -5.4 L 103 -5.707 L 102 -6.707 Z" fill="#777777"/>
<path d="M 2.756 -45.951 C 2.405 -45.86 2.14 -45.595 2.049 -45.244 L 6 -41.293 L 6 -41.8 C 6 -41.911 6.089 -42 6.2 -42 L 6.707 -42 L 2.756 -45.951 Z M 6 -6.707 L 2.049 -2.756 C 2.094 -2.58 2.168 -2.417 2.293 -2.293 C 2.417 -2.169 2.581 -2.095 2.756 -2.049 L 6.708 -6 L 6.2 -6 C 6.089 -6 6 -6.09 6 -6.2 L 6 -6.707 Z" fill="#eeeeee"/>
</g>
<g id="shape6">
<path d="M -9 -95 C -10.104 -95 -11 -94.104 -11 -93 L -11 -89 L -11 -55 L -11 -51 C -11 -49.896 -10.104 -49 -9 -49 L 0.8 -49 C 0.91 -49 1 -48.911 1 -48.8 L 1 -48 L 1 -7 L 1 -3 C 1 -1.896 1.896 -1 3 -1 L 57 -1 C 58.104 -1 59 -1.896 59 -3 L 59 -7 L 59 -89 L 59 -93 C 59 -94.104 58.104 -95 57 -95 L 53 -95 L 53 -89 L 53 -7 L 7 -7 L 7 -48 L 7 -55 L -5 -55 L -5 -89 L 53 -89 L 53 -95 Z" fill="#000000"/>
<path d="M -5 -55 L -9.707 -50.293 C -9.526 -50.112 -9.276 -50 -9 -50 L 1.6 -50 C 1.71 -50 1.811 -49.955 1.883 -49.883 L 7 -55 Z M 57.707 -93.707 L 53 -89 L 53 -7 L 7 -7 L 2.293 -2.293 C 2.474 -2.112 2.724 -2 3 -2 L 57 -2 C 57.553 -2 58 -2.447 58 -3 L 58 -7 L 58 -89 L 58 -93 C 58 -93.276 57.888 -93.526 57.707 -93.707 Z" fill="#555555"/>
<path d="M -5 -55 L -8.766 -51.234 C -8.621 -51.09 -8.421 -51 -8.2 -51 L 2.4 -51 C 2.566 -51 2.715 -50.933 2.824 -50.824 L 7 -55 Z M 56.766 -92.765 L 53 -89 L 53 -7 L 7 -7 L 3.234 -3.234 C 3.379 -3.09 3.579 -3 3.8 -3 L 56.2 -3 C 56.642 -3 57 -3.358 57 -3.8 L 57 -7 L 57 -89 L 57 -92.2 C 57 -92.421 56.91 -92.621 56.766 -92.765 Z" fill="#777777"/>
<path d="M -5 -55 L -7.824 -52.176 C -7.716 -52.067 -7.565 -52 -7.4 -52 L 3.2 -52 C 3.421 -52 3.621 -51.91 3.765 -51.766 L 7 -55 Z M 55.824 -91.824 L 53 -89 L 53 -7 L 7 -7 L 4.176 -4.176 C 4.284 -4.067 4.435 -4 4.6 -4 L 55.4 -4 C 55.731 -4 56 -4.269 56 -4.6 L 56 -7 L 56 -89 L 56 -91.4 C 56 -91.566 55.933 -91.716 55.824 -91.824 Z" fill="#888888"/>
<path d="M -9 -94 C -9.552 -94 -10 -93.552 -10 -93 L -10 -89 L -10 -55 L -10 -51 C -10 -50.724 -9.888 -50.474 -9.707 -50.293 L -6.883 -53.117 C -6.811 -53.045 -6.71 -53 -6.6 -53 L 4 -53 C 4.276 -53 4.526 -52.888 4.707 -52.707 L 1.883 -49.883 C 1.955 -49.811 2 -49.71 2 -49.6 L 2 -48 L 2 -7 L 2 -3 C 2 -2.724 2.112 -2.474 2.293 -2.293 L 5.117 -5.117 C 5.189 -5.045 5.29 -5 5.4 -5 L 54.6 -5 C 54.821 -5 55 -5.179 55 -5.4 L 55 -7 L 55 -89 L 55 -90.6 C 55 -90.71 54.955 -90.81 54.883 -90.883 L 57.707 -93.707 C 57.526 -93.888 57.276 -94 57 -94 L 53 -94 L 53 -89 L 53 -7 L 7 -7 L 7 -48 L 7 -55 L -5 -55 L -5 -89 L 53 -89 L 53 -94 Z" fill="#aaaaaa"/>
<path d="M 53 -93 L 53 -89 L 56.766 -92.766 C 56.621 -92.91 56.421 -93 56.2 -93 Z M -8.2 -93 C -8.642 -93 -9 -92.642 -9 -92.2 L -9 -89 L -9 -55 L -9 -51.8 C -9 -51.579 -8.91 -51.379 -8.766 -51.235 L -5 -55 L -5 -55 L -5 -89 L 53 -89 L 53 -93 Z M 7 -55 L 2.824 -50.824 C 2.933 -50.716 3 -50.565 3 -50.4 L 3 -48 L 3 -7 L 3 -3.8 C 3 -3.579 3.09 -3.379 3.234 -3.235 L 7 -7 L 7 -7 L 7 -48 L 7 -55 Z" fill="#bbbbbb"/>
<path d="M 53 -92 L 53 -89 L 55.824 -91.824 C 55.716 -91.933 55.566 -92 55.4 -92 Z M -7.4 -92 C -7.731 -92 -8 -91.731 -8 -91.4 L -8 -89 L -8 -55 L -8 -52.6 C -8 -52.434 -7.933 -52.285 -7.824 -52.176 L -5 -55 L -5 -55 L -5 -89 L 53 -89 L 53 -92 Z M 7 -55 L 3.766 -51.766 C 3.91 -51.621 4 -51.421 4 -51.2 L 4 -48 L 4 -7 L 4 -4.6 C 4 -4.434 4.067 -4.285 4.176 -4.176 L 7 -7 L 7 -7 L 7 -48 L 7 -55 Z" fill="#dddddd"/>
<path d="M 53 -91 L 53 -89 L 54.883 -90.883 C 54.811 -90.955 54.71 -91 54.6 -91 Z M -6.6 -91 C -6.821 -91 -7 -90.821 -7 -90.6 L -7 -89 L -7 -55 L -7 -53.4 C -7 -53.29 -6.955 -53.189 -6.883 -53.117 L -5 -55 L -5 -55 L -5 -89 L 53 -89 L 53 -91 Z M 7 -55 L 4.707 -52.707 C 4.888 -52.526 5 -52.276 5 -52 L 5 -48 L 5 -7 L 5 -5.4 C 5 -5.29 5.045 -5.189 5.117 -5.117 L 7 -7 L 7 -7 L 7 -48 L 7 -55 Z" fill="#eeeeee"/>
<path d="M -5.8 -90 C -5.911 -90 -6 -89.911 -6 -89.8 L -6 -89 L -6 -55 L -6 -54.2 C -6 -54.09 -5.911 -54 -5.8 -54 L 4 -54 C 5.104 -54 6 -53.104 6 -52 L 6 -48 L 6 -7 L 6 -6.2 C 6 -6.09 6.089 -6 6.2 -6 L 53.8 -6 C 53.91 -6 54 -6.09 54 -6.2 L 54 -7 L 54 -89 L 54 -89.8 C 54 -89.911 53.91 -90 53.8 -90 L 53 -90 L 53 -89 L 53 -89 L 53 -90 Z" fill="#cccccc"/>
<path d="M 55 -5.707 L 55 -5.4 C 55 -5.179 54.821 -5 54.6 -5 L 54.293 -5 L 57.244 -2.049 C 57.595 -2.14 57.86 -2.405 57.951 -2.756 L 55 -5.707 Z" fill="#555555"/>
<path d="M 57.244 -93.951 L 53.293 -90 L 53.8 -90 C 53.91 -90 54 -89.911 54 -89.8 L 54 -89.293 L 57.951 -93.244 C 57.905 -93.42 57.831 -93.583 57.707 -93.707 C 57.583 -93.832 57.42 -93.906 57.244 -93.951 Z M 54 -6.707 L 54 -6.2 C 54 -6.09 53.91 -6 53.8 -6 L 53.293 -6 L 54.293 -5 L 54.6 -5 C 54.821 -5 55 -5.179 55 -5.4 L 55 -5.707 L 54 -6.707 Z" fill="#777777"/>
<path d="M -9.244 -93.951 C -9.595 -93.86 -9.86 -93.595 -9.951 -93.244 L -6 -89.293 L -6 -89.8 C -6 -89.911 -5.911 -90 -5.8 -90 L -5.293 -90 L -9.244 -93.951 Z M -6 -54.707 L -9.951 -50.756 C -9.906 -50.58 -9.832 -50.417 -9.707 -50.293 C -9.583 -50.169 -9.419 -50.095 -9.244 -50.049 L -5.292 -54 L -5.8 -54 C -5.911 -54 -6 -54.09 -6 -54.2 L -6 -54.707 Z M 5.01 -53.717 L 1.293 -50 L 1.6 -50 C 1.821 -50 2 -49.821 2 -49.6 L 2 -49.293 L 5.717 -53.01 C 5.631 -53.156 5.533 -53.295 5.414 -53.414 C 5.295 -53.534 5.156 -53.631 5.01 -53.717 Z M 6 -6.707 L 2.049 -2.756 C 2.094 -2.58 2.168 -2.417 2.293 -2.293 C 2.417 -2.169 2.581 -2.095 2.756 -2.049 L 6.708 -6 L 6.2 -6 C 6.089 -6 6 -6.09 6 -6.2 L 6 -6.707 Z" fill="#eeeeee"/>
</g>
<g id="shape7">
<path d="M 89 -41 L 89 -7 L 7 -7 L 7 -41 Z M 3 -47 C 1.896 -47 1 -46.104 1 -45 L 1 -41 L 1 -7 L 1 -3 C 1 -1.896 1.896 -1 3 -1 L 93 -1 C 94.104 -1 95 -1.896 95 -3 L 95 -7 L 95 -41 L 95 -45 C 95 -46.104 94.104 -47 93 -47 Z" fill="#000000"/>
<path d="M 93.707 -45.707 L 89 -41 L 89 -7 L 7 -7 L 2.293 -2.293 C 2.474 -2.112 2.724 -2 3 -2 L 93 -2 C 93.553 -2 94 -2.447 94 -3 L 94 -7 L 94 -41 L 94 -45 C 94 -45.276 93.888 -45.526 93.707 -45.707 Z" fill="#555555"/>
<path d="M 92.766 -44.765 L 89 -41 L 89 -7 L 7 -7 L 3.234 -3.234 C 3.379 -3.09 3.579 -3 3.8 -3 L 92.2 -3 C 92.642 -3 93 -3.358 93 -3.8 L 93 -7 L 93 -41 L 93 -44.2 C 93 -44.421 92.91 -44.621 92.766 -44.765 Z" fill="#777777"/>
<path d="M 91.824 -43.824 L 89 -41 L 89 -7 L 7 -7 L 4.176 -4.176 C 4.284 -4.067 4.435 -4 4.6 -4 L 91.4 -4 C 91.731 -4 92 -4.269 92 -4.6 L 92 -7 L 92 -41 L 92 -43.4 C 92 -43.566 91.933 -43.716 91.824 -43.824 Z" fill="#888888"/>
<path d="M 89 -41 L 89 -7 L 7 -7 L 7 -41 Z M 3 -46 C 2.448 -46 2 -45.552 2 -45 L 2 -41 L 2 -7 L 2 -3 C 2 -2.724 2.112 -2.474 2.293 -2.293 L 5.117 -5.117 C 5.189 -5.045 5.29 -5 5.4 -5 L 90.6 -5 C 90.821 -5 91 -5.179 91 -5.4 L 91 -7 L 91 -41 L 91 -42.6 C 91 -42.71 90.955 -42.81 90.883 -42.883 L 93.707 -45.707 C 93.526 -45.888 93.276 -46 93 -46 Z" fill="#aaaaaa"/>
<path d="M 3.8 -45 C 3.358 -45 3 -44.642 3 -44.2 L 3 -41 L 3 -7 L 3 -3.8 C 3 -3.579 3.09 -3.379 3.234 -3.235 L 7 -7 L 7 -7 L 7 -41 L 89 -41 L 89 -41 L 92.766 -44.766 C 92.621 -44.91 92.421 -45 92.2 -45 Z" fill="#bbbbbb"/>
<path d="M 4.6 -44 C 4.269 -44 4 -43.731 4 -43.4 L 4 -41 L 4 -7 L 4 -4.6 C 4 -4.434 4.067 -4.285 4.176 -4.176 L 7 -7 L 7 -7 L 7 -41 L 89 -41 L 89 -41 L 91.824 -43.824 C 91.716 -43.933 91.566 -44 91.4 -44 Z" fill="#dddddd"/>
<path d="M 5.4 -43 C 5.179 -43 5 -42.821 5 -42.6 L 5 -41 L 5 -7 L 5 -5.4 C 5 -5.29 5.045 -5.189 5.117 -5.117 L 7 -7 L 7 -7 L 7 -41 L 89 -41 L 89 -41 L 90.883 -42.883 C 90.811 -42.955 90.71 -43 90.6 -43 Z" fill="#eeeeee"/>
<path d="M 6.2 -42 C 6.089 -42 6 -41.911 6 -41.8 L 6 -41 L 6 -7 L 6 -6.2 C 6 -6.09 6.089 -6 6.2 -6 L 89.8 -6 C 89.91 -6 90 -6.09 90 -6.2 L 90 -7 L 90 -41 L 90 -41.8 C 90 -41.911 89.91 -42 89.8 -42 Z" fill="#cccccc"/>
<path d="M 91 -5.707 L 91 -5.4 C 91 -5.179 90.821 -5 90.6 -5 L 90.293 -5 L 93.244 -2.049 C 93.595 -2.14 93.86 -2.405 93.951 -2.756 L 91 -5.707 Z" fill="#555555"/>
<path d="M 93.244 -45.951 L 89.293 -42 L 89.8 -42 C 89.91 -42 90 -41.911 90 -41.8 L 90 -41.293 L 93.951 -45.244 C 93.905 -45.42 93.831 -45.583 93.707 -45.707 C 93.583 -45.832 93.42 -45.906 93.244 -45.951 Z M 90 -6.707 L 90 -6.2 C 90 -6.09 89.91 -6 89.8 -6 L 89.293 -6 L 90.293 -5 L 90.6 -5 C 90.821 -5 91 -5.179 91 -5.4 L 91 -5.707 L 90 -6.707 Z" fill="#777777"/>
<path d="M 2.756 -45.951 C 2.405 -45.86 2.14 -45.595 2.049 -45.244 L 6 -41.293 L 6 -41.8 C 6 -41.911 6.089 -42 6.2 -42 L 6.707 -42 L 2.756 -45.951 Z M 6 -6.707 L 2.049 -2.756 C 2.094 -2.58 2.168 -2.417 2.293 -2.293 C 2.417 -2.169 2.581 -2.095 2.756 -2.049 L 6.708 -6 L 6.2 -6 C 6.089 -6 6 -6.09 6 -6.2 L 6 -6.707 Z" fill="#eeeeee"/>
</g>
</defs>
<g class="keyboard">
<g class="key">
<use xlink:href="#shape0" transform="translate(228 48)"/>
</g>
<g class="key">
<use xlink:href="#shape1" transform="translate(0 0)"/>
<text x="36" y="-20.6" text-anchor="middle" font-family="Arial" font-size="11.333" fill="#000000">control</text>
</g>
<g class="key">
<use xlink:href="#shape2" transform="translate(72 0)"/>
<text x="102" y="-20.6" text-anchor="middle" font-family="Arial" font-size="11.333" fill="#000000">option</text>
</g>
<g class="key">
<use xlink:href="#shape1" transform="translate(132 0)"/>
<text x="168" y="-20.6" text-anchor="middle" font-family="Arial" font-size="11.333" fill="#000000">&#8984;</text>
</g>
<g class="key">
<use xlink:href="#shape2" transform="translate(588 0)"/>
<text x="618" y="-20.6" text-anchor="middle" font-family="Arial" font-size="11.333" fill="#000000">&#8984;</text>
</g>
<g class="key">
<use xlink:href="#shape3" transform="translate(648 0)"/>
<text x="672" y="-20.6" text-anchor="middle" font-family="Arial" font-size="11.333" fill="#000000">&#8592;</text>
</g>
<g class="key">
<use xlink:href="#shape3" transform="translate(696 0)"/>
<text x="720" y="-20.6" text-anchor="middle" font-family="Arial" font-size="11.333" fill="#000000">&#8594;</text>
</g>
<g class="key">
<use xlink:href="#shape3" transform="translate(744 0)"/>
<text x="768" y="-20.6" text-anchor="middle" font-family="Arial" font-size="11.333" fill="#000000">&#8595;</text>
</g>
<g class="key">
<use xlink:href="#shape4" transform="translate(0 -48)"/>
<text x="42" y="-68.6" text-anchor="middle" font-family="Arial" font-size="11.333" fill="#000000">shift</text>
</g>
<g class="key">
<use xlink:href="#shape3" transform="translate(84 -48)"/>
<text x="108" y="-59.42" text-anchor="middle" font-family="Arial" font-size="13.6" fill="#000000">`</text>
<text x="108" y="-76.42" text-anchor="middle" font-family="Arial" font-size="13.6" fill="#000000">~</text>
</g>
<g class="key">
<use xlink:href="#shape3" transform="translate(132 -48)"/>
<text x="156" y="-66.9" text-anchor="middle" font-family="Arial" font-size="17" fill="#000000">Z</text>
</g>
<g class="key">
<use xlink:href="#shape3" transform="translate(180 -48)"/>
<text x="204" y="-66.9" text-anchor="middle" font-family="Arial" font-size="17" fill="#000000">X</text>
</g>
<g class="key">
<use xlink:href="#shape3" transform="translate(228 -48)"/>
<text x="252" y="-66.9" text-anchor="middle" font-family="Arial" font-size="17" fill="#000000">C</text>
</g>
<g class="key">
<use xlink:href="#shape3" transform="translate(276 -48)"/>
<text x="300" y="-66.9" text-anchor="middle" font-family="Arial" font-size="17" fill="#000000">V</text>
</g>
<g class="key">
<use xlink:href="#shape3" transform="translate(324 -48)"/>
<text x="348" y="-66.9" text-anchor="middle" font-family="Arial" font-size="17" fill="#000000">B</text>
</g>
<g class="key">
<use xlink:href="#shape3" transform="translate(420 -48)"/>
<text x="444" y="-66.9" text-anchor="middle" font-family="Arial" font-size="17" fill="#000000">N</text>
</g>
<g class="key">
<use xlink:href="#shape3" transform="translate(468 -48)"/>
<text x="492" y="-66.9" text-anchor="middle" font-family="Arial" font-size="17" fill="#000000">M</text>
</g>
<g class="key">
<use xlink:href="#shape3" transform="translate(516 -48)"/>
<text x="540" y="-59.42" text-anchor="middle" font-family="Arial" font-size="13.6" fill="#000000">,</text>
<text x="540" y="-76.42" text-anchor="middle" font-family="Arial" font-size="13.6" fill="#000000">&lt;</text>
</g>
<g class="key">
<use xlink:href="#shape3" transform="translate(564 -48)"/>
<text x="588" y="-59.42" text-anchor="middle" font-family="Arial" font-size="13.6" fill="#000000">.</text>
<text x="588" y="-76.42" text-anchor="middle" font-family="Arial" font-size="13.6" fill="#000000">&gt;</text>
</g>
<g class="key">
<use xlink:href="#shape3" transform="translate(612 -48)"/>
<text x="636" y="-59.42" text-anchor="middle" font-family="Arial" font-size="13.6" fill="#000000">/</text>
<text x="636" y="-76.42" text-anchor="middle" font-family="Arial" font-size="13.6" fill="#000000">?</text>
</g>
<g class="key">
<use xlink:href="#shape4" transform="translate(660 -48)"/>
<text x="702" y="-68.6" text-anchor="middle" font-family="Arial" font-size="11.333" fill="#000000">shift</text>
</g>
<g class="key">
<use xlink:href="#shape3" transform="translate(744 -48)"/>
<text x="768" y="-68.6" text-anchor="middle" font-family="Arial" font-size="11.333" fill="#000000">&#8593;</text>
</g>
<g class="key">
<use xlink:href="#shape5" transform="translate(0 -96)"/>
<text x="54" y="-116.6" text-anchor="middle" font-family="Arial" font-size="11.333" fill="#000000">caps lock</text>
</g>
<g class="key">
<use xlink:href="#shape3" transform="translate(108 -96)"/>
<text x="132" y="-114.9" text-anchor="middle" font-family="Arial" font-size="17" fill="#000000">A</text>
</g>
<g class="key">
<use xlink:href="#shape3" transform="translate(156 -96)"/>
<text x="180" y="-114.9" text-anchor="middle" font-family="Arial" font-size="17" fill="#000000">S</text>
</g>
<g class="key">
<use xlink:href="#shape3" transform="translate(204 -96)"/>
<text x="228" y="-114.9" text-anchor="middle" font-family="Arial" font-size="17" fill="#000000">D</text>
</g>
<g class="key">
<use xlink:href="#shape3" transform="translate(252 -96)"/>
<text x="276" y="-114.9" text-anchor="middle" font-family="Arial" font-size="17" fill="#000000">F</text>
</g>
<g class="key">
<use xlink:href="#shape3" transform="translate(300 -96)"/>
<text x="324" y="-114.9" text-anchor="middle" font-family="Arial" font-size="17" fill="#000000">G</text>
</g>
<g class="key">
<use xlink:href="#shape3" transform="translate(396 -96)"/>
<text x="420" y="-114.9" text-anchor="middle" font-family="Arial" font-size="17" fill="#000000">H</text>
</g>
<g class="key">
<use xlink:href="#shape3" transform="translate(444 -96)"/>
<text x="468" y="-114.9" text-anchor="middle" font-family="Arial" font-size="17" fill="#000000">J</text>
</g>
<g class="key">
<use xlink:href="#shape3" transform="translate(492 -96)"/>
<text x="516" y="-114.9" text-anchor="middle" font-family="Arial" font-size="17" fill="#000000">K</text>
</g>
<g class="key">
<use xlink:href="#shape3" transform="translate(540 -96)"/>
<text x="564" y="-114.9" text-anchor="middle" font-family="Arial" font-size="17" fill="#000000">L</text>
</g>
<g class="key">
<use xlink:href="#shape3" transform="translate(588 -96)"/>
<text x="612" y="-107.42" text-anchor="middle" font-family="Arial" font-size="13.6" fill="#000000">;</text>
<text x="612" y="-124.42" text-anchor="middle" font-family="Arial" font-size="13.6" fill="#000000">:</text>
</g>
<g class="key">
<use xlink:href="#shape3" transform="translate(636 -96)"/>
<text x="660" y="-107.42" text-anchor="middle" font-family="Arial" font-size="13.6" fill="#000000">&#39;</text>
<text x="660" y="-124.42" text-anchor="middle" font-family="Arial" font-size="13.6" fill="#000000">&#34;</text>
</g>
<g class="key">
<use xlink:href="#shape3" transform="translate(684 -96)"/>
<text x="708" y="-107.42" text-anchor="middle" font-family="Arial" font-size="13.6" fill="#000000">\</text>
<text x="708" y="-124.42" text-anchor="middle" font-family="Arial" font-size="13.6" fill="#000000">|</text>
</g>
<g class="key">
<use xlink:href="#shape6" transform="translate(732 -96)"/>
<text x="756" y="-164.6" text-anchor="middle" font-family="Arial" font-size="11.333" fill="#000000">return</text>
</g>
<g class="key">
<use xlink:href="#shape7" transform="translate(0 -144)"/>
<text x="48" y="-164.6" text-anchor="middle" font-family="Arial" font-size="11.333" fill="#000000">tab</text>
</g>
<g class="key">
<use xlink:href="#shape3" transform="translate(96 -144)"/>
<text x="120" y="-162.9" text-anchor="middle" font-family="Arial" font-size="17" fill="#000000">Q</text>
</g>
<g class="key">
<use xlink:href="#shape3" transform="translate(144 -144)"/>
<text x="168" y="-162.9" text-anchor="middle" font-family="Arial" font-size="17" fill="#000000">W</text>
</g>
<g class="key">
<use xlink:href="#shape3" transform="translate(192 -144)"/>
<text x="216" y="-162.9" text-anchor="middle" font-family="Arial" font-size="17" fill="#000000">E</text>
</g>
<g class="key">
<use xlink:href="#shape3" transform="translate(240 -144)"/>
<text x="264" y="-162.9" text-anchor="middle" font-family="Arial" font-size="17" fill="#000000">R</text>
</g>
<g class="key">
<use xlink:href="#shape3" transform="translate(288 -144)"/>
<text x="312" y="-162.9" text-anchor="middle" font-family="Arial" font-size="17" fill="#000000">T</text>
</g>
<g class="key">
<use xlink:href="#shape3" transform="translate(384 -144)"/>
<text x="408" y="-162.9" text-anchor="middle" font-family="Arial" font-size="17" fill="#000000">Y</text>
</g>
<g class="key">
<use xlink:href="#shape3" transform="translate(432 -144)"/>
<text x="456" y="-162.9" text-anchor="middle" font-family="Arial" font-size="17" fill="#000000">U</text>
</g>
<g class="key">
<use xlink:href="#shape3" transform="translate(480 -144)"/>
<text x="504" y="-162.9" text-anchor="middle" font-family="Arial" font-size="17" fill="#000000">I</text>
</g>
<g class="key">
<use xlink:href="#shape3" transform="translate(528 -144)"/>
<text x="552" y="-162.9" text-anchor="middle" font-family="Arial" font-size="17" fill="#000000">O</text>
</g>
<g class="key">
<use xlink:href="#shape3" transform="translate(576 -144)"/>
<text x="600" y="-162.9" text-anchor="middle" font-family="Arial" font-size="17" fill="#000000">P</text>
</g>
<g class="key">
<use xlink:href="#shape3" transform="translate(624 -144)"/>
<text x="648" y="-155.42" text-anchor="middle" font-family="Arial" font-size="13.6" fill="#000000">[</text>
<text x="648" y="-172.42" text-anchor="middle" font-family="Arial" font-size="13.6" fill="#000000">{</text>
</g>
<g class="key">
<use xlink:href="#shape3" transform="translate(672 -144)"/>
<text x="696" y="-155.42" text-anchor="middle" font-family="Arial" font-size="13.6" fill="#000000">]</text>
<text x="696" y="-172.42" text-anchor="middle" font-family="Arial" font-size="13.6" fill="#000000">}</text>
</g>
<g class="key">
<use xlink:href="#shape3" transform="translate(-96 -192)"/>
<text x="-72" y="-212.6" text-anchor="middle" font-family="Arial" font-size="11.333" fill="#000000">esc</text>
</g>
<g class="key">
<use xlink:href="#shape1" transform="translate(0 -192)"/>
<text x="36" y="-203.42" text-anchor="middle" font-family="Arial" font-size="13.6" fill="#000000">&#167;</text>
<text x="36" y="-220.42" text-anchor="middle" font-family="Arial" font-size="13.6" fill="#000000">&#177;</text>
</g>
<g class="key">
<use xlink:href="#shape3" transform="translate(72 -192)"/>
<text x="96" y="-203.42" text-anchor="middle" font-family="Arial" font-size="13.6" fill="#000000">1</text>
<text x="96" y="-220.42" text-anchor="middle" font-family="Arial" font-size="13.6" fill="#000000">!</text>
</g>
<g class="key">
<use xlink:href="#shape3" transform="translate(120 -192)"/>
<text x="144" y="-203.42" text-anchor="middle" font-family="Arial" font-size="13.6" fill="#000000">2</text>
<text x="144" y="-220.42" text-anchor="middle" font-family="Arial" font-size="13.6" fill="#000000">@</text>
</g>
<g class="key">
<use xlink:href="#shape3" transform="translate(168 -192)"/>
<text x="192" y="-203.42" text-anchor="middle" font-family="Arial" font-size="13.6" fill="#000000">3</text>
<text x="192" y="-220.42" text-anchor="middle" font-family="Arial" font-size="13.6" fill="#000000">#</text>
</g>
<g class="key">
<use xlink:href="#shape3" transform="translate(216 -192)"/>
<text x="240" y="-203.42" text-anchor="middle" font-family="Arial" font-size="13.6" fill="#000000">4</text>
<text x="240" y="-220.42" text-anchor="middle" font-family="Arial" font-size="13.6" fill="#000000">$</text>
</g>
<g class="key">
<use xlink:href="#shape3" transform="translate(264 -192)"/>
<text x="288" y="-203.42" text-anchor="middle" font-family="Arial" font-size="13.6" fill="#000000">5</text>
<text x="288" y="-220.42" text-anchor="middle" font-family="Arial" font-size="13.6" fill="#000000">%</text>
</g>
<g class="key">
<use xlink:href="#shape3" transform="translate(360 -192)"/>
<text x="384" y="-203.42" text-anchor="middle" font-family="Arial" font-size="13.6" fill="#000000">6</text>
<text x="384" y="-220.42" text-anchor="middle" font-family="Arial" font-size="13.6" fill="#000000">^</text>
</g>
<g class="key">
<use xlink:href="#shape3" transform="translate(408 -192)"/>
<text x="432" y="-203.42" text-anchor="middle" font-family="Arial" font-size="13.6" fill="#000000">7</text>
<text x="432" y="-220.42" text-anchor="middle" font-family="Arial" font-size="13.6" fill="#000000">&amp;</text>
</g>
<g class="key">
<use xlink:href="#shape3" transform="translate(456 -192)"/>
<text x="480" y="-203.42" text-anchor="middle" font-family="Arial" font-size="13.6" fill="#000000">8</text>
<text x="480" y="-220.42" text-anchor="middle" font-family="Arial" font-size="13.6" fill="#000000">*</text>
</g>
<g class="key">
<use xlink:href="#shape3" transform="translate(504 -192)"/>
<text x="528" y="-203.42" text-anchor="middle" font-family="Arial" font-size="13.6" fill="#000000">9</text>
<text x="528" y="-220.42" text-anchor="middle" font-family="Arial" font-size="13.6" fill="#000000">(</text>
</g>
<g class="key">
<use xlink:href="#shape3" transform="translate(552 -192)"/>
<text x="576" y="-203.42" text-anchor="middle" font-family="Arial" font-size="13.6" fill="#000000">0</text>
<text x="576" y="-220.42" text-anchor="middle" font-family="Arial" font-size="13.6" fill="#000000">)</text>
</g>
<g class="key">
<use xlink:href="#shape3" transform="translate(600 -192)"/>
<text x="624" y="-203.42" text-anchor="middle" font-family="Arial" font-size="13.6" fill="#000000">&#8722;</text>
<text x="624" y="-220.42" text-anchor="middle" font-family="Arial" font-size="13.6" fill="#000000">_</text>
</g>
<g class="key">
<use xlink:href="#shape3" transform="translate(648 -192)"/>
<text x="672" y="-203.42" text-anchor="middle" font-family="Arial" font-size="13.6" fill="#000000">=</text>
<text x="672" y="-220.42" text-anchor="middle" font-family="Arial" font-size="13.6" fill="#000000">+</text>
</g>
<g class="key">
<use xlink:href="#shape7" transform="translate(696 -192)"/>
<text x="744" y="-212.6" text-anchor="middle" font-family="Arial" font-size="11.333" fill="#000000">delete</text>
</g>
</g>
</svg>
