<?xml version="1.0"?>
<svg xmlns="http://www.w3.org/2000/svg" xmlns:xlink="http://www.w3.org/1999/xlink" version="1.1" width="1134" height="351" viewBox="0 -351 1134 351">
<defs>
<g id="shape0">
<path d="M 6 -54 C 2.686 -54 0 -51.314 0 -48 L 0 -6 C 0 -2.686 2.686 0 6 0 L 480 0 C 483.314 0 486 -2.686 486 -6 L 486 -48 C 486 -51.314 483.314 -54 480 -54 Z" fill="#000000"/>
<path d="M 6 -53 C 3.239 -53 1 -50.761 1 -48 L 1 -6 C 1 -3.239 3.239 -1 6 -1 L 480 -1 C 482.761 -1 485 -3.239 485 -6 L 485 -48 C 485 -50.761 482.761 -53 480 -53 Z" fill="#dadada"/>
<path d="M 6 -52 C 3.791 -52 2 -50.209 2 -48 L 2 -6 C 2 -3.791 3.791 -2 6 -2 L 480 -2 C 482.209 -2 484 -3.791 484 -6 L 484 -48 C 484 -50.209 482.209 -52 480 -52 Z" fill="#f2f2f2"/>
<path d="M 12 -51 C 10.343 -51 9 -49.657 9 -48 L 9 -18 C 9 -16.343 10.343 -15 12 -15 L 474 -15 C 475.657 -15 477 -16.343 477 -18 L 477 -48 C 477 -49.657 475.657 -51 474 -51 Z" fill="#dadada"/>
<path d="M 12 -50 C 10.895 -50 10 -49.105 10 -48 L 10 -18 C 10 -16.895 10.895 -16 12 -16 L 474 -16 C 475.105 -16 476 -16.895 476 -18 L 476 -48 C 476 -49.105 475.105 -50 474 -50 Z" fill="#ffffff"/>
</g>
<g id="shape1">
<path d="M 6 -54 C 2.686 -54 0 -51.314 0 -48 L 0 -6 C 0 -2.686 2.686 0 6 0 L 48 0 C 51.314 0 54 -2.686 54 -6 L 54 -48 C 54 -51.314 51.314 -54 48 -54 Z" fill="#000000"/>
<path d="M 6 -53 C 3.239 -53 1 -50.761 1 -48 L 1 -6 C 1 -3.239 3.239 -1 6 -1 L 48 -1 C 50.761 -1 53 -3.239 53 -6 L 53 -48 C 53 -50.761 50.761 -53 48 -53 Z" fill="#dadada"/>
<path d="M 6 -52 C 3.791 -52 2 -50.209 2 -48 L 2 -6 C 2 -3.791 3.791 -2 6 -2 L 48 -2 C 50.209 -2 52 -3.791 52 -6 L 52 -48 C 52 -50.209 50.209 -52 48 -52 Z" fill="#f2f2f2"/>
<path d="M 12 -51 C 10.343 -51 9 -49.657 9 -48 L 9 -18 C 9 -16.343 10.343 -15 12 -15 L 42 -15 C 43.657 -15 45 -16.343 45 -18 L 45 -48 C 45 -49.657 43.657 -51 42 -51 Z" fill="#dadada"/>
<path d="M 12 -50 C 10.895 -50 10 -49.105 10 -48 L 10 -18 C 10 -16.895 10.895 -16 12 -16 L 42 -16 C 43.105 -16 44 -16.895 44 -18 L 44 -48 C 44 -49.105 43.105 -50 42 -50 Z" fill="#ffffff"/>
</g>
<g id="shape2">
<path d="M 6 -54 C 2.686 -54 0 -51.314 0 -48 L 0 -6 C 0 -2.686 2.686 0 6 0 L 75 0 C 78.314 0 81 -2.686 81 -6 L 81 -48 C 81 -51.314 78.314 -54 75 -54 Z" fill="#000000"/>
<path d="M 6 -53 C 3.239 -53 1 -50.761 1 -48 L 1 -6 C 1 -3.239 3.239 -1 6 -1 L 75 -1 C 77.761 -1 80 -3.239 80 -6 L 80 -48 C 80 -50.761 77.761 -53 75 -53 Z" fill="#dadada"/>
<path d="M 6 -52 C 3.791 -52 2 -50.209 2 -48 L 2 -6 C 2 -3.791 3.791 -2 6 -2 L 75 -2 C 77.209 -2 79 -3.791 79 -6 L 79 -48 C 79 -50.209 77.209 -52 75 -52 Z" fill="#f2f2f2"/>
<path d="M 12 -51 C 10.343 -51 9 -49.657 9 -48 L 9 -18 C 9 -16.343 10.343 -15 12 -15 L 69 -15 C 70.657 -15 72 -16.343 72 -18 L 72 -48 C 72 -49.657 70.657 -51 69 -51 Z" fill="#dadada"/>
<path d="M 12 -50 C 10.895 -50 10 -49.105 10 -48 L 10 -18 C 10 -16.895 10.895 -16 12 -16 L 69 -16 C 70.105 -16 71 -16.895 71 -18 L 71 -48 C 71 -49.105 70.105 -50 69 -50 Z" fill="#ffffff"/>
</g>
<g id="shape3">
<path d="M 6 -54 C 2.686 -54 0 -51.314 0 -48 L 0 -6 C 0 -2.686 2.686 0 6 0 L 102 0 C 105.314 0 108 -2.686 108 -6 L 108 -48 C 108 -51.314 105.314 -54 102 -54 Z" fill="#000000"/>
<path d="M 6 -53 C 3.239 -53 1 -50.761 1 -48 L 1 -6 C 1 -3.239 3.239 -1 6 -1 L 102 -1 C 104.761 -1 107 -3.239 107 -6 L 107 -48 C 107 -50.761 104.761 -53 102 -53 Z" fill="#dadada"/>
<path d="M 6 -52 C 3.791 -52 2 -50.209 2 -48 L 2 -6 C 2 -3.791 3.791 -2 6 -2 L 102 -2 C 104.209 -2 106 -3.791 106 -6 L 106 -48 C 106 -50.209 104.209 -52 102 -52 Z" fill="#f2f2f2"/>
<path d="M 12 -51 C 10.343 -51 9 -49.657 9 -48 L 9 -18 C 9 -16.343 10.343 -15 12 -15 L 96 -15 C 97.657 -15 99 -16.343 99 -18 L 99 -48 C 99 -49.657 97.657 -51 96 -51 Z" fill="#dadada"/>
<path d="M 12 -50 C 10.895 -50 10 -49.105 10 -48 L 10 -18 C 10 -16.895 10.895 -16 12 -16 L 96 -16 C 97.105 -16 98 -16.895 98 -18 L 98 -48 C 98 -49.105 97.105 -50 96 -50 Z" fill="#ffffff"/>
</g>
<g id="shape4">
<path d="M 6 -108 C 2.686 -108 0 -105.314 0 -102 L 0 -6 C 0 -2.686 2.686 0 6 0 L 48 0 C 51.314 0 54 -2.686 54 -6 L 54 -102 C 54 -105.314 51.314 -108 48 -108 Z" fill="#000000"/>
<path d="M 6 -107 C 3.239 -107 1 -104.761 1 -102 L 1 -6 C 1 -3.239 3.239 -1 6 -1 L 48 -1 C 50.761 -1 53 -3.239 53 -6 L 53 -102 C 53 -104.761 50.761 -107 48 -107 Z" fill="#dadada"/>
<path d="M 6 -106 C 3.791 -106 2 -104.209 2 -102 L 2 -6 C 2 -3.791 3.791 -2 6 -2 L 48 -2 C 50.209 -2 52 -3.791 52 -6 L 52 -102 C 52 -104.209 50.209 -106 48 -106 Z" fill="#f2f2f2"/>
<path d="M 12 -105 C 10.343 -105 9 -103.657 9 -102 L 9 -18 C 9 -16.343 10.343 -15 12 -15 L 42 -15 C 43.657 -15 45 -16.343 45 -18 L 45 -102 C 45 -103.657 43.657 -105 42 -105 Z" fill="#dadada"/>
<path d="M 12 -104 C 10.895 -104 10 -103.105 10 -102 L 10 -18 C 10 -16.895 10.895 -16 12 -16 L 42 -16 C 43.105 -16 44 -16.895 44 -18 L 44 -102 C 44 -103.105 43.105 -104 42 -104 Z" fill="#ffffff"/>
</g>
<path id="path0" d="M 0.571 0.536 h 0.214 L 1 0.75 H 0.571 V 0.536 z M 0.571 0.464 V 0.25 H 1 L 0.786 0.464 H 0.571 z M 0 0.5 C 0 0.223 0.223 0 0.5 0 c 0.025 0 0.048 0.002 0.071 0.006 v 0.217 C 0.548 0.218 0.525 0.214 0.5 0.214 c -0.157 0 -0.286 0.128 -0.286 0.286 S 0.343 0.786 0.5 0.786 c 0.025 0 0.048 -0.004 0.071 -0.009 v 0.217 C 0.548 0.998 0.525 1 0.5 1 C 0.223 1 0 0.777 0 0.5 z"/>
</defs>
<g class="keyboard">
<g class="key">
<use xlink:href="#shape0" transform="translate(189 0)"/>
</g>
<g class="key">
<use xlink:href="#shape1" transform="translate(0 -54)"/>
<use xlink:href="#path0" transform="translate(22 -92) scale(10 10)" fill="#000000"/>
</g>
<g class="key">
<use xlink:href="#shape2" transform="translate(54 -54)"/>
<text x="94.5" y="-84" text-anchor="middle" font-family="Arial" font-size="10" fill="#000000">SHIFT</text>
</g>
<g class="key">
<use xlink:href="#shape1" transform="translate(135 -54)"/>
<text x="162" y="-82.5" text-anchor="middle" font-family="Arial" font-size="15" fill="#000000">Z</text>
</g>
<g class="key">
<use xlink:href="#shape1" transform="translate(189 -54)"/>
<text x="216" y="-82.5" text-anchor="middle" font-family="Arial" font-size="15" fill="#000000">X</text>
</g>
<g class="key">
<use xlink:href="#shape1" transform="translate(243 -54)"/>
<text x="270" y="-82.5" text-anchor="middle" font-family="Arial" font-size="15" fill="#000000">C</text>
</g>
<g class="key">
<use xlink:href="#shape1" transform="translate(297 -54)"/>
<text x="324" y="-82.5" text-anchor="middle" font-family="Arial" font-size="15" fill="#000000">V</text>
</g>
<g class="key">
<use xlink:href="#shape1" transform="translate(351 -54)"/>
<text x="378" y="-82.5" text-anchor="middle" font-family="Arial" font-size="15" fill="#000000">B</text>
</g>
<g class="key">
<use xlink:href="#shape1" transform="translate(405 -54)"/>
<text x="432" y="-82.5" text-anchor="middle" font-family="Arial" font-size="15" fill="#000000">N</text>
</g>
<g class="key">
<use xlink:href="#shape1" transform="translate(459 -54)"/>
<text x="486" y="-82.5" text-anchor="middle" font-family="Arial" font-size="15" fill="#000000">M</text>
</g>
<g class="key">
<use xlink:href="#shape1" transform="translate(513 -54)"/>
<text x="540" y="-75.9" text-anchor="middle" font-family="Arial" font-size="12" fill="#000000">,</text>
<text x="540" y="-90.9" text-anchor="middle" font-family="Arial" font-size="12" fill="#000000">&lt;</text>
</g>
<g class="key">
<use xlink:href="#shape1" transform="translate(567 -54)"/>
<text x="594" y="-75.9" text-anchor="middle" font-family="Arial" font-size="12" fill="#000000">.</text>
<text x="594" y="-90.9" text-anchor="middle" font-family="Arial" font-size="12" fill="#000000">&gt;</text>
</g>
<g class="key">
<use xlink:href="#shape1" transform="translate(621 -54)"/>
<text x="648" y="-75.9" text-anchor="middle" font-family="Arial" font-size="12" fill="#000000">/</text>
<text x="648" y="-90.9" text-anchor="middle" font-family="Arial" font-size="12" fill="#000000">?</text>
</g>
<g class="key">
<use xlink:href="#shape2" transform="translate(675 -54)"/>
<text x="715.5" y="-84" text-anchor="middle" font-family="Arial" font-size="10" fill="#000000">SHIFT</text>
</g>
<g class="key">
<use xlink:href="#shape1" transform="translate(756 -54)"/>
<text x="783" y="-94" text-anchor="middle" font-family="Arial" font-size="10" fill="#000000">&#8657;</text>
<text x="783" y="-84" text-anchor="middle" font-family="Arial" font-size="10" fill="#000000">CRSR</text>
<text x="783" y="-74" text-anchor="middle" font-family="Arial" font-size="10" fill="#000000">&#8659;</text>
</g>
<g class="key">
<use xlink:href="#shape1" transform="translate(810 -54)"/>
<text x="837" y="-94" text-anchor="middle" font-family="Arial" font-size="10" fill="#000000">&#8656;</text>
<text x="837" y="-84" text-anchor="middle" font-family="Arial" font-size="10" fill="#000000">CRSR</text>
<text x="837" y="-74" text-anchor="middle" font-family="Arial" font-size="10" fill="#000000">&#8658;</text>
</g>
<g class="key">
<use xlink:href="#shape3" transform="translate(918 -54)"/>
<text x="972" y="-82.5" text-anchor="middle" font-family="Arial" font-size="15" fill="#000000">0</text>
</g>
<g class="key">
<use xlink:href="#shape1" transform="translate(1026 -54)"/>
<text x="1053" y="-82.5" text-anchor="middle" font-family="Arial" font-size="15" fill="#000000">.</text>
</g>
<g class="key">
<use xlink:href="#shape4" transform="translate(1080 -54)"/>
<text x="1107" y="-111" text-anchor="middle" font-family="Arial" font-size="10" textLength="30" lengthAdjust="spacingAndGlyphs" fill="#000000">ENTER</text>
</g>
<g class="key">
<use xlink:href="#shape1" transform="translate(0 -108)"/>
<text x="27" y="-130.5" text-anchor="middle" font-family="Arial" font-size="10" fill="#000000">STOP</text>
<text x="27" y="-145.5" text-anchor="middle" font-family="Arial" font-size="10" fill="#000000">RUN</text>
</g>
<g class="key">
<use xlink:href="#shape1" transform="translate(54 -108)"/>
<text x="81" y="-143" text-anchor="middle" font-family="Arial" font-size="10" fill="#000000">SHIFT</text>
<text x="81" y="-133" text-anchor="middle" font-family="Arial" font-size="10" fill="#000000">LOCK</text>
</g>
<g class="key">
<use xlink:href="#shape1" transform="translate(108 -108)"/>
<text x="135" y="-136.5" text-anchor="middle" font-family="Arial" font-size="15" fill="#000000">A</text>
</g>
<g class="key">
<use xlink:href="#shape1" transform="translate(162 -108)"/>
<text x="189" y="-136.5" text-anchor="middle" font-family="Arial" font-size="15" fill="#000000">S</text>
</g>
<g class="key">
<use xlink:href="#shape1" transform="translate(216 -108)"/>
<text x="243" y="-136.5" text-anchor="middle" font-family="Arial" font-size="15" fill="#000000">D</text>
</g>
<g class="key">
<use xlink:href="#shape1" transform="translate(270 -108)"/>
<text x="297" y="-136.5" text-anchor="middle" font-family="Arial" font-size="15" fill="#000000">F</text>
</g>
<g class="key">
<use xlink:href="#shape1" transform="translate(324 -108)"/>
<text x="351" y="-136.5" text-anchor="middle" font-family="Arial" font-size="15" fill="#000000">G</text>
</g>
<g class="key">
<use xlink:href="#shape1" transform="translate(378 -108)"/>
<text x="405" y="-136.5" text-anchor="middle" font-family="Arial" font-size="15" fill="#000000">H</text>
</g>
<g class="key">
<use xlink:href="#shape1" transform="translate(432 -108)"/>
<text x="459" y="-136.5" text-anchor="middle" font-family="Arial" font-size="15" fill="#000000">J</text>
</g>
<g class="key">
<use xlink:href="#shape1" transform="translate(486 -108)"/>
<text x="513" y="-136.5" text-anchor="middle" font-family="Arial" font-size="15" fill="#000000">K</text>
</g>
<g class="key">
<use xlink:href="#shape1" transform="translate(540 -108)"/>
<text x="567" y="-136.5" text-anchor="middle" font-family="Arial" font-size="15" fill="#000000">L</text>
</g>
<g class="key">
<use xlink:href="#shape1" transform="translate(594 -108)"/>
<text x="621" y="-129.9" text-anchor="middle" font-family="Arial" font-size="12" fill="#000000">:</text>
<text x="621" y="-144.9" text-anchor="middle" font-family="Arial" font-size="12" fill="#000000">[</text>
</g>
<g class="key">
<use xlink:href="#shape1" transform="translate(648 -108)"/>
<text x="675" y="-129.9" text-anchor="middle" font-family="Arial" font-size="12" fill="#000000">;</text>
<text x="675" y="-144.9" text-anchor="middle" font-family="Arial" font-size="12" fill="#000000">]</text>
</g>
<g class="key">
<use xlink:href="#shape1" transform="translate(702 -108)"/>
<text x="729" y="-136.5" text-anchor="middle" font-family="Arial" font-size="15" fill="#000000">=</text>
</g>
<g class="key">
<use xlink:href="#shape3" transform="translate(756 -108)"/>
<text x="810" y="-138" text-anchor="middle" font-family="Arial" font-size="10" fill="#000000">RETURN</text>
</g>
<g class="key">
<use xlink:href="#shape1" transform="translate(918 -108)"/>
<text x="945" y="-136.5" text-anchor="middle" font-family="Arial" font-size="15" fill="#000000">1</text>
</g>
<g class="key">
<use xlink:href="#shape1" transform="translate(972 -108)"/>
<text x="999" y="-136.5" text-anchor="middle" font-family="Arial" font-size="15" fill="#000000">2</text>
</g>
<g class="key">
<use xlink:href="#shape1" transform="translate(1026 -108)"/>
<text x="1053" y="-136.5" text-anchor="middle" font-family="Arial" font-size="15" fill="#000000">3</text>
</g>
<g class="key">
<use xlink:href="#shape2" transform="translate(0 -162)"/>
<text x="40.5" y="-192" text-anchor="middle" font-family="Arial" font-size="10" fill="#000000">CTRL</text>
</g>
<g class="key">
<use xlink:href="#shape1" transform="translate(81 -162)"/>
<text x="108" y="-190.5" text-anchor="middle" font-family="Arial" font-size="15" fill="#000000">Q</text>
</g>
<g class="key">
<use xlink:href="#shape1" transform="translate(135 -162)"/>
<text x="162" y="-190.5" text-anchor="middle" font-family="Arial" font-size="15" fill="#000000">W</text>
</g>
<g class="key">
<use xlink:href="#shape1" transform="translate(189 -162)"/>
<text x="216" y="-190.5" text-anchor="middle" font-family="Arial" font-size="15" fill="#000000">E</text>
</g>
<g class="key">
<use xlink:href="#shape1" transform="translate(243 -162)"/>
<text x="270" y="-190.5" text-anchor="middle" font-family="Arial" font-size="15" fill="#000000">R</text>
</g>
<g class="key">
<use xlink:href="#shape1" transform="translate(297 -162)"/>
<text x="324" y="-190.5" text-anchor="middle" font-family="Arial" font-size="15" fill="#000000">T</text>
</g>
<g class="key">
<use xlink:href="#shape1" transform="translate(351 -162)"/>
<text x="378" y="-190.5" text-anchor="middle" font-family="Arial" font-size="15" fill="#000000">Y</text>
</g>
<g class="key">
<use xlink:href="#shape1" transform="translate(405 -162)"/>
<text x="432" y="-190.5" text-anchor="middle" font-family="Arial" font-size="15" fill="#000000">U</text>
</g>
<g class="key">
<use xlink:href="#shape1" transform="translate(459 -162)"/>
<text x="486" y="-190.5" text-anchor="middle" font-family="Arial" font-size="15" fill="#000000">I</text>
</g>
<g class="key">
<use xlink:href="#shape1" transform="translate(513 -162)"/>
<text x="540" y="-190.5" text-anchor="middle" font-family="Arial" font-size="15" fill="#000000">O</text>
</g>
<g class="key">
<use xlink:href="#shape1" transform="translate(567 -162)"/>
<text x="594" y="-190.5" text-anchor="middle" font-family="Arial" font-size="15" fill="#000000">P</text>
</g>
<g class="key">
<use xlink:href="#shape1" transform="translate(621 -162)"/>
<text x="648" y="-190.5" text-anchor="middle" font-family="Arial" font-size="15" fill="#000000">@</text>
</g>
<g class="key">
<use xlink:href="#shape1" transform="translate(675 -162)"/>
<text x="702" y="-190.5" text-anchor="middle" font-family="Arial" font-size="15" fill="#000000">*</text>
</g>
<g class="key">
<use xlink:href="#shape1" transform="translate(729 -162)"/>
<text x="756" y="-190.5" text-anchor="middle" font-family="Arial" font-size="15" fill="#000000">&#8593;</text>
</g>
<g class="key">
<use xlink:href="#shape2" transform="translate(783 -162)"/>
<text x="823.5" y="-192" text-anchor="middle" font-family="Arial" font-size="10" fill="#000000">RESTORE</text>
</g>
<g class="key">
<use xlink:href="#shape1" transform="translate(918 -162)"/>
<text x="945" y="-190.5" text-anchor="middle" font-family="Arial" font-size="15" fill="#000000">4</text>
</g>
<g class="key">
<use xlink:href="#shape1" transform="translate(972 -162)"/>
<text x="999" y="-190.5" text-anchor="middle" font-family="Arial" font-size="15" fill="#000000">5</text>
</g>
<g class="key">
<use xlink:href="#shape1" transform="translate(1026 -162)"/>
<text x="1053" y="-190.5" text-anchor="middle" font-family="Arial" font-size="15" fill="#000000">6</text>
</g>
<g class="key">
<use xlink:href="#shape1" transform="translate(1080 -162)"/>
<text x="1107" y="-190.5" text-anchor="middle" font-family="Arial" font-size="15" fill="#000000">&#8722;</text>
</g>
<g class="key">
<use xlink:href="#shape1" transform="translate(0 -216)"/>
<text x="27" y="-244.5" text-anchor="middle" font-family="Arial" font-size="15" fill="#000000">&#8592;</text>
</g>
<g class="key">
<use xlink:href="#shape1" transform="translate(54 -216)"/>
<text x="81" y="-237.9" text-anchor="middle" font-family="Arial" font-size="12" fill="#000000">1</text>
<text x="81" y="-252.9" text-anchor="middle" font-family="Arial" font-size="12" fill="#000000">!</text>
</g>
<g class="key">
<use xlink:href="#shape1" transform="translate(108 -216)"/>
<text x="135" y="-237.9" text-anchor="middle" font-family="Arial" font-size="12" fill="#000000">2</text>
<text x="135" y="-252.9" text-anchor="middle" font-family="Arial" font-size="12" fill="#000000">&#34;</text>
</g>
<g class="key">
<use xlink:href="#shape1" transform="translate(162 -216)"/>
<text x="189" y="-237.9" text-anchor="middle" font-family="Arial" font-size="12" fill="#000000">3</text>
<text x="189" y="-252.9" text-anchor="middle" font-family="Arial" font-size="12" fill="#000000">#</text>
</g>
<g class="key">
<use xlink:href="#shape1" transform="translate(216 -216)"/>
<text x="243" y="-237.9" text-anchor="middle" font-family="Arial" font-size="12" fill="#000000">4</text>
<text x="243" y="-252.9" text-anchor="middle" font-family="Arial" font-size="12" fill="#000000">$</text>
</g>
<g class="key">
<use xlink:href="#shape1" transform="translate(270 -216)"/>
<text x="297" y="-237.9" text-anchor="middle" font-family="Arial" font-size="12" fill="#000000">5</text>
<text x="297" y="-252.9" text-anchor="middle" font-family="Arial" font-size="12" fill="#000000">%</text>
</g>
<g class="key">
<use xlink:href="#shape1" transform="translate(324 -216)"/>
<text x="351" y="-237.9" text-anchor="middle" font-family="Arial" font-size="12" fill="#000000">6</text>
<text x="351" y="-252.9" text-anchor="middle" font-family="Arial" font-size="12" fill="#000000">&amp;</text>
</g>
<g class="key">
<use xlink:href="#shape1" transform="translate(378 -216)"/>
<text x="405" y="-237.9" text-anchor="middle" font-family="Arial" font-size="12" fill="#000000">7</text>
<text x="405" y="-252.9" text-anchor="middle" font-family="Arial" font-size="12" fill="#000000">&#39;</text>
</g>
<g class="key">
<use xlink:href="#shape1" transform="translate(432 -216)"/>
<text x="459" y="-237.9" text-anchor="middle" font-family="Arial" font-size="12" fill="#000000">8</text>
<text x="459" y="-252.9" text-anchor="middle" font-family="Arial" font-size="12" fill="#000000">(</text>
</g>
<g class="key">
<use xlink:href="#shape1" transform="translate(486 -216)"/>
<text x="513" y="-237.9" text-anchor="middle" font-family="Arial" font-size="12" fill="#000000">9</text>
<text x="513" y="-252.9" text-anchor="middle" font-family="Arial" font-size="12" fill="#000000">)</text>
</g>
<g class="key">
<use xlink:href="#shape1" transform="translate(540 -216)"/>
<text x="567" y="-237.9" text-anchor="middle" font-family="Arial" font-size="12" fill="#000000">0</text>
</g>
<g class="key">
<use xlink:href="#shape1" transform="translate(594 -216)"/>
<text x="621" y="-244.5" text-anchor="middle" font-family="Arial" font-size="15" fill="#000000">+</text>
</g>
<g class="key">
<use xlink:href="#shape1" transform="translate(648 -216)"/>
<text x="675" y="-244.5" text-anchor="middle" font-family="Arial" font-size="15" fill="#000000">&#8722;</text>
</g>
<g class="key">
<use xlink:href="#shape1" transform="translate(702 -216)"/>
<text x="729" y="-244.5" text-anchor="middle" font-family="Arial" font-size="15" fill="#000000">&#163;</text>
</g>
<g class="key">
<use xlink:href="#shape1" transform="translate(756 -216)"/>
<text x="783" y="-238.5" text-anchor="middle" font-family="Arial" font-size="10" fill="#000000">HOME</text>
<text x="783" y="-253.5" text-anchor="middle" font-family="Arial" font-size="10" fill="#000000">CLR</text>
</g>
<g class="key">
<use xlink:href="#shape1" transform="translate(810 -216)"/>
<text x="837" y="-238.5" text-anchor="middle" font-family="Arial" font-size="10" fill="#000000">DEL</text>
<text x="837" y="-253.5" text-anchor="middle" font-family="Arial" font-size="10" fill="#000000">INST</text>
</g>
<g class="key">
<use xlink:href="#shape1" transform="translate(918 -216)"/>
<text x="945" y="-244.5" text-anchor="middle" font-family="Arial" font-size="15" fill="#000000">7</text>
</g>
<g class="key">
<use xlink:href="#shape1" transform="translate(972 -216)"/>
<text x="999" y="-244.5" text-anchor="middle" font-family="Arial" font-size="15" fill="#000000">8</text>
</g>
<g class="key">
<use xlink:href="#shape1" transform="translate(1026 -216)"/>
<text x="1053" y="-244.5" text-anchor="middle" font-family="Arial" font-size="15" fill="#000000">9</text>
</g>
<g class="key">
<use xlink:href="#shape1" transform="translate(1080 -216)"/>
<text x="1107" y="-244.5" text-anchor="middle" font-family="Arial" font-size="15" fill="#000000">+</text>
</g>
<g class="key">
<use xlink:href="#shape1" transform="translate(0 -297)"/>
<text x="27" y="-327" text-anchor="middle" font-family="Arial" font-size="10" fill="#000000">ESC</text>
</g>
<g class="key">
<use xlink:href="#shape1" transform="translate(54 -297)"/>
<text x="81" y="-327" text-anchor="middle" font-family="Arial" font-size="10" fill="#000000">TAB</text>
</g>
<g class="key">
<use xlink:href="#shape1" transform="translate(108 -297)"/>
<text x="135" y="-327" text-anchor="middle" font-family="Arial" font-size="10" fill="#000000">ALT</text>
</g>
<g class="key">
<use xlink:href="#shape1" transform="translate(162 -297)"/>
<text x="189" y="-332" text-anchor="middle" font-family="Arial" font-size="10" fill="#000000">CAPS</text>
<text x="189" y="-322" text-anchor="middle" font-family="Arial" font-size="10" fill="#000000">LOCK</text>
</g>
<g class="key">
<use xlink:href="#shape1" transform="translate(324 -297)"/>
<text x="351" y="-327" text-anchor="middle" font-family="Arial" font-size="10" fill="#000000">HELP</text>
</g>
<g class="key">
<use xlink:href="#shape1" transform="translate(378 -297)"/>
<text x="405" y="-332" text-anchor="middle" font-family="Arial" font-size="10" fill="#000000">LINE</text>
<text x="405" y="-322" text-anchor="middle" font-family="Arial" font-size="10" fill="#000000">FEED</text>
</g>
<g class="key">
<use xlink:href="#shape1" transform="translate(432 -297)"/>
<text x="459" y="-332" text-anchor="middle" font-family="Arial" font-size="10" fill="#000000">40/80</text>
<text x="459" y="-322" text-anchor="middle" font-family="Arial" font-size="10" textLength="30" lengthAdjust="spacingAndGlyphs" fill="#000000">DISPLAY</text>
</g>
<g class="key">
<use xlink:href="#shape1" transform="translate(486 -297)"/>
<text x="513" y="-332" text-anchor="middle" font-family="Arial" font-size="10" fill="#000000">NO</text>
<text x="513" y="-322" text-anchor="middle" font-family="Arial" font-size="10" textLength="30" lengthAdjust="spacingAndGlyphs" fill="#000000">SCROLL</text>
</g>
<g class="key">
<use xlink:href="#shape1" transform="translate(648 -297)"/>
<text x="675" y="-327" text-anchor="middle" font-family="Arial" font-size="10" fill="#000000">&#8593;</text>
</g>
<g class="key">
<use xlink:href="#shape1" transform="translate(702 -297)"/>
<text x="729" y="-327" text-anchor="middle" font-family="Arial" font-size="10" fill="#000000">&#8595;</text>
</g>
<g class="key">
<use xlink:href="#shape1" transform="translate(756 -297)"/>
<text x="783" y="-327" text-anchor="middle" font-family="Arial" font-size="10" fill="#000000">&#8592;</text>
</g>
<g class="key">
<use xlink:href="#shape1" transform="translate(810 -297)"/>
<text x="837" y="-327" text-anchor="middle" font-family="Arial" font-size="10" fill="#000000">&#8594;</text>
</g>
<g class="key">
<use xlink:href="#shape1" transform="translate(918 -297)"/>
<text x="945" y="-319.5" text-anchor="middle" font-family="Arial" font-size="10" fill="#000000">F1</text>
<text x="945" y="-334.5" text-anchor="middle" font-family="Arial" font-size="10" fill="#000000">F2</text>
</g>
<g class="key">
<use xlink:href="#shape1" transform="translate(972 -297)"/>
<text x="999" y="-319.5" text-anchor="middle" font-family="Arial" font-size="10" fill="#000000">F3</text>
<text x="999" y="-334.5" text-anchor="middle" font-family="Arial" font-size="10" fill="#000000">F4</text>
</g>
<g class="key">
<use xlink:href="#shape1" transform="translate(1026 -297)"/>
<text x="1053" y="-319.5" text-anchor="middle" font-family="Arial" font-size="10" fill="#000000">F5</text>
<text x="1053" y="-334.5" text-anchor="middle" font-family="Arial" font-size="10" fill="#000000">F6</text>
</g>
<g class="key">
<use xlink:href="#shape1" transform="translate(1080 -297)"/>
<text x="1107" y="-319.5" text-anchor="middle" font-family="Arial" font-size="10" fill="#000000">F7</text>
<text x="1107" y="-334.5" text-anchor="middle" font-family="Arial" font-size="10" fill="#000000">F8</text>
</g>
</g>
</svg>
