<?xml version="1.0"?>
<svg xmlns="http://www.w3.org/2000/svg" xmlns:xlink="http://www.w3.org/1999/xlink" version="1.1" width="1269" height="351" viewBox="0 -351 1269 351">
<defs>
<g id="shape0">
<path d="M 6 -54 C 2.686 -54 0 -51.314 0 -48 L 0 -6 C 0 -2.686 2.686 0 6 0 L 48 0 C 51.314 0 54 -2.686 54 -6 L 54 -48 C 54 -51.314 51.314 -54 48 -54 Z" fill="#000000"/>
<path d="M 6 -53 C 3.239 -53 1 -50.761 1 -48 L 1 -6 C 1 -3.239 3.239 -1 6 -1 L 48 -1 C 50.761 -1 53 -3.239 53 -6 L 53 -48 C 53 -50.761 50.761 -53 48 -53 Z" fill="#8a8a8a"/>
<path d="M 6 -52 C 3.791 -52 2 -50.209 2 -48 L 2 -6 C 2 -3.791 3.791 -2 6 -2 L 48 -2 C 50.209 -2 52 -3.791 52 -6 L 52 -48 C 52 -50.209 50.209 -52 48 -52 Z" fill="#999999"/>
<path d="M 12 -51 C 10.343 -51 9 -49.657 9 -48 L 9 -18 C 9 -16.343 10.343 -15 12 -15 L 42 -15 C 43.657 -15 45 -16.343 45 -18 L 45 -48 C 45 -49.657 43.657 -51 42 -51 Z" fill="#8a8a8a"/>
<path d="M 12 -50 C 10.895 -50 10 -49.105 10 -48 L 10 -18 C 10 -16.895 10.895 -16 12 -16 L 42 -16 C 43.105 -16 44 -16.895 44 -18 L 44 -48 C 44 -49.105 43.105 -50 42 -50 Z" fill="#bababa"/>
</g>
<g id="shape1">
<path d="M 6 -54 C 2.686 -54 0 -51.314 0 -48 L 0 -6 C 0 -2.686 2.686 0 6 0 L 61.5 0 C 64.814 0 67.5 -2.686 67.5 -6 L 67.5 -48 C 67.5 -51.314 64.814 -54 61.5 -54 Z" fill="#000000"/>
<path d="M 6 -53 C 3.239 -53 1 -50.761 1 -48 L 1 -6 C 1 -3.239 3.239 -1 6 -1 L 61.5 -1 C 64.261 -1 66.5 -3.239 66.5 -6 L 66.5 -48 C 66.5 -50.761 64.261 -53 61.5 -53 Z" fill="#8a8a8a"/>
<path d="M 6 -52 C 3.791 -52 2 -50.209 2 -48 L 2 -6 C 2 -3.791 3.791 -2 6 -2 L 61.5 -2 C 63.709 -2 65.5 -3.791 65.5 -6 L 65.5 -48 C 65.5 -50.209 63.709 -52 61.5 -52 Z" fill="#999999"/>
<path d="M 12 -51 C 10.343 -51 9 -49.657 9 -48 L 9 -18 C 9 -16.343 10.343 -15 12 -15 L 55.5 -15 C 57.157 -15 58.5 -16.343 58.5 -18 L 58.5 -48 C 58.5 -49.657 57.157 -51 55.5 -51 Z" fill="#8a8a8a"/>
<path d="M 12 -50 C 10.895 -50 10 -49.105 10 -48 L 10 -18 C 10 -16.895 10.895 -16 12 -16 L 55.5 -16 C 56.605 -16 57.5 -16.895 57.5 -18 L 57.5 -48 C 57.5 -49.105 56.605 -50 55.5 -50 Z" fill="#bababa"/>
</g>
<g id="shape2">
<path d="M 6 -54 C 2.686 -54 0 -51.314 0 -48 L 0 -6 C 0 -2.686 2.686 0 6 0 L 75 0 C 78.314 0 81 -2.686 81 -6 L 81 -48 C 81 -51.314 78.314 -54 75 -54 Z" fill="#000000"/>
<path d="M 6 -53 C 3.239 -53 1 -50.761 1 -48 L 1 -6 C 1 -3.239 3.239 -1 6 -1 L 75 -1 C 77.761 -1 80 -3.239 80 -6 L 80 -48 C 80 -50.761 77.761 -53 75 -53 Z" fill="#8a8a8a"/>
<path d="M 6 -52 C 3.791 -52 2 -50.209 2 -48 L 2 -6 C 2 -3.791 3.791 -2 6 -2 L 75 -2 C 77.209 -2 79 -3.791 79 -6 L 79 -48 C 79 -50.209 77.209 -52 75 -52 Z" fill="#999999"/>
<path d="M 12 -51 C 10.343 -51 9 -49.657 9 -48 L 9 -18 C 9 -16.343 10.343 -15 12 -15 L 69 -15 C 70.657 -15 72 -16.343 72 -18 L 72 -48 C 72 -49.657 70.657 -51 69 -51 Z" fill="#8a8a8a"/>
<path d="M 12 -50 C 10.895 -50 10 -49.105 10 -48 L 10 -18 C 10 -16.895 10.895 -16 12 -16 L 69 -16 C 70.105 -16 71 -16.895 71 -18 L 71 -48 C 71 -49.105 70.105 -50 69 -50 Z" fill="#bababa"/>
</g>
<g id="shape3">
<path d="M 6 -54 C 2.686 -54 0 -51.314 0 -48 L 0 -6 C 0 -2.686 2.686 0 6 0 L 48 0 C 51.314 0 54 -2.686 54 -6 L 54 -48 C 54 -51.314 51.314 -54 48 -54 Z" fill="#000000"/>
<path d="M 6 -53 C 3.239 -53 1 -50.761 1 -48 L 1 -6 C 1 -3.239 3.239 -1 6 -1 L 48 -1 C 50.761 -1 53 -3.239 53 -6 L 53 -48 C 53 -50.761 50.761 -53 48 -53 Z" fill="#dadada"/>
<path d="M 6 -52 C 3.791 -52 2 -50.209 2 -48 L 2 -6 C 2 -3.791 3.791 -2 6 -2 L 48 -2 C 50.209 -2 52 -3.791 52 -6 L 52 -48 C 52 -50.209 50.209 -52 48 -52 Z" fill="#f2f2f2"/>
<path d="M 12 -51 C 10.343 -51 9 -49.657 9 -48 L 9 -18 C 9 -16.343 10.343 -15 12 -15 L 42 -15 C 43.657 -15 45 -16.343 45 -18 L 45 -48 C 45 -49.657 43.657 -51 42 -51 Z" fill="#dadada"/>
<path d="M 12 -50 C 10.895 -50 10 -49.105 10 -48 L 10 -18 C 10 -16.895 10.895 -16 12 -16 L 42 -16 C 43.105 -16 44 -16.895 44 -18 L 44 -48 C 44 -49.105 43.105 -50 42 -50 Z" fill="#ffffff"/>
</g>
<g id="shape4">
<path d="M 6 -54 C 2.686 -54 0 -51.314 0 -48 L 0 -6 C 0 -2.686 2.686 0 6 0 L 102 0 C 105.314 0 108 -2.686 108 -6 L 108 -48 C 108 -51.314 105.314 -54 102 -54 Z" fill="#000000"/>
<path d="M 6 -53 C 3.239 -53 1 -50.761 1 -48 L 1 -6 C 1 -3.239 3.239 -1 6 -1 L 102 -1 C 104.761 -1 107 -3.239 107 -6 L 107 -48 C 107 -50.761 104.761 -53 102 -53 Z" fill="#8a8a8a"/>
<path d="M 6 -52 C 3.791 -52 2 -50.209 2 -48 L 2 -6 C 2 -3.791 3.791 -2 6 -2 L 102 -2 C 104.209 -2 106 -3.791 106 -6 L 106 -48 C 106 -50.209 104.209 -52 102 -52 Z" fill="#999999"/>
<path d="M 12 -51 C 10.343 -51 9 -49.657 9 -48 L 9 -18 C 9 -16.343 10.343 -15 12 -15 L 96 -15 C 97.657 -15 99 -16.343 99 -18 L 99 -48 C 99 -49.657 97.657 -51 96 -51 Z" fill="#8a8a8a"/>
<path d="M 12 -50 C 10.895 -50 10 -49.105 10 -48 L 10 -18 C 10 -16.895 10.895 -16 12 -16 L 96 -16 C 97.105 -16 98 -16.895 98 -18 L 98 -48 C 98 -49.105 97.105 -50 96 -50 Z" fill="#bababa"/>
</g>
<g id="shape5">
<path d="M 46.5 -108 C 43.186 -108 40.5 -105.314 40.5 -102 L 40.5 -54 L 6 -54 C 2.686 -54 0 -51.314 0 -48 L 0 -6 C 0 -2.686 2.686 0 6 0 L 115.5 0 C 118.814 0 121.5 -2.686 121.5 -6 L 121.5 -102 C 121.5 -105.314 118.814 -108 115.5 -108 Z" fill="#000000"/>
<path d="M 46.5 -107 C 43.739 -107 41.5 -104.761 41.5 -102 L 41.5 -54 L 41.5 -53 L 40.5 -53 L 6 -53 C 3.239 -53 1 -50.761 1 -48 L 1 -6 C 1 -3.239 3.239 -1 6 -1 L 115.5 -1 C 118.261 -1 120.5 -3.239 120.5 -6 L 120.5 -102 C 120.5 -104.761 118.261 -107 115.5 -107 Z" fill="#8a8a8a"/>
<path d="M 46.5 -106 C 44.291 -106 42.5 -104.209 42.5 -102 L 42.5 -54 L 42.5 -52 L 6 -52 C 3.791 -52 2 -50.209 2 -48 L 2 -6 C 2 -3.791 3.791 -2 6 -2 L 115.5 -2 C 117.709 -2 119.5 -3.791 119.5 -6 L 119.5 -102 C 119.5 -104.209 117.709 -106 115.5 -106 Z" fill="#999999"/>
<path d="M 52.5 -105 C 50.843 -105 49.5 -103.657 49.5 -102 L 49.5 -60 L 49.5 -51 L 40.5 -51 L 12 -51 C 10.343 -51 9 -49.657 9 -48 L 9 -18 C 9 -16.343 10.343 -15 12 -15 L 109.5 -15 C 111.157 -15 112.5 -16.343 112.5 -18 L 112.5 -102 C 112.5 -103.657 111.157 -105 109.5 -105 Z" fill="#8a8a8a"/>
<path d="M 52.5 -104 C 51.395 -104 50.5 -103.105 50.5 -102 L 50.5 -60 L 50.5 -50 L 12 -50 C 10.895 -50 10 -49.105 10 -48 L 10 -18 C 10 -16.895 10.895 -16 12 -16 L 109.5 -16 C 110.605 -16 111.5 -16.895 111.5 -18 L 111.5 -102 C 111.5 -103.105 110.605 -104 109.5 -104 Z" fill="#bababa"/>
</g>
<g id="shape6">
<path d="M 6 -54 C 2.686 -54 0 -51.314 0 -48 L 0 -6 C 0 -2.686 2.686 0 6 0 L 142.5 0 C 145.814 0 148.5 -2.686 148.5 -6 L 148.5 -48 C 148.5 -51.314 145.814 -54 142.5 -54 Z" fill="#000000"/>
<path d="M 6 -53 C 3.239 -53 1 -50.761 1 -48 L 1 -6 C 1 -3.239 3.239 -1 6 -1 L 142.5 -1 C 145.261 -1 147.5 -3.239 147.5 -6 L 147.5 -48 C 147.5 -50.761 145.261 -53 142.5 -53 Z" fill="#8a8a8a"/>
<path d="M 6 -52 C 3.791 -52 2 -50.209 2 -48 L 2 -6 C 2 -3.791 3.791 -2 6 -2 L 142.5 -2 C 144.709 -2 146.5 -3.791 146.5 -6 L 146.5 -48 C 146.5 -50.209 144.709 -52 142.5 -52 Z" fill="#999999"/>
<path d="M 12 -51 C 10.343 -51 9 -49.657 9 -48 L 9 -18 C 9 -16.343 10.343 -15 12 -15 L 136.5 -15 C 138.157 -15 139.5 -16.343 139.5 -18 L 139.5 -48 C 139.5 -49.657 138.157 -51 136.5 -51 Z" fill="#8a8a8a"/>
<path d="M 12 -50 C 10.895 -50 10 -49.105 10 -48 L 10 -18 C 10 -16.895 10.895 -16 12 -16 L 136.5 -16 C 137.605 -16 138.5 -16.895 138.5 -18 L 138.5 -48 C 138.5 -49.105 137.605 -50 136.5 -50 Z" fill="#bababa"/>
</g>
<g id="shape7">
<path d="M 6 -54 C 2.686 -54 0 -51.314 0 -48 L 0 -6 C 0 -2.686 2.686 0 6 0 L 480 0 C 483.314 0 486 -2.686 486 -6 L 486 -48 C 486 -51.314 483.314 -54 480 -54 Z" fill="#000000"/>
<path d="M 6 -53 C 3.239 -53 1 -50.761 1 -48 L 1 -6 C 1 -3.239 3.239 -1 6 -1 L 480 -1 C 482.761 -1 485 -3.239 485 -6 L 485 -48 C 485 -50.761 482.761 -53 480 -53 Z" fill="#dadada"/>
<path d="M 6 -52 C 3.791 -52 2 -50.209 2 -48 L 2 -6 C 2 -3.791 3.791 -2 6 -2 L 480 -2 C 482.209 -2 484 -3.791 484 -6 L 484 -48 C 484 -50.209 482.209 -52 480 -52 Z" fill="#f2f2f2"/>
<path d="M 12 -51 C 10.343 -51 9 -49.657 9 -48 L 9 -18 C 9 -16.343 10.343 -15 12 -15 L 474 -15 C 475.657 -15 477 -16.343 477 -18 L 477 -48 C 477 -49.657 475.657 -51 474 -51 Z" fill="#dadada"/>
<path d="M 12 -50 C 10.895 -50 10 -49.105 10 -48 L 10 -18 C 10 -16.895 10.895 -16 12 -16 L 474 -16 C 475.105 -16 476 -16.895 476 -18 L 476 -48 C 476 -49.105 475.105 -50 474 -50 Z" fill="#ffffff"/>
</g>
<g id="shape8">
<path d="M 6 -54 C 2.686 -54 0 -51.314 0 -48 L 0 -6 C 0 -2.686 2.686 0 6 0 L 102 0 C 105.314 0 108 -2.686 108 -6 L 108 -48 C 108 -51.314 105.314 -54 102 -54 Z" fill="#000000"/>
<path d="M 6 -53 C 3.239 -53 1 -50.761 1 -48 L 1 -6 C 1 -3.239 3.239 -1 6 -1 L 102 -1 C 104.761 -1 107 -3.239 107 -6 L 107 -48 C 107 -50.761 104.761 -53 102 -53 Z" fill="#dadada"/>
<path d="M 6 -52 C 3.791 -52 2 -50.209 2 -48 L 2 -6 C 2 -3.791 3.791 -2 6 -2 L 102 -2 C 104.209 -2 106 -3.791 106 -6 L 106 -48 C 106 -50.209 104.209 -52 102 -52 Z" fill="#f2f2f2"/>
<path d="M 12 -51 C 10.343 -51 9 -49.657 9 -48 L 9 -18 C 9 -16.343 10.343 -15 12 -15 L 96 -15 C 97.657 -15 99 -16.343 99 -18 L 99 -48 C 99 -49.657 97.657 -51 96 -51 Z" fill="#dadada"/>
<path d="M 12 -50 C 10.895 -50 10 -49.105 10 -48 L 10 -18 C 10 -16.895 10.895 -16 12 -16 L 96 -16 C 97.105 -16 98 -16.895 98 -18 L 98 -48 C 98 -49.105 97.105 -50 96 -50 Z" fill="#ffffff"/>
</g>
<g id="shape9">
<path d="M 6 -108 C 2.686 -108 0 -105.314 0 -102 L 0 -6 C 0 -2.686 2.686 0 6 0 L 48 0 C 51.314 0 54 -2.686 54 -6 L 54 -102 C 54 -105.314 51.314 -108 48 -108 Z" fill="#000000"/>
<path d="M 6 -107 C 3.239 -107 1 -104.761 1 -102 L 1 -6 C 1 -3.239 3.239 -1 6 -1 L 48 -1 C 50.761 -1 53 -3.239 53 -6 L 53 -102 C 53 -104.761 50.761 -107 48 -107 Z" fill="#8a8a8a"/>
<path d="M 6 -106 C 3.791 -106 2 -104.209 2 -102 L 2 -6 C 2 -3.791 3.791 -2 6 -2 L 48 -2 C 50.209 -2 52 -3.791 52 -6 L 52 -102 C 52 -104.209 50.209 -106 48 -106 Z" fill="#999999"/>
<path d="M 12 -105 C 10.343 -105 9 -103.657 9 -102 L 9 -18 C 9 -16.343 10.343 -15 12 -15 L 42 -15 C 43.657 -15 45 -16.343 45 -18 L 45 -102 C 45 -103.657 43.657 -105 42 -105 Z" fill="#8a8a8a"/>
<path d="M 12 -104 C 10.895 -104 10 -103.105 10 -102 L 10 -18 C 10 -16.895 10.895 -16 12 -16 L 42 -16 C 43.105 -16 44 -16.895 44 -18 L 44 -102 C 44 -103.105 43.105 -104 42 -104 Z" fill="#bababa"/>
</g>
<path id="path0" d="M 0.654 0.414 l -0.24 0.24 h 0.24 V 0.414 z M -0.039 1 V 0.923 h 0.077 L 0.961 0 v 0.923 h 0.078 V 1 H 0.577 V 0.923 h 0.077 V 0.73 H 0.336 L 0.144 0.923 H 0.23 V 1 H -0.039 z"/>
<path id="path1" d="M 0.885 0.185 L 0.731 0.338 v 0.585 h 0.154 V 0.185 z M 0.654 0.414 l -0.24 0.24 h 0.24 V 0.414 z M -0.039 1 V 0.923 h 0.077 L 0.961 0 v 0.923 h 0.078 V 1 H 0.577 V 0.923 h 0.077 V 0.73 H 0.336 L 0.144 0.923 h 0.087 V 1 H -0.039 z"/>
</defs>
<g class="keyboard">
<g class="key">
<use xlink:href="#shape0" transform="translate(0 -297)"/>
<text x="12" y="-337" text-anchor="start" font-family="Arial" font-size="10" fill="#1a1a1a">Esc</text>
</g>
<g class="key">
<use xlink:href="#shape1" transform="translate(81 -297)"/>
<text x="93" y="-337" text-anchor="start" font-family="Arial" font-size="10" fill="#1a1a1a">F1</text>
</g>
<g class="key">
<use xlink:href="#shape1" transform="translate(148.5 -297)"/>
<text x="160.5" y="-337" text-anchor="start" font-family="Arial" font-size="10" fill="#1a1a1a">F2</text>
</g>
<g class="key">
<use xlink:href="#shape1" transform="translate(216 -297)"/>
<text x="228" y="-337" text-anchor="start" font-family="Arial" font-size="10" fill="#1a1a1a">F3</text>
</g>
<g class="key">
<use xlink:href="#shape1" transform="translate(283.5 -297)"/>
<text x="295.5" y="-337" text-anchor="start" font-family="Arial" font-size="10" fill="#1a1a1a">F4</text>
</g>
<g class="key">
<use xlink:href="#shape1" transform="translate(351 -297)"/>
<text x="363" y="-337" text-anchor="start" font-family="Arial" font-size="10" fill="#1a1a1a">F5</text>
</g>
<g class="key">
<use xlink:href="#shape1" transform="translate(445.5 -297)"/>
<text x="457.5" y="-337" text-anchor="start" font-family="Arial" font-size="10" fill="#1a1a1a">F6</text>
</g>
<g class="key">
<use xlink:href="#shape1" transform="translate(513 -297)"/>
<text x="525" y="-337" text-anchor="start" font-family="Arial" font-size="10" fill="#1a1a1a">F7</text>
</g>
<g class="key">
<use xlink:href="#shape1" transform="translate(580.5 -297)"/>
<text x="592.5" y="-337" text-anchor="start" font-family="Arial" font-size="10" fill="#1a1a1a">F8</text>
</g>
<g class="key">
<use xlink:href="#shape1" transform="translate(648 -297)"/>
<text x="660" y="-337" text-anchor="start" font-family="Arial" font-size="10" fill="#1a1a1a">F9</text>
</g>
<g class="key">
<use xlink:href="#shape1" transform="translate(715.5 -297)"/>
<text x="727.5" y="-337" text-anchor="start" font-family="Arial" font-size="10" fill="#1a1a1a">F10</text>
</g>
<g class="key">
<use xlink:href="#shape2" transform="translate(0 -216)"/>
<text x="12" y="-239.4" text-anchor="start" font-family="Arial" font-size="12" fill="#1a1a1a">`</text>
<text x="12" y="-254.4" text-anchor="start" font-family="Arial" font-size="12" fill="#1a1a1a">~</text>
</g>
<g class="key">
<use xlink:href="#shape3" transform="translate(81 -216)"/>
<text x="93" y="-239.4" text-anchor="start" font-family="Arial" font-size="12" fill="#1a1a1a">1</text>
<text x="93" y="-254.4" text-anchor="start" font-family="Arial" font-size="12" fill="#1a1a1a">!</text>
</g>
<g class="key">
<use xlink:href="#shape3" transform="translate(135 -216)"/>
<text x="147" y="-239.4" text-anchor="start" font-family="Arial" font-size="12" fill="#1a1a1a">2</text>
<text x="147" y="-254.4" text-anchor="start" font-family="Arial" font-size="12" fill="#1a1a1a">@</text>
</g>
<g class="key">
<use xlink:href="#shape3" transform="translate(189 -216)"/>
<text x="201" y="-239.4" text-anchor="start" font-family="Arial" font-size="12" fill="#1a1a1a">3</text>
<text x="201" y="-254.4" text-anchor="start" font-family="Arial" font-size="12" fill="#1a1a1a">#</text>
</g>
<g class="key">
<use xlink:href="#shape3" transform="translate(243 -216)"/>
<text x="255" y="-239.4" text-anchor="start" font-family="Arial" font-size="12" fill="#1a1a1a">4</text>
<text x="255" y="-254.4" text-anchor="start" font-family="Arial" font-size="12" fill="#1a1a1a">$</text>
</g>
<g class="key">
<use xlink:href="#shape3" transform="translate(297 -216)"/>
<text x="309" y="-239.4" text-anchor="start" font-family="Arial" font-size="12" fill="#1a1a1a">5</text>
<text x="309" y="-254.4" text-anchor="start" font-family="Arial" font-size="12" fill="#1a1a1a">%</text>
</g>
<g class="key">
<use xlink:href="#shape3" transform="translate(351 -216)"/>
<text x="363" y="-239.4" text-anchor="start" font-family="Arial" font-size="12" fill="#1a1a1a">6</text>
<text x="363" y="-254.4" text-anchor="start" font-family="Arial" font-size="12" fill="#1a1a1a">^</text>
</g>
<g class="key">
<use xlink:href="#shape3" transform="translate(405 -216)"/>
<text x="417" y="-239.4" text-anchor="start" font-family="Arial" font-size="12" fill="#1a1a1a">7</text>
<text x="417" y="-254.4" text-anchor="start" font-family="Arial" font-size="12" fill="#1a1a1a">&amp;</text>
</g>
<g class="key">
<use xlink:href="#shape3" transform="translate(459 -216)"/>
<text x="471" y="-239.4" text-anchor="start" font-family="Arial" font-size="12" fill="#1a1a1a">8</text>
<text x="471" y="-254.4" text-anchor="start" font-family="Arial" font-size="12" fill="#1a1a1a">*</text>
</g>
<g class="key">
<use xlink:href="#shape3" transform="translate(513 -216)"/>
<text x="525" y="-239.4" text-anchor="start" font-family="Arial" font-size="12" fill="#1a1a1a">9</text>
<text x="525" y="-254.4" text-anchor="start" font-family="Arial" font-size="12" fill="#1a1a1a">(</text>
</g>
<g class="key">
<use xlink:href="#shape3" transform="translate(567 -216)"/>
<text x="579" y="-239.4" text-anchor="start" font-family="Arial" font-size="12" fill="#1a1a1a">0</text>
<text x="579" y="-254.4" text-anchor="start" font-family="Arial" font-size="12" fill="#1a1a1a">)</text>
</g>
<g class="key">
<use xlink:href="#shape3" transform="translate(621 -216)"/>
<text x="633" y="-239.4" text-anchor="start" font-family="Arial" font-size="12" fill="#1a1a1a">&#8722;</text>
<text x="633" y="-254.4" text-anchor="start" font-family="Arial" font-size="12" fill="#1a1a1a">_</text>
</g>
<g class="key">
<use xlink:href="#shape3" transform="translate(675 -216)"/>
<text x="687" y="-239.4" text-anchor="start" font-family="Arial" font-size="12" fill="#1a1a1a">=</text>
<text x="687" y="-254.4" text-anchor="start" font-family="Arial" font-size="12" fill="#1a1a1a">+</text>
</g>
<g class="key">
<use xlink:href="#shape3" transform="translate(729 -216)"/>
<text x="741" y="-239.4" text-anchor="start" font-family="Arial" font-size="12" fill="#1a1a1a">\</text>
<text x="741" y="-254.4" text-anchor="start" font-family="Arial" font-size="12" fill="#1a1a1a">&#166;</text>
</g>
<g class="key">
<use xlink:href="#shape0" transform="translate(783 -216)"/>
<text x="795" y="-256" text-anchor="start" font-family="Arial" font-size="10" fill="#1a1a1a">&#8592;</text>
</g>
<g class="key">
<use xlink:href="#shape2" transform="translate(864 -216)"/>
<text x="876" y="-256" text-anchor="start" font-family="Arial" font-size="10" fill="#1a1a1a">Del</text>
</g>
<g class="key">
<use xlink:href="#shape2" transform="translate(945 -216)"/>
<text x="957" y="-256" text-anchor="start" font-family="Arial" font-size="10" fill="#1a1a1a">Help</text>
</g>
<g class="key">
<use xlink:href="#shape0" transform="translate(1053 -216)"/>
<text x="1065" y="-252" text-anchor="start" font-family="Arial" font-size="15" fill="#1a1a1a">(</text>
<text x="1080" y="-221" text-anchor="middle" font-family="Arial" font-size="10" fill="#1a1a1a">Num L</text>
</g>
<g class="key">
<use xlink:href="#shape0" transform="translate(1107 -216)"/>
<text x="1119" y="-252" text-anchor="start" font-family="Arial" font-size="15" fill="#1a1a1a">)</text>
<text x="1134" y="-221" text-anchor="middle" font-family="Arial" font-size="10" fill="#1a1a1a">Scr L</text>
</g>
<g class="key">
<use xlink:href="#shape0" transform="translate(1161 -216)"/>
<text x="1173" y="-252" text-anchor="start" font-family="Arial" font-size="15" fill="#1a1a1a">/</text>
</g>
<g class="key">
<use xlink:href="#shape0" transform="translate(1215 -216)"/>
<text x="1227" y="-252" text-anchor="start" font-family="Arial" font-size="15" fill="#1a1a1a">*</text>
<text x="1242" y="-221" text-anchor="middle" font-family="Arial" font-size="10" fill="#1a1a1a">Prt Sc</text>
</g>
<g class="key">
<use xlink:href="#shape4" transform="translate(0 -162)"/>
<text x="12" y="-187" text-anchor="start" font-family="Arial" font-size="10" fill="#1a1a1a">&#8677;</text>
<text x="12" y="-202" text-anchor="start" font-family="Arial" font-size="10" fill="#1a1a1a">&#8676;</text>
</g>
<g class="key">
<use xlink:href="#shape3" transform="translate(108 -162)"/>
<text x="120" y="-198" text-anchor="start" font-family="Arial" font-size="15" fill="#1a1a1a">Q</text>
</g>
<g class="key">
<use xlink:href="#shape3" transform="translate(162 -162)"/>
<text x="174" y="-198" text-anchor="start" font-family="Arial" font-size="15" fill="#1a1a1a">W</text>
</g>
<g class="key">
<use xlink:href="#shape3" transform="translate(216 -162)"/>
<text x="228" y="-198" text-anchor="start" font-family="Arial" font-size="15" fill="#1a1a1a">E</text>
</g>
<g class="key">
<use xlink:href="#shape3" transform="translate(270 -162)"/>
<text x="282" y="-198" text-anchor="start" font-family="Arial" font-size="15" fill="#1a1a1a">R</text>
</g>
<g class="key">
<use xlink:href="#shape3" transform="translate(324 -162)"/>
<text x="336" y="-198" text-anchor="start" font-family="Arial" font-size="15" fill="#1a1a1a">T</text>
</g>
<g class="key">
<use xlink:href="#shape3" transform="translate(378 -162)"/>
<text x="390" y="-198" text-anchor="start" font-family="Arial" font-size="15" fill="#1a1a1a">Y</text>
</g>
<g class="key">
<use xlink:href="#shape3" transform="translate(432 -162)"/>
<text x="444" y="-198" text-anchor="start" font-family="Arial" font-size="15" fill="#1a1a1a">U</text>
</g>
<g class="key">
<use xlink:href="#shape3" transform="translate(486 -162)"/>
<text x="498" y="-198" text-anchor="start" font-family="Arial" font-size="15" fill="#1a1a1a">I</text>
</g>
<g class="key">
<use xlink:href="#shape3" transform="translate(540 -162)"/>
<text x="552" y="-198" text-anchor="start" font-family="Arial" font-size="15" fill="#1a1a1a">O</text>
</g>
<g class="key">
<use xlink:href="#shape3" transform="translate(594 -162)"/>
<text x="606" y="-198" text-anchor="start" font-family="Arial" font-size="15" fill="#1a1a1a">P</text>
</g>
<g class="key">
<use xlink:href="#shape3" transform="translate(648 -162)"/>
<text x="660" y="-185.4" text-anchor="start" font-family="Arial" font-size="12" fill="#1a1a1a">[</text>
<text x="660" y="-200.4" text-anchor="start" font-family="Arial" font-size="12" fill="#1a1a1a">{</text>
</g>
<g class="key">
<use xlink:href="#shape3" transform="translate(702 -162)"/>
<text x="714" y="-185.4" text-anchor="start" font-family="Arial" font-size="12" fill="#1a1a1a">]</text>
<text x="714" y="-200.4" text-anchor="start" font-family="Arial" font-size="12" fill="#1a1a1a">}</text>
</g>
<g class="key">
<use xlink:href="#shape3" transform="translate(1053 -162)"/>
<text x="1065" y="-198" text-anchor="start" font-family="Arial" font-size="15" fill="#1a1a1a">7</text>
<text x="1080" y="-167" text-anchor="middle" font-family="Arial" font-size="10" fill="#1a1a1a">Home</text>
</g>
<g class="key">
<use xlink:href="#shape3" transform="translate(1107 -162)"/>
<text x="1119" y="-198" text-anchor="start" font-family="Arial" font-size="15" fill="#1a1a1a">8</text>
<text x="1134" y="-167" text-anchor="middle" font-family="Arial" font-size="10" fill="#1a1a1a">&#8593;</text>
</g>
<g class="key">
<use xlink:href="#shape3" transform="translate(1161 -162)"/>
<text x="1173" y="-198" text-anchor="start" font-family="Arial" font-size="15" fill="#1a1a1a">9</text>
<text x="1188" y="-167" text-anchor="middle" font-family="Arial" font-size="10" fill="#1a1a1a">Pg Up</text>
</g>
<g class="key">
<use xlink:href="#shape0" transform="translate(1215 -162)"/>
<text x="1227" y="-198" text-anchor="start" font-family="Arial" font-size="15" fill="#1a1a1a">&#8722;</text>
</g>
<g class="key">
<use xlink:href="#shape1" transform="translate(0 -108)"/>
<text x="12" y="-148" text-anchor="start" font-family="Arial" font-size="10" fill="#1a1a1a">Ctrl</text>
</g>
<g class="key">
<use xlink:href="#shape0" transform="translate(67.5 -108)"/>
<text x="79.5" y="-148" text-anchor="start" font-family="Arial" font-size="10" fill="#1a1a1a">Caps</text>
<text x="79.5" y="-138" text-anchor="start" font-family="Arial" font-size="10" fill="#1a1a1a">Lock</text>
</g>
<g class="key">
<use xlink:href="#shape3" transform="translate(121.5 -108)"/>
<text x="133.5" y="-144" text-anchor="start" font-family="Arial" font-size="15" fill="#1a1a1a">A</text>
</g>
<g class="key">
<use xlink:href="#shape3" transform="translate(175.5 -108)"/>
<text x="187.5" y="-144" text-anchor="start" font-family="Arial" font-size="15" fill="#1a1a1a">S</text>
</g>
<g class="key">
<use xlink:href="#shape3" transform="translate(229.5 -108)"/>
<text x="241.5" y="-144" text-anchor="start" font-family="Arial" font-size="15" fill="#1a1a1a">D</text>
</g>
<g class="key">
<use xlink:href="#shape3" transform="translate(283.5 -108)"/>
<text x="295.5" y="-144" text-anchor="start" font-family="Arial" font-size="15" fill="#1a1a1a">F</text>
</g>
<g class="key">
<use xlink:href="#shape3" transform="translate(337.5 -108)"/>
<text x="349.5" y="-144" text-anchor="start" font-family="Arial" font-size="15" fill="#1a1a1a">G</text>
</g>
<g class="key">
<use xlink:href="#shape3" transform="translate(391.5 -108)"/>
<text x="403.5" y="-144" text-anchor="start" font-family="Arial" font-size="15" fill="#1a1a1a">H</text>
</g>
<g class="key">
<use xlink:href="#shape3" transform="translate(445.5 -108)"/>
<text x="457.5" y="-144" text-anchor="start" font-family="Arial" font-size="15" fill="#1a1a1a">J</text>
</g>
<g class="key">
<use xlink:href="#shape3" transform="translate(499.5 -108)"/>
<text x="511.5" y="-144" text-anchor="start" font-family="Arial" font-size="15" fill="#1a1a1a">K</text>
</g>
<g class="key">
<use xlink:href="#shape3" transform="translate(553.5 -108)"/>
<text x="565.5" y="-144" text-anchor="start" font-family="Arial" font-size="15" fill="#1a1a1a">L</text>
</g>
<g class="key">
<use xlink:href="#shape3" transform="translate(607.5 -108)"/>
<text x="619.5" y="-131.4" text-anchor="start" font-family="Arial" font-size="12" fill="#1a1a1a">;</text>
<text x="619.5" y="-146.4" text-anchor="start" font-family="Arial" font-size="12" fill="#1a1a1a">:</text>
</g>
<g class="key">
<use xlink:href="#shape3" transform="translate(661.5 -108)"/>
<text x="673.5" y="-131.4" text-anchor="start" font-family="Arial" font-size="12" fill="#1a1a1a">&#39;</text>
<text x="673.5" y="-146.4" text-anchor="start" font-family="Arial" font-size="12" fill="#1a1a1a">&#34;</text>
</g>
<g class="key">
<use xlink:href="#shape5" transform="translate(715.5 -108)"/>
<text x="776.25" y="-148" text-anchor="middle" font-family="Arial" font-size="10" fill="#1a1a1a">&#8626;</text>
</g>
<g class="key">
<use xlink:href="#shape3" transform="translate(918 -108)"/>
<text x="930" y="-148" text-anchor="start" font-family="Arial" font-size="10" fill="#1a1a1a">&#8593;</text>
</g>
<g class="key">
<use xlink:href="#shape3" transform="translate(1053 -108)"/>
<text x="1065" y="-144" text-anchor="start" font-family="Arial" font-size="15" fill="#1a1a1a">4</text>
<text x="1080" y="-113" text-anchor="middle" font-family="Arial" font-size="10" fill="#1a1a1a">&#8592;</text>
</g>
<g class="key">
<use xlink:href="#shape3" transform="translate(1107 -108)"/>
<text x="1119" y="-144" text-anchor="start" font-family="Arial" font-size="15" fill="#1a1a1a">5</text>
</g>
<g class="key">
<use xlink:href="#shape3" transform="translate(1161 -108)"/>
<text x="1173" y="-144" text-anchor="start" font-family="Arial" font-size="15" fill="#1a1a1a">6</text>
<text x="1188" y="-113" text-anchor="middle" font-family="Arial" font-size="10" fill="#1a1a1a">&#8594;</text>
</g>
<g class="key">
<use xlink:href="#shape0" transform="translate(1215 -108)"/>
<text x="1227" y="-144" text-anchor="start" font-family="Arial" font-size="15" fill="#1a1a1a">+</text>
</g>
<g class="key">
<use xlink:href="#shape6" transform="translate(0 -54)"/>
<text x="12" y="-94" text-anchor="start" font-family="Arial" font-size="10" fill="#1a1a1a">&#8679;</text>
</g>
<g class="key">
<use xlink:href="#shape3" transform="translate(148.5 -54)"/>
<text x="160.5" y="-90" text-anchor="start" font-family="Arial" font-size="15" fill="#1a1a1a">Z</text>
</g>
<g class="key">
<use xlink:href="#shape3" transform="translate(202.5 -54)"/>
<text x="214.5" y="-90" text-anchor="start" font-family="Arial" font-size="15" fill="#1a1a1a">X</text>
</g>
<g class="key">
<use xlink:href="#shape3" transform="translate(256.5 -54)"/>
<text x="268.5" y="-90" text-anchor="start" font-family="Arial" font-size="15" fill="#1a1a1a">C</text>
</g>
<g class="key">
<use xlink:href="#shape3" transform="translate(310.5 -54)"/>
<text x="322.5" y="-90" text-anchor="start" font-family="Arial" font-size="15" fill="#1a1a1a">V</text>
</g>
<g class="key">
<use xlink:href="#shape3" transform="translate(364.5 -54)"/>
<text x="376.5" y="-90" text-anchor="start" font-family="Arial" font-size="15" fill="#1a1a1a">B</text>
</g>
<g class="key">
<use xlink:href="#shape3" transform="translate(418.5 -54)"/>
<text x="430.5" y="-90" text-anchor="start" font-family="Arial" font-size="15" fill="#1a1a1a">N</text>
</g>
<g class="key">
<use xlink:href="#shape3" transform="translate(472.5 -54)"/>
<text x="484.5" y="-90" text-anchor="start" font-family="Arial" font-size="15" fill="#1a1a1a">M</text>
</g>
<g class="key">
<use xlink:href="#shape3" transform="translate(526.5 -54)"/>
<text x="538.5" y="-77.4" text-anchor="start" font-family="Arial" font-size="12" fill="#1a1a1a">,</text>
<text x="538.5" y="-92.4" text-anchor="start" font-family="Arial" font-size="12" fill="#1a1a1a">&lt;</text>
</g>
<g class="key">
<use xlink:href="#shape3" transform="translate(580.5 -54)"/>
<text x="592.5" y="-77.4" text-anchor="start" font-family="Arial" font-size="12" fill="#1a1a1a">.</text>
<text x="592.5" y="-92.4" text-anchor="start" font-family="Arial" font-size="12" fill="#1a1a1a">&gt;</text>
</g>
<g class="key">
<use xlink:href="#shape3" transform="translate(634.5 -54)"/>
<text x="646.5" y="-77.4" text-anchor="start" font-family="Arial" font-size="12" fill="#1a1a1a">/</text>
<text x="646.5" y="-92.4" text-anchor="start" font-family="Arial" font-size="12" fill="#1a1a1a">?</text>
</g>
<g class="key">
<use xlink:href="#shape6" transform="translate(688.5 -54)"/>
<text x="700.5" y="-94" text-anchor="start" font-family="Arial" font-size="10" fill="#1a1a1a">&#8679;</text>
</g>
<g class="key">
<use xlink:href="#shape3" transform="translate(864 -54)"/>
<text x="876" y="-94" text-anchor="start" font-family="Arial" font-size="10" fill="#1a1a1a">&#8592;</text>
</g>
<g class="key">
<use xlink:href="#shape3" transform="translate(918 -54)"/>
<text x="930" y="-94" text-anchor="start" font-family="Arial" font-size="10" fill="#1a1a1a">&#8595;</text>
</g>
<g class="key">
<use xlink:href="#shape3" transform="translate(972 -54)"/>
<text x="984" y="-94" text-anchor="start" font-family="Arial" font-size="10" fill="#1a1a1a">&#8594;</text>
</g>
<g class="key">
<use xlink:href="#shape3" transform="translate(1053 -54)"/>
<text x="1065" y="-90" text-anchor="start" font-family="Arial" font-size="15" fill="#1a1a1a">1</text>
<text x="1080" y="-59" text-anchor="middle" font-family="Arial" font-size="10" fill="#1a1a1a">End</text>
</g>
<g class="key">
<use xlink:href="#shape3" transform="translate(1107 -54)"/>
<text x="1119" y="-90" text-anchor="start" font-family="Arial" font-size="15" fill="#1a1a1a">2</text>
<text x="1134" y="-59" text-anchor="middle" font-family="Arial" font-size="10" fill="#1a1a1a">&#8595;</text>
</g>
<g class="key">
<use xlink:href="#shape3" transform="translate(1161 -54)"/>
<text x="1173" y="-90" text-anchor="start" font-family="Arial" font-size="15" fill="#1a1a1a">3</text>
<text x="1188" y="-59" text-anchor="middle" font-family="Arial" font-size="10" fill="#1a1a1a">Pg Dn</text>
</g>
<g class="key">
<use xlink:href="#shape1" transform="translate(40.5 0)"/>
<text x="52.5" y="-40" text-anchor="start" font-family="Arial" font-size="10" fill="#1a1a1a">Alt</text>
</g>
<g class="key">
<use xlink:href="#shape1" transform="translate(108 0)"/>
<use xlink:href="#path0" transform="translate(120 -48) scale(10 10)" fill="#1a1a1a"/>
</g>
<g class="key">
<use xlink:href="#shape7" transform="translate(175.5 0)"/>
</g>
<g class="key">
<use xlink:href="#shape1" transform="translate(661.5 0)"/>
<use xlink:href="#path1" transform="translate(673.5 -48) scale(10 10)" fill="#1a1a1a"/>
</g>
<g class="key">
<use xlink:href="#shape1" transform="translate(729 0)"/>
<text x="741" y="-40" text-anchor="start" font-family="Arial" font-size="10" fill="#1a1a1a">Alt</text>
</g>
<g class="key">
<use xlink:href="#shape8" transform="translate(1053 0)"/>
<text x="1065" y="-36" text-anchor="start" font-family="Arial" font-size="15" fill="#1a1a1a">0</text>
<text x="1107" y="-5" text-anchor="middle" font-family="Arial" font-size="10" fill="#1a1a1a">Ins</text>
</g>
<g class="key">
<use xlink:href="#shape3" transform="translate(1161 0)"/>
<text x="1173" y="-36" text-anchor="start" font-family="Arial" font-size="15" fill="#1a1a1a">.</text>
<text x="1188" y="-5" text-anchor="middle" font-family="Arial" font-size="10" fill="#1a1a1a">Del</text>
</g>
<g class="key">
<use xlink:href="#shape9" transform="translate(1215 0)"/>
<text x="1227" y="-94" text-anchor="start" font-family="Arial" font-size="10" fill="#1a1a1a">E</text>
<text x="1227" y="-84" text-anchor="start" font-family="Arial" font-size="10" fill="#1a1a1a">n</text>
<text x="1227" y="-74" text-anchor="start" font-family="Arial" font-size="10" fill="#1a1a1a">t</text>
<text x="1227" y="-64" text-anchor="start" font-family="Arial" font-size="10" fill="#1a1a1a">e</text>
<text x="1227" y="-54" text-anchor="start" font-family="Arial" font-size="10" fill="#1a1a1a">r</text>
</g>
</g>
</svg>
