<?xml version="1.0"?>
<svg xmlns="http://www.w3.org/2000/svg" xmlns:xlink="http://www.w3.org/1999/xlink" version="1.1" width="1147.5" height="270" viewBox="0 -270 1147.5 270">
<defs>
<g id="shape0">
<path d="M 6 -54 C 2.686 -54 0 -51.314 0 -48 L 0 -6 C 0 -2.686 2.686 0 6 0 L 48 0 C 51.314 0 54 -2.686 54 -6 L 54 -48 C 54 -51.314 51.314 -54 48 -54 Z" fill="#000000"/>
<path d="M 6 -53 C 3.239 -53 1 -50.761 1 -48 L 1 -6 C 1 -3.239 3.239 -1 6 -1 L 48 -1 C 50.761 -1 53 -3.239 53 -6 L 53 -48 C 53 -50.761 50.761 -53 48 -53 Z" fill="#8a8a8a"/>
<path d="M 6 -52 C 3.791 -52 2 -50.209 2 -48 L 2 -6 C 2 -3.791 3.791 -2 6 -2 L 48 -2 C 50.209 -2 52 -3.791 52 -6 L 52 -48 C 52 -50.209 50.209 -52 48 -52 Z" fill="#999999"/>
<path d="M 12 -51 C 10.343 -51 9 -49.657 9 -48 L 9 -18 C 9 -16.343 10.343 -15 12 -15 L 42 -15 C 43.657 -15 45 -16.343 45 -18 L 45 -48 C 45 -49.657 43.657 -51 42 -51 Z" fill="#8a8a8a"/>
<path d="M 12 -50 C 10.895 -50 10 -49.105 10 -48 L 10 -18 C 10 -16.895 10.895 -16 12 -16 L 42 -16 C 43.105 -16 44 -16.895 44 -18 L 44 -48 C 44 -49.105 43.105 -50 42 -50 Z" fill="#bababa"/>
</g>
<g id="shape1">
<path d="M 6 -54 C 2.686 -54 0 -51.314 0 -48 L 0 -6 C 0 -2.686 2.686 0 6 0 L 102 0 C 105.314 0 108 -2.686 108 -6 L 108 -48 C 108 -51.314 105.314 -54 102 -54 Z" fill="#000000"/>
<path d="M 6 -53 C 3.239 -53 1 -50.761 1 -48 L 1 -6 C 1 -3.239 3.239 -1 6 -1 L 102 -1 C 104.761 -1 107 -3.239 107 -6 L 107 -48 C 107 -50.761 104.761 -53 102 -53 Z" fill="#8a8a8a"/>
<path d="M 6 -52 C 3.791 -52 2 -50.209 2 -48 L 2 -6 C 2 -3.791 3.791 -2 6 -2 L 102 -2 C 104.209 -2 106 -3.791 106 -6 L 106 -48 C 106 -50.209 104.209 -52 102 -52 Z" fill="#999999"/>
<path d="M 39 -51 C 37.343 -51 36 -49.657 36 -48 L 36 -18 C 36 -16.343 37.343 -15 39 -15 L 69 -15 C 70.657 -15 72 -16.343 72 -18 L 72 -48 C 72 -49.657 70.657 -51 69 -51 Z M 9 -51 C 7.343 -51 6 -49.657 6 -48 L 6 -12 C 6 -10.343 7.343 -9 9 -9 L 33.354 -9 C 32.524 -9.733 32 -10.805 32 -12 L 32 -48 C 32 -49.195 32.524 -50.267 33.354 -51 Z M 74.646 -51 C 75.476 -50.267 76 -49.195 76 -48 L 76 -12 C 76 -10.805 75.476 -9.733 74.646 -9 L 99 -9 C 100.657 -9 102 -10.343 102 -12 L 102 -48 C 102 -49.657 100.657 -51 99 -51 Z" fill="#8a8a8a"/>
<path d="M 39 -50 C 37.895 -50 37 -49.105 37 -48 L 37 -18 C 37 -16.895 37.895 -16 39 -16 L 69 -16 C 70.105 -16 71 -16.895 71 -18 L 71 -48 C 71 -49.105 70.105 -50 69 -50 Z M 9 -50 C 7.895 -50 7 -49.105 7 -48 L 7 -12 C 7 -10.895 7.895 -10 9 -10 L 31.416 -10 C 31.148 -10.612 31 -11.289 31 -12 L 31 -48 C 31 -48.711 31.148 -49.388 31.416 -50 Z M 76.584 -50 C 76.852 -49.388 77 -48.711 77 -48 L 77 -12 C 77 -11.289 76.852 -10.612 76.584 -10 L 99 -10 C 100.105 -10 101 -10.895 101 -12 L 101 -48 C 101 -49.105 100.105 -50 99 -50 Z" fill="#bababa"/>
</g>
<g id="shape2">
<path d="M 6 -54 C 2.686 -54 0 -51.314 0 -48 L 0 -6 C 0 -2.686 2.686 0 6 0 L 520.5 0 C 523.814 0 526.5 -2.686 526.5 -6 L 526.5 -48 C 526.5 -51.314 523.814 -54 520.5 -54 Z" fill="#000000"/>
<path d="M 6 -53 C 3.239 -53 1 -50.761 1 -48 L 1 -6 C 1 -3.239 3.239 -1 6 -1 L 520.5 -1 C 523.261 -1 525.5 -3.239 525.5 -6 L 525.5 -48 C 525.5 -50.761 523.261 -53 520.5 -53 Z" fill="#dadada"/>
<path d="M 6 -52 C 3.791 -52 2 -50.209 2 -48 L 2 -6 C 2 -3.791 3.791 -2 6 -2 L 520.5 -2 C 522.709 -2 524.5 -3.791 524.5 -6 L 524.5 -48 C 524.5 -50.209 522.709 -52 520.5 -52 Z" fill="#f2f2f2"/>
<path d="M 12 -51 C 10.343 -51 9 -49.657 9 -48 L 9 -18 C 9 -16.343 10.343 -15 12 -15 L 514.5 -15 C 516.157 -15 517.5 -16.343 517.5 -18 L 517.5 -48 C 517.5 -49.657 516.157 -51 514.5 -51 Z" fill="#dadada"/>
<path d="M 12 -50 C 10.895 -50 10 -49.105 10 -48 L 10 -18 C 10 -16.895 10.895 -16 12 -16 L 514.5 -16 C 515.605 -16 516.5 -16.895 516.5 -18 L 516.5 -48 C 516.5 -49.105 515.605 -50 514.5 -50 Z" fill="#ffffff"/>
</g>
<g id="shape3">
<path d="M 6 -54 C 2.686 -54 0 -51.314 0 -48 L 0 -6 C 0 -2.686 2.686 0 6 0 L 102 0 C 105.314 0 108 -2.686 108 -6 L 108 -48 C 108 -51.314 105.314 -54 102 -54 Z" fill="#000000"/>
<path d="M 6 -53 C 3.239 -53 1 -50.761 1 -48 L 1 -6 C 1 -3.239 3.239 -1 6 -1 L 102 -1 C 104.761 -1 107 -3.239 107 -6 L 107 -48 C 107 -50.761 104.761 -53 102 -53 Z" fill="#dadada"/>
<path d="M 6 -52 C 3.791 -52 2 -50.209 2 -48 L 2 -6 C 2 -3.791 3.791 -2 6 -2 L 102 -2 C 104.209 -2 106 -3.791 106 -6 L 106 -48 C 106 -50.209 104.209 -52 102 -52 Z" fill="#f2f2f2"/>
<path d="M 39 -51 C 37.343 -51 36 -49.657 36 -48 L 36 -18 C 36 -16.343 37.343 -15 39 -15 L 69 -15 C 70.657 -15 72 -16.343 72 -18 L 72 -48 C 72 -49.657 70.657 -51 69 -51 Z M 9 -51 C 7.343 -51 6 -49.657 6 -48 L 6 -12 C 6 -10.343 7.343 -9 9 -9 L 33.354 -9 C 32.524 -9.733 32 -10.805 32 -12 L 32 -48 C 32 -49.195 32.524 -50.267 33.354 -51 Z M 74.646 -51 C 75.476 -50.267 76 -49.195 76 -48 L 76 -12 C 76 -10.805 75.476 -9.733 74.646 -9 L 99 -9 C 100.657 -9 102 -10.343 102 -12 L 102 -48 C 102 -49.657 100.657 -51 99 -51 Z" fill="#dadada"/>
<path d="M 39 -50 C 37.895 -50 37 -49.105 37 -48 L 37 -18 C 37 -16.895 37.895 -16 39 -16 L 69 -16 C 70.105 -16 71 -16.895 71 -18 L 71 -48 C 71 -49.105 70.105 -50 69 -50 Z M 9 -50 C 7.895 -50 7 -49.105 7 -48 L 7 -12 C 7 -10.895 7.895 -10 9 -10 L 31.416 -10 C 31.148 -10.612 31 -11.289 31 -12 L 31 -48 C 31 -48.711 31.148 -49.388 31.416 -50 Z M 76.584 -50 C 76.852 -49.388 77 -48.711 77 -48 L 77 -12 C 77 -11.289 76.852 -10.612 76.584 -10 L 99 -10 C 100.105 -10 101 -10.895 101 -12 L 101 -48 C 101 -49.105 100.105 -50 99 -50 Z" fill="#ffffff"/>
</g>
<g id="shape4">
<path d="M 6 -162 C 2.686 -162 0 -159.314 0 -156 L 0 -6 C 0 -2.686 2.686 0 6 0 L 48 0 C 51.314 0 54 -2.686 54 -6 L 54 -156 C 54 -159.314 51.314 -162 48 -162 Z" fill="#000000"/>
<path d="M 6 -161 C 3.239 -161 1 -158.761 1 -156 L 1 -6 C 1 -3.239 3.239 -1 6 -1 L 48 -1 C 50.761 -1 53 -3.239 53 -6 L 53 -156 C 53 -158.761 50.761 -161 48 -161 Z" fill="#8a8a8a"/>
<path d="M 6 -160 C 3.791 -160 2 -158.209 2 -156 L 2 -6 C 2 -3.791 3.791 -2 6 -2 L 48 -2 C 50.209 -2 52 -3.791 52 -6 L 52 -156 C 52 -158.209 50.209 -160 48 -160 Z" fill="#999999"/>
<path d="M 9 -159 C 7.343 -159 6 -157.657 6 -156 L 6 -104.646 L 6 -104.646 C 6.733 -105.476 7.805 -106 9 -106 L 45 -106 C 46.195 -106 47.267 -105.476 48 -104.646 L 48 -104.646 L 48 -156 C 48 -157.657 46.657 -159 45 -159 Z M 6 -104.646 L 6 -104.646 C 6 -104.646 6 -104.646 6 -104.646 L 6 -104.646 L 6 -104.646 Z M 12 -105 C 10.343 -105 9 -103.657 9 -102 L 9 -72 C 9 -70.343 10.343 -69 12 -69 L 42 -69 C 43.657 -69 45 -70.343 45 -72 L 45 -102 C 45 -103.657 43.657 -105 42 -105 Z M 6 -63.354 L 6 -12 C 6 -10.343 7.343 -9 9 -9 L 45 -9 C 46.657 -9 48 -10.343 48 -12 L 48 -63.354 L 48 -63.354 C 47.267 -62.524 46.195 -62 45 -62 L 9 -62 C 7.805 -62 6.733 -62.524 6 -63.354 Z" fill="#8a8a8a"/>
<path d="M 9 -158 C 7.895 -158 7 -157.105 7 -156 L 7 -106.584 L 7 -106.584 C 7.612 -106.852 8.289 -107 9 -107 L 45 -107 C 45.711 -107 46.388 -106.852 47 -106.584 L 47 -106.584 L 47 -156 C 47 -157.105 46.105 -158 45 -158 Z M 7 -106.584 L 7 -106.584 C 7 -106.584 7 -106.584 7 -106.584 L 7 -106.584 L 7 -106.584 Z M 12 -104 C 10.895 -104 10 -103.105 10 -102 L 10 -72 C 10 -70.895 10.895 -70 12 -70 L 42 -70 C 43.105 -70 44 -70.895 44 -72 L 44 -102 C 44 -103.105 43.105 -104 42 -104 Z M 7 -61.416 L 7 -12 C 7 -10.895 7.895 -10 9 -10 L 45 -10 C 46.105 -10 47 -10.895 47 -12 L 47 -61.416 L 47 -61.416 C 46.388 -61.148 45.711 -61 45 -61 L 9 -61 C 8.289 -61 7.612 -61.148 7 -61.416 Z" fill="#bababa"/>
</g>
<g id="shape5">
<path d="M 6 -54 C 2.686 -54 0 -51.314 0 -48 L 0 -6 C 0 -2.686 2.686 0 6 0 L 61.5 0 C 64.814 0 67.5 -2.686 67.5 -6 L 67.5 -48 C 67.5 -51.314 64.814 -54 61.5 -54 Z" fill="#000000"/>
<path d="M 6 -53 C 3.239 -53 1 -50.761 1 -48 L 1 -6 C 1 -3.239 3.239 -1 6 -1 L 61.5 -1 C 64.261 -1 66.5 -3.239 66.5 -6 L 66.5 -48 C 66.5 -50.761 64.261 -53 61.5 -53 Z" fill="#8a8a8a"/>
<path d="M 6 -52 C 3.791 -52 2 -50.209 2 -48 L 2 -6 C 2 -3.791 3.791 -2 6 -2 L 61.5 -2 C 63.709 -2 65.5 -3.791 65.5 -6 L 65.5 -48 C 65.5 -50.209 63.709 -52 61.5 -52 Z" fill="#999999"/>
<path d="M 18.75 -51 C 17.093 -51 15.75 -49.657 15.75 -48 L 15.75 -18 C 15.75 -16.343 17.093 -15 18.75 -15 L 48.75 -15 C 50.407 -15 51.75 -16.343 51.75 -18 L 51.75 -48 C 51.75 -49.657 50.407 -51 48.75 -51 Z M 9 -51 C 7.343 -51 6 -49.657 6 -48 L 6 -12 C 6 -10.343 7.343 -9 9 -9 L 13.104 -9 C 12.274 -9.733 11.75 -10.805 11.75 -12 L 11.75 -48 C 11.75 -49.195 12.274 -50.267 13.104 -51 Z M 54.396 -51 C 55.226 -50.267 55.75 -49.195 55.75 -48 L 55.75 -12 C 55.75 -10.805 55.226 -9.733 54.396 -9 L 58.5 -9 C 60.157 -9 61.5 -10.343 61.5 -12 L 61.5 -48 C 61.5 -49.657 60.157 -51 58.5 -51 Z" fill="#8a8a8a"/>
<path d="M 18.75 -50 C 17.645 -50 16.75 -49.105 16.75 -48 L 16.75 -18 C 16.75 -16.895 17.645 -16 18.75 -16 L 48.75 -16 C 49.855 -16 50.75 -16.895 50.75 -18 L 50.75 -48 C 50.75 -49.105 49.855 -50 48.75 -50 Z M 9 -50 C 7.895 -50 7 -49.105 7 -48 L 7 -12 C 7 -10.895 7.895 -10 9 -10 L 11.166 -10 C 10.898 -10.612 10.75 -11.289 10.75 -12 L 10.75 -48 C 10.75 -48.711 10.898 -49.388 11.166 -50 Z M 56.334 -50 C 56.602 -49.388 56.75 -48.711 56.75 -48 L 56.75 -12 C 56.75 -11.289 56.602 -10.612 56.334 -10 L 58.5 -10 C 59.605 -10 60.5 -10.895 60.5 -12 L 60.5 -48 C 60.5 -49.105 59.605 -50 58.5 -50 Z" fill="#bababa"/>
</g>
<g id="shape6">
<path d="M 6 -54 C 2.686 -54 0 -51.314 0 -48 L 0 -6 C 0 -2.686 2.686 0 6 0 L 48 0 C 51.314 0 54 -2.686 54 -6 L 54 -48 C 54 -51.314 51.314 -54 48 -54 Z" fill="#000000"/>
<path d="M 6 -53 C 3.239 -53 1 -50.761 1 -48 L 1 -6 C 1 -3.239 3.239 -1 6 -1 L 48 -1 C 50.761 -1 53 -3.239 53 -6 L 53 -48 C 53 -50.761 50.761 -53 48 -53 Z" fill="#dadada"/>
<path d="M 6 -52 C 3.791 -52 2 -50.209 2 -48 L 2 -6 C 2 -3.791 3.791 -2 6 -2 L 48 -2 C 50.209 -2 52 -3.791 52 -6 L 52 -48 C 52 -50.209 50.209 -52 48 -52 Z" fill="#f2f2f2"/>
<path d="M 12 -51 C 10.343 -51 9 -49.657 9 -48 L 9 -18 C 9 -16.343 10.343 -15 12 -15 L 42 -15 C 43.657 -15 45 -16.343 45 -18 L 45 -48 C 45 -49.657 43.657 -51 42 -51 Z" fill="#dadada"/>
<path d="M 12 -50 C 10.895 -50 10 -49.105 10 -48 L 10 -18 C 10 -16.895 10.895 -16 12 -16 L 42 -16 C 43.105 -16 44 -16.895 44 -18 L 44 -48 C 44 -49.105 43.105 -50 42 -50 Z" fill="#ffffff"/>
</g>
<g id="shape7">
<path d="M 6 -54 C 2.686 -54 0 -51.314 0 -48 L 0 -6 C 0 -2.686 2.686 0 6 0 L 75 0 C 78.314 0 81 -2.686 81 -6 L 81 -48 C 81 -51.314 78.314 -54 75 -54 Z" fill="#000000"/>
<path d="M 6 -53 C 3.239 -53 1 -50.761 1 -48 L 1 -6 C 1 -3.239 3.239 -1 6 -1 L 75 -1 C 77.761 -1 80 -3.239 80 -6 L 80 -48 C 80 -50.761 77.761 -53 75 -53 Z" fill="#8a8a8a"/>
<path d="M 6 -52 C 3.791 -52 2 -50.209 2 -48 L 2 -6 C 2 -3.791 3.791 -2 6 -2 L 75 -2 C 77.209 -2 79 -3.791 79 -6 L 79 -48 C 79 -50.209 77.209 -52 75 -52 Z" fill="#999999"/>
<path d="M 25.5 -51 C 23.843 -51 22.5 -49.657 22.5 -48 L 22.5 -18 C 22.5 -16.343 23.843 -15 25.5 -15 L 55.5 -15 C 57.157 -15 58.5 -16.343 58.5 -18 L 58.5 -48 C 58.5 -49.657 57.157 -51 55.5 -51 Z M 9 -51 C 7.343 -51 6 -49.657 6 -48 L 6 -12 C 6 -10.343 7.343 -9 9 -9 L 19.854 -9 C 19.024 -9.733 18.5 -10.805 18.5 -12 L 18.5 -48 C 18.5 -49.195 19.024 -50.267 19.854 -51 Z M 61.146 -51 C 61.976 -50.267 62.5 -49.195 62.5 -48 L 62.5 -12 C 62.5 -10.805 61.976 -9.733 61.146 -9 L 72 -9 C 73.657 -9 75 -10.343 75 -12 L 75 -48 C 75 -49.657 73.657 -51 72 -51 Z" fill="#8a8a8a"/>
<path d="M 25.5 -50 C 24.395 -50 23.5 -49.105 23.5 -48 L 23.5 -18 C 23.5 -16.895 24.395 -16 25.5 -16 L 55.5 -16 C 56.605 -16 57.5 -16.895 57.5 -18 L 57.5 -48 C 57.5 -49.105 56.605 -50 55.5 -50 Z M 9 -50 C 7.895 -50 7 -49.105 7 -48 L 7 -12 C 7 -10.895 7.895 -10 9 -10 L 17.916 -10 C 17.648 -10.612 17.5 -11.289 17.5 -12 L 17.5 -48 C 17.5 -48.711 17.648 -49.388 17.916 -50 Z M 63.084 -50 C 63.352 -49.388 63.5 -48.711 63.5 -48 L 63.5 -12 C 63.5 -11.289 63.352 -10.612 63.084 -10 L 72 -10 C 73.105 -10 74 -10.895 74 -12 L 74 -48 C 74 -49.105 73.105 -50 72 -50 Z" fill="#bababa"/>
</g>
<g id="shape8">
<path d="M 6 -54 C 2.686 -54 0 -51.314 0 -48 L 0 -6 C 0 -2.686 2.686 0 6 0 L 88.5 0 C 91.814 0 94.5 -2.686 94.5 -6 L 94.5 -48 C 94.5 -51.314 91.814 -54 88.5 -54 Z" fill="#000000"/>
<path d="M 6 -53 C 3.239 -53 1 -50.761 1 -48 L 1 -6 C 1 -3.239 3.239 -1 6 -1 L 88.5 -1 C 91.261 -1 93.5 -3.239 93.5 -6 L 93.5 -48 C 93.5 -50.761 91.261 -53 88.5 -53 Z" fill="#8a8a8a"/>
<path d="M 6 -52 C 3.791 -52 2 -50.209 2 -48 L 2 -6 C 2 -3.791 3.791 -2 6 -2 L 88.5 -2 C 90.709 -2 92.5 -3.791 92.5 -6 L 92.5 -48 C 92.5 -50.209 90.709 -52 88.5 -52 Z" fill="#999999"/>
<path d="M 32.25 -51 C 30.593 -51 29.25 -49.657 29.25 -48 L 29.25 -18 C 29.25 -16.343 30.593 -15 32.25 -15 L 62.25 -15 C 63.907 -15 65.25 -16.343 65.25 -18 L 65.25 -48 C 65.25 -49.657 63.907 -51 62.25 -51 Z M 9 -51 C 7.343 -51 6 -49.657 6 -48 L 6 -12 C 6 -10.343 7.343 -9 9 -9 L 26.604 -9 C 25.774 -9.733 25.25 -10.805 25.25 -12 L 25.25 -48 C 25.25 -49.195 25.774 -50.267 26.604 -51 Z M 67.896 -51 C 68.726 -50.267 69.25 -49.195 69.25 -48 L 69.25 -12 C 69.25 -10.805 68.726 -9.733 67.896 -9 L 85.5 -9 C 87.157 -9 88.5 -10.343 88.5 -12 L 88.5 -48 C 88.5 -49.657 87.157 -51 85.5 -51 Z" fill="#8a8a8a"/>
<path d="M 32.25 -50 C 31.145 -50 30.25 -49.105 30.25 -48 L 30.25 -18 C 30.25 -16.895 31.145 -16 32.25 -16 L 62.25 -16 C 63.355 -16 64.25 -16.895 64.25 -18 L 64.25 -48 C 64.25 -49.105 63.355 -50 62.25 -50 Z M 9 -50 C 7.895 -50 7 -49.105 7 -48 L 7 -12 C 7 -10.895 7.895 -10 9 -10 L 24.666 -10 C 24.398 -10.612 24.25 -11.289 24.25 -12 L 24.25 -48 C 24.25 -48.711 24.398 -49.388 24.666 -50 Z M 69.834 -50 C 70.102 -49.388 70.25 -48.711 70.25 -48 L 70.25 -12 C 70.25 -11.289 70.102 -10.612 69.834 -10 L 85.5 -10 C 86.605 -10 87.5 -10.895 87.5 -12 L 87.5 -48 C 87.5 -49.105 86.605 -50 85.5 -50 Z" fill="#bababa"/>
</g>
<g id="shape9">
<path d="M 6 -108 C 2.686 -108 0 -105.314 0 -102 L 0 -6 C 0 -2.686 2.686 0 6 0 L 48 0 C 51.314 0 54 -2.686 54 -6 L 54 -102 C 54 -105.314 51.314 -108 48 -108 Z" fill="#000000"/>
<path d="M 6 -107 C 3.239 -107 1 -104.761 1 -102 L 1 -6 C 1 -3.239 3.239 -1 6 -1 L 48 -1 C 50.761 -1 53 -3.239 53 -6 L 53 -102 C 53 -104.761 50.761 -107 48 -107 Z" fill="#8a8a8a"/>
<path d="M 6 -106 C 3.791 -106 2 -104.209 2 -102 L 2 -6 C 2 -3.791 3.791 -2 6 -2 L 48 -2 C 50.209 -2 52 -3.791 52 -6 L 52 -102 C 52 -104.209 50.209 -106 48 -106 Z" fill="#999999"/>
<path d="M 9 -105 C 7.343 -105 6 -103.657 6 -102 L 6 -77.646 L 6 -77.646 C 6.733 -78.476 7.805 -79 9 -79 L 45 -79 C 46.195 -79 47.267 -78.476 48 -77.646 L 48 -77.646 L 48 -102 C 48 -103.657 46.657 -105 45 -105 Z M 6 -77.646 L 6 -77.646 C 6 -77.646 6 -77.646 6 -77.646 L 6 -77.646 L 6 -77.646 Z M 12 -78 C 10.343 -78 9 -76.657 9 -75 L 9 -45 C 9 -43.343 10.343 -42 12 -42 L 42 -42 C 43.657 -42 45 -43.343 45 -45 L 45 -75 C 45 -76.657 43.657 -78 42 -78 Z M 6 -36.354 L 6 -12 C 6 -10.343 7.343 -9 9 -9 L 45 -9 C 46.657 -9 48 -10.343 48 -12 L 48 -36.354 L 48 -36.354 C 47.267 -35.524 46.195 -35 45 -35 L 9 -35 C 7.805 -35 6.733 -35.524 6 -36.354 Z" fill="#8a8a8a"/>
<path d="M 9 -104 C 7.895 -104 7 -103.105 7 -102 L 7 -79.584 L 7 -79.584 C 7.612 -79.852 8.289 -80 9 -80 L 45 -80 C 45.711 -80 46.388 -79.852 47 -79.584 L 47 -79.584 L 47 -102 C 47 -103.105 46.105 -104 45 -104 Z M 7 -79.584 L 7 -79.584 C 7 -79.584 7 -79.584 7 -79.584 L 7 -79.584 L 7 -79.584 Z M 12 -77 C 10.895 -77 10 -76.105 10 -75 L 10 -45 C 10 -43.895 10.895 -43 12 -43 L 42 -43 C 43.105 -43 44 -43.895 44 -45 L 44 -75 C 44 -76.105 43.105 -77 42 -77 Z M 7 -34.416 L 7 -12 C 7 -10.895 7.895 -10 9 -10 L 45 -10 C 46.105 -10 47 -10.895 47 -12 L 47 -34.416 L 47 -34.416 C 46.388 -34.148 45.711 -34 45 -34 L 9 -34 C 8.289 -34 7.612 -34.148 7 -34.416 Z" fill="#bababa"/>
</g>
<g id="shape10">
<path d="M 6 -54 C 2.686 -54 0 -51.314 0 -48 L 0 -6 C 0 -2.686 2.686 0 6 0 L 61.5 0 C 64.814 0 67.5 -2.686 67.5 -6 L 67.5 -48 C 67.5 -51.314 64.814 -54 61.5 -54 Z" fill="#000000"/>
<path d="M 6 -53 C 3.239 -53 1 -50.761 1 -48 L 1 -6 C 1 -3.239 3.239 -1 6 -1 L 61.5 -1 C 64.261 -1 66.5 -3.239 66.5 -6 L 66.5 -48 C 66.5 -50.761 64.261 -53 61.5 -53 Z" fill="#dadada"/>
<path d="M 6 -52 C 3.791 -52 2 -50.209 2 -48 L 2 -6 C 2 -3.791 3.791 -2 6 -2 L 61.5 -2 C 63.709 -2 65.5 -3.791 65.5 -6 L 65.5 -48 C 65.5 -50.209 63.709 -52 61.5 -52 Z" fill="#f2f2f2"/>
<path d="M 18.75 -51 C 17.093 -51 15.75 -49.657 15.75 -48 L 15.75 -18 C 15.75 -16.343 17.093 -15 18.75 -15 L 48.75 -15 C 50.407 -15 51.75 -16.343 51.75 -18 L 51.75 -48 C 51.75 -49.657 50.407 -51 48.75 -51 Z M 9 -51 C 7.343 -51 6 -49.657 6 -48 L 6 -12 C 6 -10.343 7.343 -9 9 -9 L 13.104 -9 C 12.274 -9.733 11.75 -10.805 11.75 -12 L 11.75 -48 C 11.75 -49.195 12.274 -50.267 13.104 -51 Z M 54.396 -51 C 55.226 -50.267 55.75 -49.195 55.75 -48 L 55.75 -12 C 55.75 -10.805 55.226 -9.733 54.396 -9 L 58.5 -9 C 60.157 -9 61.5 -10.343 61.5 -12 L 61.5 -48 C 61.5 -49.657 60.157 -51 58.5 -51 Z" fill="#dadada"/>
<path d="M 18.75 -50 C 17.645 -50 16.75 -49.105 16.75 -48 L 16.75 -18 C 16.75 -16.895 17.645 -16 18.75 -16 L 48.75 -16 C 49.855 -16 50.75 -16.895 50.75 -18 L 50.75 -48 C 50.75 -49.105 49.855 -50 48.75 -50 Z M 9 -50 C 7.895 -50 7 -49.105 7 -48 L 7 -12 C 7 -10.895 7.895 -10 9 -10 L 11.166 -10 C 10.898 -10.612 10.75 -11.289 10.75 -12 L 10.75 -48 C 10.75 -48.711 10.898 -49.388 11.166 -50 Z M 56.334 -50 C 56.602 -49.388 56.75 -48.711 56.75 -48 L 56.75 -12 C 56.75 -11.289 56.602 -10.612 56.334 -10 L 58.5 -10 C 59.605 -10 60.5 -10.895 60.5 -12 L 60.5 -48 C 60.5 -49.105 59.605 -50 58.5 -50 Z" fill="#ffffff"/>
</g>
</defs>
<g class="keyboard">
<g class="key">
<use xlink:href="#shape0" transform="translate(0 0)"/>
<text x="12" y="-30" text-anchor="start" font-family="Arial" font-size="10" fill="#1a1a1a">F9</text>
</g>
<g class="key">
<use xlink:href="#shape0" transform="translate(54 0)"/>
<text x="66" y="-30" text-anchor="start" font-family="Arial" font-size="10" fill="#1a1a1a">F10</text>
</g>
<g class="key">
<use xlink:href="#shape1" transform="translate(135 0)"/>
<text x="174" y="-30" text-anchor="start" font-family="Arial" font-size="10" fill="#1a1a1a">Alt</text>
</g>
<g class="key">
<use xlink:href="#shape2" transform="translate(243 0)"/>
</g>
<g class="key">
<use xlink:href="#shape1" transform="translate(769.5 0)"/>
<text x="808.5" y="-35" text-anchor="start" font-family="Arial" font-size="10" fill="#1a1a1a">Caps</text>
<text x="808.5" y="-25" text-anchor="start" font-family="Arial" font-size="10" fill="#1a1a1a">Lock</text>
</g>
<g class="key">
<use xlink:href="#shape3" transform="translate(877.5 0)"/>
<text x="916.5" y="-36" text-anchor="start" font-family="Arial" font-size="15" fill="#1a1a1a">0</text>
<text x="916.5" y="-22" text-anchor="start" font-family="Arial" font-size="10" fill="#1a1a1a">Ins</text>
</g>
<g class="key">
<use xlink:href="#shape3" transform="translate(985.5 0)"/>
<text x="1024.5" y="-36" text-anchor="start" font-family="Arial" font-size="15" fill="#1a1a1a">.</text>
<text x="1024.5" y="-22" text-anchor="start" font-family="Arial" font-size="10" fill="#1a1a1a">Del</text>
</g>
<g class="key">
<use xlink:href="#shape4" transform="translate(1093.5 0)"/>
<text x="1105.5" y="-82.5" text-anchor="start" font-family="Arial" font-size="15" fill="#1a1a1a">+</text>
</g>
<g class="key">
<use xlink:href="#shape0" transform="translate(0 -54)"/>
<text x="12" y="-84" text-anchor="start" font-family="Arial" font-size="10" fill="#1a1a1a">F7</text>
</g>
<g class="key">
<use xlink:href="#shape0" transform="translate(54 -54)"/>
<text x="66" y="-84" text-anchor="start" font-family="Arial" font-size="10" fill="#1a1a1a">F8</text>
</g>
<g class="key">
<use xlink:href="#shape5" transform="translate(135 -54)"/>
<text x="153.75" y="-84" text-anchor="start" font-family="Arial" font-size="10" fill="#1a1a1a">&#8679;</text>
</g>
<g class="key">
<use xlink:href="#shape6" transform="translate(202.5 -54)"/>
<text x="214.5" y="-77.4" text-anchor="start" font-family="Arial" font-size="12" fill="#1a1a1a">\</text>
<text x="214.5" y="-92.4" text-anchor="start" font-family="Arial" font-size="12" fill="#1a1a1a">&#166;</text>
</g>
<g class="key">
<use xlink:href="#shape6" transform="translate(256.5 -54)"/>
<text x="268.5" y="-90" text-anchor="start" font-family="Arial" font-size="15" fill="#1a1a1a">Z</text>
</g>
<g class="key">
<use xlink:href="#shape6" transform="translate(310.5 -54)"/>
<text x="322.5" y="-90" text-anchor="start" font-family="Arial" font-size="15" fill="#1a1a1a">X</text>
</g>
<g class="key">
<use xlink:href="#shape6" transform="translate(364.5 -54)"/>
<text x="376.5" y="-90" text-anchor="start" font-family="Arial" font-size="15" fill="#1a1a1a">C</text>
</g>
<g class="key">
<use xlink:href="#shape6" transform="translate(418.5 -54)"/>
<text x="430.5" y="-90" text-anchor="start" font-family="Arial" font-size="15" fill="#1a1a1a">V</text>
</g>
<g class="key">
<use xlink:href="#shape6" transform="translate(472.5 -54)"/>
<text x="484.5" y="-90" text-anchor="start" font-family="Arial" font-size="15" fill="#1a1a1a">B</text>
</g>
<g class="key">
<use xlink:href="#shape6" transform="translate(526.5 -54)"/>
<text x="538.5" y="-90" text-anchor="start" font-family="Arial" font-size="15" fill="#1a1a1a">N</text>
</g>
<g class="key">
<use xlink:href="#shape6" transform="translate(580.5 -54)"/>
<text x="592.5" y="-90" text-anchor="start" font-family="Arial" font-size="15" fill="#1a1a1a">M</text>
</g>
<g class="key">
<use xlink:href="#shape6" transform="translate(634.5 -54)"/>
<text x="646.5" y="-77.4" text-anchor="start" font-family="Arial" font-size="12" fill="#1a1a1a">,</text>
<text x="646.5" y="-92.4" text-anchor="start" font-family="Arial" font-size="12" fill="#1a1a1a">&lt;</text>
</g>
<g class="key">
<use xlink:href="#shape6" transform="translate(688.5 -54)"/>
<text x="700.5" y="-77.4" text-anchor="start" font-family="Arial" font-size="12" fill="#1a1a1a">.</text>
<text x="700.5" y="-92.4" text-anchor="start" font-family="Arial" font-size="12" fill="#1a1a1a">&gt;</text>
</g>
<g class="key">
<use xlink:href="#shape6" transform="translate(742.5 -54)"/>
<text x="754.5" y="-77.4" text-anchor="start" font-family="Arial" font-size="12" fill="#1a1a1a">/</text>
<text x="754.5" y="-92.4" text-anchor="start" font-family="Arial" font-size="12" fill="#1a1a1a">?</text>
</g>
<g class="key">
<use xlink:href="#shape7" transform="translate(796.5 -54)"/>
<text x="822" y="-84" text-anchor="start" font-family="Arial" font-size="10" fill="#1a1a1a">&#8679;</text>
</g>
<g class="key">
<use xlink:href="#shape0" transform="translate(877.5 -54)"/>
<text x="889.5" y="-76.5" text-anchor="start" font-family="Arial" font-size="10" fill="#1a1a1a">*</text>
<text x="889.5" y="-91.5" text-anchor="start" font-family="Arial" font-size="10" fill="#1a1a1a">PrtSc</text>
</g>
<g class="key">
<use xlink:href="#shape6" transform="translate(931.5 -54)"/>
<text x="943.5" y="-90" text-anchor="start" font-family="Arial" font-size="15" fill="#1a1a1a">1</text>
<text x="943.5" y="-76" text-anchor="start" font-family="Arial" font-size="10" fill="#1a1a1a">End</text>
</g>
<g class="key">
<use xlink:href="#shape6" transform="translate(985.5 -54)"/>
<text x="997.5" y="-90" text-anchor="start" font-family="Arial" font-size="15" fill="#1a1a1a">2</text>
<text x="997.5" y="-76" text-anchor="start" font-family="Arial" font-size="10" fill="#1a1a1a">&#8595;</text>
</g>
<g class="key">
<use xlink:href="#shape6" transform="translate(1039.5 -54)"/>
<text x="1051.5" y="-90" text-anchor="start" font-family="Arial" font-size="15" fill="#1a1a1a">3</text>
<text x="1051.5" y="-76" text-anchor="start" font-family="Arial" font-size="10" fill="#1a1a1a">PgDn</text>
</g>
<g class="key">
<use xlink:href="#shape0" transform="translate(0 -108)"/>
<text x="12" y="-138" text-anchor="start" font-family="Arial" font-size="10" fill="#1a1a1a">F5</text>
</g>
<g class="key">
<use xlink:href="#shape0" transform="translate(54 -108)"/>
<text x="66" y="-138" text-anchor="start" font-family="Arial" font-size="10" fill="#1a1a1a">F6</text>
</g>
<g class="key">
<use xlink:href="#shape8" transform="translate(135 -108)"/>
<text x="167.25" y="-138" text-anchor="start" font-family="Arial" font-size="10" fill="#1a1a1a">Ctrl</text>
</g>
<g class="key">
<use xlink:href="#shape6" transform="translate(229.5 -108)"/>
<text x="241.5" y="-144" text-anchor="start" font-family="Arial" font-size="15" fill="#1a1a1a">A</text>
</g>
<g class="key">
<use xlink:href="#shape6" transform="translate(283.5 -108)"/>
<text x="295.5" y="-144" text-anchor="start" font-family="Arial" font-size="15" fill="#1a1a1a">S</text>
</g>
<g class="key">
<use xlink:href="#shape6" transform="translate(337.5 -108)"/>
<text x="349.5" y="-144" text-anchor="start" font-family="Arial" font-size="15" fill="#1a1a1a">D</text>
</g>
<g class="key">
<use xlink:href="#shape6" transform="translate(391.5 -108)"/>
<text x="403.5" y="-144" text-anchor="start" font-family="Arial" font-size="15" fill="#1a1a1a">F</text>
</g>
<g class="key">
<use xlink:href="#shape6" transform="translate(445.5 -108)"/>
<text x="457.5" y="-144" text-anchor="start" font-family="Arial" font-size="15" fill="#1a1a1a">G</text>
</g>
<g class="key">
<use xlink:href="#shape6" transform="translate(499.5 -108)"/>
<text x="511.5" y="-144" text-anchor="start" font-family="Arial" font-size="15" fill="#1a1a1a">H</text>
</g>
<g class="key">
<use xlink:href="#shape6" transform="translate(553.5 -108)"/>
<text x="565.5" y="-144" text-anchor="start" font-family="Arial" font-size="15" fill="#1a1a1a">J</text>
</g>
<g class="key">
<use xlink:href="#shape6" transform="translate(607.5 -108)"/>
<text x="619.5" y="-144" text-anchor="start" font-family="Arial" font-size="15" fill="#1a1a1a">K</text>
</g>
<g class="key">
<use xlink:href="#shape6" transform="translate(661.5 -108)"/>
<text x="673.5" y="-144" text-anchor="start" font-family="Arial" font-size="15" fill="#1a1a1a">L</text>
</g>
<g class="key">
<use xlink:href="#shape6" transform="translate(715.5 -108)"/>
<text x="727.5" y="-131.4" text-anchor="start" font-family="Arial" font-size="12" fill="#1a1a1a">;</text>
<text x="727.5" y="-146.4" text-anchor="start" font-family="Arial" font-size="12" fill="#1a1a1a">:</text>
</g>
<g class="key">
<use xlink:href="#shape6" transform="translate(769.5 -108)"/>
<text x="781.5" y="-131.4" text-anchor="start" font-family="Arial" font-size="12" fill="#1a1a1a">&#39;</text>
<text x="781.5" y="-146.4" text-anchor="start" font-family="Arial" font-size="12" fill="#1a1a1a">&#34;</text>
</g>
<g class="key">
<use xlink:href="#shape6" transform="translate(823.5 -108)"/>
<text x="835.5" y="-131.4" text-anchor="start" font-family="Arial" font-size="12" fill="#1a1a1a">`</text>
<text x="835.5" y="-146.4" text-anchor="start" font-family="Arial" font-size="12" fill="#1a1a1a">~</text>
</g>
<g class="key">
<use xlink:href="#shape9" transform="translate(877.5 -108)"/>
<text x="889.5" y="-165" text-anchor="start" font-family="Arial" font-size="10" fill="#1a1a1a">&#8629;</text>
</g>
<g class="key">
<use xlink:href="#shape6" transform="translate(931.5 -108)"/>
<text x="943.5" y="-144" text-anchor="start" font-family="Arial" font-size="15" fill="#1a1a1a">4</text>
<text x="943.5" y="-130" text-anchor="start" font-family="Arial" font-size="10" fill="#1a1a1a">&#8592;</text>
</g>
<g class="key">
<use xlink:href="#shape6" transform="translate(985.5 -108)"/>
<text x="997.5" y="-144" text-anchor="start" font-family="Arial" font-size="15" fill="#1a1a1a">5</text>
</g>
<g class="key">
<use xlink:href="#shape6" transform="translate(1039.5 -108)"/>
<text x="1051.5" y="-144" text-anchor="start" font-family="Arial" font-size="15" fill="#1a1a1a">6</text>
<text x="1051.5" y="-130" text-anchor="start" font-family="Arial" font-size="10" fill="#1a1a1a">&#8594;</text>
</g>
<g class="key">
<use xlink:href="#shape0" transform="translate(0 -162)"/>
<text x="12" y="-192" text-anchor="start" font-family="Arial" font-size="10" fill="#1a1a1a">F3</text>
</g>
<g class="key">
<use xlink:href="#shape0" transform="translate(54 -162)"/>
<text x="66" y="-192" text-anchor="start" font-family="Arial" font-size="10" fill="#1a1a1a">F4</text>
</g>
<g class="key">
<use xlink:href="#shape7" transform="translate(135 -162)"/>
<text x="160.5" y="-184.5" text-anchor="start" font-family="Arial" font-size="10" fill="#1a1a1a">&#8677;</text>
<text x="160.5" y="-199.5" text-anchor="start" font-family="Arial" font-size="10" fill="#1a1a1a">&#8676;</text>
</g>
<g class="key">
<use xlink:href="#shape6" transform="translate(216 -162)"/>
<text x="228" y="-198" text-anchor="start" font-family="Arial" font-size="15" fill="#1a1a1a">Q</text>
</g>
<g class="key">
<use xlink:href="#shape6" transform="translate(270 -162)"/>
<text x="282" y="-198" text-anchor="start" font-family="Arial" font-size="15" fill="#1a1a1a">W</text>
</g>
<g class="key">
<use xlink:href="#shape6" transform="translate(324 -162)"/>
<text x="336" y="-198" text-anchor="start" font-family="Arial" font-size="15" fill="#1a1a1a">E</text>
</g>
<g class="key">
<use xlink:href="#shape6" transform="translate(378 -162)"/>
<text x="390" y="-198" text-anchor="start" font-family="Arial" font-size="15" fill="#1a1a1a">R</text>
</g>
<g class="key">
<use xlink:href="#shape6" transform="translate(432 -162)"/>
<text x="444" y="-198" text-anchor="start" font-family="Arial" font-size="15" fill="#1a1a1a">T</text>
</g>
<g class="key">
<use xlink:href="#shape6" transform="translate(486 -162)"/>
<text x="498" y="-198" text-anchor="start" font-family="Arial" font-size="15" fill="#1a1a1a">Y</text>
</g>
<g class="key">
<use xlink:href="#shape6" transform="translate(540 -162)"/>
<text x="552" y="-198" text-anchor="start" font-family="Arial" font-size="15" fill="#1a1a1a">U</text>
</g>
<g class="key">
<use xlink:href="#shape6" transform="translate(594 -162)"/>
<text x="606" y="-198" text-anchor="start" font-family="Arial" font-size="15" fill="#1a1a1a">I</text>
</g>
<g class="key">
<use xlink:href="#shape6" transform="translate(648 -162)"/>
<text x="660" y="-198" text-anchor="start" font-family="Arial" font-size="15" fill="#1a1a1a">O</text>
</g>
<g class="key">
<use xlink:href="#shape6" transform="translate(702 -162)"/>
<text x="714" y="-198" text-anchor="start" font-family="Arial" font-size="15" fill="#1a1a1a">P</text>
</g>
<g class="key">
<use xlink:href="#shape6" transform="translate(756 -162)"/>
<text x="768" y="-185.4" text-anchor="start" font-family="Arial" font-size="12" fill="#1a1a1a">[</text>
<text x="768" y="-200.4" text-anchor="start" font-family="Arial" font-size="12" fill="#1a1a1a">{</text>
</g>
<g class="key">
<use xlink:href="#shape10" transform="translate(810 -162)"/>
<text x="828.75" y="-185.4" text-anchor="start" font-family="Arial" font-size="12" fill="#1a1a1a">]</text>
<text x="828.75" y="-200.4" text-anchor="start" font-family="Arial" font-size="12" fill="#1a1a1a">}</text>
</g>
<g class="key">
<use xlink:href="#shape6" transform="translate(931.5 -162)"/>
<text x="943.5" y="-198" text-anchor="start" font-family="Arial" font-size="15" fill="#1a1a1a">7</text>
<text x="943.5" y="-184" text-anchor="start" font-family="Arial" font-size="10" fill="#1a1a1a">Home</text>
</g>
<g class="key">
<use xlink:href="#shape6" transform="translate(985.5 -162)"/>
<text x="997.5" y="-198" text-anchor="start" font-family="Arial" font-size="15" fill="#1a1a1a">8</text>
<text x="997.5" y="-184" text-anchor="start" font-family="Arial" font-size="10" fill="#1a1a1a">&#8593;</text>
</g>
<g class="key">
<use xlink:href="#shape6" transform="translate(1039.5 -162)"/>
<text x="1051.5" y="-198" text-anchor="start" font-family="Arial" font-size="15" fill="#1a1a1a">9</text>
<text x="1051.5" y="-184" text-anchor="start" font-family="Arial" font-size="10" fill="#1a1a1a">PgUp</text>
</g>
<g class="key">
<use xlink:href="#shape0" transform="translate(1093.5 -162)"/>
<text x="1105.5" y="-190.5" text-anchor="start" font-family="Arial" font-size="15" fill="#1a1a1a">&#8722;</text>
</g>
<g class="key">
<use xlink:href="#shape0" transform="translate(0 -216)"/>
<text x="12" y="-246" text-anchor="start" font-family="Arial" font-size="10" fill="#1a1a1a">F1</text>
</g>
<g class="key">
<use xlink:href="#shape0" transform="translate(54 -216)"/>
<text x="66" y="-246" text-anchor="start" font-family="Arial" font-size="10" fill="#1a1a1a">F2</text>
</g>
<g class="key">
<use xlink:href="#shape0" transform="translate(135 -216)"/>
<text x="147" y="-246" text-anchor="start" font-family="Arial" font-size="10" fill="#1a1a1a">Esc</text>
</g>
<g class="key">
<use xlink:href="#shape6" transform="translate(189 -216)"/>
<text x="201" y="-239.4" text-anchor="start" font-family="Arial" font-size="12" fill="#1a1a1a">1</text>
<text x="201" y="-254.4" text-anchor="start" font-family="Arial" font-size="12" fill="#1a1a1a">!</text>
</g>
<g class="key">
<use xlink:href="#shape6" transform="translate(243 -216)"/>
<text x="255" y="-239.4" text-anchor="start" font-family="Arial" font-size="12" fill="#1a1a1a">2</text>
<text x="255" y="-254.4" text-anchor="start" font-family="Arial" font-size="12" fill="#1a1a1a">@</text>
</g>
<g class="key">
<use xlink:href="#shape6" transform="translate(297 -216)"/>
<text x="309" y="-239.4" text-anchor="start" font-family="Arial" font-size="12" fill="#1a1a1a">3</text>
<text x="309" y="-254.4" text-anchor="start" font-family="Arial" font-size="12" fill="#1a1a1a">#</text>
</g>
<g class="key">
<use xlink:href="#shape6" transform="translate(351 -216)"/>
<text x="363" y="-239.4" text-anchor="start" font-family="Arial" font-size="12" fill="#1a1a1a">4</text>
<text x="363" y="-254.4" text-anchor="start" font-family="Arial" font-size="12" fill="#1a1a1a">$</text>
</g>
<g class="key">
<use xlink:href="#shape6" transform="translate(405 -216)"/>
<text x="417" y="-239.4" text-anchor="start" font-family="Arial" font-size="12" fill="#1a1a1a">5</text>
<text x="417" y="-254.4" text-anchor="start" font-family="Arial" font-size="12" fill="#1a1a1a">%</text>
</g>
<g class="key">
<use xlink:href="#shape6" transform="translate(459 -216)"/>
<text x="471" y="-239.4" text-anchor="start" font-family="Arial" font-size="12" fill="#1a1a1a">6</text>
<text x="471" y="-254.4" text-anchor="start" font-family="Arial" font-size="12" fill="#1a1a1a">^</text>
</g>
<g class="key">
<use xlink:href="#shape6" transform="translate(513 -216)"/>
<text x="525" y="-239.4" text-anchor="start" font-family="Arial" font-size="12" fill="#1a1a1a">7</text>
<text x="525" y="-254.4" text-anchor="start" font-family="Arial" font-size="12" fill="#1a1a1a">&amp;</text>
</g>
<g class="key">
<use xlink:href="#shape6" transform="translate(567 -216)"/>
<text x="579" y="-239.4" text-anchor="start" font-family="Arial" font-size="12" fill="#1a1a1a">8</text>
<text x="579" y="-254.4" text-anchor="start" font-family="Arial" font-size="12" fill="#1a1a1a">*</text>
</g>
<g class="key">
<use xlink:href="#shape6" transform="translate(621 -216)"/>
<text x="633" y="-239.4" text-anchor="start" font-family="Arial" font-size="12" fill="#1a1a1a">9</text>
<text x="633" y="-254.4" text-anchor="start" font-family="Arial" font-size="12" fill="#1a1a1a">(</text>
</g>
<g class="key">
<use xlink:href="#shape6" transform="translate(675 -216)"/>
<text x="687" y="-239.4" text-anchor="start" font-family="Arial" font-size="12" fill="#1a1a1a">0</text>
<text x="687" y="-254.4" text-anchor="start" font-family="Arial" font-size="12" fill="#1a1a1a">)</text>
</g>
<g class="key">
<use xlink:href="#shape6" transform="translate(729 -216)"/>
<text x="741" y="-239.4" text-anchor="start" font-family="Arial" font-size="12" fill="#1a1a1a">&#8722;</text>
<text x="741" y="-254.4" text-anchor="start" font-family="Arial" font-size="12" fill="#1a1a1a">_</text>
</g>
<g class="key">
<use xlink:href="#shape6" transform="translate(783 -216)"/>
<text x="795" y="-239.4" text-anchor="start" font-family="Arial" font-size="12" fill="#1a1a1a">=</text>
<text x="795" y="-254.4" text-anchor="start" font-family="Arial" font-size="12" fill="#1a1a1a">+</text>
</g>
<g class="key">
<use xlink:href="#shape8" transform="translate(837 -216)"/>
<text x="869.25" y="-246" text-anchor="start" font-family="Arial" font-size="10" fill="#1a1a1a">&#8592;</text>
</g>
<g class="key">
<use xlink:href="#shape1" transform="translate(931.5 -216)"/>
<text x="970.5" y="-251" text-anchor="start" font-family="Arial" font-size="10" fill="#1a1a1a">Num</text>
<text x="970.5" y="-241" text-anchor="start" font-family="Arial" font-size="10" fill="#1a1a1a">Lock</text>
</g>
<g class="key">
<use xlink:href="#shape1" transform="translate(1039.5 -216)"/>
<text x="1078.5" y="-251" text-anchor="start" font-family="Arial" font-size="10" fill="#1a1a1a">Scroll</text>
<text x="1078.5" y="-241" text-anchor="start" font-family="Arial" font-size="10" fill="#1a1a1a">Lock</text>
<text x="1078.5" y="-221" text-anchor="start" font-family="Arial" font-size="10" fill="#1a1a1a">Break</text>
</g>
</g>
</svg>
