<?xml version="1.0"?>
<svg xmlns="http://www.w3.org/2000/svg" xmlns:xlink="http://www.w3.org/1999/xlink" version="1.1" width="1056" height="240" viewBox="0 -240 1056 240">
<defs>
<g id="shape0">
<path d="M 41 -41 L 41 -7 L 7 -7 L 7 -41 Z M 3 -47 C 1.896 -47 1 -46.104 1 -45 L 1 -41 L 1 -7 L 1 -3 C 1 -1.896 1.896 -1 3 -1 L 45 -1 C 46.104 -1 47 -1.896 47 -3 L 47 -7 L 47 -41 L 47 -45 C 47 -46.104 46.104 -47 45 -47 Z" fill="#000000"/>
<path d="M 45.707 -45.707 L 41 -41 L 41 -7 L 7 -7 L 2.293 -2.293 C 2.474 -2.112 2.724 -2 3 -2 L 45 -2 C 45.553 -2 46 -2.447 46 -3 L 46 -7 L 46 -41 L 46 -45 C 46 -45.276 45.888 -45.526 45.707 -45.707 Z" fill="#555555"/>
<path d="M 44.766 -44.765 L 41 -41 L 41 -7 L 7 -7 L 3.234 -3.234 C 3.379 -3.09 3.579 -3 3.8 -3 L 44.2 -3 C 44.642 -3 45 -3.358 45 -3.8 L 45 -7 L 45 -41 L 45 -44.2 C 45 -44.421 44.91 -44.621 44.766 -44.765 Z" fill="#777777"/>
<path d="M 43.824 -43.824 L 41 -41 L 41 -7 L 7 -7 L 4.176 -4.176 C 4.284 -4.067 4.435 -4 4.6 -4 L 43.4 -4 C 43.731 -4 44 -4.269 44 -4.6 L 44 -7 L 44 -41 L 44 -43.4 C 44 -43.566 43.933 -43.716 43.824 -43.824 Z" fill="#888888"/>
<path d="M 41 -41 L 41 -7 L 7 -7 L 7 -41 Z M 3 -46 C 2.448 -46 2 -45.552 2 -45 L 2 -41 L 2 -7 L 2 -3 C 2 -2.724 2.112 -2.474 2.293 -2.293 L 5.117 -5.117 C 5.189 -5.045 5.29 -5 5.4 -5 L 42.6 -5 C 42.821 -5 43 -5.179 43 -5.4 L 43 -7 L 43 -41 L 43 -42.6 C 43 -42.71 42.955 -42.81 42.883 -42.883 L 45.707 -45.707 C 45.526 -45.888 45.276 -46 45 -46 Z" fill="#aaaaaa"/>
<path d="M 3.8 -45 C 3.358 -45 3 -44.642 3 -44.2 L 3 -41 L 3 -7 L 3 -3.8 C 3 -3.579 3.09 -3.379 3.234 -3.235 L 7 -7 L 7 -7 L 7 -41 L 41 -41 L 41 -41 L 44.766 -44.766 C 44.621 -44.91 44.421 -45 44.2 -45 Z" fill="#bbbbbb"/>
<path d="M 4.6 -44 C 4.269 -44 4 -43.731 4 -43.4 L 4 -41 L 4 -7 L 4 -4.6 C 4 -4.434 4.067 -4.285 4.176 -4.176 L 7 -7 L 7 -7 L 7 -41 L 41 -41 L 41 -41 L 43.824 -43.824 C 43.716 -43.933 43.566 -44 43.4 -44 Z" fill="#dddddd"/>
<path d="M 5.4 -43 C 5.179 -43 5 -42.821 5 -42.6 L 5 -41 L 5 -7 L 5 -5.4 C 5 -5.29 5.045 -5.189 5.117 -5.117 L 7 -7 L 7 -7 L 7 -41 L 41 -41 L 41 -41 L 42.883 -42.883 C 42.811 -42.955 42.71 -43 42.6 -43 Z" fill="#eeeeee"/>
<path d="M 6.2 -42 C 6.089 -42 6 -41.911 6 -41.8 L 6 -41 L 6 -7 L 6 -6.2 C 6 -6.09 6.089 -6 6.2 -6 L 41.8 -6 C 41.91 -6 42 -6.09 42 -6.2 L 42 -7 L 42 -41 L 42 -41.8 C 42 -41.911 41.91 -42 41.8 -42 Z" fill="#cccccc"/>
<path d="M 43 -5.707 L 43 -5.4 C 43 -5.179 42.821 -5 42.6 -5 L 42.293 -5 L 45.244 -2.049 C 45.595 -2.14 45.86 -2.405 45.951 -2.756 L 43 -5.707 Z" fill="#555555"/>
<path d="M 45.244 -45.951 L 41.293 -42 L 41.8 -42 C 41.91 -42 42 -41.911 42 -41.8 L 42 -41.293 L 45.951 -45.244 C 45.905 -45.42 45.831 -45.583 45.707 -45.707 C 45.583 -45.832 45.42 -45.906 45.244 -45.951 Z M 42 -6.707 L 42 -6.2 C 42 -6.09 41.91 -6 41.8 -6 L 41.293 -6 L 42.293 -5 L 42.6 -5 C 42.821 -5 43 -5.179 43 -5.4 L 43 -5.707 L 42 -6.707 Z" fill="#777777"/>
<path d="M 2.756 -45.951 C 2.405 -45.86 2.14 -45.595 2.049 -45.244 L 6 -41.293 L 6 -41.8 C 6 -41.911 6.089 -42 6.2 -42 L 6.707 -42 L 2.756 -45.951 Z M 6 -6.707 L 2.049 -2.756 C 2.094 -2.58 2.168 -2.417 2.293 -2.293 C 2.417 -2.169 2.581 -2.095 2.756 -2.049 L 6.708 -6 L 6.2 -6 C 6.089 -6 6 -6.09 6 -6.2 L 6 -6.707 Z" fill="#eeeeee"/>
</g>
<g id="shape1">
<path d="M 3 -47 C 1.896 -47 1 -46.104 1 -45 L 1 -41 L 1 -7 L 1 -3 C 1 -1.896 1.896 -1 3 -1 L 65 -1 L 65 -7 L 7 -7 L 7 -41 L 65 -41 L 65 -47 Z M 65 -47 L 65 -41 L 65 -7 L 65 -1 L 69 -1 C 70.104 -1 71 -1.896 71 -3 L 71 -7 L 71 -41 L 71 -45 C 71 -46.104 70.104 -47 69 -47 Z" fill="#000000"/>
<path d="M 7 -7 L 2.293 -2.293 C 2.474 -2.112 2.724 -2 3 -2 L 65 -2 L 65 -7 Z M 69.707 -45.707 L 65 -41 L 65 -7 L 65 -2 L 69 -2 C 69.553 -2 70 -2.447 70 -3 L 70 -7 L 70 -41 L 70 -45 C 70 -45.276 69.888 -45.526 69.707 -45.707 Z" fill="#555555"/>
<path d="M 7 -7 L 3.234 -3.234 C 3.379 -3.09 3.579 -3 3.8 -3 L 65 -3 L 65 -7 Z M 68.766 -44.765 L 65 -41 L 65 -7 L 65 -3 L 68.2 -3 C 68.642 -3 69 -3.358 69 -3.8 L 69 -7 L 69 -41 L 69 -44.2 C 69 -44.421 68.91 -44.621 68.766 -44.765 Z" fill="#777777"/>
<path d="M 7 -7 L 4.176 -4.176 C 4.284 -4.067 4.435 -4 4.6 -4 L 65 -4 L 65 -7 Z M 67.824 -43.824 L 65 -41 L 65 -7 L 65 -4 L 67.4 -4 C 67.731 -4 68 -4.269 68 -4.6 L 68 -7 L 68 -41 L 68 -43.4 C 68 -43.566 67.933 -43.716 67.824 -43.824 Z" fill="#888888"/>
<path d="M 65 -46 L 65 -41 L 65 -7 L 65 -5 L 66.6 -5 C 66.821 -5 67 -5.179 67 -5.4 L 67 -7 L 67 -41 L 67 -42.6 C 67 -42.71 66.955 -42.81 66.883 -42.883 L 69.707 -45.707 C 69.526 -45.888 69.276 -46 69 -46 Z M 3 -46 C 2.448 -46 2 -45.552 2 -45 L 2 -41 L 2 -7 L 2 -3 C 2 -2.724 2.112 -2.474 2.293 -2.293 L 5.117 -5.117 C 5.189 -5.045 5.29 -5 5.4 -5 L 65 -5 L 65 -7 L 7 -7 L 7 -41 L 65 -41 L 65 -46 Z" fill="#aaaaaa"/>
<path d="M 65 -45 L 65 -41 L 68.766 -44.766 C 68.621 -44.91 68.421 -45 68.2 -45 Z M 3.8 -45 C 3.358 -45 3 -44.642 3 -44.2 L 3 -41 L 3 -7 L 3 -3.8 C 3 -3.579 3.09 -3.379 3.234 -3.235 L 7 -7 L 7 -7 L 7 -41 L 65 -41 L 65 -45 Z" fill="#bbbbbb"/>
<path d="M 65 -44 L 65 -41 L 67.824 -43.824 C 67.716 -43.933 67.566 -44 67.4 -44 Z M 4.6 -44 C 4.269 -44 4 -43.731 4 -43.4 L 4 -41 L 4 -7 L 4 -4.6 C 4 -4.434 4.067 -4.285 4.176 -4.176 L 7 -7 L 7 -7 L 7 -41 L 65 -41 L 65 -44 Z" fill="#dddddd"/>
<path d="M 65 -43 L 65 -41 L 66.883 -42.883 C 66.811 -42.955 66.71 -43 66.6 -43 Z M 5.4 -43 C 5.179 -43 5 -42.821 5 -42.6 L 5 -41 L 5 -7 L 5 -5.4 C 5 -5.29 5.045 -5.189 5.117 -5.117 L 7 -7 L 7 -7 L 7 -41 L 65 -41 L 65 -43 Z" fill="#eeeeee"/>
<path d="M 6.2 -42 C 6.089 -42 6 -41.911 6 -41.8 L 6 -41 L 6 -7 L 6 -6.2 C 6 -6.09 6.089 -6 6.2 -6 L 65 -6 L 65 -7 L 65 -7 L 65 -6 L 65.8 -6 C 65.91 -6 66 -6.09 66 -6.2 L 66 -7 L 66 -41 L 66 -41.8 C 66 -41.911 65.91 -42 65.8 -42 L 65 -42 L 65 -41 L 65 -41 L 65 -42 Z" fill="#cccccc"/>
<path d="M 67 -5.707 L 67 -5.4 C 67 -5.179 66.821 -5 66.6 -5 L 66.293 -5 L 69.244 -2.049 C 69.595 -2.14 69.86 -2.405 69.951 -2.756 L 67 -5.707 Z" fill="#555555"/>
<path d="M 69.244 -45.951 L 65.293 -42 L 65.8 -42 C 65.91 -42 66 -41.911 66 -41.8 L 66 -41.293 L 69.951 -45.244 C 69.905 -45.42 69.831 -45.583 69.707 -45.707 C 69.583 -45.832 69.42 -45.906 69.244 -45.951 Z M 66 -6.707 L 66 -6.2 C 66 -6.09 65.91 -6 65.8 -6 L 65.293 -6 L 66.293 -5 L 66.6 -5 C 66.821 -5 67 -5.179 67 -5.4 L 67 -5.707 L 66 -6.707 Z" fill="#777777"/>
<path d="M 2.756 -45.951 C 2.405 -45.86 2.14 -45.595 2.049 -45.244 L 6 -41.293 L 6 -41.8 C 6 -41.911 6.089 -42 6.2 -42 L 6.707 -42 L 2.756 -45.951 Z M 6 -6.707 L 2.049 -2.756 C 2.094 -2.58 2.168 -2.417 2.293 -2.293 C 2.417 -2.169 2.581 -2.095 2.756 -2.049 L 6.708 -6 L 6.2 -6 C 6.089 -6 6 -6.09 6 -6.2 L 6 -6.707 Z" fill="#eeeeee"/>
</g>
<g id="shape2">
<path d="M 3 -47 C 1.896 -47 1 -46.104 1 -45 L 1 -41 L 1 -7 L 1 -3 C 1 -1.896 1.896 -1 3 -1 L 449 -1 L 449 -7 L 7 -7 L 7 -41 L 449 -41 L 449 -47 Z M 449 -47 L 449 -41 L 449 -7 L 449 -1 L 453 -1 C 454.104 -1 455 -1.896 455 -3 L 455 -7 L 455 -41 L 455 -45 C 455 -46.104 454.104 -47 453 -47 Z" fill="#000000"/>
<path d="M 7 -7 L 2.293 -2.293 C 2.474 -2.112 2.724 -2 3 -2 L 449 -2 L 449 -7 Z M 453.707 -45.707 L 449 -41 L 449 -7 L 449 -2 L 453 -2 C 453.553 -2 454 -2.447 454 -3 L 454 -7 L 454 -41 L 454 -45 C 454 -45.276 453.888 -45.526 453.707 -45.707 Z" fill="#555555"/>
<path d="M 7 -7 L 3.234 -3.234 C 3.379 -3.09 3.579 -3 3.8 -3 L 449 -3 L 449 -7 Z M 452.766 -44.765 L 449 -41 L 449 -7 L 449 -3 L 452.2 -3 C 452.642 -3 453 -3.358 453 -3.8 L 453 -7 L 453 -41 L 453 -44.2 C 453 -44.421 452.91 -44.621 452.766 -44.765 Z" fill="#777777"/>
<path d="M 7 -7 L 4.176 -4.176 C 4.284 -4.067 4.435 -4 4.6 -4 L 449 -4 L 449 -7 Z M 451.824 -43.824 L 449 -41 L 449 -7 L 449 -4 L 451.4 -4 C 451.731 -4 452 -4.269 452 -4.6 L 452 -7 L 452 -41 L 452 -43.4 C 452 -43.566 451.933 -43.716 451.824 -43.824 Z" fill="#888888"/>
<path d="M 449 -46 L 449 -41 L 449 -7 L 449 -5 L 450.6 -5 C 450.821 -5 451 -5.179 451 -5.4 L 451 -7 L 451 -41 L 451 -42.6 C 451 -42.71 450.955 -42.81 450.883 -42.883 L 453.707 -45.707 C 453.526 -45.888 453.276 -46 453 -46 Z M 3 -46 C 2.448 -46 2 -45.552 2 -45 L 2 -41 L 2 -7 L 2 -3 C 2 -2.724 2.112 -2.474 2.293 -2.293 L 5.117 -5.117 C 5.189 -5.045 5.29 -5 5.4 -5 L 449 -5 L 449 -7 L 7 -7 L 7 -41 L 449 -41 L 449 -46 Z" fill="#aaaaaa"/>
<path d="M 449 -45 L 449 -41 L 452.766 -44.766 C 452.621 -44.91 452.421 -45 452.2 -45 Z M 3.8 -45 C 3.358 -45 3 -44.642 3 -44.2 L 3 -41 L 3 -7 L 3 -3.8 C 3 -3.579 3.09 -3.379 3.234 -3.235 L 7 -7 L 7 -7 L 7 -41 L 449 -41 L 449 -45 Z" fill="#bbbbbb"/>
<path d="M 449 -44 L 449 -41 L 451.824 -43.824 C 451.716 -43.933 451.566 -44 451.4 -44 Z M 4.6 -44 C 4.269 -44 4 -43.731 4 -43.4 L 4 -41 L 4 -7 L 4 -4.6 C 4 -4.434 4.067 -4.285 4.176 -4.176 L 7 -7 L 7 -7 L 7 -41 L 449 -41 L 449 -44 Z" fill="#dddddd"/>
<path d="M 449 -43 L 449 -41 L 450.883 -42.883 C 450.811 -42.955 450.71 -43 450.6 -43 Z M 5.4 -43 C 5.179 -43 5 -42.821 5 -42.6 L 5 -41 L 5 -7 L 5 -5.4 C 5 -5.29 5.045 -5.189 5.117 -5.117 L 7 -7 L 7 -7 L 7 -41 L 449 -41 L 449 -43 Z" fill="#eeeeee"/>
<path d="M 6.2 -42 C 6.089 -42 6 -41.911 6 -41.8 L 6 -41 L 6 -7 L 6 -6.2 C 6 -6.09 6.089 -6 6.2 -6 L 449 -6 L 449 -7 L 449 -7 L 449 -6 L 449.8 -6 C 449.91 -6 450 -6.09 450 -6.2 L 450 -7 L 450 -41 L 450 -41.8 C 450 -41.911 449.91 -42 449.8 -42 L 449 -42 L 449 -41 L 449 -41 L 449 -42 Z" fill="#cccccc"/>
<path d="M 451 -5.707 L 451 -5.4 C 451 -5.179 450.821 -5 450.6 -5 L 450.293 -5 L 453.244 -2.049 C 453.595 -2.14 453.86 -2.405 453.951 -2.756 L 451 -5.707 Z" fill="#555555"/>
<path d="M 453.244 -45.951 L 449.293 -42 L 449.8 -42 C 449.91 -42 450 -41.911 450 -41.8 L 450 -41.293 L 453.951 -45.244 C 453.905 -45.42 453.831 -45.583 453.707 -45.707 C 453.583 -45.832 453.42 -45.906 453.244 -45.951 Z M 450 -6.707 L 450 -6.2 C 450 -6.09 449.91 -6 449.8 -6 L 449.293 -6 L 450.293 -5 L 450.6 -5 C 450.821 -5 451 -5.179 451 -5.4 L 451 -5.707 L 450 -6.707 Z" fill="#777777"/>
<path d="M 2.756 -45.951 C 2.405 -45.86 2.14 -45.595 2.049 -45.244 L 6 -41.293 L 6 -41.8 C 6 -41.911 6.089 -42 6.2 -42 L 6.707 -42 L 2.756 -45.951 Z M 6 -6.707 L 2.049 -2.756 C 2.094 -2.58 2.168 -2.417 2.293 -2.293 C 2.417 -2.169 2.581 -2.095 2.756 -2.049 L 6.708 -6 L 6.2 -6 C 6.089 -6 6 -6.09 6 -6.2 L 6 -6.707 Z" fill="#eeeeee"/>
</g>
<g id="shape3">
<path d="M 89 -41 L 89 -7 L 7 -7 L 7 -41 Z M 3 -47 C 1.896 -47 1 -46.104 1 -45 L 1 -41 L 1 -7 L 1 -3 C 1 -1.896 1.896 -1 3 -1 L 93 -1 C 94.104 -1 95 -1.896 95 -3 L 95 -7 L 95 -41 L 95 -45 C 95 -46.104 94.104 -47 93 -47 Z" fill="#000000"/>
<path d="M 93.707 -45.707 L 89 -41 L 89 -7 L 7 -7 L 2.293 -2.293 C 2.474 -2.112 2.724 -2 3 -2 L 93 -2 C 93.553 -2 94 -2.447 94 -3 L 94 -7 L 94 -41 L 94 -45 C 94 -45.276 93.888 -45.526 93.707 -45.707 Z" fill="#555555"/>
<path d="M 92.766 -44.765 L 89 -41 L 89 -7 L 7 -7 L 3.234 -3.234 C 3.379 -3.09 3.579 -3 3.8 -3 L 92.2 -3 C 92.642 -3 93 -3.358 93 -3.8 L 93 -7 L 93 -41 L 93 -44.2 C 93 -44.421 92.91 -44.621 92.766 -44.765 Z" fill="#777777"/>
<path d="M 91.824 -43.824 L 89 -41 L 89 -7 L 7 -7 L 4.176 -4.176 C 4.284 -4.067 4.435 -4 4.6 -4 L 91.4 -4 C 91.731 -4 92 -4.269 92 -4.6 L 92 -7 L 92 -41 L 92 -43.4 C 92 -43.566 91.933 -43.716 91.824 -43.824 Z" fill="#888888"/>
<path d="M 89 -41 L 89 -7 L 7 -7 L 7 -41 Z M 3 -46 C 2.448 -46 2 -45.552 2 -45 L 2 -41 L 2 -7 L 2 -3 C 2 -2.724 2.112 -2.474 2.293 -2.293 L 5.117 -5.117 C 5.189 -5.045 5.29 -5 5.4 -5 L 90.6 -5 C 90.821 -5 91 -5.179 91 -5.4 L 91 -7 L 91 -41 L 91 -42.6 C 91 -42.71 90.955 -42.81 90.883 -42.883 L 93.707 -45.707 C 93.526 -45.888 93.276 -46 93 -46 Z" fill="#aaaaaa"/>
<path d="M 3.8 -45 C 3.358 -45 3 -44.642 3 -44.2 L 3 -41 L 3 -7 L 3 -3.8 C 3 -3.579 3.09 -3.379 3.234 -3.235 L 7 -7 L 7 -7 L 7 -41 L 89 -41 L 89 -41 L 92.766 -44.766 C 92.621 -44.91 92.421 -45 92.2 -45 Z" fill="#bbbbbb"/>
<path d="M 4.6 -44 C 4.269 -44 4 -43.731 4 -43.4 L 4 -41 L 4 -7 L 4 -4.6 C 4 -4.434 4.067 -4.285 4.176 -4.176 L 7 -7 L 7 -7 L 7 -41 L 89 -41 L 89 -41 L 91.824 -43.824 C 91.716 -43.933 91.566 -44 91.4 -44 Z" fill="#dddddd"/>
<path d="M 5.4 -43 C 5.179 -43 5 -42.821 5 -42.6 L 5 -41 L 5 -7 L 5 -5.4 C 5 -5.29 5.045 -5.189 5.117 -5.117 L 7 -7 L 7 -7 L 7 -41 L 89 -41 L 89 -41 L 90.883 -42.883 C 90.811 -42.955 90.71 -43 90.6 -43 Z" fill="#eeeeee"/>
<path d="M 6.2 -42 C 6.089 -42 6 -41.911 6 -41.8 L 6 -41 L 6 -7 L 6 -6.2 C 6 -6.09 6.089 -6 6.2 -6 L 89.8 -6 C 89.91 -6 90 -6.09 90 -6.2 L 90 -7 L 90 -41 L 90 -41.8 C 90 -41.911 89.91 -42 89.8 -42 Z" fill="#cccccc"/>
<path d="M 91 -5.707 L 91 -5.4 C 91 -5.179 90.821 -5 90.6 -5 L 90.293 -5 L 93.244 -2.049 C 93.595 -2.14 93.86 -2.405 93.951 -2.756 L 91 -5.707 Z" fill="#555555"/>
<path d="M 93.244 -45.951 L 89.293 -42 L 89.8 -42 C 89.91 -42 90 -41.911 90 -41.8 L 90 -41.293 L 93.951 -45.244 C 93.905 -45.42 93.831 -45.583 93.707 -45.707 C 93.583 -45.832 93.42 -45.906 93.244 -45.951 Z M 90 -6.707 L 90 -6.2 C 90 -6.09 89.91 -6 89.8 -6 L 89.293 -6 L 90.293 -5 L 90.6 -5 C 90.821 -5 91 -5.179 91 -5.4 L 91 -5.707 L 90 -6.707 Z" fill="#777777"/>
<path d="M 2.756 -45.951 C 2.405 -45.86 2.14 -45.595 2.049 -45.244 L 6 -41.293 L 6 -41.8 C 6 -41.911 6.089 -42 6.2 -42 L 6.707 -42 L 2.756 -45.951 Z M 6 -6.707 L 2.049 -2.756 C 2.094 -2.58 2.168 -2.417 2.293 -2.293 C 2.417 -2.169 2.581 -2.095 2.756 -2.049 L 6.708 -6 L 6.2 -6 C 6.089 -6 6 -6.09 6 -6.2 L 6 -6.707 Z" fill="#eeeeee"/>
</g>
<g id="shape4">
<path d="M 41 -89 L 41 -7 L 7 -7 L 7 -89 Z M 3 -95 C 1.896 -95 1 -94.104 1 -93 L 1 -89 L 1 -7 L 1 -3 C 1 -1.896 1.896 -1 3 -1 L 45 -1 C 46.104 -1 47 -1.896 47 -3 L 47 -7 L 47 -89 L 47 -93 C 47 -94.104 46.104 -95 45 -95 Z" fill="#000000"/>
<path d="M 45.707 -93.707 L 41 -89 L 41 -7 L 7 -7 L 2.293 -2.293 C 2.474 -2.112 2.724 -2 3 -2 L 45 -2 C 45.553 -2 46 -2.447 46 -3 L 46 -7 L 46 -89 L 46 -93 C 46 -93.276 45.888 -93.526 45.707 -93.707 Z" fill="#555555"/>
<path d="M 44.766 -92.765 L 41 -89 L 41 -7 L 7 -7 L 3.234 -3.234 C 3.379 -3.09 3.579 -3 3.8 -3 L 44.2 -3 C 44.642 -3 45 -3.358 45 -3.8 L 45 -7 L 45 -89 L 45 -92.2 C 45 -92.421 44.91 -92.621 44.766 -92.765 Z" fill="#777777"/>
<path d="M 43.824 -91.824 L 41 -89 L 41 -7 L 7 -7 L 4.176 -4.176 C 4.284 -4.067 4.435 -4 4.6 -4 L 43.4 -4 C 43.731 -4 44 -4.269 44 -4.6 L 44 -7 L 44 -89 L 44 -91.4 C 44 -91.566 43.933 -91.716 43.824 -91.824 Z" fill="#888888"/>
<path d="M 41 -89 L 41 -7 L 7 -7 L 7 -89 Z M 3 -94 C 2.448 -94 2 -93.552 2 -93 L 2 -89 L 2 -7 L 2 -3 C 2 -2.724 2.112 -2.474 2.293 -2.293 L 5.117 -5.117 C 5.189 -5.045 5.29 -5 5.4 -5 L 42.6 -5 C 42.821 -5 43 -5.179 43 -5.4 L 43 -7 L 43 -89 L 43 -90.6 C 43 -90.71 42.955 -90.81 42.883 -90.883 L 45.707 -93.707 C 45.526 -93.888 45.276 -94 45 -94 Z" fill="#aaaaaa"/>
<path d="M 3.8 -93 C 3.358 -93 3 -92.642 3 -92.2 L 3 -89 L 3 -7 L 3 -3.8 C 3 -3.579 3.09 -3.379 3.234 -3.235 L 7 -7 L 7 -7 L 7 -89 L 41 -89 L 41 -89 L 44.766 -92.766 C 44.621 -92.91 44.421 -93 44.2 -93 Z" fill="#bbbbbb"/>
<path d="M 4.6 -92 C 4.269 -92 4 -91.731 4 -91.4 L 4 -89 L 4 -7 L 4 -4.6 C 4 -4.434 4.067 -4.285 4.176 -4.176 L 7 -7 L 7 -7 L 7 -89 L 41 -89 L 41 -89 L 43.824 -91.824 C 43.716 -91.933 43.566 -92 43.4 -92 Z" fill="#dddddd"/>
<path d="M 5.4 -91 C 5.179 -91 5 -90.821 5 -90.6 L 5 -89 L 5 -7 L 5 -5.4 C 5 -5.29 5.045 -5.189 5.117 -5.117 L 7 -7 L 7 -7 L 7 -89 L 41 -89 L 41 -89 L 42.883 -90.883 C 42.811 -90.955 42.71 -91 42.6 -91 Z" fill="#eeeeee"/>
<path d="M 6.2 -90 C 6.089 -90 6 -89.911 6 -89.8 L 6 -89 L 6 -7 L 6 -6.2 C 6 -6.09 6.089 -6 6.2 -6 L 41.8 -6 C 41.91 -6 42 -6.09 42 -6.2 L 42 -7 L 42 -89 L 42 -89.8 C 42 -89.911 41.91 -90 41.8 -90 Z" fill="#cccccc"/>
<path d="M 43 -5.707 L 43 -5.4 C 43 -5.179 42.821 -5 42.6 -5 L 42.293 -5 L 45.244 -2.049 C 45.595 -2.14 45.86 -2.405 45.951 -2.756 L 43 -5.707 Z" fill="#555555"/>
<path d="M 45.244 -93.951 L 41.293 -90 L 41.8 -90 C 41.91 -90 42 -89.911 42 -89.8 L 42 -89.293 L 45.951 -93.244 C 45.905 -93.42 45.831 -93.583 45.707 -93.707 C 45.583 -93.832 45.42 -93.906 45.244 -93.951 Z M 42 -6.707 L 42 -6.2 C 42 -6.09 41.91 -6 41.8 -6 L 41.293 -6 L 42.293 -5 L 42.6 -5 C 42.821 -5 43 -5.179 43 -5.4 L 43 -5.707 L 42 -6.707 Z" fill="#777777"/>
<path d="M 2.756 -93.951 C 2.405 -93.86 2.14 -93.595 2.049 -93.244 L 6 -89.293 L 6 -89.8 C 6 -89.911 6.089 -90 6.2 -90 L 6.707 -90 L 2.756 -93.951 Z M 6 -6.707 L 2.049 -2.756 C 2.094 -2.58 2.168 -2.417 2.293 -2.293 C 2.417 -2.169 2.581 -2.095 2.756 -2.049 L 6.708 -6 L 6.2 -6 C 6.089 -6 6 -6.09 6 -6.2 L 6 -6.707 Z" fill="#eeeeee"/>
</g>
<g id="shape5">
<path d="M 101 -41 L 101 -7 L 7 -7 L 7 -41 Z M 3 -47 C 1.896 -47 1 -46.104 1 -45 L 1 -41 L 1 -7 L 1 -3 C 1 -1.896 1.896 -1 3 -1 L 105 -1 C 106.104 -1 107 -1.896 107 -3 L 107 -7 L 107 -41 L 107 -45 C 107 -46.104 106.104 -47 105 -47 Z" fill="#000000"/>
<path d="M 105.707 -45.707 L 101 -41 L 101 -7 L 7 -7 L 2.293 -2.293 C 2.474 -2.112 2.724 -2 3 -2 L 105 -2 C 105.553 -2 106 -2.447 106 -3 L 106 -7 L 106 -41 L 106 -45 C 106 -45.276 105.888 -45.526 105.707 -45.707 Z" fill="#555555"/>
<path d="M 104.766 -44.765 L 101 -41 L 101 -7 L 7 -7 L 3.234 -3.234 C 3.379 -3.09 3.579 -3 3.8 -3 L 104.2 -3 C 104.642 -3 105 -3.358 105 -3.8 L 105 -7 L 105 -41 L 105 -44.2 C 105 -44.421 104.91 -44.621 104.766 -44.765 Z" fill="#777777"/>
<path d="M 103.824 -43.824 L 101 -41 L 101 -7 L 7 -7 L 4.176 -4.176 C 4.284 -4.067 4.435 -4 4.6 -4 L 103.4 -4 C 103.731 -4 104 -4.269 104 -4.6 L 104 -7 L 104 -41 L 104 -43.4 C 104 -43.566 103.933 -43.716 103.824 -43.824 Z" fill="#888888"/>
<path d="M 101 -41 L 101 -7 L 7 -7 L 7 -41 Z M 3 -46 C 2.448 -46 2 -45.552 2 -45 L 2 -41 L 2 -7 L 2 -3 C 2 -2.724 2.112 -2.474 2.293 -2.293 L 5.117 -5.117 C 5.189 -5.045 5.29 -5 5.4 -5 L 102.6 -5 C 102.821 -5 103 -5.179 103 -5.4 L 103 -7 L 103 -41 L 103 -42.6 C 103 -42.71 102.955 -42.81 102.883 -42.883 L 105.707 -45.707 C 105.526 -45.888 105.276 -46 105 -46 Z" fill="#aaaaaa"/>
<path d="M 3.8 -45 C 3.358 -45 3 -44.642 3 -44.2 L 3 -41 L 3 -7 L 3 -3.8 C 3 -3.579 3.09 -3.379 3.234 -3.235 L 7 -7 L 7 -7 L 7 -41 L 101 -41 L 101 -41 L 104.766 -44.766 C 104.621 -44.91 104.421 -45 104.2 -45 Z" fill="#bbbbbb"/>
<path d="M 4.6 -44 C 4.269 -44 4 -43.731 4 -43.4 L 4 -41 L 4 -7 L 4 -4.6 C 4 -4.434 4.067 -4.285 4.176 -4.176 L 7 -7 L 7 -7 L 7 -41 L 101 -41 L 101 -41 L 103.824 -43.824 C 103.716 -43.933 103.566 -44 103.4 -44 Z" fill="#dddddd"/>
<path d="M 5.4 -43 C 5.179 -43 5 -42.821 5 -42.6 L 5 -41 L 5 -7 L 5 -5.4 C 5 -5.29 5.045 -5.189 5.117 -5.117 L 7 -7 L 7 -7 L 7 -41 L 101 -41 L 101 -41 L 102.883 -42.883 C 102.811 -42.955 102.71 -43 102.6 -43 Z" fill="#eeeeee"/>
<path d="M 6.2 -42 C 6.089 -42 6 -41.911 6 -41.8 L 6 -41 L 6 -7 L 6 -6.2 C 6 -6.09 6.089 -6 6.2 -6 L 101.8 -6 C 101.91 -6 102 -6.09 102 -6.2 L 102 -7 L 102 -41 L 102 -41.8 C 102 -41.911 101.91 -42 101.8 -42 Z" fill="#cccccc"/>
<path d="M 103 -5.707 L 103 -5.4 C 103 -5.179 102.821 -5 102.6 -5 L 102.293 -5 L 105.244 -2.049 C 105.595 -2.14 105.86 -2.405 105.951 -2.756 L 103 -5.707 Z" fill="#555555"/>
<path d="M 105.244 -45.951 L 101.293 -42 L 101.8 -42 C 101.91 -42 102 -41.911 102 -41.8 L 102 -41.293 L 105.951 -45.244 C 105.905 -45.42 105.831 -45.583 105.707 -45.707 C 105.583 -45.832 105.42 -45.906 105.244 -45.951 Z M 102 -6.707 L 102 -6.2 C 102 -6.09 101.91 -6 101.8 -6 L 101.293 -6 L 102.293 -5 L 102.6 -5 C 102.821 -5 103 -5.179 103 -5.4 L 103 -5.707 L 102 -6.707 Z" fill="#777777"/>
<path d="M 2.756 -45.951 C 2.405 -45.86 2.14 -45.595 2.049 -45.244 L 6 -41.293 L 6 -41.8 C 6 -41.911 6.089 -42 6.2 -42 L 6.707 -42 L 2.756 -45.951 Z M 6 -6.707 L 2.049 -2.756 C 2.094 -2.58 2.168 -2.417 2.293 -2.293 C 2.417 -2.169 2.581 -2.095 2.756 -2.049 L 6.708 -6 L 6.2 -6 C 6.089 -6 6 -6.09 6 -6.2 L 6 -6.707 Z" fill="#eeeeee"/>
</g>
<g id="shape6">
<path d="M 125 -41 L 125 -7 L 7 -7 L 7 -41 Z M 3 -47 C 1.896 -47 1 -46.104 1 -45 L 1 -41 L 1 -7 L 1 -3 C 1 -1.896 1.896 -1 3 -1 L 129 -1 C 130.104 -1 131 -1.896 131 -3 L 131 -7 L 131 -41 L 131 -45 C 131 -46.104 130.104 -47 129 -47 Z" fill="#000000"/>
<path d="M 129.707 -45.707 L 125 -41 L 125 -7 L 7 -7 L 2.293 -2.293 C 2.474 -2.112 2.724 -2 3 -2 L 129 -2 C 129.553 -2 130 -2.447 130 -3 L 130 -7 L 130 -41 L 130 -45 C 130 -45.276 129.888 -45.526 129.707 -45.707 Z" fill="#555555"/>
<path d="M 128.766 -44.765 L 125 -41 L 125 -7 L 7 -7 L 3.234 -3.234 C 3.379 -3.09 3.579 -3 3.8 -3 L 128.2 -3 C 128.642 -3 129 -3.358 129 -3.8 L 129 -7 L 129 -41 L 129 -44.2 C 129 -44.421 128.91 -44.621 128.766 -44.765 Z" fill="#777777"/>
<path d="M 127.824 -43.824 L 125 -41 L 125 -7 L 7 -7 L 4.176 -4.176 C 4.284 -4.067 4.435 -4 4.6 -4 L 127.4 -4 C 127.731 -4 128 -4.269 128 -4.6 L 128 -7 L 128 -41 L 128 -43.4 C 128 -43.566 127.933 -43.716 127.824 -43.824 Z" fill="#888888"/>
<path d="M 125 -41 L 125 -7 L 7 -7 L 7 -41 Z M 3 -46 C 2.448 -46 2 -45.552 2 -45 L 2 -41 L 2 -7 L 2 -3 C 2 -2.724 2.112 -2.474 2.293 -2.293 L 5.117 -5.117 C 5.189 -5.045 5.29 -5 5.4 -5 L 126.6 -5 C 126.821 -5 127 -5.179 127 -5.4 L 127 -7 L 127 -41 L 127 -42.6 C 127 -42.71 126.955 -42.81 126.883 -42.883 L 129.707 -45.707 C 129.526 -45.888 129.276 -46 129 -46 Z" fill="#aaaaaa"/>
<path d="M 3.8 -45 C 3.358 -45 3 -44.642 3 -44.2 L 3 -41 L 3 -7 L 3 -3.8 C 3 -3.579 3.09 -3.379 3.234 -3.235 L 7 -7 L 7 -7 L 7 -41 L 125 -41 L 125 -41 L 128.766 -44.766 C 128.621 -44.91 128.421 -45 128.2 -45 Z" fill="#bbbbbb"/>
<path d="M 4.6 -44 C 4.269 -44 4 -43.731 4 -43.4 L 4 -41 L 4 -7 L 4 -4.6 C 4 -4.434 4.067 -4.285 4.176 -4.176 L 7 -7 L 7 -7 L 7 -41 L 125 -41 L 125 -41 L 127.824 -43.824 C 127.716 -43.933 127.566 -44 127.4 -44 Z" fill="#dddddd"/>
<path d="M 5.4 -43 C 5.179 -43 5 -42.821 5 -42.6 L 5 -41 L 5 -7 L 5 -5.4 C 5 -5.29 5.045 -5.189 5.117 -5.117 L 7 -7 L 7 -7 L 7 -41 L 125 -41 L 125 -41 L 126.883 -42.883 C 126.811 -42.955 126.71 -43 126.6 -43 Z" fill="#eeeeee"/>
<path d="M 6.2 -42 C 6.089 -42 6 -41.911 6 -41.8 L 6 -41 L 6 -7 L 6 -6.2 C 6 -6.09 6.089 -6 6.2 -6 L 125.8 -6 C 125.91 -6 126 -6.09 126 -6.2 L 126 -7 L 126 -41 L 126 -41.8 C 126 -41.911 125.91 -42 125.8 -42 Z" fill="#cccccc"/>
<path d="M 127 -5.707 L 127 -5.4 C 127 -5.179 126.821 -5 126.6 -5 L 126.293 -5 L 129.244 -2.049 C 129.595 -2.14 129.86 -2.405 129.951 -2.756 L 127 -5.707 Z" fill="#555555"/>
<path d="M 129.244 -45.951 L 125.293 -42 L 125.8 -42 C 125.91 -42 126 -41.911 126 -41.8 L 126 -41.293 L 129.951 -45.244 C 129.905 -45.42 129.831 -45.583 129.707 -45.707 C 129.583 -45.832 129.42 -45.906 129.244 -45.951 Z M 126 -6.707 L 126 -6.2 C 126 -6.09 125.91 -6 125.8 -6 L 125.293 -6 L 126.293 -5 L 126.6 -5 C 126.821 -5 127 -5.179 127 -5.4 L 127 -5.707 L 126 -6.707 Z" fill="#777777"/>
<path d="M 2.756 -45.951 C 2.405 -45.86 2.14 -45.595 2.049 -45.244 L 6 -41.293 L 6 -41.8 C 6 -41.911 6.089 -42 6.2 -42 L 6.707 -42 L 2.756 -45.951 Z M 6 -6.707 L 2.049 -2.756 C 2.094 -2.58 2.168 -2.417 2.293 -2.293 C 2.417 -2.169 2.581 -2.095 2.756 -2.049 L 6.708 -6 L 6.2 -6 C 6.089 -6 6 -6.09 6 -6.2 L 6 -6.707 Z" fill="#eeeeee"/>
</g>
<g id="shape7">
<path d="M 77 -41 L 77 -7 L 7 -7 L 7 -41 Z M 3 -47 C 1.896 -47 1 -46.104 1 -45 L 1 -41 L 1 -7 L 1 -3 C 1 -1.896 1.896 -1 3 -1 L 81 -1 C 82.104 -1 83 -1.896 83 -3 L 83 -7 L 83 -41 L 83 -45 C 83 -46.104 82.104 -47 81 -47 Z" fill="#000000"/>
<path d="M 81.707 -45.707 L 77 -41 L 77 -7 L 7 -7 L 2.293 -2.293 C 2.474 -2.112 2.724 -2 3 -2 L 81 -2 C 81.553 -2 82 -2.447 82 -3 L 82 -7 L 82 -41 L 82 -45 C 82 -45.276 81.888 -45.526 81.707 -45.707 Z" fill="#555555"/>
<path d="M 80.766 -44.765 L 77 -41 L 77 -7 L 7 -7 L 3.234 -3.234 C 3.379 -3.09 3.579 -3 3.8 -3 L 80.2 -3 C 80.642 -3 81 -3.358 81 -3.8 L 81 -7 L 81 -41 L 81 -44.2 C 81 -44.421 80.91 -44.621 80.766 -44.765 Z" fill="#777777"/>
<path d="M 79.824 -43.824 L 77 -41 L 77 -7 L 7 -7 L 4.176 -4.176 C 4.284 -4.067 4.435 -4 4.6 -4 L 79.4 -4 C 79.731 -4 80 -4.269 80 -4.6 L 80 -7 L 80 -41 L 80 -43.4 C 80 -43.566 79.933 -43.716 79.824 -43.824 Z" fill="#888888"/>
<path d="M 77 -41 L 77 -7 L 7 -7 L 7 -41 Z M 3 -46 C 2.448 -46 2 -45.552 2 -45 L 2 -41 L 2 -7 L 2 -3 C 2 -2.724 2.112 -2.474 2.293 -2.293 L 5.117 -5.117 C 5.189 -5.045 5.29 -5 5.4 -5 L 78.6 -5 C 78.821 -5 79 -5.179 79 -5.4 L 79 -7 L 79 -41 L 79 -42.6 C 79 -42.71 78.955 -42.81 78.883 -42.883 L 81.707 -45.707 C 81.526 -45.888 81.276 -46 81 -46 Z" fill="#aaaaaa"/>
<path d="M 3.8 -45 C 3.358 -45 3 -44.642 3 -44.2 L 3 -41 L 3 -7 L 3 -3.8 C 3 -3.579 3.09 -3.379 3.234 -3.235 L 7 -7 L 7 -7 L 7 -41 L 77 -41 L 80.766 -44.766 C 80.621 -44.91 80.421 -45 80.2 -45 Z" fill="#bbbbbb"/>
<path d="M 4.6 -44 C 4.269 -44 4 -43.731 4 -43.4 L 4 -41 L 4 -7 L 4 -4.6 C 4 -4.434 4.067 -4.285 4.176 -4.176 L 7 -7 L 7 -7 L 7 -41 L 77 -41 L 79.824 -43.824 C 79.716 -43.933 79.566 -44 79.4 -44 Z" fill="#dddddd"/>
<path d="M 5.4 -43 C 5.179 -43 5 -42.821 5 -42.6 L 5 -41 L 5 -7 L 5 -5.4 C 5 -5.29 5.045 -5.189 5.117 -5.117 L 7 -7 L 7 -7 L 7 -41 L 77 -41 L 78.883 -42.883 C 78.811 -42.955 78.71 -43 78.6 -43 Z" fill="#eeeeee"/>
<path d="M 6.2 -42 C 6.089 -42 6 -41.911 6 -41.8 L 6 -41 L 6 -7 L 6 -6.2 C 6 -6.09 6.089 -6 6.2 -6 L 77.8 -6 C 77.91 -6 78 -6.09 78 -6.2 L 78 -7 L 78 -41 L 78 -41.8 C 78 -41.911 77.91 -42 77.8 -42 Z" fill="#cccccc"/>
<path d="M 79 -5.707 L 79 -5.4 C 79 -5.179 78.821 -5 78.6 -5 L 78.293 -5 L 81.244 -2.049 C 81.595 -2.14 81.86 -2.405 81.951 -2.756 L 79 -5.707 Z" fill="#555555"/>
<path d="M 81.244 -45.951 L 77.293 -42 L 77.8 -42 C 77.91 -42 78 -41.911 78 -41.8 L 78 -41.293 L 81.951 -45.244 C 81.905 -45.42 81.831 -45.583 81.707 -45.707 C 81.583 -45.832 81.42 -45.906 81.244 -45.951 Z M 78 -6.707 L 78 -6.2 C 78 -6.09 77.91 -6 77.8 -6 L 77.293 -6 L 78.293 -5 L 78.6 -5 C 78.821 -5 79 -5.179 79 -5.4 L 79 -5.707 L 78 -6.707 Z" fill="#777777"/>
<path d="M 2.756 -45.951 C 2.405 -45.86 2.14 -45.595 2.049 -45.244 L 6 -41.293 L 6 -41.8 C 6 -41.911 6.089 -42 6.2 -42 L 6.707 -42 L 2.756 -45.951 Z M 6 -6.707 L 2.049 -2.756 C 2.094 -2.58 2.168 -2.417 2.293 -2.293 C 2.417 -2.169 2.581 -2.095 2.756 -2.049 L 6.708 -6 L 6.2 -6 C 6.089 -6 6 -6.09 6 -6.2 L 6 -6.707 Z" fill="#eeeeee"/>
</g>
<g id="shape8">
<path d="M 39 -95 C 37.896 -95 37 -94.104 37 -93 L 37 -89 L 37 -48 L 37 -47.2 C 37 -47.09 36.91 -47 36.8 -47 L 36 -47 L 36 -41 L 43 -41 L 43 -48 L 43 -89 L 101 -89 L 101 -95 Z M 101 -95 L 101 -89 L 101 -7 L 7 -7 L 7 -41 L 36 -41 L 36 -47 L 3 -47 C 1.896 -47 1 -46.104 1 -45 L 1 -41 L 1 -7 L 1 -3 C 1 -1.896 1.896 -1 3 -1 L 105 -1 C 106.104 -1 107 -1.896 107 -3 L 107 -7 L 107 -89 L 107 -93 C 107 -94.104 106.104 -95 105 -95 Z" fill="#000000"/>
<path d="M 105.707 -93.707 L 101 -89 L 101 -7 L 7 -7 L 2.293 -2.293 C 2.474 -2.112 2.724 -2 3 -2 L 105 -2 C 105.553 -2 106 -2.447 106 -3 L 106 -7 L 106 -89 L 106 -93 C 106 -93.276 105.888 -93.526 105.707 -93.707 Z" fill="#555555"/>
<path d="M 104.766 -92.765 L 101 -89 L 101 -7 L 7 -7 L 3.234 -3.234 C 3.379 -3.09 3.579 -3 3.8 -3 L 104.2 -3 C 104.642 -3 105 -3.358 105 -3.8 L 105 -7 L 105 -89 L 105 -92.2 C 105 -92.421 104.91 -92.621 104.766 -92.765 Z" fill="#777777"/>
<path d="M 103.824 -91.824 L 101 -89 L 101 -7 L 7 -7 L 4.176 -4.176 C 4.284 -4.067 4.435 -4 4.6 -4 L 103.4 -4 C 103.731 -4 104 -4.269 104 -4.6 L 104 -7 L 104 -89 L 104 -91.4 C 104 -91.566 103.933 -91.716 103.824 -91.824 Z" fill="#888888"/>
<path d="M 39 -94 C 38.448 -94 38 -93.552 38 -93 L 38 -89 L 38 -48 L 38 -46.4 C 38 -46.179 37.821 -46 37.6 -46 L 36 -46 L 36 -41 L 43 -41 L 43 -48 L 43 -89 L 101 -89 L 101 -94 Z M 101 -94 L 101 -89 L 101 -7 L 7 -7 L 7 -41 L 36 -41 L 36 -46 L 3 -46 C 2.448 -46 2 -45.552 2 -45 L 2 -41 L 2 -7 L 2 -3 C 2 -2.724 2.112 -2.474 2.293 -2.293 L 5.117 -5.117 C 5.189 -5.045 5.29 -5 5.4 -5 L 102.6 -5 C 102.821 -5 103 -5.179 103 -5.4 L 103 -7 L 103 -89 L 103 -90.6 C 103 -90.71 102.955 -90.81 102.883 -90.883 L 105.707 -93.707 C 105.526 -93.888 105.276 -94 105 -94 Z" fill="#aaaaaa"/>
<path d="M 101 -93 L 101 -89 L 104.766 -92.766 C 104.621 -92.91 104.421 -93 104.2 -93 Z M 39.8 -93 C 39.358 -93 39 -92.642 39 -92.2 L 39 -89 L 39 -48 L 39 -45.6 C 39 -45.269 38.731 -45 38.4 -45 L 36 -45 L 36 -41 L 43 -41 L 43 -48 L 43 -89 L 101 -89 L 101 -93 Z M 3.8 -45 C 3.358 -45 3 -44.642 3 -44.2 L 3 -41 L 3 -7 L 3 -3.8 C 3 -3.579 3.09 -3.379 3.234 -3.235 L 7 -7 L 7 -7 L 7 -41 L 36 -41 L 36 -45 Z" fill="#bbbbbb"/>
<path d="M 101 -92 L 101 -89 L 103.824 -91.824 C 103.716 -91.933 103.566 -92 103.4 -92 Z M 40.6 -92 C 40.269 -92 40 -91.731 40 -91.4 L 40 -89 L 40 -48 L 40 -44.8 C 40 -44.358 39.642 -44 39.2 -44 L 36 -44 L 36 -41 L 43 -41 L 43 -48 L 43 -89 L 101 -89 L 101 -92 Z M 4.6 -44 C 4.269 -44 4 -43.731 4 -43.4 L 4 -41 L 4 -7 L 4 -4.6 C 4 -4.434 4.067 -4.285 4.176 -4.176 L 7 -7 L 7 -7 L 7 -41 L 36 -41 L 36 -44 Z" fill="#dddddd"/>
<path d="M 101 -91 L 101 -89 L 102.883 -90.883 C 102.811 -90.955 102.71 -91 102.6 -91 Z M 41.4 -91 C 41.179 -91 41 -90.821 41 -90.6 L 41 -89 L 41 -48 L 41 -44 C 41 -43.447 40.553 -43 40 -43 L 36 -43 L 36 -41 L 43 -41 L 43 -48 L 43 -89 L 101 -89 L 101 -91 Z M 5.4 -43 C 5.179 -43 5 -42.821 5 -42.6 L 5 -41 L 5 -7 L 5 -5.4 C 5 -5.29 5.045 -5.189 5.117 -5.117 L 7 -7 L 7 -7 L 7 -41 L 36 -41 L 36 -43 Z" fill="#eeeeee"/>
<path d="M 42.2 -90 C 42.089 -90 42 -89.911 42 -89.8 L 42 -89 L 42 -48 L 42 -44 C 42 -42.896 41.104 -42 40 -42 L 36 -42 L 36 -41 L 36 -41 L 36 -42 L 6.2 -42 C 6.089 -42 6 -41.911 6 -41.8 L 6 -41 L 6 -7 L 6 -6.2 C 6 -6.09 6.089 -6 6.2 -6 L 101.8 -6 C 101.91 -6 102 -6.09 102 -6.2 L 102 -7 L 102 -89 L 102 -89.8 C 102 -89.911 101.91 -90 101.8 -90 L 101 -90 L 101 -89 L 101 -89 L 101 -90 Z" fill="#cccccc"/>
<path d="M 103 -5.707 L 103 -5.4 C 103 -5.179 102.821 -5 102.6 -5 L 102.293 -5 L 105.244 -2.049 C 105.595 -2.14 105.86 -2.405 105.951 -2.756 L 103 -5.707 Z" fill="#555555"/>
<path d="M 105.244 -93.951 L 101.293 -90 L 101.8 -90 C 101.91 -90 102 -89.911 102 -89.8 L 102 -89.293 L 105.951 -93.244 C 105.905 -93.42 105.831 -93.583 105.707 -93.707 C 105.583 -93.832 105.42 -93.906 105.244 -93.951 Z M 102 -6.707 L 102 -6.2 C 102 -6.09 101.91 -6 101.8 -6 L 101.293 -6 L 102.293 -5 L 102.6 -5 C 102.821 -5 103 -5.179 103 -5.4 L 103 -5.707 L 102 -6.707 Z" fill="#777777"/>
<path d="M 38.756 -93.951 C 38.405 -93.86 38.14 -93.595 38.049 -93.244 L 42 -89.293 L 42 -89.8 C 42 -89.911 42.089 -90 42.2 -90 L 42.707 -90 L 38.756 -93.951 Z M 2.756 -45.951 C 2.405 -45.86 2.14 -45.595 2.049 -45.244 L 6 -41.293 L 6 -41.8 C 6 -41.911 6.089 -42 6.2 -42 L 6.707 -42 L 2.756 -45.951 Z M 6 -6.707 L 2.049 -2.756 C 2.094 -2.58 2.168 -2.417 2.293 -2.293 C 2.417 -2.169 2.581 -2.095 2.756 -2.049 L 6.708 -6 L 6.2 -6 C 6.089 -6 6 -6.09 6 -6.2 L 6 -6.707 Z" fill="#eeeeee"/>
</g>
</defs>
<g class="keyboard">
<g class="key">
<use xlink:href="#shape0" transform="translate(0 0)"/>
<text x="24" y="-20.6" text-anchor="middle" font-family="Arial" font-size="11.333" fill="#000000">F9</text>
</g>
<g class="key">
<use xlink:href="#shape0" transform="translate(48 0)"/>
<text x="72" y="-20.6" text-anchor="middle" font-family="Arial" font-size="11.333" fill="#000000">F10</text>
</g>
<g class="key">
<use xlink:href="#shape1" transform="translate(120 0)"/>
<text x="156" y="-20.6" text-anchor="middle" font-family="Arial" font-size="11.333" fill="#000000">alt</text>
</g>
<g class="key">
<use xlink:href="#shape2" transform="translate(252 0)"/>
</g>
<g class="key">
<use xlink:href="#shape1" transform="translate(768 0)"/>
<text x="804" y="-20.6" text-anchor="middle" font-family="Arial" font-size="11.333" fill="#000000">caps lock</text>
</g>
<g class="key">
<use xlink:href="#shape3" transform="translate(864 0)"/>
<text x="912" y="-25.7" text-anchor="middle" font-family="Arial" font-size="17" fill="#000000">0</text>
<text x="912" y="-10.4" text-anchor="middle" font-family="Arial" font-size="11.333" fill="#000000">ins</text>
</g>
<g class="key">
<use xlink:href="#shape0" transform="translate(960 0)"/>
<text x="984" y="-25.7" text-anchor="middle" font-family="Arial" font-size="17" fill="#000000">.</text>
<text x="984" y="-10.4" text-anchor="middle" font-family="Arial" font-size="11.333" fill="#000000">del</text>
</g>
<g class="key">
<use xlink:href="#shape4" transform="translate(1008 0)"/>
<text x="1032" y="-42.9" text-anchor="middle" font-family="Arial" font-size="17" fill="#000000">+</text>
</g>
<g class="key">
<use xlink:href="#shape0" transform="translate(0 -48)"/>
<text x="24" y="-68.6" text-anchor="middle" font-family="Arial" font-size="11.333" fill="#000000">F7</text>
</g>
<g class="key">
<use xlink:href="#shape0" transform="translate(48 -48)"/>
<text x="72" y="-68.6" text-anchor="middle" font-family="Arial" font-size="11.333" fill="#000000">F8</text>
</g>
<g class="key">
<use xlink:href="#shape5" transform="translate(120 -48)"/>
<text x="174" y="-68.6" text-anchor="middle" font-family="Arial" font-size="11.333" fill="#000000">shift</text>
</g>
<g class="key">
<use xlink:href="#shape0" transform="translate(228 -48)"/>
<text x="252" y="-66.9" text-anchor="middle" font-family="Arial" font-size="17" fill="#000000">Z</text>
</g>
<g class="key">
<use xlink:href="#shape0" transform="translate(276 -48)"/>
<text x="300" y="-66.9" text-anchor="middle" font-family="Arial" font-size="17" fill="#000000">X</text>
</g>
<g class="key">
<use xlink:href="#shape0" transform="translate(324 -48)"/>
<text x="348" y="-66.9" text-anchor="middle" font-family="Arial" font-size="17" fill="#000000">C</text>
</g>
<g class="key">
<use xlink:href="#shape0" transform="translate(372 -48)"/>
<text x="396" y="-66.9" text-anchor="middle" font-family="Arial" font-size="17" fill="#000000">V</text>
</g>
<g class="key">
<use xlink:href="#shape0" transform="translate(420 -48)"/>
<text x="444" y="-66.9" text-anchor="middle" font-family="Arial" font-size="17" fill="#000000">B</text>
</g>
<g class="key">
<use xlink:href="#shape0" transform="translate(468 -48)"/>
<text x="492" y="-66.9" text-anchor="middle" font-family="Arial" font-size="17" fill="#000000">N</text>
</g>
<g class="key">
<use xlink:href="#shape0" transform="translate(516 -48)"/>
<text x="540" y="-66.9" text-anchor="middle" font-family="Arial" font-size="17" fill="#000000">M</text>
</g>
<g class="key">
<use xlink:href="#shape0" transform="translate(564 -48)"/>
<text x="588" y="-59.42" text-anchor="middle" font-family="Arial" font-size="13.6" fill="#000000">,</text>
<text x="588" y="-76.42" text-anchor="middle" font-family="Arial" font-size="13.6" fill="#000000">&lt;</text>
</g>
<g class="key">
<use xlink:href="#shape0" transform="translate(612 -48)"/>
<text x="636" y="-59.42" text-anchor="middle" font-family="Arial" font-size="13.6" fill="#000000">.</text>
<text x="636" y="-76.42" text-anchor="middle" font-family="Arial" font-size="13.6" fill="#000000">&gt;</text>
</g>
<g class="key">
<use xlink:href="#shape0" transform="translate(660 -48)"/>
<text x="684" y="-59.42" text-anchor="middle" font-family="Arial" font-size="13.6" fill="#000000">/</text>
<text x="684" y="-76.42" text-anchor="middle" font-family="Arial" font-size="13.6" fill="#000000">?</text>
</g>
<g class="key">
<use xlink:href="#shape6" transform="translate(708 -48)"/>
<text x="774" y="-68.6" text-anchor="middle" font-family="Arial" font-size="11.333" fill="#000000">shift</text>
</g>
<g class="key">
<use xlink:href="#shape0" transform="translate(864 -48)"/>
<text x="888" y="-73.7" text-anchor="middle" font-family="Arial" font-size="17" fill="#000000">1</text>
<text x="888" y="-58.4" text-anchor="middle" font-family="Arial" font-size="11.333" fill="#000000">end</text>
</g>
<g class="key">
<use xlink:href="#shape0" transform="translate(912 -48)"/>
<text x="936" y="-73.7" text-anchor="middle" font-family="Arial" font-size="17" fill="#000000">2</text>
<text x="936" y="-58.4" text-anchor="middle" font-family="Arial" font-size="11.333" fill="#000000">&#8595;</text>
</g>
<g class="key">
<use xlink:href="#shape0" transform="translate(960 -48)"/>
<text x="984" y="-73.7" text-anchor="middle" font-family="Arial" font-size="17" fill="#000000">3</text>
<text x="984" y="-58.4" text-anchor="middle" font-family="Arial" font-size="11.333" fill="#000000">pgdn</text>
</g>
<g class="key">
<use xlink:href="#shape0" transform="translate(0 -96)"/>
<text x="24" y="-116.6" text-anchor="middle" font-family="Arial" font-size="11.333" fill="#000000">F5</text>
</g>
<g class="key">
<use xlink:href="#shape0" transform="translate(48 -96)"/>
<text x="72" y="-116.6" text-anchor="middle" font-family="Arial" font-size="11.333" fill="#000000">F6</text>
</g>
<g class="key">
<use xlink:href="#shape7" transform="translate(120 -96)"/>
<text x="162" y="-116.6" text-anchor="middle" font-family="Arial" font-size="11.333" fill="#000000">ctrl</text>
</g>
<g class="key">
<use xlink:href="#shape0" transform="translate(204 -96)"/>
<text x="228" y="-114.9" text-anchor="middle" font-family="Arial" font-size="17" fill="#000000">A</text>
</g>
<g class="key">
<use xlink:href="#shape0" transform="translate(252 -96)"/>
<text x="276" y="-114.9" text-anchor="middle" font-family="Arial" font-size="17" fill="#000000">S</text>
</g>
<g class="key">
<use xlink:href="#shape0" transform="translate(300 -96)"/>
<text x="324" y="-114.9" text-anchor="middle" font-family="Arial" font-size="17" fill="#000000">D</text>
</g>
<g class="key">
<use xlink:href="#shape0" transform="translate(348 -96)"/>
<text x="372" y="-114.9" text-anchor="middle" font-family="Arial" font-size="17" fill="#000000">F</text>
</g>
<g class="key">
<use xlink:href="#shape0" transform="translate(396 -96)"/>
<text x="420" y="-114.9" text-anchor="middle" font-family="Arial" font-size="17" fill="#000000">G</text>
</g>
<g class="key">
<use xlink:href="#shape0" transform="translate(444 -96)"/>
<text x="468" y="-114.9" text-anchor="middle" font-family="Arial" font-size="17" fill="#000000">H</text>
</g>
<g class="key">
<use xlink:href="#shape0" transform="translate(492 -96)"/>
<text x="516" y="-114.9" text-anchor="middle" font-family="Arial" font-size="17" fill="#000000">J</text>
</g>
<g class="key">
<use xlink:href="#shape0" transform="translate(540 -96)"/>
<text x="564" y="-114.9" text-anchor="middle" font-family="Arial" font-size="17" fill="#000000">K</text>
</g>
<g class="key">
<use xlink:href="#shape0" transform="translate(588 -96)"/>
<text x="612" y="-114.9" text-anchor="middle" font-family="Arial" font-size="17" fill="#000000">L</text>
</g>
<g class="key">
<use xlink:href="#shape0" transform="translate(636 -96)"/>
<text x="660" y="-107.42" text-anchor="middle" font-family="Arial" font-size="13.6" fill="#000000">;</text>
<text x="660" y="-124.42" text-anchor="middle" font-family="Arial" font-size="13.6" fill="#000000">:</text>
</g>
<g class="key">
<use xlink:href="#shape0" transform="translate(684 -96)"/>
<text x="708" y="-107.42" text-anchor="middle" font-family="Arial" font-size="13.6" fill="#000000">&#39;</text>
<text x="708" y="-124.42" text-anchor="middle" font-family="Arial" font-size="13.6" fill="#000000">&#34;</text>
</g>
<g class="key">
<use xlink:href="#shape8" transform="translate(732 -96)"/>
<text x="786" y="-116.6" text-anchor="middle" font-family="Arial" font-size="11.333" fill="#000000">enter</text>
</g>
<g class="key">
<use xlink:href="#shape0" transform="translate(864 -96)"/>
<text x="888" y="-121.7" text-anchor="middle" font-family="Arial" font-size="17" fill="#000000">4</text>
<text x="888" y="-106.4" text-anchor="middle" font-family="Arial" font-size="11.333" fill="#000000">&#8592;</text>
</g>
<g class="key">
<use xlink:href="#shape0" transform="translate(912 -96)"/>
<text x="936" y="-121.7" text-anchor="middle" font-family="Arial" font-size="17" fill="#000000">5</text>
</g>
<g class="key">
<use xlink:href="#shape0" transform="translate(960 -96)"/>
<text x="984" y="-121.7" text-anchor="middle" font-family="Arial" font-size="17" fill="#000000">6</text>
<text x="984" y="-106.4" text-anchor="middle" font-family="Arial" font-size="11.333" fill="#000000">&#8594;</text>
</g>
<g class="key">
<use xlink:href="#shape0" transform="translate(1008 -96)"/>
<text x="1032" y="-114.9" text-anchor="middle" font-family="Arial" font-size="17" fill="#000000">&#8722;</text>
</g>
<g class="key">
<use xlink:href="#shape0" transform="translate(0 -144)"/>
<text x="24" y="-164.6" text-anchor="middle" font-family="Arial" font-size="11.333" fill="#000000">F3</text>
</g>
<g class="key">
<use xlink:href="#shape0" transform="translate(48 -144)"/>
<text x="72" y="-164.6" text-anchor="middle" font-family="Arial" font-size="11.333" fill="#000000">F4</text>
</g>
<g class="key">
<use xlink:href="#shape1" transform="translate(120 -144)"/>
<text x="156" y="-164.6" text-anchor="middle" font-family="Arial" font-size="11.333" fill="#000000">tab</text>
</g>
<g class="key">
<use xlink:href="#shape0" transform="translate(192 -144)"/>
<text x="216" y="-162.9" text-anchor="middle" font-family="Arial" font-size="17" fill="#000000">Q</text>
</g>
<g class="key">
<use xlink:href="#shape0" transform="translate(240 -144)"/>
<text x="264" y="-162.9" text-anchor="middle" font-family="Arial" font-size="17" fill="#000000">W</text>
</g>
<g class="key">
<use xlink:href="#shape0" transform="translate(288 -144)"/>
<text x="312" y="-162.9" text-anchor="middle" font-family="Arial" font-size="17" fill="#000000">E</text>
</g>
<g class="key">
<use xlink:href="#shape0" transform="translate(336 -144)"/>
<text x="360" y="-162.9" text-anchor="middle" font-family="Arial" font-size="17" fill="#000000">R</text>
</g>
<g class="key">
<use xlink:href="#shape0" transform="translate(384 -144)"/>
<text x="408" y="-162.9" text-anchor="middle" font-family="Arial" font-size="17" fill="#000000">T</text>
</g>
<g class="key">
<use xlink:href="#shape0" transform="translate(432 -144)"/>
<text x="456" y="-162.9" text-anchor="middle" font-family="Arial" font-size="17" fill="#000000">Y</text>
</g>
<g class="key">
<use xlink:href="#shape0" transform="translate(480 -144)"/>
<text x="504" y="-162.9" text-anchor="middle" font-family="Arial" font-size="17" fill="#000000">U</text>
</g>
<g class="key">
<use xlink:href="#shape0" transform="translate(528 -144)"/>
<text x="552" y="-162.9" text-anchor="middle" font-family="Arial" font-size="17" fill="#000000">I</text>
</g>
<g class="key">
<use xlink:href="#shape0" transform="translate(576 -144)"/>
<text x="600" y="-162.9" text-anchor="middle" font-family="Arial" font-size="17" fill="#000000">O</text>
</g>
<g class="key">
<use xlink:href="#shape0" transform="translate(624 -144)"/>
<text x="648" y="-162.9" text-anchor="middle" font-family="Arial" font-size="17" fill="#000000">P</text>
</g>
<g class="key">
<use xlink:href="#shape0" transform="translate(672 -144)"/>
<text x="696" y="-155.42" text-anchor="middle" font-family="Arial" font-size="13.6" fill="#000000">[</text>
<text x="696" y="-172.42" text-anchor="middle" font-family="Arial" font-size="13.6" fill="#000000">{</text>
</g>
<g class="key">
<use xlink:href="#shape0" transform="translate(720 -144)"/>
<text x="744" y="-155.42" text-anchor="middle" font-family="Arial" font-size="13.6" fill="#000000">]</text>
<text x="744" y="-172.42" text-anchor="middle" font-family="Arial" font-size="13.6" fill="#000000">}</text>
</g>
<g class="key">
<use xlink:href="#shape0" transform="translate(864 -144)"/>
<text x="888" y="-169.7" text-anchor="middle" font-family="Arial" font-size="17" fill="#000000">7</text>
<text x="888" y="-154.4" text-anchor="middle" font-family="Arial" font-size="11.333" fill="#000000">home</text>
</g>
<g class="key">
<use xlink:href="#shape0" transform="translate(912 -144)"/>
<text x="936" y="-169.7" text-anchor="middle" font-family="Arial" font-size="17" fill="#000000">8</text>
<text x="936" y="-154.4" text-anchor="middle" font-family="Arial" font-size="11.333" fill="#000000">&#8593;</text>
</g>
<g class="key">
<use xlink:href="#shape0" transform="translate(960 -144)"/>
<text x="984" y="-169.7" text-anchor="middle" font-family="Arial" font-size="17" fill="#000000">9</text>
<text x="984" y="-154.4" text-anchor="middle" font-family="Arial" font-size="11.333" fill="#000000">pgup</text>
</g>
<g class="key">
<use xlink:href="#shape0" transform="translate(1008 -144)"/>
<text x="1032" y="-169.7" text-anchor="middle" font-family="Arial" font-size="17" fill="#000000">*</text>
<text x="1032" y="-154.4" text-anchor="middle" font-family="Arial" font-size="11.333" fill="#000000">prtsc</text>
</g>
<g class="key">
<use xlink:href="#shape0" transform="translate(0 -192)"/>
<text x="24" y="-212.6" text-anchor="middle" font-family="Arial" font-size="11.333" fill="#000000">F1</text>
</g>
<g class="key">
<use xlink:href="#shape0" transform="translate(48 -192)"/>
<text x="72" y="-212.6" text-anchor="middle" font-family="Arial" font-size="11.333" fill="#000000">F2</text>
</g>
<g class="key">
<use xlink:href="#shape0" transform="translate(120 -192)"/>
<text x="144" y="-203.42" text-anchor="middle" font-family="Arial" font-size="13.6" fill="#000000">`</text>
<text x="144" y="-220.42" text-anchor="middle" font-family="Arial" font-size="13.6" fill="#000000">~</text>
</g>
<g class="key">
<use xlink:href="#shape0" transform="translate(168 -192)"/>
<text x="192" y="-203.42" text-anchor="middle" font-family="Arial" font-size="13.6" fill="#000000">1</text>
<text x="192" y="-220.42" text-anchor="middle" font-family="Arial" font-size="13.6" fill="#000000">!</text>
</g>
<g class="key">
<use xlink:href="#shape0" transform="translate(216 -192)"/>
<text x="240" y="-203.42" text-anchor="middle" font-family="Arial" font-size="13.6" fill="#000000">2</text>
<text x="240" y="-220.42" text-anchor="middle" font-family="Arial" font-size="13.6" fill="#000000">@</text>
</g>
<g class="key">
<use xlink:href="#shape0" transform="translate(264 -192)"/>
<text x="288" y="-203.42" text-anchor="middle" font-family="Arial" font-size="13.6" fill="#000000">3</text>
<text x="288" y="-220.42" text-anchor="middle" font-family="Arial" font-size="13.6" fill="#000000">#</text>
</g>
<g class="key">
<use xlink:href="#shape0" transform="translate(312 -192)"/>
<text x="336" y="-203.42" text-anchor="middle" font-family="Arial" font-size="13.6" fill="#000000">4</text>
<text x="336" y="-220.42" text-anchor="middle" font-family="Arial" font-size="13.6" fill="#000000">$</text>
</g>
<g class="key">
<use xlink:href="#shape0" transform="translate(360 -192)"/>
<text x="384" y="-203.42" text-anchor="middle" font-family="Arial" font-size="13.6" fill="#000000">5</text>
<text x="384" y="-220.42" text-anchor="middle" font-family="Arial" font-size="13.6" fill="#000000">%</text>
</g>
<g class="key">
<use xlink:href="#shape0" transform="translate(408 -192)"/>
<text x="432" y="-203.42" text-anchor="middle" font-family="Arial" font-size="13.6" fill="#000000">6</text>
<text x="432" y="-220.42" text-anchor="middle" font-family="Arial" font-size="13.6" fill="#000000">^</text>
</g>
<g class="key">
<use xlink:href="#shape0" transform="translate(456 -192)"/>
<text x="480" y="-203.42" text-anchor="middle" font-family="Arial" font-size="13.6" fill="#000000">7</text>
<text x="480" y="-220.42" text-anchor="middle" font-family="Arial" font-size="13.6" fill="#000000">&amp;</text>
</g>
<g class="key">
<use xlink:href="#shape0" transform="translate(504 -192)"/>
<text x="528" y="-203.42" text-anchor="middle" font-family="Arial" font-size="13.6" fill="#000000">8</text>
<text x="528" y="-220.42" text-anchor="middle" font-family="Arial" font-size="13.6" fill="#000000">*</text>
</g>
<g class="key">
<use xlink:href="#shape0" transform="translate(552 -192)"/>
<text x="576" y="-203.42" text-anchor="middle" font-family="Arial" font-size="13.6" fill="#000000">9</text>
<text x="576" y="-220.42" text-anchor="middle" font-family="Arial" font-size="13.6" fill="#000000">(</text>
</g>
<g class="key">
<use xlink:href="#shape0" transform="translate(600 -192)"/>
<text x="624" y="-203.42" text-anchor="middle" font-family="Arial" font-size="13.6" fill="#000000">0</text>
<text x="624" y="-220.42" text-anchor="middle" font-family="Arial" font-size="13.6" fill="#000000">)</text>
</g>
<g class="key">
<use xlink:href="#shape0" transform="translate(648 -192)"/>
<text x="672" y="-203.42" text-anchor="middle" font-family="Arial" font-size="13.6" fill="#000000">&#8722;</text>
<text x="672" y="-220.42" text-anchor="middle" font-family="Arial" font-size="13.6" fill="#000000">_</text>
</g>
<g class="key">
<use xlink:href="#shape0" transform="translate(696 -192)"/>
<text x="720" y="-203.42" text-anchor="middle" font-family="Arial" font-size="13.6" fill="#000000">=</text>
<text x="720" y="-220.42" text-anchor="middle" font-family="Arial" font-size="13.6" fill="#000000">+</text>
</g>
<g class="key">
<use xlink:href="#shape0" transform="translate(744 -192)"/>
<text x="768" y="-203.42" text-anchor="middle" font-family="Arial" font-size="13.6" fill="#000000">\</text>
<text x="768" y="-220.42" text-anchor="middle" font-family="Arial" font-size="13.6" fill="#000000">|</text>
</g>
<g class="key">
<use xlink:href="#shape0" transform="translate(792 -192)"/>
<text x="816" y="-212.6" text-anchor="middle" font-family="Arial" font-size="11.333" fill="#000000">bksp</text>
</g>
<g class="key">
<use xlink:href="#shape0" transform="translate(864 -192)"/>
<text x="888" y="-212.6" text-anchor="middle" font-family="Arial" font-size="11.333" fill="#000000">esc</text>
</g>
<g class="key">
<use xlink:href="#shape0" transform="translate(912 -192)"/>
<text x="936" y="-218.267" text-anchor="middle" font-family="Arial" font-size="11.333" fill="#000000">num</text>
<text x="936" y="-206.933" text-anchor="middle" font-family="Arial" font-size="11.333" fill="#000000">lock</text>
</g>
<g class="key">
<use xlink:href="#shape0" transform="translate(960 -192)"/>
<text x="984" y="-218.267" text-anchor="middle" font-family="Arial" font-size="11.333" fill="#000000">scroll</text>
<text x="984" y="-206.933" text-anchor="middle" font-family="Arial" font-size="11.333" fill="#000000">lock</text>
</g>
<g class="key">
<use xlink:href="#shape0" transform="translate(1008 -192)"/>
<text x="1032" y="-218.267" text-anchor="middle" font-family="Arial" font-size="11.333" fill="#000000">sys</text>
<text x="1032" y="-206.933" text-anchor="middle" font-family="Arial" font-size="11.333" fill="#000000">req</text>
</g>
</g>
</svg>
