<?xml version="1.0"?>
<svg xmlns="http://www.w3.org/2000/svg" xmlns:xlink="http://www.w3.org/1999/xlink" version="1.1" width="192" height="240" viewBox="0 -240 192 240">
<defs>
<g id="shape0">
<path d="M 89 -41 L 89 -7 L 7 -7 L 7 -41 Z M 3 -47 C 1.896 -47 1 -46.104 1 -45 L 1 -41 L 1 -7 L 1 -3 C 1 -1.896 1.896 -1 3 -1 L 93 -1 C 94.104 -1 95 -1.896 95 -3 L 95 -7 L 95 -41 L 95 -45 C 95 -46.104 94.104 -47 93 -47 Z" fill="#000000"/>
<path d="M 93.707 -45.707 L 89 -41 L 89 -7 L 7 -7 L 2.293 -2.293 C 2.474 -2.112 2.724 -2 3 -2 L 93 -2 C 93.553 -2 94 -2.447 94 -3 L 94 -7 L 94 -41 L 94 -45 C 94 -45.276 93.888 -45.526 93.707 -45.707 Z" fill="#555555"/>
<path d="M 92.766 -44.765 L 89 -41 L 89 -7 L 7 -7 L 3.234 -3.234 C 3.379 -3.09 3.579 -3 3.8 -3 L 92.2 -3 C 92.642 -3 93 -3.358 93 -3.8 L 93 -7 L 93 -41 L 93 -44.2 C 93 -44.421 92.91 -44.621 92.766 -44.765 Z" fill="#777777"/>
<path d="M 91.824 -43.824 L 89 -41 L 89 -7 L 7 -7 L 4.176 -4.176 C 4.284 -4.067 4.435 -4 4.6 -4 L 91.4 -4 C 91.731 -4 92 -4.269 92 -4.6 L 92 -7 L 92 -41 L 92 -43.4 C 92 -43.566 91.933 -43.716 91.824 -43.824 Z" fill="#888888"/>
<path d="M 89 -41 L 89 -7 L 7 -7 L 7 -41 Z M 3 -46 C 2.448 -46 2 -45.552 2 -45 L 2 -41 L 2 -7 L 2 -3 C 2 -2.724 2.112 -2.474 2.293 -2.293 L 5.117 -5.117 C 5.189 -5.045 5.29 -5 5.4 -5 L 90.6 -5 C 90.821 -5 91 -5.179 91 -5.4 L 91 -7 L 91 -41 L 91 -42.6 C 91 -42.71 90.955 -42.81 90.883 -42.883 L 93.707 -45.707 C 93.526 -45.888 93.276 -46 93 -46 Z" fill="#aaaaaa"/>
<path d="M 3.8 -45 C 3.358 -45 3 -44.642 3 -44.2 L 3 -41 L 3 -7 L 3 -3.8 C 3 -3.579 3.09 -3.379 3.234 -3.235 L 7 -7 L 7 -7 L 7 -41 L 89 -41 L 89 -41 L 92.766 -44.766 C 92.621 -44.91 92.421 -45 92.2 -45 Z" fill="#bbbbbb"/>
<path d="M 4.6 -44 C 4.269 -44 4 -43.731 4 -43.4 L 4 -41 L 4 -7 L 4 -4.6 C 4 -4.434 4.067 -4.285 4.176 -4.176 L 7 -7 L 7 -7 L 7 -41 L 89 -41 L 89 -41 L 91.824 -43.824 C 91.716 -43.933 91.566 -44 91.4 -44 Z" fill="#dddddd"/>
<path d="M 5.4 -43 C 5.179 -43 5 -42.821 5 -42.6 L 5 -41 L 5 -7 L 5 -5.4 C 5 -5.29 5.045 -5.189 5.117 -5.117 L 7 -7 L 7 -7 L 7 -41 L 89 -41 L 89 -41 L 90.883 -42.883 C 90.811 -42.955 90.71 -43 90.6 -43 Z" fill="#eeeeee"/>
<path d="M 6.2 -42 C 6.089 -42 6 -41.911 6 -41.8 L 6 -41 L 6 -7 L 6 -6.2 C 6 -6.09 6.089 -6 6.2 -6 L 89.8 -6 C 89.91 -6 90 -6.09 90 -6.2 L 90 -7 L 90 -41 L 90 -41.8 C 90 -41.911 89.91 -42 89.8 -42 Z" fill="#cccccc"/>
<path d="M 91 -5.707 L 91 -5.4 C 91 -5.179 90.821 -5 90.6 -5 L 90.293 -5 L 93.244 -2.049 C 93.595 -2.14 93.86 -2.405 93.951 -2.756 L 91 -5.707 Z" fill="#555555"/>
<path d="M 93.244 -45.951 L 89.293 -42 L 89.8 -42 C 89.91 -42 90 -41.911 90 -41.8 L 90 -41.293 L 93.951 -45.244 C 93.905 -45.42 93.831 -45.583 93.707 -45.707 C 93.583 -45.832 93.42 -45.906 93.244 -45.951 Z M 90 -6.707 L 90 -6.2 C 90 -6.09 89.91 -6 89.8 -6 L 89.293 -6 L 90.293 -5 L 90.6 -5 C 90.821 -5 91 -5.179 91 -5.4 L 91 -5.707 L 90 -6.707 Z" fill="#777777"/>
<path d="M 2.756 -45.951 C 2.405 -45.86 2.14 -45.595 2.049 -45.244 L 6 -41.293 L 6 -41.8 C 6 -41.911 6.089 -42 6.2 -42 L 6.707 -42 L 2.756 -45.951 Z M 6 -6.707 L 2.049 -2.756 C 2.094 -2.58 2.168 -2.417 2.293 -2.293 C 2.417 -2.169 2.581 -2.095 2.756 -2.049 L 6.708 -6 L 6.2 -6 C 6.089 -6 6 -6.09 6 -6.2 L 6 -6.707 Z" fill="#eeeeee"/>
</g>
<g id="shape1">
<path d="M 41 -41 L 41 -7 L 7 -7 L 7 -41 Z M 3 -47 C 1.896 -47 1 -46.104 1 -45 L 1 -41 L 1 -7 L 1 -3 C 1 -1.896 1.896 -1 3 -1 L 45 -1 C 46.104 -1 47 -1.896 47 -3 L 47 -7 L 47 -41 L 47 -45 C 47 -46.104 46.104 -47 45 -47 Z" fill="#000000"/>
<path d="M 45.707 -45.707 L 41 -41 L 41 -7 L 7 -7 L 2.293 -2.293 C 2.474 -2.112 2.724 -2 3 -2 L 45 -2 C 45.553 -2 46 -2.447 46 -3 L 46 -7 L 46 -41 L 46 -45 C 46 -45.276 45.888 -45.526 45.707 -45.707 Z" fill="#555555"/>
<path d="M 44.766 -44.765 L 41 -41 L 41 -7 L 7 -7 L 3.234 -3.234 C 3.379 -3.09 3.579 -3 3.8 -3 L 44.2 -3 C 44.642 -3 45 -3.358 45 -3.8 L 45 -7 L 45 -41 L 45 -44.2 C 45 -44.421 44.91 -44.621 44.766 -44.765 Z" fill="#777777"/>
<path d="M 43.824 -43.824 L 41 -41 L 41 -7 L 7 -7 L 4.176 -4.176 C 4.284 -4.067 4.435 -4 4.6 -4 L 43.4 -4 C 43.731 -4 44 -4.269 44 -4.6 L 44 -7 L 44 -41 L 44 -43.4 C 44 -43.566 43.933 -43.716 43.824 -43.824 Z" fill="#888888"/>
<path d="M 41 -41 L 41 -7 L 7 -7 L 7 -41 Z M 3 -46 C 2.448 -46 2 -45.552 2 -45 L 2 -41 L 2 -7 L 2 -3 C 2 -2.724 2.112 -2.474 2.293 -2.293 L 5.117 -5.117 C 5.189 -5.045 5.29 -5 5.4 -5 L 42.6 -5 C 42.821 -5 43 -5.179 43 -5.4 L 43 -7 L 43 -41 L 43 -42.6 C 43 -42.71 42.955 -42.81 42.883 -42.883 L 45.707 -45.707 C 45.526 -45.888 45.276 -46 45 -46 Z" fill="#aaaaaa"/>
<path d="M 3.8 -45 C 3.358 -45 3 -44.642 3 -44.2 L 3 -41 L 3 -7 L 3 -3.8 C 3 -3.579 3.09 -3.379 3.234 -3.235 L 7 -7 L 7 -7 L 7 -41 L 41 -41 L 41 -41 L 44.766 -44.766 C 44.621 -44.91 44.421 -45 44.2 -45 Z" fill="#bbbbbb"/>
<path d="M 4.6 -44 C 4.269 -44 4 -43.731 4 -43.4 L 4 -41 L 4 -7 L 4 -4.6 C 4 -4.434 4.067 -4.285 4.176 -4.176 L 7 -7 L 7 -7 L 7 -41 L 41 -41 L 41 -41 L 43.824 -43.824 C 43.716 -43.933 43.566 -44 43.4 -44 Z" fill="#dddddd"/>
<path d="M 5.4 -43 C 5.179 -43 5 -42.821 5 -42.6 L 5 -41 L 5 -7 L 5 -5.4 C 5 -5.29 5.045 -5.189 5.117 -5.117 L 7 -7 L 7 -7 L 7 -41 L 41 -41 L 41 -41 L 42.883 -42.883 C 42.811 -42.955 42.71 -43 42.6 -43 Z" fill="#eeeeee"/>
<path d="M 6.2 -42 C 6.089 -42 6 -41.911 6 -41.8 L 6 -41 L 6 -7 L 6 -6.2 C 6 -6.09 6.089 -6 6.2 -6 L 41.8 -6 C 41.91 -6 42 -6.09 42 -6.2 L 42 -7 L 42 -41 L 42 -41.8 C 42 -41.911 41.91 -42 41.8 -42 Z" fill="#cccccc"/>
<path d="M 43 -5.707 L 43 -5.4 C 43 -5.179 42.821 -5 42.6 -5 L 42.293 -5 L 45.244 -2.049 C 45.595 -2.14 45.86 -2.405 45.951 -2.756 L 43 -5.707 Z" fill="#555555"/>
<path d="M 45.244 -45.951 L 41.293 -42 L 41.8 -42 C 41.91 -42 42 -41.911 42 -41.8 L 42 -41.293 L 45.951 -45.244 C 45.905 -45.42 45.831 -45.583 45.707 -45.707 C 45.583 -45.832 45.42 -45.906 45.244 -45.951 Z M 42 -6.707 L 42 -6.2 C 42 -6.09 41.91 -6 41.8 -6 L 41.293 -6 L 42.293 -5 L 42.6 -5 C 42.821 -5 43 -5.179 43 -5.4 L 43 -5.707 L 42 -6.707 Z" fill="#777777"/>
<path d="M 2.756 -45.951 C 2.405 -45.86 2.14 -45.595 2.049 -45.244 L 6 -41.293 L 6 -41.8 C 6 -41.911 6.089 -42 6.2 -42 L 6.707 -42 L 2.756 -45.951 Z M 6 -6.707 L 2.049 -2.756 C 2.094 -2.58 2.168 -2.417 2.293 -2.293 C 2.417 -2.169 2.581 -2.095 2.756 -2.049 L 6.708 -6 L 6.2 -6 C 6.089 -6 6 -6.09 6 -6.2 L 6 -6.707 Z" fill="#eeeeee"/>
</g>
<g id="shape2">
<path d="M 41 -89 L 41 -7 L 7 -7 L 7 -89 Z M 3 -95 C 1.896 -95 1 -94.104 1 -93 L 1 -89 L 1 -7 L 1 -3 C 1 -1.896 1.896 -1 3 -1 L 45 -1 C 46.104 -1 47 -1.896 47 -3 L 47 -7 L 47 -89 L 47 -93 C 47 -94.104 46.104 -95 45 -95 Z" fill="#000000"/>
<path d="M 45.707 -93.707 L 41 -89 L 41 -7 L 7 -7 L 2.293 -2.293 C 2.474 -2.112 2.724 -2 3 -2 L 45 -2 C 45.553 -2 46 -2.447 46 -3 L 46 -7 L 46 -89 L 46 -93 C 46 -93.276 45.888 -93.526 45.707 -93.707 Z" fill="#555555"/>
<path d="M 44.766 -92.765 L 41 -89 L 41 -7 L 7 -7 L 3.234 -3.234 C 3.379 -3.09 3.579 -3 3.8 -3 L 44.2 -3 C 44.642 -3 45 -3.358 45 -3.8 L 45 -7 L 45 -89 L 45 -92.2 C 45 -92.421 44.91 -92.621 44.766 -92.765 Z" fill="#777777"/>
<path d="M 43.824 -91.824 L 41 -89 L 41 -7 L 7 -7 L 4.176 -4.176 C 4.284 -4.067 4.435 -4 4.6 -4 L 43.4 -4 C 43.731 -4 44 -4.269 44 -4.6 L 44 -7 L 44 -89 L 44 -91.4 C 44 -91.566 43.933 -91.716 43.824 -91.824 Z" fill="#888888"/>
<path d="M 41 -89 L 41 -7 L 7 -7 L 7 -89 Z M 3 -94 C 2.448 -94 2 -93.552 2 -93 L 2 -89 L 2 -7 L 2 -3 C 2 -2.724 2.112 -2.474 2.293 -2.293 L 5.117 -5.117 C 5.189 -5.045 5.29 -5 5.4 -5 L 42.6 -5 C 42.821 -5 43 -5.179 43 -5.4 L 43 -7 L 43 -89 L 43 -90.6 C 43 -90.71 42.955 -90.81 42.883 -90.883 L 45.707 -93.707 C 45.526 -93.888 45.276 -94 45 -94 Z" fill="#aaaaaa"/>
<path d="M 3.8 -93 C 3.358 -93 3 -92.642 3 -92.2 L 3 -89 L 3 -7 L 3 -3.8 C 3 -3.579 3.09 -3.379 3.234 -3.235 L 7 -7 L 7 -7 L 7 -89 L 41 -89 L 41 -89 L 44.766 -92.766 C 44.621 -92.91 44.421 -93 44.2 -93 Z" fill="#bbbbbb"/>
<path d="M 4.6 -92 C 4.269 -92 4 -91.731 4 -91.4 L 4 -89 L 4 -7 L 4 -4.6 C 4 -4.434 4.067 -4.285 4.176 -4.176 L 7 -7 L 7 -7 L 7 -89 L 41 -89 L 41 -89 L 43.824 -91.824 C 43.716 -91.933 43.566 -92 43.4 -92 Z" fill="#dddddd"/>
<path d="M 5.4 -91 C 5.179 -91 5 -90.821 5 -90.6 L 5 -89 L 5 -7 L 5 -5.4 C 5 -5.29 5.045 -5.189 5.117 -5.117 L 7 -7 L 7 -7 L 7 -89 L 41 -89 L 41 -89 L 42.883 -90.883 C 42.811 -90.955 42.71 -91 42.6 -91 Z" fill="#eeeeee"/>
<path d="M 6.2 -90 C 6.089 -90 6 -89.911 6 -89.8 L 6 -89 L 6 -7 L 6 -6.2 C 6 -6.09 6.089 -6 6.2 -6 L 41.8 -6 C 41.91 -6 42 -6.09 42 -6.2 L 42 -7 L 42 -89 L 42 -89.8 C 42 -89.911 41.91 -90 41.8 -90 Z" fill="#cccccc"/>
<path d="M 43 -5.707 L 43 -5.4 C 43 -5.179 42.821 -5 42.6 -5 L 42.293 -5 L 45.244 -2.049 C 45.595 -2.14 45.86 -2.405 45.951 -2.756 L 43 -5.707 Z" fill="#555555"/>
<path d="M 45.244 -93.951 L 41.293 -90 L 41.8 -90 C 41.91 -90 42 -89.911 42 -89.8 L 42 -89.293 L 45.951 -93.244 C 45.905 -93.42 45.831 -93.583 45.707 -93.707 C 45.583 -93.832 45.42 -93.906 45.244 -93.951 Z M 42 -6.707 L 42 -6.2 C 42 -6.09 41.91 -6 41.8 -6 L 41.293 -6 L 42.293 -5 L 42.6 -5 C 42.821 -5 43 -5.179 43 -5.4 L 43 -5.707 L 42 -6.707 Z" fill="#777777"/>
<path d="M 2.756 -93.951 C 2.405 -93.86 2.14 -93.595 2.049 -93.244 L 6 -89.293 L 6 -89.8 C 6 -89.911 6.089 -90 6.2 -90 L 6.707 -90 L 2.756 -93.951 Z M 6 -6.707 L 2.049 -2.756 C 2.094 -2.58 2.168 -2.417 2.293 -2.293 C 2.417 -2.169 2.581 -2.095 2.756 -2.049 L 6.708 -6 L 6.2 -6 C 6.089 -6 6 -6.09 6 -6.2 L 6 -6.707 Z" fill="#eeeeee"/>
</g>
</defs>
<g class="keyboard">
<g class="key">
<use xlink:href="#shape0" transform="translate(0 0)"/>
<text x="48" y="-25.7" text-anchor="middle" font-family="Arial" font-size="17" fill="#000000">0</text>
<text x="48" y="-10.4" text-anchor="middle" font-family="Arial" font-size="11.333" fill="#000000">ins</text>
</g>
<g class="key">
<use xlink:href="#shape1" transform="translate(96 0)"/>
<text x="120" y="-25.7" text-anchor="middle" font-family="Arial" font-size="17" fill="#000000">.</text>
<text x="120" y="-10.4" text-anchor="middle" font-family="Arial" font-size="11.333" fill="#000000">del</text>
</g>
<g class="key">
<use xlink:href="#shape2" transform="translate(144 0)"/>
<text x="168" y="-44.6" text-anchor="middle" font-family="Arial" font-size="11.333" fill="#000000">enter</text>
</g>
<g class="key">
<use xlink:href="#shape1" transform="translate(0 -48)"/>
<text x="24" y="-73.7" text-anchor="middle" font-family="Arial" font-size="17" fill="#000000">1</text>
<text x="24" y="-58.4" text-anchor="middle" font-family="Arial" font-size="11.333" fill="#000000">end</text>
</g>
<g class="key">
<use xlink:href="#shape1" transform="translate(48 -48)"/>
<text x="72" y="-73.7" text-anchor="middle" font-family="Arial" font-size="17" fill="#000000">2</text>
<text x="72" y="-58.4" text-anchor="middle" font-family="Arial" font-size="11.333" fill="#000000">&#8595;</text>
</g>
<g class="key">
<use xlink:href="#shape1" transform="translate(96 -48)"/>
<text x="120" y="-73.7" text-anchor="middle" font-family="Arial" font-size="17" fill="#000000">3</text>
<text x="120" y="-58.4" text-anchor="middle" font-family="Arial" font-size="11.333" fill="#000000">pgdn</text>
</g>
<g class="key">
<use xlink:href="#shape1" transform="translate(0 -96)"/>
<text x="24" y="-121.7" text-anchor="middle" font-family="Arial" font-size="17" fill="#000000">4</text>
<text x="24" y="-106.4" text-anchor="middle" font-family="Arial" font-size="11.333" fill="#000000">&#8592;</text>
</g>
<g class="key">
<use xlink:href="#shape1" transform="translate(48 -96)"/>
<text x="72" y="-121.7" text-anchor="middle" font-family="Arial" font-size="17" fill="#000000">5</text>
</g>
<g class="key">
<use xlink:href="#shape1" transform="translate(96 -96)"/>
<text x="120" y="-121.7" text-anchor="middle" font-family="Arial" font-size="17" fill="#000000">6</text>
<text x="120" y="-106.4" text-anchor="middle" font-family="Arial" font-size="11.333" fill="#000000">&#8594;</text>
</g>
<g class="key">
<use xlink:href="#shape2" transform="translate(144 -96)"/>
<text x="168" y="-138.9" text-anchor="middle" font-family="Arial" font-size="17" fill="#000000">+</text>
</g>
<g class="key">
<use xlink:href="#shape1" transform="translate(0 -144)"/>
<text x="24" y="-169.7" text-anchor="middle" font-family="Arial" font-size="17" fill="#000000">7</text>
<text x="24" y="-154.4" text-anchor="middle" font-family="Arial" font-size="11.333" fill="#000000">home</text>
</g>
<g class="key">
<use xlink:href="#shape1" transform="translate(48 -144)"/>
<text x="72" y="-169.7" text-anchor="middle" font-family="Arial" font-size="17" fill="#000000">8</text>
<text x="72" y="-154.4" text-anchor="middle" font-family="Arial" font-size="11.333" fill="#000000">&#8593;</text>
</g>
<g class="key">
<use xlink:href="#shape1" transform="translate(96 -144)"/>
<text x="120" y="-169.7" text-anchor="middle" font-family="Arial" font-size="17" fill="#000000">9</text>
<text x="120" y="-154.4" text-anchor="middle" font-family="Arial" font-size="11.333" fill="#000000">pgup</text>
</g>
<g class="key">
<use xlink:href="#shape1" transform="translate(0 -192)"/>
<text x="24" y="-212.6" text-anchor="middle" font-family="Arial" font-size="11.333" fill="#000000">numlk</text>
</g>
<g class="key">
<use xlink:href="#shape1" transform="translate(48 -192)"/>
<text x="72" y="-210.9" text-anchor="middle" font-family="Arial" font-size="17" fill="#000000">/</text>
</g>
<g class="key">
<use xlink:href="#shape1" transform="translate(96 -192)"/>
<text x="120" y="-210.9" text-anchor="middle" font-family="Arial" font-size="17" fill="#000000">*</text>
</g>
<g class="key">
<use xlink:href="#shape1" transform="translate(144 -192)"/>
<text x="168" y="-210.9" text-anchor="middle" font-family="Arial" font-size="17" fill="#000000">&#8722;</text>
</g>
</g>
</svg>
