<?xml version="1.0"?>
<svg xmlns="http://www.w3.org/2000/svg" xmlns:xlink="http://www.w3.org/1999/xlink" version="1.1" width="783" height="270" viewBox="0 -270 783 270">
<defs>
<g id="shape0">
<path d="M 6 -54 C 2.686 -54 0 -51.314 0 -48 L 0 -6 C 0 -2.686 2.686 0 6 0 L 48 0 C 51.314 0 54 -2.686 54 -6 L 54 -48 C 54 -51.314 51.314 -54 48 -54 Z" fill="#000000"/>
<path d="M 6 -53 C 3.239 -53 1 -50.761 1 -48 L 1 -6 C 1 -3.239 3.239 -1 6 -1 L 48 -1 C 50.761 -1 53 -3.239 53 -6 L 53 -48 C 53 -50.761 50.761 -53 48 -53 Z" fill="#dadada"/>
<path d="M 6 -52 C 3.791 -52 2 -50.209 2 -48 L 2 -6 C 2 -3.791 3.791 -2 6 -2 L 48 -2 C 50.209 -2 52 -3.791 52 -6 L 52 -48 C 52 -50.209 50.209 -52 48 -52 Z" fill="#f2f2f2"/>
<path d="M 12 -51 C 10.343 -51 9 -49.657 9 -48 L 9 -18 C 9 -16.343 10.343 -15 12 -15 L 42 -15 C 43.657 -15 45 -16.343 45 -18 L 45 -48 C 45 -49.657 43.657 -51 42 -51 Z" fill="#dadada"/>
<path d="M 12 -50 C 10.895 -50 10 -49.105 10 -48 L 10 -18 C 10 -16.895 10.895 -16 12 -16 L 42 -16 C 43.105 -16 44 -16.895 44 -18 L 44 -48 C 44 -49.105 43.105 -50 42 -50 Z" fill="#ffffff"/>
</g>
<g id="shape1">
<path d="M 6 -54 C 2.686 -54 0 -51.314 0 -48 L 0 -6 C 0 -2.686 2.686 0 6 0 L 88.5 0 C 91.814 0 94.5 -2.686 94.5 -6 L 94.5 -48 C 94.5 -51.314 91.814 -54 88.5 -54 Z" fill="#000000"/>
<path d="M 6 -53 C 3.239 -53 1 -50.761 1 -48 L 1 -6 C 1 -3.239 3.239 -1 6 -1 L 88.5 -1 C 91.261 -1 93.5 -3.239 93.5 -6 L 93.5 -48 C 93.5 -50.761 91.261 -53 88.5 -53 Z" fill="#dadada"/>
<path d="M 6 -52 C 3.791 -52 2 -50.209 2 -48 L 2 -6 C 2 -3.791 3.791 -2 6 -2 L 88.5 -2 C 90.709 -2 92.5 -3.791 92.5 -6 L 92.5 -48 C 92.5 -50.209 90.709 -52 88.5 -52 Z" fill="#f2f2f2"/>
<path d="M 12 -51 C 10.343 -51 9 -49.657 9 -48 L 9 -18 C 9 -16.343 10.343 -15 12 -15 L 82.5 -15 C 84.157 -15 85.5 -16.343 85.5 -18 L 85.5 -48 C 85.5 -49.657 84.157 -51 82.5 -51 Z" fill="#dadada"/>
<path d="M 12 -50 C 10.895 -50 10 -49.105 10 -48 L 10 -18 C 10 -16.895 10.895 -16 12 -16 L 82.5 -16 C 83.605 -16 84.5 -16.895 84.5 -18 L 84.5 -48 C 84.5 -49.105 83.605 -50 82.5 -50 Z" fill="#ffffff"/>
</g>
<g id="shape2">
<path d="M 6 -54 C 2.686 -54 0 -51.314 0 -48 L 0 -6 C 0 -2.686 2.686 0 6 0 L 250.5 0 C 253.814 0 256.5 -2.686 256.5 -6 L 256.5 -48 C 256.5 -51.314 253.814 -54 250.5 -54 Z" fill="#000000"/>
<path d="M 6 -53 C 3.239 -53 1 -50.761 1 -48 L 1 -6 C 1 -3.239 3.239 -1 6 -1 L 250.5 -1 C 253.261 -1 255.5 -3.239 255.5 -6 L 255.5 -48 C 255.5 -50.761 253.261 -53 250.5 -53 Z" fill="#dadada"/>
<path d="M 6 -52 C 3.791 -52 2 -50.209 2 -48 L 2 -6 C 2 -3.791 3.791 -2 6 -2 L 250.5 -2 C 252.709 -2 254.5 -3.791 254.5 -6 L 254.5 -48 C 254.5 -50.209 252.709 -52 250.5 -52 Z" fill="#f2f2f2"/>
<path d="M 12 -51 C 10.343 -51 9 -49.657 9 -48 L 9 -18 C 9 -16.343 10.343 -15 12 -15 L 244.5 -15 C 246.157 -15 247.5 -16.343 247.5 -18 L 247.5 -48 C 247.5 -49.657 246.157 -51 244.5 -51 Z" fill="#dadada"/>
<path d="M 12 -50 C 10.895 -50 10 -49.105 10 -48 L 10 -18 C 10 -16.895 10.895 -16 12 -16 L 244.5 -16 C 245.605 -16 246.5 -16.895 246.5 -18 L 246.5 -48 C 246.5 -49.105 245.605 -50 244.5 -50 Z" fill="#ffffff"/>
</g>
<g id="shape3">
<path d="M 6 -54 C 2.686 -54 0 -51.314 0 -48 L 0 -6 C 0 -2.686 2.686 0 6 0 L 115.5 0 C 118.814 0 121.5 -2.686 121.5 -6 L 121.5 -48 C 121.5 -51.314 118.814 -54 115.5 -54 Z" fill="#000000"/>
<path d="M 6 -53 C 3.239 -53 1 -50.761 1 -48 L 1 -6 C 1 -3.239 3.239 -1 6 -1 L 115.5 -1 C 118.261 -1 120.5 -3.239 120.5 -6 L 120.5 -48 C 120.5 -50.761 118.261 -53 115.5 -53 Z" fill="#dadada"/>
<path d="M 6 -52 C 3.791 -52 2 -50.209 2 -48 L 2 -6 C 2 -3.791 3.791 -2 6 -2 L 115.5 -2 C 117.709 -2 119.5 -3.791 119.5 -6 L 119.5 -48 C 119.5 -50.209 117.709 -52 115.5 -52 Z" fill="#f2f2f2"/>
<path d="M 12 -51 C 10.343 -51 9 -49.657 9 -48 L 9 -18 C 9 -16.343 10.343 -15 12 -15 L 109.5 -15 C 111.157 -15 112.5 -16.343 112.5 -18 L 112.5 -48 C 112.5 -49.657 111.157 -51 109.5 -51 Z" fill="#dadada"/>
<path d="M 12 -50 C 10.895 -50 10 -49.105 10 -48 L 10 -18 C 10 -16.895 10.895 -16 12 -16 L 109.5 -16 C 110.605 -16 111.5 -16.895 111.5 -18 L 111.5 -48 C 111.5 -49.105 110.605 -50 109.5 -50 Z" fill="#ffffff"/>
</g>
<g id="shape4">
<path d="M 6 -54 C 2.686 -54 0 -51.314 0 -48 L 0 -6 C 0 -2.686 2.686 0 6 0 L 75 0 C 78.314 0 81 -2.686 81 -6 L 81 -48 C 81 -51.314 78.314 -54 75 -54 Z" fill="#000000"/>
<path d="M 6 -53 C 3.239 -53 1 -50.761 1 -48 L 1 -6 C 1 -3.239 3.239 -1 6 -1 L 75 -1 C 77.761 -1 80 -3.239 80 -6 L 80 -48 C 80 -50.761 77.761 -53 75 -53 Z" fill="#dadada"/>
<path d="M 6 -52 C 3.791 -52 2 -50.209 2 -48 L 2 -6 C 2 -3.791 3.791 -2 6 -2 L 75 -2 C 77.209 -2 79 -3.791 79 -6 L 79 -48 C 79 -50.209 77.209 -52 75 -52 Z" fill="#f2f2f2"/>
<path d="M 12 -51 C 10.343 -51 9 -49.657 9 -48 L 9 -18 C 9 -16.343 10.343 -15 12 -15 L 69 -15 C 70.657 -15 72 -16.343 72 -18 L 72 -48 C 72 -49.657 70.657 -51 69 -51 Z" fill="#dadada"/>
<path d="M 12 -50 C 10.895 -50 10 -49.105 10 -48 L 10 -18 C 10 -16.895 10.895 -16 12 -16 L 69 -16 C 70.105 -16 71 -16.895 71 -18 L 71 -48 C 71 -49.105 70.105 -50 69 -50 Z" fill="#ffffff"/>
</g>
</defs>
<g class="keyboard">
<g class="key">
<use xlink:href="#shape0" transform="translate(0 0)"/>
<text x="27" y="-30" text-anchor="middle" font-family="Arial" font-size="10" textLength="30" lengthAdjust="spacingAndGlyphs" fill="#000000">control</text>
</g>
<g class="key">
<use xlink:href="#shape0" transform="translate(54 0)"/>
<text x="81" y="-30" text-anchor="middle" font-family="Arial" font-size="10" fill="#000000">option</text>
</g>
<g class="key">
<use xlink:href="#shape1" transform="translate(108 0)"/>
<text x="155.25" y="-30" text-anchor="middle" font-family="Arial" font-size="10" fill="#000000">&#8984;</text>
</g>
<g class="key">
<use xlink:href="#shape0" transform="translate(202.5 0)"/>
<text x="229.5" y="-30" text-anchor="middle" font-family="Arial" font-size="10" fill="#000000">esc</text>
</g>
<g class="key">
<use xlink:href="#shape2" transform="translate(256.5 0)"/>
</g>
<g class="key">
<use xlink:href="#shape0" transform="translate(513 0)"/>
<text x="540" y="-30" text-anchor="middle" font-family="Arial" font-size="10" fill="#000000">enter</text>
</g>
<g class="key">
<use xlink:href="#shape0" transform="translate(567 0)"/>
<text x="594" y="-30" text-anchor="middle" font-family="Arial" font-size="10" fill="#000000">&#8592;</text>
</g>
<g class="key">
<use xlink:href="#shape0" transform="translate(621 0)"/>
<text x="648" y="-30" text-anchor="middle" font-family="Arial" font-size="10" fill="#000000">&#8594;</text>
</g>
<g class="key">
<use xlink:href="#shape0" transform="translate(675 0)"/>
<text x="702" y="-30" text-anchor="middle" font-family="Arial" font-size="10" fill="#000000">&#8595;</text>
</g>
<g class="key">
<use xlink:href="#shape0" transform="translate(729 0)"/>
<text x="756" y="-30" text-anchor="middle" font-family="Arial" font-size="10" fill="#000000">&#8593;</text>
</g>
<g class="key">
<use xlink:href="#shape3" transform="translate(0 -54)"/>
<text x="60.75" y="-84" text-anchor="middle" font-family="Arial" font-size="10" fill="#000000">shift</text>
</g>
<g class="key">
<use xlink:href="#shape0" transform="translate(121.5 -54)"/>
<text x="148.5" y="-82.5" text-anchor="middle" font-family="Arial" font-size="15" fill="#000000">Z</text>
</g>
<g class="key">
<use xlink:href="#shape0" transform="translate(175.5 -54)"/>
<text x="202.5" y="-82.5" text-anchor="middle" font-family="Arial" font-size="15" fill="#000000">X</text>
</g>
<g class="key">
<use xlink:href="#shape0" transform="translate(229.5 -54)"/>
<text x="256.5" y="-82.5" text-anchor="middle" font-family="Arial" font-size="15" fill="#000000">C</text>
</g>
<g class="key">
<use xlink:href="#shape0" transform="translate(283.5 -54)"/>
<text x="310.5" y="-82.5" text-anchor="middle" font-family="Arial" font-size="15" fill="#000000">V</text>
</g>
<g class="key">
<use xlink:href="#shape0" transform="translate(337.5 -54)"/>
<text x="364.5" y="-82.5" text-anchor="middle" font-family="Arial" font-size="15" fill="#000000">B</text>
</g>
<g class="key">
<use xlink:href="#shape0" transform="translate(391.5 -54)"/>
<text x="418.5" y="-82.5" text-anchor="middle" font-family="Arial" font-size="15" fill="#000000">N</text>
</g>
<g class="key">
<use xlink:href="#shape0" transform="translate(445.5 -54)"/>
<text x="472.5" y="-82.5" text-anchor="middle" font-family="Arial" font-size="15" fill="#000000">M</text>
</g>
<g class="key">
<use xlink:href="#shape0" transform="translate(499.5 -54)"/>
<text x="526.5" y="-75.9" text-anchor="middle" font-family="Arial" font-size="12" fill="#000000">,</text>
<text x="526.5" y="-90.9" text-anchor="middle" font-family="Arial" font-size="12" fill="#000000">&lt;</text>
</g>
<g class="key">
<use xlink:href="#shape0" transform="translate(553.5 -54)"/>
<text x="580.5" y="-75.9" text-anchor="middle" font-family="Arial" font-size="12" fill="#000000">.</text>
<text x="580.5" y="-90.9" text-anchor="middle" font-family="Arial" font-size="12" fill="#000000">&gt;</text>
</g>
<g class="key">
<use xlink:href="#shape0" transform="translate(607.5 -54)"/>
<text x="634.5" y="-75.9" text-anchor="middle" font-family="Arial" font-size="12" fill="#000000">/</text>
<text x="634.5" y="-90.9" text-anchor="middle" font-family="Arial" font-size="12" fill="#000000">?</text>
</g>
<g class="key">
<use xlink:href="#shape3" transform="translate(661.5 -54)"/>
<text x="722.25" y="-84" text-anchor="middle" font-family="Arial" font-size="10" fill="#000000">shift</text>
</g>
<g class="key">
<use xlink:href="#shape1" transform="translate(0 -108)"/>
<text x="47.25" y="-138" text-anchor="middle" font-family="Arial" font-size="10" fill="#000000">caps lock</text>
</g>
<g class="key">
<use xlink:href="#shape0" transform="translate(94.5 -108)"/>
<text x="121.5" y="-136.5" text-anchor="middle" font-family="Arial" font-size="15" fill="#000000">A</text>
</g>
<g class="key">
<use xlink:href="#shape0" transform="translate(148.5 -108)"/>
<text x="175.5" y="-136.5" text-anchor="middle" font-family="Arial" font-size="15" fill="#000000">S</text>
</g>
<g class="key">
<use xlink:href="#shape0" transform="translate(202.5 -108)"/>
<text x="229.5" y="-136.5" text-anchor="middle" font-family="Arial" font-size="15" fill="#000000">D</text>
</g>
<g class="key">
<use xlink:href="#shape0" transform="translate(256.5 -108)"/>
<text x="283.5" y="-136.5" text-anchor="middle" font-family="Arial" font-size="15" fill="#000000">F</text>
</g>
<g class="key">
<use xlink:href="#shape0" transform="translate(310.5 -108)"/>
<text x="337.5" y="-136.5" text-anchor="middle" font-family="Arial" font-size="15" fill="#000000">G</text>
</g>
<g class="key">
<use xlink:href="#shape0" transform="translate(364.5 -108)"/>
<text x="391.5" y="-136.5" text-anchor="middle" font-family="Arial" font-size="15" fill="#000000">H</text>
</g>
<g class="key">
<use xlink:href="#shape0" transform="translate(418.5 -108)"/>
<text x="445.5" y="-136.5" text-anchor="middle" font-family="Arial" font-size="15" fill="#000000">J</text>
</g>
<g class="key">
<use xlink:href="#shape0" transform="translate(472.5 -108)"/>
<text x="499.5" y="-136.5" text-anchor="middle" font-family="Arial" font-size="15" fill="#000000">K</text>
</g>
<g class="key">
<use xlink:href="#shape0" transform="translate(526.5 -108)"/>
<text x="553.5" y="-136.5" text-anchor="middle" font-family="Arial" font-size="15" fill="#000000">L</text>
</g>
<g class="key">
<use xlink:href="#shape0" transform="translate(580.5 -108)"/>
<text x="607.5" y="-129.9" text-anchor="middle" font-family="Arial" font-size="12" fill="#000000">;</text>
<text x="607.5" y="-144.9" text-anchor="middle" font-family="Arial" font-size="12" fill="#000000">:</text>
</g>
<g class="key">
<use xlink:href="#shape0" transform="translate(634.5 -108)"/>
<text x="661.5" y="-129.9" text-anchor="middle" font-family="Arial" font-size="12" fill="#000000">&#39;</text>
<text x="661.5" y="-144.9" text-anchor="middle" font-family="Arial" font-size="12" fill="#000000">&#34;</text>
</g>
<g class="key">
<use xlink:href="#shape1" transform="translate(688.5 -108)"/>
<text x="735.75" y="-138" text-anchor="middle" font-family="Arial" font-size="10" fill="#000000">return</text>
</g>
<g class="key">
<use xlink:href="#shape4" transform="translate(0 -162)"/>
<text x="40.5" y="-192" text-anchor="middle" font-family="Arial" font-size="10" fill="#000000">tab</text>
</g>
<g class="key">
<use xlink:href="#shape0" transform="translate(81 -162)"/>
<text x="108" y="-190.5" text-anchor="middle" font-family="Arial" font-size="15" fill="#000000">Q</text>
</g>
<g class="key">
<use xlink:href="#shape0" transform="translate(135 -162)"/>
<text x="162" y="-190.5" text-anchor="middle" font-family="Arial" font-size="15" fill="#000000">W</text>
</g>
<g class="key">
<use xlink:href="#shape0" transform="translate(189 -162)"/>
<text x="216" y="-190.5" text-anchor="middle" font-family="Arial" font-size="15" fill="#000000">E</text>
</g>
<g class="key">
<use xlink:href="#shape0" transform="translate(243 -162)"/>
<text x="270" y="-190.5" text-anchor="middle" font-family="Arial" font-size="15" fill="#000000">R</text>
</g>
<g class="key">
<use xlink:href="#shape0" transform="translate(297 -162)"/>
<text x="324" y="-190.5" text-anchor="middle" font-family="Arial" font-size="15" fill="#000000">T</text>
</g>
<g class="key">
<use xlink:href="#shape0" transform="translate(351 -162)"/>
<text x="378" y="-190.5" text-anchor="middle" font-family="Arial" font-size="15" fill="#000000">Y</text>
</g>
<g class="key">
<use xlink:href="#shape0" transform="translate(405 -162)"/>
<text x="432" y="-190.5" text-anchor="middle" font-family="Arial" font-size="15" fill="#000000">U</text>
</g>
<g class="key">
<use xlink:href="#shape0" transform="translate(459 -162)"/>
<text x="486" y="-190.5" text-anchor="middle" font-family="Arial" font-size="15" fill="#000000">I</text>
</g>
<g class="key">
<use xlink:href="#shape0" transform="translate(513 -162)"/>
<text x="540" y="-190.5" text-anchor="middle" font-family="Arial" font-size="15" fill="#000000">O</text>
</g>
<g class="key">
<use xlink:href="#shape0" transform="translate(567 -162)"/>
<text x="594" y="-190.5" text-anchor="middle" font-family="Arial" font-size="15" fill="#000000">P</text>
</g>
<g class="key">
<use xlink:href="#shape0" transform="translate(621 -162)"/>
<text x="648" y="-183.9" text-anchor="middle" font-family="Arial" font-size="12" fill="#000000">[</text>
<text x="648" y="-198.9" text-anchor="middle" font-family="Arial" font-size="12" fill="#000000">{</text>
</g>
<g class="key">
<use xlink:href="#shape0" transform="translate(675 -162)"/>
<text x="702" y="-183.9" text-anchor="middle" font-family="Arial" font-size="12" fill="#000000">]</text>
<text x="702" y="-198.9" text-anchor="middle" font-family="Arial" font-size="12" fill="#000000">}</text>
</g>
<g class="key">
<use xlink:href="#shape0" transform="translate(729 -162)"/>
<text x="756" y="-183.9" text-anchor="middle" font-family="Arial" font-size="12" fill="#000000">\</text>
<text x="756" y="-198.9" text-anchor="middle" font-family="Arial" font-size="12" fill="#000000">|</text>
</g>
<g class="key">
<use xlink:href="#shape0" transform="translate(0 -216)"/>
<text x="27" y="-237.9" text-anchor="middle" font-family="Arial" font-size="12" fill="#000000">`</text>
<text x="27" y="-252.9" text-anchor="middle" font-family="Arial" font-size="12" fill="#000000">~</text>
</g>
<g class="key">
<use xlink:href="#shape0" transform="translate(54 -216)"/>
<text x="81" y="-237.9" text-anchor="middle" font-family="Arial" font-size="12" fill="#000000">1</text>
<text x="81" y="-252.9" text-anchor="middle" font-family="Arial" font-size="12" fill="#000000">!</text>
</g>
<g class="key">
<use xlink:href="#shape0" transform="translate(108 -216)"/>
<text x="135" y="-237.9" text-anchor="middle" font-family="Arial" font-size="12" fill="#000000">2</text>
<text x="135" y="-252.9" text-anchor="middle" font-family="Arial" font-size="12" fill="#000000">@</text>
</g>
<g class="key">
<use xlink:href="#shape0" transform="translate(162 -216)"/>
<text x="189" y="-237.9" text-anchor="middle" font-family="Arial" font-size="12" fill="#000000">3</text>
<text x="189" y="-252.9" text-anchor="middle" font-family="Arial" font-size="12" fill="#000000">#</text>
</g>
<g class="key">
<use xlink:href="#shape0" transform="translate(216 -216)"/>
<text x="243" y="-237.9" text-anchor="middle" font-family="Arial" font-size="12" fill="#000000">4</text>
<text x="243" y="-252.9" text-anchor="middle" font-family="Arial" font-size="12" fill="#000000">$</text>
</g>
<g class="key">
<use xlink:href="#shape0" transform="translate(270 -216)"/>
<text x="297" y="-237.9" text-anchor="middle" font-family="Arial" font-size="12" fill="#000000">5</text>
<text x="297" y="-252.9" text-anchor="middle" font-family="Arial" font-size="12" fill="#000000">%</text>
</g>
<g class="key">
<use xlink:href="#shape0" transform="translate(324 -216)"/>
<text x="351" y="-237.9" text-anchor="middle" font-family="Arial" font-size="12" fill="#000000">6</text>
<text x="351" y="-252.9" text-anchor="middle" font-family="Arial" font-size="12" fill="#000000">^</text>
</g>
<g class="key">
<use xlink:href="#shape0" transform="translate(378 -216)"/>
<text x="405" y="-237.9" text-anchor="middle" font-family="Arial" font-size="12" fill="#000000">7</text>
<text x="405" y="-252.9" text-anchor="middle" font-family="Arial" font-size="12" fill="#000000">&amp;</text>
</g>
<g class="key">
<use xlink:href="#shape0" transform="translate(432 -216)"/>
<text x="459" y="-237.9" text-anchor="middle" font-family="Arial" font-size="12" fill="#000000">8</text>
<text x="459" y="-252.9" text-anchor="middle" font-family="Arial" font-size="12" fill="#000000">*</text>
</g>
<g class="key">
<use xlink:href="#shape0" transform="translate(486 -216)"/>
<text x="513" y="-237.9" text-anchor="middle" font-family="Arial" font-size="12" fill="#000000">9</text>
<text x="513" y="-252.9" text-anchor="middle" font-family="Arial" font-size="12" fill="#000000">(</text>
</g>
<g class="key">
<use xlink:href="#shape0" transform="translate(540 -216)"/>
<text x="567" y="-237.9" text-anchor="middle" font-family="Arial" font-size="12" fill="#000000">0</text>
<text x="567" y="-252.9" text-anchor="middle" font-family="Arial" font-size="12" fill="#000000">)</text>
</g>
<g class="key">
<use xlink:href="#shape0" transform="translate(594 -216)"/>
<text x="621" y="-237.9" text-anchor="middle" font-family="Arial" font-size="12" fill="#000000">&#8722;</text>
<text x="621" y="-252.9" text-anchor="middle" font-family="Arial" font-size="12" fill="#000000">_</text>
</g>
<g class="key">
<use xlink:href="#shape0" transform="translate(648 -216)"/>
<text x="675" y="-237.9" text-anchor="middle" font-family="Arial" font-size="12" fill="#000000">=</text>
<text x="675" y="-252.9" text-anchor="middle" font-family="Arial" font-size="12" fill="#000000">+</text>
</g>
<g class="key">
<use xlink:href="#shape4" transform="translate(702 -216)"/>
<text x="742.5" y="-246" text-anchor="middle" font-family="Arial" font-size="10" fill="#000000">delete</text>
</g>
</g>
</svg>
