<?xml version="1.0"?>
<svg xmlns="http://www.w3.org/2000/svg" xmlns:xlink="http://www.w3.org/1999/xlink" version="1.1" width="192" height="240" viewBox="0 -240 192 240">
<defs>
<g id="shape0">
<path fill="#000000" d="M 89 -41 L 89 -7 L 7 -7 L 7 -41 Z M 3 -47 C 1.896 -47 1 -46.104 1 -45 L 1 -41 L 1 -7 L 1 -3 C 1 -1.896 1.896 -1 3 -1 L 93 -1 C 94.104 -1 95 -1.896 95 -3 L 95 -7 L 95 -41 L 95 -45 C 95 -46.104 94.104 -47 93 -47 Z"/>
<path fill="#555555" d="M 93.707 -45.707 L 89 -41 L 89 -7 L 7 -7 L 2.293 -2.293 C 2.474 -2.112 2.724 -2 3 -2 L 93 -2 C 93.553 -2 94 -2.447 94 -3 L 94 -7 L 94 -41 L 94 -45 C 94 -45.276 93.888 -45.526 93.707 -45.707 Z"/>
<path fill="#777777" d="M 92.766 -44.765 L 89 -41 L 89 -7 L 7 -7 L 3.234 -3.234 C 3.379 -3.09 3.579 -3 3.8 -3 L 92.2 -3 C 92.642 -3 93 -3.358 93 -3.8 L 93 -7 L 93 -41 L 93 -44.2 C 93 -44.421 92.91 -44.621 92.766 -44.765 Z"/>
<path fill="#888888" d="M 91.824 -43.824 L 89 -41 L 89 -7 L 7 -7 L 4.176 -4.176 C 4.284 -4.067 4.435 -4 4.6 -4 L 91.4 -4 C 91.731 -4 92 -4.269 92 -4.6 L 92 -7 L 92 -41 L 92 -43.4 C 92 -43.566 91.933 -43.716 91.824 -43.824 Z"/>
<path fill="#AAAAAA" d="M 89 -41 L 89 -7 L 7 -7 L 7 -41 Z M 3 -46 C 2.448 -46 2 -45.552 2 -45 L 2 -41 L 2 -7 L 2 -3 C 2 -2.724 2.112 -2.474 2.293 -2.293 L 5.117 -5.117 C 5.189 -5.045 5.29 -5 5.4 -5 L 90.6 -5 C 90.821 -5 91 -5.179 91 -5.4 L 91 -7 L 91 -41 L 91 -42.6 C 91 -42.71 90.955 -42.81 90.883 -42.883 L 93.707 -45.707 C 93.526 -45.888 93.276 -46 93 -46 Z"/>
<path fill="#BBBBBB" d="M 3.8 -45 C 3.358 -45 3 -44.642 3 -44.2 L 3 -41 L 3 -7 L 3 -3.8 C 3 -3.579 3.09 -3.379 3.234 -3.235 L 7 -7 L 7 -7 L 7 -41 L 89 -41 L 89 -41 L 92.766 -44.766 C 92.621 -44.91 92.421 -45 92.2 -45 Z"/>
<path fill="#DDDDDD" d="M 4.6 -44 C 4.269 -44 4 -43.731 4 -43.4 L 4 -41 L 4 -7 L 4 -4.6 C 4 -4.434 4.067 -4.285 4.176 -4.176 L 7 -7 L 7 -7 L 7 -41 L 89 -41 L 89 -41 L 91.824 -43.824 C 91.716 -43.933 91.566 -44 91.4 -44 Z"/>
<path fill="#EEEEEE" d="M 5.4 -43 C 5.179 -43 5 -42.821 5 -42.6 L 5 -41 L 5 -7 L 5 -5.4 C 5 -5.29 5.045 -5.189 5.117 -5.117 L 7 -7 L 7 -7 L 7 -41 L 89 -41 L 89 -41 L 90.883 -42.883 C 90.811 -42.955 90.71 -43 90.6 -43 Z"/>
<path fill="#CCCCCC" d="M 6.2 -42 C 6.089 -42 6 -41.911 6 -41.8 L 6 -41 L 6 -7 L 6 -6.2 C 6 -6.09 6.089 -6 6.2 -6 L 89.8 -6 C 89.91 -6 90 -6.09 90 -6.2 L 90 -7 L 90 -41 L 90 -41.8 C 90 -41.911 89.91 -42 89.8 -42 Z"/>
<path fill="#555555" d="M 91 -5.707 L 91 -5.4 C 91 -5.179 90.821 -5 90.6 -5 L 90.293 -5 L 93.244 -2.049 C 93.595 -2.14 93.86 -2.405 93.951 -2.756 L 91 -5.707 Z"/>
<path fill="#777777" d="M 93.244 -45.951 L 89.293 -42 L 89.8 -42 C 89.91 -42 90 -41.911 90 -41.8 L 90 -41.293 L 93.951 -45.244 C 93.905 -45.42 93.831 -45.583 93.707 -45.707 C 93.583 -45.832 93.42 -45.906 93.244 -45.951 Z M 90 -6.707 L 90 -6.2 C 90 -6.09 89.91 -6 89.8 -6 L 89.293 -6 L 90.293 -5 L 90.6 -5 C 90.821 -5 91 -5.179 91 -5.4 L 91 -5.707 L 90 -6.707 Z"/>
<path fill="#EEEEEE" d="M 2.756 -45.951 C 2.405 -45.86 2.14 -45.595 2.049 -45.244 L 6 -41.293 L 6 -41.8 C 6 -41.911 6.089 -42 6.2 -42 L 6.707 -42 L 2.756 -45.951 Z M 6 -6.707 L 2.049 -2.756 C 2.094 -2.58 2.168 -2.417 2.293 -2.293 C 2.417 -2.169 2.581 -2.095 2.756 -2.049 L 6.708 -6 L 6.2 -6 C 6.089 -6 6 -6.09 6 -6.2 L 6 -6.707 Z"/>
</g>
<g id="shape1">
<path fill="#000000" d="M 41 -41 L 41 -7 L 7 -7 L 7 -41 Z M 3 -47 C 1.896 -47 1 -46.104 1 -45 L 1 -41 L 1 -7 L 1 -3 C 1 -1.896 1.896 -1 3 -1 L 45 -1 C 46.104 -1 47 -1.896 47 -3 L 47 -7 L 47 -41 L 47 -45 C 47 -46.104 46.104 -47 45 -47 Z"/>
<path fill="#555555" d="M 45.707 -45.707 L 41 -41 L 41 -7 L 7 -7 L 2.293 -2.293 C 2.474 -2.112 2.724 -2 3 -2 L 45 -2 C 45.553 -2 46 -2.447 46 -3 L 46 -7 L 46 -41 L 46 -45 C 46 -45.276 45.888 -45.526 45.707 -45.707 Z"/>
<path fill="#777777" d="M 44.766 -44.765 L 41 -41 L 41 -7 L 7 -7 L 3.234 -3.234 C 3.379 -3.09 3.579 -3 3.8 -3 L 44.2 -3 C 44.642 -3 45 -3.358 45 -3.8 L 45 -7 L 45 -41 L 45 -44.2 C 45 -44.421 44.91 -44.621 44.766 -44.765 Z"/>
<path fill="#888888" d="M 43.824 -43.824 L 41 -41 L 41 -7 L 7 -7 L 4.176 -4.176 C 4.284 -4.067 4.435 -4 4.6 -4 L 43.4 -4 C 43.731 -4 44 -4.269 44 -4.6 L 44 -7 L 44 -41 L 44 -43.4 C 44 -43.566 43.933 -43.716 43.824 -43.824 Z"/>
<path fill="#AAAAAA" d="M 41 -41 L 41 -7 L 7 -7 L 7 -41 Z M 3 -46 C 2.448 -46 2 -45.552 2 -45 L 2 -41 L 2 -7 L 2 -3 C 2 -2.724 2.112 -2.474 2.293 -2.293 L 5.117 -5.117 C 5.189 -5.045 5.29 -5 5.4 -5 L 42.6 -5 C 42.821 -5 43 -5.179 43 -5.4 L 43 -7 L 43 -41 L 43 -42.6 C 43 -42.71 42.955 -42.81 42.883 -42.883 L 45.707 -45.707 C 45.526 -45.888 45.276 -46 45 -46 Z"/>
<path fill="#BBBBBB" d="M 3.8 -45 C 3.358 -45 3 -44.642 3 -44.2 L 3 -41 L 3 -7 L 3 -3.8 C 3 -3.579 3.09 -3.379 3.234 -3.235 L 7 -7 L 7 -7 L 7 -41 L 41 -41 L 41 -41 L 44.766 -44.766 C 44.621 -44.91 44.421 -45 44.2 -45 Z"/>
<path fill="#DDDDDD" d="M 4.6 -44 C 4.269 -44 4 -43.731 4 -43.4 L 4 -41 L 4 -7 L 4 -4.6 C 4 -4.434 4.067 -4.285 4.176 -4.176 L 7 -7 L 7 -7 L 7 -41 L 41 -41 L 41 -41 L 43.824 -43.824 C 43.716 -43.933 43.566 -44 43.4 -44 Z"/>
<path fill="#EEEEEE" d="M 5.4 -43 C 5.179 -43 5 -42.821 5 -42.6 L 5 -41 L 5 -7 L 5 -5.4 C 5 -5.29 5.045 -5.189 5.117 -5.117 L 7 -7 L 7 -7 L 7 -41 L 41 -41 L 41 -41 L 42.883 -42.883 C 42.811 -42.955 42.71 -43 42.6 -43 Z"/>
<path fill="#CCCCCC" d="M 6.2 -42 C 6.089 -42 6 -41.911 6 -41.8 L 6 -41 L 6 -7 L 6 -6.2 C 6 -6.09 6.089 -6 6.2 -6 L 41.8 -6 C 41.91 -6 42 -6.09 42 -6.2 L 42 -7 L 42 -41 L 42 -41.8 C 42 -41.911 41.91 -42 41.8 -42 Z"/>
<path fill="#555555" d="M 43 -5.707 L 43 -5.4 C 43 -5.179 42.821 -5 42.6 -5 L 42.293 -5 L 45.244 -2.049 C 45.595 -2.14 45.86 -2.405 45.951 -2.756 L 43 -5.707 Z"/>
<path fill="#777777" d="M 45.244 -45.951 L 41.293 -42 L 41.8 -42 C 41.91 -42 42 -41.911 42 -41.8 L 42 -41.293 L 45.951 -45.244 C 45.905 -45.42 45.831 -45.583 45.707 -45.707 C 45.583 -45.832 45.42 -45.906 45.244 -45.951 Z M 42 -6.707 L 42 -6.2 C 42 -6.09 41.91 -6 41.8 -6 L 41.293 -6 L 42.293 -5 L 42.6 -5 C 42.821 -5 43 -5.179 43 -5.4 L 43 -5.707 L 42 -6.707 Z"/>
<path fill="#EEEEEE" d="M 2.756 -45.951 C 2.405 -45.86 2.14 -45.595 2.049 -45.244 L 6 -41.293 L 6 -41.8 C 6 -41.911 6.089 -42 6.2 -42 L 6.707 -42 L 2.756 -45.951 Z M 6 -6.707 L 2.049 -2.756 C 2.094 -2.58 2.168 -2.417 2.293 -2.293 C 2.417 -2.169 2.581 -2.095 2.756 -2.049 L 6.708 -6 L 6.2 -6 C 6.089 -6 6 -6.09 6 -6.2 L 6 -6.707 Z"/>
</g>
<g id="shape2">
<path fill="#000000" d="M 41 -89 L 41 -7 L 7 -7 L 7 -89 Z M 3 -95 C 1.896 -95 1 -94.104 1 -93 L 1 -89 L 1 -7 L 1 -3 C 1 -1.896 1.896 -1 3 -1 L 45 -1 C 46.104 -1 47 -1.896 47 -3 L 47 -7 L 47 -89 L 47 -93 C 47 -94.104 46.104 -95 45 -95 Z"/>
<path fill="#555555" d="M 45.707 -93.707 L 41 -89 L 41 -7 L 7 -7 L 2.293 -2.293 C 2.474 -2.112 2.724 -2 3 -2 L 45 -2 C 45.553 -2 46 -2.447 46 -3 L 46 -7 L 46 -89 L 46 -93 C 46 -93.276 45.888 -93.526 45.707 -93.707 Z"/>
<path fill="#777777" d="M 44.766 -92.765 L 41 -89 L 41 -7 L 7 -7 L 3.234 -3.234 C 3.379 -3.09 3.579 -3 3.8 -3 L 44.2 -3 C 44.642 -3 45 -3.358 45 -3.8 L 45 -7 L 45 -89 L 45 -92.2 C 45 -92.421 44.91 -92.621 44.766 -92.765 Z"/>
<path fill="#888888" d="M 43.824 -91.824 L 41 -89 L 41 -7 L 7 -7 L 4.176 -4.176 C 4.284 -4.067 4.435 -4 4.6 -4 L 43.4 -4 C 43.731 -4 44 -4.269 44 -4.6 L 44 -7 L 44 -89 L 44 -91.4 C 44 -91.566 43.933 -91.716 43.824 -91.824 Z"/>
<path fill="#AAAAAA" d="M 41 -89 L 41 -7 L 7 -7 L 7 -89 Z M 3 -94 C 2.448 -94 2 -93.552 2 -93 L 2 -89 L 2 -7 L 2 -3 C 2 -2.724 2.112 -2.474 2.293 -2.293 L 5.117 -5.117 C 5.189 -5.045 5.29 -5 5.4 -5 L 42.6 -5 C 42.821 -5 43 -5.179 43 -5.4 L 43 -7 L 43 -89 L 43 -90.6 C 43 -90.71 42.955 -90.81 42.883 -90.883 L 45.707 -93.707 C 45.526 -93.888 45.276 -94 45 -94 Z"/>
<path fill="#BBBBBB" d="M 3.8 -93 C 3.358 -93 3 -92.642 3 -92.2 L 3 -89 L 3 -7 L 3 -3.8 C 3 -3.579 3.09 -3.379 3.234 -3.235 L 7 -7 L 7 -7 L 7 -89 L 41 -89 L 41 -89 L 44.766 -92.766 C 44.621 -92.91 44.421 -93 44.2 -93 Z"/>
<path fill="#DDDDDD" d="M 4.6 -92 C 4.269 -92 4 -91.731 4 -91.4 L 4 -89 L 4 -7 L 4 -4.6 C 4 -4.434 4.067 -4.285 4.176 -4.176 L 7 -7 L 7 -7 L 7 -89 L 41 -89 L 41 -89 L 43.824 -91.824 C 43.716 -91.933 43.566 -92 43.4 -92 Z"/>
<path fill="#EEEEEE" d="M 5.4 -91 C 5.179 -91 5 -90.821 5 -90.6 L 5 -89 L 5 -7 L 5 -5.4 C 5 -5.29 5.045 -5.189 5.117 -5.117 L 7 -7 L 7 -7 L 7 -89 L 41 -89 L 41 -89 L 42.883 -90.883 C 42.811 -90.955 42.71 -91 42.6 -91 Z"/>
<path fill="#CCCCCC" d="M 6.2 -90 C 6.089 -90 6 -89.911 6 -89.8 L 6 -89 L 6 -7 L 6 -6.2 C 6 -6.09 6.089 -6 6.2 -6 L 41.8 -6 C 41.91 -6 42 -6.09 42 -6.2 L 42 -7 L 42 -89 L 42 -89.8 C 42 -89.911 41.91 -90 41.8 -90 Z"/>
<path fill="#555555" d="M 43 -5.707 L 43 -5.4 C 43 -5.179 42.821 -5 42.6 -5 L 42.293 -5 L 45.244 -2.049 C 45.595 -2.14 45.86 -2.405 45.951 -2.756 L 43 -5.707 Z"/>
<path fill="#777777" d="M 45.244 -93.951 L 41.293 -90 L 41.8 -90 C 41.91 -90 42 -89.911 42 -89.8 L 42 -89.293 L 45.951 -93.244 C 45.905 -93.42 45.831 -93.583 45.707 -93.707 C 45.583 -93.832 45.42 -93.906 45.244 -93.951 Z M 42 -6.707 L 42 -6.2 C 42 -6.09 41.91 -6 41.8 -6 L 41.293 -6 L 42.293 -5 L 42.6 -5 C 42.821 -5 43 -5.179 43 -5.4 L 43 -5.707 L 42 -6.707 Z"/>
<path fill="#EEEEEE" d="M 2.756 -93.951 C 2.405 -93.86 2.14 -93.595 2.049 -93.244 L 6 -89.293 L 6 -89.8 C 6 -89.911 6.089 -90 6.2 -90 L 6.707 -90 L 2.756 -93.951 Z M 6 -6.707 L 2.049 -2.756 C 2.094 -2.58 2.168 -2.417 2.293 -2.293 C 2.417 -2.169 2.581 -2.095 2.756 -2.049 L 6.708 -6 L 6.2 -6 C 6.089 -6 6 -6.09 6 -6.2 L 6 -6.707 Z"/>
</g>
<path id="path0" d="M 1 0.188 v 0.623 c 0 0.018 -0.015 0.033 -0.033 0.033 H 0.655 c -0.018 0 -0.032 -0.016 -0.032 -0.033 c 0 -0.019 0.015 -0.033 0.032 -0.033 h 0.279 V 0.222 H 0.065 v 0.557 h 0.279 c 0.018 0 0.032 0.015 0.032 0.033 c 0 0.018 -0.015 0.033 -0.032 0.033 H 0.033 C 0.015 0.845 0 0.829 0 0.812 V 0.188 c 0 -0.018 0.015 -0.033 0.033 -0.033 h 0.934 C 0.985 0.155 1 0.171 1 0.188 z M 0.683 0.325 C 0.676 0.316 0.666 0.312 0.655 0.312 H 0.345 c -0.011 0 -0.021 0.005 -0.027 0.014 C 0.312 0.334 0.31 0.345 0.313 0.354 l 0.155 0.468 C 0.474 0.835 0.486 0.845 0.5 0.845 s 0.026 -0.01 0.031 -0.022 l 0.155 -0.468 C 0.69 0.345 0.688 0.334 0.683 0.325 z"/>
<path id="path1" d="M 1 0.188 v 0.623 c 0 0.018 -0.015 0.033 -0.033 0.033 H 0.033 C 0.015 0.845 0 0.829 0 0.812 V 0.188 c 0 -0.018 0.015 -0.033 0.033 -0.033 h 0.312 c 0.018 0 0.033 0.016 0.033 0.033 c 0 0.019 -0.015 0.033 -0.033 0.033 H 0.066 v 0.557 h 0.868 V 0.222 H 0.656 c -0.018 0 -0.033 -0.015 -0.033 -0.033 c 0 -0.018 0.015 -0.033 0.033 -0.033 h 0.312 C 0.985 0.155 1 0.171 1 0.188 z M 0.317 0.675 c 0.006 0.009 0.016 0.014 0.027 0.014 h 0.312 h 0 c 0.018 0 0.033 -0.015 0.033 -0.033 c 0 -0.005 -0.001 -0.011 -0.004 -0.015 L 0.531 0.178 C 0.527 0.165 0.514 0.155 0.5 0.155 s -0.027 0.01 -0.031 0.022 L 0.313 0.646 C 0.31 0.655 0.312 0.666 0.317 0.675 z"/>
<path id="path2" d="M 1 0.188 v 0.623 C 1 0.83 0.985 0.844 0.967 0.844 H 0.033 C 0.015 0.844 0 0.83 0 0.812 V 0.656 c 0 -0.018 0.015 -0.033 0.033 -0.033 s 0.033 0.015 0.033 0.033 v 0.123 h 0.868 V 0.222 H 0.066 v 0.123 c 0 0.018 -0.015 0.033 -0.033 0.033 S 0 0.362 0 0.344 V 0.188 C 0 0.17 0.015 0.156 0.033 0.156 h 0.935 C 0.985 0.156 1 0.17 1 0.188 z M 0.595 0.688 c 0.003 0 0.006 0.001 0.009 0.001 c 0.007 0 0.014 -0.002 0.02 -0.007 c 0.008 -0.006 0.013 -0.016 0.013 -0.026 V 0.344 c 0 -0.01 -0.005 -0.02 -0.013 -0.026 C 0.616 0.312 0.605 0.31 0.595 0.313 L 0.024 0.468 C 0.01 0.472 0 0.485 0 0.5 s 0.01 0.028 0.024 0.032 L 0.595 0.688 z"/>
<path id="path3" d="M 1 0.188 v 0.156 c 0 0.018 -0.015 0.033 -0.033 0.033 c -0.018 0 -0.032 -0.015 -0.032 -0.033 V 0.222 H 0.065 v 0.557 h 0.869 V 0.656 c 0 -0.018 0.015 -0.033 0.032 -0.033 C 0.985 0.623 1 0.638 1 0.656 v 0.156 C 1 0.83 0.985 0.844 0.967 0.844 H 0.033 C 0.015 0.844 0 0.83 0 0.812 V 0.188 C 0 0.17 0.015 0.156 0.033 0.156 h 0.934 C 0.985 0.156 1 0.17 1 0.188 z M 0.405 0.313 c -0.011 -0.002 -0.021 0 -0.029 0.006 C 0.368 0.324 0.363 0.334 0.363 0.344 v 0.312 c 0 0.01 0.005 0.02 0.013 0.026 c 0.006 0.004 0.013 0.007 0.021 0.007 c 0.003 0 0.006 0 0.009 -0.001 l 0.57 -0.156 C 0.99 0.528 1 0.515 1 0.5 S 0.99 0.472 0.976 0.468 L 0.405 0.313 z"/>
</defs>
<g class="keyboard">
<g class="key">
<use xlink:href="#shape0" transform="translate(0 0)"/>
<text x="48" y="-18.9" text-anchor="middle" font-family="Arial" font-size="17" fill="#000000">0</text>
</g>
<g class="key">
<use xlink:href="#shape1" transform="translate(96 0)"/>
<text x="120" y="-18.9" text-anchor="middle" font-family="Arial" font-size="17" fill="#000000">.</text>
</g>
<g class="key">
<use xlink:href="#shape2" transform="translate(144 0)"/>
<text x="168" y="-20.6" text-anchor="middle" font-family="Arial" font-size="11.333" fill="#000000">enter</text>
</g>
<g class="key">
<use xlink:href="#shape1" transform="translate(0 -48)"/>
<text x="24" y="-66.9" text-anchor="middle" font-family="Arial" font-size="17" fill="#000000">1</text>
</g>
<g class="key">
<use xlink:href="#shape1" transform="translate(48 -48)"/>
<text x="72" y="-66.9" text-anchor="middle" font-family="Arial" font-size="17" fill="#000000">2</text>
</g>
<g class="key">
<use xlink:href="#shape1" transform="translate(96 -48)"/>
<text x="120" y="-66.9" text-anchor="middle" font-family="Arial" font-size="17" fill="#000000">3</text>
</g>
<g class="key">
<use xlink:href="#shape1" transform="translate(0 -96)"/>
<text x="24" y="-114.9" text-anchor="middle" font-family="Arial" font-size="17" fill="#000000">4</text>
</g>
<g class="key">
<use xlink:href="#shape1" transform="translate(48 -96)"/>
<text x="72" y="-114.9" text-anchor="middle" font-family="Arial" font-size="17" fill="#000000">5</text>
</g>
<g class="key">
<use xlink:href="#shape1" transform="translate(96 -96)"/>
<text x="120" y="-114.9" text-anchor="middle" font-family="Arial" font-size="17" fill="#000000">6</text>
</g>
<g class="key">
<use xlink:href="#shape1" transform="translate(144 -96)"/>
<text x="168" y="-121.7" text-anchor="middle" font-family="Arial" font-size="17" fill="#000000">,</text>
<use xlink:href="#path0" transform="translate(162.333 -115.467) scale(11.333 11.333)" fill="#000000"/>
</g>
<g class="key">
<use xlink:href="#shape1" transform="translate(0 -144)"/>
<text x="24" y="-162.9" text-anchor="middle" font-family="Arial" font-size="17" fill="#000000">7</text>
</g>
<g class="key">
<use xlink:href="#shape1" transform="translate(48 -144)"/>
<text x="72" y="-162.9" text-anchor="middle" font-family="Arial" font-size="17" fill="#000000">8</text>
</g>
<g class="key">
<use xlink:href="#shape1" transform="translate(96 -144)"/>
<text x="120" y="-162.9" text-anchor="middle" font-family="Arial" font-size="17" fill="#000000">9</text>
</g>
<g class="key">
<use xlink:href="#shape1" transform="translate(144 -144)"/>
<text x="168" y="-169.7" text-anchor="middle" font-family="Arial" font-size="17" fill="#000000">/</text>
<use xlink:href="#path1" transform="translate(162.333 -163.467) scale(11.333 11.333)" fill="#000000"/>
</g>
<g class="key">
<use xlink:href="#shape1" transform="translate(0 -192)"/>
<text x="24" y="-212.6" text-anchor="middle" font-family="Arial" font-size="11.333" fill="#000000">clear</text>
</g>
<g class="key">
<use xlink:href="#shape1" transform="translate(48 -192)"/>
<text x="72" y="-217.7" text-anchor="middle" font-family="Arial" font-size="17" fill="#000000">&#8722;</text>
</g>
<g class="key">
<use xlink:href="#shape1" transform="translate(96 -192)"/>
<text x="120" y="-217.7" text-anchor="middle" font-family="Arial" font-size="17" fill="#000000">+</text>
<use xlink:href="#path2" transform="translate(114.333 -211.467) scale(11.333 11.333)" fill="#000000"/>
</g>
<g class="key">
<use xlink:href="#shape1" transform="translate(144 -192)"/>
<text x="168" y="-217.7" text-anchor="middle" font-family="Arial" font-size="17" fill="#000000">*</text>
<use xlink:href="#path3" transform="translate(162.333 -211.467) scale(11.333 11.333)" fill="#000000"/>
</g>
</g>
</svg>

