<?xml version="1.0"?>
<svg xmlns="http://www.w3.org/2000/svg" xmlns:xlink="http://www.w3.org/1999/xlink" version="1.1" width="696" height="276" viewBox="0 -276 696 276">
<defs>
<g id="shape0">
<path fill="#000000" d="M 3 -47 C 1.896 -47 1 -46.104 1 -45 L 1 -41 L 1 -7 L 1 -3 C 1 -1.896 1.896 -1 3 -1 L 65 -1 L 65 -7 L 7 -7 L 7 -41 L 65 -41 L 65 -47 Z M 65 -47 L 65 -41 L 65 -7 L 65 -1 L 69 -1 C 70.104 -1 71 -1.896 71 -3 L 71 -7 L 71 -41 L 71 -45 C 71 -46.104 70.104 -47 69 -47 Z"/>
<path fill="#555555" d="M 7 -7 L 2.293 -2.293 C 2.474 -2.112 2.724 -2 3 -2 L 65 -2 L 65 -7 Z M 69.707 -45.707 L 65 -41 L 65 -7 L 65 -2 L 69 -2 C 69.553 -2 70 -2.447 70 -3 L 70 -7 L 70 -41 L 70 -45 C 70 -45.276 69.888 -45.526 69.707 -45.707 Z"/>
<path fill="#777777" d="M 7 -7 L 3.234 -3.234 C 3.379 -3.09 3.579 -3 3.8 -3 L 65 -3 L 65 -7 Z M 68.766 -44.765 L 65 -41 L 65 -7 L 65 -3 L 68.2 -3 C 68.642 -3 69 -3.358 69 -3.8 L 69 -7 L 69 -41 L 69 -44.2 C 69 -44.421 68.91 -44.621 68.766 -44.765 Z"/>
<path fill="#888888" d="M 7 -7 L 4.176 -4.176 C 4.284 -4.067 4.435 -4 4.6 -4 L 65 -4 L 65 -7 Z M 67.824 -43.824 L 65 -41 L 65 -7 L 65 -4 L 67.4 -4 C 67.731 -4 68 -4.269 68 -4.6 L 68 -7 L 68 -41 L 68 -43.4 C 68 -43.566 67.933 -43.716 67.824 -43.824 Z"/>
<path fill="#AAAAAA" d="M 65 -46 L 65 -41 L 65 -7 L 65 -5 L 66.6 -5 C 66.821 -5 67 -5.179 67 -5.4 L 67 -7 L 67 -41 L 67 -42.6 C 67 -42.71 66.955 -42.81 66.883 -42.883 L 69.707 -45.707 C 69.526 -45.888 69.276 -46 69 -46 Z M 3 -46 C 2.448 -46 2 -45.552 2 -45 L 2 -41 L 2 -7 L 2 -3 C 2 -2.724 2.112 -2.474 2.293 -2.293 L 5.117 -5.117 C 5.189 -5.045 5.29 -5 5.4 -5 L 65 -5 L 65 -7 L 7 -7 L 7 -41 L 65 -41 L 65 -46 Z"/>
<path fill="#BBBBBB" d="M 65 -45 L 65 -41 L 68.766 -44.766 C 68.621 -44.91 68.421 -45 68.2 -45 Z M 3.8 -45 C 3.358 -45 3 -44.642 3 -44.2 L 3 -41 L 3 -7 L 3 -3.8 C 3 -3.579 3.09 -3.379 3.234 -3.235 L 7 -7 L 7 -7 L 7 -41 L 65 -41 L 65 -45 Z"/>
<path fill="#DDDDDD" d="M 65 -44 L 65 -41 L 67.824 -43.824 C 67.716 -43.933 67.566 -44 67.4 -44 Z M 4.6 -44 C 4.269 -44 4 -43.731 4 -43.4 L 4 -41 L 4 -7 L 4 -4.6 C 4 -4.434 4.067 -4.285 4.176 -4.176 L 7 -7 L 7 -7 L 7 -41 L 65 -41 L 65 -44 Z"/>
<path fill="#EEEEEE" d="M 65 -43 L 65 -41 L 66.883 -42.883 C 66.811 -42.955 66.71 -43 66.6 -43 Z M 5.4 -43 C 5.179 -43 5 -42.821 5 -42.6 L 5 -41 L 5 -7 L 5 -5.4 C 5 -5.29 5.045 -5.189 5.117 -5.117 L 7 -7 L 7 -7 L 7 -41 L 65 -41 L 65 -43 Z"/>
<path fill="#CCCCCC" d="M 6.2 -42 C 6.089 -42 6 -41.911 6 -41.8 L 6 -41 L 6 -7 L 6 -6.2 C 6 -6.09 6.089 -6 6.2 -6 L 65 -6 L 65 -7 L 65 -7 L 65 -6 L 65.8 -6 C 65.91 -6 66 -6.09 66 -6.2 L 66 -7 L 66 -41 L 66 -41.8 C 66 -41.911 65.91 -42 65.8 -42 L 65 -42 L 65 -41 L 65 -41 L 65 -42 Z"/>
<path fill="#555555" d="M 67 -5.707 L 67 -5.4 C 67 -5.179 66.821 -5 66.6 -5 L 66.293 -5 L 69.244 -2.049 C 69.595 -2.14 69.86 -2.405 69.951 -2.756 L 67 -5.707 Z"/>
<path fill="#777777" d="M 69.244 -45.951 L 65.293 -42 L 65.8 -42 C 65.91 -42 66 -41.911 66 -41.8 L 66 -41.293 L 69.951 -45.244 C 69.905 -45.42 69.831 -45.583 69.707 -45.707 C 69.583 -45.832 69.42 -45.906 69.244 -45.951 Z M 66 -6.707 L 66 -6.2 C 66 -6.09 65.91 -6 65.8 -6 L 65.293 -6 L 66.293 -5 L 66.6 -5 C 66.821 -5 67 -5.179 67 -5.4 L 67 -5.707 L 66 -6.707 Z"/>
<path fill="#EEEEEE" d="M 2.756 -45.951 C 2.405 -45.86 2.14 -45.595 2.049 -45.244 L 6 -41.293 L 6 -41.8 C 6 -41.911 6.089 -42 6.2 -42 L 6.707 -42 L 2.756 -45.951 Z M 6 -6.707 L 2.049 -2.756 C 2.094 -2.58 2.168 -2.417 2.293 -2.293 C 2.417 -2.169 2.581 -2.095 2.756 -2.049 L 6.708 -6 L 6.2 -6 C 6.089 -6 6 -6.09 6 -6.2 L 6 -6.707 Z"/>
</g>
<g id="shape1">
<path fill="#000000" d="M 77 -41 L 77 -7 L 7 -7 L 7 -41 Z M 3 -47 C 1.896 -47 1 -46.104 1 -45 L 1 -41 L 1 -7 L 1 -3 C 1 -1.896 1.896 -1 3 -1 L 81 -1 C 82.104 -1 83 -1.896 83 -3 L 83 -7 L 83 -41 L 83 -45 C 83 -46.104 82.104 -47 81 -47 Z"/>
<path fill="#555555" d="M 81.707 -45.707 L 77 -41 L 77 -7 L 7 -7 L 2.293 -2.293 C 2.474 -2.112 2.724 -2 3 -2 L 81 -2 C 81.553 -2 82 -2.447 82 -3 L 82 -7 L 82 -41 L 82 -45 C 82 -45.276 81.888 -45.526 81.707 -45.707 Z"/>
<path fill="#777777" d="M 80.766 -44.765 L 77 -41 L 77 -7 L 7 -7 L 3.234 -3.234 C 3.379 -3.09 3.579 -3 3.8 -3 L 80.2 -3 C 80.642 -3 81 -3.358 81 -3.8 L 81 -7 L 81 -41 L 81 -44.2 C 81 -44.421 80.91 -44.621 80.766 -44.765 Z"/>
<path fill="#888888" d="M 79.824 -43.824 L 77 -41 L 77 -7 L 7 -7 L 4.176 -4.176 C 4.284 -4.067 4.435 -4 4.6 -4 L 79.4 -4 C 79.731 -4 80 -4.269 80 -4.6 L 80 -7 L 80 -41 L 80 -43.4 C 80 -43.566 79.933 -43.716 79.824 -43.824 Z"/>
<path fill="#AAAAAA" d="M 77 -41 L 77 -7 L 7 -7 L 7 -41 Z M 3 -46 C 2.448 -46 2 -45.552 2 -45 L 2 -41 L 2 -7 L 2 -3 C 2 -2.724 2.112 -2.474 2.293 -2.293 L 5.117 -5.117 C 5.189 -5.045 5.29 -5 5.4 -5 L 78.6 -5 C 78.821 -5 79 -5.179 79 -5.4 L 79 -7 L 79 -41 L 79 -42.6 C 79 -42.71 78.955 -42.81 78.883 -42.883 L 81.707 -45.707 C 81.526 -45.888 81.276 -46 81 -46 Z"/>
<path fill="#BBBBBB" d="M 3.8 -45 C 3.358 -45 3 -44.642 3 -44.2 L 3 -41 L 3 -7 L 3 -3.8 C 3 -3.579 3.09 -3.379 3.234 -3.235 L 7 -7 L 7 -7 L 7 -41 L 77 -41 L 80.766 -44.766 C 80.621 -44.91 80.421 -45 80.2 -45 Z"/>
<path fill="#DDDDDD" d="M 4.6 -44 C 4.269 -44 4 -43.731 4 -43.4 L 4 -41 L 4 -7 L 4 -4.6 C 4 -4.434 4.067 -4.285 4.176 -4.176 L 7 -7 L 7 -7 L 7 -41 L 77 -41 L 79.824 -43.824 C 79.716 -43.933 79.566 -44 79.4 -44 Z"/>
<path fill="#EEEEEE" d="M 5.4 -43 C 5.179 -43 5 -42.821 5 -42.6 L 5 -41 L 5 -7 L 5 -5.4 C 5 -5.29 5.045 -5.189 5.117 -5.117 L 7 -7 L 7 -7 L 7 -41 L 77 -41 L 78.883 -42.883 C 78.811 -42.955 78.71 -43 78.6 -43 Z"/>
<path fill="#CCCCCC" d="M 6.2 -42 C 6.089 -42 6 -41.911 6 -41.8 L 6 -41 L 6 -7 L 6 -6.2 C 6 -6.09 6.089 -6 6.2 -6 L 77.8 -6 C 77.91 -6 78 -6.09 78 -6.2 L 78 -7 L 78 -41 L 78 -41.8 C 78 -41.911 77.91 -42 77.8 -42 Z"/>
<path fill="#555555" d="M 79 -5.707 L 79 -5.4 C 79 -5.179 78.821 -5 78.6 -5 L 78.293 -5 L 81.244 -2.049 C 81.595 -2.14 81.86 -2.405 81.951 -2.756 L 79 -5.707 Z"/>
<path fill="#777777" d="M 81.244 -45.951 L 77.293 -42 L 77.8 -42 C 77.91 -42 78 -41.911 78 -41.8 L 78 -41.293 L 81.951 -45.244 C 81.905 -45.42 81.831 -45.583 81.707 -45.707 C 81.583 -45.832 81.42 -45.906 81.244 -45.951 Z M 78 -6.707 L 78 -6.2 C 78 -6.09 77.91 -6 77.8 -6 L 77.293 -6 L 78.293 -5 L 78.6 -5 C 78.821 -5 79 -5.179 79 -5.4 L 79 -5.707 L 78 -6.707 Z"/>
<path fill="#EEEEEE" d="M 2.756 -45.951 C 2.405 -45.86 2.14 -45.595 2.049 -45.244 L 6 -41.293 L 6 -41.8 C 6 -41.911 6.089 -42 6.2 -42 L 6.707 -42 L 2.756 -45.951 Z M 6 -6.707 L 2.049 -2.756 C 2.094 -2.58 2.168 -2.417 2.293 -2.293 C 2.417 -2.169 2.581 -2.095 2.756 -2.049 L 6.708 -6 L 6.2 -6 C 6.089 -6 6 -6.09 6 -6.2 L 6 -6.707 Z"/>
</g>
<g id="shape2">
<path fill="#000000" d="M 3 -47 C 1.896 -47 1 -46.104 1 -45 L 1 -41 L 1 -7 L 1 -3 C 1 -1.896 1.896 -1 3 -1 L 269 -1 L 269 -7 L 7 -7 L 7 -41 L 269 -41 L 269 -47 Z M 269 -47 L 269 -41 L 269 -7 L 269 -1 L 273 -1 C 274.104 -1 275 -1.896 275 -3 L 275 -7 L 275 -41 L 275 -45 C 275 -46.104 274.104 -47 273 -47 Z"/>
<path fill="#555555" d="M 7 -7 L 2.293 -2.293 C 2.474 -2.112 2.724 -2 3 -2 L 269 -2 L 269 -7 Z M 273.707 -45.707 L 269 -41 L 269 -7 L 269 -2 L 273 -2 C 273.553 -2 274 -2.447 274 -3 L 274 -7 L 274 -41 L 274 -45 C 274 -45.276 273.888 -45.526 273.707 -45.707 Z"/>
<path fill="#777777" d="M 7 -7 L 3.234 -3.234 C 3.379 -3.09 3.579 -3 3.8 -3 L 269 -3 L 269 -7 Z M 272.766 -44.765 L 269 -41 L 269 -7 L 269 -3 L 272.2 -3 C 272.642 -3 273 -3.358 273 -3.8 L 273 -7 L 273 -41 L 273 -44.2 C 273 -44.421 272.91 -44.621 272.766 -44.765 Z"/>
<path fill="#888888" d="M 7 -7 L 4.176 -4.176 C 4.284 -4.067 4.435 -4 4.6 -4 L 269 -4 L 269 -7 Z M 271.824 -43.824 L 269 -41 L 269 -7 L 269 -4 L 271.4 -4 C 271.731 -4 272 -4.269 272 -4.6 L 272 -7 L 272 -41 L 272 -43.4 C 272 -43.566 271.933 -43.716 271.824 -43.824 Z"/>
<path fill="#AAAAAA" d="M 269 -46 L 269 -41 L 269 -7 L 269 -5 L 270.6 -5 C 270.821 -5 271 -5.179 271 -5.4 L 271 -7 L 271 -41 L 271 -42.6 C 271 -42.71 270.955 -42.81 270.883 -42.883 L 273.707 -45.707 C 273.526 -45.888 273.276 -46 273 -46 Z M 3 -46 C 2.448 -46 2 -45.552 2 -45 L 2 -41 L 2 -7 L 2 -3 C 2 -2.724 2.112 -2.474 2.293 -2.293 L 5.117 -5.117 C 5.189 -5.045 5.29 -5 5.4 -5 L 269 -5 L 269 -7 L 7 -7 L 7 -41 L 269 -41 L 269 -46 Z"/>
<path fill="#BBBBBB" d="M 269 -45 L 269 -41 L 272.766 -44.766 C 272.621 -44.91 272.421 -45 272.2 -45 Z M 3.8 -45 C 3.358 -45 3 -44.642 3 -44.2 L 3 -41 L 3 -7 L 3 -3.8 C 3 -3.579 3.09 -3.379 3.234 -3.235 L 7 -7 L 7 -7 L 7 -41 L 269 -41 L 269 -45 Z"/>
<path fill="#DDDDDD" d="M 269 -44 L 269 -41 L 271.824 -43.824 C 271.716 -43.933 271.566 -44 271.4 -44 Z M 4.6 -44 C 4.269 -44 4 -43.731 4 -43.4 L 4 -41 L 4 -7 L 4 -4.6 C 4 -4.434 4.067 -4.285 4.176 -4.176 L 7 -7 L 7 -7 L 7 -41 L 269 -41 L 269 -44 Z"/>
<path fill="#EEEEEE" d="M 269 -43 L 269 -41 L 270.883 -42.883 C 270.811 -42.955 270.71 -43 270.6 -43 Z M 5.4 -43 C 5.179 -43 5 -42.821 5 -42.6 L 5 -41 L 5 -7 L 5 -5.4 C 5 -5.29 5.045 -5.189 5.117 -5.117 L 7 -7 L 7 -7 L 7 -41 L 269 -41 L 269 -43 Z"/>
<path fill="#CCCCCC" d="M 6.2 -42 C 6.089 -42 6 -41.911 6 -41.8 L 6 -41 L 6 -7 L 6 -6.2 C 6 -6.09 6.089 -6 6.2 -6 L 269 -6 L 269 -7 L 269 -7 L 269 -6 L 269.8 -6 C 269.91 -6 270 -6.09 270 -6.2 L 270 -7 L 270 -41 L 270 -41.8 C 270 -41.911 269.91 -42 269.8 -42 L 269 -42 L 269 -41 L 269 -41 L 269 -42 Z"/>
<path fill="#555555" d="M 271 -5.707 L 271 -5.4 C 271 -5.179 270.821 -5 270.6 -5 L 270.293 -5 L 273.244 -2.049 C 273.595 -2.14 273.86 -2.405 273.951 -2.756 L 271 -5.707 Z"/>
<path fill="#777777" d="M 273.244 -45.951 L 269.293 -42 L 269.8 -42 C 269.91 -42 270 -41.911 270 -41.8 L 270 -41.293 L 273.951 -45.244 C 273.905 -45.42 273.831 -45.583 273.707 -45.707 C 273.583 -45.832 273.42 -45.906 273.244 -45.951 Z M 270 -6.707 L 270 -6.2 C 270 -6.09 269.91 -6 269.8 -6 L 269.293 -6 L 270.293 -5 L 270.6 -5 C 270.821 -5 271 -5.179 271 -5.4 L 271 -5.707 L 270 -6.707 Z"/>
<path fill="#EEEEEE" d="M 2.756 -45.951 C 2.405 -45.86 2.14 -45.595 2.049 -45.244 L 6 -41.293 L 6 -41.8 C 6 -41.911 6.089 -42 6.2 -42 L 6.707 -42 L 2.756 -45.951 Z M 6 -6.707 L 2.049 -2.756 C 2.094 -2.58 2.168 -2.417 2.293 -2.293 C 2.417 -2.169 2.581 -2.095 2.756 -2.049 L 6.708 -6 L 6.2 -6 C 6.089 -6 6 -6.09 6 -6.2 L 6 -6.707 Z"/>
</g>
<g id="shape3">
<path fill="#000000" d="M 41 -41 L 41 -7 L 7 -7 L 7 -41 Z M 3 -47 C 1.896 -47 1 -46.104 1 -45 L 1 -41 L 1 -7 L 1 -3 C 1 -1.896 1.896 -1 3 -1 L 45 -1 C 46.104 -1 47 -1.896 47 -3 L 47 -7 L 47 -41 L 47 -45 C 47 -46.104 46.104 -47 45 -47 Z"/>
<path fill="#555555" d="M 45.707 -45.707 L 41 -41 L 41 -7 L 7 -7 L 2.293 -2.293 C 2.474 -2.112 2.724 -2 3 -2 L 45 -2 C 45.553 -2 46 -2.447 46 -3 L 46 -7 L 46 -41 L 46 -45 C 46 -45.276 45.888 -45.526 45.707 -45.707 Z"/>
<path fill="#777777" d="M 44.766 -44.765 L 41 -41 L 41 -7 L 7 -7 L 3.234 -3.234 C 3.379 -3.09 3.579 -3 3.8 -3 L 44.2 -3 C 44.642 -3 45 -3.358 45 -3.8 L 45 -7 L 45 -41 L 45 -44.2 C 45 -44.421 44.91 -44.621 44.766 -44.765 Z"/>
<path fill="#888888" d="M 43.824 -43.824 L 41 -41 L 41 -7 L 7 -7 L 4.176 -4.176 C 4.284 -4.067 4.435 -4 4.6 -4 L 43.4 -4 C 43.731 -4 44 -4.269 44 -4.6 L 44 -7 L 44 -41 L 44 -43.4 C 44 -43.566 43.933 -43.716 43.824 -43.824 Z"/>
<path fill="#AAAAAA" d="M 41 -41 L 41 -7 L 7 -7 L 7 -41 Z M 3 -46 C 2.448 -46 2 -45.552 2 -45 L 2 -41 L 2 -7 L 2 -3 C 2 -2.724 2.112 -2.474 2.293 -2.293 L 5.117 -5.117 C 5.189 -5.045 5.29 -5 5.4 -5 L 42.6 -5 C 42.821 -5 43 -5.179 43 -5.4 L 43 -7 L 43 -41 L 43 -42.6 C 43 -42.71 42.955 -42.81 42.883 -42.883 L 45.707 -45.707 C 45.526 -45.888 45.276 -46 45 -46 Z"/>
<path fill="#BBBBBB" d="M 3.8 -45 C 3.358 -45 3 -44.642 3 -44.2 L 3 -41 L 3 -7 L 3 -3.8 C 3 -3.579 3.09 -3.379 3.234 -3.235 L 7 -7 L 7 -7 L 7 -41 L 41 -41 L 41 -41 L 44.766 -44.766 C 44.621 -44.91 44.421 -45 44.2 -45 Z"/>
<path fill="#DDDDDD" d="M 4.6 -44 C 4.269 -44 4 -43.731 4 -43.4 L 4 -41 L 4 -7 L 4 -4.6 C 4 -4.434 4.067 -4.285 4.176 -4.176 L 7 -7 L 7 -7 L 7 -41 L 41 -41 L 41 -41 L 43.824 -43.824 C 43.716 -43.933 43.566 -44 43.4 -44 Z"/>
<path fill="#EEEEEE" d="M 5.4 -43 C 5.179 -43 5 -42.821 5 -42.6 L 5 -41 L 5 -7 L 5 -5.4 C 5 -5.29 5.045 -5.189 5.117 -5.117 L 7 -7 L 7 -7 L 7 -41 L 41 -41 L 41 -41 L 42.883 -42.883 C 42.811 -42.955 42.71 -43 42.6 -43 Z"/>
<path fill="#CCCCCC" d="M 6.2 -42 C 6.089 -42 6 -41.911 6 -41.8 L 6 -41 L 6 -7 L 6 -6.2 C 6 -6.09 6.089 -6 6.2 -6 L 41.8 -6 C 41.91 -6 42 -6.09 42 -6.2 L 42 -7 L 42 -41 L 42 -41.8 C 42 -41.911 41.91 -42 41.8 -42 Z"/>
<path fill="#555555" d="M 43 -5.707 L 43 -5.4 C 43 -5.179 42.821 -5 42.6 -5 L 42.293 -5 L 45.244 -2.049 C 45.595 -2.14 45.86 -2.405 45.951 -2.756 L 43 -5.707 Z"/>
<path fill="#777777" d="M 45.244 -45.951 L 41.293 -42 L 41.8 -42 C 41.91 -42 42 -41.911 42 -41.8 L 42 -41.293 L 45.951 -45.244 C 45.905 -45.42 45.831 -45.583 45.707 -45.707 C 45.583 -45.832 45.42 -45.906 45.244 -45.951 Z M 42 -6.707 L 42 -6.2 C 42 -6.09 41.91 -6 41.8 -6 L 41.293 -6 L 42.293 -5 L 42.6 -5 C 42.821 -5 43 -5.179 43 -5.4 L 43 -5.707 L 42 -6.707 Z"/>
<path fill="#EEEEEE" d="M 2.756 -45.951 C 2.405 -45.86 2.14 -45.595 2.049 -45.244 L 6 -41.293 L 6 -41.8 C 6 -41.911 6.089 -42 6.2 -42 L 6.707 -42 L 2.756 -45.951 Z M 6 -6.707 L 2.049 -2.756 C 2.094 -2.58 2.168 -2.417 2.293 -2.293 C 2.417 -2.169 2.581 -2.095 2.756 -2.049 L 6.708 -6 L 6.2 -6 C 6.089 -6 6 -6.09 6 -6.2 L 6 -6.707 Z"/>
</g>
<g id="shape4">
<path fill="#000000" d="M 53 -41 L 53 -7 L 7 -7 L 7 -41 Z M 3 -47 C 1.896 -47 1 -46.104 1 -45 L 1 -41 L 1 -7 L 1 -3 C 1 -1.896 1.896 -1 3 -1 L 57 -1 C 58.104 -1 59 -1.896 59 -3 L 59 -7 L 59 -41 L 59 -45 C 59 -46.104 58.104 -47 57 -47 Z"/>
<path fill="#555555" d="M 57.707 -45.707 L 53 -41 L 53 -7 L 7 -7 L 2.293 -2.293 C 2.474 -2.112 2.724 -2 3 -2 L 57 -2 C 57.553 -2 58 -2.447 58 -3 L 58 -7 L 58 -41 L 58 -45 C 58 -45.276 57.888 -45.526 57.707 -45.707 Z"/>
<path fill="#777777" d="M 56.766 -44.765 L 53 -41 L 53 -7 L 7 -7 L 3.234 -3.234 C 3.379 -3.09 3.579 -3 3.8 -3 L 56.2 -3 C 56.642 -3 57 -3.358 57 -3.8 L 57 -7 L 57 -41 L 57 -44.2 C 57 -44.421 56.91 -44.621 56.766 -44.765 Z"/>
<path fill="#888888" d="M 55.824 -43.824 L 53 -41 L 53 -7 L 7 -7 L 4.176 -4.176 C 4.284 -4.067 4.435 -4 4.6 -4 L 55.4 -4 C 55.731 -4 56 -4.269 56 -4.6 L 56 -7 L 56 -41 L 56 -43.4 C 56 -43.566 55.933 -43.716 55.824 -43.824 Z"/>
<path fill="#AAAAAA" d="M 53 -41 L 53 -7 L 7 -7 L 7 -41 Z M 3 -46 C 2.448 -46 2 -45.552 2 -45 L 2 -41 L 2 -7 L 2 -3 C 2 -2.724 2.112 -2.474 2.293 -2.293 L 5.117 -5.117 C 5.189 -5.045 5.29 -5 5.4 -5 L 54.6 -5 C 54.821 -5 55 -5.179 55 -5.4 L 55 -7 L 55 -41 L 55 -42.6 C 55 -42.71 54.955 -42.81 54.883 -42.883 L 57.707 -45.707 C 57.526 -45.888 57.276 -46 57 -46 Z"/>
<path fill="#BBBBBB" d="M 3.8 -45 C 3.358 -45 3 -44.642 3 -44.2 L 3 -41 L 3 -7 L 3 -3.8 C 3 -3.579 3.09 -3.379 3.234 -3.235 L 7 -7 L 7 -7 L 7 -41 L 53 -41 L 53 -41 L 56.766 -44.766 C 56.621 -44.91 56.421 -45 56.2 -45 Z"/>
<path fill="#DDDDDD" d="M 4.6 -44 C 4.269 -44 4 -43.731 4 -43.4 L 4 -41 L 4 -7 L 4 -4.6 C 4 -4.434 4.067 -4.285 4.176 -4.176 L 7 -7 L 7 -7 L 7 -41 L 53 -41 L 53 -41 L 55.824 -43.824 C 55.716 -43.933 55.566 -44 55.4 -44 Z"/>
<path fill="#EEEEEE" d="M 5.4 -43 C 5.179 -43 5 -42.821 5 -42.6 L 5 -41 L 5 -7 L 5 -5.4 C 5 -5.29 5.045 -5.189 5.117 -5.117 L 7 -7 L 7 -7 L 7 -41 L 53 -41 L 53 -41 L 54.883 -42.883 C 54.811 -42.955 54.71 -43 54.6 -43 Z"/>
<path fill="#CCCCCC" d="M 6.2 -42 C 6.089 -42 6 -41.911 6 -41.8 L 6 -41 L 6 -7 L 6 -6.2 C 6 -6.09 6.089 -6 6.2 -6 L 53.8 -6 C 53.91 -6 54 -6.09 54 -6.2 L 54 -7 L 54 -41 L 54 -41.8 C 54 -41.911 53.91 -42 53.8 -42 Z"/>
<path fill="#555555" d="M 55 -5.707 L 55 -5.4 C 55 -5.179 54.821 -5 54.6 -5 L 54.293 -5 L 57.244 -2.049 C 57.595 -2.14 57.86 -2.405 57.951 -2.756 L 55 -5.707 Z"/>
<path fill="#777777" d="M 57.244 -45.951 L 53.293 -42 L 53.8 -42 C 53.91 -42 54 -41.911 54 -41.8 L 54 -41.293 L 57.951 -45.244 C 57.905 -45.42 57.831 -45.583 57.707 -45.707 C 57.583 -45.832 57.42 -45.906 57.244 -45.951 Z M 54 -6.707 L 54 -6.2 C 54 -6.09 53.91 -6 53.8 -6 L 53.293 -6 L 54.293 -5 L 54.6 -5 C 54.821 -5 55 -5.179 55 -5.4 L 55 -5.707 L 54 -6.707 Z"/>
<path fill="#EEEEEE" d="M 2.756 -45.951 C 2.405 -45.86 2.14 -45.595 2.049 -45.244 L 6 -41.293 L 6 -41.8 C 6 -41.911 6.089 -42 6.2 -42 L 6.707 -42 L 2.756 -45.951 Z M 6 -6.707 L 2.049 -2.756 C 2.094 -2.58 2.168 -2.417 2.293 -2.293 C 2.417 -2.169 2.581 -2.095 2.756 -2.049 L 6.708 -6 L 6.2 -6 C 6.089 -6 6 -6.09 6 -6.2 L 6 -6.707 Z"/>
</g>
<g id="shape5">
<path fill="#000000" d="M -9 -95 C -10.104 -95 -11 -94.104 -11 -93 L -11 -89 L -11 -55 L -11 -51 C -11 -49.896 -10.104 -49 -9 -49 L 0.8 -49 C 0.91 -49 1 -48.911 1 -48.8 L 1 -48 L 1 -7 L 1 -3 C 1 -1.896 1.896 -1 3 -1 L 29 -1 L 29 -7 L 7 -7 L 7 -48 L 7 -55 L -5 -55 L -5 -89 L 29 -89 L 29 -7 L 29 -1 L 33 -1 C 34.104 -1 35 -1.896 35 -3 L 35 -7 L 35 -89 L 35 -93 C 35 -94.104 34.104 -95 33 -95 Z"/>
<path fill="#555555" d="M -5 -55 L -9.707 -50.293 C -9.526 -50.112 -9.276 -50 -9 -50 L 1.6 -50 C 1.71 -50 1.811 -49.955 1.883 -49.883 L 7 -55 Z M 7 -7 L 2.293 -2.293 C 2.474 -2.112 2.724 -2 3 -2 L 29 -2 L 29 -7 Z M 33.707 -93.707 L 29 -89 L 29 -7 L 29 -2 L 33 -2 C 33.553 -2 34 -2.447 34 -3 L 34 -7 L 34 -89 L 34 -93 C 34 -93.276 33.888 -93.526 33.707 -93.707 Z"/>
<path fill="#777777" d="M -5 -55 L -8.766 -51.234 C -8.621 -51.09 -8.421 -51 -8.2 -51 L 2.4 -51 C 2.566 -51 2.715 -50.933 2.824 -50.824 L 7 -55 Z M 7 -7 L 3.234 -3.234 C 3.379 -3.09 3.579 -3 3.8 -3 L 29 -3 L 29 -7 Z M 32.766 -92.765 L 29 -89 L 29 -7 L 29 -3 L 32.2 -3 C 32.642 -3 33 -3.358 33 -3.8 L 33 -7 L 33 -89 L 33 -92.2 C 33 -92.421 32.91 -92.621 32.766 -92.765 Z"/>
<path fill="#888888" d="M -5 -55 L -7.824 -52.176 C -7.716 -52.067 -7.565 -52 -7.4 -52 L 3.2 -52 C 3.421 -52 3.621 -51.91 3.765 -51.766 L 7 -55 Z M 7 -7 L 4.176 -4.176 C 4.284 -4.067 4.435 -4 4.6 -4 L 29 -4 L 29 -7 Z M 31.824 -91.824 L 29 -89 L 29 -7 L 29 -4 L 31.4 -4 C 31.731 -4 32 -4.269 32 -4.6 L 32 -7 L 32 -89 L 32 -91.4 C 32 -91.566 31.933 -91.716 31.824 -91.824 Z"/>
<path fill="#AAAAAA" d="M -9 -94 C -9.552 -94 -10 -93.552 -10 -93 L -10 -89 L -10 -55 L -10 -51 C -10 -50.724 -9.888 -50.474 -9.707 -50.293 L -6.883 -53.117 C -6.811 -53.045 -6.71 -53 -6.6 -53 L 4 -53 C 4.276 -53 4.526 -52.888 4.707 -52.707 L 1.883 -49.883 C 1.955 -49.811 2 -49.71 2 -49.6 L 2 -48 L 2 -7 L 2 -3 C 2 -2.724 2.112 -2.474 2.293 -2.293 L 5.117 -5.117 C 5.189 -5.045 5.29 -5 5.4 -5 L 29 -5 L 29 -7 L 7 -7 L 7 -48 L 7 -55 L -5 -55 L -5 -89 L 29 -89 L 29 -7 L 29 -5 L 30.6 -5 C 30.821 -5 31 -5.179 31 -5.4 L 31 -7 L 31 -89 L 31 -90.6 C 31 -90.71 30.955 -90.81 30.883 -90.883 L 33.707 -93.707 C 33.526 -93.888 33.276 -94 33 -94 Z"/>
<path fill="#BBBBBB" d="M -8.2 -93 C -8.642 -93 -9 -92.642 -9 -92.2 L -9 -89 L -9 -55 L -9 -51.8 C -9 -51.579 -8.91 -51.379 -8.766 -51.235 L -5 -55 L -5 -55 L -5 -89 L 29 -89 L 29 -89 L 32.766 -92.766 C 32.621 -92.91 32.421 -93 32.2 -93 Z M 7 -55 L 2.824 -50.824 C 2.933 -50.716 3 -50.565 3 -50.4 L 3 -48 L 3 -7 L 3 -3.8 C 3 -3.579 3.09 -3.379 3.234 -3.235 L 7 -7 L 7 -7 L 7 -48 L 7 -55 Z"/>
<path fill="#DDDDDD" d="M -7.4 -92 C -7.731 -92 -8 -91.731 -8 -91.4 L -8 -89 L -8 -55 L -8 -52.6 C -8 -52.434 -7.933 -52.285 -7.824 -52.176 L -5 -55 L -5 -55 L -5 -89 L 29 -89 L 29 -89 L 31.824 -91.824 C 31.716 -91.933 31.566 -92 31.4 -92 Z M 7 -55 L 3.766 -51.766 C 3.91 -51.621 4 -51.421 4 -51.2 L 4 -48 L 4 -7 L 4 -4.6 C 4 -4.434 4.067 -4.285 4.176 -4.176 L 7 -7 L 7 -7 L 7 -48 L 7 -55 Z"/>
<path fill="#EEEEEE" d="M -6.6 -91 C -6.821 -91 -7 -90.821 -7 -90.6 L -7 -89 L -7 -55 L -7 -53.4 C -7 -53.29 -6.955 -53.189 -6.883 -53.117 L -5 -55 L -5 -55 L -5 -89 L 29 -89 L 29 -89 L 30.883 -90.883 C 30.811 -90.955 30.71 -91 30.6 -91 Z M 7 -55 L 4.707 -52.707 C 4.888 -52.526 5 -52.276 5 -52 L 5 -48 L 5 -7 L 5 -5.4 C 5 -5.29 5.045 -5.189 5.117 -5.117 L 7 -7 L 7 -7 L 7 -48 L 7 -55 Z"/>
<path fill="#CCCCCC" d="M -5.8 -90 C -5.911 -90 -6 -89.911 -6 -89.8 L -6 -89 L -6 -55 L -6 -54.2 C -6 -54.09 -5.911 -54 -5.8 -54 L 4 -54 C 5.104 -54 6 -53.104 6 -52 L 6 -48 L 6 -7 L 6 -6.2 C 6 -6.09 6.089 -6 6.2 -6 L 29 -6 L 29 -7 L 29 -7 L 29 -6 L 29.8 -6 C 29.91 -6 30 -6.09 30 -6.2 L 30 -7 L 30 -89 L 30 -89.8 C 30 -89.911 29.91 -90 29.8 -90 Z"/>
<path fill="#555555" d="M 31 -5.707 L 31 -5.4 C 31 -5.179 30.821 -5 30.6 -5 L 30.293 -5 L 33.244 -2.049 C 33.595 -2.14 33.86 -2.405 33.951 -2.756 L 31 -5.707 Z"/>
<path fill="#777777" d="M 33.244 -93.951 L 29.293 -90 L 29.8 -90 C 29.91 -90 30 -89.911 30 -89.8 L 30 -89.293 L 33.951 -93.244 C 33.905 -93.42 33.831 -93.583 33.707 -93.707 C 33.583 -93.832 33.42 -93.906 33.244 -93.951 Z M 30 -6.707 L 30 -6.2 C 30 -6.09 29.91 -6 29.8 -6 L 29.293 -6 L 30.293 -5 L 30.6 -5 C 30.821 -5 31 -5.179 31 -5.4 L 31 -5.707 L 30 -6.707 Z"/>
<path fill="#EEEEEE" d="M -9.244 -93.951 C -9.595 -93.86 -9.86 -93.595 -9.951 -93.244 L -6 -89.293 L -6 -89.8 C -6 -89.911 -5.911 -90 -5.8 -90 L -5.293 -90 L -9.244 -93.951 Z M -6 -54.707 L -9.951 -50.756 C -9.906 -50.58 -9.832 -50.417 -9.707 -50.293 C -9.583 -50.169 -9.419 -50.095 -9.244 -50.049 L -5.292 -54 L -5.8 -54 C -5.911 -54 -6 -54.09 -6 -54.2 L -6 -54.707 Z M 5.01 -53.717 L 1.293 -50 L 1.6 -50 C 1.821 -50 2 -49.821 2 -49.6 L 2 -49.293 L 5.717 -53.01 C 5.631 -53.156 5.533 -53.295 5.414 -53.414 C 5.295 -53.534 5.156 -53.631 5.01 -53.717 Z M 6 -6.707 L 2.049 -2.756 C 2.094 -2.58 2.168 -2.417 2.293 -2.293 C 2.417 -2.169 2.581 -2.095 2.756 -2.049 L 6.708 -6 L 6.2 -6 C 6.089 -6 6 -6.09 6 -6.2 L 6 -6.707 Z"/>
</g>
<g id="shape6">
<path fill="#000000" d="M 3 -35 C 1.896 -35 1 -34.104 1 -33 L 1 -29 L 1 -7 L 7 -7 L 7 -29 L 41 -29 L 41 -7 L 47 -7 L 47 -29 L 47 -33 C 47 -34.104 46.104 -35 45 -35 Z M 1 -7 L 1 -3 C 1 -1.896 1.896 -1 3 -1 L 45 -1 C 46.104 -1 47 -1.896 47 -3 L 47 -7 Z"/>
<path fill="#555555" d="M 45.707 -33.707 L 41 -29 L 41 -7 L 46 -7 L 46 -29 L 46 -33 C 46 -33.276 45.888 -33.526 45.707 -33.707 Z M 7 -7 L 2.293 -2.293 C 2.474 -2.112 2.724 -2 3 -2 L 45 -2 C 45.553 -2 46 -2.447 46 -3 L 46 -7 Z"/>
<path fill="#777777" d="M 44.766 -32.765 L 41 -29 L 41 -7 L 45 -7 L 45 -29 L 45 -32.2 C 45 -32.421 44.91 -32.621 44.766 -32.765 Z M 7 -7 L 3.234 -3.234 C 3.379 -3.09 3.579 -3 3.8 -3 L 44.2 -3 C 44.642 -3 45 -3.358 45 -3.8 L 45 -7 Z"/>
<path fill="#888888" d="M 43.824 -31.824 L 41 -29 L 41 -7 L 44 -7 L 44 -29 L 44 -31.4 C 44 -31.566 43.933 -31.716 43.824 -31.824 Z M 7 -7 L 4.176 -4.176 C 4.284 -4.067 4.435 -4 4.6 -4 L 43.4 -4 C 43.731 -4 44 -4.269 44 -4.6 L 44 -7 Z"/>
<path fill="#AAAAAA" d="M 3 -34 C 2.448 -34 2 -33.552 2 -33 L 2 -29 L 2 -7 L 7 -7 L 7 -29 L 41 -29 L 41 -7 L 43 -7 L 43 -29 L 43 -30.6 C 43 -30.71 42.955 -30.81 42.883 -30.883 L 45.707 -33.707 C 45.526 -33.888 45.276 -34 45 -34 Z M 2 -7 L 2 -3 C 2 -2.724 2.112 -2.474 2.293 -2.293 L 5.117 -5.117 C 5.189 -5.045 5.29 -5 5.4 -5 L 42.6 -5 C 42.821 -5 43 -5.179 43 -5.4 L 43 -7 Z"/>
<path fill="#BBBBBB" d="M 3.8 -33 C 3.358 -33 3 -32.642 3 -32.2 L 3 -29 L 3 -7 L 7 -7 L 7 -29 L 41 -29 L 41 -29 L 44.766 -32.766 C 44.621 -32.91 44.421 -33 44.2 -33 Z M 3 -7 L 3 -3.8 C 3 -3.579 3.09 -3.379 3.234 -3.235 L 7 -7 Z"/>
<path fill="#DDDDDD" d="M 4.6 -32 C 4.269 -32 4 -31.731 4 -31.4 L 4 -29 L 4 -7 L 7 -7 L 7 -29 L 41 -29 L 41 -29 L 43.824 -31.824 C 43.716 -31.933 43.566 -32 43.4 -32 Z M 4 -7 L 4 -4.6 C 4 -4.434 4.067 -4.285 4.176 -4.176 L 7 -7 Z"/>
<path fill="#EEEEEE" d="M 5.4 -31 C 5.179 -31 5 -30.821 5 -30.6 L 5 -29 L 5 -7 L 7 -7 L 7 -29 L 41 -29 L 41 -29 L 42.883 -30.883 C 42.811 -30.955 42.71 -31 42.6 -31 Z M 5 -7 L 5 -5.4 C 5 -5.29 5.045 -5.189 5.117 -5.117 L 7 -7 Z"/>
<path fill="#CCCCCC" d="M 6.2 -30 C 6.089 -30 6 -29.911 6 -29.8 L 6 -29 L 6 -7 L 7 -7 L 7 -7 L 6 -7 L 6 -6.2 C 6 -6.09 6.089 -6 6.2 -6 L 41.8 -6 C 41.91 -6 42 -6.09 42 -6.2 L 42 -7 L 41 -7 L 41 -7 L 42 -7 L 42 -29 L 42 -29.8 C 42 -29.911 41.91 -30 41.8 -30 Z"/>
<path fill="#555555" d="M 43 -5.707 L 43 -5.4 C 43 -5.179 42.821 -5 42.6 -5 L 42.293 -5 L 45.244 -2.049 C 45.595 -2.14 45.86 -2.405 45.951 -2.756 L 43 -5.707 Z"/>
<path fill="#777777" d="M 45.244 -33.951 L 41.293 -30 L 41.8 -30 C 41.91 -30 42 -29.911 42 -29.8 L 42 -29.293 L 45.951 -33.244 C 45.905 -33.42 45.831 -33.583 45.707 -33.707 C 45.583 -33.832 45.42 -33.906 45.244 -33.951 Z M 42 -6.707 L 42 -6.2 C 42 -6.09 41.91 -6 41.8 -6 L 41.293 -6 L 42.293 -5 L 42.6 -5 C 42.821 -5 43 -5.179 43 -5.4 L 43 -5.707 L 42 -6.707 Z"/>
<path fill="#EEEEEE" d="M 2.756 -33.951 C 2.405 -33.86 2.14 -33.595 2.049 -33.244 L 6 -29.293 L 6 -29.8 C 6 -29.911 6.089 -30 6.2 -30 L 6.707 -30 L 2.756 -33.951 Z M 6 -6.707 L 2.049 -2.756 C 2.094 -2.58 2.168 -2.417 2.293 -2.293 C 2.417 -2.169 2.581 -2.095 2.756 -2.049 L 6.708 -6 L 6.2 -6 C 6.089 -6 6 -6.09 6 -6.2 L 6 -6.707 Z"/>
</g>
<g id="shape7">
<path fill="#000000" d="M 3 -35 C 1.896 -35 1 -34.104 1 -33 L 1 -29 L 1 -7 L 7 -7 L 7 -29 L 65 -29 L 65 -35 Z M 65 -35 L 65 -29 L 65 -7 L 71 -7 L 71 -29 L 71 -33 C 71 -34.104 70.104 -35 69 -35 Z M 1 -7 L 1 -3 C 1 -1.896 1.896 -1 3 -1 L 65 -1 L 65 -7 Z M 65 -7 L 65 -1 L 69 -1 C 70.104 -1 71 -1.896 71 -3 L 71 -7 Z"/>
<path fill="#555555" d="M 69.707 -33.707 L 65 -29 L 65 -7 L 70 -7 L 70 -29 L 70 -33 C 70 -33.276 69.888 -33.526 69.707 -33.707 Z M 7 -7 L 2.293 -2.293 C 2.474 -2.112 2.724 -2 3 -2 L 65 -2 L 65 -7 Z M 65 -7 L 65 -2 L 69 -2 C 69.553 -2 70 -2.447 70 -3 L 70 -7 Z"/>
<path fill="#777777" d="M 68.766 -32.765 L 65 -29 L 65 -7 L 69 -7 L 69 -29 L 69 -32.2 C 69 -32.421 68.91 -32.621 68.766 -32.765 Z M 7 -7 L 3.234 -3.234 C 3.379 -3.09 3.579 -3 3.8 -3 L 65 -3 L 65 -7 Z M 65 -7 L 65 -3 L 68.2 -3 C 68.642 -3 69 -3.358 69 -3.8 L 69 -7 Z"/>
<path fill="#888888" d="M 67.824 -31.824 L 65 -29 L 65 -7 L 68 -7 L 68 -29 L 68 -31.4 C 68 -31.566 67.933 -31.716 67.824 -31.824 Z M 7 -7 L 4.176 -4.176 C 4.284 -4.067 4.435 -4 4.6 -4 L 65 -4 L 65 -7 Z M 65 -7 L 65 -4 L 67.4 -4 C 67.731 -4 68 -4.269 68 -4.6 L 68 -7 Z"/>
<path fill="#AAAAAA" d="M 3 -34 C 2.448 -34 2 -33.552 2 -33 L 2 -29 L 2 -7 L 7 -7 L 7 -29 L 65 -29 L 65 -34 Z M 65 -34 L 65 -29 L 65 -7 L 67 -7 L 67 -29 L 67 -30.6 C 67 -30.71 66.955 -30.81 66.883 -30.883 L 69.707 -33.707 C 69.526 -33.888 69.276 -34 69 -34 Z M 65 -7 L 65 -5 L 66.6 -5 C 66.821 -5 67 -5.179 67 -5.4 L 67 -7 Z M 2 -7 L 2 -3 C 2 -2.724 2.112 -2.474 2.293 -2.293 L 5.117 -5.117 C 5.189 -5.045 5.29 -5 5.4 -5 L 65 -5 L 65 -7 Z"/>
<path fill="#BBBBBB" d="M 65 -33 L 65 -29 L 68.766 -32.766 C 68.621 -32.91 68.421 -33 68.2 -33 Z M 3.8 -33 C 3.358 -33 3 -32.642 3 -32.2 L 3 -29 L 3 -7 L 7 -7 L 7 -29 L 65 -29 L 65 -33 Z M 3 -7 L 3 -3.8 C 3 -3.579 3.09 -3.379 3.234 -3.235 L 7 -7 Z"/>
<path fill="#DDDDDD" d="M 65 -32 L 65 -29 L 67.824 -31.824 C 67.716 -31.933 67.566 -32 67.4 -32 Z M 4.6 -32 C 4.269 -32 4 -31.731 4 -31.4 L 4 -29 L 4 -7 L 7 -7 L 7 -29 L 65 -29 L 65 -32 Z M 4 -7 L 4 -4.6 C 4 -4.434 4.067 -4.285 4.176 -4.176 L 7 -7 Z"/>
<path fill="#EEEEEE" d="M 65 -31 L 65 -29 L 66.883 -30.883 C 66.811 -30.955 66.71 -31 66.6 -31 Z M 5.4 -31 C 5.179 -31 5 -30.821 5 -30.6 L 5 -29 L 5 -7 L 7 -7 L 7 -29 L 65 -29 L 65 -31 Z M 5 -7 L 5 -5.4 C 5 -5.29 5.045 -5.189 5.117 -5.117 L 7 -7 Z"/>
<path fill="#CCCCCC" d="M 6.2 -30 C 6.089 -30 6 -29.911 6 -29.8 L 6 -29 L 6 -7 L 7 -7 L 7 -7 L 6 -7 L 6 -6.2 C 6 -6.09 6.089 -6 6.2 -6 L 65 -6 L 65 -7 L 65 -7 L 65 -7 L 66 -7 L 66 -29 L 66 -29.8 C 66 -29.911 65.91 -30 65.8 -30 L 65 -30 L 65 -29 L 65 -29 L 65 -30 Z M 65 -7 L 65 -6 L 65.8 -6 C 65.91 -6 66 -6.09 66 -6.2 L 66 -7 Z"/>
<path fill="#555555" d="M 67 -5.707 L 67 -5.4 C 67 -5.179 66.821 -5 66.6 -5 L 66.293 -5 L 69.244 -2.049 C 69.595 -2.14 69.86 -2.405 69.951 -2.756 L 67 -5.707 Z"/>
<path fill="#777777" d="M 69.244 -33.951 L 65.293 -30 L 65.8 -30 C 65.91 -30 66 -29.911 66 -29.8 L 66 -29.293 L 69.951 -33.244 C 69.905 -33.42 69.831 -33.583 69.707 -33.707 C 69.583 -33.832 69.42 -33.906 69.244 -33.951 Z M 66 -6.707 L 66 -6.2 C 66 -6.09 65.91 -6 65.8 -6 L 65.293 -6 L 66.293 -5 L 66.6 -5 C 66.821 -5 67 -5.179 67 -5.4 L 67 -5.707 L 66 -6.707 Z"/>
<path fill="#EEEEEE" d="M 2.756 -33.951 C 2.405 -33.86 2.14 -33.595 2.049 -33.244 L 6 -29.293 L 6 -29.8 C 6 -29.911 6.089 -30 6.2 -30 L 6.707 -30 L 2.756 -33.951 Z M 6 -6.707 L 2.049 -2.756 C 2.094 -2.58 2.168 -2.417 2.293 -2.293 C 2.417 -2.169 2.581 -2.095 2.756 -2.049 L 6.708 -6 L 6.2 -6 C 6.089 -6 6 -6.09 6 -6.2 L 6 -6.707 Z"/>
</g>
</defs>
<g class="keyboard">
<g class="key">
<use xlink:href="#shape0" transform="translate(0 0)"/>
<text x="36" y="-20.6" text-anchor="middle" font-family="Arial" font-size="11.333" fill="#000000">control</text>
</g>
<g class="key">
<use xlink:href="#shape0" transform="translate(72 0)"/>
<text x="108" y="-20.6" text-anchor="middle" font-family="Arial" font-size="11.333" fill="#000000">option</text>
</g>
<g class="key">
<use xlink:href="#shape1" transform="translate(144 0)"/>
<text x="186" y="-20.6" text-anchor="middle" font-family="Arial" font-size="11.333" fill="#000000">&#8984;</text>
</g>
<g class="key">
<use xlink:href="#shape2" transform="translate(228 0)"/>
</g>
<g class="key">
<use xlink:href="#shape3" transform="translate(504 0)"/>
<text x="528" y="-20.6" text-anchor="middle" font-family="Arial" font-size="11.333" fill="#000000">enter</text>
</g>
<g class="key">
<use xlink:href="#shape3" transform="translate(552 0)"/>
<text x="576" y="-20.6" text-anchor="middle" font-family="Arial" font-size="11.333" fill="#000000">&#8592;</text>
</g>
<g class="key">
<use xlink:href="#shape3" transform="translate(600 0)"/>
<text x="624" y="-20.6" text-anchor="middle" font-family="Arial" font-size="11.333" fill="#000000">&#8594;</text>
</g>
<g class="key">
<use xlink:href="#shape3" transform="translate(648 0)"/>
<text x="672" y="-20.6" text-anchor="middle" font-family="Arial" font-size="11.333" fill="#000000">&#8595;</text>
</g>
<g class="key">
<use xlink:href="#shape4" transform="translate(0 -48)"/>
<text x="30" y="-68.6" text-anchor="middle" font-family="Arial" font-size="11.333" fill="#000000">shift</text>
</g>
<g class="key">
<use xlink:href="#shape3" transform="translate(60 -48)"/>
<text x="84" y="-59.42" text-anchor="middle" font-family="Arial" font-size="13.6" fill="#000000">`</text>
<text x="84" y="-76.42" text-anchor="middle" font-family="Arial" font-size="13.6" fill="#000000">~</text>
</g>
<g class="key">
<use xlink:href="#shape3" transform="translate(108 -48)"/>
<text x="132" y="-66.9" text-anchor="middle" font-family="Arial" font-size="17" fill="#000000">Z</text>
</g>
<g class="key">
<use xlink:href="#shape3" transform="translate(156 -48)"/>
<text x="180" y="-66.9" text-anchor="middle" font-family="Arial" font-size="17" fill="#000000">X</text>
</g>
<g class="key">
<use xlink:href="#shape3" transform="translate(204 -48)"/>
<text x="228" y="-66.9" text-anchor="middle" font-family="Arial" font-size="17" fill="#000000">C</text>
</g>
<g class="key">
<use xlink:href="#shape3" transform="translate(252 -48)"/>
<text x="276" y="-66.9" text-anchor="middle" font-family="Arial" font-size="17" fill="#000000">V</text>
</g>
<g class="key">
<use xlink:href="#shape3" transform="translate(300 -48)"/>
<text x="324" y="-66.9" text-anchor="middle" font-family="Arial" font-size="17" fill="#000000">B</text>
</g>
<g class="key">
<use xlink:href="#shape3" transform="translate(348 -48)"/>
<text x="372" y="-66.9" text-anchor="middle" font-family="Arial" font-size="17" fill="#000000">N</text>
</g>
<g class="key">
<use xlink:href="#shape3" transform="translate(396 -48)"/>
<text x="420" y="-66.9" text-anchor="middle" font-family="Arial" font-size="17" fill="#000000">M</text>
</g>
<g class="key">
<use xlink:href="#shape3" transform="translate(444 -48)"/>
<text x="468" y="-59.42" text-anchor="middle" font-family="Arial" font-size="13.6" fill="#000000">,</text>
<text x="468" y="-76.42" text-anchor="middle" font-family="Arial" font-size="13.6" fill="#000000">&lt;</text>
</g>
<g class="key">
<use xlink:href="#shape3" transform="translate(492 -48)"/>
<text x="516" y="-59.42" text-anchor="middle" font-family="Arial" font-size="13.6" fill="#000000">.</text>
<text x="516" y="-76.42" text-anchor="middle" font-family="Arial" font-size="13.6" fill="#000000">&gt;</text>
</g>
<g class="key">
<use xlink:href="#shape3" transform="translate(540 -48)"/>
<text x="564" y="-59.42" text-anchor="middle" font-family="Arial" font-size="13.6" fill="#000000">/</text>
<text x="564" y="-76.42" text-anchor="middle" font-family="Arial" font-size="13.6" fill="#000000">?</text>
</g>
<g class="key">
<use xlink:href="#shape4" transform="translate(588 -48)"/>
<text x="618" y="-68.6" text-anchor="middle" font-family="Arial" font-size="11.333" fill="#000000">shift</text>
</g>
<g class="key">
<use xlink:href="#shape3" transform="translate(648 -48)"/>
<text x="672" y="-68.6" text-anchor="middle" font-family="Arial" font-size="11.333" fill="#000000">&#8593;</text>
</g>
<g class="key">
<use xlink:href="#shape1" transform="translate(0 -96)"/>
<text x="42" y="-116.6" text-anchor="middle" font-family="Arial" font-size="11.333" fill="#000000">caps lock</text>
</g>
<g class="key">
<use xlink:href="#shape3" transform="translate(84 -96)"/>
<text x="108" y="-114.9" text-anchor="middle" font-family="Arial" font-size="17" fill="#000000">A</text>
</g>
<g class="key">
<use xlink:href="#shape3" transform="translate(132 -96)"/>
<text x="156" y="-114.9" text-anchor="middle" font-family="Arial" font-size="17" fill="#000000">S</text>
</g>
<g class="key">
<use xlink:href="#shape3" transform="translate(180 -96)"/>
<text x="204" y="-114.9" text-anchor="middle" font-family="Arial" font-size="17" fill="#000000">D</text>
</g>
<g class="key">
<use xlink:href="#shape3" transform="translate(228 -96)"/>
<text x="252" y="-114.9" text-anchor="middle" font-family="Arial" font-size="17" fill="#000000">F</text>
</g>
<g class="key">
<use xlink:href="#shape3" transform="translate(276 -96)"/>
<text x="300" y="-114.9" text-anchor="middle" font-family="Arial" font-size="17" fill="#000000">G</text>
</g>
<g class="key">
<use xlink:href="#shape3" transform="translate(324 -96)"/>
<text x="348" y="-114.9" text-anchor="middle" font-family="Arial" font-size="17" fill="#000000">H</text>
</g>
<g class="key">
<use xlink:href="#shape3" transform="translate(372 -96)"/>
<text x="396" y="-114.9" text-anchor="middle" font-family="Arial" font-size="17" fill="#000000">J</text>
</g>
<g class="key">
<use xlink:href="#shape3" transform="translate(420 -96)"/>
<text x="444" y="-114.9" text-anchor="middle" font-family="Arial" font-size="17" fill="#000000">K</text>
</g>
<g class="key">
<use xlink:href="#shape3" transform="translate(468 -96)"/>
<text x="492" y="-114.9" text-anchor="middle" font-family="Arial" font-size="17" fill="#000000">L</text>
</g>
<g class="key">
<use xlink:href="#shape3" transform="translate(516 -96)"/>
<text x="540" y="-107.42" text-anchor="middle" font-family="Arial" font-size="13.6" fill="#000000">;</text>
<text x="540" y="-124.42" text-anchor="middle" font-family="Arial" font-size="13.6" fill="#000000">:</text>
</g>
<g class="key">
<use xlink:href="#shape3" transform="translate(564 -96)"/>
<text x="588" y="-107.42" text-anchor="middle" font-family="Arial" font-size="13.6" fill="#000000">&#39;</text>
<text x="588" y="-124.42" text-anchor="middle" font-family="Arial" font-size="13.6" fill="#000000">&#34;</text>
</g>
<g class="key">
<use xlink:href="#shape3" transform="translate(612 -96)"/>
<text x="636" y="-107.42" text-anchor="middle" font-family="Arial" font-size="13.6" fill="#000000">\</text>
<text x="636" y="-124.42" text-anchor="middle" font-family="Arial" font-size="13.6" fill="#000000">|</text>
</g>
<g class="key">
<use xlink:href="#shape5" transform="translate(660 -96)"/>
<text x="672" y="-164.6" text-anchor="middle" font-family="Arial" font-size="11.333" fill="#000000">return</text>
</g>
<g class="key">
<use xlink:href="#shape0" transform="translate(0 -144)"/>
<text x="36" y="-164.6" text-anchor="middle" font-family="Arial" font-size="11.333" fill="#000000">tab</text>
</g>
<g class="key">
<use xlink:href="#shape3" transform="translate(72 -144)"/>
<text x="96" y="-162.9" text-anchor="middle" font-family="Arial" font-size="17" fill="#000000">Q</text>
</g>
<g class="key">
<use xlink:href="#shape3" transform="translate(120 -144)"/>
<text x="144" y="-162.9" text-anchor="middle" font-family="Arial" font-size="17" fill="#000000">W</text>
</g>
<g class="key">
<use xlink:href="#shape3" transform="translate(168 -144)"/>
<text x="192" y="-162.9" text-anchor="middle" font-family="Arial" font-size="17" fill="#000000">E</text>
</g>
<g class="key">
<use xlink:href="#shape3" transform="translate(216 -144)"/>
<text x="240" y="-162.9" text-anchor="middle" font-family="Arial" font-size="17" fill="#000000">R</text>
</g>
<g class="key">
<use xlink:href="#shape3" transform="translate(264 -144)"/>
<text x="288" y="-162.9" text-anchor="middle" font-family="Arial" font-size="17" fill="#000000">T</text>
</g>
<g class="key">
<use xlink:href="#shape3" transform="translate(312 -144)"/>
<text x="336" y="-162.9" text-anchor="middle" font-family="Arial" font-size="17" fill="#000000">Y</text>
</g>
<g class="key">
<use xlink:href="#shape3" transform="translate(360 -144)"/>
<text x="384" y="-162.9" text-anchor="middle" font-family="Arial" font-size="17" fill="#000000">U</text>
</g>
<g class="key">
<use xlink:href="#shape3" transform="translate(408 -144)"/>
<text x="432" y="-162.9" text-anchor="middle" font-family="Arial" font-size="17" fill="#000000">I</text>
</g>
<g class="key">
<use xlink:href="#shape3" transform="translate(456 -144)"/>
<text x="480" y="-162.9" text-anchor="middle" font-family="Arial" font-size="17" fill="#000000">O</text>
</g>
<g class="key">
<use xlink:href="#shape3" transform="translate(504 -144)"/>
<text x="528" y="-162.9" text-anchor="middle" font-family="Arial" font-size="17" fill="#000000">P</text>
</g>
<g class="key">
<use xlink:href="#shape3" transform="translate(552 -144)"/>
<text x="576" y="-155.42" text-anchor="middle" font-family="Arial" font-size="13.6" fill="#000000">[</text>
<text x="576" y="-172.42" text-anchor="middle" font-family="Arial" font-size="13.6" fill="#000000">{</text>
</g>
<g class="key">
<use xlink:href="#shape3" transform="translate(600 -144)"/>
<text x="624" y="-155.42" text-anchor="middle" font-family="Arial" font-size="13.6" fill="#000000">]</text>
<text x="624" y="-172.42" text-anchor="middle" font-family="Arial" font-size="13.6" fill="#000000">}</text>
</g>
<g class="key">
<use xlink:href="#shape3" transform="translate(0 -192)"/>
<text x="24" y="-203.42" text-anchor="middle" font-family="Arial" font-size="13.6" fill="#000000">&#167;</text>
<text x="24" y="-220.42" text-anchor="middle" font-family="Arial" font-size="13.6" fill="#000000">&#177;</text>
</g>
<g class="key">
<use xlink:href="#shape3" transform="translate(48 -192)"/>
<text x="72" y="-203.42" text-anchor="middle" font-family="Arial" font-size="13.6" fill="#000000">1</text>
<text x="72" y="-220.42" text-anchor="middle" font-family="Arial" font-size="13.6" fill="#000000">!</text>
</g>
<g class="key">
<use xlink:href="#shape3" transform="translate(96 -192)"/>
<text x="120" y="-203.42" text-anchor="middle" font-family="Arial" font-size="13.6" fill="#000000">2</text>
<text x="120" y="-220.42" text-anchor="middle" font-family="Arial" font-size="13.6" fill="#000000">@</text>
</g>
<g class="key">
<use xlink:href="#shape3" transform="translate(144 -192)"/>
<text x="168" y="-203.42" text-anchor="middle" font-family="Arial" font-size="13.6" fill="#000000">3</text>
<text x="168" y="-220.42" text-anchor="middle" font-family="Arial" font-size="13.6" fill="#000000">#</text>
</g>
<g class="key">
<use xlink:href="#shape3" transform="translate(192 -192)"/>
<text x="216" y="-203.42" text-anchor="middle" font-family="Arial" font-size="13.6" fill="#000000">4</text>
<text x="216" y="-220.42" text-anchor="middle" font-family="Arial" font-size="13.6" fill="#000000">$</text>
</g>
<g class="key">
<use xlink:href="#shape3" transform="translate(240 -192)"/>
<text x="264" y="-203.42" text-anchor="middle" font-family="Arial" font-size="13.6" fill="#000000">5</text>
<text x="264" y="-220.42" text-anchor="middle" font-family="Arial" font-size="13.6" fill="#000000">%</text>
</g>
<g class="key">
<use xlink:href="#shape3" transform="translate(288 -192)"/>
<text x="312" y="-203.42" text-anchor="middle" font-family="Arial" font-size="13.6" fill="#000000">6</text>
<text x="312" y="-220.42" text-anchor="middle" font-family="Arial" font-size="13.6" fill="#000000">^</text>
</g>
<g class="key">
<use xlink:href="#shape3" transform="translate(336 -192)"/>
<text x="360" y="-203.42" text-anchor="middle" font-family="Arial" font-size="13.6" fill="#000000">7</text>
<text x="360" y="-220.42" text-anchor="middle" font-family="Arial" font-size="13.6" fill="#000000">&amp;</text>
</g>
<g class="key">
<use xlink:href="#shape3" transform="translate(384 -192)"/>
<text x="408" y="-203.42" text-anchor="middle" font-family="Arial" font-size="13.6" fill="#000000">8</text>
<text x="408" y="-220.42" text-anchor="middle" font-family="Arial" font-size="13.6" fill="#000000">*</text>
</g>
<g class="key">
<use xlink:href="#shape3" transform="translate(432 -192)"/>
<text x="456" y="-203.42" text-anchor="middle" font-family="Arial" font-size="13.6" fill="#000000">9</text>
<text x="456" y="-220.42" text-anchor="middle" font-family="Arial" font-size="13.6" fill="#000000">(</text>
</g>
<g class="key">
<use xlink:href="#shape3" transform="translate(480 -192)"/>
<text x="504" y="-203.42" text-anchor="middle" font-family="Arial" font-size="13.6" fill="#000000">0</text>
<text x="504" y="-220.42" text-anchor="middle" font-family="Arial" font-size="13.6" fill="#000000">)</text>
</g>
<g class="key">
<use xlink:href="#shape3" transform="translate(528 -192)"/>
<text x="552" y="-203.42" text-anchor="middle" font-family="Arial" font-size="13.6" fill="#000000">&#8722;</text>
<text x="552" y="-220.42" text-anchor="middle" font-family="Arial" font-size="13.6" fill="#000000">_</text>
</g>
<g class="key">
<use xlink:href="#shape3" transform="translate(576 -192)"/>
<text x="600" y="-203.42" text-anchor="middle" font-family="Arial" font-size="13.6" fill="#000000">=</text>
<text x="600" y="-220.42" text-anchor="middle" font-family="Arial" font-size="13.6" fill="#000000">+</text>
</g>
<g class="key">
<use xlink:href="#shape0" transform="translate(624 -192)"/>
<text x="660" y="-212.6" text-anchor="middle" font-family="Arial" font-size="11.333" fill="#000000">delete</text>
</g>
<g class="key">
<use xlink:href="#shape6" transform="translate(0 -240)"/>
<text x="24" y="-254.6" text-anchor="middle" font-family="Arial" font-size="11.333" fill="#000000">esc</text>
</g>
<g class="key">
<use xlink:href="#shape6" transform="translate(48 -240)"/>
<text x="72" y="-254.6" text-anchor="middle" font-family="Arial" font-size="11.333" fill="#000000">F1</text>
</g>
<g class="key">
<use xlink:href="#shape6" transform="translate(96 -240)"/>
<text x="120" y="-254.6" text-anchor="middle" font-family="Arial" font-size="11.333" fill="#000000">F2</text>
</g>
<g class="key">
<use xlink:href="#shape6" transform="translate(144 -240)"/>
<text x="168" y="-254.6" text-anchor="middle" font-family="Arial" font-size="11.333" fill="#000000">F3</text>
</g>
<g class="key">
<use xlink:href="#shape6" transform="translate(192 -240)"/>
<text x="216" y="-254.6" text-anchor="middle" font-family="Arial" font-size="11.333" fill="#000000">F4</text>
</g>
<g class="key">
<use xlink:href="#shape6" transform="translate(240 -240)"/>
<text x="264" y="-254.6" text-anchor="middle" font-family="Arial" font-size="11.333" fill="#000000">F5</text>
</g>
<g class="key">
<use xlink:href="#shape6" transform="translate(288 -240)"/>
<text x="312" y="-254.6" text-anchor="middle" font-family="Arial" font-size="11.333" fill="#000000">F6</text>
</g>
<g class="key">
<use xlink:href="#shape6" transform="translate(336 -240)"/>
<text x="360" y="-254.6" text-anchor="middle" font-family="Arial" font-size="11.333" fill="#000000">F7</text>
</g>
<g class="key">
<use xlink:href="#shape6" transform="translate(384 -240)"/>
<text x="408" y="-254.6" text-anchor="middle" font-family="Arial" font-size="11.333" fill="#000000">F8</text>
</g>
<g class="key">
<use xlink:href="#shape6" transform="translate(432 -240)"/>
<text x="456" y="-254.6" text-anchor="middle" font-family="Arial" font-size="11.333" fill="#000000">F9</text>
</g>
<g class="key">
<use xlink:href="#shape6" transform="translate(480 -240)"/>
<text x="504" y="-254.6" text-anchor="middle" font-family="Arial" font-size="11.333" fill="#000000">F10</text>
</g>
<g class="key">
<use xlink:href="#shape6" transform="translate(528 -240)"/>
<text x="552" y="-254.6" text-anchor="middle" font-family="Arial" font-size="11.333" fill="#000000">F11</text>
</g>
<g class="key">
<use xlink:href="#shape6" transform="translate(576 -240)"/>
<text x="600" y="-254.6" text-anchor="middle" font-family="Arial" font-size="11.333" fill="#000000">F12</text>
</g>
<g class="key">
<use xlink:href="#shape7" transform="translate(624 -240)"/>
<text x="660" y="-254.6" text-anchor="middle" font-family="Arial" font-size="11.333" fill="#000000">&#9665;</text>
</g>
</g>
</svg>

