<?xml version="1.0"?>
<svg xmlns="http://www.w3.org/2000/svg" xmlns:xlink="http://www.w3.org/1999/xlink" version="1.1" width="1296" height="324" viewBox="0 -324 1296 324">
<defs>
<g id="shape0">
<path d="M 6 -54 C 2.686 -54 0 -51.314 0 -48 L 0 -6 C 0 -2.686 2.686 0 6 0 L 75 0 C 78.314 0 81 -2.686 81 -6 L 81 -48 C 81 -51.314 78.314 -54 75 -54 Z" fill="#000000"/>
<path d="M 6 -53 C 3.239 -53 1 -50.761 1 -48 L 1 -6 C 1 -3.239 3.239 -1 6 -1 L 75 -1 C 77.761 -1 80 -3.239 80 -6 L 80 -48 C 80 -50.761 77.761 -53 75 -53 Z" fill="#dadada"/>
<path d="M 6 -52 C 3.791 -52 2 -50.209 2 -48 L 2 -6 C 2 -3.791 3.791 -2 6 -2 L 75 -2 C 77.209 -2 79 -3.791 79 -6 L 79 -48 C 79 -50.209 77.209 -52 75 -52 Z" fill="#f2f2f2"/>
<path d="M 12 -51 C 10.343 -51 9 -49.657 9 -48 L 9 -18 C 9 -16.343 10.343 -15 12 -15 L 69 -15 C 70.657 -15 72 -16.343 72 -18 L 72 -48 C 72 -49.657 70.657 -51 69 -51 Z" fill="#dadada"/>
<path d="M 12 -50 C 10.895 -50 10 -49.105 10 -48 L 10 -18 C 10 -16.895 10.895 -16 12 -16 L 69 -16 C 70.105 -16 71 -16.895 71 -18 L 71 -48 C 71 -49.105 70.105 -50 69 -50 Z" fill="#ffffff"/>
</g>
<g id="shape1">
<path d="M 6 -54 C 2.686 -54 0 -51.314 0 -48 L 0 -6 C 0 -2.686 2.686 0 6 0 L 88.5 0 C 91.814 0 94.5 -2.686 94.5 -6 L 94.5 -48 C 94.5 -51.314 91.814 -54 88.5 -54 Z" fill="#000000"/>
<path d="M 6 -53 C 3.239 -53 1 -50.761 1 -48 L 1 -6 C 1 -3.239 3.239 -1 6 -1 L 88.5 -1 C 91.261 -1 93.5 -3.239 93.5 -6 L 93.5 -48 C 93.5 -50.761 91.261 -53 88.5 -53 Z" fill="#dadada"/>
<path d="M 6 -52 C 3.791 -52 2 -50.209 2 -48 L 2 -6 C 2 -3.791 3.791 -2 6 -2 L 88.5 -2 C 90.709 -2 92.5 -3.791 92.5 -6 L 92.5 -48 C 92.5 -50.209 90.709 -52 88.5 -52 Z" fill="#f2f2f2"/>
<path d="M 12 -51 C 10.343 -51 9 -49.657 9 -48 L 9 -18 C 9 -16.343 10.343 -15 12 -15 L 82.5 -15 C 84.157 -15 85.5 -16.343 85.5 -18 L 85.5 -48 C 85.5 -49.657 84.157 -51 82.5 -51 Z" fill="#dadada"/>
<path d="M 12 -50 C 10.895 -50 10 -49.105 10 -48 L 10 -18 C 10 -16.895 10.895 -16 12 -16 L 82.5 -16 C 83.605 -16 84.5 -16.895 84.5 -18 L 84.5 -48 C 84.5 -49.105 83.605 -50 82.5 -50 Z" fill="#ffffff"/>
</g>
<g id="shape2">
<path d="M 6 -54 C 2.686 -54 0 -51.314 0 -48 L 0 -6 C 0 -2.686 2.686 0 6 0 L 480 0 C 483.314 0 486 -2.686 486 -6 L 486 -48 C 486 -51.314 483.314 -54 480 -54 Z" fill="#000000"/>
<path d="M 6 -53 C 3.239 -53 1 -50.761 1 -48 L 1 -6 C 1 -3.239 3.239 -1 6 -1 L 480 -1 C 482.761 -1 485 -3.239 485 -6 L 485 -48 C 485 -50.761 482.761 -53 480 -53 Z" fill="#dadada"/>
<path d="M 6 -52 C 3.791 -52 2 -50.209 2 -48 L 2 -6 C 2 -3.791 3.791 -2 6 -2 L 480 -2 C 482.209 -2 484 -3.791 484 -6 L 484 -48 C 484 -50.209 482.209 -52 480 -52 Z" fill="#f2f2f2"/>
<path d="M 12 -51 C 10.343 -51 9 -49.657 9 -48 L 9 -18 C 9 -16.343 10.343 -15 12 -15 L 474 -15 C 475.657 -15 477 -16.343 477 -18 L 477 -48 C 477 -49.657 475.657 -51 474 -51 Z" fill="#dadada"/>
<path d="M 12 -50 C 10.895 -50 10 -49.105 10 -48 L 10 -18 C 10 -16.895 10.895 -16 12 -16 L 474 -16 C 475.105 -16 476 -16.895 476 -18 L 476 -48 C 476 -49.105 475.105 -50 474 -50 Z" fill="#ffffff"/>
</g>
<g id="shape3">
<path d="M 6 -54 C 2.686 -54 0 -51.314 0 -48 L 0 -6 C 0 -2.686 2.686 0 6 0 L 48 0 C 51.314 0 54 -2.686 54 -6 L 54 -48 C 54 -51.314 51.314 -54 48 -54 Z" fill="#000000"/>
<path d="M 6 -53 C 3.239 -53 1 -50.761 1 -48 L 1 -6 C 1 -3.239 3.239 -1 6 -1 L 48 -1 C 50.761 -1 53 -3.239 53 -6 L 53 -48 C 53 -50.761 50.761 -53 48 -53 Z" fill="#dadada"/>
<path d="M 6 -52 C 3.791 -52 2 -50.209 2 -48 L 2 -6 C 2 -3.791 3.791 -2 6 -2 L 48 -2 C 50.209 -2 52 -3.791 52 -6 L 52 -48 C 52 -50.209 50.209 -52 48 -52 Z" fill="#f2f2f2"/>
<path d="M 12 -51 C 10.343 -51 9 -49.657 9 -48 L 9 -18 C 9 -16.343 10.343 -15 12 -15 L 42 -15 C 43.657 -15 45 -16.343 45 -18 L 45 -48 C 45 -49.657 43.657 -51 42 -51 Z" fill="#dadada"/>
<path d="M 12 -50 C 10.895 -50 10 -49.105 10 -48 L 10 -18 C 10 -16.895 10.895 -16 12 -16 L 42 -16 C 43.105 -16 44 -16.895 44 -18 L 44 -48 C 44 -49.105 43.105 -50 42 -50 Z" fill="#ffffff"/>
</g>
<g id="shape4">
<path d="M 6 -54 C 2.686 -54 0 -51.314 0 -48 L 0 -6 C 0 -2.686 2.686 0 6 0 L 115.5 0 C 118.814 0 121.5 -2.686 121.5 -6 L 121.5 -48 C 121.5 -51.314 118.814 -54 115.5 -54 Z" fill="#000000"/>
<path d="M 6 -53 C 3.239 -53 1 -50.761 1 -48 L 1 -6 C 1 -3.239 3.239 -1 6 -1 L 115.5 -1 C 118.261 -1 120.5 -3.239 120.5 -6 L 120.5 -48 C 120.5 -50.761 118.261 -53 115.5 -53 Z" fill="#dadada"/>
<path d="M 6 -52 C 3.791 -52 2 -50.209 2 -48 L 2 -6 C 2 -3.791 3.791 -2 6 -2 L 115.5 -2 C 117.709 -2 119.5 -3.791 119.5 -6 L 119.5 -48 C 119.5 -50.209 117.709 -52 115.5 -52 Z" fill="#f2f2f2"/>
<path d="M 12 -51 C 10.343 -51 9 -49.657 9 -48 L 9 -18 C 9 -16.343 10.343 -15 12 -15 L 109.5 -15 C 111.157 -15 112.5 -16.343 112.5 -18 L 112.5 -48 C 112.5 -49.657 111.157 -51 109.5 -51 Z" fill="#dadada"/>
<path d="M 12 -50 C 10.895 -50 10 -49.105 10 -48 L 10 -18 C 10 -16.895 10.895 -16 12 -16 L 109.5 -16 C 110.605 -16 111.5 -16.895 111.5 -18 L 111.5 -48 C 111.5 -49.105 110.605 -50 109.5 -50 Z" fill="#ffffff"/>
</g>
<g id="shape5">
<path d="M 6 -54 C 2.686 -54 0 -51.314 0 -48 L 0 -6 C 0 -2.686 2.686 0 6 0 L 102 0 C 105.314 0 108 -2.686 108 -6 L 108 -48 C 108 -51.314 105.314 -54 102 -54 Z" fill="#000000"/>
<path d="M 6 -53 C 3.239 -53 1 -50.761 1 -48 L 1 -6 C 1 -3.239 3.239 -1 6 -1 L 102 -1 C 104.761 -1 107 -3.239 107 -6 L 107 -48 C 107 -50.761 104.761 -53 102 -53 Z" fill="#dadada"/>
<path d="M 6 -52 C 3.791 -52 2 -50.209 2 -48 L 2 -6 C 2 -3.791 3.791 -2 6 -2 L 102 -2 C 104.209 -2 106 -3.791 106 -6 L 106 -48 C 106 -50.209 104.209 -52 102 -52 Z" fill="#f2f2f2"/>
<path d="M 12 -51 C 10.343 -51 9 -49.657 9 -48 L 9 -18 C 9 -16.343 10.343 -15 12 -15 L 96 -15 C 97.657 -15 99 -16.343 99 -18 L 99 -48 C 99 -49.657 97.657 -51 96 -51 Z" fill="#dadada"/>
<path d="M 12 -50 C 10.895 -50 10 -49.105 10 -48 L 10 -18 C 10 -16.895 10.895 -16 12 -16 L 96 -16 C 97.105 -16 98 -16.895 98 -18 L 98 -48 C 98 -49.105 97.105 -50 96 -50 Z" fill="#ffffff"/>
</g>
<g id="shape6">
<path d="M 6 -54 C 2.686 -54 0 -51.314 0 -48 L 0 -6 C 0 -2.686 2.686 0 6 0 L 61.5 0 C 64.814 0 67.5 -2.686 67.5 -6 L 67.5 -48 C 67.5 -51.314 64.814 -54 61.5 -54 Z" fill="#000000"/>
<path d="M 6 -53 C 3.239 -53 1 -50.761 1 -48 L 1 -6 C 1 -3.239 3.239 -1 6 -1 L 61.5 -1 C 64.261 -1 66.5 -3.239 66.5 -6 L 66.5 -48 C 66.5 -50.761 64.261 -53 61.5 -53 Z" fill="#dadada"/>
<path d="M 6 -52 C 3.791 -52 2 -50.209 2 -48 L 2 -6 C 2 -3.791 3.791 -2 6 -2 L 61.5 -2 C 63.709 -2 65.5 -3.791 65.5 -6 L 65.5 -48 C 65.5 -50.209 63.709 -52 61.5 -52 Z" fill="#f2f2f2"/>
<path d="M 12 -51 C 10.343 -51 9 -49.657 9 -48 L 9 -18 C 9 -16.343 10.343 -15 12 -15 L 55.5 -15 C 57.157 -15 58.5 -16.343 58.5 -18 L 58.5 -48 C 58.5 -49.657 57.157 -51 55.5 -51 Z" fill="#dadada"/>
<path d="M 12 -50 C 10.895 -50 10 -49.105 10 -48 L 10 -18 C 10 -16.895 10.895 -16 12 -16 L 55.5 -16 C 56.605 -16 57.5 -16.895 57.5 -18 L 57.5 -48 C 57.5 -49.105 56.605 -50 55.5 -50 Z" fill="#ffffff"/>
</g>
</defs>
<g class="keyboard">
<g class="key">
<use xlink:href="#shape0" transform="translate(0 0)"/>
<text x="40.5" y="-30" text-anchor="middle" font-family="Arial" font-size="10" fill="#000000">HYPER</text>
</g>
<g class="key">
<use xlink:href="#shape0" transform="translate(81 0)"/>
<text x="121.5" y="-30" text-anchor="middle" font-family="Arial" font-size="10" fill="#000000">SUPER</text>
</g>
<g class="key">
<use xlink:href="#shape0" transform="translate(162 0)"/>
<text x="202.5" y="-30" text-anchor="middle" font-family="Arial" font-size="10" fill="#000000">META</text>
</g>
<g class="key">
<use xlink:href="#shape1" transform="translate(243 0)"/>
<text x="290.25" y="-30" text-anchor="middle" font-family="Arial" font-size="10" fill="#000000">CTRL</text>
</g>
<g class="key">
<use xlink:href="#shape2" transform="translate(364.5 0)"/>
</g>
<g class="key">
<use xlink:href="#shape1" transform="translate(877.5 0)"/>
<text x="924.75" y="-30" text-anchor="middle" font-family="Arial" font-size="10" fill="#000000">CTRL</text>
</g>
<g class="key">
<use xlink:href="#shape0" transform="translate(1053 0)"/>
<text x="1093.5" y="-30" text-anchor="middle" font-family="Arial" font-size="10" fill="#000000">META</text>
</g>
<g class="key">
<use xlink:href="#shape0" transform="translate(1134 0)"/>
<text x="1174.5" y="-30" text-anchor="middle" font-family="Arial" font-size="10" fill="#000000">SUPER</text>
</g>
<g class="key">
<use xlink:href="#shape0" transform="translate(1215 0)"/>
<text x="1255.5" y="-30" text-anchor="middle" font-family="Arial" font-size="10" fill="#000000">HYPER</text>
</g>
<g class="key">
<use xlink:href="#shape3" transform="translate(0 -54)"/>
<text x="27" y="-89" text-anchor="middle" font-family="Arial" font-size="10" fill="#000000">CAPS</text>
<text x="27" y="-79" text-anchor="middle" font-family="Arial" font-size="10" fill="#000000">LOCK</text>
</g>
<g class="key">
<use xlink:href="#shape0" transform="translate(54 -54)"/>
<text x="94.5" y="-84" text-anchor="middle" font-family="Arial" font-size="10" fill="#000000">TOP</text>
</g>
<g class="key">
<use xlink:href="#shape0" transform="translate(135 -54)"/>
<text x="175.5" y="-84" text-anchor="middle" font-family="Arial" font-size="10" fill="#000000">GREEK</text>
</g>
<g class="key">
<use xlink:href="#shape4" transform="translate(216 -54)"/>
<text x="276.75" y="-84" text-anchor="middle" font-family="Arial" font-size="10" fill="#000000">SHIFT</text>
</g>
<g class="key">
<use xlink:href="#shape3" transform="translate(337.5 -54)"/>
<text x="364.5" y="-75.9" text-anchor="middle" font-family="Arial" font-size="12" fill="#000000">Z</text>
<text x="364.5" y="-90.9" text-anchor="middle" font-family="Arial" font-size="12" fill="#000000">&#8970;</text>
</g>
<g class="key">
<use xlink:href="#shape3" transform="translate(391.5 -54)"/>
<text x="418.5" y="-75.9" text-anchor="middle" font-family="Arial" font-size="12" fill="#000000">X</text>
<text x="418.5" y="-90.9" text-anchor="middle" font-family="Arial" font-size="12" fill="#000000">&#8968;</text>
</g>
<g class="key">
<use xlink:href="#shape3" transform="translate(445.5 -54)"/>
<text x="472.5" y="-75.9" text-anchor="middle" font-family="Arial" font-size="12" fill="#000000">C</text>
<text x="472.5" y="-90.9" text-anchor="middle" font-family="Arial" font-size="12" fill="#000000">&#8800;</text>
</g>
<g class="key">
<use xlink:href="#shape3" transform="translate(499.5 -54)"/>
<text x="526.5" y="-75.9" text-anchor="middle" font-family="Arial" font-size="12" fill="#000000">V</text>
<text x="526.5" y="-90.9" text-anchor="middle" font-family="Arial" font-size="12" fill="#000000">&#8771;</text>
</g>
<g class="key">
<use xlink:href="#shape3" transform="translate(553.5 -54)"/>
<text x="580.5" y="-75.9" text-anchor="middle" font-family="Arial" font-size="12" fill="#000000">B</text>
<text x="580.5" y="-90.9" text-anchor="middle" font-family="Arial" font-size="12" fill="#000000">&#8801;</text>
</g>
<g class="key">
<use xlink:href="#shape3" transform="translate(607.5 -54)"/>
<text x="634.5" y="-75.9" text-anchor="middle" font-family="Arial" font-size="12" fill="#000000">N</text>
<text x="634.5" y="-90.9" text-anchor="middle" font-family="Arial" font-size="12" fill="#000000">&#8804;</text>
</g>
<g class="key">
<use xlink:href="#shape3" transform="translate(661.5 -54)"/>
<text x="688.5" y="-75.9" text-anchor="middle" font-family="Arial" font-size="12" fill="#000000">M</text>
<text x="688.5" y="-90.9" text-anchor="middle" font-family="Arial" font-size="12" fill="#000000">&#8805;</text>
</g>
<g class="key">
<use xlink:href="#shape3" transform="translate(715.5 -54)"/>
<text x="742.5" y="-75.9" text-anchor="middle" font-family="Arial" font-size="12" fill="#000000">,</text>
<text x="742.5" y="-90.9" text-anchor="middle" font-family="Arial" font-size="12" fill="#000000">&lt;</text>
</g>
<g class="key">
<use xlink:href="#shape3" transform="translate(769.5 -54)"/>
<text x="796.5" y="-75.9" text-anchor="middle" font-family="Arial" font-size="12" fill="#000000">.</text>
<text x="796.5" y="-90.9" text-anchor="middle" font-family="Arial" font-size="12" fill="#000000">&gt;</text>
</g>
<g class="key">
<use xlink:href="#shape3" transform="translate(823.5 -54)"/>
<text x="850.5" y="-75.9" text-anchor="middle" font-family="Arial" font-size="12" fill="#000000">/</text>
<text x="850.5" y="-90.9" text-anchor="middle" font-family="Arial" font-size="12" fill="#000000">?</text>
</g>
<g class="key">
<use xlink:href="#shape5" transform="translate(877.5 -54)"/>
<text x="931.5" y="-84" text-anchor="middle" font-family="Arial" font-size="10" fill="#000000">SHIFT</text>
</g>
<g class="key">
<use xlink:href="#shape0" transform="translate(985.5 -54)"/>
<text x="1026" y="-84" text-anchor="middle" font-family="Arial" font-size="10" fill="#000000">GREEK</text>
</g>
<g class="key">
<use xlink:href="#shape0" transform="translate(1080 -54)"/>
<text x="1120.5" y="-84" text-anchor="middle" font-family="Arial" font-size="10" fill="#000000">TOP</text>
</g>
<g class="key">
<use xlink:href="#shape0" transform="translate(1161 -54)"/>
<text x="1201.5" y="-84" text-anchor="middle" font-family="Arial" font-size="10" fill="#000000">REPEAT</text>
</g>
<g class="key">
<use xlink:href="#shape3" transform="translate(1242 -54)"/>
<text x="1269" y="-89" text-anchor="middle" font-family="Arial" font-size="10" fill="#000000">ALT</text>
<text x="1269" y="-79" text-anchor="middle" font-family="Arial" font-size="10" fill="#000000">LOCK</text>
</g>
<g class="key">
<use xlink:href="#shape5" transform="translate(0 -108)"/>
<text x="54" y="-138" text-anchor="middle" font-family="Arial" font-size="10" fill="#000000">MODE LOCK</text>
</g>
<g class="key">
<use xlink:href="#shape5" transform="translate(108 -108)"/>
<text x="162" y="-138" text-anchor="middle" font-family="Arial" font-size="10" fill="#000000">ALT MODE</text>
</g>
<g class="key">
<use xlink:href="#shape1" transform="translate(216 -108)"/>
<text x="263.25" y="-138" text-anchor="middle" font-family="Arial" font-size="10" fill="#000000">RUB OUT</text>
</g>
<g class="key">
<use xlink:href="#shape3" transform="translate(310.5 -108)"/>
<text x="337.5" y="-129.9" text-anchor="middle" font-family="Arial" font-size="12" fill="#000000">A</text>
<text x="337.5" y="-144.9" text-anchor="middle" font-family="Arial" font-size="12" fill="#000000">&#8869;</text>
</g>
<g class="key">
<use xlink:href="#shape3" transform="translate(364.5 -108)"/>
<text x="391.5" y="-129.9" text-anchor="middle" font-family="Arial" font-size="12" fill="#000000">S</text>
<text x="391.5" y="-144.9" text-anchor="middle" font-family="Arial" font-size="12" fill="#000000">&#8868;</text>
</g>
<g class="key">
<use xlink:href="#shape3" transform="translate(418.5 -108)"/>
<text x="445.5" y="-129.9" text-anchor="middle" font-family="Arial" font-size="12" fill="#000000">D</text>
<text x="445.5" y="-144.9" text-anchor="middle" font-family="Arial" font-size="12" fill="#000000">&#8866;</text>
</g>
<g class="key">
<use xlink:href="#shape3" transform="translate(472.5 -108)"/>
<text x="499.5" y="-129.9" text-anchor="middle" font-family="Arial" font-size="12" fill="#000000">F</text>
<text x="499.5" y="-144.9" text-anchor="middle" font-family="Arial" font-size="12" fill="#000000">&#8867;</text>
</g>
<g class="key">
<use xlink:href="#shape3" transform="translate(526.5 -108)"/>
<text x="553.5" y="-129.9" text-anchor="middle" font-family="Arial" font-size="12" fill="#000000">G</text>
<text x="553.5" y="-144.9" text-anchor="middle" font-family="Arial" font-size="12" fill="#000000">&#8593;</text>
</g>
<g class="key">
<use xlink:href="#shape3" transform="translate(580.5 -108)"/>
<text x="607.5" y="-129.9" text-anchor="middle" font-family="Arial" font-size="12" fill="#000000">H</text>
<text x="607.5" y="-144.9" text-anchor="middle" font-family="Arial" font-size="12" fill="#000000">&#8595;</text>
</g>
<g class="key">
<use xlink:href="#shape3" transform="translate(634.5 -108)"/>
<text x="661.5" y="-129.9" text-anchor="middle" font-family="Arial" font-size="12" fill="#000000">J</text>
<text x="661.5" y="-144.9" text-anchor="middle" font-family="Arial" font-size="12" fill="#000000">&#8592;</text>
</g>
<g class="key">
<use xlink:href="#shape3" transform="translate(688.5 -108)"/>
<text x="715.5" y="-129.9" text-anchor="middle" font-family="Arial" font-size="12" fill="#000000">K</text>
<text x="715.5" y="-144.9" text-anchor="middle" font-family="Arial" font-size="12" fill="#000000">&#8594;</text>
</g>
<g class="key">
<use xlink:href="#shape3" transform="translate(742.5 -108)"/>
<text x="769.5" y="-129.9" text-anchor="middle" font-family="Arial" font-size="12" fill="#000000">L</text>
<text x="769.5" y="-144.9" text-anchor="middle" font-family="Arial" font-size="12" fill="#000000">&#8596;</text>
</g>
<g class="key">
<use xlink:href="#shape3" transform="translate(796.5 -108)"/>
<text x="823.5" y="-129.9" text-anchor="middle" font-family="Arial" font-size="12" fill="#000000">;</text>
<text x="823.5" y="-144.9" text-anchor="middle" font-family="Arial" font-size="12" fill="#000000">:</text>
</g>
<g class="key">
<use xlink:href="#shape3" transform="translate(850.5 -108)"/>
<text x="877.5" y="-129.9" text-anchor="middle" font-family="Arial" font-size="12" fill="#000000">&#39;</text>
<text x="877.5" y="-144.9" text-anchor="middle" font-family="Arial" font-size="12" fill="#000000">&#34;</text>
</g>
<g class="key">
<use xlink:href="#shape5" transform="translate(904.5 -108)"/>
<text x="958.5" y="-138" text-anchor="middle" font-family="Arial" font-size="10" fill="#000000">RETURN</text>
</g>
<g class="key">
<use xlink:href="#shape6" transform="translate(1012.5 -108)"/>
<text x="1046.25" y="-138" text-anchor="middle" font-family="Arial" font-size="10" fill="#000000">LINE</text>
</g>
<g class="key">
<use xlink:href="#shape5" transform="translate(1080 -108)"/>
<text x="1134" y="-138" text-anchor="middle" font-family="Arial" font-size="10" fill="#000000">END</text>
</g>
<g class="key">
<use xlink:href="#shape5" transform="translate(1188 -108)"/>
<text x="1242" y="-138" text-anchor="middle" font-family="Arial" font-size="10" fill="#000000">HELP</text>
</g>
<g class="key">
<use xlink:href="#shape3" transform="translate(0 -162)"/>
<text x="27" y="-190.5" text-anchor="middle" font-family="Arial" font-size="15" fill="#000000">&#8546;</text>
</g>
<g class="key">
<use xlink:href="#shape3" transform="translate(54 -162)"/>
<text x="81" y="-190.5" text-anchor="middle" font-family="Arial" font-size="15" fill="#000000">&#8547;</text>
</g>
<g class="key">
<use xlink:href="#shape5" transform="translate(108 -162)"/>
<text x="162" y="-192" text-anchor="middle" font-family="Arial" font-size="10" fill="#000000">NETWORK</text>
</g>
<g class="key">
<use xlink:href="#shape0" transform="translate(216 -162)"/>
<text x="256.5" y="-192" text-anchor="middle" font-family="Arial" font-size="10" fill="#000000">TAB</text>
</g>
<g class="key">
<use xlink:href="#shape3" transform="translate(297 -162)"/>
<text x="324" y="-183.9" text-anchor="middle" font-family="Arial" font-size="12" fill="#000000">Q</text>
<text x="324" y="-198.9" text-anchor="middle" font-family="Arial" font-size="12" fill="#000000">&#8743;</text>
</g>
<g class="key">
<use xlink:href="#shape3" transform="translate(351 -162)"/>
<text x="378" y="-183.9" text-anchor="middle" font-family="Arial" font-size="12" fill="#000000">W</text>
<text x="378" y="-198.9" text-anchor="middle" font-family="Arial" font-size="12" fill="#000000">&#8744;</text>
</g>
<g class="key">
<use xlink:href="#shape3" transform="translate(405 -162)"/>
<text x="432" y="-183.9" text-anchor="middle" font-family="Arial" font-size="12" fill="#000000">E</text>
<text x="432" y="-198.9" text-anchor="middle" font-family="Arial" font-size="12" fill="#000000">&#8745;</text>
</g>
<g class="key">
<use xlink:href="#shape3" transform="translate(459 -162)"/>
<text x="486" y="-183.9" text-anchor="middle" font-family="Arial" font-size="12" fill="#000000">R</text>
<text x="486" y="-198.9" text-anchor="middle" font-family="Arial" font-size="12" fill="#000000">&#8746;</text>
</g>
<g class="key">
<use xlink:href="#shape3" transform="translate(513 -162)"/>
<text x="540" y="-183.9" text-anchor="middle" font-family="Arial" font-size="12" fill="#000000">T</text>
<text x="540" y="-198.9" text-anchor="middle" font-family="Arial" font-size="12" fill="#000000">&#8834;</text>
</g>
<g class="key">
<use xlink:href="#shape3" transform="translate(567 -162)"/>
<text x="594" y="-183.9" text-anchor="middle" font-family="Arial" font-size="12" fill="#000000">Y</text>
<text x="594" y="-198.9" text-anchor="middle" font-family="Arial" font-size="12" fill="#000000">&#8835;</text>
</g>
<g class="key">
<use xlink:href="#shape3" transform="translate(621 -162)"/>
<text x="648" y="-183.9" text-anchor="middle" font-family="Arial" font-size="12" fill="#000000">U</text>
<text x="648" y="-198.9" text-anchor="middle" font-family="Arial" font-size="12" fill="#000000">&#8704;</text>
</g>
<g class="key">
<use xlink:href="#shape3" transform="translate(675 -162)"/>
<text x="702" y="-183.9" text-anchor="middle" font-family="Arial" font-size="12" fill="#000000">I</text>
<text x="702" y="-198.9" text-anchor="middle" font-family="Arial" font-size="12" fill="#000000">&#8734;</text>
</g>
<g class="key">
<use xlink:href="#shape3" transform="translate(729 -162)"/>
<text x="756" y="-183.9" text-anchor="middle" font-family="Arial" font-size="12" fill="#000000">O</text>
<text x="756" y="-198.9" text-anchor="middle" font-family="Arial" font-size="12" fill="#000000">&#8707;</text>
</g>
<g class="key">
<use xlink:href="#shape3" transform="translate(783 -162)"/>
<text x="810" y="-183.9" text-anchor="middle" font-family="Arial" font-size="12" fill="#000000">P</text>
<text x="810" y="-198.9" text-anchor="middle" font-family="Arial" font-size="12" fill="#000000">&#8706;</text>
</g>
<g class="key">
<use xlink:href="#shape3" transform="translate(837 -162)"/>
<text x="864" y="-183.9" text-anchor="middle" font-family="Arial" font-size="12" fill="#000000">(</text>
<text x="864" y="-198.9" text-anchor="middle" font-family="Arial" font-size="12" fill="#000000">[</text>
</g>
<g class="key">
<use xlink:href="#shape3" transform="translate(891 -162)"/>
<text x="918" y="-183.9" text-anchor="middle" font-family="Arial" font-size="12" fill="#000000">)</text>
<text x="918" y="-198.9" text-anchor="middle" font-family="Arial" font-size="12" fill="#000000">]</text>
</g>
<g class="key">
<use xlink:href="#shape3" transform="translate(945 -162)"/>
<text x="972" y="-183.9" text-anchor="middle" font-family="Arial" font-size="12" fill="#000000">`</text>
<text x="972" y="-198.9" text-anchor="middle" font-family="Arial" font-size="12" fill="#000000">~</text>
</g>
<g class="key">
<use xlink:href="#shape0" transform="translate(999 -162)"/>
<text x="1039.5" y="-183.9" text-anchor="middle" font-family="Arial" font-size="12" fill="#000000">\</text>
<text x="1039.5" y="-198.9" text-anchor="middle" font-family="Arial" font-size="12" fill="#000000">|</text>
</g>
<g class="key">
<use xlink:href="#shape5" transform="translate(1080 -162)"/>
<text x="1134" y="-192" text-anchor="middle" font-family="Arial" font-size="10" fill="#000000">DELETE</text>
</g>
<g class="key">
<use xlink:href="#shape3" transform="translate(1188 -162)"/>
<text x="1215" y="-190.5" text-anchor="middle" font-family="Arial" font-size="15" fill="#000000">&#9756;</text>
</g>
<g class="key">
<use xlink:href="#shape3" transform="translate(1242 -162)"/>
<text x="1269" y="-190.5" text-anchor="middle" font-family="Arial" font-size="15" fill="#000000">&#9758;</text>
</g>
<g class="key">
<use xlink:href="#shape3" transform="translate(0 -216)"/>
<text x="27" y="-244.5" text-anchor="middle" font-family="Arial" font-size="15" fill="#000000">&#8544;</text>
</g>
<g class="key">
<use xlink:href="#shape3" transform="translate(54 -216)"/>
<text x="81" y="-244.5" text-anchor="middle" font-family="Arial" font-size="15" fill="#000000">&#8545;</text>
</g>
<g class="key">
<use xlink:href="#shape5" transform="translate(108 -216)"/>
<text x="162" y="-246" text-anchor="middle" font-family="Arial" font-size="10" fill="#000000">SYSTEM</text>
</g>
<g class="key">
<use xlink:href="#shape3" transform="translate(216 -216)"/>
<text x="243" y="-237.9" text-anchor="middle" font-family="Arial" font-size="12" fill="#000000">:</text>
<text x="243" y="-252.9" text-anchor="middle" font-family="Arial" font-size="12" fill="#000000">&#177;</text>
</g>
<g class="key">
<use xlink:href="#shape3" transform="translate(270 -216)"/>
<text x="297" y="-237.9" text-anchor="middle" font-family="Arial" font-size="12" fill="#000000">1</text>
<text x="297" y="-252.9" text-anchor="middle" font-family="Arial" font-size="12" fill="#000000">!</text>
</g>
<g class="key">
<use xlink:href="#shape3" transform="translate(324 -216)"/>
<text x="351" y="-237.9" text-anchor="middle" font-family="Arial" font-size="12" fill="#000000">2</text>
<text x="351" y="-252.9" text-anchor="middle" font-family="Arial" font-size="12" fill="#000000">@</text>
</g>
<g class="key">
<use xlink:href="#shape3" transform="translate(378 -216)"/>
<text x="405" y="-237.9" text-anchor="middle" font-family="Arial" font-size="12" fill="#000000">3</text>
<text x="405" y="-252.9" text-anchor="middle" font-family="Arial" font-size="12" fill="#000000">#</text>
</g>
<g class="key">
<use xlink:href="#shape3" transform="translate(432 -216)"/>
<text x="459" y="-237.9" text-anchor="middle" font-family="Arial" font-size="12" fill="#000000">4</text>
<text x="459" y="-252.9" text-anchor="middle" font-family="Arial" font-size="12" fill="#000000">$</text>
</g>
<g class="key">
<use xlink:href="#shape3" transform="translate(486 -216)"/>
<text x="513" y="-237.9" text-anchor="middle" font-family="Arial" font-size="12" fill="#000000">5</text>
<text x="513" y="-252.9" text-anchor="middle" font-family="Arial" font-size="12" fill="#000000">%</text>
</g>
<g class="key">
<use xlink:href="#shape3" transform="translate(540 -216)"/>
<text x="567" y="-237.9" text-anchor="middle" font-family="Arial" font-size="12" fill="#000000">6</text>
<text x="567" y="-252.9" text-anchor="middle" font-family="Arial" font-size="12" fill="#000000">^</text>
</g>
<g class="key">
<use xlink:href="#shape3" transform="translate(594 -216)"/>
<text x="621" y="-237.9" text-anchor="middle" font-family="Arial" font-size="12" fill="#000000">7</text>
<text x="621" y="-252.9" text-anchor="middle" font-family="Arial" font-size="12" fill="#000000">&amp;</text>
</g>
<g class="key">
<use xlink:href="#shape3" transform="translate(648 -216)"/>
<text x="675" y="-237.9" text-anchor="middle" font-family="Arial" font-size="12" fill="#000000">8</text>
<text x="675" y="-252.9" text-anchor="middle" font-family="Arial" font-size="12" fill="#000000">*</text>
</g>
<g class="key">
<use xlink:href="#shape3" transform="translate(702 -216)"/>
<text x="729" y="-237.9" text-anchor="middle" font-family="Arial" font-size="12" fill="#000000">9</text>
<text x="729" y="-252.9" text-anchor="middle" font-family="Arial" font-size="12" fill="#000000">(</text>
</g>
<g class="key">
<use xlink:href="#shape3" transform="translate(756 -216)"/>
<text x="783" y="-237.9" text-anchor="middle" font-family="Arial" font-size="12" fill="#000000">0</text>
<text x="783" y="-252.9" text-anchor="middle" font-family="Arial" font-size="12" fill="#000000">)</text>
</g>
<g class="key">
<use xlink:href="#shape0" transform="translate(810 -216)"/>
<text x="850.5" y="-237.9" text-anchor="middle" font-family="Arial" font-size="12" fill="#000000">&#8722;</text>
<text x="850.5" y="-252.9" text-anchor="middle" font-family="Arial" font-size="12" fill="#000000">_</text>
</g>
<g class="key">
<use xlink:href="#shape0" transform="translate(891 -216)"/>
<text x="931.5" y="-237.9" text-anchor="middle" font-family="Arial" font-size="12" fill="#000000">=</text>
<text x="931.5" y="-252.9" text-anchor="middle" font-family="Arial" font-size="12" fill="#000000">+</text>
</g>
<g class="key">
<use xlink:href="#shape3" transform="translate(972 -216)"/>
<text x="999" y="-237.9" text-anchor="middle" font-family="Arial" font-size="12" fill="#000000">{</text>
<text x="999" y="-252.9" text-anchor="middle" font-family="Arial" font-size="12" fill="#000000">&lt;</text>
</g>
<g class="key">
<use xlink:href="#shape3" transform="translate(1026 -216)"/>
<text x="1053" y="-237.9" text-anchor="middle" font-family="Arial" font-size="12" fill="#000000">}</text>
<text x="1053" y="-252.9" text-anchor="middle" font-family="Arial" font-size="12" fill="#000000">&gt;</text>
</g>
<g class="key">
<use xlink:href="#shape5" transform="translate(1080 -216)"/>
<text x="1134" y="-246" text-anchor="middle" font-family="Arial" font-size="10" fill="#000000">STATUS</text>
</g>
<g class="key">
<use xlink:href="#shape3" transform="translate(1188 -216)"/>
<text x="1215" y="-244.5" text-anchor="middle" font-family="Arial" font-size="15" fill="#000000">&#128077;</text>
</g>
<g class="key">
<use xlink:href="#shape3" transform="translate(1242 -216)"/>
<text x="1269" y="-244.5" text-anchor="middle" font-family="Arial" font-size="15" fill="#000000">&#128078;</text>
</g>
<g class="key">
<use xlink:href="#shape5" transform="translate(0 -270)"/>
<text x="54" y="-300" text-anchor="middle" font-family="Arial" font-size="10" fill="#000000">MACRO</text>
</g>
<g class="key">
<use xlink:href="#shape5" transform="translate(108 -270)"/>
<text x="162" y="-300" text-anchor="middle" font-family="Arial" font-size="10" fill="#000000">TERMINAL</text>
</g>
<g class="key">
<use xlink:href="#shape5" transform="translate(216 -270)"/>
<text x="270" y="-300" text-anchor="middle" font-family="Arial" font-size="10" fill="#000000">QUOTE</text>
</g>
<g class="key">
<use xlink:href="#shape5" transform="translate(324 -270)"/>
<text x="378" y="-300" text-anchor="middle" font-family="Arial" font-size="10" fill="#000000">OVER STRIKE</text>
</g>
<g class="key">
<use xlink:href="#shape5" transform="translate(432 -270)"/>
<text x="486" y="-300" text-anchor="middle" font-family="Arial" font-size="10" fill="#000000">CLEAR INPUT</text>
</g>
<g class="key">
<use xlink:href="#shape5" transform="translate(540 -270)"/>
<text x="594" y="-300" text-anchor="middle" font-family="Arial" font-size="10" fill="#000000">CLEAR SCREEN</text>
</g>
<g class="key">
<use xlink:href="#shape5" transform="translate(648 -270)"/>
<text x="702" y="-300" text-anchor="middle" font-family="Arial" font-size="10" fill="#000000">HOLD OUTPUT</text>
</g>
<g class="key">
<use xlink:href="#shape5" transform="translate(756 -270)"/>
<text x="810" y="-300" text-anchor="middle" font-family="Arial" font-size="10" fill="#000000">STOP OUTPUT</text>
</g>
<g class="key">
<use xlink:href="#shape5" transform="translate(864 -270)"/>
<text x="918" y="-300" text-anchor="middle" font-family="Arial" font-size="10" fill="#000000">ABORT</text>
</g>
<g class="key">
<use xlink:href="#shape5" transform="translate(972 -270)"/>
<text x="1026" y="-300" text-anchor="middle" font-family="Arial" font-size="10" fill="#000000">BREAK</text>
</g>
<g class="key">
<use xlink:href="#shape5" transform="translate(1080 -270)"/>
<text x="1134" y="-300" text-anchor="middle" font-family="Arial" font-size="10" fill="#000000">RESUME</text>
</g>
<g class="key">
<use xlink:href="#shape5" transform="translate(1188 -270)"/>
<text x="1242" y="-300" text-anchor="middle" font-family="Arial" font-size="10" fill="#000000">CALL</text>
</g>
</g>
</svg>
