<?xml version="1.0"?>
<svg xmlns="http://www.w3.org/2000/svg" xmlns:xlink="http://www.w3.org/1999/xlink" version="1.1" width="864" height="270" viewBox="0 -270 864 270">
<defs>
<g id="shape0">
<path d="M 6 -54 C 2.686 -54 0 -51.314 0 -48 L 0 -6 C 0 -2.686 2.686 0 6 0 L 48 0 C 51.314 0 54 -2.686 54 -6 L 54 -48 C 54 -51.314 51.314 -54 48 -54 Z" fill="#000000"/>
<path d="M 6 -53 C 3.239 -53 1 -50.761 1 -48 L 1 -6 C 1 -3.239 3.239 -1 6 -1 L 48 -1 C 50.761 -1 53 -3.239 53 -6 L 53 -48 C 53 -50.761 50.761 -53 48 -53 Z" fill="#99a8c7"/>
<path d="M 6 -52 C 3.791 -52 2 -50.209 2 -48 L 2 -6 C 2 -3.791 3.791 -2 6 -2 L 48 -2 C 50.209 -2 52 -3.791 52 -6 L 52 -48 C 52 -50.209 50.209 -52 48 -52 Z" fill="#aabbdd"/>
<path d="M 12 -51 C 10.343 -51 9 -49.657 9 -48 L 9 -18 C 9 -16.343 10.343 -15 12 -15 L 42 -15 C 43.657 -15 45 -16.343 45 -18 L 45 -48 C 45 -49.657 43.657 -51 42 -51 Z" fill="#99a8c7"/>
<path d="M 12 -50 C 10.895 -50 10 -49.105 10 -48 L 10 -18 C 10 -16.895 10.895 -16 12 -16 L 42 -16 C 43.105 -16 44 -16.895 44 -18 L 44 -48 C 44 -49.105 43.105 -50 42 -50 Z" fill="#cddfff"/>
</g>
<g id="shape1">
<path d="M 6 -54 C 2.686 -54 0 -51.314 0 -48 L 0 -6 C 0 -2.686 2.686 0 6 0 L 48 0 C 51.314 0 54 -2.686 54 -6 L 54 -48 C 54 -51.314 51.314 -54 48 -54 Z" fill="#000000"/>
<path d="M 6 -53 C 3.239 -53 1 -50.761 1 -48 L 1 -6 C 1 -3.239 3.239 -1 6 -1 L 48 -1 C 50.761 -1 53 -3.239 53 -6 L 53 -48 C 53 -50.761 50.761 -53 48 -53 Z" fill="#b80000"/>
<path d="M 6 -52 C 3.791 -52 2 -50.209 2 -48 L 2 -6 C 2 -3.791 3.791 -2 6 -2 L 48 -2 C 50.209 -2 52 -3.791 52 -6 L 52 -48 C 52 -50.209 50.209 -52 48 -52 Z" fill="#cc0000"/>
<path d="M 12 -51 C 10.343 -51 9 -49.657 9 -48 L 9 -18 C 9 -16.343 10.343 -15 12 -15 L 42 -15 C 43.657 -15 45 -16.343 45 -18 L 45 -48 C 45 -49.657 43.657 -51 42 -51 Z" fill="#b80000"/>
<path d="M 12 -50 C 10.895 -50 10 -49.105 10 -48 L 10 -18 C 10 -16.895 10.895 -16 12 -16 L 42 -16 C 43.105 -16 44 -16.895 44 -18 L 44 -48 C 44 -49.105 43.105 -50 42 -50 Z" fill="#f21414"/>
</g>
<g id="shape2">
<path d="M 6 -54 C 2.686 -54 0 -51.314 0 -48 L 0 -6 C 0 -2.686 2.686 0 6 0 L 48 0 C 51.314 0 54 -2.686 54 -6 L 54 -48 C 54 -51.314 51.314 -54 48 -54 Z" fill="#000000"/>
<path d="M 6 -53 C 3.239 -53 1 -50.761 1 -48 L 1 -6 C 1 -3.239 3.239 -1 6 -1 L 48 -1 C 50.761 -1 53 -3.239 53 -6 L 53 -48 C 53 -50.761 50.761 -53 48 -53 Z" fill="#002eb8"/>
<path d="M 6 -52 C 3.791 -52 2 -50.209 2 -48 L 2 -6 C 2 -3.791 3.791 -2 6 -2 L 48 -2 C 50.209 -2 52 -3.791 52 -6 L 52 -48 C 52 -50.209 50.209 -52 48 -52 Z" fill="#0033cc"/>
<path d="M 12 -51 C 10.343 -51 9 -49.657 9 -48 L 9 -18 C 9 -16.343 10.343 -15 12 -15 L 42 -15 C 43.657 -15 45 -16.343 45 -18 L 45 -48 C 45 -49.657 43.657 -51 42 -51 Z" fill="#002eb8"/>
<path d="M 12 -50 C 10.895 -50 10 -49.105 10 -48 L 10 -18 C 10 -16.895 10.895 -16 12 -16 L 42 -16 C 43.105 -16 44 -16.895 44 -18 L 44 -48 C 44 -49.105 43.105 -50 42 -50 Z" fill="#144bf2"/>
</g>
<g id="shape3">
<path d="M 6 -54 C 2.686 -54 0 -51.314 0 -48 L 0 -6 C 0 -2.686 2.686 0 6 0 L 48 0 C 51.314 0 54 -2.686 54 -6 L 54 -48 C 54 -51.314 51.314 -54 48 -54 Z" fill="#000000"/>
<path d="M 6 -53 C 3.239 -53 1 -50.761 1 -48 L 1 -6 C 1 -3.239 3.239 -1 6 -1 L 48 -1 C 50.761 -1 53 -3.239 53 -6 L 53 -48 C 53 -50.761 50.761 -53 48 -53 Z" fill="#b8b8b8"/>
<path d="M 6 -52 C 3.791 -52 2 -50.209 2 -48 L 2 -6 C 2 -3.791 3.791 -2 6 -2 L 48 -2 C 50.209 -2 52 -3.791 52 -6 L 52 -48 C 52 -50.209 50.209 -52 48 -52 Z" fill="#cccccc"/>
<path d="M 12 -51 C 10.343 -51 9 -49.657 9 -48 L 9 -18 C 9 -16.343 10.343 -15 12 -15 L 42 -15 C 43.657 -15 45 -16.343 45 -18 L 45 -48 C 45 -49.657 43.657 -51 42 -51 Z" fill="#b8b8b8"/>
<path d="M 12 -50 C 10.895 -50 10 -49.105 10 -48 L 10 -18 C 10 -16.895 10.895 -16 12 -16 L 42 -16 C 43.105 -16 44 -16.895 44 -18 L 44 -48 C 44 -49.105 43.105 -50 42 -50 Z" fill="#f2f2f2"/>
</g>
<g id="shape4">
<path d="M 6 -54 C 2.686 -54 0 -51.314 0 -48 L 0 -6 C 0 -2.686 2.686 0 6 0 L 48 0 C 51.314 0 54 -2.686 54 -6 L 54 -48 C 54 -51.314 51.314 -54 48 -54 Z" fill="#000000"/>
<path d="M 6 -53 C 3.239 -53 1 -50.761 1 -48 L 1 -6 C 1 -3.239 3.239 -1 6 -1 L 48 -1 C 50.761 -1 53 -3.239 53 -6 L 53 -48 C 53 -50.761 50.761 -53 48 -53 Z" fill="#c7c7b8"/>
<path d="M 6 -52 C 3.791 -52 2 -50.209 2 -48 L 2 -6 C 2 -3.791 3.791 -2 6 -2 L 48 -2 C 50.209 -2 52 -3.791 52 -6 L 52 -48 C 52 -50.209 50.209 -52 48 -52 Z" fill="#ddddcc"/>
<path d="M 12 -51 C 10.343 -51 9 -49.657 9 -48 L 9 -18 C 9 -16.343 10.343 -15 12 -15 L 42 -15 C 43.657 -15 45 -16.343 45 -18 L 45 -48 C 45 -49.657 43.657 -51 42 -51 Z" fill="#c7c7b8"/>
<path d="M 12 -50 C 10.895 -50 10 -49.105 10 -48 L 10 -18 C 10 -16.895 10.895 -16 12 -16 L 42 -16 C 43.105 -16 44 -16.895 44 -18 L 44 -48 C 44 -49.105 43.105 -50 42 -50 Z" fill="#fffff2"/>
</g>
<g id="shape5">
<path d="M 6 -108 C 2.686 -108 0 -105.314 0 -102 L 0 -6 C 0 -2.686 2.686 0 6 0 L 48 0 C 51.314 0 54 -2.686 54 -6 L 54 -102 C 54 -105.314 51.314 -108 48 -108 Z" fill="#000000"/>
<path d="M 6 -107 C 3.239 -107 1 -104.761 1 -102 L 1 -6 C 1 -3.239 3.239 -1 6 -1 L 48 -1 C 50.761 -1 53 -3.239 53 -6 L 53 -102 C 53 -104.761 50.761 -107 48 -107 Z" fill="#b80000"/>
<path d="M 6 -106 C 3.791 -106 2 -104.209 2 -102 L 2 -6 C 2 -3.791 3.791 -2 6 -2 L 48 -2 C 50.209 -2 52 -3.791 52 -6 L 52 -102 C 52 -104.209 50.209 -106 48 -106 Z" fill="#cc0000"/>
<path d="M 12 -105 C 10.343 -105 9 -103.657 9 -102 L 9 -18 C 9 -16.343 10.343 -15 12 -15 L 42 -15 C 43.657 -15 45 -16.343 45 -18 L 45 -102 C 45 -103.657 43.657 -105 42 -105 Z" fill="#b80000"/>
<path d="M 12 -104 C 10.895 -104 10 -103.105 10 -102 L 10 -18 C 10 -16.895 10.895 -16 12 -16 L 42 -16 C 43.105 -16 44 -16.895 44 -18 L 44 -102 C 44 -103.105 43.105 -104 42 -104 Z" fill="#f21414"/>
</g>
<g id="shape6">
<path d="M 6 -54 C 2.686 -54 0 -51.314 0 -48 L 0 -6 C 0 -2.686 2.686 0 6 0 L 102 0 C 105.314 0 108 -2.686 108 -6 L 108 -48 C 108 -51.314 105.314 -54 102 -54 Z" fill="#000000"/>
<path d="M 6 -53 C 3.239 -53 1 -50.761 1 -48 L 1 -6 C 1 -3.239 3.239 -1 6 -1 L 102 -1 C 104.761 -1 107 -3.239 107 -6 L 107 -48 C 107 -50.761 104.761 -53 102 -53 Z" fill="#b80000"/>
<path d="M 6 -52 C 3.791 -52 2 -50.209 2 -48 L 2 -6 C 2 -3.791 3.791 -2 6 -2 L 102 -2 C 104.209 -2 106 -3.791 106 -6 L 106 -48 C 106 -50.209 104.209 -52 102 -52 Z" fill="#cc0000"/>
<path d="M 12 -51 C 10.343 -51 9 -49.657 9 -48 L 9 -18 C 9 -16.343 10.343 -15 12 -15 L 96 -15 C 97.657 -15 99 -16.343 99 -18 L 99 -48 C 99 -49.657 97.657 -51 96 -51 Z" fill="#b80000"/>
<path d="M 12 -50 C 10.895 -50 10 -49.105 10 -48 L 10 -18 C 10 -16.895 10.895 -16 12 -16 L 96 -16 C 97.105 -16 98 -16.895 98 -18 L 98 -48 C 98 -49.105 97.105 -50 96 -50 Z" fill="#f21414"/>
</g>
<path id="path0" d="M 0 0 h 1 v 1 h -1 z M 0.5 0.1 v 0.8 h 0.4 v -0.8 z"/>
<path id="path1" d="M 0 0 h 1 v 1 h -1 z M 0.1 0.1 v 0.4 h 0.8 v -0.4 z"/>
<path id="path2" d="M 0 0 h 1 v 1 h -1 z M 0.1 0.2 v 0.7 h 0.8 v -0.7 z"/>
<path id="path3" d="M 0 0 h 1 v 1 h -1 z M 0.1 0.1 v 0.7 h 0.8 v -0.7 z"/>
<path id="path4" d="M 0 0 h 1 v 1 h -1 z M 0.2 0.1 v 0.8 h 0.7 v -0.8 z"/>
<path id="path5" d="M 0 0 h 1 v 1 h -1 z M 0.1 0.1 v 0.8 h 0.7 v -0.8 z"/>
<path id="path6" d="M 0 0 h 1 v 1 h -1 z M 0.8 0.1 v 0.1 h 0.1 v -0.1 z M 0.6 0.1 v 0.1 h 0.1 v 0.1 h 0.1 v 0.1 h 0.1 v -0.1 h -0.1 v -0.1 h -0.1 v -0.1 z M 0.4 0.1 v 0.1 h 0.1 v 0.1 h 0.1 v 0.1 h 0.1 v 0.1 h 0.1 v 0.1 h 0.1 v -0.1 h -0.1 v -0.1 h -0.1 v -0.1 h -0.1 v -0.1 h -0.1 v -0.1 z M 0.2 0.1 v 0.1 h 0.1 v 0.1 h 0.1 v 0.1 h 0.1 v 0.1 h 0.1 v 0.1 h 0.1 v 0.1 h 0.1 v 0.1 h 0.1 v -0.1 h -0.1 v -0.1 h -0.1 v -0.1 h -0.1 v -0.1 h -0.1 v -0.1 h -0.1 v -0.1 h -0.1 v -0.1 z M 0.1 0.2 v 0.1 h 0.1 v 0.1 h 0.1 v 0.1 h 0.1 v 0.1 h 0.1 v 0.1 h 0.1 v 0.1 h 0.1 v 0.1 h 0.1 v -0.1 h -0.1 v -0.1 h -0.1 v -0.1 h -0.1 v -0.1 h -0.1 v -0.1 h -0.1 v -0.1 h -0.1 v -0.1 z M 0.1 0.4 v 0.1 h 0.1 v 0.1 h 0.1 v 0.1 h 0.1 v 0.1 h 0.1 v 0.1 h 0.1 v -0.1 h -0.1 v -0.1 h -0.1 v -0.1 h -0.1 v -0.1 h -0.1 v -0.1 z M 0.1 0.6 v 0.1 h 0.1 v 0.1 h 0.1 v 0.1 h 0.1 v -0.1 h -0.1 v -0.1 h -0.1 v -0.1 z M 0.1 0.8 v 0.1 h 0.1 v -0.1 z"/>
<path id="path7" d="M 0 0 h 1 v 1 h -1 z M 0.1 0.1 v 0.8 h 0.8 v -0.8 z M 0.3 0.1 h 0.1 v 0.1 h 0.1 v 0.1 h -0.1 v -0.1 h -0.1 z M 0.1 0.1 h 0.1 v 0.1 h 0.1 v 0.1 h 0.1 v 0.1 h 0.1 v 0.1 h -0.1 v -0.1 h -0.1 v -0.1 h -0.1 v -0.1 h -0.1 z M 0.1 0.3 h 0.1 v 0.1 h 0.1 v 0.1 h 0.1 v 0.1 h 0.1 v 0.1 h -0.1 v -0.1 h -0.1 v -0.1 h -0.1 v -0.1 h -0.1 z M 0.1 0.5 h 0.1 v 0.1 h 0.1 v 0.1 h 0.1 v 0.1 h 0.1 v 0.1 h -0.1 v -0.1 h -0.1 v -0.1 h -0.1 v -0.1 h -0.1 z M 0.1 0.7 h 0.1 v 0.1 h 0.1 v 0.1 h -0.1 v -0.1 h -0.1 z"/>
<path id="path8" d="M 0 0 h 1 v 1 h -1 z M 0.1 0.1 v 0.8 h 0.8 v -0.8 z M 0.7 0.5 h 0.1 v 0.1 h 0.1 v 0.1 h -0.1 v -0.1 h -0.1 z M 0.5 0.5 h 0.1 v 0.1 h 0.1 v 0.1 h 0.1 v 0.1 h 0.1 v 0.1 h -0.1 v -0.1 h -0.1 v -0.1 h -0.1 v -0.1 h -0.1 z M 0.3 0.5 h 0.1 v 0.1 h 0.1 v 0.1 h 0.1 v 0.1 h 0.1 v 0.1 h -0.1 v -0.1 h -0.1 v -0.1 h -0.1 v -0.1 h -0.1 z M 0.1 0.5 h 0.1 v 0.1 h 0.1 v 0.1 h 0.1 v 0.1 h 0.1 v 0.1 h -0.1 v -0.1 h -0.1 v -0.1 h -0.1 v -0.1 h -0.1 z M 0.1 0.7 h 0.1 v 0.1 h 0.1 v 0.1 h -0.1 v -0.1 h -0.1 z"/>
<path id="path9" d="M 0 0 h 1 v 1 h -1 z M 0.1 0.9 h 0.8 v -0.8 z"/>
<path id="path10" d="M 0 0 h 1 v 1 h -1 z M 0.1 0.1 v 0.8 h 0.8 z"/>
<path id="path11" d="M 0 0 h 1 v 1 h -1 z M 0.1 0.1 v 0.1 h 0.8 v -0.1 z M 0.1 0.3 v 0.6 h 0.8 v -0.6 z"/>
<path id="path12" d="M 0 0 h 1 v 1 h -1 z M 0.1 0.1 v 0.6 h 0.8 v -0.6 z M 0.1 0.8 v 0.1 h 0.8 v -0.1 z"/>
<path id="path13" d="M 0 0 h 1 v 1 h -1 z M 0.1 0.1 v 0.8 h 0.1 v -0.8 z M 0.3 0.1 v 0.8 h 0.6 v -0.8 z"/>
<path id="path14" d="M 0 0 h 1 v 1 h -1 z M 0.1 0.1 v 0.8 h 0.6 v -0.8 z M 0.8 0.1 v 0.8 h 0.1 v -0.8 z"/>
<path id="path15" d="M 0 0 h 1 v 1 h -1 z M 0.1 0.1 v 0.8 h 0.35 a 0.45 0.45 0 0 1 0.45 -0.45 v -0.35 z M 0.9 0.55 a 0.35 0.35 0 0 0 -0.35 0.35 h 0.35 z"/>
<path id="path16" d="M 0 0 h 1 v 1 h -1 z M 0.1 0.1 v 0.35 a 0.45 0.45 0 0 1 0.45 0.45 h 0.35 v -0.8 z M 0.1 0.9 h 0.35 a 0.35 0.35 0 0 0 -0.35 -0.35 z"/>
<path id="path17" d="M 0 0 h 1 v 1 h -1 z M 0.2 0.2 v 0.7 h 0.7 v -0.7 z"/>
<path id="path18" d="M 0 0 h 1 v 1 h -1 z M 0.1 0.2 v 0.7 h 0.7 v -0.7 z"/>
<path id="path19" d="M 0 0 h 1 v 1 h -1 z M 0.1 0.3 v 0.6 h 0.8 v -0.6 z"/>
<path id="path20" d="M 0 0 h 1 v 1 h -1 z M 0.1 0.4 v 0.5 h 0.8 v -0.5 z"/>
<path id="path21" d="M 0 0 h 1 v 1 h -1 z M 0.1 0.1 v 0.5 h 0.8 v -0.5 z"/>
<path id="path22" d="M 0 0 h 1 v 1 h -1 z M 0.1 0.1 v 0.6 h 0.8 v -0.6 z"/>
<path id="path23" d="M 0 0 h 1 v 1 h -1 z M 0.1 0.1 v 0.2 h 0.8 v -0.2 z M 0.1 0.4 v 0.5 h 0.8 v -0.5 z"/>
<path id="path24" d="M 0 0 h 1 v 1 h -1 z M 0.1 0.1 v 0.5 h 0.8 v -0.5 z M 0.1 0.7 v 0.2 h 0.8 v -0.2 z"/>
<path id="path25" d="M 0 0 h 1 v 1 h -1 z M 0.1 0.1 v 0.8 h 0.2 v -0.8 z M 0.4 0.1 v 0.8 h 0.5 v -0.8 z"/>
<path id="path26" d="M 0 0 h 1 v 1 h -1 z M 0.1 0.1 v 0.8 h 0.5 v -0.8 z M 0.7 0.1 v 0.8 h 0.2 v -0.8 z"/>
<path id="path27" d="M 0 0 h 1 v 1 h -1 z M 0.1 0.1 v 0.8 h 0.8 v -0.35 a 0.45 0.45 0 0 1 -0.45 -0.45 z M 0.55 0.1 a 0.35 0.35 0 0 0 0.35 0.35 v -0.35 z"/>
<path id="path28" d="M 0 0 h 1 v 1 h -1 z M 0.1 0.1 v 0.35 a 0.35 0.35 0 0 0 0.35 -0.35 z M 0.55 0.1 a 0.45 0.45 0 0 1 -0.45 0.45 v 0.35 h 0.8 v -0.8 z"/>
<path id="path29" d="M 0 0 h 1 v 1 h -1 z M 0.2 0.1 v 0.7 h 0.7 v -0.7 z"/>
<path id="path30" d="M 0 0 h 1 v 1 h -1 z M 0.1 0.1 v 0.7 h 0.7 v -0.7 z"/>
<path id="path31" d="M 0 0 h 1 v 1 h -1 z M 0.3 0.1 v 0.8 h 0.6 v -0.8 z"/>
<path id="path32" d="M 0 0 h 1 v 1 h -1 z M 0.4 0.1 v 0.8 h 0.5 v -0.8 z"/>
<path id="path33" d="M 0 0 h 1 v 1 h -1 z M 0.1 0.1 v 0.8 h 0.5 v -0.8 z"/>
<path id="path34" d="M 0 0 h 1 v 1 h -1 z M 0.1 0.1 v 0.8 h 0.6 v -0.8 z"/>
<path id="path35" d="M 0 0 h 1 v 1 h -1 z M 0.1 0.1 v 0.3 h 0.8 v -0.3 z M 0.1 0.5 v 0.4 h 0.8 v -0.4 z"/>
<path id="path36" d="M 0 0 h 1 v 1 h -1 z M 0.1707 0.1 L 0.5 0.4293 L 0.8293 0.1 Z M 0.1 0.1707 L 0.1 0.8293 L 0.4293 0.5 Z M 0.9 0.1707 L 0.5707 0.5 L 0.9 0.8293 Z M 0.5 0.5707 L 0.1707 0.9 L 0.8293 0.9 Z"/>
<path id="path37" d="M 0 0 h 1 v 1 h -1 z M 0.1 0.1 v 0.8 h 0.3 v -0.8 z M 0.5 0.1 v 0.8 h 0.4 v -0.8 z"/>
<path id="path38" d="M 0 0 h 1 v 1 h -1 z M 0.1 0.1 L 0.1 0.8293 L 0.8293 0.1 Z M 0.9 0.9 L 0.9 0.1707 L 0.1707 0.9 Z"/>
<path id="path39" d="M 0 0 h 1 v 1 h -1 z M 0.9 0.1 L 0.1707 0.1 L 0.9 0.8293 Z M 0.1 0.9 L 0.8293 0.9 L 0.1 0.1707 Z"/>
<path id="path40" d="M 0 0 h 1 v 1 h -1 z M 0.1 0.1 v 0.8 h 0.4 v -0.4 h 0.4 v -0.4 z"/>
<path id="path41" d="M 0 0 h 1 v 1 h -1 z M 0.1 0.1 v 0.4 h 0.4 v 0.4 h 0.4 v -0.8 z"/>
<path id="path42" d="M 0 0 h 1 v 1 h -1 z M 0.5 0.1 v 0.4 h 0.4 v -0.4 z M 0.1 0.5 v 0.4 h 0.4 v -0.4 z"/>
<path id="path43" d="M 0 0 h 1 v 1 h -1 z M 0.1 0.1 v 0.35 h 0.35 v -0.35 z M 0.55 0.1 v 0.35 h 0.35 v -0.35 z M 0.1 0.55 v 0.35 h 0.8 v -0.35 z"/>
<path id="path44" d="M 0 0 h 1 v 1 h -1 z M 0.1 0.1 v 0.35 h 0.8 v -0.35 z M 0.1 0.55 v 0.35 h 0.35 v -0.35 z M 0.55 0.55 v 0.35 h 0.35 v -0.35 z"/>
<path id="path45" d="M 0 0 h 1 v 1 h -1 z M 0.1 0.1 v 0.35 h 0.35 v -0.35 z M 0.1 0.55 v 0.35 h 0.35 v -0.35 z M 0.55 0.1 v 0.8 h 0.35 v -0.8 z"/>
<path id="path46" d="M 0 0 h 1 v 1 h -1 z M 0.1 0.1 v 0.8 h 0.35 v -0.8 z M 0.55 0.1 v 0.35 h 0.35 v -0.35 z M 0.55 0.55 v 0.35 h 0.35 v -0.35 z"/>
<path id="path47" d="M 0 0 h 1 v 1 h -1 z M 0.1 0.1 v 0.4 h 0.8 v -0.4 z M 0.1 0.6 v 0.3 h 0.8 v -0.3 z"/>
<path id="path48" d="M 0 0 h 1 v 1 h -1 z M 0.1 0.1 v 0.35 h 0.35 v -0.35 z M 0.55 0.1 v 0.35 h 0.35 v -0.35 z M 0.1 0.55 v 0.35 h 0.35 v -0.35 z M 0.55 0.55 v 0.35 h 0.35 v -0.35 z"/>
<path id="path49" d="M 0 0 h 1 v 1 h -1 z M 0.1 0.1 v 0.8 h 0.4 v -0.8 z M 0.6 0.1 v 0.8 h 0.3 v -0.8 z"/>
<path id="path50" d="M 0 0 h 1 v 1 h -1 z M 0.1 0.1 v 0.8 h 0.8 v -0.4 h -0.4 v -0.4 z"/>
<path id="path51" d="M 0 0 h 1 v 1 h -1 z M 0.5 0.1 v 0.4 h -0.4 v 0.4 h 0.8 v -0.8 z"/>
<path id="path52" d="M 0 0 h 1 v 1 h -1 z M 0.1 0.1 v 0.8 h 0.35 v -0.45 h 0.45 v -0.35 z M 0.55 0.55 v 0.35 h 0.35 v -0.35 z"/>
<path id="path53" d="M 0 0 h 1 v 1 h -1 z M 0.1 0.1 v 0.35 h 0.45 v 0.45 h 0.35 v -0.8 z M 0.1 0.55 v 0.35 h 0.35 v -0.35 z"/>
<path id="path54" d="M 0 0 h 1 v 1 h -1 z M 0.1 0.1 v 0.8 h 0.8 v -0.35 h -0.45 v -0.45 z M 0.55 0.1 v 0.35 h 0.35 v -0.35 z"/>
<path id="path55" d="M 0 0 h 1 v 1 h -1 z M 0.1 0.1 v 0.35 h 0.35 v -0.35 z M 0.55 0.1 v 0.45 h -0.45 v 0.35 h 0.8 v -0.8 z"/>
</defs>
<g class="keyboard">
<g class="key">
<use xlink:href="#shape0" transform="translate(0 -216)"/>
<text x="27" y="-237.9" text-anchor="middle" font-family="Arial" font-size="12" fill="#000000">!</text>
<use xlink:href="#path0" transform="translate(21 -262.5) scale(12 12)" fill="#000000"/>
</g>
<g class="key">
<use xlink:href="#shape0" transform="translate(54 -216)"/>
<text x="81" y="-237.9" text-anchor="middle" font-family="Arial" font-size="12" fill="#000000">&#34;</text>
<use xlink:href="#path1" transform="translate(75 -262.5) scale(12 12)" fill="#000000"/>
</g>
<g class="key">
<use xlink:href="#shape0" transform="translate(108 -216)"/>
<text x="135" y="-237.9" text-anchor="middle" font-family="Arial" font-size="12" fill="#000000">#</text>
<use xlink:href="#path2" transform="translate(129 -262.5) scale(12 12)" fill="#000000"/>
</g>
<g class="key">
<use xlink:href="#shape0" transform="translate(162 -216)"/>
<text x="189" y="-237.9" text-anchor="middle" font-family="Arial" font-size="12" fill="#000000">$</text>
<use xlink:href="#path3" transform="translate(183 -262.5) scale(12 12)" fill="#000000"/>
</g>
<g class="key">
<use xlink:href="#shape0" transform="translate(216 -216)"/>
<text x="243" y="-237.9" text-anchor="middle" font-family="Arial" font-size="12" fill="#000000">%</text>
<use xlink:href="#path4" transform="translate(237 -262.5) scale(12 12)" fill="#000000"/>
</g>
<g class="key">
<use xlink:href="#shape0" transform="translate(270 -216)"/>
<text x="297" y="-237.9" text-anchor="middle" font-family="Arial" font-size="12" fill="#000000">&#39;</text>
<use xlink:href="#path5" transform="translate(291 -262.5) scale(12 12)" fill="#000000"/>
</g>
<g class="key">
<use xlink:href="#shape0" transform="translate(324 -216)"/>
<text x="351" y="-237.9" text-anchor="middle" font-family="Arial" font-size="12" fill="#000000">&amp;</text>
<use xlink:href="#path6" transform="translate(345 -262.5) scale(12 12)" fill="#000000"/>
</g>
<g class="key">
<use xlink:href="#shape0" transform="translate(378 -216)"/>
<text x="405" y="-237.9" text-anchor="middle" font-family="Arial" font-size="12" fill="#000000">\</text>
<use xlink:href="#path7" transform="translate(399 -262.5) scale(12 12)" fill="#000000"/>
</g>
<g class="key">
<use xlink:href="#shape0" transform="translate(432 -216)"/>
<text x="459" y="-237.9" text-anchor="middle" font-family="Arial" font-size="12" fill="#000000">(</text>
<use xlink:href="#path8" transform="translate(453 -262.5) scale(12 12)" fill="#000000"/>
</g>
<g class="key">
<use xlink:href="#shape0" transform="translate(486 -216)"/>
<text x="513" y="-237.9" text-anchor="middle" font-family="Arial" font-size="12" fill="#000000">)</text>
<use xlink:href="#path9" transform="translate(507 -262.5) scale(12 12)" fill="#000000"/>
</g>
<g class="key">
<use xlink:href="#shape0" transform="translate(540 -216)"/>
<text x="567" y="-237.9" text-anchor="middle" font-family="Arial" font-size="12" fill="#000000">&#8592;</text>
<use xlink:href="#path10" transform="translate(561 -262.5) scale(12 12)" fill="#000000"/>
</g>
<g class="key">
<use xlink:href="#shape1" transform="translate(648 -216)"/>
<text x="675" y="-238.5" text-anchor="middle" font-family="Arial" font-size="10" fill="#ffffff">HOME</text>
<text x="675" y="-253.5" text-anchor="middle" font-family="Arial" font-size="10" fill="#ffffff">CLR</text>
</g>
<g class="key">
<use xlink:href="#shape2" transform="translate(702 -216)"/>
<text x="729" y="-256" text-anchor="middle" font-family="Arial" font-size="10" fill="#ffffff">&#8657;</text>
<text x="729" y="-246" text-anchor="middle" font-family="Arial" font-size="10" fill="#ffffff">CRSR</text>
<text x="729" y="-236" text-anchor="middle" font-family="Arial" font-size="10" fill="#ffffff">&#8659;</text>
</g>
<g class="key">
<use xlink:href="#shape2" transform="translate(756 -216)"/>
<text x="783" y="-256" text-anchor="middle" font-family="Arial" font-size="10" fill="#ffffff">&#8656;</text>
<text x="783" y="-246" text-anchor="middle" font-family="Arial" font-size="10" fill="#ffffff">CRSR</text>
<text x="783" y="-236" text-anchor="middle" font-family="Arial" font-size="10" fill="#ffffff">&#8658;</text>
</g>
<g class="key">
<use xlink:href="#shape1" transform="translate(810 -216)"/>
<text x="837" y="-238.5" text-anchor="middle" font-family="Arial" font-size="10" fill="#ffffff">DEL</text>
<text x="837" y="-253.5" text-anchor="middle" font-family="Arial" font-size="10" fill="#ffffff">INST</text>
</g>
<g class="key">
<use xlink:href="#shape3" transform="translate(0 -162)"/>
<text x="27" y="-183.9" text-anchor="middle" font-family="Arial" font-size="12" fill="#000000">Q</text>
<text x="27" y="-198.9" text-anchor="middle" font-family="Arial" font-size="12" fill="#000000">&#9679;</text>
</g>
<g class="key">
<use xlink:href="#shape3" transform="translate(54 -162)"/>
<text x="81" y="-183.9" text-anchor="middle" font-family="Arial" font-size="12" fill="#000000">W</text>
<text x="81" y="-198.9" text-anchor="middle" font-family="Arial" font-size="12" fill="#000000">&#9675;</text>
</g>
<g class="key">
<use xlink:href="#shape3" transform="translate(108 -162)"/>
<text x="135" y="-183.9" text-anchor="middle" font-family="Arial" font-size="12" fill="#000000">E</text>
<use xlink:href="#path11" transform="translate(129 -208.5) scale(12 12)" fill="#000000"/>
</g>
<g class="key">
<use xlink:href="#shape3" transform="translate(162 -162)"/>
<text x="189" y="-183.9" text-anchor="middle" font-family="Arial" font-size="12" fill="#000000">R</text>
<use xlink:href="#path12" transform="translate(183 -208.5) scale(12 12)" fill="#000000"/>
</g>
<g class="key">
<use xlink:href="#shape3" transform="translate(216 -162)"/>
<text x="243" y="-183.9" text-anchor="middle" font-family="Arial" font-size="12" fill="#000000">T</text>
<use xlink:href="#path13" transform="translate(237 -208.5) scale(12 12)" fill="#000000"/>
</g>
<g class="key">
<use xlink:href="#shape3" transform="translate(270 -162)"/>
<text x="297" y="-183.9" text-anchor="middle" font-family="Arial" font-size="12" fill="#000000">Y</text>
<use xlink:href="#path14" transform="translate(291 -208.5) scale(12 12)" fill="#000000"/>
</g>
<g class="key">
<use xlink:href="#shape3" transform="translate(324 -162)"/>
<text x="351" y="-183.9" text-anchor="middle" font-family="Arial" font-size="12" fill="#000000">U</text>
<use xlink:href="#path15" transform="translate(345 -208.5) scale(12 12)" fill="#000000"/>
</g>
<g class="key">
<use xlink:href="#shape3" transform="translate(378 -162)"/>
<text x="405" y="-183.9" text-anchor="middle" font-family="Arial" font-size="12" fill="#000000">I</text>
<use xlink:href="#path16" transform="translate(399 -208.5) scale(12 12)" fill="#000000"/>
</g>
<g class="key">
<use xlink:href="#shape3" transform="translate(432 -162)"/>
<text x="459" y="-183.9" text-anchor="middle" font-family="Arial" font-size="12" fill="#000000">O</text>
<use xlink:href="#path17" transform="translate(453 -208.5) scale(12 12)" fill="#000000"/>
</g>
<g class="key">
<use xlink:href="#shape3" transform="translate(486 -162)"/>
<text x="513" y="-183.9" text-anchor="middle" font-family="Arial" font-size="12" fill="#000000">P</text>
<use xlink:href="#path18" transform="translate(507 -208.5) scale(12 12)" fill="#000000"/>
</g>
<g class="key">
<use xlink:href="#shape0" transform="translate(540 -162)"/>
<text x="567" y="-183.9" text-anchor="middle" font-family="Arial" font-size="12" fill="#000000">&#8593;</text>
<text x="567" y="-198.9" text-anchor="middle" font-family="Arial" font-size="12" fill="#000000">&#960;</text>
</g>
<g class="key">
<use xlink:href="#shape4" transform="translate(648 -162)"/>
<text x="675" y="-183.9" text-anchor="middle" font-family="Arial" font-size="12" fill="#000000">7</text>
<use xlink:href="#path19" transform="translate(669 -208.5) scale(12 12)" fill="#000000"/>
</g>
<g class="key">
<use xlink:href="#shape4" transform="translate(702 -162)"/>
<text x="729" y="-183.9" text-anchor="middle" font-family="Arial" font-size="12" fill="#000000">8</text>
<use xlink:href="#path20" transform="translate(723 -208.5) scale(12 12)" fill="#000000"/>
</g>
<g class="key">
<use xlink:href="#shape4" transform="translate(756 -162)"/>
<text x="783" y="-183.9" text-anchor="middle" font-family="Arial" font-size="12" fill="#000000">9</text>
<use xlink:href="#path21" transform="translate(777 -208.5) scale(12 12)" fill="#000000"/>
</g>
<g class="key">
<use xlink:href="#shape0" transform="translate(810 -162)"/>
<text x="837" y="-183.9" text-anchor="middle" font-family="Arial" font-size="12" fill="#000000">/</text>
<use xlink:href="#path22" transform="translate(831 -208.5) scale(12 12)" fill="#000000"/>
</g>
<g class="key">
<use xlink:href="#shape3" transform="translate(0 -108)"/>
<text x="27" y="-129.9" text-anchor="middle" font-family="Arial" font-size="12" fill="#000000">A</text>
<text x="27" y="-144.9" text-anchor="middle" font-family="Arial" font-size="12" fill="#000000">&#9824;</text>
</g>
<g class="key">
<use xlink:href="#shape3" transform="translate(54 -108)"/>
<text x="81" y="-129.9" text-anchor="middle" font-family="Arial" font-size="12" fill="#000000">S</text>
<text x="81" y="-144.9" text-anchor="middle" font-family="Arial" font-size="12" fill="#000000">&#9829;</text>
</g>
<g class="key">
<use xlink:href="#shape3" transform="translate(108 -108)"/>
<text x="135" y="-129.9" text-anchor="middle" font-family="Arial" font-size="12" fill="#000000">D</text>
<use xlink:href="#path23" transform="translate(129 -154.5) scale(12 12)" fill="#000000"/>
</g>
<g class="key">
<use xlink:href="#shape3" transform="translate(162 -108)"/>
<text x="189" y="-129.9" text-anchor="middle" font-family="Arial" font-size="12" fill="#000000">F</text>
<use xlink:href="#path24" transform="translate(183 -154.5) scale(12 12)" fill="#000000"/>
</g>
<g class="key">
<use xlink:href="#shape3" transform="translate(216 -108)"/>
<text x="243" y="-129.9" text-anchor="middle" font-family="Arial" font-size="12" fill="#000000">G</text>
<use xlink:href="#path25" transform="translate(237 -154.5) scale(12 12)" fill="#000000"/>
</g>
<g class="key">
<use xlink:href="#shape3" transform="translate(270 -108)"/>
<text x="297" y="-129.9" text-anchor="middle" font-family="Arial" font-size="12" fill="#000000">H</text>
<use xlink:href="#path26" transform="translate(291 -154.5) scale(12 12)" fill="#000000"/>
</g>
<g class="key">
<use xlink:href="#shape3" transform="translate(324 -108)"/>
<text x="351" y="-129.9" text-anchor="middle" font-family="Arial" font-size="12" fill="#000000">J</text>
<use xlink:href="#path27" transform="translate(345 -154.5) scale(12 12)" fill="#000000"/>
</g>
<g class="key">
<use xlink:href="#shape3" transform="translate(378 -108)"/>
<text x="405" y="-129.9" text-anchor="middle" font-family="Arial" font-size="12" fill="#000000">K</text>
<use xlink:href="#path28" transform="translate(399 -154.5) scale(12 12)" fill="#000000"/>
</g>
<g class="key">
<use xlink:href="#shape3" transform="translate(432 -108)"/>
<text x="459" y="-129.9" text-anchor="middle" font-family="Arial" font-size="12" fill="#000000">L</text>
<use xlink:href="#path29" transform="translate(453 -154.5) scale(12 12)" fill="#000000"/>
</g>
<g class="key">
<use xlink:href="#shape3" transform="translate(486 -108)"/>
<text x="513" y="-129.9" text-anchor="middle" font-family="Arial" font-size="12" fill="#000000">:</text>
<use xlink:href="#path30" transform="translate(507 -154.5) scale(12 12)" fill="#000000"/>
</g>
<g class="key">
<use xlink:href="#shape4" transform="translate(648 -108)"/>
<text x="675" y="-129.9" text-anchor="middle" font-family="Arial" font-size="12" fill="#000000">4</text>
<use xlink:href="#path31" transform="translate(669 -154.5) scale(12 12)" fill="#000000"/>
</g>
<g class="key">
<use xlink:href="#shape4" transform="translate(702 -108)"/>
<text x="729" y="-129.9" text-anchor="middle" font-family="Arial" font-size="12" fill="#000000">5</text>
<use xlink:href="#path32" transform="translate(723 -154.5) scale(12 12)" fill="#000000"/>
</g>
<g class="key">
<use xlink:href="#shape4" transform="translate(756 -108)"/>
<text x="783" y="-129.9" text-anchor="middle" font-family="Arial" font-size="12" fill="#000000">6</text>
<use xlink:href="#path33" transform="translate(777 -154.5) scale(12 12)" fill="#000000"/>
</g>
<g class="key">
<use xlink:href="#shape0" transform="translate(810 -108)"/>
<text x="837" y="-129.9" text-anchor="middle" font-family="Arial" font-size="12" fill="#000000">*</text>
<use xlink:href="#path34" transform="translate(831 -154.5) scale(12 12)" fill="#000000"/>
</g>
<g class="key">
<use xlink:href="#shape3" transform="translate(0 -54)"/>
<text x="27" y="-75.9" text-anchor="middle" font-family="Arial" font-size="12" fill="#000000">Z</text>
<text x="27" y="-90.9" text-anchor="middle" font-family="Arial" font-size="12" fill="#000000">&#9830;</text>
</g>
<g class="key">
<use xlink:href="#shape3" transform="translate(54 -54)"/>
<text x="81" y="-75.9" text-anchor="middle" font-family="Arial" font-size="12" fill="#000000">X</text>
<text x="81" y="-90.9" text-anchor="middle" font-family="Arial" font-size="12" fill="#000000">&#9827;</text>
</g>
<g class="key">
<use xlink:href="#shape3" transform="translate(108 -54)"/>
<text x="135" y="-75.9" text-anchor="middle" font-family="Arial" font-size="12" fill="#000000">C</text>
<use xlink:href="#path35" transform="translate(129 -100.5) scale(12 12)" fill="#000000"/>
</g>
<g class="key">
<use xlink:href="#shape3" transform="translate(162 -54)"/>
<text x="189" y="-75.9" text-anchor="middle" font-family="Arial" font-size="12" fill="#000000">V</text>
<use xlink:href="#path36" transform="translate(183 -100.5) scale(12 12)" fill="#000000"/>
</g>
<g class="key">
<use xlink:href="#shape3" transform="translate(216 -54)"/>
<text x="243" y="-75.9" text-anchor="middle" font-family="Arial" font-size="12" fill="#000000">B</text>
<use xlink:href="#path37" transform="translate(237 -100.5) scale(12 12)" fill="#000000"/>
</g>
<g class="key">
<use xlink:href="#shape3" transform="translate(270 -54)"/>
<text x="297" y="-75.9" text-anchor="middle" font-family="Arial" font-size="12" fill="#000000">N</text>
<use xlink:href="#path38" transform="translate(291 -100.5) scale(12 12)" fill="#000000"/>
</g>
<g class="key">
<use xlink:href="#shape3" transform="translate(324 -54)"/>
<text x="351" y="-75.9" text-anchor="middle" font-family="Arial" font-size="12" fill="#000000">M</text>
<use xlink:href="#path39" transform="translate(345 -100.5) scale(12 12)" fill="#000000"/>
</g>
<g class="key">
<use xlink:href="#shape0" transform="translate(378 -54)"/>
<text x="405" y="-75.9" text-anchor="middle" font-family="Arial" font-size="12" fill="#000000">,</text>
<use xlink:href="#path40" transform="translate(399 -100.5) scale(12 12)" fill="#000000"/>
</g>
<g class="key">
<use xlink:href="#shape0" transform="translate(432 -54)"/>
<text x="459" y="-75.9" text-anchor="middle" font-family="Arial" font-size="12" fill="#000000">;</text>
<use xlink:href="#path41" transform="translate(453 -100.5) scale(12 12)" fill="#000000"/>
</g>
<g class="key">
<use xlink:href="#shape0" transform="translate(486 -54)"/>
<text x="513" y="-75.9" text-anchor="middle" font-family="Arial" font-size="12" fill="#000000">?</text>
<use xlink:href="#path42" transform="translate(507 -100.5) scale(12 12)" fill="#000000"/>
</g>
<g class="key">
<use xlink:href="#shape5" transform="translate(540 -54)"/>
<text x="567" y="-136" text-anchor="middle" font-family="Arial" font-size="10" fill="#ffffff">R</text>
<text x="567" y="-126" text-anchor="middle" font-family="Arial" font-size="10" fill="#ffffff">E</text>
<text x="567" y="-116" text-anchor="middle" font-family="Arial" font-size="10" fill="#ffffff">T</text>
<text x="567" y="-106" text-anchor="middle" font-family="Arial" font-size="10" fill="#ffffff">U</text>
<text x="567" y="-96" text-anchor="middle" font-family="Arial" font-size="10" fill="#ffffff">R</text>
<text x="567" y="-86" text-anchor="middle" font-family="Arial" font-size="10" fill="#ffffff">N</text>
</g>
<g class="key">
<use xlink:href="#shape4" transform="translate(648 -54)"/>
<text x="675" y="-75.9" text-anchor="middle" font-family="Arial" font-size="12" fill="#000000">1</text>
<use xlink:href="#path43" transform="translate(669 -100.5) scale(12 12)" fill="#000000"/>
</g>
<g class="key">
<use xlink:href="#shape4" transform="translate(702 -54)"/>
<text x="729" y="-75.9" text-anchor="middle" font-family="Arial" font-size="12" fill="#000000">2</text>
<use xlink:href="#path44" transform="translate(723 -100.5) scale(12 12)" fill="#000000"/>
</g>
<g class="key">
<use xlink:href="#shape4" transform="translate(756 -54)"/>
<text x="783" y="-75.9" text-anchor="middle" font-family="Arial" font-size="12" fill="#000000">3</text>
<use xlink:href="#path45" transform="translate(777 -100.5) scale(12 12)" fill="#000000"/>
</g>
<g class="key">
<use xlink:href="#shape0" transform="translate(810 -54)"/>
<text x="837" y="-75.9" text-anchor="middle" font-family="Arial" font-size="12" fill="#000000">+</text>
<use xlink:href="#path46" transform="translate(831 -100.5) scale(12 12)" fill="#000000"/>
</g>
<g class="key">
<use xlink:href="#shape1" transform="translate(0 0)"/>
<text x="27" y="-30" text-anchor="middle" font-family="Arial" font-size="10" fill="#ffffff">SHIFT</text>
</g>
<g class="key">
<use xlink:href="#shape2" transform="translate(54 0)"/>
<text x="81" y="-22.5" text-anchor="middle" font-family="Arial" font-size="10" fill="#ffffff">RVS</text>
<text x="81" y="-37.5" text-anchor="middle" font-family="Arial" font-size="10" fill="#ffffff">OFF</text>
</g>
<g class="key">
<use xlink:href="#shape0" transform="translate(108 0)"/>
<text x="135" y="-21.9" text-anchor="middle" font-family="Arial" font-size="12" fill="#000000">@</text>
<use xlink:href="#path47" transform="translate(129 -46.5) scale(12 12)" fill="#000000"/>
</g>
<g class="key">
<use xlink:href="#shape0" transform="translate(162 0)"/>
<text x="189" y="-21.9" text-anchor="middle" font-family="Arial" font-size="12" fill="#000000">[</text>
<use xlink:href="#path48" transform="translate(183 -46.5) scale(12 12)" fill="#000000"/>
</g>
<g class="key">
<use xlink:href="#shape0" transform="translate(216 0)"/>
<text x="243" y="-21.9" text-anchor="middle" font-family="Arial" font-size="12" fill="#000000">]</text>
<use xlink:href="#path49" transform="translate(237 -46.5) scale(12 12)" fill="#000000"/>
</g>
<g class="key">
<use xlink:href="#shape6" transform="translate(270 0)"/>
<text x="324" y="-30" text-anchor="middle" font-family="Arial" font-size="10" fill="#ffffff">SPACE</text>
</g>
<g class="key">
<use xlink:href="#shape0" transform="translate(378 0)"/>
<text x="405" y="-21.9" text-anchor="middle" font-family="Arial" font-size="12" fill="#000000">&lt;</text>
<use xlink:href="#path50" transform="translate(399 -46.5) scale(12 12)" fill="#000000"/>
</g>
<g class="key">
<use xlink:href="#shape0" transform="translate(432 0)"/>
<text x="459" y="-21.9" text-anchor="middle" font-family="Arial" font-size="12" fill="#000000">&gt;</text>
<use xlink:href="#path51" transform="translate(453 -46.5) scale(12 12)" fill="#000000"/>
</g>
<g class="key">
<use xlink:href="#shape2" transform="translate(486 0)"/>
<text x="513" y="-22.5" text-anchor="middle" font-family="Arial" font-size="10" fill="#ffffff">STOP</text>
<text x="513" y="-37.5" text-anchor="middle" font-family="Arial" font-size="10" fill="#ffffff">RUN</text>
</g>
<g class="key">
<use xlink:href="#shape1" transform="translate(540 0)"/>
<text x="567" y="-30" text-anchor="middle" font-family="Arial" font-size="10" fill="#ffffff">SHIFT</text>
</g>
<g class="key">
<use xlink:href="#shape4" transform="translate(648 0)"/>
<text x="675" y="-21.9" text-anchor="middle" font-family="Arial" font-size="12" fill="#000000">0</text>
<use xlink:href="#path52" transform="translate(669 -46.5) scale(12 12)" fill="#000000"/>
</g>
<g class="key">
<use xlink:href="#shape4" transform="translate(702 0)"/>
<text x="729" y="-21.9" text-anchor="middle" font-family="Arial" font-size="12" fill="#000000">.</text>
<use xlink:href="#path53" transform="translate(723 -46.5) scale(12 12)" fill="#000000"/>
</g>
<g class="key">
<use xlink:href="#shape0" transform="translate(756 0)"/>
<text x="783" y="-21.9" text-anchor="middle" font-family="Arial" font-size="12" fill="#000000">&#8722;</text>
<use xlink:href="#path54" transform="translate(777 -46.5) scale(12 12)" fill="#000000"/>
</g>
<g class="key">
<use xlink:href="#shape0" transform="translate(810 0)"/>
<text x="837" y="-21.9" text-anchor="middle" font-family="Arial" font-size="12" fill="#000000">=</text>
<use xlink:href="#path55" transform="translate(831 -46.5) scale(12 12)" fill="#000000"/>
</g>
</g>
</svg>
