<?xml version="1.0"?>
<svg xmlns="http://www.w3.org/2000/svg" xmlns:xlink="http://www.w3.org/1999/xlink" version="1.1" width="1012.5" height="270" viewBox="0 -270 1012.5 270">
<defs>
<g id="shape0">
<path d="M 6 -54 C 2.686 -54 0 -51.314 0 -48 L 0 -6 C 0 -2.686 2.686 0 6 0 L 48 0 C 51.314 0 54 -2.686 54 -6 L 54 -48 C 54 -51.314 51.314 -54 48 -54 Z" fill="#000000"/>
<path d="M 6 -53 C 3.239 -53 1 -50.761 1 -48 L 1 -6 C 1 -3.239 3.239 -1 6 -1 L 48 -1 C 50.761 -1 53 -3.239 53 -6 L 53 -48 C 53 -50.761 50.761 -53 48 -53 Z" fill="#2e1f0f"/>
<path d="M 6 -52 C 3.791 -52 2 -50.209 2 -48 L 2 -6 C 2 -3.791 3.791 -2 6 -2 L 48 -2 C 50.209 -2 52 -3.791 52 -6 L 52 -48 C 52 -50.209 50.209 -52 48 -52 Z" fill="#332211"/>
<path d="M 12 -51 C 10.343 -51 9 -49.657 9 -48 L 9 -18 C 9 -16.343 10.343 -15 12 -15 L 42 -15 C 43.657 -15 45 -16.343 45 -18 L 45 -48 C 45 -49.657 43.657 -51 42 -51 Z" fill="#2e1f0f"/>
<path d="M 12 -50 C 10.895 -50 10 -49.105 10 -48 L 10 -18 C 10 -16.895 10.895 -16 12 -16 L 42 -16 C 43.105 -16 44 -16.895 44 -18 L 44 -48 C 44 -49.105 43.105 -50 42 -50 Z" fill="#4b3926"/>
</g>
<g id="shape1">
<path d="M 6 -54 C 2.686 -54 0 -51.314 0 -48 L 0 -6 C 0 -2.686 2.686 0 6 0 L 75 0 C 78.314 0 81 -2.686 81 -6 L 81 -48 C 81 -51.314 78.314 -54 75 -54 Z" fill="#000000"/>
<path d="M 6 -53 C 3.239 -53 1 -50.761 1 -48 L 1 -6 C 1 -3.239 3.239 -1 6 -1 L 75 -1 C 77.761 -1 80 -3.239 80 -6 L 80 -48 C 80 -50.761 77.761 -53 75 -53 Z" fill="#996b3d"/>
<path d="M 6 -52 C 3.791 -52 2 -50.209 2 -48 L 2 -6 C 2 -3.791 3.791 -2 6 -2 L 75 -2 C 77.209 -2 79 -3.791 79 -6 L 79 -48 C 79 -50.209 77.209 -52 75 -52 Z" fill="#aa7744"/>
<path d="M 12 -51 C 10.343 -51 9 -49.657 9 -48 L 9 -18 C 9 -16.343 10.343 -15 12 -15 L 69 -15 C 70.657 -15 72 -16.343 72 -18 L 72 -48 C 72 -49.657 70.657 -51 69 -51 Z" fill="#996b3d"/>
<path d="M 12 -50 C 10.895 -50 10 -49.105 10 -48 L 10 -18 C 10 -16.895 10.895 -16 12 -16 L 69 -16 C 70.105 -16 71 -16.895 71 -18 L 71 -48 C 71 -49.105 70.105 -50 69 -50 Z" fill="#cd955e"/>
</g>
<g id="shape2">
<path d="M 6 -54 C 2.686 -54 0 -51.314 0 -48 L 0 -6 C 0 -2.686 2.686 0 6 0 L 75 0 C 78.314 0 81 -2.686 81 -6 L 81 -48 C 81 -51.314 78.314 -54 75 -54 Z" fill="#000000"/>
<path d="M 6 -53 C 3.239 -53 1 -50.761 1 -48 L 1 -6 C 1 -3.239 3.239 -1 6 -1 L 75 -1 C 77.761 -1 80 -3.239 80 -6 L 80 -48 C 80 -50.761 77.761 -53 75 -53 Z" fill="#2e1f0f"/>
<path d="M 6 -52 C 3.791 -52 2 -50.209 2 -48 L 2 -6 C 2 -3.791 3.791 -2 6 -2 L 75 -2 C 77.209 -2 79 -3.791 79 -6 L 79 -48 C 79 -50.209 77.209 -52 75 -52 Z" fill="#332211"/>
<path d="M 12 -51 C 10.343 -51 9 -49.657 9 -48 L 9 -18 C 9 -16.343 10.343 -15 12 -15 L 69 -15 C 70.657 -15 72 -16.343 72 -18 L 72 -48 C 72 -49.657 70.657 -51 69 -51 Z" fill="#2e1f0f"/>
<path d="M 12 -50 C 10.895 -50 10 -49.105 10 -48 L 10 -18 C 10 -16.895 10.895 -16 12 -16 L 69 -16 C 70.105 -16 71 -16.895 71 -18 L 71 -48 C 71 -49.105 70.105 -50 69 -50 Z" fill="#4b3926"/>
</g>
<g id="shape3">
<path d="M 6 -54 C 2.686 -54 0 -51.314 0 -48 L 0 -6 C 0 -2.686 2.686 0 6 0 L 102 0 C 105.314 0 108 -2.686 108 -6 L 108 -48 C 108 -51.314 105.314 -54 102 -54 Z" fill="#000000"/>
<path d="M 6 -53 C 3.239 -53 1 -50.761 1 -48 L 1 -6 C 1 -3.239 3.239 -1 6 -1 L 102 -1 C 104.761 -1 107 -3.239 107 -6 L 107 -48 C 107 -50.761 104.761 -53 102 -53 Z" fill="#2e1f0f"/>
<path d="M 6 -52 C 3.791 -52 2 -50.209 2 -48 L 2 -6 C 2 -3.791 3.791 -2 6 -2 L 102 -2 C 104.209 -2 106 -3.791 106 -6 L 106 -48 C 106 -50.209 104.209 -52 102 -52 Z" fill="#332211"/>
<path d="M 12 -51 C 10.343 -51 9 -49.657 9 -48 L 9 -18 C 9 -16.343 10.343 -15 12 -15 L 96 -15 C 97.657 -15 99 -16.343 99 -18 L 99 -48 C 99 -49.657 97.657 -51 96 -51 Z" fill="#2e1f0f"/>
<path d="M 12 -50 C 10.895 -50 10 -49.105 10 -48 L 10 -18 C 10 -16.895 10.895 -16 12 -16 L 96 -16 C 97.105 -16 98 -16.895 98 -18 L 98 -48 C 98 -49.105 97.105 -50 96 -50 Z" fill="#4b3926"/>
</g>
<g id="shape4">
<path d="M 6 -54 C 2.686 -54 0 -51.314 0 -48 L 0 -6 C 0 -2.686 2.686 0 6 0 L 480 0 C 483.314 0 486 -2.686 486 -6 L 486 -48 C 486 -51.314 483.314 -54 480 -54 Z" fill="#000000"/>
<path d="M 6 -53 C 3.239 -53 1 -50.761 1 -48 L 1 -6 C 1 -3.239 3.239 -1 6 -1 L 480 -1 C 482.761 -1 485 -3.239 485 -6 L 485 -48 C 485 -50.761 482.761 -53 480 -53 Z" fill="#2e1f0f"/>
<path d="M 6 -52 C 3.791 -52 2 -50.209 2 -48 L 2 -6 C 2 -3.791 3.791 -2 6 -2 L 480 -2 C 482.209 -2 484 -3.791 484 -6 L 484 -48 C 484 -50.209 482.209 -52 480 -52 Z" fill="#332211"/>
<path d="M 12 -51 C 10.343 -51 9 -49.657 9 -48 L 9 -18 C 9 -16.343 10.343 -15 12 -15 L 474 -15 C 475.657 -15 477 -16.343 477 -18 L 477 -48 C 477 -49.657 475.657 -51 474 -51 Z" fill="#2e1f0f"/>
<path d="M 12 -50 C 10.895 -50 10 -49.105 10 -48 L 10 -18 C 10 -16.895 10.895 -16 12 -16 L 474 -16 C 475.105 -16 476 -16.895 476 -18 L 476 -48 C 476 -49.105 475.105 -50 474 -50 Z" fill="#4b3926"/>
</g>
<path id="path0" d="M 0 0 h 1 v 1 h -1 z M 0.8 0.1 v 0.1 h 0.1 v -0.1 z M 0.6 0.1 v 0.1 h 0.1 v 0.1 h 0.1 v 0.1 h 0.1 v -0.1 h -0.1 v -0.1 h -0.1 v -0.1 z M 0.4 0.1 v 0.1 h 0.1 v 0.1 h 0.1 v 0.1 h 0.1 v 0.1 h 0.1 v 0.1 h 0.1 v -0.1 h -0.1 v -0.1 h -0.1 v -0.1 h -0.1 v -0.1 h -0.1 v -0.1 z M 0.2 0.1 v 0.1 h 0.1 v 0.1 h 0.1 v 0.1 h 0.1 v 0.1 h 0.1 v 0.1 h 0.1 v 0.1 h 0.1 v 0.1 h 0.1 v -0.1 h -0.1 v -0.1 h -0.1 v -0.1 h -0.1 v -0.1 h -0.1 v -0.1 h -0.1 v -0.1 h -0.1 v -0.1 z M 0.1 0.2 v 0.1 h 0.1 v 0.1 h 0.1 v 0.1 h 0.1 v 0.1 h 0.1 v 0.1 h 0.1 v 0.1 h 0.1 v 0.1 h 0.1 v -0.1 h -0.1 v -0.1 h -0.1 v -0.1 h -0.1 v -0.1 h -0.1 v -0.1 h -0.1 v -0.1 h -0.1 v -0.1 z M 0.1 0.4 v 0.1 h 0.1 v 0.1 h 0.1 v 0.1 h 0.1 v 0.1 h 0.1 v 0.1 h 0.1 v -0.1 h -0.1 v -0.1 h -0.1 v -0.1 h -0.1 v -0.1 h -0.1 v -0.1 z M 0.1 0.6 v 0.1 h 0.1 v 0.1 h 0.1 v 0.1 h 0.1 v -0.1 h -0.1 v -0.1 h -0.1 v -0.1 z M 0.1 0.8 v 0.1 h 0.1 v -0.1 z"/>
<path id="path1" d="M 0 0 h 1 v 1 h -1 z M 0.1 0.1 v 0.35 h 0.35 v -0.35 z M 0.55 0.1 v 0.35 h 0.35 v -0.35 z M 0.1 0.55 v 0.35 h 0.35 v -0.35 z M 0.55 0.55 v 0.35 h 0.35 v -0.35 z"/>
<path id="path2" d="M 0 0 h 1 v 1 h -1 z M 0.1 0.1 v 0.8 h 0.8 v -0.8 z M 0.3 0.1 h 0.1 v 0.1 h 0.1 v 0.1 h -0.1 v -0.1 h -0.1 z M 0.1 0.1 h 0.1 v 0.1 h 0.1 v 0.1 h 0.1 v 0.1 h 0.1 v 0.1 h -0.1 v -0.1 h -0.1 v -0.1 h -0.1 v -0.1 h -0.1 z M 0.1 0.3 h 0.1 v 0.1 h 0.1 v 0.1 h 0.1 v 0.1 h 0.1 v 0.1 h -0.1 v -0.1 h -0.1 v -0.1 h -0.1 v -0.1 h -0.1 z M 0.1 0.5 h 0.1 v 0.1 h 0.1 v 0.1 h 0.1 v 0.1 h 0.1 v 0.1 h -0.1 v -0.1 h -0.1 v -0.1 h -0.1 v -0.1 h -0.1 z M 0.1 0.7 h 0.1 v 0.1 h 0.1 v 0.1 h -0.1 v -0.1 h -0.1 z"/>
<path id="path3" d="M 0 0 h 1 v 1 h -1 z M 0.1 0.1 v 0.8 h 0.4 v -0.8 z M 0.6 0.1 v 0.8 h 0.3 v -0.8 z"/>
<path id="path4" d="M 0 0 h 1 v 1 h -1 z M 0.1 0.1 v 0.8 h 0.8 v -0.8 z M 0.7 0.5 h 0.1 v 0.1 h 0.1 v 0.1 h -0.1 v -0.1 h -0.1 z M 0.5 0.5 h 0.1 v 0.1 h 0.1 v 0.1 h 0.1 v 0.1 h 0.1 v 0.1 h -0.1 v -0.1 h -0.1 v -0.1 h -0.1 v -0.1 h -0.1 z M 0.3 0.5 h 0.1 v 0.1 h 0.1 v 0.1 h 0.1 v 0.1 h 0.1 v 0.1 h -0.1 v -0.1 h -0.1 v -0.1 h -0.1 v -0.1 h -0.1 z M 0.1 0.5 h 0.1 v 0.1 h 0.1 v 0.1 h 0.1 v 0.1 h 0.1 v 0.1 h -0.1 v -0.1 h -0.1 v -0.1 h -0.1 v -0.1 h -0.1 z M 0.1 0.7 h 0.1 v 0.1 h 0.1 v 0.1 h -0.1 v -0.1 h -0.1 z"/>
<path id="path5" d="M 0 0 h 1 v 1 h -1 z M 0.1 0.9 h 0.8 v -0.8 z"/>
<path id="path6" d="M 0 0 h 1 v 1 h -1 z M 0.1 0.1 v 0.8 h 0.35 v -0.8 z M 0.55 0.1 v 0.35 h 0.35 v -0.35 z M 0.55 0.55 v 0.35 h 0.35 v -0.35 z"/>
<path id="path7" d="M 0 0 h 1 v 1 h -1 z M 0.1 0.1 v 0.35 h 0.35 v -0.35 z M 0.1 0.55 v 0.35 h 0.35 v -0.35 z M 0.55 0.1 v 0.8 h 0.35 v -0.8 z"/>
<path id="path8" d="M 0 0 h 1 v 1 h -1 z M 0.1 0.1 v 0.35 h 0.35 v -0.35 z M 0.55 0.1 v 0.35 h 0.35 v -0.35 z M 0.1 0.55 v 0.35 h 0.8 v -0.35 z"/>
<path id="path9" d="M 0 0 h 1 v 1 h -1 z M 0.1 0.1 v 0.1 h 0.8 v -0.1 z M 0.1 0.3 v 0.6 h 0.8 v -0.6 z"/>
<path id="path10" d="M 0 0 h 1 v 1 h -1 z M 0.1 0.1 v 0.35 h 0.8 v -0.35 z M 0.1 0.55 v 0.35 h 0.35 v -0.35 z M 0.55 0.55 v 0.35 h 0.35 v -0.35 z"/>
<path id="path11" d="M 0 0 h 1 v 1 h -1 z M 0.1 0.1 v 0.6 h 0.8 v -0.6 z M 0.1 0.8 v 0.1 h 0.8 v -0.1 z"/>
<path id="path12" d="M 0 0 h 1 v 1 h -1 z M 0.1 0.2 v 0.7 h 0.8 v -0.7 z"/>
<path id="path13" d="M 0 0 h 1 v 1 h -1 z M 0.1 0.1 v 0.8 h 0.1 v -0.8 z M 0.3 0.1 v 0.8 h 0.6 v -0.8 z"/>
<path id="path14" d="M 0 0 h 1 v 1 h -1 z M 0.1 0.3 v 0.6 h 0.8 v -0.6 z"/>
<path id="path15" d="M 0 0 h 1 v 1 h -1 z M 0.1 0.1 v 0.8 h 0.6 v -0.8 z M 0.8 0.1 v 0.8 h 0.1 v -0.8 z"/>
<path id="path16" d="M 0 0 h 1 v 1 h -1 z M 0.1 0.4 v 0.5 h 0.8 v -0.5 z"/>
<path id="path17" d="M 0 0 h 1 v 1 h -1 z M 0.1 0.1 v 0.8 h 0.35 a 0.45 0.45 0 0 1 0.45 -0.45 v -0.35 z M 0.9 0.55 a 0.35 0.35 0 0 0 -0.35 0.35 h 0.35 z"/>
<path id="path18" d="M 0 0 h 1 v 1 h -1 z M 0.1 0.1 v 0.4 h 0.8 v -0.4 z"/>
<path id="path19" d="M 0 0 h 1 v 1 h -1 z M 0.1 0.1 v 0.35 a 0.45 0.45 0 0 1 0.45 0.45 h 0.35 v -0.8 z M 0.1 0.9 h 0.35 a 0.35 0.35 0 0 0 -0.35 -0.35 z"/>
<path id="path20" d="M 0 0 h 1 v 1 h -1 z M 0.1 0.1 v 0.5 h 0.8 v -0.5 z"/>
<path id="path21" d="M 0 0 h 1 v 1 h -1 z M 0.2 0.2 v 0.7 h 0.7 v -0.7 z"/>
<path id="path22" d="M 0 0 h 1 v 1 h -1 z M 0.1 0.1 v 0.6 h 0.8 v -0.6 z"/>
<path id="path23" d="M 0 0 h 1 v 1 h -1 z M 0.1 0.2 v 0.7 h 0.7 v -0.7 z"/>
<path id="path24" d="M 0 0 h 1 v 1 h -1 z M 0.1 0.1 v 0.7 h 0.8 v -0.7 z"/>
<path id="path25" d="M 0 0 h 1 v 1 h -1 z M 0.1 0.1 v 0.7 h 0.7 v -0.7 z"/>
<path id="path26" d="M 0 0 h 1 v 1 h -1 z M 0.1 0.1 v 0.8 h 0.8 z"/>
<path id="path27" d="M 0 0 h 1 v 1 h -1 z M 0.1 0.1 v 0.4 h 0.8 v -0.4 z M 0.1 0.6 v 0.3 h 0.8 v -0.3 z"/>
<path id="path28" d="M 0 0 h 1 v 1 h -1 z M 0.1 0.1 v 0.8 h 0.35 v -0.45 h 0.45 v -0.35 z M 0.55 0.55 v 0.35 h 0.35 v -0.35 z"/>
<path id="path29" d="M 0 0 h 1 v 1 h -1 z M 0.1 0.1 v 0.35 h 0.45 v 0.45 h 0.35 v -0.8 z M 0.1 0.55 v 0.35 h 0.35 v -0.35 z"/>
<path id="path30" d="M 0 0 h 1 v 1 h -1 z M 0.1 0.1 v 0.8 h 0.4 v -0.4 h 0.4 v -0.4 z"/>
<path id="path31" d="M 0 0 h 1 v 1 h -1 z M 0.1 0.1 v 0.2 h 0.8 v -0.2 z M 0.1 0.4 v 0.5 h 0.8 v -0.5 z"/>
<path id="path32" d="M 0 0 h 1 v 1 h -1 z M 0.1 0.1 v 0.4 h 0.4 v 0.4 h 0.4 v -0.8 z"/>
<path id="path33" d="M 0 0 h 1 v 1 h -1 z M 0.1 0.1 v 0.5 h 0.8 v -0.5 z M 0.1 0.7 v 0.2 h 0.8 v -0.2 z"/>
<path id="path34" d="M 0 0 h 1 v 1 h -1 z M 0.2 0.1 v 0.8 h 0.7 v -0.8 z"/>
<path id="path35" d="M 0 0 h 1 v 1 h -1 z M 0.1 0.1 v 0.8 h 0.2 v -0.8 z M 0.4 0.1 v 0.8 h 0.5 v -0.8 z"/>
<path id="path36" d="M 0 0 h 1 v 1 h -1 z M 0.3 0.1 v 0.8 h 0.6 v -0.8 z"/>
<path id="path37" d="M 0 0 h 1 v 1 h -1 z M 0.1 0.1 v 0.8 h 0.5 v -0.8 z M 0.7 0.1 v 0.8 h 0.2 v -0.8 z"/>
<path id="path38" d="M 0 0 h 1 v 1 h -1 z M 0.4 0.1 v 0.8 h 0.5 v -0.8 z"/>
<path id="path39" d="M 0 0 h 1 v 1 h -1 z M 0.1 0.1 v 0.8 h 0.8 v -0.35 a 0.45 0.45 0 0 1 -0.45 -0.45 z M 0.55 0.1 a 0.35 0.35 0 0 0 0.35 0.35 v -0.35 z"/>
<path id="path40" d="M 0 0 h 1 v 1 h -1 z M 0.5 0.1 v 0.8 h 0.4 v -0.8 z"/>
<path id="path41" d="M 0 0 h 1 v 1 h -1 z M 0.1 0.1 v 0.35 a 0.35 0.35 0 0 0 0.35 -0.35 z M 0.55 0.1 a 0.45 0.45 0 0 1 -0.45 0.45 v 0.35 h 0.8 v -0.8 z"/>
<path id="path42" d="M 0 0 h 1 v 1 h -1 z M 0.1 0.1 v 0.8 h 0.5 v -0.8 z"/>
<path id="path43" d="M 0 0 h 1 v 1 h -1 z M 0.2 0.1 v 0.7 h 0.7 v -0.7 z"/>
<path id="path44" d="M 0.571 0.536 h 0.214 L 1 0.75 H 0.571 V 0.536 z M 0.571 0.464 V 0.25 H 1 L 0.786 0.464 H 0.571 z M 0 0.5 C 0 0.223 0.223 0 0.5 0 c 0.025 0 0.048 0.002 0.071 0.006 v 0.217 C 0.548 0.218 0.525 0.214 0.5 0.214 c -0.157 0 -0.286 0.128 -0.286 0.286 S 0.343 0.786 0.5 0.786 c 0.025 0 0.048 -0.004 0.071 -0.009 v 0.217 C 0.548 0.998 0.525 1 0.5 1 C 0.223 1 0 0.777 0 0.5 z"/>
<path id="path45" d="M 0 0 h 1 v 1 h -1 z M 0.1 0.1 v 0.8 h 0.8 v -0.35 h -0.45 v -0.45 z M 0.55 0.1 v 0.35 h 0.35 v -0.35 z"/>
<path id="path46" d="M 0 0 h 1 v 1 h -1 z M 0.1 0.1 v 0.35 h 0.35 v -0.35 z M 0.55 0.1 v 0.45 h -0.45 v 0.35 h 0.8 v -0.8 z"/>
<path id="path47" d="M 0 0 h 1 v 1 h -1 z M 0.1 0.1 v 0.8 h 0.8 v -0.4 h -0.4 v -0.4 z"/>
<path id="path48" d="M 0 0 h 1 v 1 h -1 z M 0.1 0.1 v 0.3 h 0.8 v -0.3 z M 0.1 0.5 v 0.4 h 0.8 v -0.4 z"/>
<path id="path49" d="M 0 0 h 1 v 1 h -1 z M 0.5 0.1 v 0.4 h -0.4 v 0.4 h 0.8 v -0.8 z"/>
<path id="path50" d="M 0 0 h 1 v 1 h -1 z M 0.1707 0.1 L 0.5 0.4293 L 0.8293 0.1 Z M 0.1 0.1707 L 0.1 0.8293 L 0.4293 0.5 Z M 0.9 0.1707 L 0.5707 0.5 L 0.9 0.8293 Z M 0.5 0.5707 L 0.1707 0.9 L 0.8293 0.9 Z"/>
<path id="path51" d="M 0 0 h 1 v 1 h -1 z M 0.5 0.1 v 0.4 h 0.4 v -0.4 z M 0.1 0.5 v 0.4 h 0.4 v -0.4 z"/>
<path id="path52" d="M 0 0 h 1 v 1 h -1 z M 0.1 0.1 v 0.8 h 0.3 v -0.8 z M 0.5 0.1 v 0.8 h 0.4 v -0.8 z"/>
<path id="path53" d="M 0 0 h 1 v 1 h -1 z M 0.1 0.1 v 0.8 h 0.6 v -0.8 z"/>
<path id="path54" d="M 0 0 h 1 v 1 h -1 z M 0.1 0.1 L 0.1 0.8293 L 0.8293 0.1 Z M 0.9 0.9 L 0.9 0.1707 L 0.1707 0.9 Z"/>
<path id="path55" d="M 0 0 h 1 v 1 h -1 z M 0.1 0.1 v 0.8 h 0.7 v -0.8 z"/>
<path id="path56" d="M 0 0 h 1 v 1 h -1 z M 0.9 0.1 L 0.1707 0.1 L 0.9 0.8293 Z M 0.1 0.9 L 0.8293 0.9 L 0.1 0.1707 Z"/>
</defs>
<g class="keyboard">
<g class="key">
<use xlink:href="#shape0" transform="translate(13.5 -216)"/>
<text x="40.5" y="-244.5" text-anchor="middle" font-family="Arial" font-size="15" fill="#f2f2f2">&#8592;</text>
</g>
<g class="key">
<use xlink:href="#shape0" transform="translate(67.5 -216)"/>
<text x="94.5" y="-237.9" text-anchor="middle" font-family="Arial" font-size="12" fill="#f2f2f2">1</text>
<text x="94.5" y="-252.9" text-anchor="middle" font-family="Arial" font-size="12" fill="#f2f2f2">!</text>
<text x="94.5" y="-221" text-anchor="middle" font-family="Arial" font-size="10" fill="#f2f2f2">BLK</text>
</g>
<g class="key">
<use xlink:href="#shape0" transform="translate(121.5 -216)"/>
<text x="148.5" y="-237.9" text-anchor="middle" font-family="Arial" font-size="12" fill="#f2f2f2">2</text>
<text x="148.5" y="-252.9" text-anchor="middle" font-family="Arial" font-size="12" fill="#f2f2f2">&#34;</text>
<text x="148.5" y="-221" text-anchor="middle" font-family="Arial" font-size="10" fill="#f2f2f2">WHT</text>
</g>
<g class="key">
<use xlink:href="#shape0" transform="translate(175.5 -216)"/>
<text x="202.5" y="-237.9" text-anchor="middle" font-family="Arial" font-size="12" fill="#f2f2f2">3</text>
<text x="202.5" y="-252.9" text-anchor="middle" font-family="Arial" font-size="12" fill="#f2f2f2">#</text>
<text x="202.5" y="-221" text-anchor="middle" font-family="Arial" font-size="10" fill="#f2f2f2">RED</text>
</g>
<g class="key">
<use xlink:href="#shape0" transform="translate(229.5 -216)"/>
<text x="256.5" y="-237.9" text-anchor="middle" font-family="Arial" font-size="12" fill="#f2f2f2">4</text>
<text x="256.5" y="-252.9" text-anchor="middle" font-family="Arial" font-size="12" fill="#f2f2f2">$</text>
<text x="256.5" y="-221" text-anchor="middle" font-family="Arial" font-size="10" fill="#f2f2f2">CYN</text>
</g>
<g class="key">
<use xlink:href="#shape0" transform="translate(283.5 -216)"/>
<text x="310.5" y="-237.9" text-anchor="middle" font-family="Arial" font-size="12" fill="#f2f2f2">5</text>
<text x="310.5" y="-252.9" text-anchor="middle" font-family="Arial" font-size="12" fill="#f2f2f2">%</text>
<text x="310.5" y="-221" text-anchor="middle" font-family="Arial" font-size="10" fill="#f2f2f2">PUR</text>
</g>
<g class="key">
<use xlink:href="#shape0" transform="translate(337.5 -216)"/>
<text x="364.5" y="-237.9" text-anchor="middle" font-family="Arial" font-size="12" fill="#f2f2f2">6</text>
<text x="364.5" y="-252.9" text-anchor="middle" font-family="Arial" font-size="12" fill="#f2f2f2">&amp;</text>
<text x="364.5" y="-221" text-anchor="middle" font-family="Arial" font-size="10" fill="#f2f2f2">GRN</text>
</g>
<g class="key">
<use xlink:href="#shape0" transform="translate(391.5 -216)"/>
<text x="418.5" y="-237.9" text-anchor="middle" font-family="Arial" font-size="12" fill="#f2f2f2">7</text>
<text x="418.5" y="-252.9" text-anchor="middle" font-family="Arial" font-size="12" fill="#f2f2f2">&#39;</text>
<text x="418.5" y="-221" text-anchor="middle" font-family="Arial" font-size="10" fill="#f2f2f2">BLU</text>
</g>
<g class="key">
<use xlink:href="#shape0" transform="translate(445.5 -216)"/>
<text x="472.5" y="-237.9" text-anchor="middle" font-family="Arial" font-size="12" fill="#f2f2f2">8</text>
<text x="472.5" y="-252.9" text-anchor="middle" font-family="Arial" font-size="12" fill="#f2f2f2">(</text>
<text x="472.5" y="-221" text-anchor="middle" font-family="Arial" font-size="10" fill="#f2f2f2">YEL</text>
</g>
<g class="key">
<use xlink:href="#shape0" transform="translate(499.5 -216)"/>
<text x="526.5" y="-237.9" text-anchor="middle" font-family="Arial" font-size="12" fill="#f2f2f2">9</text>
<text x="526.5" y="-252.9" text-anchor="middle" font-family="Arial" font-size="12" fill="#f2f2f2">)</text>
<text x="526.5" y="-225.2" text-anchor="middle" font-family="Arial" font-size="6" fill="#f2f2f2">RVS</text>
<text x="526.5" y="-219.2" text-anchor="middle" font-family="Arial" font-size="6" fill="#f2f2f2">ON</text>
</g>
<g class="key">
<use xlink:href="#shape0" transform="translate(553.5 -216)"/>
<text x="580.5" y="-237.9" text-anchor="middle" font-family="Arial" font-size="12" fill="#f2f2f2">0</text>
<text x="580.5" y="-225.2" text-anchor="middle" font-family="Arial" font-size="6" fill="#f2f2f2">RVS</text>
<text x="580.5" y="-219.2" text-anchor="middle" font-family="Arial" font-size="6" fill="#f2f2f2">OFF</text>
</g>
<g class="key">
<use xlink:href="#shape0" transform="translate(607.5 -216)"/>
<text x="634.5" y="-244.5" text-anchor="middle" font-family="Arial" font-size="15" fill="#f2f2f2">+</text>
<use xlink:href="#path0" transform="translate(621 -230) scale(12 12)" fill="#f2f2f2"/>
<use xlink:href="#path1" transform="translate(636 -230) scale(12 12)" fill="#f2f2f2"/>
</g>
<g class="key">
<use xlink:href="#shape0" transform="translate(661.5 -216)"/>
<text x="688.5" y="-244.5" text-anchor="middle" font-family="Arial" font-size="15" fill="#f2f2f2">&#8722;</text>
<use xlink:href="#path2" transform="translate(675 -230) scale(12 12)" fill="#f2f2f2"/>
<use xlink:href="#path3" transform="translate(690 -230) scale(12 12)" fill="#f2f2f2"/>
</g>
<g class="key">
<use xlink:href="#shape0" transform="translate(715.5 -216)"/>
<text x="742.5" y="-244.5" text-anchor="middle" font-family="Arial" font-size="15" fill="#f2f2f2">&#163;</text>
<use xlink:href="#path4" transform="translate(729 -230) scale(12 12)" fill="#f2f2f2"/>
<use xlink:href="#path5" transform="translate(744 -230) scale(12 12)" fill="#f2f2f2"/>
</g>
<g class="key">
<use xlink:href="#shape0" transform="translate(769.5 -216)"/>
<text x="796.5" y="-238.5" text-anchor="middle" font-family="Arial" font-size="10" fill="#f2f2f2">HOME</text>
<text x="796.5" y="-253.5" text-anchor="middle" font-family="Arial" font-size="10" fill="#f2f2f2">CLR</text>
</g>
<g class="key">
<use xlink:href="#shape0" transform="translate(823.5 -216)"/>
<text x="850.5" y="-238.5" text-anchor="middle" font-family="Arial" font-size="10" fill="#f2f2f2">DEL</text>
<text x="850.5" y="-253.5" text-anchor="middle" font-family="Arial" font-size="10" fill="#f2f2f2">INST</text>
</g>
<g class="key">
<use xlink:href="#shape1" transform="translate(931.5 -216)"/>
<text x="972" y="-246" text-anchor="middle" font-family="Arial" font-size="10" fill="#f2f2f2">f 1</text>
<text x="972" y="-221" text-anchor="middle" font-family="Arial" font-size="10" fill="#f2f2f2">f 2</text>
</g>
<g class="key">
<use xlink:href="#shape2" transform="translate(13.5 -162)"/>
<text x="54" y="-192" text-anchor="middle" font-family="Arial" font-size="10" fill="#f2f2f2">CTRL</text>
</g>
<g class="key">
<use xlink:href="#shape0" transform="translate(94.5 -162)"/>
<text x="121.5" y="-190.5" text-anchor="middle" font-family="Arial" font-size="15" fill="#f2f2f2">Q</text>
<use xlink:href="#path6" transform="translate(108 -176) scale(12 12)" fill="#f2f2f2"/>
<text x="129" y="-166.4" text-anchor="middle" font-family="Arial" font-size="12" fill="#f2f2f2">&#9679;</text>
</g>
<g class="key">
<use xlink:href="#shape0" transform="translate(148.5 -162)"/>
<text x="175.5" y="-190.5" text-anchor="middle" font-family="Arial" font-size="15" fill="#f2f2f2">W</text>
<use xlink:href="#path7" transform="translate(162 -176) scale(12 12)" fill="#f2f2f2"/>
<text x="183" y="-166.4" text-anchor="middle" font-family="Arial" font-size="12" fill="#f2f2f2">&#9675;</text>
</g>
<g class="key">
<use xlink:href="#shape0" transform="translate(202.5 -162)"/>
<text x="229.5" y="-190.5" text-anchor="middle" font-family="Arial" font-size="15" fill="#f2f2f2">E</text>
<use xlink:href="#path8" transform="translate(216 -176) scale(12 12)" fill="#f2f2f2"/>
<use xlink:href="#path9" transform="translate(231 -176) scale(12 12)" fill="#f2f2f2"/>
</g>
<g class="key">
<use xlink:href="#shape0" transform="translate(256.5 -162)"/>
<text x="283.5" y="-190.5" text-anchor="middle" font-family="Arial" font-size="15" fill="#f2f2f2">R</text>
<use xlink:href="#path10" transform="translate(270 -176) scale(12 12)" fill="#f2f2f2"/>
<use xlink:href="#path11" transform="translate(285 -176) scale(12 12)" fill="#f2f2f2"/>
</g>
<g class="key">
<use xlink:href="#shape0" transform="translate(310.5 -162)"/>
<text x="337.5" y="-190.5" text-anchor="middle" font-family="Arial" font-size="15" fill="#f2f2f2">T</text>
<use xlink:href="#path12" transform="translate(324 -176) scale(12 12)" fill="#f2f2f2"/>
<use xlink:href="#path13" transform="translate(339 -176) scale(12 12)" fill="#f2f2f2"/>
</g>
<g class="key">
<use xlink:href="#shape0" transform="translate(364.5 -162)"/>
<text x="391.5" y="-190.5" text-anchor="middle" font-family="Arial" font-size="15" fill="#f2f2f2">Y</text>
<use xlink:href="#path14" transform="translate(378 -176) scale(12 12)" fill="#f2f2f2"/>
<use xlink:href="#path15" transform="translate(393 -176) scale(12 12)" fill="#f2f2f2"/>
</g>
<g class="key">
<use xlink:href="#shape0" transform="translate(418.5 -162)"/>
<text x="445.5" y="-190.5" text-anchor="middle" font-family="Arial" font-size="15" fill="#f2f2f2">U</text>
<use xlink:href="#path16" transform="translate(432 -176) scale(12 12)" fill="#f2f2f2"/>
<use xlink:href="#path17" transform="translate(447 -176) scale(12 12)" fill="#f2f2f2"/>
</g>
<g class="key">
<use xlink:href="#shape0" transform="translate(472.5 -162)"/>
<text x="499.5" y="-190.5" text-anchor="middle" font-family="Arial" font-size="15" fill="#f2f2f2">I</text>
<use xlink:href="#path18" transform="translate(486 -176) scale(12 12)" fill="#f2f2f2"/>
<use xlink:href="#path19" transform="translate(501 -176) scale(12 12)" fill="#f2f2f2"/>
</g>
<g class="key">
<use xlink:href="#shape0" transform="translate(526.5 -162)"/>
<text x="553.5" y="-190.5" text-anchor="middle" font-family="Arial" font-size="15" fill="#f2f2f2">O</text>
<use xlink:href="#path20" transform="translate(540 -176) scale(12 12)" fill="#f2f2f2"/>
<use xlink:href="#path21" transform="translate(555 -176) scale(12 12)" fill="#f2f2f2"/>
</g>
<g class="key">
<use xlink:href="#shape0" transform="translate(580.5 -162)"/>
<text x="607.5" y="-190.5" text-anchor="middle" font-family="Arial" font-size="15" fill="#f2f2f2">P</text>
<use xlink:href="#path22" transform="translate(594 -176) scale(12 12)" fill="#f2f2f2"/>
<use xlink:href="#path23" transform="translate(609 -176) scale(12 12)" fill="#f2f2f2"/>
</g>
<g class="key">
<use xlink:href="#shape0" transform="translate(634.5 -162)"/>
<text x="661.5" y="-190.5" text-anchor="middle" font-family="Arial" font-size="15" fill="#f2f2f2">@</text>
<use xlink:href="#path24" transform="translate(648 -176) scale(12 12)" fill="#f2f2f2"/>
<use xlink:href="#path25" transform="translate(663 -176) scale(12 12)" fill="#f2f2f2"/>
</g>
<g class="key">
<use xlink:href="#shape0" transform="translate(688.5 -162)"/>
<text x="715.5" y="-190.5" text-anchor="middle" font-family="Arial" font-size="15" fill="#f2f2f2">*</text>
<use xlink:href="#path26" transform="translate(702 -176) scale(12 12)" fill="#f2f2f2"/>
<use xlink:href="#path27" transform="translate(717 -176) scale(12 12)" fill="#f2f2f2"/>
</g>
<g class="key">
<use xlink:href="#shape0" transform="translate(742.5 -162)"/>
<text x="769.5" y="-190.5" text-anchor="middle" font-family="Arial" font-size="15" fill="#f2f2f2">&#8593;</text>
<text x="769.5" y="-166.4" text-anchor="middle" font-family="Arial" font-size="12" fill="#f2f2f2">&#960;</text>
</g>
<g class="key">
<use xlink:href="#shape2" transform="translate(796.5 -162)"/>
<text x="837" y="-192" text-anchor="middle" font-family="Arial" font-size="10" fill="#f2f2f2">RESTORE</text>
</g>
<g class="key">
<use xlink:href="#shape1" transform="translate(931.5 -162)"/>
<text x="972" y="-192" text-anchor="middle" font-family="Arial" font-size="10" fill="#f2f2f2">f 3</text>
<text x="972" y="-167" text-anchor="middle" font-family="Arial" font-size="10" fill="#f2f2f2">f 4</text>
</g>
<g class="key">
<use xlink:href="#shape0" transform="translate(0 -108)"/>
<text x="27" y="-130.5" text-anchor="middle" font-family="Arial" font-size="10" fill="#f2f2f2">STOP</text>
<text x="27" y="-145.5" text-anchor="middle" font-family="Arial" font-size="10" fill="#f2f2f2">RUN</text>
</g>
<g class="key">
<use xlink:href="#shape0" transform="translate(54 -108)"/>
<text x="81" y="-143" text-anchor="middle" font-family="Arial" font-size="10" fill="#f2f2f2">SHIFT</text>
<text x="81" y="-133" text-anchor="middle" font-family="Arial" font-size="10" fill="#f2f2f2">LOCK</text>
</g>
<g class="key">
<use xlink:href="#shape0" transform="translate(108 -108)"/>
<text x="135" y="-136.5" text-anchor="middle" font-family="Arial" font-size="15" fill="#f2f2f2">A</text>
<use xlink:href="#path28" transform="translate(121.5 -122) scale(12 12)" fill="#f2f2f2"/>
<text x="142.5" y="-112.4" text-anchor="middle" font-family="Arial" font-size="12" fill="#f2f2f2">&#9824;</text>
</g>
<g class="key">
<use xlink:href="#shape0" transform="translate(162 -108)"/>
<text x="189" y="-136.5" text-anchor="middle" font-family="Arial" font-size="15" fill="#f2f2f2">S</text>
<use xlink:href="#path29" transform="translate(175.5 -122) scale(12 12)" fill="#f2f2f2"/>
<text x="196.5" y="-112.4" text-anchor="middle" font-family="Arial" font-size="12" fill="#f2f2f2">&#9829;</text>
</g>
<g class="key">
<use xlink:href="#shape0" transform="translate(216 -108)"/>
<text x="243" y="-136.5" text-anchor="middle" font-family="Arial" font-size="15" fill="#f2f2f2">D</text>
<use xlink:href="#path30" transform="translate(229.5 -122) scale(12 12)" fill="#f2f2f2"/>
<use xlink:href="#path31" transform="translate(244.5 -122) scale(12 12)" fill="#f2f2f2"/>
</g>
<g class="key">
<use xlink:href="#shape0" transform="translate(270 -108)"/>
<text x="297" y="-136.5" text-anchor="middle" font-family="Arial" font-size="15" fill="#f2f2f2">F</text>
<use xlink:href="#path32" transform="translate(283.5 -122) scale(12 12)" fill="#f2f2f2"/>
<use xlink:href="#path33" transform="translate(298.5 -122) scale(12 12)" fill="#f2f2f2"/>
</g>
<g class="key">
<use xlink:href="#shape0" transform="translate(324 -108)"/>
<text x="351" y="-136.5" text-anchor="middle" font-family="Arial" font-size="15" fill="#f2f2f2">G</text>
<use xlink:href="#path34" transform="translate(337.5 -122) scale(12 12)" fill="#f2f2f2"/>
<use xlink:href="#path35" transform="translate(352.5 -122) scale(12 12)" fill="#f2f2f2"/>
</g>
<g class="key">
<use xlink:href="#shape0" transform="translate(378 -108)"/>
<text x="405" y="-136.5" text-anchor="middle" font-family="Arial" font-size="15" fill="#f2f2f2">H</text>
<use xlink:href="#path36" transform="translate(391.5 -122) scale(12 12)" fill="#f2f2f2"/>
<use xlink:href="#path37" transform="translate(406.5 -122) scale(12 12)" fill="#f2f2f2"/>
</g>
<g class="key">
<use xlink:href="#shape0" transform="translate(432 -108)"/>
<text x="459" y="-136.5" text-anchor="middle" font-family="Arial" font-size="15" fill="#f2f2f2">J</text>
<use xlink:href="#path38" transform="translate(445.5 -122) scale(12 12)" fill="#f2f2f2"/>
<use xlink:href="#path39" transform="translate(460.5 -122) scale(12 12)" fill="#f2f2f2"/>
</g>
<g class="key">
<use xlink:href="#shape0" transform="translate(486 -108)"/>
<text x="513" y="-136.5" text-anchor="middle" font-family="Arial" font-size="15" fill="#f2f2f2">K</text>
<use xlink:href="#path40" transform="translate(499.5 -122) scale(12 12)" fill="#f2f2f2"/>
<use xlink:href="#path41" transform="translate(514.5 -122) scale(12 12)" fill="#f2f2f2"/>
</g>
<g class="key">
<use xlink:href="#shape0" transform="translate(540 -108)"/>
<text x="567" y="-136.5" text-anchor="middle" font-family="Arial" font-size="15" fill="#f2f2f2">L</text>
<use xlink:href="#path42" transform="translate(553.5 -122) scale(12 12)" fill="#f2f2f2"/>
<use xlink:href="#path43" transform="translate(568.5 -122) scale(12 12)" fill="#f2f2f2"/>
</g>
<g class="key">
<use xlink:href="#shape0" transform="translate(594 -108)"/>
<text x="621" y="-129.9" text-anchor="middle" font-family="Arial" font-size="12" fill="#f2f2f2">:</text>
<text x="621" y="-144.9" text-anchor="middle" font-family="Arial" font-size="12" fill="#f2f2f2">[</text>
</g>
<g class="key">
<use xlink:href="#shape0" transform="translate(648 -108)"/>
<text x="675" y="-129.9" text-anchor="middle" font-family="Arial" font-size="12" fill="#f2f2f2">;</text>
<text x="675" y="-144.9" text-anchor="middle" font-family="Arial" font-size="12" fill="#f2f2f2">]</text>
</g>
<g class="key">
<use xlink:href="#shape0" transform="translate(702 -108)"/>
<text x="729" y="-136.5" text-anchor="middle" font-family="Arial" font-size="15" fill="#f2f2f2">=</text>
</g>
<g class="key">
<use xlink:href="#shape3" transform="translate(756 -108)"/>
<text x="810" y="-138" text-anchor="middle" font-family="Arial" font-size="10" fill="#f2f2f2">RETURN</text>
</g>
<g class="key">
<use xlink:href="#shape1" transform="translate(931.5 -108)"/>
<text x="972" y="-138" text-anchor="middle" font-family="Arial" font-size="10" fill="#f2f2f2">f 5</text>
<text x="972" y="-113" text-anchor="middle" font-family="Arial" font-size="10" fill="#f2f2f2">f 6</text>
</g>
<g class="key">
<use xlink:href="#shape0" transform="translate(0 -54)"/>
<use xlink:href="#path44" transform="translate(22 -92) scale(10 10)" fill="#f2f2f2"/>
</g>
<g class="key">
<use xlink:href="#shape2" transform="translate(54 -54)"/>
<text x="94.5" y="-84" text-anchor="middle" font-family="Arial" font-size="10" fill="#f2f2f2">SHIFT</text>
</g>
<g class="key">
<use xlink:href="#shape0" transform="translate(135 -54)"/>
<text x="162" y="-82.5" text-anchor="middle" font-family="Arial" font-size="15" fill="#f2f2f2">Z</text>
<use xlink:href="#path45" transform="translate(148.5 -68) scale(12 12)" fill="#f2f2f2"/>
<text x="169.5" y="-58.4" text-anchor="middle" font-family="Arial" font-size="12" fill="#f2f2f2">&#9830;</text>
</g>
<g class="key">
<use xlink:href="#shape0" transform="translate(189 -54)"/>
<text x="216" y="-82.5" text-anchor="middle" font-family="Arial" font-size="15" fill="#f2f2f2">X</text>
<use xlink:href="#path46" transform="translate(202.5 -68) scale(12 12)" fill="#f2f2f2"/>
<text x="223.5" y="-58.4" text-anchor="middle" font-family="Arial" font-size="12" fill="#f2f2f2">&#9827;</text>
</g>
<g class="key">
<use xlink:href="#shape0" transform="translate(243 -54)"/>
<text x="270" y="-82.5" text-anchor="middle" font-family="Arial" font-size="15" fill="#f2f2f2">C</text>
<use xlink:href="#path47" transform="translate(256.5 -68) scale(12 12)" fill="#f2f2f2"/>
<use xlink:href="#path48" transform="translate(271.5 -68) scale(12 12)" fill="#f2f2f2"/>
</g>
<g class="key">
<use xlink:href="#shape0" transform="translate(297 -54)"/>
<text x="324" y="-82.5" text-anchor="middle" font-family="Arial" font-size="15" fill="#f2f2f2">V</text>
<use xlink:href="#path49" transform="translate(310.5 -68) scale(12 12)" fill="#f2f2f2"/>
<use xlink:href="#path50" transform="translate(325.5 -68) scale(12 12)" fill="#f2f2f2"/>
</g>
<g class="key">
<use xlink:href="#shape0" transform="translate(351 -54)"/>
<text x="378" y="-82.5" text-anchor="middle" font-family="Arial" font-size="15" fill="#f2f2f2">B</text>
<use xlink:href="#path51" transform="translate(364.5 -68) scale(12 12)" fill="#f2f2f2"/>
<use xlink:href="#path52" transform="translate(379.5 -68) scale(12 12)" fill="#f2f2f2"/>
</g>
<g class="key">
<use xlink:href="#shape0" transform="translate(405 -54)"/>
<text x="432" y="-82.5" text-anchor="middle" font-family="Arial" font-size="15" fill="#f2f2f2">N</text>
<use xlink:href="#path53" transform="translate(418.5 -68) scale(12 12)" fill="#f2f2f2"/>
<use xlink:href="#path54" transform="translate(433.5 -68) scale(12 12)" fill="#f2f2f2"/>
</g>
<g class="key">
<use xlink:href="#shape0" transform="translate(459 -54)"/>
<text x="486" y="-82.5" text-anchor="middle" font-family="Arial" font-size="15" fill="#f2f2f2">M</text>
<use xlink:href="#path55" transform="translate(472.5 -68) scale(12 12)" fill="#f2f2f2"/>
<use xlink:href="#path56" transform="translate(487.5 -68) scale(12 12)" fill="#f2f2f2"/>
</g>
<g class="key">
<use xlink:href="#shape0" transform="translate(513 -54)"/>
<text x="540" y="-75.9" text-anchor="middle" font-family="Arial" font-size="12" fill="#f2f2f2">,</text>
<text x="540" y="-90.9" text-anchor="middle" font-family="Arial" font-size="12" fill="#f2f2f2">&lt;</text>
</g>
<g class="key">
<use xlink:href="#shape0" transform="translate(567 -54)"/>
<text x="594" y="-75.9" text-anchor="middle" font-family="Arial" font-size="12" fill="#f2f2f2">.</text>
<text x="594" y="-90.9" text-anchor="middle" font-family="Arial" font-size="12" fill="#f2f2f2">&gt;</text>
</g>
<g class="key">
<use xlink:href="#shape0" transform="translate(621 -54)"/>
<text x="648" y="-75.9" text-anchor="middle" font-family="Arial" font-size="12" fill="#f2f2f2">/</text>
<text x="648" y="-90.9" text-anchor="middle" font-family="Arial" font-size="12" fill="#f2f2f2">?</text>
</g>
<g class="key">
<use xlink:href="#shape2" transform="translate(675 -54)"/>
<text x="715.5" y="-84" text-anchor="middle" font-family="Arial" font-size="10" fill="#f2f2f2">SHIFT</text>
</g>
<g class="key">
<use xlink:href="#shape0" transform="translate(756 -54)"/>
<text x="783" y="-94" text-anchor="middle" font-family="Arial" font-size="10" fill="#f2f2f2">&#8657;</text>
<text x="783" y="-84" text-anchor="middle" font-family="Arial" font-size="10" fill="#f2f2f2">CRSR</text>
<text x="783" y="-74" text-anchor="middle" font-family="Arial" font-size="10" fill="#f2f2f2">&#8659;</text>
</g>
<g class="key">
<use xlink:href="#shape0" transform="translate(810 -54)"/>
<text x="837" y="-94" text-anchor="middle" font-family="Arial" font-size="10" fill="#f2f2f2">&#8656;</text>
<text x="837" y="-84" text-anchor="middle" font-family="Arial" font-size="10" fill="#f2f2f2">CRSR</text>
<text x="837" y="-74" text-anchor="middle" font-family="Arial" font-size="10" fill="#f2f2f2">&#8658;</text>
</g>
<g class="key">
<use xlink:href="#shape1" transform="translate(931.5 -54)"/>
<text x="972" y="-84" text-anchor="middle" font-family="Arial" font-size="10" fill="#f2f2f2">f 7</text>
<text x="972" y="-59" text-anchor="middle" font-family="Arial" font-size="10" fill="#f2f2f2">f 8</text>
</g>
<g class="key">
<use xlink:href="#shape4" transform="translate(148.5 0)"/>
</g>
</g>
</svg>
