<?xml version="1.0"?>
<svg xmlns="http://www.w3.org/2000/svg" xmlns:xlink="http://www.w3.org/1999/xlink" version="1.1" width="972" height="270" viewBox="0 -270 972 270">
<defs>
<g id="shape0">
<path d="M 6 -54 C 2.686 -54 0 -51.314 0 -48 L 0 -6 C 0 -2.686 2.686 0 6 0 L 48 0 C 51.314 0 54 -2.686 54 -6 L 54 -48 C 54 -51.314 51.314 -54 48 -54 Z" fill="#000000"/>
<path d="M 6 -53 C 3.239 -53 1 -50.761 1 -48 L 1 -6 C 1 -3.239 3.239 -1 6 -1 L 48 -1 C 50.761 -1 53 -3.239 53 -6 L 53 -48 C 53 -50.761 50.761 -53 48 -53 Z" fill="#b8b8b8"/>
<path d="M 6 -52 C 3.791 -52 2 -50.209 2 -48 L 2 -6 C 2 -3.791 3.791 -2 6 -2 L 48 -2 C 50.209 -2 52 -3.791 52 -6 L 52 -48 C 52 -50.209 50.209 -52 48 -52 Z" fill="#cccccc"/>
<path d="M 12 -51 C 10.343 -51 9 -49.657 9 -48 L 9 -18 C 9 -16.343 10.343 -15 12 -15 L 42 -15 C 43.657 -15 45 -16.343 45 -18 L 45 -48 C 45 -49.657 43.657 -51 42 -51 Z" fill="#b8b8b8"/>
<path d="M 12 -50 C 10.895 -50 10 -49.105 10 -48 L 10 -18 C 10 -16.895 10.895 -16 12 -16 L 42 -16 C 43.105 -16 44 -16.895 44 -18 L 44 -48 C 44 -49.105 43.105 -50 42 -50 Z" fill="#f2f2f2"/>
</g>
<g id="shape1">
<path d="M 6 -54 C 2.686 -54 0 -51.314 0 -48 L 0 -6 C 0 -2.686 2.686 0 6 0 L 75 0 C 78.314 0 81 -2.686 81 -6 L 81 -48 C 81 -51.314 78.314 -54 75 -54 Z" fill="#000000"/>
<path d="M 6 -53 C 3.239 -53 1 -50.761 1 -48 L 1 -6 C 1 -3.239 3.239 -1 6 -1 L 75 -1 C 77.761 -1 80 -3.239 80 -6 L 80 -48 C 80 -50.761 77.761 -53 75 -53 Z" fill="#b8b8b8"/>
<path d="M 6 -52 C 3.791 -52 2 -50.209 2 -48 L 2 -6 C 2 -3.791 3.791 -2 6 -2 L 75 -2 C 77.209 -2 79 -3.791 79 -6 L 79 -48 C 79 -50.209 77.209 -52 75 -52 Z" fill="#cccccc"/>
<path d="M 12 -51 C 10.343 -51 9 -49.657 9 -48 L 9 -18 C 9 -16.343 10.343 -15 12 -15 L 69 -15 C 70.657 -15 72 -16.343 72 -18 L 72 -48 C 72 -49.657 70.657 -51 69 -51 Z" fill="#b8b8b8"/>
<path d="M 12 -50 C 10.895 -50 10 -49.105 10 -48 L 10 -18 C 10 -16.895 10.895 -16 12 -16 L 69 -16 C 70.105 -16 71 -16.895 71 -18 L 71 -48 C 71 -49.105 70.105 -50 69 -50 Z" fill="#f2f2f2"/>
</g>
<g id="shape2">
<path d="M 6 -54 C 2.686 -54 0 -51.314 0 -48 L 0 -6 C 0 -2.686 2.686 0 6 0 L 102 0 C 105.314 0 108 -2.686 108 -6 L 108 -48 C 108 -51.314 105.314 -54 102 -54 Z" fill="#000000"/>
<path d="M 6 -53 C 3.239 -53 1 -50.761 1 -48 L 1 -6 C 1 -3.239 3.239 -1 6 -1 L 102 -1 C 104.761 -1 107 -3.239 107 -6 L 107 -48 C 107 -50.761 104.761 -53 102 -53 Z" fill="#b8b8b8"/>
<path d="M 6 -52 C 3.791 -52 2 -50.209 2 -48 L 2 -6 C 2 -3.791 3.791 -2 6 -2 L 102 -2 C 104.209 -2 106 -3.791 106 -6 L 106 -48 C 106 -50.209 104.209 -52 102 -52 Z" fill="#cccccc"/>
<path d="M 12 -51 C 10.343 -51 9 -49.657 9 -48 L 9 -18 C 9 -16.343 10.343 -15 12 -15 L 96 -15 C 97.657 -15 99 -16.343 99 -18 L 99 -48 C 99 -49.657 97.657 -51 96 -51 Z" fill="#b8b8b8"/>
<path d="M 12 -50 C 10.895 -50 10 -49.105 10 -48 L 10 -18 C 10 -16.895 10.895 -16 12 -16 L 96 -16 C 97.105 -16 98 -16.895 98 -18 L 98 -48 C 98 -49.105 97.105 -50 96 -50 Z" fill="#f2f2f2"/>
</g>
<g id="shape3">
<path d="M 6 -54 C 2.686 -54 0 -51.314 0 -48 L 0 -6 C 0 -2.686 2.686 0 6 0 L 534 0 C 537.314 0 540 -2.686 540 -6 L 540 -48 C 540 -51.314 537.314 -54 534 -54 Z" fill="#000000"/>
<path d="M 6 -53 C 3.239 -53 1 -50.761 1 -48 L 1 -6 C 1 -3.239 3.239 -1 6 -1 L 534 -1 C 536.761 -1 539 -3.239 539 -6 L 539 -48 C 539 -50.761 536.761 -53 534 -53 Z" fill="#b8b8b8"/>
<path d="M 6 -52 C 3.791 -52 2 -50.209 2 -48 L 2 -6 C 2 -3.791 3.791 -2 6 -2 L 534 -2 C 536.209 -2 538 -3.791 538 -6 L 538 -48 C 538 -50.209 536.209 -52 534 -52 Z" fill="#cccccc"/>
<path d="M 12 -51 C 10.343 -51 9 -49.657 9 -48 L 9 -18 C 9 -16.343 10.343 -15 12 -15 L 528 -15 C 529.657 -15 531 -16.343 531 -18 L 531 -48 C 531 -49.657 529.657 -51 528 -51 Z" fill="#b8b8b8"/>
<path d="M 12 -50 C 10.895 -50 10 -49.105 10 -48 L 10 -18 C 10 -16.895 10.895 -16 12 -16 L 528 -16 C 529.105 -16 530 -16.895 530 -18 L 530 -48 C 530 -49.105 529.105 -50 528 -50 Z" fill="#f2f2f2"/>
</g>
<path id="path0" d="M 0 0 h 1 v 1 h -1 z M 0.8 0.1 v 0.1 h 0.1 v -0.1 z M 0.6 0.1 v 0.1 h 0.1 v 0.1 h 0.1 v 0.1 h 0.1 v -0.1 h -0.1 v -0.1 h -0.1 v -0.1 z M 0.4 0.1 v 0.1 h 0.1 v 0.1 h 0.1 v 0.1 h 0.1 v 0.1 h 0.1 v 0.1 h 0.1 v -0.1 h -0.1 v -0.1 h -0.1 v -0.1 h -0.1 v -0.1 h -0.1 v -0.1 z M 0.2 0.1 v 0.1 h 0.1 v 0.1 h 0.1 v 0.1 h 0.1 v 0.1 h 0.1 v 0.1 h 0.1 v 0.1 h 0.1 v 0.1 h 0.1 v -0.1 h -0.1 v -0.1 h -0.1 v -0.1 h -0.1 v -0.1 h -0.1 v -0.1 h -0.1 v -0.1 h -0.1 v -0.1 z M 0.1 0.2 v 0.1 h 0.1 v 0.1 h 0.1 v 0.1 h 0.1 v 0.1 h 0.1 v 0.1 h 0.1 v 0.1 h 0.1 v 0.1 h 0.1 v -0.1 h -0.1 v -0.1 h -0.1 v -0.1 h -0.1 v -0.1 h -0.1 v -0.1 h -0.1 v -0.1 h -0.1 v -0.1 z M 0.1 0.4 v 0.1 h 0.1 v 0.1 h 0.1 v 0.1 h 0.1 v 0.1 h 0.1 v 0.1 h 0.1 v -0.1 h -0.1 v -0.1 h -0.1 v -0.1 h -0.1 v -0.1 h -0.1 v -0.1 z M 0.1 0.6 v 0.1 h 0.1 v 0.1 h 0.1 v 0.1 h 0.1 v -0.1 h -0.1 v -0.1 h -0.1 v -0.1 z M 0.1 0.8 v 0.1 h 0.1 v -0.1 z"/>
<path id="path1" d="M 0 0 h 1 v 1 h -1 z M 0.1 0.1 v 0.35 h 0.35 v -0.35 z M 0.55 0.1 v 0.35 h 0.35 v -0.35 z M 0.1 0.55 v 0.35 h 0.35 v -0.35 z M 0.55 0.55 v 0.35 h 0.35 v -0.35 z"/>
<path id="path2" d="M 0 0 h 1 v 1 h -1 z M 0.1 0.1 v 0.8 h 0.8 v -0.8 z M 0.3 0.1 h 0.1 v 0.1 h 0.1 v 0.1 h -0.1 v -0.1 h -0.1 z M 0.1 0.1 h 0.1 v 0.1 h 0.1 v 0.1 h 0.1 v 0.1 h 0.1 v 0.1 h -0.1 v -0.1 h -0.1 v -0.1 h -0.1 v -0.1 h -0.1 z M 0.1 0.3 h 0.1 v 0.1 h 0.1 v 0.1 h 0.1 v 0.1 h 0.1 v 0.1 h -0.1 v -0.1 h -0.1 v -0.1 h -0.1 v -0.1 h -0.1 z M 0.1 0.5 h 0.1 v 0.1 h 0.1 v 0.1 h 0.1 v 0.1 h 0.1 v 0.1 h -0.1 v -0.1 h -0.1 v -0.1 h -0.1 v -0.1 h -0.1 z M 0.1 0.7 h 0.1 v 0.1 h 0.1 v 0.1 h -0.1 v -0.1 h -0.1 z"/>
<path id="path3" d="M 0 0 h 1 v 1 h -1 z M 0.1 0.1 v 0.8 h 0.4 v -0.8 z M 0.6 0.1 v 0.8 h 0.3 v -0.8 z"/>
<path id="path4" d="M 0 0 h 1 v 1 h -1 z M 0.1 0.1 v 0.8 h 0.8 v -0.8 z M 0.7 0.5 h 0.1 v 0.1 h 0.1 v 0.1 h -0.1 v -0.1 h -0.1 z M 0.5 0.5 h 0.1 v 0.1 h 0.1 v 0.1 h 0.1 v 0.1 h 0.1 v 0.1 h -0.1 v -0.1 h -0.1 v -0.1 h -0.1 v -0.1 h -0.1 z M 0.3 0.5 h 0.1 v 0.1 h 0.1 v 0.1 h 0.1 v 0.1 h 0.1 v 0.1 h -0.1 v -0.1 h -0.1 v -0.1 h -0.1 v -0.1 h -0.1 z M 0.1 0.5 h 0.1 v 0.1 h 0.1 v 0.1 h 0.1 v 0.1 h 0.1 v 0.1 h -0.1 v -0.1 h -0.1 v -0.1 h -0.1 v -0.1 h -0.1 z M 0.1 0.7 h 0.1 v 0.1 h 0.1 v 0.1 h -0.1 v -0.1 h -0.1 z"/>
<path id="path5" d="M 0 0 h 1 v 1 h -1 z M 0.1 0.9 h 0.8 v -0.8 z"/>
<path id="path6" d="M 0 0 h 1 v 1 h -1 z M 0.1 0.1 v 0.8 h 0.35 v -0.8 z M 0.55 0.1 v 0.35 h 0.35 v -0.35 z M 0.55 0.55 v 0.35 h 0.35 v -0.35 z"/>
<path id="path7" d="M 0 0 h 1 v 1 h -1 z M 0.1 0.1 v 0.35 h 0.35 v -0.35 z M 0.1 0.55 v 0.35 h 0.35 v -0.35 z M 0.55 0.1 v 0.8 h 0.35 v -0.8 z"/>
<path id="path8" d="M 0 0 h 1 v 1 h -1 z M 0.1 0.1 v 0.35 h 0.35 v -0.35 z M 0.55 0.1 v 0.35 h 0.35 v -0.35 z M 0.1 0.55 v 0.35 h 0.8 v -0.35 z"/>
<path id="path9" d="M 0 0 h 1 v 1 h -1 z M 0.1 0.1 v 0.1 h 0.8 v -0.1 z M 0.1 0.3 v 0.6 h 0.8 v -0.6 z"/>
<path id="path10" d="M 0 0 h 1 v 1 h -1 z M 0.1 0.1 v 0.35 h 0.8 v -0.35 z M 0.1 0.55 v 0.35 h 0.35 v -0.35 z M 0.55 0.55 v 0.35 h 0.35 v -0.35 z"/>
<path id="path11" d="M 0 0 h 1 v 1 h -1 z M 0.1 0.1 v 0.6 h 0.8 v -0.6 z M 0.1 0.8 v 0.1 h 0.8 v -0.1 z"/>
<path id="path12" d="M 0 0 h 1 v 1 h -1 z M 0.1 0.2 v 0.7 h 0.8 v -0.7 z"/>
<path id="path13" d="M 0 0 h 1 v 1 h -1 z M 0.1 0.1 v 0.8 h 0.1 v -0.8 z M 0.3 0.1 v 0.8 h 0.6 v -0.8 z"/>
<path id="path14" d="M 0 0 h 1 v 1 h -1 z M 0.1 0.3 v 0.6 h 0.8 v -0.6 z"/>
<path id="path15" d="M 0 0 h 1 v 1 h -1 z M 0.1 0.1 v 0.8 h 0.6 v -0.8 z M 0.8 0.1 v 0.8 h 0.1 v -0.8 z"/>
<path id="path16" d="M 0 0 h 1 v 1 h -1 z M 0.1 0.4 v 0.5 h 0.8 v -0.5 z"/>
<path id="path17" d="M 0 0 h 1 v 1 h -1 z M 0.1 0.1 v 0.8 h 0.35 a 0.45 0.45 0 0 1 0.45 -0.45 v -0.35 z M 0.9 0.55 a 0.35 0.35 0 0 0 -0.35 0.35 h 0.35 z"/>
<path id="path18" d="M 0 0 h 1 v 1 h -1 z M 0.1 0.1 v 0.4 h 0.8 v -0.4 z"/>
<path id="path19" d="M 0 0 h 1 v 1 h -1 z M 0.1 0.1 v 0.35 a 0.45 0.45 0 0 1 0.45 0.45 h 0.35 v -0.8 z M 0.1 0.9 h 0.35 a 0.35 0.35 0 0 0 -0.35 -0.35 z"/>
<path id="path20" d="M 0 0 h 1 v 1 h -1 z M 0.1 0.1 v 0.5 h 0.8 v -0.5 z"/>
<path id="path21" d="M 0 0 h 1 v 1 h -1 z M 0.2 0.2 v 0.7 h 0.7 v -0.7 z"/>
<path id="path22" d="M 0 0 h 1 v 1 h -1 z M 0.1 0.1 v 0.6 h 0.8 v -0.6 z"/>
<path id="path23" d="M 0 0 h 1 v 1 h -1 z M 0.1 0.2 v 0.7 h 0.7 v -0.7 z"/>
<path id="path24" d="M 0 0 h 1 v 1 h -1 z M 0.1 0.1 v 0.7 h 0.8 v -0.7 z"/>
<path id="path25" d="M 0 0 h 1 v 1 h -1 z M 0.1 0.1 v 0.7 h 0.7 v -0.7 z"/>
<path id="path26" d="M 0 0 h 1 v 1 h -1 z M 0.1 0.1 v 0.8 h 0.8 z"/>
<path id="path27" d="M 0 0 h 1 v 1 h -1 z M 0.1 0.1 v 0.4 h 0.8 v -0.4 z M 0.1 0.6 v 0.3 h 0.8 v -0.3 z"/>
<path id="path28" d="M 0 0 h 1 v 1 h -1 z M 0.1 0.1 v 0.8 h 0.35 v -0.45 h 0.45 v -0.35 z M 0.55 0.55 v 0.35 h 0.35 v -0.35 z"/>
<path id="path29" d="M 0 0 h 1 v 1 h -1 z M 0.1 0.1 v 0.35 h 0.45 v 0.45 h 0.35 v -0.8 z M 0.1 0.55 v 0.35 h 0.35 v -0.35 z"/>
<path id="path30" d="M 0 0 h 1 v 1 h -1 z M 0.1 0.1 v 0.8 h 0.4 v -0.4 h 0.4 v -0.4 z"/>
<path id="path31" d="M 0 0 h 1 v 1 h -1 z M 0.1 0.1 v 0.2 h 0.8 v -0.2 z M 0.1 0.4 v 0.5 h 0.8 v -0.5 z"/>
<path id="path32" d="M 0 0 h 1 v 1 h -1 z M 0.1 0.1 v 0.4 h 0.4 v 0.4 h 0.4 v -0.8 z"/>
<path id="path33" d="M 0 0 h 1 v 1 h -1 z M 0.1 0.1 v 0.5 h 0.8 v -0.5 z M 0.1 0.7 v 0.2 h 0.8 v -0.2 z"/>
<path id="path34" d="M 0 0 h 1 v 1 h -1 z M 0.2 0.1 v 0.8 h 0.7 v -0.8 z"/>
<path id="path35" d="M 0 0 h 1 v 1 h -1 z M 0.1 0.1 v 0.8 h 0.2 v -0.8 z M 0.4 0.1 v 0.8 h 0.5 v -0.8 z"/>
<path id="path36" d="M 0 0 h 1 v 1 h -1 z M 0.3 0.1 v 0.8 h 0.6 v -0.8 z"/>
<path id="path37" d="M 0 0 h 1 v 1 h -1 z M 0.1 0.1 v 0.8 h 0.5 v -0.8 z M 0.7 0.1 v 0.8 h 0.2 v -0.8 z"/>
<path id="path38" d="M 0 0 h 1 v 1 h -1 z M 0.4 0.1 v 0.8 h 0.5 v -0.8 z"/>
<path id="path39" d="M 0 0 h 1 v 1 h -1 z M 0.1 0.1 v 0.8 h 0.8 v -0.35 a 0.45 0.45 0 0 1 -0.45 -0.45 z M 0.55 0.1 a 0.35 0.35 0 0 0 0.35 0.35 v -0.35 z"/>
<path id="path40" d="M 0 0 h 1 v 1 h -1 z M 0.5 0.1 v 0.8 h 0.4 v -0.8 z"/>
<path id="path41" d="M 0 0 h 1 v 1 h -1 z M 0.1 0.1 v 0.35 a 0.35 0.35 0 0 0 0.35 -0.35 z M 0.55 0.1 a 0.45 0.45 0 0 1 -0.45 0.45 v 0.35 h 0.8 v -0.8 z"/>
<path id="path42" d="M 0 0 h 1 v 1 h -1 z M 0.1 0.1 v 0.8 h 0.5 v -0.8 z"/>
<path id="path43" d="M 0 0 h 1 v 1 h -1 z M 0.2 0.1 v 0.7 h 0.7 v -0.7 z"/>
<path id="path44" d="M 0.571 0.536 h 0.214 L 1 0.75 H 0.571 V 0.536 z M 0.571 0.464 V 0.25 H 1 L 0.786 0.464 H 0.571 z M 0 0.5 C 0 0.223 0.223 0 0.5 0 c 0.025 0 0.048 0.002 0.071 0.006 v 0.217 C 0.548 0.218 0.525 0.214 0.5 0.214 c -0.157 0 -0.286 0.128 -0.286 0.286 S 0.343 0.786 0.5 0.786 c 0.025 0 0.048 -0.004 0.071 -0.009 v 0.217 C 0.548 0.998 0.525 1 0.5 1 C 0.223 1 0 0.777 0 0.5 z"/>
<path id="path45" d="M 0 0 h 1 v 1 h -1 z M 0.1 0.1 v 0.8 h 0.8 v -0.35 h -0.45 v -0.45 z M 0.55 0.1 v 0.35 h 0.35 v -0.35 z"/>
<path id="path46" d="M 0 0 h 1 v 1 h -1 z M 0.1 0.1 v 0.35 h 0.35 v -0.35 z M 0.55 0.1 v 0.45 h -0.45 v 0.35 h 0.8 v -0.8 z"/>
<path id="path47" d="M 0 0 h 1 v 1 h -1 z M 0.1 0.1 v 0.8 h 0.8 v -0.4 h -0.4 v -0.4 z"/>
<path id="path48" d="M 0 0 h 1 v 1 h -1 z M 0.1 0.1 v 0.3 h 0.8 v -0.3 z M 0.1 0.5 v 0.4 h 0.8 v -0.4 z"/>
<path id="path49" d="M 0 0 h 1 v 1 h -1 z M 0.5 0.1 v 0.4 h -0.4 v 0.4 h 0.8 v -0.8 z"/>
<path id="path50" d="M 0 0 h 1 v 1 h -1 z M 0.1707 0.1 L 0.5 0.4293 L 0.8293 0.1 Z M 0.1 0.1707 L 0.1 0.8293 L 0.4293 0.5 Z M 0.9 0.1707 L 0.5707 0.5 L 0.9 0.8293 Z M 0.5 0.5707 L 0.1707 0.9 L 0.8293 0.9 Z"/>
<path id="path51" d="M 0 0 h 1 v 1 h -1 z M 0.5 0.1 v 0.4 h 0.4 v -0.4 z M 0.1 0.5 v 0.4 h 0.4 v -0.4 z"/>
<path id="path52" d="M 0 0 h 1 v 1 h -1 z M 0.1 0.1 v 0.8 h 0.3 v -0.8 z M 0.5 0.1 v 0.8 h 0.4 v -0.8 z"/>
<path id="path53" d="M 0 0 h 1 v 1 h -1 z M 0.1 0.1 v 0.8 h 0.6 v -0.8 z"/>
<path id="path54" d="M 0 0 h 1 v 1 h -1 z M 0.1 0.1 L 0.1 0.8293 L 0.8293 0.1 Z M 0.9 0.9 L 0.9 0.1707 L 0.1707 0.9 Z"/>
<path id="path55" d="M 0 0 h 1 v 1 h -1 z M 0.1 0.1 v 0.8 h 0.7 v -0.8 z"/>
<path id="path56" d="M 0 0 h 1 v 1 h -1 z M 0.9 0.1 L 0.1707 0.1 L 0.9 0.8293 Z M 0.1 0.9 L 0.8293 0.9 L 0.1 0.1707 Z"/>
</defs>
<g class="keyboard">
<g class="key">
<use xlink:href="#shape0" transform="translate(0 -216)"/>
<text x="27" y="-244.5" text-anchor="middle" font-family="Arial" font-size="15" fill="#1a1a1a">&#8592;</text>
</g>
<g class="key">
<use xlink:href="#shape0" transform="translate(54 -216)"/>
<text x="81" y="-237.9" text-anchor="middle" font-family="Arial" font-size="12" fill="#1a1a1a">1</text>
<text x="81" y="-252.9" text-anchor="middle" font-family="Arial" font-size="12" fill="#1a1a1a">!</text>
</g>
<g class="key">
<use xlink:href="#shape0" transform="translate(108 -216)"/>
<text x="135" y="-237.9" text-anchor="middle" font-family="Arial" font-size="12" fill="#1a1a1a">2</text>
<text x="135" y="-252.9" text-anchor="middle" font-family="Arial" font-size="12" fill="#1a1a1a">&#34;</text>
</g>
<g class="key">
<use xlink:href="#shape0" transform="translate(162 -216)"/>
<text x="189" y="-237.9" text-anchor="middle" font-family="Arial" font-size="12" fill="#1a1a1a">3</text>
<text x="189" y="-252.9" text-anchor="middle" font-family="Arial" font-size="12" fill="#1a1a1a">#</text>
</g>
<g class="key">
<use xlink:href="#shape0" transform="translate(216 -216)"/>
<text x="243" y="-237.9" text-anchor="middle" font-family="Arial" font-size="12" fill="#1a1a1a">4</text>
<text x="243" y="-252.9" text-anchor="middle" font-family="Arial" font-size="12" fill="#1a1a1a">$</text>
</g>
<g class="key">
<use xlink:href="#shape0" transform="translate(270 -216)"/>
<text x="297" y="-237.9" text-anchor="middle" font-family="Arial" font-size="12" fill="#1a1a1a">5</text>
<text x="297" y="-252.9" text-anchor="middle" font-family="Arial" font-size="12" fill="#1a1a1a">%</text>
</g>
<g class="key">
<use xlink:href="#shape0" transform="translate(324 -216)"/>
<text x="351" y="-237.9" text-anchor="middle" font-family="Arial" font-size="12" fill="#1a1a1a">6</text>
<text x="351" y="-252.9" text-anchor="middle" font-family="Arial" font-size="12" fill="#1a1a1a">&amp;</text>
</g>
<g class="key">
<use xlink:href="#shape0" transform="translate(378 -216)"/>
<text x="405" y="-237.9" text-anchor="middle" font-family="Arial" font-size="12" fill="#1a1a1a">7</text>
<text x="405" y="-252.9" text-anchor="middle" font-family="Arial" font-size="12" fill="#1a1a1a">&#39;</text>
</g>
<g class="key">
<use xlink:href="#shape0" transform="translate(432 -216)"/>
<text x="459" y="-237.9" text-anchor="middle" font-family="Arial" font-size="12" fill="#1a1a1a">8</text>
<text x="459" y="-252.9" text-anchor="middle" font-family="Arial" font-size="12" fill="#1a1a1a">(</text>
</g>
<g class="key">
<use xlink:href="#shape0" transform="translate(486 -216)"/>
<text x="513" y="-237.9" text-anchor="middle" font-family="Arial" font-size="12" fill="#1a1a1a">9</text>
<text x="513" y="-252.9" text-anchor="middle" font-family="Arial" font-size="12" fill="#1a1a1a">)</text>
</g>
<g class="key">
<use xlink:href="#shape0" transform="translate(540 -216)"/>
<text x="567" y="-237.9" text-anchor="middle" font-family="Arial" font-size="12" fill="#1a1a1a">0</text>
</g>
<g class="key">
<use xlink:href="#shape0" transform="translate(594 -216)"/>
<use xlink:href="#path0" transform="translate(608.5 -263) scale(10 10)" fill="#1a1a1a"/>
<use xlink:href="#path1" transform="translate(623.5 -263) scale(10 10)" fill="#1a1a1a"/>
<text x="621" y="-238.5" text-anchor="middle" font-family="Arial" font-size="15" fill="#1a1a1a">+</text>
</g>
<g class="key">
<use xlink:href="#shape0" transform="translate(648 -216)"/>
<use xlink:href="#path2" transform="translate(662.5 -263) scale(10 10)" fill="#1a1a1a"/>
<use xlink:href="#path3" transform="translate(677.5 -263) scale(10 10)" fill="#1a1a1a"/>
<text x="675" y="-238.5" text-anchor="middle" font-family="Arial" font-size="15" fill="#1a1a1a">&#8722;</text>
</g>
<g class="key">
<use xlink:href="#shape0" transform="translate(702 -216)"/>
<use xlink:href="#path4" transform="translate(716.5 -263) scale(10 10)" fill="#1a1a1a"/>
<use xlink:href="#path5" transform="translate(731.5 -263) scale(10 10)" fill="#1a1a1a"/>
<text x="729" y="-238.5" text-anchor="middle" font-family="Arial" font-size="15" fill="#1a1a1a">&#163;</text>
</g>
<g class="key">
<use xlink:href="#shape0" transform="translate(756 -216)"/>
<text x="783" y="-238.5" text-anchor="middle" font-family="Arial" font-size="10" fill="#1a1a1a">HOME</text>
<text x="783" y="-253.5" text-anchor="middle" font-family="Arial" font-size="10" fill="#1a1a1a">CLR</text>
</g>
<g class="key">
<use xlink:href="#shape0" transform="translate(810 -216)"/>
<text x="837" y="-238.5" text-anchor="middle" font-family="Arial" font-size="10" fill="#1a1a1a">DEL</text>
<text x="837" y="-253.5" text-anchor="middle" font-family="Arial" font-size="10" fill="#1a1a1a">INST</text>
</g>
<g class="key">
<use xlink:href="#shape1" transform="translate(891 -216)"/>
<text x="931.5" y="-238.5" text-anchor="middle" font-family="Arial" font-size="10" fill="#1a1a1a">F2</text>
<text x="931.5" y="-253.5" text-anchor="middle" font-family="Arial" font-size="10" fill="#1a1a1a">F1</text>
</g>
<g class="key">
<use xlink:href="#shape1" transform="translate(0 -162)"/>
<text x="40.5" y="-192" text-anchor="middle" font-family="Arial" font-size="10" fill="#1a1a1a">CONTROL</text>
</g>
<g class="key">
<use xlink:href="#shape0" transform="translate(81 -162)"/>
<use xlink:href="#path6" transform="translate(95.5 -209) scale(10 10)" fill="#1a1a1a"/>
<text x="115.5" y="-201" text-anchor="middle" font-family="Arial" font-size="10" fill="#1a1a1a">&#9679;</text>
<text x="108" y="-184.5" text-anchor="middle" font-family="Arial" font-size="15" fill="#1a1a1a">Q</text>
</g>
<g class="key">
<use xlink:href="#shape0" transform="translate(135 -162)"/>
<use xlink:href="#path7" transform="translate(149.5 -209) scale(10 10)" fill="#1a1a1a"/>
<text x="169.5" y="-201" text-anchor="middle" font-family="Arial" font-size="10" fill="#1a1a1a">&#9675;</text>
<text x="162" y="-184.5" text-anchor="middle" font-family="Arial" font-size="15" fill="#1a1a1a">W</text>
</g>
<g class="key">
<use xlink:href="#shape0" transform="translate(189 -162)"/>
<use xlink:href="#path8" transform="translate(203.5 -209) scale(10 10)" fill="#1a1a1a"/>
<use xlink:href="#path9" transform="translate(218.5 -209) scale(10 10)" fill="#1a1a1a"/>
<text x="216" y="-184.5" text-anchor="middle" font-family="Arial" font-size="15" fill="#1a1a1a">E</text>
</g>
<g class="key">
<use xlink:href="#shape0" transform="translate(243 -162)"/>
<use xlink:href="#path10" transform="translate(257.5 -209) scale(10 10)" fill="#1a1a1a"/>
<use xlink:href="#path11" transform="translate(272.5 -209) scale(10 10)" fill="#1a1a1a"/>
<text x="270" y="-184.5" text-anchor="middle" font-family="Arial" font-size="15" fill="#1a1a1a">R</text>
</g>
<g class="key">
<use xlink:href="#shape0" transform="translate(297 -162)"/>
<use xlink:href="#path12" transform="translate(311.5 -209) scale(10 10)" fill="#1a1a1a"/>
<use xlink:href="#path13" transform="translate(326.5 -209) scale(10 10)" fill="#1a1a1a"/>
<text x="324" y="-184.5" text-anchor="middle" font-family="Arial" font-size="15" fill="#1a1a1a">T</text>
</g>
<g class="key">
<use xlink:href="#shape0" transform="translate(351 -162)"/>
<use xlink:href="#path14" transform="translate(365.5 -209) scale(10 10)" fill="#1a1a1a"/>
<use xlink:href="#path15" transform="translate(380.5 -209) scale(10 10)" fill="#1a1a1a"/>
<text x="378" y="-184.5" text-anchor="middle" font-family="Arial" font-size="15" fill="#1a1a1a">Y</text>
</g>
<g class="key">
<use xlink:href="#shape0" transform="translate(405 -162)"/>
<use xlink:href="#path16" transform="translate(419.5 -209) scale(10 10)" fill="#1a1a1a"/>
<use xlink:href="#path17" transform="translate(434.5 -209) scale(10 10)" fill="#1a1a1a"/>
<text x="432" y="-184.5" text-anchor="middle" font-family="Arial" font-size="15" fill="#1a1a1a">U</text>
</g>
<g class="key">
<use xlink:href="#shape0" transform="translate(459 -162)"/>
<use xlink:href="#path18" transform="translate(473.5 -209) scale(10 10)" fill="#1a1a1a"/>
<use xlink:href="#path19" transform="translate(488.5 -209) scale(10 10)" fill="#1a1a1a"/>
<text x="486" y="-184.5" text-anchor="middle" font-family="Arial" font-size="15" fill="#1a1a1a">I</text>
</g>
<g class="key">
<use xlink:href="#shape0" transform="translate(513 -162)"/>
<use xlink:href="#path20" transform="translate(527.5 -209) scale(10 10)" fill="#1a1a1a"/>
<use xlink:href="#path21" transform="translate(542.5 -209) scale(10 10)" fill="#1a1a1a"/>
<text x="540" y="-184.5" text-anchor="middle" font-family="Arial" font-size="15" fill="#1a1a1a">O</text>
</g>
<g class="key">
<use xlink:href="#shape0" transform="translate(567 -162)"/>
<use xlink:href="#path22" transform="translate(581.5 -209) scale(10 10)" fill="#1a1a1a"/>
<use xlink:href="#path23" transform="translate(596.5 -209) scale(10 10)" fill="#1a1a1a"/>
<text x="594" y="-184.5" text-anchor="middle" font-family="Arial" font-size="15" fill="#1a1a1a">P</text>
</g>
<g class="key">
<use xlink:href="#shape0" transform="translate(621 -162)"/>
<use xlink:href="#path24" transform="translate(635.5 -209) scale(10 10)" fill="#1a1a1a"/>
<use xlink:href="#path25" transform="translate(650.5 -209) scale(10 10)" fill="#1a1a1a"/>
<text x="648" y="-184.5" text-anchor="middle" font-family="Arial" font-size="15" fill="#1a1a1a">@</text>
</g>
<g class="key">
<use xlink:href="#shape0" transform="translate(675 -162)"/>
<use xlink:href="#path26" transform="translate(689.5 -209) scale(10 10)" fill="#1a1a1a"/>
<use xlink:href="#path27" transform="translate(704.5 -209) scale(10 10)" fill="#1a1a1a"/>
<text x="702" y="-184.5" text-anchor="middle" font-family="Arial" font-size="15" fill="#1a1a1a">*</text>
</g>
<g class="key">
<use xlink:href="#shape0" transform="translate(729 -162)"/>
<text x="756" y="-183.9" text-anchor="middle" font-family="Arial" font-size="12" fill="#1a1a1a">&#8593;</text>
<text x="756" y="-198.9" text-anchor="middle" font-family="Arial" font-size="12" fill="#1a1a1a">&#960;</text>
</g>
<g class="key">
<use xlink:href="#shape1" transform="translate(783 -162)"/>
<text x="823.5" y="-192" text-anchor="middle" font-family="Arial" font-size="10" fill="#1a1a1a">RESTORE</text>
</g>
<g class="key">
<use xlink:href="#shape1" transform="translate(891 -162)"/>
<text x="931.5" y="-184.5" text-anchor="middle" font-family="Arial" font-size="10" fill="#1a1a1a">F4</text>
<text x="931.5" y="-199.5" text-anchor="middle" font-family="Arial" font-size="10" fill="#1a1a1a">F3</text>
</g>
<g class="key">
<use xlink:href="#shape0" transform="translate(0 -108)"/>
<text x="27" y="-130.5" text-anchor="middle" font-family="Arial" font-size="10" fill="#1a1a1a">STOP</text>
<text x="27" y="-145.5" text-anchor="middle" font-family="Arial" font-size="10" fill="#1a1a1a">RUN</text>
</g>
<g class="key">
<use xlink:href="#shape0" transform="translate(54 -108)"/>
<text x="81" y="-143" text-anchor="middle" font-family="Arial" font-size="10" fill="#1a1a1a">SHIFT</text>
<text x="81" y="-133" text-anchor="middle" font-family="Arial" font-size="10" fill="#1a1a1a">LOCK</text>
</g>
<g class="key">
<use xlink:href="#shape0" transform="translate(108 -108)"/>
<use xlink:href="#path28" transform="translate(122.5 -155) scale(10 10)" fill="#1a1a1a"/>
<text x="142.5" y="-147" text-anchor="middle" font-family="Arial" font-size="10" fill="#1a1a1a">&#9824;</text>
<text x="135" y="-130.5" text-anchor="middle" font-family="Arial" font-size="15" fill="#1a1a1a">A</text>
</g>
<g class="key">
<use xlink:href="#shape0" transform="translate(162 -108)"/>
<use xlink:href="#path29" transform="translate(176.5 -155) scale(10 10)" fill="#1a1a1a"/>
<text x="196.5" y="-147" text-anchor="middle" font-family="Arial" font-size="10" fill="#1a1a1a">&#9829;</text>
<text x="189" y="-130.5" text-anchor="middle" font-family="Arial" font-size="15" fill="#1a1a1a">S</text>
</g>
<g class="key">
<use xlink:href="#shape0" transform="translate(216 -108)"/>
<use xlink:href="#path30" transform="translate(230.5 -155) scale(10 10)" fill="#1a1a1a"/>
<use xlink:href="#path31" transform="translate(245.5 -155) scale(10 10)" fill="#1a1a1a"/>
<text x="243" y="-130.5" text-anchor="middle" font-family="Arial" font-size="15" fill="#1a1a1a">D</text>
</g>
<g class="key">
<use xlink:href="#shape0" transform="translate(270 -108)"/>
<use xlink:href="#path32" transform="translate(284.5 -155) scale(10 10)" fill="#1a1a1a"/>
<use xlink:href="#path33" transform="translate(299.5 -155) scale(10 10)" fill="#1a1a1a"/>
<text x="297" y="-130.5" text-anchor="middle" font-family="Arial" font-size="15" fill="#1a1a1a">F</text>
</g>
<g class="key">
<use xlink:href="#shape0" transform="translate(324 -108)"/>
<use xlink:href="#path34" transform="translate(338.5 -155) scale(10 10)" fill="#1a1a1a"/>
<use xlink:href="#path35" transform="translate(353.5 -155) scale(10 10)" fill="#1a1a1a"/>
<text x="351" y="-130.5" text-anchor="middle" font-family="Arial" font-size="15" fill="#1a1a1a">G</text>
</g>
<g class="key">
<use xlink:href="#shape0" transform="translate(378 -108)"/>
<use xlink:href="#path36" transform="translate(392.5 -155) scale(10 10)" fill="#1a1a1a"/>
<use xlink:href="#path37" transform="translate(407.5 -155) scale(10 10)" fill="#1a1a1a"/>
<text x="405" y="-130.5" text-anchor="middle" font-family="Arial" font-size="15" fill="#1a1a1a">H</text>
</g>
<g class="key">
<use xlink:href="#shape0" transform="translate(432 -108)"/>
<use xlink:href="#path38" transform="translate(446.5 -155) scale(10 10)" fill="#1a1a1a"/>
<use xlink:href="#path39" transform="translate(461.5 -155) scale(10 10)" fill="#1a1a1a"/>
<text x="459" y="-130.5" text-anchor="middle" font-family="Arial" font-size="15" fill="#1a1a1a">J</text>
</g>
<g class="key">
<use xlink:href="#shape0" transform="translate(486 -108)"/>
<use xlink:href="#path40" transform="translate(500.5 -155) scale(10 10)" fill="#1a1a1a"/>
<use xlink:href="#path41" transform="translate(515.5 -155) scale(10 10)" fill="#1a1a1a"/>
<text x="513" y="-130.5" text-anchor="middle" font-family="Arial" font-size="15" fill="#1a1a1a">K</text>
</g>
<g class="key">
<use xlink:href="#shape0" transform="translate(540 -108)"/>
<use xlink:href="#path42" transform="translate(554.5 -155) scale(10 10)" fill="#1a1a1a"/>
<use xlink:href="#path43" transform="translate(569.5 -155) scale(10 10)" fill="#1a1a1a"/>
<text x="567" y="-130.5" text-anchor="middle" font-family="Arial" font-size="15" fill="#1a1a1a">L</text>
</g>
<g class="key">
<use xlink:href="#shape0" transform="translate(594 -108)"/>
<text x="621" y="-129.9" text-anchor="middle" font-family="Arial" font-size="12" fill="#1a1a1a">:</text>
<text x="621" y="-144.9" text-anchor="middle" font-family="Arial" font-size="12" fill="#1a1a1a">[</text>
</g>
<g class="key">
<use xlink:href="#shape0" transform="translate(648 -108)"/>
<text x="675" y="-129.9" text-anchor="middle" font-family="Arial" font-size="12" fill="#1a1a1a">;</text>
<text x="675" y="-144.9" text-anchor="middle" font-family="Arial" font-size="12" fill="#1a1a1a">]</text>
</g>
<g class="key">
<use xlink:href="#shape0" transform="translate(702 -108)"/>
<text x="729" y="-136.5" text-anchor="middle" font-family="Arial" font-size="15" fill="#1a1a1a">=</text>
</g>
<g class="key">
<use xlink:href="#shape2" transform="translate(756 -108)"/>
<text x="810" y="-138" text-anchor="middle" font-family="Arial" font-size="10" fill="#1a1a1a">RETURN</text>
</g>
<g class="key">
<use xlink:href="#shape1" transform="translate(891 -108)"/>
<text x="931.5" y="-130.5" text-anchor="middle" font-family="Arial" font-size="10" fill="#1a1a1a">F6</text>
<text x="931.5" y="-145.5" text-anchor="middle" font-family="Arial" font-size="10" fill="#1a1a1a">F5</text>
</g>
<g class="key">
<use xlink:href="#shape0" transform="translate(0 -54)"/>
<use xlink:href="#path44" transform="translate(22 -92) scale(10 10)" fill="#1a1a1a"/>
</g>
<g class="key">
<use xlink:href="#shape1" transform="translate(54 -54)"/>
<text x="94.5" y="-84" text-anchor="middle" font-family="Arial" font-size="10" fill="#1a1a1a">SHIFT</text>
</g>
<g class="key">
<use xlink:href="#shape0" transform="translate(135 -54)"/>
<use xlink:href="#path45" transform="translate(149.5 -101) scale(10 10)" fill="#1a1a1a"/>
<text x="169.5" y="-93" text-anchor="middle" font-family="Arial" font-size="10" fill="#1a1a1a">&#9830;</text>
<text x="162" y="-76.5" text-anchor="middle" font-family="Arial" font-size="15" fill="#1a1a1a">Z</text>
</g>
<g class="key">
<use xlink:href="#shape0" transform="translate(189 -54)"/>
<use xlink:href="#path46" transform="translate(203.5 -101) scale(10 10)" fill="#1a1a1a"/>
<text x="223.5" y="-93" text-anchor="middle" font-family="Arial" font-size="10" fill="#1a1a1a">&#9827;</text>
<text x="216" y="-76.5" text-anchor="middle" font-family="Arial" font-size="15" fill="#1a1a1a">X</text>
</g>
<g class="key">
<use xlink:href="#shape0" transform="translate(243 -54)"/>
<use xlink:href="#path47" transform="translate(257.5 -101) scale(10 10)" fill="#1a1a1a"/>
<use xlink:href="#path48" transform="translate(272.5 -101) scale(10 10)" fill="#1a1a1a"/>
<text x="270" y="-76.5" text-anchor="middle" font-family="Arial" font-size="15" fill="#1a1a1a">C</text>
</g>
<g class="key">
<use xlink:href="#shape0" transform="translate(297 -54)"/>
<use xlink:href="#path49" transform="translate(311.5 -101) scale(10 10)" fill="#1a1a1a"/>
<use xlink:href="#path50" transform="translate(326.5 -101) scale(10 10)" fill="#1a1a1a"/>
<text x="324" y="-76.5" text-anchor="middle" font-family="Arial" font-size="15" fill="#1a1a1a">V</text>
</g>
<g class="key">
<use xlink:href="#shape0" transform="translate(351 -54)"/>
<use xlink:href="#path51" transform="translate(365.5 -101) scale(10 10)" fill="#1a1a1a"/>
<use xlink:href="#path52" transform="translate(380.5 -101) scale(10 10)" fill="#1a1a1a"/>
<text x="378" y="-76.5" text-anchor="middle" font-family="Arial" font-size="15" fill="#1a1a1a">B</text>
</g>
<g class="key">
<use xlink:href="#shape0" transform="translate(405 -54)"/>
<use xlink:href="#path53" transform="translate(419.5 -101) scale(10 10)" fill="#1a1a1a"/>
<use xlink:href="#path54" transform="translate(434.5 -101) scale(10 10)" fill="#1a1a1a"/>
<text x="432" y="-76.5" text-anchor="middle" font-family="Arial" font-size="15" fill="#1a1a1a">N</text>
</g>
<g class="key">
<use xlink:href="#shape0" transform="translate(459 -54)"/>
<use xlink:href="#path55" transform="translate(473.5 -101) scale(10 10)" fill="#1a1a1a"/>
<use xlink:href="#path56" transform="translate(488.5 -101) scale(10 10)" fill="#1a1a1a"/>
<text x="486" y="-76.5" text-anchor="middle" font-family="Arial" font-size="15" fill="#1a1a1a">M</text>
</g>
<g class="key">
<use xlink:href="#shape0" transform="translate(513 -54)"/>
<text x="540" y="-75.9" text-anchor="middle" font-family="Arial" font-size="12" fill="#1a1a1a">,</text>
<text x="540" y="-90.9" text-anchor="middle" font-family="Arial" font-size="12" fill="#1a1a1a">&lt;</text>
</g>
<g class="key">
<use xlink:href="#shape0" transform="translate(567 -54)"/>
<text x="594" y="-75.9" text-anchor="middle" font-family="Arial" font-size="12" fill="#1a1a1a">.</text>
<text x="594" y="-90.9" text-anchor="middle" font-family="Arial" font-size="12" fill="#1a1a1a">&gt;</text>
</g>
<g class="key">
<use xlink:href="#shape0" transform="translate(621 -54)"/>
<text x="648" y="-75.9" text-anchor="middle" font-family="Arial" font-size="12" fill="#1a1a1a">/</text>
<text x="648" y="-90.9" text-anchor="middle" font-family="Arial" font-size="12" fill="#1a1a1a">?</text>
</g>
<g class="key">
<use xlink:href="#shape1" transform="translate(675 -54)"/>
<text x="715.5" y="-84" text-anchor="middle" font-family="Arial" font-size="10" fill="#1a1a1a">SHIFT</text>
</g>
<g class="key">
<use xlink:href="#shape0" transform="translate(756 -54)"/>
<text x="783" y="-76.5" text-anchor="middle" font-family="Arial" font-size="10" fill="#1a1a1a">&#8595;</text>
<text x="783" y="-91.5" text-anchor="middle" font-family="Arial" font-size="10" fill="#1a1a1a">&#8593;</text>
</g>
<g class="key">
<use xlink:href="#shape0" transform="translate(810 -54)"/>
<text x="837" y="-76.5" text-anchor="middle" font-family="Arial" font-size="10" fill="#1a1a1a">&#8594;</text>
<text x="837" y="-91.5" text-anchor="middle" font-family="Arial" font-size="10" fill="#1a1a1a">&#8592;</text>
</g>
<g class="key">
<use xlink:href="#shape1" transform="translate(891 -54)"/>
<text x="931.5" y="-76.5" text-anchor="middle" font-family="Arial" font-size="10" fill="#1a1a1a">F8</text>
<text x="931.5" y="-91.5" text-anchor="middle" font-family="Arial" font-size="10" fill="#1a1a1a">F7</text>
</g>
<g class="key">
<use xlink:href="#shape3" transform="translate(135 0)"/>
</g>
</g>
</svg>
