<?xml version="1.0"?>
<svg xmlns="http://www.w3.org/2000/svg" xmlns:xlink="http://www.w3.org/1999/xlink" version="1.1" width="270" height="324" viewBox="0 -324 270 324">
<defs>
<g id="shape0">
<path d="M 6 -54 C 2.686 -54 0 -51.314 0 -48 L 0 -6 C 0 -2.686 2.686 0 6 0 L 48 0 C 51.314 0 54 -2.686 54 -6 L 54 -48 C 54 -51.314 51.314 -54 48 -54 Z" fill="#000000"/>
<path d="M 6 -53 C 3.239 -53 1 -50.761 1 -48 L 1 -6 C 1 -3.239 3.239 -1 6 -1 L 48 -1 C 50.761 -1 53 -3.239 53 -6 L 53 -48 C 53 -50.761 50.761 -53 48 -53 Z" fill="#dadada"/>
<path d="M 6 -52 C 3.791 -52 2 -50.209 2 -48 L 2 -6 C 2 -3.791 3.791 -2 6 -2 L 48 -2 C 50.209 -2 52 -3.791 52 -6 L 52 -48 C 52 -50.209 50.209 -52 48 -52 Z" fill="#f2f2f2"/>
<path d="M 12 -51 C 10.343 -51 9 -49.657 9 -48 L 9 -18 C 9 -16.343 10.343 -15 12 -15 L 42 -15 C 43.657 -15 45 -16.343 45 -18 L 45 -48 C 45 -49.657 43.657 -51 42 -51 Z" fill="#dadada"/>
<path d="M 12 -50 C 10.895 -50 10 -49.105 10 -48 L 10 -18 C 10 -16.895 10.895 -16 12 -16 L 42 -16 C 43.105 -16 44 -16.895 44 -18 L 44 -48 C 44 -49.105 43.105 -50 42 -50 Z" fill="#ffffff"/>
</g>
</defs>
<g class="keyboard">
<g class="key">
<use xlink:href="#shape0" transform="translate(0 -270)"/>
</g>
<g class="key">
<use xlink:href="#shape0" transform="translate(54 -270)"/>
</g>
<g class="key">
<use xlink:href="#shape0" transform="translate(108 -270)"/>
</g>
<g class="key">
<use xlink:href="#shape0" transform="translate(162 -270)"/>
</g>
<g class="key">
<use xlink:href="#shape0" transform="translate(216 -270)"/>
</g>
<g class="key">
<use xlink:href="#shape0" transform="translate(0 -216)"/>
</g>
<g class="key">
<use xlink:href="#shape0" transform="translate(54 -216)"/>
</g>
<g class="key">
<use xlink:href="#shape0" transform="translate(108 -216)"/>
</g>
<g class="key">
<use xlink:href="#shape0" transform="translate(162 -216)"/>
</g>
<g class="key">
<use xlink:href="#shape0" transform="translate(216 -216)"/>
</g>
<g class="key">
<use xlink:href="#shape0" transform="translate(0 -162)"/>
</g>
<g class="key">
<use xlink:href="#shape0" transform="translate(54 -162)"/>
</g>
<g class="key">
<use xlink:href="#shape0" transform="translate(108 -162)"/>
</g>
<g class="key">
<use xlink:href="#shape0" transform="translate(162 -162)"/>
</g>
<g class="key">
<use xlink:href="#shape0" transform="translate(216 -162)"/>
</g>
<g class="key">
<use xlink:href="#shape0" transform="translate(0 -108)"/>
</g>
<g class="key">
<use xlink:href="#shape0" transform="translate(54 -108)"/>
</g>
<g class="key">
<use xlink:href="#shape0" transform="translate(108 -108)"/>
</g>
<g class="key">
<use xlink:href="#shape0" transform="translate(162 -108)"/>
</g>
<g class="key">
<use xlink:href="#shape0" transform="translate(216 -108)"/>
</g>
<g class="key">
<use xlink:href="#shape0" transform="translate(0 -54)"/>
</g>
<g class="key">
<use xlink:href="#shape0" transform="translate(54 -54)"/>
</g>
<g class="key">
<use xlink:href="#shape0" transform="translate(108 -54)"/>
</g>
<g class="key">
<use xlink:href="#shape0" transform="translate(162 -54)"/>
</g>
<g class="key">
<use xlink:href="#shape0" transform="translate(216 -54)"/>
</g>
<g class="key">
<use xlink:href="#shape0" transform="translate(0 0)"/>
</g>
<g class="key">
<use xlink:href="#shape0" transform="translate(54 0)"/>
</g>
<g class="key">
<use xlink:href="#shape0" transform="translate(108 0)"/>
</g>
<g class="key">
<use xlink:href="#shape0" transform="translate(162 0)"/>
</g>
<g class="key">
<use xlink:href="#shape0" transform="translate(216 0)"/>
</g>
</g>
</svg>
