<?xml version="1.0"?>
<svg xmlns="http://www.w3.org/2000/svg" xmlns:xlink="http://www.w3.org/1999/xlink" version="1.1" width="270" height="324" viewBox="0 -324 270 324">
<defs>
<g id="shape0">
<path d="M 6 -54 C 2.686 -54 0 -51.314 0 -48 L 0 -6 C 0 -2.686 2.686 0 6 0 L 264 0 C 267.314 0 270 -2.686 270 -6 L 270 -48 C 270 -51.314 267.314 -54 264 -54 Z" fill="#000000"/>
<path d="M 6 -53 C 3.239 -53 1 -50.761 1 -48 L 1 -6 C 1 -3.239 3.239 -1 6 -1 L 264 -1 C 266.761 -1 269 -3.239 269 -6 L 269 -48 C 269 -50.761 266.761 -53 264 -53 Z" fill="#dadada"/>
<path d="M 6 -52 C 3.791 -52 2 -50.209 2 -48 L 2 -6 C 2 -3.791 3.791 -2 6 -2 L 264 -2 C 266.209 -2 268 -3.791 268 -6 L 268 -48 C 268 -50.209 266.209 -52 264 -52 Z" fill="#f2f2f2"/>
<path d="M 12 -51 C 10.343 -51 9 -49.657 9 -48 L 9 -18 C 9 -16.343 10.343 -15 12 -15 L 258 -15 C 259.657 -15 261 -16.343 261 -18 L 261 -48 C 261 -49.657 259.657 -51 258 -51 Z" fill="#dadada"/>
<path d="M 12 -50 C 10.895 -50 10 -49.105 10 -48 L 10 -18 C 10 -16.895 10.895 -16 12 -16 L 258 -16 C 259.105 -16 260 -16.895 260 -18 L 260 -48 C 260 -49.105 259.105 -50 258 -50 Z" fill="#ffffff"/>
</g>
<g id="shape1">
<path d="M 6 -86.4 C 2.686 -86.4 0 -83.714 0 -80.4 L 0 -6 C 0 -2.686 2.686 0 6 0 L 80.4 0 C 83.714 0 86.4 -2.686 86.4 -6 L 86.4 -80.4 C 86.4 -83.714 83.714 -86.4 80.4 -86.4 Z" fill="#000000"/>
<path d="M 6 -85.4 C 3.239 -85.4 1 -83.161 1 -80.4 L 1 -6 C 1 -3.239 3.239 -1 6 -1 L 80.4 -1 C 83.161 -1 85.4 -3.239 85.4 -6 L 85.4 -80.4 C 85.4 -83.161 83.161 -85.4 80.4 -85.4 Z" fill="#dadada"/>
<path d="M 6 -84.4 C 3.791 -84.4 2 -82.609 2 -80.4 L 2 -6 C 2 -3.791 3.791 -2 6 -2 L 80.4 -2 C 82.609 -2 84.4 -3.791 84.4 -6 L 84.4 -80.4 C 84.4 -82.609 82.609 -84.4 80.4 -84.4 Z" fill="#f2f2f2"/>
<path d="M 12 -83.4 C 10.343 -83.4 9 -82.057 9 -80.4 L 9 -18 C 9 -16.343 10.343 -15 12 -15 L 74.4 -15 C 76.057 -15 77.4 -16.343 77.4 -18 L 77.4 -80.4 C 77.4 -82.057 76.057 -83.4 74.4 -83.4 Z" fill="#dadada"/>
<path d="M 12 -82.4 C 10.895 -82.4 10 -81.505 10 -80.4 L 10 -18 C 10 -16.895 10.895 -16 12 -16 L 74.4 -16 C 75.505 -16 76.4 -16.895 76.4 -18 L 76.4 -80.4 C 76.4 -81.505 75.505 -82.4 74.4 -82.4 Z" fill="#ffffff"/>
</g>
</defs>
<g class="keyboard">
<g class="key">
<use xlink:href="#shape0" transform="translate(0 -270)"/>
</g>
<g class="key">
<use xlink:href="#shape1" transform="translate(2.7 -178.2)"/>
</g>
<g class="key">
<use xlink:href="#shape1" transform="translate(91.8 -178.2)"/>
</g>
<g class="key">
<use xlink:href="#shape1" transform="translate(180.9 -178.2)"/>
</g>
<g class="key">
<use xlink:href="#shape1" transform="translate(2.7 -89.1)"/>
</g>
<g class="key">
<use xlink:href="#shape1" transform="translate(91.8 -89.1)"/>
</g>
<g class="key">
<use xlink:href="#shape1" transform="translate(180.9 -89.1)"/>
</g>
<g class="key">
<use xlink:href="#shape1" transform="translate(2.7 0)"/>
</g>
<g class="key">
<use xlink:href="#shape1" transform="translate(91.8 0)"/>
</g>
<g class="key">
<use xlink:href="#shape1" transform="translate(180.9 0)"/>
</g>
</g>
</svg>
