<?xml version="1.0"?>
<svg xmlns="http://www.w3.org/2000/svg" version="1.1" width="432" height="432" viewBox="0 -54 432 432">
<g>
<path d="M 6 -54 C 2.686 -54 0 -51.314 0 -48 L 0 -6 C 0 -2.686 2.686 0 6 0 L 48 0 C 51.314 0 54 -2.686 54 -6 L 54 -48 C 54 -51.314 51.314 -54 48 -54 Z" fill="#000000"/>
<path d="M 6 -53 C 3.239 -53 1 -50.761 1 -48 L 1 -6 C 1 -3.239 3.239 -1 6 -1 L 48 -1 C 50.761 -1 53 -3.239 53 -6 L 53 -48 C 53 -50.761 50.761 -53 48 -53 Z" fill="#dadada"/>
<path d="M 6 -52 C 3.791 -52 2 -50.209 2 -48 L 2 -6 C 2 -3.791 3.791 -2 6 -2 L 48 -2 C 50.209 -2 52 -3.791 52 -6 L 52 -48 C 52 -50.209 50.209 -52 48 -52 Z" fill="#f2f2f2"/>
<path d="M 12 -51 C 10.343 -51 9 -49.657 9 -48 L 9 -18 C 9 -16.343 10.343 -15 12 -15 L 42 -15 C 43.657 -15 45 -16.343 45 -18 L 45 -48 C 45 -49.657 43.657 -51 42 -51 Z" fill="#dadada"/>
<path d="M 12 -50 C 10.895 -50 10 -49.105 10 -48 L 10 -18 C 10 -16.895 10.895 -16 12 -16 L 42 -16 C 43.105 -16 44 -16.895 44 -18 L 44 -48 C 44 -49.105 43.105 -50 42 -50 Z" fill="#ffffff"/>
</g>
<text x="4" y="-4" font-family="monospace" font-size="12" fill="#000000">0</text>
<g>
<path d="M 60 -54 C 56.686 -54 54 -51.314 54 -48 L 54 -6 C 54 -2.686 56.686 0 60 0 L 102 0 C 105.314 0 108 -2.686 108 -6 L 108 -48 C 108 -51.314 105.314 -54 102 -54 Z" fill="#000000"/>
<path d="M 60 -53 C 57.239 -53 55 -50.761 55 -48 L 55 -6 C 55 -3.239 57.239 -1 60 -1 L 102 -1 C 104.761 -1 107 -3.239 107 -6 L 107 -48 C 107 -50.761 104.761 -53 102 -53 Z" fill="#171717"/>
<path d="M 60 -52 C 57.791 -52 56 -50.209 56 -48 L 56 -6 C 56 -3.791 57.791 -2 60 -2 L 102 -2 C 104.209 -2 106 -3.791 106 -6 L 106 -48 C 106 -50.209 104.209 -52 102 -52 Z" fill="#1a1a1a"/>
<path d="M 66 -51 C 64.343 -51 63 -49.657 63 -48 L 63 -18 C 63 -16.343 64.343 -15 66 -15 L 96 -15 C 97.657 -15 99 -16.343 99 -18 L 99 -48 C 99 -49.657 97.657 -51 96 -51 Z" fill="#171717"/>
<path d="M 66 -50 C 64.895 -50 64 -49.105 64 -48 L 64 -18 C 64 -16.895 64.895 -16 66 -16 L 96 -16 C 97.105 -16 98 -16.895 98 -18 L 98 -48 C 98 -49.105 97.105 -50 96 -50 Z" fill="#303030"/>
</g>
<text x="58" y="-4" font-family="monospace" font-size="12" fill="#ffffff">1</text>
<g>
<path d="M 114 -54 C 110.686 -54 108 -51.314 108 -48 L 108 -6 C 108 -2.686 110.686 0 114 0 L 156 0 C 159.314 0 162 -2.686 162 -6 L 162 -48 C 162 -51.314 159.314 -54 156 -54 Z" fill="#000000"/>
<path d="M 114 -53 C 111.239 -53 109 -50.761 109 -48 L 109 -6 C 109 -3.239 111.239 -1 114 -1 L 156 -1 C 158.761 -1 161 -3.239 161 -6 L 161 -48 C 161 -50.761 158.761 -53 156 -53 Z" fill="#2e2e2e"/>
<path d="M 114 -52 C 111.791 -52 110 -50.209 110 -48 L 110 -6 C 110 -3.791 111.791 -2 114 -2 L 156 -2 C 158.209 -2 160 -3.791 160 -6 L 160 -48 C 160 -50.209 158.209 -52 156 -52 Z" fill="#333333"/>
<path d="M 120 -51 C 118.343 -51 117 -49.657 117 -48 L 117 -18 C 117 -16.343 118.343 -15 120 -15 L 150 -15 C 151.657 -15 153 -16.343 153 -18 L 153 -48 C 153 -49.657 151.657 -51 150 -51 Z" fill="#2e2e2e"/>
<path d="M 120 -50 C 118.895 -50 118 -49.105 118 -48 L 118 -18 C 118 -16.895 118.895 -16 120 -16 L 150 -16 C 151.105 -16 152 -16.895 152 -18 L 152 -48 C 152 -49.105 151.105 -50 150 -50 Z" fill="#4b4b4b"/>
</g>
<text x="112" y="-4" font-family="monospace" font-size="12" fill="#ffffff">2</text>
<g>
<path d="M 168 -54 C 164.686 -54 162 -51.314 162 -48 L 162 -6 C 162 -2.686 164.686 0 168 0 L 210 0 C 213.314 0 216 -2.686 216 -6 L 216 -48 C 216 -51.314 213.314 -54 210 -54 Z" fill="#000000"/>
<path d="M 168 -53 C 165.239 -53 163 -50.761 163 -48 L 163 -6 C 163 -3.239 165.239 -1 168 -1 L 210 -1 C 212.761 -1 215 -3.239 215 -6 L 215 -48 C 215 -50.761 212.761 -53 210 -53 Z" fill="#5c5c5c"/>
<path d="M 168 -52 C 165.791 -52 164 -50.209 164 -48 L 164 -6 C 164 -3.791 165.791 -2 168 -2 L 210 -2 C 212.209 -2 214 -3.791 214 -6 L 214 -48 C 214 -50.209 212.209 -52 210 -52 Z" fill="#666666"/>
<path d="M 174 -51 C 172.343 -51 171 -49.657 171 -48 L 171 -18 C 171 -16.343 172.343 -15 174 -15 L 204 -15 C 205.657 -15 207 -16.343 207 -18 L 207 -48 C 207 -49.657 205.657 -51 204 -51 Z" fill="#5c5c5c"/>
<path d="M 174 -50 C 172.895 -50 172 -49.105 172 -48 L 172 -18 C 172 -16.895 172.895 -16 174 -16 L 204 -16 C 205.105 -16 206 -16.895 206 -18 L 206 -48 C 206 -49.105 205.105 -50 204 -50 Z" fill="#838383"/>
</g>
<text x="166" y="-4" font-family="monospace" font-size="12" fill="#ffffff">3</text>
<g>
<path d="M 222 -54 C 218.686 -54 216 -51.314 216 -48 L 216 -6 C 216 -2.686 218.686 0 222 0 L 264 0 C 267.314 0 270 -2.686 270 -6 L 270 -48 C 270 -51.314 267.314 -54 264 -54 Z" fill="#000000"/>
<path d="M 222 -53 C 219.239 -53 217 -50.761 217 -48 L 217 -6 C 217 -3.239 219.239 -1 222 -1 L 264 -1 C 266.761 -1 269 -3.239 269 -6 L 269 -48 C 269 -50.761 266.761 -53 264 -53 Z" fill="#8a8a8a"/>
<path d="M 222 -52 C 219.791 -52 218 -50.209 218 -48 L 218 -6 C 218 -3.791 219.791 -2 222 -2 L 264 -2 C 266.209 -2 268 -3.791 268 -6 L 268 -48 C 268 -50.209 266.209 -52 264 -52 Z" fill="#999999"/>
<path d="M 228 -51 C 226.343 -51 225 -49.657 225 -48 L 225 -18 C 225 -16.343 226.343 -15 228 -15 L 258 -15 C 259.657 -15 261 -16.343 261 -18 L 261 -48 C 261 -49.657 259.657 -51 258 -51 Z" fill="#8a8a8a"/>
<path d="M 228 -50 C 226.895 -50 226 -49.105 226 -48 L 226 -18 C 226 -16.895 226.895 -16 228 -16 L 258 -16 C 259.105 -16 260 -16.895 260 -18 L 260 -48 C 260 -49.105 259.105 -50 258 -50 Z" fill="#bababa"/>
</g>
<text x="220" y="-4" font-family="monospace" font-size="12" fill="#000000">4</text>
<g>
<path d="M 276 -54 C 272.686 -54 270 -51.314 270 -48 L 270 -6 C 270 -2.686 272.686 0 276 0 L 318 0 C 321.314 0 324 -2.686 324 -6 L 324 -48 C 324 -51.314 321.314 -54 318 -54 Z" fill="#000000"/>
<path d="M 276 -53 C 273.239 -53 271 -50.761 271 -48 L 271 -6 C 271 -3.239 273.239 -1 276 -1 L 318 -1 C 320.761 -1 323 -3.239 323 -6 L 323 -48 C 323 -50.761 320.761 -53 318 -53 Z" fill="#b8b8b8"/>
<path d="M 276 -52 C 273.791 -52 272 -50.209 272 -48 L 272 -6 C 272 -3.791 273.791 -2 276 -2 L 318 -2 C 320.209 -2 322 -3.791 322 -6 L 322 -48 C 322 -50.209 320.209 -52 318 -52 Z" fill="#cccccc"/>
<path d="M 282 -51 C 280.343 -51 279 -49.657 279 -48 L 279 -18 C 279 -16.343 280.343 -15 282 -15 L 312 -15 C 313.657 -15 315 -16.343 315 -18 L 315 -48 C 315 -49.657 313.657 -51 312 -51 Z" fill="#b8b8b8"/>
<path d="M 282 -50 C 280.895 -50 280 -49.105 280 -48 L 280 -18 C 280 -16.895 280.895 -16 282 -16 L 312 -16 C 313.105 -16 314 -16.895 314 -18 L 314 -48 C 314 -49.105 313.105 -50 312 -50 Z" fill="#f2f2f2"/>
</g>
<text x="274" y="-4" font-family="monospace" font-size="12" fill="#000000">5</text>
<g>
<path d="M 330 -54 C 326.686 -54 324 -51.314 324 -48 L 324 -6 C 324 -2.686 326.686 0 330 0 L 372 0 C 375.314 0 378 -2.686 378 -6 L 378 -48 C 378 -51.314 375.314 -54 372 -54 Z" fill="#000000"/>
<path d="M 330 -53 C 327.239 -53 325 -50.761 325 -48 L 325 -6 C 325 -3.239 327.239 -1 330 -1 L 372 -1 C 374.761 -1 377 -3.239 377 -6 L 377 -48 C 377 -50.761 374.761 -53 372 -53 Z" fill="#3d3d2e"/>
<path d="M 330 -52 C 327.791 -52 326 -50.209 326 -48 L 326 -6 C 326 -3.791 327.791 -2 330 -2 L 372 -2 C 374.209 -2 376 -3.791 376 -6 L 376 -48 C 376 -50.209 374.209 -52 372 -52 Z" fill="#444433"/>
<path d="M 336 -51 C 334.343 -51 333 -49.657 333 -48 L 333 -18 C 333 -16.343 334.343 -15 336 -15 L 366 -15 C 367.657 -15 369 -16.343 369 -18 L 369 -48 C 369 -49.657 367.657 -51 366 -51 Z" fill="#3d3d2e"/>
<path d="M 336 -50 C 334.895 -50 334 -49.105 334 -48 L 334 -18 C 334 -16.895 334.895 -16 336 -16 L 366 -16 C 367.105 -16 368 -16.895 368 -18 L 368 -48 C 368 -49.105 367.105 -50 366 -50 Z" fill="#5e5e4b"/>
</g>
<text x="328" y="-4" font-family="monospace" font-size="12" fill="#ffffff">6</text>
<g>
<path d="M 384 -54 C 380.686 -54 378 -51.314 378 -48 L 378 -6 C 378 -2.686 380.686 0 384 0 L 426 0 C 429.314 0 432 -2.686 432 -6 L 432 -48 C 432 -51.314 429.314 -54 426 -54 Z" fill="#000000"/>
<path d="M 384 -53 C 381.239 -53 379 -50.761 379 -48 L 379 -6 C 379 -3.239 381.239 -1 384 -1 L 426 -1 C 428.761 -1 431 -3.239 431 -6 L 431 -48 C 431 -50.761 428.761 -53 426 -53 Z" fill="#6b6b5c"/>
<path d="M 384 -52 C 381.791 -52 380 -50.209 380 -48 L 380 -6 C 380 -3.791 381.791 -2 384 -2 L 426 -2 C 428.209 -2 430 -3.791 430 -6 L 430 -48 C 430 -50.209 428.209 -52 426 -52 Z" fill="#777766"/>
<path d="M 390 -51 C 388.343 -51 387 -49.657 387 -48 L 387 -18 C 387 -16.343 388.343 -15 390 -15 L 420 -15 C 421.657 -15 423 -16.343 423 -18 L 423 -48 C 423 -49.657 421.657 -51 420 -51 Z" fill="#6b6b5c"/>
<path d="M 390 -50 C 388.895 -50 388 -49.105 388 -48 L 388 -18 C 388 -16.895 388.895 -16 390 -16 L 420 -16 C 421.105 -16 422 -16.895 422 -18 L 422 -48 C 422 -49.105 421.105 -50 420 -50 Z" fill="#959583"/>
</g>
<text x="382" y="-4" font-family="monospace" font-size="12" fill="#ffffff">7</text>
<g>
<path d="M 6 0 C 2.686 0 0 2.686 0 6 L 0 48 C 0 51.314 2.686 54 6 54 L 48 54 C 51.314 54 54 51.314 54 48 L 54 6 C 54 2.686 51.314 0 48 0 Z" fill="#000000"/>
<path d="M 6 1 C 3.239 1 1 3.239 1 6 L 1 48 C 1 50.761 3.239 53 6 53 L 48 53 C 50.761 53 53 50.761 53 48 L 53 6 C 53 3.239 50.761 1 48 1 Z" fill="#99998a"/>
<path d="M 6 2 C 3.791 2 2 3.791 2 6 L 2 48 C 2 50.209 3.791 52 6 52 L 48 52 C 50.209 52 52 50.209 52 48 L 52 6 C 52 3.791 50.209 2 48 2 Z" fill="#aaaa99"/>
<path d="M 12 3 C 10.343 3 9 4.343 9 6 L 9 36 C 9 37.657 10.343 39 12 39 L 42 39 C 43.657 39 45 37.657 45 36 L 45 6 C 45 4.343 43.657 3 42 3 Z" fill="#99998a"/>
<path d="M 12 4 C 10.895 4 10 4.895 10 6 L 10 36 C 10 37.105 10.895 38 12 38 L 42 38 C 43.105 38 44 37.105 44 36 L 44 6 C 44 4.895 43.105 4 42 4 Z" fill="#cdcdba"/>
</g>
<text x="4" y="50" font-family="monospace" font-size="12" fill="#000000">8</text>
<g>
<path d="M 60 0 C 56.686 0 54 2.686 54 6 L 54 48 C 54 51.314 56.686 54 60 54 L 102 54 C 105.314 54 108 51.314 108 48 L 108 6 C 108 2.686 105.314 0 102 0 Z" fill="#000000"/>
<path d="M 60 1 C 57.239 1 55 3.239 55 6 L 55 48 C 55 50.761 57.239 53 60 53 L 102 53 C 104.761 53 107 50.761 107 48 L 107 6 C 107 3.239 104.761 1 102 1 Z" fill="#c7c7b8"/>
<path d="M 60 2 C 57.791 2 56 3.791 56 6 L 56 48 C 56 50.209 57.791 52 60 52 L 102 52 C 104.209 52 106 50.209 106 48 L 106 6 C 106 3.791 104.209 2 102 2 Z" fill="#ddddcc"/>
<path d="M 66 3 C 64.343 3 63 4.343 63 6 L 63 36 C 63 37.657 64.343 39 66 39 L 96 39 C 97.657 39 99 37.657 99 36 L 99 6 C 99 4.343 97.657 3 96 3 Z" fill="#c7c7b8"/>
<path d="M 66 4 C 64.895 4 64 4.895 64 6 L 64 36 C 64 37.105 64.895 38 66 38 L 96 38 C 97.105 38 98 37.105 98 36 L 98 6 C 98 4.895 97.105 4 96 4 Z" fill="#fffff2"/>
</g>
<text x="58" y="50" font-family="monospace" font-size="12" fill="#000000">9</text>
<g>
<path d="M 114 0 C 110.686 0 108 2.686 108 6 L 108 48 C 108 51.314 110.686 54 114 54 L 156 54 C 159.314 54 162 51.314 162 48 L 162 6 C 162 2.686 159.314 0 156 0 Z" fill="#000000"/>
<path d="M 114 1 C 111.239 1 109 3.239 109 6 L 109 48 C 109 50.761 111.239 53 114 53 L 156 53 C 158.761 53 161 50.761 161 48 L 161 6 C 161 3.239 158.761 1 156 1 Z" fill="#5c2e2e"/>
<path d="M 114 2 C 111.791 2 110 3.791 110 6 L 110 48 C 110 50.209 111.791 52 114 52 L 156 52 C 158.209 52 160 50.209 160 48 L 160 6 C 160 3.791 158.209 2 156 2 Z" fill="#663333"/>
<path d="M 120 3 C 118.343 3 117 4.343 117 6 L 117 36 C 117 37.657 118.343 39 120 39 L 150 39 C 151.657 39 153 37.657 153 36 L 153 6 C 153 4.343 151.657 3 150 3 Z" fill="#5c2e2e"/>
<path d="M 120 4 C 118.895 4 118 4.895 118 6 L 118 36 C 118 37.105 118.895 38 120 38 L 150 38 C 151.105 38 152 37.105 152 36 L 152 6 C 152 4.895 151.105 4 150 4 Z" fill="#834b4b"/>
</g>
<text x="112" y="50" font-family="monospace" font-size="12" fill="#ffffff">10</text>
<g>
<path d="M 168 0 C 164.686 0 162 2.686 162 6 L 162 48 C 162 51.314 164.686 54 168 54 L 210 54 C 213.314 54 216 51.314 216 48 L 216 6 C 216 2.686 213.314 0 210 0 Z" fill="#000000"/>
<path d="M 168 1 C 165.239 1 163 3.239 163 6 L 163 48 C 163 50.761 165.239 53 168 53 L 210 53 C 212.761 53 215 50.761 215 48 L 215 6 C 215 3.239 212.761 1 210 1 Z" fill="#b80000"/>
<path d="M 168 2 C 165.791 2 164 3.791 164 6 L 164 48 C 164 50.209 165.791 52 168 52 L 210 52 C 212.209 52 214 50.209 214 48 L 214 6 C 214 3.791 212.209 2 210 2 Z" fill="#cc0000"/>
<path d="M 174 3 C 172.343 3 171 4.343 171 6 L 171 36 C 171 37.657 172.343 39 174 39 L 204 39 C 205.657 39 207 37.657 207 36 L 207 6 C 207 4.343 205.657 3 204 3 Z" fill="#b80000"/>
<path d="M 174 4 C 172.895 4 172 4.895 172 6 L 172 36 C 172 37.105 172.895 38 174 38 L 204 38 C 205.105 38 206 37.105 206 36 L 206 6 C 206 4.895 205.105 4 204 4 Z" fill="#f21414"/>
</g>
<text x="166" y="50" font-family="monospace" font-size="12" fill="#ffffff">11</text>
<g>
<path d="M 222 0 C 218.686 0 216 2.686 216 6 L 216 48 C 216 51.314 218.686 54 222 54 L 264 54 C 267.314 54 270 51.314 270 48 L 270 6 C 270 2.686 267.314 0 264 0 Z" fill="#000000"/>
<path d="M 222 1 C 219.239 1 217 3.239 217 6 L 217 48 C 217 50.761 219.239 53 222 53 L 264 53 C 266.761 53 269 50.761 269 48 L 269 6 C 269 3.239 266.761 1 264 1 Z" fill="#e6a8b8"/>
<path d="M 222 2 C 219.791 2 218 3.791 218 6 L 218 48 C 218 50.209 219.791 52 222 52 L 264 52 C 266.209 52 268 50.209 268 48 L 268 6 C 268 3.791 266.209 2 264 2 Z" fill="#ffbbcc"/>
<path d="M 228 3 C 226.343 3 225 4.343 225 6 L 225 36 C 225 37.657 226.343 39 228 39 L 258 39 C 259.657 39 261 37.657 261 36 L 261 6 C 261 4.343 259.657 3 258 3 Z" fill="#e6a8b8"/>
<path d="M 228 4 C 226.895 4 226 4.895 226 6 L 226 36 C 226 37.105 226.895 38 228 38 L 258 38 C 259.105 38 260 37.105 260 36 L 260 6 C 260 4.895 259.105 4 258 4 Z" fill="#ffdff2"/>
</g>
<text x="220" y="50" font-family="monospace" font-size="12" fill="#000000">12</text>
<g>
<path d="M 276 0 C 272.686 0 270 2.686 270 6 L 270 48 C 270 51.314 272.686 54 276 54 L 318 54 C 321.314 54 324 51.314 324 48 L 324 6 C 324 2.686 321.314 0 318 0 Z" fill="#000000"/>
<path d="M 276 1 C 273.239 1 271 3.239 271 6 L 271 48 C 271 50.761 273.239 53 276 53 L 318 53 C 320.761 53 323 50.761 323 48 L 323 6 C 323 3.239 320.761 1 318 1 Z" fill="#6b4d2e"/>
<path d="M 276 2 C 273.791 2 272 3.791 272 6 L 272 48 C 272 50.209 273.791 52 276 52 L 318 52 C 320.209 52 322 50.209 322 48 L 322 6 C 322 3.791 320.209 2 318 2 Z" fill="#775533"/>
<path d="M 282 3 C 280.343 3 279 4.343 279 6 L 279 36 C 279 37.657 280.343 39 282 39 L 312 39 C 313.657 39 315 37.657 315 36 L 315 6 C 315 4.343 313.657 3 312 3 Z" fill="#6b4d2e"/>
<path d="M 282 4 C 280.895 4 280 4.895 280 6 L 280 36 C 280 37.105 280.895 38 282 38 L 312 38 C 313.105 38 314 37.105 314 36 L 314 6 C 314 4.895 313.105 4 312 4 Z" fill="#95704b"/>
</g>
<text x="274" y="50" font-family="monospace" font-size="12" fill="#ffffff">13</text>
<g>
<path d="M 330 0 C 326.686 0 324 2.686 324 6 L 324 48 C 324 51.314 326.686 54 330 54 L 372 54 C 375.314 54 378 51.314 378 48 L 378 6 C 378 2.686 375.314 0 372 0 Z" fill="#000000"/>
<path d="M 330 1 C 327.239 1 325 3.239 325 6 L 325 48 C 325 50.761 327.239 53 330 53 L 372 53 C 374.761 53 377 50.761 377 48 L 377 6 C 377 3.239 374.761 1 372 1 Z" fill="#e65c00"/>
<path d="M 330 2 C 327.791 2 326 3.791 326 6 L 326 48 C 326 50.209 327.791 52 330 52 L 372 52 C 374.209 52 376 50.209 376 48 L 376 6 C 376 3.791 374.209 2 372 2 Z" fill="#ff6600"/>
<path d="M 336 3 C 334.343 3 333 4.343 333 6 L 333 36 C 333 37.657 334.343 39 336 39 L 366 39 C 367.657 39 369 37.657 369 36 L 369 6 C 369 4.343 367.657 3 366 3 Z" fill="#e65c00"/>
<path d="M 336 4 C 334.895 4 334 4.895 334 6 L 334 36 C 334 37.105 334.895 38 336 38 L 366 38 C 367.105 38 368 37.105 368 36 L 368 6 C 368 4.895 367.105 4 366 4 Z" fill="#ff8314"/>
</g>
<text x="328" y="50" font-family="monospace" font-size="12" fill="#000000">14</text>
<g>
<path d="M 384 0 C 380.686 0 378 2.686 378 6 L 378 48 C 378 51.314 380.686 54 384 54 L 426 54 C 429.314 54 432 51.314 432 48 L 432 6 C 432 2.686 429.314 0 426 0 Z" fill="#000000"/>
<path d="M 384 1 C 381.239 1 379 3.239 379 6 L 379 48 C 379 50.761 381.239 53 384 53 L 426 53 C 428.761 53 431 50.761 431 48 L 431 6 C 431 3.239 428.761 1 426 1 Z" fill="#e6b88a"/>
<path d="M 384 2 C 381.791 2 380 3.791 380 6 L 380 48 C 380 50.209 381.791 52 384 52 L 426 52 C 428.209 52 430 50.209 430 48 L 430 6 C 430 3.791 428.209 2 426 2 Z" fill="#ffcc99"/>
<path d="M 390 3 C 388.343 3 387 4.343 387 6 L 387 36 C 387 37.657 388.343 39 390 39 L 420 39 C 421.657 39 423 37.657 423 36 L 423 6 C 423 4.343 421.657 3 420 3 Z" fill="#e6b88a"/>
<path d="M 390 4 C 388.895 4 388 4.895 388 6 L 388 36 C 388 37.105 388.895 38 390 38 L 420 38 C 421.105 38 422 37.105 422 36 L 422 6 C 422 4.895 421.105 4 420 4 Z" fill="#fff2ba"/>
</g>
<text x="382" y="50" font-family="monospace" font-size="12" fill="#000000">15</text>
<g>
<path d="M 6 54 C 2.686 54 0 56.686 0 60 L 0 102 C 0 105.314 2.686 108 6 108 L 48 108 C 51.314 108 54 105.314 54 102 L 54 60 C 54 56.686 51.314 54 48 54 Z" fill="#000000"/>
<path d="M 6 55 C 3.239 55 1 57.239 1 60 L 1 102 C 1 104.761 3.239 107 6 107 L 48 107 C 50.761 107 53 104.761 53 102 L 53 60 C 53 57.239 50.761 55 48 55 Z" fill="#5c5c2e"/>
<path d="M 6 56 C 3.791 56 2 57.791 2 60 L 2 102 C 2 104.209 3.791 106 6 106 L 48 106 C 50.209 106 52 104.209 52 102 L 52 60 C 52 57.791 50.209 56 48 56 Z" fill="#666633"/>
<path d="M 12 57 C 10.343 57 9 58.343 9 60 L 9 90 C 9 91.657 10.343 93 12 93 L 42 93 C 43.657 93 45 91.657 45 90 L 45 60 C 45 58.343 43.657 57 42 57 Z" fill="#5c5c2e"/>
<path d="M 12 58 C 10.895 58 10 58.895 10 60 L 10 90 C 10 91.105 10.895 92 12 92 L 42 92 C 43.105 92 44 91.105 44 90 L 44 60 C 44 58.895 43.105 58 42 58 Z" fill="#83834b"/>
</g>
<text x="4" y="104" font-family="monospace" font-size="12" fill="#ffffff">16</text>
<g>
<path d="M 60 54 C 56.686 54 54 56.686 54 60 L 54 102 C 54 105.314 56.686 108 60 108 L 102 108 C 105.314 108 108 105.314 108 102 L 108 60 C 108 56.686 105.314 54 102 54 Z" fill="#000000"/>
<path d="M 60 55 C 57.239 55 55 57.239 55 60 L 55 102 C 55 104.761 57.239 107 60 107 L 102 107 C 104.761 107 107 104.761 107 102 L 107 60 C 107 57.239 104.761 55 102 55 Z" fill="#e6b800"/>
<path d="M 60 56 C 57.791 56 56 57.791 56 60 L 56 102 C 56 104.209 57.791 106 60 106 L 102 106 C 104.209 106 106 104.209 106 102 L 106 60 C 106 57.791 104.209 56 102 56 Z" fill="#ffcc00"/>
<path d="M 66 57 C 64.343 57 63 58.343 63 60 L 63 90 C 63 91.657 64.343 93 66 93 L 96 93 C 97.657 93 99 91.657 99 90 L 99 60 C 99 58.343 97.657 57 96 57 Z" fill="#e6b800"/>
<path d="M 66 58 C 64.895 58 64 58.895 64 60 L 64 90 C 64 91.105 64.895 92 66 92 L 96 92 C 97.105 92 98 91.105 98 90 L 98 60 C 98 58.895 97.105 58 96 58 Z" fill="#fff214"/>
</g>
<text x="58" y="104" font-family="monospace" font-size="12" fill="#000000">17</text>
<g>
<path d="M 114 54 C 110.686 54 108 56.686 108 60 L 108 102 C 108 105.314 110.686 108 114 108 L 156 108 C 159.314 108 162 105.314 162 102 L 162 60 C 162 56.686 159.314 54 156 54 Z" fill="#000000"/>
<path d="M 114 55 C 111.239 55 109 57.239 109 60 L 109 102 C 109 104.761 111.239 107 114 107 L 156 107 C 158.761 107 161 104.761 161 102 L 161 60 C 161 57.239 158.761 55 156 55 Z" fill="#e6d68a"/>
<path d="M 114 56 C 111.791 56 110 57.791 110 60 L 110 102 C 110 104.209 111.791 106 114 106 L 156 106 C 158.209 106 160 104.209 160 102 L 160 60 C 160 57.791 158.209 56 156 56 Z" fill="#ffee99"/>
<path d="M 120 57 C 118.343 57 117 58.343 117 60 L 117 90 C 117 91.657 118.343 93 120 93 L 150 93 C 151.657 93 153 91.657 153 90 L 153 60 C 153 58.343 151.657 57 150 57 Z" fill="#e6d68a"/>
<path d="M 120 58 C 118.895 58 118 58.895 118 60 L 118 90 C 118 91.105 118.895 92 120 92 L 150 92 C 151.105 92 152 91.105 152 90 L 152 60 C 152 58.895 151.105 58 150 58 Z" fill="#ffffba"/>
</g>
<text x="112" y="104" font-family="monospace" font-size="12" fill="#000000">18</text>
<g>
<path d="M 168 54 C 164.686 54 162 56.686 162 60 L 162 102 C 162 105.314 164.686 108 168 108 L 210 108 C 213.314 108 216 105.314 216 102 L 216 60 C 216 56.686 213.314 54 210 54 Z" fill="#000000"/>
<path d="M 168 55 C 165.239 55 163 57.239 163 60 L 163 102 C 163 104.761 165.239 107 168 107 L 210 107 C 212.761 107 215 104.761 215 102 L 215 60 C 215 57.239 212.761 55 210 55 Z" fill="#2e5c00"/>
<path d="M 168 56 C 165.791 56 164 57.791 164 60 L 164 102 C 164 104.209 165.791 106 168 106 L 210 106 C 212.209 106 214 104.209 214 102 L 214 60 C 214 57.791 212.209 56 210 56 Z" fill="#336600"/>
<path d="M 174 57 C 172.343 57 171 58.343 171 60 L 171 90 C 171 91.657 172.343 93 174 93 L 204 93 C 205.657 93 207 91.657 207 90 L 207 60 C 207 58.343 205.657 57 204 57 Z" fill="#2e5c00"/>
<path d="M 174 58 C 172.895 58 172 58.895 172 60 L 172 90 C 172 91.105 172.895 92 174 92 L 204 92 C 205.105 92 206 91.105 206 90 L 206 60 C 206 58.895 205.105 58 204 58 Z" fill="#4b8314"/>
</g>
<text x="166" y="104" font-family="monospace" font-size="12" fill="#ffffff">19</text>
<g>
<path d="M 222 54 C 218.686 54 216 56.686 216 60 L 216 102 C 216 105.314 218.686 108 222 108 L 264 108 C 267.314 108 270 105.314 270 102 L 270 60 C 270 56.686 267.314 54 264 54 Z" fill="#000000"/>
<path d="M 222 55 C 219.239 55 217 57.239 217 60 L 217 102 C 217 104.761 219.239 107 222 107 L 264 107 C 266.761 107 269 104.761 269 102 L 269 60 C 269 57.239 266.761 55 264 55 Z" fill="#009900"/>
<path d="M 222 56 C 219.791 56 218 57.791 218 60 L 218 102 C 218 104.209 219.791 106 222 106 L 264 106 C 266.209 106 268 104.209 268 102 L 268 60 C 268 57.791 266.209 56 264 56 Z" fill="#00aa00"/>
<path d="M 228 57 C 226.343 57 225 58.343 225 60 L 225 90 C 225 91.657 226.343 93 228 93 L 258 93 C 259.657 93 261 91.657 261 90 L 261 60 C 261 58.343 259.657 57 258 57 Z" fill="#009900"/>
<path d="M 228 58 C 226.895 58 226 58.895 226 60 L 226 90 C 226 91.105 226.895 92 228 92 L 258 92 C 259.105 92 260 91.105 260 90 L 260 60 C 260 58.895 259.105 58 258 58 Z" fill="#14cd14"/>
</g>
<text x="220" y="104" font-family="monospace" font-size="12" fill="#ffffff">20</text>
<g>
<path d="M 276 54 C 272.686 54 270 56.686 270 60 L 270 102 C 270 105.314 272.686 108 276 108 L 318 108 C 321.314 108 324 105.314 324 102 L 324 60 C 324 56.686 321.314 54 318 54 Z" fill="#000000"/>
<path d="M 276 55 C 273.239 55 271 57.239 271 60 L 271 102 C 271 104.761 273.239 107 276 107 L 318 107 C 320.761 107 323 104.761 323 102 L 323 60 C 323 57.239 320.761 55 318 55 Z" fill="#6bd699"/>
<path d="M 276 56 C 273.791 56 272 57.791 272 60 L 272 102 C 272 104.209 273.791 106 276 106 L 318 106 C 320.209 106 322 104.209 322 102 L 322 60 C 322 57.791 320.209 56 318 56 Z" fill="#77eeaa"/>
<path d="M 282 57 C 280.343 57 279 58.343 279 60 L 279 90 C 279 91.657 280.343 93 282 93 L 312 93 C 313.657 93 315 91.657 315 90 L 315 60 C 315 58.343 313.657 57 312 57 Z" fill="#6bd699"/>
<path d="M 282 58 C 280.895 58 280 58.895 280 60 L 280 90 C 280 91.105 280.895 92 282 92 L 312 92 C 313.105 92 314 91.105 314 90 L 314 60 C 314 58.895 313.105 58 312 58 Z" fill="#95ffcd"/>
</g>
<text x="274" y="104" font-family="monospace" font-size="12" fill="#000000">21</text>
<g>
<path d="M 330 54 C 326.686 54 324 56.686 324 60 L 324 102 C 324 105.314 326.686 108 330 108 L 372 108 C 375.314 108 378 105.314 378 102 L 378 60 C 378 56.686 375.314 54 372 54 Z" fill="#000000"/>
<path d="M 330 55 C 327.239 55 325 57.239 325 60 L 325 102 C 325 104.761 327.239 107 330 107 L 372 107 C 374.761 107 377 104.761 377 102 L 377 60 C 377 57.239 374.761 55 372 55 Z" fill="#002e5c"/>
<path d="M 330 56 C 327.791 56 326 57.791 326 60 L 326 102 C 326 104.209 327.791 106 330 106 L 372 106 C 374.209 106 376 104.209 376 102 L 376 60 C 376 57.791 374.209 56 372 56 Z" fill="#003366"/>
<path d="M 336 57 C 334.343 57 333 58.343 333 60 L 333 90 C 333 91.657 334.343 93 336 93 L 366 93 C 367.657 93 369 91.657 369 90 L 369 60 C 369 58.343 367.657 57 366 57 Z" fill="#002e5c"/>
<path d="M 336 58 C 334.895 58 334 58.895 334 60 L 334 90 C 334 91.105 334.895 92 336 92 L 366 92 C 367.105 92 368 91.105 368 90 L 368 60 C 368 58.895 367.105 58 366 58 Z" fill="#144b83"/>
</g>
<text x="328" y="104" font-family="monospace" font-size="12" fill="#ffffff">22</text>
<g>
<path d="M 384 54 C 380.686 54 378 56.686 378 60 L 378 102 C 378 105.314 380.686 108 384 108 L 426 108 C 429.314 108 432 105.314 432 102 L 432 60 C 432 56.686 429.314 54 426 54 Z" fill="#000000"/>
<path d="M 384 55 C 381.239 55 379 57.239 379 60 L 379 102 C 379 104.761 381.239 107 384 107 L 426 107 C 428.761 107 431 104.761 431 102 L 431 60 C 431 57.239 428.761 55 426 55 Z" fill="#002eb8"/>
<path d="M 384 56 C 381.791 56 380 57.791 380 60 L 380 102 C 380 104.209 381.791 106 384 106 L 426 106 C 428.209 106 430 104.209 430 102 L 430 60 C 430 57.791 428.209 56 426 56 Z" fill="#0033cc"/>
<path d="M 390 57 C 388.343 57 387 58.343 387 60 L 387 90 C 387 91.657 388.343 93 390 93 L 420 93 C 421.657 93 423 91.657 423 90 L 423 60 C 423 58.343 421.657 57 420 57 Z" fill="#002eb8"/>
<path d="M 390 58 C 388.895 58 388 58.895 388 60 L 388 90 C 388 91.105 388.895 92 390 92 L 420 92 C 421.105 92 422 91.105 422 90 L 422 60 C 422 58.895 421.105 58 420 58 Z" fill="#144bf2"/>
</g>
<text x="382" y="104" font-family="monospace" font-size="12" fill="#ffffff">23</text>
<g>
<path d="M 6 108 C 2.686 108 0 110.686 0 114 L 0 156 C 0 159.314 2.686 162 6 162 L 48 162 C 51.314 162 54 159.314 54 156 L 54 114 C 54 110.686 51.314 108 48 108 Z" fill="#000000"/>
<path d="M 6 109 C 3.239 109 1 111.239 1 114 L 1 156 C 1 158.761 3.239 161 6 161 L 48 161 C 50.761 161 53 158.761 53 156 L 53 114 C 53 111.239 50.761 109 48 109 Z" fill="#5ca8e6"/>
<path d="M 6 110 C 3.791 110 2 111.791 2 114 L 2 156 C 2 158.209 3.791 160 6 160 L 48 160 C 50.209 160 52 158.209 52 156 L 52 114 C 52 111.791 50.209 110 48 110 Z" fill="#66bbff"/>
<path d="M 12 111 C 10.343 111 9 112.343 9 114 L 9 144 C 9 145.657 10.343 147 12 147 L 42 147 C 43.657 147 45 145.657 45 144 L 45 114 C 45 112.343 43.657 111 42 111 Z" fill="#5ca8e6"/>
<path d="M 12 112 C 10.895 112 10 112.895 10 114 L 10 144 C 10 145.105 10.895 146 12 146 L 42 146 C 43.105 146 44 145.105 44 144 L 44 114 C 44 112.895 43.105 112 42 112 Z" fill="#83dfff"/>
</g>
<text x="4" y="158" font-family="monospace" font-size="12" fill="#000000">24</text>
<g>
<path d="M 60 108 C 56.686 108 54 110.686 54 114 L 54 156 C 54 159.314 56.686 162 60 162 L 102 162 C 105.314 162 108 159.314 108 156 L 108 114 C 108 110.686 105.314 108 102 108 Z" fill="#000000"/>
<path d="M 60 109 C 57.239 109 55 111.239 55 114 L 55 156 C 55 158.761 57.239 161 60 161 L 102 161 C 104.761 161 107 158.761 107 156 L 107 114 C 107 111.239 104.761 109 102 109 Z" fill="#2e005c"/>
<path d="M 60 110 C 57.791 110 56 111.791 56 114 L 56 156 C 56 158.209 57.791 160 60 160 L 102 160 C 104.209 160 106 158.209 106 156 L 106 114 C 106 111.791 104.209 110 102 110 Z" fill="#330066"/>
<path d="M 66 111 C 64.343 111 63 112.343 63 114 L 63 144 C 63 145.657 64.343 147 66 147 L 96 147 C 97.657 147 99 145.657 99 144 L 99 114 C 99 112.343 97.657 111 96 111 Z" fill="#2e005c"/>
<path d="M 66 112 C 64.895 112 64 112.895 64 114 L 64 144 C 64 145.105 64.895 146 66 146 L 96 146 C 97.105 146 98 145.105 98 144 L 98 114 C 98 112.895 97.105 112 96 112 Z" fill="#4b1483"/>
</g>
<text x="58" y="158" font-family="monospace" font-size="12" fill="#ffffff">25</text>
<g>
<path d="M 114 108 C 110.686 108 108 110.686 108 114 L 108 156 C 108 159.314 110.686 162 114 162 L 156 162 C 159.314 162 162 159.314 162 156 L 162 114 C 162 110.686 159.314 108 156 108 Z" fill="#000000"/>
<path d="M 114 109 C 111.239 109 109 111.239 109 114 L 109 156 C 109 158.761 111.239 161 114 161 L 156 161 C 158.761 161 161 158.761 161 156 L 161 114 C 161 111.239 158.761 109 156 109 Z" fill="#8a00e6"/>
<path d="M 114 110 C 111.791 110 110 111.791 110 114 L 110 156 C 110 158.209 111.791 160 114 160 L 156 160 C 158.209 160 160 158.209 160 156 L 160 114 C 160 111.791 158.209 110 156 110 Z" fill="#9900ff"/>
<path d="M 120 111 C 118.343 111 117 112.343 117 114 L 117 144 C 117 145.657 118.343 147 120 147 L 150 147 C 151.657 147 153 145.657 153 144 L 153 114 C 153 112.343 151.657 111 150 111 Z" fill="#8a00e6"/>
<path d="M 120 112 C 118.895 112 118 112.895 118 114 L 118 144 C 118 145.105 118.895 146 120 146 L 150 146 C 151.105 146 152 145.105 152 144 L 152 114 C 152 112.895 151.105 112 150 112 Z" fill="#ba14ff"/>
</g>
<text x="112" y="158" font-family="monospace" font-size="12" fill="#ffffff">26</text>
<g>
<path d="M 168 108 C 164.686 108 162 110.686 162 114 L 162 156 C 162 159.314 164.686 162 168 162 L 210 162 C 213.314 162 216 159.314 216 156 L 216 114 C 216 110.686 213.314 108 210 108 Z" fill="#000000"/>
<path d="M 168 109 C 165.239 109 163 111.239 163 114 L 163 156 C 163 158.761 165.239 161 168 161 L 210 161 C 212.761 161 215 158.761 215 156 L 215 114 C 215 111.239 212.761 109 210 109 Z" fill="#a88ae6"/>
<path d="M 168 110 C 165.791 110 164 111.791 164 114 L 164 156 C 164 158.209 165.791 160 168 160 L 210 160 C 212.209 160 214 158.209 214 156 L 214 114 C 214 111.791 212.209 110 210 110 Z" fill="#bb99ff"/>
<path d="M 174 111 C 172.343 111 171 112.343 171 114 L 171 144 C 171 145.657 172.343 147 174 147 L 204 147 C 205.657 147 207 145.657 207 144 L 207 114 C 207 112.343 205.657 111 204 111 Z" fill="#a88ae6"/>
<path d="M 174 112 C 172.895 112 172 112.895 172 114 L 172 144 C 172 145.105 172.895 146 174 146 L 204 146 C 205.105 146 206 145.105 206 144 L 206 114 C 206 112.895 205.105 112 204 112 Z" fill="#dfbaff"/>
</g>
<text x="166" y="158" font-family="monospace" font-size="12" fill="#000000">27</text>
<g>
<path d="M 222 108 C 218.686 108 216 110.686 216 114 L 216 156 C 216 159.314 218.686 162 222 162 L 264 162 C 267.314 162 270 159.314 270 156 L 270 114 C 270 110.686 267.314 108 264 108 Z" fill="#000000"/>
<path d="M 222 109 C 219.239 109 217 111.239 217 114 L 217 156 C 217 158.761 219.239 161 222 161 L 264 161 C 266.761 161 269 158.761 269 156 L 269 114 C 269 111.239 266.761 109 264 109 Z" fill="#5c002e"/>
<path d="M 222 110 C 219.791 110 218 111.791 218 114 L 218 156 C 218 158.209 219.791 160 222 160 L 264 160 C 266.209 160 268 158.209 268 156 L 268 114 C 268 111.791 266.209 110 264 110 Z" fill="#660033"/>
<path d="M 228 111 C 226.343 111 225 112.343 225 114 L 225 144 C 225 145.657 226.343 147 228 147 L 258 147 C 259.657 147 261 145.657 261 144 L 261 114 C 261 112.343 259.657 111 258 111 Z" fill="#5c002e"/>
<path d="M 228 112 C 226.895 112 226 112.895 226 114 L 226 144 C 226 145.105 226.895 146 228 146 L 258 146 C 259.105 146 260 145.105 260 144 L 260 114 C 260 112.895 259.105 112 258 112 Z" fill="#83144b"/>
</g>
<text x="220" y="158" font-family="monospace" font-size="12" fill="#ffffff">28</text>
<g>
<path d="M 276 108 C 272.686 108 270 110.686 270 114 L 270 156 C 270 159.314 272.686 162 276 162 L 318 162 C 321.314 162 324 159.314 324 156 L 324 114 C 324 110.686 321.314 108 318 108 Z" fill="#000000"/>
<path d="M 276 109 C 273.239 109 271 111.239 271 114 L 271 156 C 271 158.761 273.239 161 276 161 L 318 161 C 320.761 161 323 158.761 323 156 L 323 114 C 323 111.239 320.761 109 318 109 Z" fill="#d600b8"/>
<path d="M 276 110 C 273.791 110 272 111.791 272 114 L 272 156 C 272 158.209 273.791 160 276 160 L 318 160 C 320.209 160 322 158.209 322 156 L 322 114 C 322 111.791 320.209 110 318 110 Z" fill="#ee00cc"/>
<path d="M 282 111 C 280.343 111 279 112.343 279 114 L 279 144 C 279 145.657 280.343 147 282 147 L 312 147 C 313.657 147 315 145.657 315 144 L 315 114 C 315 112.343 313.657 111 312 111 Z" fill="#d600b8"/>
<path d="M 282 112 C 280.895 112 280 112.895 280 114 L 280 144 C 280 145.105 280.895 146 282 146 L 312 146 C 313.105 146 314 145.105 314 144 L 314 114 C 314 112.895 313.105 112 312 112 Z" fill="#ff14f2"/>
</g>
<text x="274" y="158" font-family="monospace" font-size="12" fill="#ffffff">29</text>
<g>
<path d="M 330 108 C 326.686 108 324 110.686 324 114 L 324 156 C 324 159.314 326.686 162 330 162 L 372 162 C 375.314 162 378 159.314 378 156 L 378 114 C 378 110.686 375.314 108 372 108 Z" fill="#000000"/>
<path d="M 330 109 C 327.239 109 325 111.239 325 114 L 325 156 C 325 158.761 327.239 161 330 161 L 372 161 C 374.761 161 377 158.761 377 156 L 377 114 C 377 111.239 374.761 109 372 109 Z" fill="#e68ae6"/>
<path d="M 330 110 C 327.791 110 326 111.791 326 114 L 326 156 C 326 158.209 327.791 160 330 160 L 372 160 C 374.209 160 376 158.209 376 156 L 376 114 C 376 111.791 374.209 110 372 110 Z" fill="#ff99ff"/>
<path d="M 336 111 C 334.343 111 333 112.343 333 114 L 333 144 C 333 145.657 334.343 147 336 147 L 366 147 C 367.657 147 369 145.657 369 144 L 369 114 C 369 112.343 367.657 111 366 111 Z" fill="#e68ae6"/>
<path d="M 336 112 C 334.895 112 334 112.895 334 114 L 334 144 C 334 145.105 334.895 146 336 146 L 366 146 C 367.105 146 368 145.105 368 144 L 368 114 C 368 112.895 367.105 112 366 112 Z" fill="#ffbaff"/>
</g>
<text x="328" y="158" font-family="monospace" font-size="12" fill="#000000">30</text>
<g>
<path d="M 384 108 C 380.686 108 378 110.686 378 114 L 378 156 C 378 159.314 380.686 162 384 162 L 426 162 C 429.314 162 432 159.314 432 156 L 432 114 C 432 110.686 429.314 108 426 108 Z" fill="#000000"/>
<path d="M 384 109 C 381.239 109 379 111.239 379 114 L 379 156 C 379 158.761 381.239 161 384 161 L 426 161 C 428.761 161 431 158.761 431 156 L 431 114 C 431 111.239 428.761 109 426 109 Z" fill="#dadada"/>
<path d="M 384 110 C 381.791 110 380 111.791 380 114 L 380 156 C 380 158.209 381.791 160 384 160 L 426 160 C 428.209 160 430 158.209 430 156 L 430 114 C 430 111.791 428.209 110 426 110 Z" fill="#f2f2f2"/>
<path d="M 390 111 C 388.343 111 387 112.343 387 114 L 387 144 C 387 145.657 388.343 147 390 147 L 420 147 C 421.657 147 423 145.657 423 144 L 423 114 C 423 112.343 421.657 111 420 111 Z" fill="#dadada"/>
<path d="M 390 112 C 388.895 112 388 112.895 388 114 L 388 144 C 388 145.105 388.895 146 390 146 L 420 146 C 421.105 146 422 145.105 422 144 L 422 114 C 422 112.895 421.105 112 420 112 Z" fill="#ffffff"/>
</g>
<text x="382" y="158" font-family="monospace" font-size="12" fill="#000000">31</text>
<g>
<path d="M 48 163 C 50.761 163 53 165.239 53 168 L 53 210 C 53 212.761 50.761 215 48 215 L 6 215 C 3.239 215 1 212.761 1 210 L 1 168 C 1 165.239 3.239 163 6 163 Z M 6 162 C 2.686 162 0 164.686 0 168 L 0 210 C 0 213.314 2.686 216 6 216 L 48 216 C 51.314 216 54 213.314 54 210 L 54 168 C 54 164.686 51.314 162 48 162 Z" fill="#000000"/>
<path d="M 48 164 C 50.209 164 52 165.791 52 168 L 52 210 C 52 212.209 50.209 214 48 214 L 6 214 C 3.791 214 2 212.209 2 210 L 2 168 C 2 165.791 3.791 164 6 164 Z M 6 163 C 3.239 163 1 165.239 1 168 L 1 210 C 1 212.761 3.239 215 6 215 L 48 215 C 50.761 215 53 212.761 53 210 L 53 168 C 53 165.239 50.761 163 48 163 Z" fill="#ffffff"/>
<path d="M 42 166 C 43.105 166 44 166.895 44 168 L 44 198 C 44 199.105 43.105 200 42 200 L 12 200 C 10.895 200 10 199.105 10 198 L 10 168 C 10 166.895 10.895 166 12 166 Z M 12 165 C 10.343 165 9 166.343 9 168 L 9 198 C 9 199.657 10.343 201 12 201 L 42 201 C 43.657 201 45 199.657 45 198 L 45 168 C 45 166.343 43.657 165 42 165 Z" fill="#000000"/>
<path d="M 42 167 C 42.552 167 43 167.448 43 168 L 43 198 C 43 198.552 42.552 199 42 199 L 12 199 C 11.448 199 11 198.552 11 198 L 11 168 C 11 167.448 11.448 167 12 167 Z M 12 166 C 10.895 166 10 166.895 10 168 L 10 198 C 10 199.105 10.895 200 12 200 L 42 200 C 43.105 200 44 199.105 44 198 L 44 168 C 44 166.895 43.105 166 42 166 Z" fill="#ffffff"/>
</g>
<text x="4" y="212" font-family="monospace" font-size="12" fill="#000000">32</text>
<g>
<g opacity="0.5">
<path d="M 60 163 C 57.239 163 55 165.239 55 168 L 55 210 C 55 212.761 57.239 215 60 215 L 102 215 C 104.761 215 107 212.761 107 210 L 107 168 C 107 165.239 104.761 163 102 163 Z" fill="#1a1a1a"/>
<path d="M 66 166 C 64.895 166 64 166.895 64 168 L 64 198 C 64 199.105 64.895 200 66 200 L 96 200 C 97.105 200 98 199.105 98 198 L 98 168 C 98 166.895 97.105 166 96 166 Z" fill="#303030"/>
</g>
<path d="M 102 163 C 104.761 163 107 165.239 107 168 L 107 210 C 107 212.761 104.761 215 102 215 L 60 215 C 57.239 215 55 212.761 55 210 L 55 168 C 55 165.239 57.239 163 60 163 Z M 60 162 C 56.686 162 54 164.686 54 168 L 54 210 C 54 213.314 56.686 216 60 216 L 102 216 C 105.314 216 108 213.314 108 210 L 108 168 C 108 164.686 105.314 162 102 162 Z" fill="#000000"/>
<path d="M 102 164 C 104.209 164 106 165.791 106 168 L 106 210 C 106 212.209 104.209 214 102 214 L 60 214 C 57.791 214 56 212.209 56 210 L 56 168 C 56 165.791 57.791 164 60 164 Z M 60 163 C 57.239 163 55 165.239 55 168 L 55 210 C 55 212.761 57.239 215 60 215 L 102 215 C 104.761 215 107 212.761 107 210 L 107 168 C 107 165.239 104.761 163 102 163 Z" fill="#171717"/>
<path d="M 96 166 C 97.105 166 98 166.895 98 168 L 98 198 C 98 199.105 97.105 200 96 200 L 66 200 C 64.895 200 64 199.105 64 198 L 64 168 C 64 166.895 64.895 166 66 166 Z M 66 165 C 64.343 165 63 166.343 63 168 L 63 198 C 63 199.657 64.343 201 66 201 L 96 201 C 97.657 201 99 199.657 99 198 L 99 168 C 99 166.343 97.657 165 96 165 Z" fill="#171717"/>
<path d="M 96 167 C 96.552 167 97 167.448 97 168 L 97 198 C 97 198.552 96.552 199 96 199 L 66 199 C 65.448 199 65 198.552 65 198 L 65 168 C 65 167.448 65.448 167 66 167 Z M 66 166 C 64.895 166 64 166.895 64 168 L 64 198 C 64 199.105 64.895 200 66 200 L 96 200 C 97.105 200 98 199.105 98 198 L 98 168 C 98 166.895 97.105 166 96 166 Z" fill="#303030" opacity="0.5"/>
</g>
<text x="58" y="212" font-family="monospace" font-size="12" fill="#ffffff">33</text>
<g>
<g opacity="0.5">
<path d="M 114 163 C 111.239 163 109 165.239 109 168 L 109 210 C 109 212.761 111.239 215 114 215 L 156 215 C 158.761 215 161 212.761 161 210 L 161 168 C 161 165.239 158.761 163 156 163 Z" fill="#333333"/>
<path d="M 120 166 C 118.895 166 118 166.895 118 168 L 118 198 C 118 199.105 118.895 200 120 200 L 150 200 C 151.105 200 152 199.105 152 198 L 152 168 C 152 166.895 151.105 166 150 166 Z" fill="#4b4b4b"/>
</g>
<path d="M 156 163 C 158.761 163 161 165.239 161 168 L 161 210 C 161 212.761 158.761 215 156 215 L 114 215 C 111.239 215 109 212.761 109 210 L 109 168 C 109 165.239 111.239 163 114 163 Z M 114 162 C 110.686 162 108 164.686 108 168 L 108 210 C 108 213.314 110.686 216 114 216 L 156 216 C 159.314 216 162 213.314 162 210 L 162 168 C 162 164.686 159.314 162 156 162 Z" fill="#000000"/>
<path d="M 156 164 C 158.209 164 160 165.791 160 168 L 160 210 C 160 212.209 158.209 214 156 214 L 114 214 C 111.791 214 110 212.209 110 210 L 110 168 C 110 165.791 111.791 164 114 164 Z M 114 163 C 111.239 163 109 165.239 109 168 L 109 210 C 109 212.761 111.239 215 114 215 L 156 215 C 158.761 215 161 212.761 161 210 L 161 168 C 161 165.239 158.761 163 156 163 Z" fill="#2e2e2e"/>
<path d="M 150 166 C 151.105 166 152 166.895 152 168 L 152 198 C 152 199.105 151.105 200 150 200 L 120 200 C 118.895 200 118 199.105 118 198 L 118 168 C 118 166.895 118.895 166 120 166 Z M 120 165 C 118.343 165 117 166.343 117 168 L 117 198 C 117 199.657 118.343 201 120 201 L 150 201 C 151.657 201 153 199.657 153 198 L 153 168 C 153 166.343 151.657 165 150 165 Z" fill="#2e2e2e"/>
<path d="M 150 167 C 150.552 167 151 167.448 151 168 L 151 198 C 151 198.552 150.552 199 150 199 L 120 199 C 119.448 199 119 198.552 119 198 L 119 168 C 119 167.448 119.448 167 120 167 Z M 120 166 C 118.895 166 118 166.895 118 168 L 118 198 C 118 199.105 118.895 200 120 200 L 150 200 C 151.105 200 152 199.105 152 198 L 152 168 C 152 166.895 151.105 166 150 166 Z" fill="#4b4b4b" opacity="0.5"/>
</g>
<text x="112" y="212" font-family="monospace" font-size="12" fill="#ffffff">34</text>
<g>
<g opacity="0.5">
<path d="M 168 163 C 165.239 163 163 165.239 163 168 L 163 210 C 163 212.761 165.239 215 168 215 L 210 215 C 212.761 215 215 212.761 215 210 L 215 168 C 215 165.239 212.761 163 210 163 Z" fill="#666666"/>
<path d="M 174 166 C 172.895 166 172 166.895 172 168 L 172 198 C 172 199.105 172.895 200 174 200 L 204 200 C 205.105 200 206 199.105 206 198 L 206 168 C 206 166.895 205.105 166 204 166 Z" fill="#838383"/>
</g>
<path d="M 210 163 C 212.761 163 215 165.239 215 168 L 215 210 C 215 212.761 212.761 215 210 215 L 168 215 C 165.239 215 163 212.761 163 210 L 163 168 C 163 165.239 165.239 163 168 163 Z M 168 162 C 164.686 162 162 164.686 162 168 L 162 210 C 162 213.314 164.686 216 168 216 L 210 216 C 213.314 216 216 213.314 216 210 L 216 168 C 216 164.686 213.314 162 210 162 Z" fill="#000000"/>
<path d="M 210 164 C 212.209 164 214 165.791 214 168 L 214 210 C 214 212.209 212.209 214 210 214 L 168 214 C 165.791 214 164 212.209 164 210 L 164 168 C 164 165.791 165.791 164 168 164 Z M 168 163 C 165.239 163 163 165.239 163 168 L 163 210 C 163 212.761 165.239 215 168 215 L 210 215 C 212.761 215 215 212.761 215 210 L 215 168 C 215 165.239 212.761 163 210 163 Z" fill="#5c5c5c"/>
<path d="M 204 166 C 205.105 166 206 166.895 206 168 L 206 198 C 206 199.105 205.105 200 204 200 L 174 200 C 172.895 200 172 199.105 172 198 L 172 168 C 172 166.895 172.895 166 174 166 Z M 174 165 C 172.343 165 171 166.343 171 168 L 171 198 C 171 199.657 172.343 201 174 201 L 204 201 C 205.657 201 207 199.657 207 198 L 207 168 C 207 166.343 205.657 165 204 165 Z" fill="#5c5c5c"/>
<path d="M 204 167 C 204.552 167 205 167.448 205 168 L 205 198 C 205 198.552 204.552 199 204 199 L 174 199 C 173.448 199 173 198.552 173 198 L 173 168 C 173 167.448 173.448 167 174 167 Z M 174 166 C 172.895 166 172 166.895 172 168 L 172 198 C 172 199.105 172.895 200 174 200 L 204 200 C 205.105 200 206 199.105 206 198 L 206 168 C 206 166.895 205.105 166 204 166 Z" fill="#838383" opacity="0.5"/>
</g>
<text x="166" y="212" font-family="monospace" font-size="12" fill="#ffffff">35</text>
<g>
<g opacity="0.5">
<path d="M 222 163 C 219.239 163 217 165.239 217 168 L 217 210 C 217 212.761 219.239 215 222 215 L 264 215 C 266.761 215 269 212.761 269 210 L 269 168 C 269 165.239 266.761 163 264 163 Z" fill="#999999"/>
<path d="M 228 166 C 226.895 166 226 166.895 226 168 L 226 198 C 226 199.105 226.895 200 228 200 L 258 200 C 259.105 200 260 199.105 260 198 L 260 168 C 260 166.895 259.105 166 258 166 Z" fill="#bababa"/>
</g>
<path d="M 264 163 C 266.761 163 269 165.239 269 168 L 269 210 C 269 212.761 266.761 215 264 215 L 222 215 C 219.239 215 217 212.761 217 210 L 217 168 C 217 165.239 219.239 163 222 163 Z M 222 162 C 218.686 162 216 164.686 216 168 L 216 210 C 216 213.314 218.686 216 222 216 L 264 216 C 267.314 216 270 213.314 270 210 L 270 168 C 270 164.686 267.314 162 264 162 Z" fill="#000000"/>
<path d="M 264 164 C 266.209 164 268 165.791 268 168 L 268 210 C 268 212.209 266.209 214 264 214 L 222 214 C 219.791 214 218 212.209 218 210 L 218 168 C 218 165.791 219.791 164 222 164 Z M 222 163 C 219.239 163 217 165.239 217 168 L 217 210 C 217 212.761 219.239 215 222 215 L 264 215 C 266.761 215 269 212.761 269 210 L 269 168 C 269 165.239 266.761 163 264 163 Z" fill="#8a8a8a"/>
<path d="M 258 166 C 259.105 166 260 166.895 260 168 L 260 198 C 260 199.105 259.105 200 258 200 L 228 200 C 226.895 200 226 199.105 226 198 L 226 168 C 226 166.895 226.895 166 228 166 Z M 228 165 C 226.343 165 225 166.343 225 168 L 225 198 C 225 199.657 226.343 201 228 201 L 258 201 C 259.657 201 261 199.657 261 198 L 261 168 C 261 166.343 259.657 165 258 165 Z" fill="#8a8a8a"/>
<path d="M 258 167 C 258.552 167 259 167.448 259 168 L 259 198 C 259 198.552 258.552 199 258 199 L 228 199 C 227.448 199 227 198.552 227 198 L 227 168 C 227 167.448 227.448 167 228 167 Z M 228 166 C 226.895 166 226 166.895 226 168 L 226 198 C 226 199.105 226.895 200 228 200 L 258 200 C 259.105 200 260 199.105 260 198 L 260 168 C 260 166.895 259.105 166 258 166 Z" fill="#bababa" opacity="0.5"/>
</g>
<text x="220" y="212" font-family="monospace" font-size="12" fill="#000000">36</text>
<g>
<g opacity="0.5">
<path d="M 276 163 C 273.239 163 271 165.239 271 168 L 271 210 C 271 212.761 273.239 215 276 215 L 318 215 C 320.761 215 323 212.761 323 210 L 323 168 C 323 165.239 320.761 163 318 163 Z" fill="#cccccc"/>
<path d="M 282 166 C 280.895 166 280 166.895 280 168 L 280 198 C 280 199.105 280.895 200 282 200 L 312 200 C 313.105 200 314 199.105 314 198 L 314 168 C 314 166.895 313.105 166 312 166 Z" fill="#f2f2f2"/>
</g>
<path d="M 318 163 C 320.761 163 323 165.239 323 168 L 323 210 C 323 212.761 320.761 215 318 215 L 276 215 C 273.239 215 271 212.761 271 210 L 271 168 C 271 165.239 273.239 163 276 163 Z M 276 162 C 272.686 162 270 164.686 270 168 L 270 210 C 270 213.314 272.686 216 276 216 L 318 216 C 321.314 216 324 213.314 324 210 L 324 168 C 324 164.686 321.314 162 318 162 Z" fill="#000000"/>
<path d="M 318 164 C 320.209 164 322 165.791 322 168 L 322 210 C 322 212.209 320.209 214 318 214 L 276 214 C 273.791 214 272 212.209 272 210 L 272 168 C 272 165.791 273.791 164 276 164 Z M 276 163 C 273.239 163 271 165.239 271 168 L 271 210 C 271 212.761 273.239 215 276 215 L 318 215 C 320.761 215 323 212.761 323 210 L 323 168 C 323 165.239 320.761 163 318 163 Z" fill="#b8b8b8"/>
<path d="M 312 166 C 313.105 166 314 166.895 314 168 L 314 198 C 314 199.105 313.105 200 312 200 L 282 200 C 280.895 200 280 199.105 280 198 L 280 168 C 280 166.895 280.895 166 282 166 Z M 282 165 C 280.343 165 279 166.343 279 168 L 279 198 C 279 199.657 280.343 201 282 201 L 312 201 C 313.657 201 315 199.657 315 198 L 315 168 C 315 166.343 313.657 165 312 165 Z" fill="#b8b8b8"/>
<path d="M 312 167 C 312.552 167 313 167.448 313 168 L 313 198 C 313 198.552 312.552 199 312 199 L 282 199 C 281.448 199 281 198.552 281 198 L 281 168 C 281 167.448 281.448 167 282 167 Z M 282 166 C 280.895 166 280 166.895 280 168 L 280 198 C 280 199.105 280.895 200 282 200 L 312 200 C 313.105 200 314 199.105 314 198 L 314 168 C 314 166.895 313.105 166 312 166 Z" fill="#f2f2f2" opacity="0.5"/>
</g>
<text x="274" y="212" font-family="monospace" font-size="12" fill="#000000">37</text>
<g>
<g opacity="0.5">
<path d="M 330 163 C 327.239 163 325 165.239 325 168 L 325 210 C 325 212.761 327.239 215 330 215 L 372 215 C 374.761 215 377 212.761 377 210 L 377 168 C 377 165.239 374.761 163 372 163 Z" fill="#444433"/>
<path d="M 336 166 C 334.895 166 334 166.895 334 168 L 334 198 C 334 199.105 334.895 200 336 200 L 366 200 C 367.105 200 368 199.105 368 198 L 368 168 C 368 166.895 367.105 166 366 166 Z" fill="#5e5e4b"/>
</g>
<path d="M 372 163 C 374.761 163 377 165.239 377 168 L 377 210 C 377 212.761 374.761 215 372 215 L 330 215 C 327.239 215 325 212.761 325 210 L 325 168 C 325 165.239 327.239 163 330 163 Z M 330 162 C 326.686 162 324 164.686 324 168 L 324 210 C 324 213.314 326.686 216 330 216 L 372 216 C 375.314 216 378 213.314 378 210 L 378 168 C 378 164.686 375.314 162 372 162 Z" fill="#000000"/>
<path d="M 372 164 C 374.209 164 376 165.791 376 168 L 376 210 C 376 212.209 374.209 214 372 214 L 330 214 C 327.791 214 326 212.209 326 210 L 326 168 C 326 165.791 327.791 164 330 164 Z M 330 163 C 327.239 163 325 165.239 325 168 L 325 210 C 325 212.761 327.239 215 330 215 L 372 215 C 374.761 215 377 212.761 377 210 L 377 168 C 377 165.239 374.761 163 372 163 Z" fill="#3d3d2e"/>
<path d="M 366 166 C 367.105 166 368 166.895 368 168 L 368 198 C 368 199.105 367.105 200 366 200 L 336 200 C 334.895 200 334 199.105 334 198 L 334 168 C 334 166.895 334.895 166 336 166 Z M 336 165 C 334.343 165 333 166.343 333 168 L 333 198 C 333 199.657 334.343 201 336 201 L 366 201 C 367.657 201 369 199.657 369 198 L 369 168 C 369 166.343 367.657 165 366 165 Z" fill="#3d3d2e"/>
<path d="M 366 167 C 366.552 167 367 167.448 367 168 L 367 198 C 367 198.552 366.552 199 366 199 L 336 199 C 335.448 199 335 198.552 335 198 L 335 168 C 335 167.448 335.448 167 336 167 Z M 336 166 C 334.895 166 334 166.895 334 168 L 334 198 C 334 199.105 334.895 200 336 200 L 366 200 C 367.105 200 368 199.105 368 198 L 368 168 C 368 166.895 367.105 166 366 166 Z" fill="#5e5e4b" opacity="0.5"/>
</g>
<text x="328" y="212" font-family="monospace" font-size="12" fill="#ffffff">38</text>
<g>
<g opacity="0.5">
<path d="M 384 163 C 381.239 163 379 165.239 379 168 L 379 210 C 379 212.761 381.239 215 384 215 L 426 215 C 428.761 215 431 212.761 431 210 L 431 168 C 431 165.239 428.761 163 426 163 Z" fill="#777766"/>
<path d="M 390 166 C 388.895 166 388 166.895 388 168 L 388 198 C 388 199.105 388.895 200 390 200 L 420 200 C 421.105 200 422 199.105 422 198 L 422 168 C 422 166.895 421.105 166 420 166 Z" fill="#959583"/>
</g>
<path d="M 426 163 C 428.761 163 431 165.239 431 168 L 431 210 C 431 212.761 428.761 215 426 215 L 384 215 C 381.239 215 379 212.761 379 210 L 379 168 C 379 165.239 381.239 163 384 163 Z M 384 162 C 380.686 162 378 164.686 378 168 L 378 210 C 378 213.314 380.686 216 384 216 L 426 216 C 429.314 216 432 213.314 432 210 L 432 168 C 432 164.686 429.314 162 426 162 Z" fill="#000000"/>
<path d="M 426 164 C 428.209 164 430 165.791 430 168 L 430 210 C 430 212.209 428.209 214 426 214 L 384 214 C 381.791 214 380 212.209 380 210 L 380 168 C 380 165.791 381.791 164 384 164 Z M 384 163 C 381.239 163 379 165.239 379 168 L 379 210 C 379 212.761 381.239 215 384 215 L 426 215 C 428.761 215 431 212.761 431 210 L 431 168 C 431 165.239 428.761 163 426 163 Z" fill="#6b6b5c"/>
<path d="M 420 166 C 421.105 166 422 166.895 422 168 L 422 198 C 422 199.105 421.105 200 420 200 L 390 200 C 388.895 200 388 199.105 388 198 L 388 168 C 388 166.895 388.895 166 390 166 Z M 390 165 C 388.343 165 387 166.343 387 168 L 387 198 C 387 199.657 388.343 201 390 201 L 420 201 C 421.657 201 423 199.657 423 198 L 423 168 C 423 166.343 421.657 165 420 165 Z" fill="#6b6b5c"/>
<path d="M 420 167 C 420.552 167 421 167.448 421 168 L 421 198 C 421 198.552 420.552 199 420 199 L 390 199 C 389.448 199 389 198.552 389 198 L 389 168 C 389 167.448 389.448 167 390 167 Z M 390 166 C 388.895 166 388 166.895 388 168 L 388 198 C 388 199.105 388.895 200 390 200 L 420 200 C 421.105 200 422 199.105 422 198 L 422 168 C 422 166.895 421.105 166 420 166 Z" fill="#959583" opacity="0.5"/>
</g>
<text x="382" y="212" font-family="monospace" font-size="12" fill="#ffffff">39</text>
<g>
<g opacity="0.5">
<path d="M 6 217 C 3.239 217 1 219.239 1 222 L 1 264 C 1 266.761 3.239 269 6 269 L 48 269 C 50.761 269 53 266.761 53 264 L 53 222 C 53 219.239 50.761 217 48 217 Z" fill="#aaaa99"/>
<path d="M 12 220 C 10.895 220 10 220.895 10 222 L 10 252 C 10 253.105 10.895 254 12 254 L 42 254 C 43.105 254 44 253.105 44 252 L 44 222 C 44 220.895 43.105 220 42 220 Z" fill="#cdcdba"/>
</g>
<path d="M 48 217 C 50.761 217 53 219.239 53 222 L 53 264 C 53 266.761 50.761 269 48 269 L 6 269 C 3.239 269 1 266.761 1 264 L 1 222 C 1 219.239 3.239 217 6 217 Z M 6 216 C 2.686 216 0 218.686 0 222 L 0 264 C 0 267.314 2.686 270 6 270 L 48 270 C 51.314 270 54 267.314 54 264 L 54 222 C 54 218.686 51.314 216 48 216 Z" fill="#000000"/>
<path d="M 48 218 C 50.209 218 52 219.791 52 222 L 52 264 C 52 266.209 50.209 268 48 268 L 6 268 C 3.791 268 2 266.209 2 264 L 2 222 C 2 219.791 3.791 218 6 218 Z M 6 217 C 3.239 217 1 219.239 1 222 L 1 264 C 1 266.761 3.239 269 6 269 L 48 269 C 50.761 269 53 266.761 53 264 L 53 222 C 53 219.239 50.761 217 48 217 Z" fill="#99998a"/>
<path d="M 42 220 C 43.105 220 44 220.895 44 222 L 44 252 C 44 253.105 43.105 254 42 254 L 12 254 C 10.895 254 10 253.105 10 252 L 10 222 C 10 220.895 10.895 220 12 220 Z M 12 219 C 10.343 219 9 220.343 9 222 L 9 252 C 9 253.657 10.343 255 12 255 L 42 255 C 43.657 255 45 253.657 45 252 L 45 222 C 45 220.343 43.657 219 42 219 Z" fill="#99998a"/>
<path d="M 42 221 C 42.552 221 43 221.448 43 222 L 43 252 C 43 252.552 42.552 253 42 253 L 12 253 C 11.448 253 11 252.552 11 252 L 11 222 C 11 221.448 11.448 221 12 221 Z M 12 220 C 10.895 220 10 220.895 10 222 L 10 252 C 10 253.105 10.895 254 12 254 L 42 254 C 43.105 254 44 253.105 44 252 L 44 222 C 44 220.895 43.105 220 42 220 Z" fill="#cdcdba" opacity="0.5"/>
</g>
<text x="4" y="266" font-family="monospace" font-size="12" fill="#000000">40</text>
<g>
<g opacity="0.5">
<path d="M 60 217 C 57.239 217 55 219.239 55 222 L 55 264 C 55 266.761 57.239 269 60 269 L 102 269 C 104.761 269 107 266.761 107 264 L 107 222 C 107 219.239 104.761 217 102 217 Z" fill="#ddddcc"/>
<path d="M 66 220 C 64.895 220 64 220.895 64 222 L 64 252 C 64 253.105 64.895 254 66 254 L 96 254 C 97.105 254 98 253.105 98 252 L 98 222 C 98 220.895 97.105 220 96 220 Z" fill="#fffff2"/>
</g>
<path d="M 102 217 C 104.761 217 107 219.239 107 222 L 107 264 C 107 266.761 104.761 269 102 269 L 60 269 C 57.239 269 55 266.761 55 264 L 55 222 C 55 219.239 57.239 217 60 217 Z M 60 216 C 56.686 216 54 218.686 54 222 L 54 264 C 54 267.314 56.686 270 60 270 L 102 270 C 105.314 270 108 267.314 108 264 L 108 222 C 108 218.686 105.314 216 102 216 Z" fill="#000000"/>
<path d="M 102 218 C 104.209 218 106 219.791 106 222 L 106 264 C 106 266.209 104.209 268 102 268 L 60 268 C 57.791 268 56 266.209 56 264 L 56 222 C 56 219.791 57.791 218 60 218 Z M 60 217 C 57.239 217 55 219.239 55 222 L 55 264 C 55 266.761 57.239 269 60 269 L 102 269 C 104.761 269 107 266.761 107 264 L 107 222 C 107 219.239 104.761 217 102 217 Z" fill="#c7c7b8"/>
<path d="M 96 220 C 97.105 220 98 220.895 98 222 L 98 252 C 98 253.105 97.105 254 96 254 L 66 254 C 64.895 254 64 253.105 64 252 L 64 222 C 64 220.895 64.895 220 66 220 Z M 66 219 C 64.343 219 63 220.343 63 222 L 63 252 C 63 253.657 64.343 255 66 255 L 96 255 C 97.657 255 99 253.657 99 252 L 99 222 C 99 220.343 97.657 219 96 219 Z" fill="#c7c7b8"/>
<path d="M 96 221 C 96.552 221 97 221.448 97 222 L 97 252 C 97 252.552 96.552 253 96 253 L 66 253 C 65.448 253 65 252.552 65 252 L 65 222 C 65 221.448 65.448 221 66 221 Z M 66 220 C 64.895 220 64 220.895 64 222 L 64 252 C 64 253.105 64.895 254 66 254 L 96 254 C 97.105 254 98 253.105 98 252 L 98 222 C 98 220.895 97.105 220 96 220 Z" fill="#fffff2" opacity="0.5"/>
</g>
<text x="58" y="266" font-family="monospace" font-size="12" fill="#000000">41</text>
<g>
<g opacity="0.5">
<path d="M 114 217 C 111.239 217 109 219.239 109 222 L 109 264 C 109 266.761 111.239 269 114 269 L 156 269 C 158.761 269 161 266.761 161 264 L 161 222 C 161 219.239 158.761 217 156 217 Z" fill="#663333"/>
<path d="M 120 220 C 118.895 220 118 220.895 118 222 L 118 252 C 118 253.105 118.895 254 120 254 L 150 254 C 151.105 254 152 253.105 152 252 L 152 222 C 152 220.895 151.105 220 150 220 Z" fill="#834b4b"/>
</g>
<path d="M 156 217 C 158.761 217 161 219.239 161 222 L 161 264 C 161 266.761 158.761 269 156 269 L 114 269 C 111.239 269 109 266.761 109 264 L 109 222 C 109 219.239 111.239 217 114 217 Z M 114 216 C 110.686 216 108 218.686 108 222 L 108 264 C 108 267.314 110.686 270 114 270 L 156 270 C 159.314 270 162 267.314 162 264 L 162 222 C 162 218.686 159.314 216 156 216 Z" fill="#000000"/>
<path d="M 156 218 C 158.209 218 160 219.791 160 222 L 160 264 C 160 266.209 158.209 268 156 268 L 114 268 C 111.791 268 110 266.209 110 264 L 110 222 C 110 219.791 111.791 218 114 218 Z M 114 217 C 111.239 217 109 219.239 109 222 L 109 264 C 109 266.761 111.239 269 114 269 L 156 269 C 158.761 269 161 266.761 161 264 L 161 222 C 161 219.239 158.761 217 156 217 Z" fill="#5c2e2e"/>
<path d="M 150 220 C 151.105 220 152 220.895 152 222 L 152 252 C 152 253.105 151.105 254 150 254 L 120 254 C 118.895 254 118 253.105 118 252 L 118 222 C 118 220.895 118.895 220 120 220 Z M 120 219 C 118.343 219 117 220.343 117 222 L 117 252 C 117 253.657 118.343 255 120 255 L 150 255 C 151.657 255 153 253.657 153 252 L 153 222 C 153 220.343 151.657 219 150 219 Z" fill="#5c2e2e"/>
<path d="M 150 221 C 150.552 221 151 221.448 151 222 L 151 252 C 151 252.552 150.552 253 150 253 L 120 253 C 119.448 253 119 252.552 119 252 L 119 222 C 119 221.448 119.448 221 120 221 Z M 120 220 C 118.895 220 118 220.895 118 222 L 118 252 C 118 253.105 118.895 254 120 254 L 150 254 C 151.105 254 152 253.105 152 252 L 152 222 C 152 220.895 151.105 220 150 220 Z" fill="#834b4b" opacity="0.5"/>
</g>
<text x="112" y="266" font-family="monospace" font-size="12" fill="#ffffff">42</text>
<g>
<g opacity="0.5">
<path d="M 168 217 C 165.239 217 163 219.239 163 222 L 163 264 C 163 266.761 165.239 269 168 269 L 210 269 C 212.761 269 215 266.761 215 264 L 215 222 C 215 219.239 212.761 217 210 217 Z" fill="#cc0000"/>
<path d="M 174 220 C 172.895 220 172 220.895 172 222 L 172 252 C 172 253.105 172.895 254 174 254 L 204 254 C 205.105 254 206 253.105 206 252 L 206 222 C 206 220.895 205.105 220 204 220 Z" fill="#f21414"/>
</g>
<path d="M 210 217 C 212.761 217 215 219.239 215 222 L 215 264 C 215 266.761 212.761 269 210 269 L 168 269 C 165.239 269 163 266.761 163 264 L 163 222 C 163 219.239 165.239 217 168 217 Z M 168 216 C 164.686 216 162 218.686 162 222 L 162 264 C 162 267.314 164.686 270 168 270 L 210 270 C 213.314 270 216 267.314 216 264 L 216 222 C 216 218.686 213.314 216 210 216 Z" fill="#000000"/>
<path d="M 210 218 C 212.209 218 214 219.791 214 222 L 214 264 C 214 266.209 212.209 268 210 268 L 168 268 C 165.791 268 164 266.209 164 264 L 164 222 C 164 219.791 165.791 218 168 218 Z M 168 217 C 165.239 217 163 219.239 163 222 L 163 264 C 163 266.761 165.239 269 168 269 L 210 269 C 212.761 269 215 266.761 215 264 L 215 222 C 215 219.239 212.761 217 210 217 Z" fill="#b80000"/>
<path d="M 204 220 C 205.105 220 206 220.895 206 222 L 206 252 C 206 253.105 205.105 254 204 254 L 174 254 C 172.895 254 172 253.105 172 252 L 172 222 C 172 220.895 172.895 220 174 220 Z M 174 219 C 172.343 219 171 220.343 171 222 L 171 252 C 171 253.657 172.343 255 174 255 L 204 255 C 205.657 255 207 253.657 207 252 L 207 222 C 207 220.343 205.657 219 204 219 Z" fill="#b80000"/>
<path d="M 204 221 C 204.552 221 205 221.448 205 222 L 205 252 C 205 252.552 204.552 253 204 253 L 174 253 C 173.448 253 173 252.552 173 252 L 173 222 C 173 221.448 173.448 221 174 221 Z M 174 220 C 172.895 220 172 220.895 172 222 L 172 252 C 172 253.105 172.895 254 174 254 L 204 254 C 205.105 254 206 253.105 206 252 L 206 222 C 206 220.895 205.105 220 204 220 Z" fill="#f21414" opacity="0.5"/>
</g>
<text x="166" y="266" font-family="monospace" font-size="12" fill="#ffffff">43</text>
<g>
<g opacity="0.5">
<path d="M 222 217 C 219.239 217 217 219.239 217 222 L 217 264 C 217 266.761 219.239 269 222 269 L 264 269 C 266.761 269 269 266.761 269 264 L 269 222 C 269 219.239 266.761 217 264 217 Z" fill="#ffbbcc"/>
<path d="M 228 220 C 226.895 220 226 220.895 226 222 L 226 252 C 226 253.105 226.895 254 228 254 L 258 254 C 259.105 254 260 253.105 260 252 L 260 222 C 260 220.895 259.105 220 258 220 Z" fill="#ffdff2"/>
</g>
<path d="M 264 217 C 266.761 217 269 219.239 269 222 L 269 264 C 269 266.761 266.761 269 264 269 L 222 269 C 219.239 269 217 266.761 217 264 L 217 222 C 217 219.239 219.239 217 222 217 Z M 222 216 C 218.686 216 216 218.686 216 222 L 216 264 C 216 267.314 218.686 270 222 270 L 264 270 C 267.314 270 270 267.314 270 264 L 270 222 C 270 218.686 267.314 216 264 216 Z" fill="#000000"/>
<path d="M 264 218 C 266.209 218 268 219.791 268 222 L 268 264 C 268 266.209 266.209 268 264 268 L 222 268 C 219.791 268 218 266.209 218 264 L 218 222 C 218 219.791 219.791 218 222 218 Z M 222 217 C 219.239 217 217 219.239 217 222 L 217 264 C 217 266.761 219.239 269 222 269 L 264 269 C 266.761 269 269 266.761 269 264 L 269 222 C 269 219.239 266.761 217 264 217 Z" fill="#e6a8b8"/>
<path d="M 258 220 C 259.105 220 260 220.895 260 222 L 260 252 C 260 253.105 259.105 254 258 254 L 228 254 C 226.895 254 226 253.105 226 252 L 226 222 C 226 220.895 226.895 220 228 220 Z M 228 219 C 226.343 219 225 220.343 225 222 L 225 252 C 225 253.657 226.343 255 228 255 L 258 255 C 259.657 255 261 253.657 261 252 L 261 222 C 261 220.343 259.657 219 258 219 Z" fill="#e6a8b8"/>
<path d="M 258 221 C 258.552 221 259 221.448 259 222 L 259 252 C 259 252.552 258.552 253 258 253 L 228 253 C 227.448 253 227 252.552 227 252 L 227 222 C 227 221.448 227.448 221 228 221 Z M 228 220 C 226.895 220 226 220.895 226 222 L 226 252 C 226 253.105 226.895 254 228 254 L 258 254 C 259.105 254 260 253.105 260 252 L 260 222 C 260 220.895 259.105 220 258 220 Z" fill="#ffdff2" opacity="0.5"/>
</g>
<text x="220" y="266" font-family="monospace" font-size="12" fill="#000000">44</text>
<g>
<g opacity="0.5">
<path d="M 276 217 C 273.239 217 271 219.239 271 222 L 271 264 C 271 266.761 273.239 269 276 269 L 318 269 C 320.761 269 323 266.761 323 264 L 323 222 C 323 219.239 320.761 217 318 217 Z" fill="#775533"/>
<path d="M 282 220 C 280.895 220 280 220.895 280 222 L 280 252 C 280 253.105 280.895 254 282 254 L 312 254 C 313.105 254 314 253.105 314 252 L 314 222 C 314 220.895 313.105 220 312 220 Z" fill="#95704b"/>
</g>
<path d="M 318 217 C 320.761 217 323 219.239 323 222 L 323 264 C 323 266.761 320.761 269 318 269 L 276 269 C 273.239 269 271 266.761 271 264 L 271 222 C 271 219.239 273.239 217 276 217 Z M 276 216 C 272.686 216 270 218.686 270 222 L 270 264 C 270 267.314 272.686 270 276 270 L 318 270 C 321.314 270 324 267.314 324 264 L 324 222 C 324 218.686 321.314 216 318 216 Z" fill="#000000"/>
<path d="M 318 218 C 320.209 218 322 219.791 322 222 L 322 264 C 322 266.209 320.209 268 318 268 L 276 268 C 273.791 268 272 266.209 272 264 L 272 222 C 272 219.791 273.791 218 276 218 Z M 276 217 C 273.239 217 271 219.239 271 222 L 271 264 C 271 266.761 273.239 269 276 269 L 318 269 C 320.761 269 323 266.761 323 264 L 323 222 C 323 219.239 320.761 217 318 217 Z" fill="#6b4d2e"/>
<path d="M 312 220 C 313.105 220 314 220.895 314 222 L 314 252 C 314 253.105 313.105 254 312 254 L 282 254 C 280.895 254 280 253.105 280 252 L 280 222 C 280 220.895 280.895 220 282 220 Z M 282 219 C 280.343 219 279 220.343 279 222 L 279 252 C 279 253.657 280.343 255 282 255 L 312 255 C 313.657 255 315 253.657 315 252 L 315 222 C 315 220.343 313.657 219 312 219 Z" fill="#6b4d2e"/>
<path d="M 312 221 C 312.552 221 313 221.448 313 222 L 313 252 C 313 252.552 312.552 253 312 253 L 282 253 C 281.448 253 281 252.552 281 252 L 281 222 C 281 221.448 281.448 221 282 221 Z M 282 220 C 280.895 220 280 220.895 280 222 L 280 252 C 280 253.105 280.895 254 282 254 L 312 254 C 313.105 254 314 253.105 314 252 L 314 222 C 314 220.895 313.105 220 312 220 Z" fill="#95704b" opacity="0.5"/>
</g>
<text x="274" y="266" font-family="monospace" font-size="12" fill="#ffffff">45</text>
<g>
<g opacity="0.5">
<path d="M 330 217 C 327.239 217 325 219.239 325 222 L 325 264 C 325 266.761 327.239 269 330 269 L 372 269 C 374.761 269 377 266.761 377 264 L 377 222 C 377 219.239 374.761 217 372 217 Z" fill="#ff6600"/>
<path d="M 336 220 C 334.895 220 334 220.895 334 222 L 334 252 C 334 253.105 334.895 254 336 254 L 366 254 C 367.105 254 368 253.105 368 252 L 368 222 C 368 220.895 367.105 220 366 220 Z" fill="#ff8314"/>
</g>
<path d="M 372 217 C 374.761 217 377 219.239 377 222 L 377 264 C 377 266.761 374.761 269 372 269 L 330 269 C 327.239 269 325 266.761 325 264 L 325 222 C 325 219.239 327.239 217 330 217 Z M 330 216 C 326.686 216 324 218.686 324 222 L 324 264 C 324 267.314 326.686 270 330 270 L 372 270 C 375.314 270 378 267.314 378 264 L 378 222 C 378 218.686 375.314 216 372 216 Z" fill="#000000"/>
<path d="M 372 218 C 374.209 218 376 219.791 376 222 L 376 264 C 376 266.209 374.209 268 372 268 L 330 268 C 327.791 268 326 266.209 326 264 L 326 222 C 326 219.791 327.791 218 330 218 Z M 330 217 C 327.239 217 325 219.239 325 222 L 325 264 C 325 266.761 327.239 269 330 269 L 372 269 C 374.761 269 377 266.761 377 264 L 377 222 C 377 219.239 374.761 217 372 217 Z" fill="#e65c00"/>
<path d="M 366 220 C 367.105 220 368 220.895 368 222 L 368 252 C 368 253.105 367.105 254 366 254 L 336 254 C 334.895 254 334 253.105 334 252 L 334 222 C 334 220.895 334.895 220 336 220 Z M 336 219 C 334.343 219 333 220.343 333 222 L 333 252 C 333 253.657 334.343 255 336 255 L 366 255 C 367.657 255 369 253.657 369 252 L 369 222 C 369 220.343 367.657 219 366 219 Z" fill="#e65c00"/>
<path d="M 366 221 C 366.552 221 367 221.448 367 222 L 367 252 C 367 252.552 366.552 253 366 253 L 336 253 C 335.448 253 335 252.552 335 252 L 335 222 C 335 221.448 335.448 221 336 221 Z M 336 220 C 334.895 220 334 220.895 334 222 L 334 252 C 334 253.105 334.895 254 336 254 L 366 254 C 367.105 254 368 253.105 368 252 L 368 222 C 368 220.895 367.105 220 366 220 Z" fill="#ff8314" opacity="0.5"/>
</g>
<text x="328" y="266" font-family="monospace" font-size="12" fill="#000000">46</text>
<g>
<g opacity="0.5">
<path d="M 384 217 C 381.239 217 379 219.239 379 222 L 379 264 C 379 266.761 381.239 269 384 269 L 426 269 C 428.761 269 431 266.761 431 264 L 431 222 C 431 219.239 428.761 217 426 217 Z" fill="#ffcc99"/>
<path d="M 390 220 C 388.895 220 388 220.895 388 222 L 388 252 C 388 253.105 388.895 254 390 254 L 420 254 C 421.105 254 422 253.105 422 252 L 422 222 C 422 220.895 421.105 220 420 220 Z" fill="#fff2ba"/>
</g>
<path d="M 426 217 C 428.761 217 431 219.239 431 222 L 431 264 C 431 266.761 428.761 269 426 269 L 384 269 C 381.239 269 379 266.761 379 264 L 379 222 C 379 219.239 381.239 217 384 217 Z M 384 216 C 380.686 216 378 218.686 378 222 L 378 264 C 378 267.314 380.686 270 384 270 L 426 270 C 429.314 270 432 267.314 432 264 L 432 222 C 432 218.686 429.314 216 426 216 Z" fill="#000000"/>
<path d="M 426 218 C 428.209 218 430 219.791 430 222 L 430 264 C 430 266.209 428.209 268 426 268 L 384 268 C 381.791 268 380 266.209 380 264 L 380 222 C 380 219.791 381.791 218 384 218 Z M 384 217 C 381.239 217 379 219.239 379 222 L 379 264 C 379 266.761 381.239 269 384 269 L 426 269 C 428.761 269 431 266.761 431 264 L 431 222 C 431 219.239 428.761 217 426 217 Z" fill="#e6b88a"/>
<path d="M 420 220 C 421.105 220 422 220.895 422 222 L 422 252 C 422 253.105 421.105 254 420 254 L 390 254 C 388.895 254 388 253.105 388 252 L 388 222 C 388 220.895 388.895 220 390 220 Z M 390 219 C 388.343 219 387 220.343 387 222 L 387 252 C 387 253.657 388.343 255 390 255 L 420 255 C 421.657 255 423 253.657 423 252 L 423 222 C 423 220.343 421.657 219 420 219 Z" fill="#e6b88a"/>
<path d="M 420 221 C 420.552 221 421 221.448 421 222 L 421 252 C 421 252.552 420.552 253 420 253 L 390 253 C 389.448 253 389 252.552 389 252 L 389 222 C 389 221.448 389.448 221 390 221 Z M 390 220 C 388.895 220 388 220.895 388 222 L 388 252 C 388 253.105 388.895 254 390 254 L 420 254 C 421.105 254 422 253.105 422 252 L 422 222 C 422 220.895 421.105 220 420 220 Z" fill="#fff2ba" opacity="0.5"/>
</g>
<text x="382" y="266" font-family="monospace" font-size="12" fill="#000000">47</text>
<g>
<g opacity="0.5">
<path d="M 6 271 C 3.239 271 1 273.239 1 276 L 1 318 C 1 320.761 3.239 323 6 323 L 48 323 C 50.761 323 53 320.761 53 318 L 53 276 C 53 273.239 50.761 271 48 271 Z" fill="#666633"/>
<path d="M 12 274 C 10.895 274 10 274.895 10 276 L 10 306 C 10 307.105 10.895 308 12 308 L 42 308 C 43.105 308 44 307.105 44 306 L 44 276 C 44 274.895 43.105 274 42 274 Z" fill="#83834b"/>
</g>
<path d="M 48 271 C 50.761 271 53 273.239 53 276 L 53 318 C 53 320.761 50.761 323 48 323 L 6 323 C 3.239 323 1 320.761 1 318 L 1 276 C 1 273.239 3.239 271 6 271 Z M 6 270 C 2.686 270 0 272.686 0 276 L 0 318 C 0 321.314 2.686 324 6 324 L 48 324 C 51.314 324 54 321.314 54 318 L 54 276 C 54 272.686 51.314 270 48 270 Z" fill="#000000"/>
<path d="M 48 272 C 50.209 272 52 273.791 52 276 L 52 318 C 52 320.209 50.209 322 48 322 L 6 322 C 3.791 322 2 320.209 2 318 L 2 276 C 2 273.791 3.791 272 6 272 Z M 6 271 C 3.239 271 1 273.239 1 276 L 1 318 C 1 320.761 3.239 323 6 323 L 48 323 C 50.761 323 53 320.761 53 318 L 53 276 C 53 273.239 50.761 271 48 271 Z" fill="#5c5c2e"/>
<path d="M 42 274 C 43.105 274 44 274.895 44 276 L 44 306 C 44 307.105 43.105 308 42 308 L 12 308 C 10.895 308 10 307.105 10 306 L 10 276 C 10 274.895 10.895 274 12 274 Z M 12 273 C 10.343 273 9 274.343 9 276 L 9 306 C 9 307.657 10.343 309 12 309 L 42 309 C 43.657 309 45 307.657 45 306 L 45 276 C 45 274.343 43.657 273 42 273 Z" fill="#5c5c2e"/>
<path d="M 42 275 C 42.552 275 43 275.448 43 276 L 43 306 C 43 306.552 42.552 307 42 307 L 12 307 C 11.448 307 11 306.552 11 306 L 11 276 C 11 275.448 11.448 275 12 275 Z M 12 274 C 10.895 274 10 274.895 10 276 L 10 306 C 10 307.105 10.895 308 12 308 L 42 308 C 43.105 308 44 307.105 44 306 L 44 276 C 44 274.895 43.105 274 42 274 Z" fill="#83834b" opacity="0.5"/>
</g>
<text x="4" y="320" font-family="monospace" font-size="12" fill="#ffffff">48</text>
<g>
<g opacity="0.5">
<path d="M 60 271 C 57.239 271 55 273.239 55 276 L 55 318 C 55 320.761 57.239 323 60 323 L 102 323 C 104.761 323 107 320.761 107 318 L 107 276 C 107 273.239 104.761 271 102 271 Z" fill="#ffcc00"/>
<path d="M 66 274 C 64.895 274 64 274.895 64 276 L 64 306 C 64 307.105 64.895 308 66 308 L 96 308 C 97.105 308 98 307.105 98 306 L 98 276 C 98 274.895 97.105 274 96 274 Z" fill="#fff214"/>
</g>
<path d="M 102 271 C 104.761 271 107 273.239 107 276 L 107 318 C 107 320.761 104.761 323 102 323 L 60 323 C 57.239 323 55 320.761 55 318 L 55 276 C 55 273.239 57.239 271 60 271 Z M 60 270 C 56.686 270 54 272.686 54 276 L 54 318 C 54 321.314 56.686 324 60 324 L 102 324 C 105.314 324 108 321.314 108 318 L 108 276 C 108 272.686 105.314 270 102 270 Z" fill="#000000"/>
<path d="M 102 272 C 104.209 272 106 273.791 106 276 L 106 318 C 106 320.209 104.209 322 102 322 L 60 322 C 57.791 322 56 320.209 56 318 L 56 276 C 56 273.791 57.791 272 60 272 Z M 60 271 C 57.239 271 55 273.239 55 276 L 55 318 C 55 320.761 57.239 323 60 323 L 102 323 C 104.761 323 107 320.761 107 318 L 107 276 C 107 273.239 104.761 271 102 271 Z" fill="#e6b800"/>
<path d="M 96 274 C 97.105 274 98 274.895 98 276 L 98 306 C 98 307.105 97.105 308 96 308 L 66 308 C 64.895 308 64 307.105 64 306 L 64 276 C 64 274.895 64.895 274 66 274 Z M 66 273 C 64.343 273 63 274.343 63 276 L 63 306 C 63 307.657 64.343 309 66 309 L 96 309 C 97.657 309 99 307.657 99 306 L 99 276 C 99 274.343 97.657 273 96 273 Z" fill="#e6b800"/>
<path d="M 96 275 C 96.552 275 97 275.448 97 276 L 97 306 C 97 306.552 96.552 307 96 307 L 66 307 C 65.448 307 65 306.552 65 306 L 65 276 C 65 275.448 65.448 275 66 275 Z M 66 274 C 64.895 274 64 274.895 64 276 L 64 306 C 64 307.105 64.895 308 66 308 L 96 308 C 97.105 308 98 307.105 98 306 L 98 276 C 98 274.895 97.105 274 96 274 Z" fill="#fff214" opacity="0.5"/>
</g>
<text x="58" y="320" font-family="monospace" font-size="12" fill="#000000">49</text>
<g>
<g opacity="0.5">
<path d="M 114 271 C 111.239 271 109 273.239 109 276 L 109 318 C 109 320.761 111.239 323 114 323 L 156 323 C 158.761 323 161 320.761 161 318 L 161 276 C 161 273.239 158.761 271 156 271 Z" fill="#ffee99"/>
<path d="M 120 274 C 118.895 274 118 274.895 118 276 L 118 306 C 118 307.105 118.895 308 120 308 L 150 308 C 151.105 308 152 307.105 152 306 L 152 276 C 152 274.895 151.105 274 150 274 Z" fill="#ffffba"/>
</g>
<path d="M 156 271 C 158.761 271 161 273.239 161 276 L 161 318 C 161 320.761 158.761 323 156 323 L 114 323 C 111.239 323 109 320.761 109 318 L 109 276 C 109 273.239 111.239 271 114 271 Z M 114 270 C 110.686 270 108 272.686 108 276 L 108 318 C 108 321.314 110.686 324 114 324 L 156 324 C 159.314 324 162 321.314 162 318 L 162 276 C 162 272.686 159.314 270 156 270 Z" fill="#000000"/>
<path d="M 156 272 C 158.209 272 160 273.791 160 276 L 160 318 C 160 320.209 158.209 322 156 322 L 114 322 C 111.791 322 110 320.209 110 318 L 110 276 C 110 273.791 111.791 272 114 272 Z M 114 271 C 111.239 271 109 273.239 109 276 L 109 318 C 109 320.761 111.239 323 114 323 L 156 323 C 158.761 323 161 320.761 161 318 L 161 276 C 161 273.239 158.761 271 156 271 Z" fill="#e6d68a"/>
<path d="M 150 274 C 151.105 274 152 274.895 152 276 L 152 306 C 152 307.105 151.105 308 150 308 L 120 308 C 118.895 308 118 307.105 118 306 L 118 276 C 118 274.895 118.895 274 120 274 Z M 120 273 C 118.343 273 117 274.343 117 276 L 117 306 C 117 307.657 118.343 309 120 309 L 150 309 C 151.657 309 153 307.657 153 306 L 153 276 C 153 274.343 151.657 273 150 273 Z" fill="#e6d68a"/>
<path d="M 150 275 C 150.552 275 151 275.448 151 276 L 151 306 C 151 306.552 150.552 307 150 307 L 120 307 C 119.448 307 119 306.552 119 306 L 119 276 C 119 275.448 119.448 275 120 275 Z M 120 274 C 118.895 274 118 274.895 118 276 L 118 306 C 118 307.105 118.895 308 120 308 L 150 308 C 151.105 308 152 307.105 152 306 L 152 276 C 152 274.895 151.105 274 150 274 Z" fill="#ffffba" opacity="0.5"/>
</g>
<text x="112" y="320" font-family="monospace" font-size="12" fill="#000000">50</text>
<g>
<g opacity="0.5">
<path d="M 168 271 C 165.239 271 163 273.239 163 276 L 163 318 C 163 320.761 165.239 323 168 323 L 210 323 C 212.761 323 215 320.761 215 318 L 215 276 C 215 273.239 212.761 271 210 271 Z" fill="#336600"/>
<path d="M 174 274 C 172.895 274 172 274.895 172 276 L 172 306 C 172 307.105 172.895 308 174 308 L 204 308 C 205.105 308 206 307.105 206 306 L 206 276 C 206 274.895 205.105 274 204 274 Z" fill="#4b8314"/>
</g>
<path d="M 210 271 C 212.761 271 215 273.239 215 276 L 215 318 C 215 320.761 212.761 323 210 323 L 168 323 C 165.239 323 163 320.761 163 318 L 163 276 C 163 273.239 165.239 271 168 271 Z M 168 270 C 164.686 270 162 272.686 162 276 L 162 318 C 162 321.314 164.686 324 168 324 L 210 324 C 213.314 324 216 321.314 216 318 L 216 276 C 216 272.686 213.314 270 210 270 Z" fill="#000000"/>
<path d="M 210 272 C 212.209 272 214 273.791 214 276 L 214 318 C 214 320.209 212.209 322 210 322 L 168 322 C 165.791 322 164 320.209 164 318 L 164 276 C 164 273.791 165.791 272 168 272 Z M 168 271 C 165.239 271 163 273.239 163 276 L 163 318 C 163 320.761 165.239 323 168 323 L 210 323 C 212.761 323 215 320.761 215 318 L 215 276 C 215 273.239 212.761 271 210 271 Z" fill="#2e5c00"/>
<path d="M 204 274 C 205.105 274 206 274.895 206 276 L 206 306 C 206 307.105 205.105 308 204 308 L 174 308 C 172.895 308 172 307.105 172 306 L 172 276 C 172 274.895 172.895 274 174 274 Z M 174 273 C 172.343 273 171 274.343 171 276 L 171 306 C 171 307.657 172.343 309 174 309 L 204 309 C 205.657 309 207 307.657 207 306 L 207 276 C 207 274.343 205.657 273 204 273 Z" fill="#2e5c00"/>
<path d="M 204 275 C 204.552 275 205 275.448 205 276 L 205 306 C 205 306.552 204.552 307 204 307 L 174 307 C 173.448 307 173 306.552 173 306 L 173 276 C 173 275.448 173.448 275 174 275 Z M 174 274 C 172.895 274 172 274.895 172 276 L 172 306 C 172 307.105 172.895 308 174 308 L 204 308 C 205.105 308 206 307.105 206 306 L 206 276 C 206 274.895 205.105 274 204 274 Z" fill="#4b8314" opacity="0.5"/>
</g>
<text x="166" y="320" font-family="monospace" font-size="12" fill="#ffffff">51</text>
<g>
<g opacity="0.5">
<path d="M 222 271 C 219.239 271 217 273.239 217 276 L 217 318 C 217 320.761 219.239 323 222 323 L 264 323 C 266.761 323 269 320.761 269 318 L 269 276 C 269 273.239 266.761 271 264 271 Z" fill="#00aa00"/>
<path d="M 228 274 C 226.895 274 226 274.895 226 276 L 226 306 C 226 307.105 226.895 308 228 308 L 258 308 C 259.105 308 260 307.105 260 306 L 260 276 C 260 274.895 259.105 274 258 274 Z" fill="#14cd14"/>
</g>
<path d="M 264 271 C 266.761 271 269 273.239 269 276 L 269 318 C 269 320.761 266.761 323 264 323 L 222 323 C 219.239 323 217 320.761 217 318 L 217 276 C 217 273.239 219.239 271 222 271 Z M 222 270 C 218.686 270 216 272.686 216 276 L 216 318 C 216 321.314 218.686 324 222 324 L 264 324 C 267.314 324 270 321.314 270 318 L 270 276 C 270 272.686 267.314 270 264 270 Z" fill="#000000"/>
<path d="M 264 272 C 266.209 272 268 273.791 268 276 L 268 318 C 268 320.209 266.209 322 264 322 L 222 322 C 219.791 322 218 320.209 218 318 L 218 276 C 218 273.791 219.791 272 222 272 Z M 222 271 C 219.239 271 217 273.239 217 276 L 217 318 C 217 320.761 219.239 323 222 323 L 264 323 C 266.761 323 269 320.761 269 318 L 269 276 C 269 273.239 266.761 271 264 271 Z" fill="#009900"/>
<path d="M 258 274 C 259.105 274 260 274.895 260 276 L 260 306 C 260 307.105 259.105 308 258 308 L 228 308 C 226.895 308 226 307.105 226 306 L 226 276 C 226 274.895 226.895 274 228 274 Z M 228 273 C 226.343 273 225 274.343 225 276 L 225 306 C 225 307.657 226.343 309 228 309 L 258 309 C 259.657 309 261 307.657 261 306 L 261 276 C 261 274.343 259.657 273 258 273 Z" fill="#009900"/>
<path d="M 258 275 C 258.552 275 259 275.448 259 276 L 259 306 C 259 306.552 258.552 307 258 307 L 228 307 C 227.448 307 227 306.552 227 306 L 227 276 C 227 275.448 227.448 275 228 275 Z M 228 274 C 226.895 274 226 274.895 226 276 L 226 306 C 226 307.105 226.895 308 228 308 L 258 308 C 259.105 308 260 307.105 260 306 L 260 276 C 260 274.895 259.105 274 258 274 Z" fill="#14cd14" opacity="0.5"/>
</g>
<text x="220" y="320" font-family="monospace" font-size="12" fill="#ffffff">52</text>
<g>
<g opacity="0.5">
<path d="M 276 271 C 273.239 271 271 273.239 271 276 L 271 318 C 271 320.761 273.239 323 276 323 L 318 323 C 320.761 323 323 320.761 323 318 L 323 276 C 323 273.239 320.761 271 318 271 Z" fill="#77eeaa"/>
<path d="M 282 274 C 280.895 274 280 274.895 280 276 L 280 306 C 280 307.105 280.895 308 282 308 L 312 308 C 313.105 308 314 307.105 314 306 L 314 276 C 314 274.895 313.105 274 312 274 Z" fill="#95ffcd"/>
</g>
<path d="M 318 271 C 320.761 271 323 273.239 323 276 L 323 318 C 323 320.761 320.761 323 318 323 L 276 323 C 273.239 323 271 320.761 271 318 L 271 276 C 271 273.239 273.239 271 276 271 Z M 276 270 C 272.686 270 270 272.686 270 276 L 270 318 C 270 321.314 272.686 324 276 324 L 318 324 C 321.314 324 324 321.314 324 318 L 324 276 C 324 272.686 321.314 270 318 270 Z" fill="#000000"/>
<path d="M 318 272 C 320.209 272 322 273.791 322 276 L 322 318 C 322 320.209 320.209 322 318 322 L 276 322 C 273.791 322 272 320.209 272 318 L 272 276 C 272 273.791 273.791 272 276 272 Z M 276 271 C 273.239 271 271 273.239 271 276 L 271 318 C 271 320.761 273.239 323 276 323 L 318 323 C 320.761 323 323 320.761 323 318 L 323 276 C 323 273.239 320.761 271 318 271 Z" fill="#6bd699"/>
<path d="M 312 274 C 313.105 274 314 274.895 314 276 L 314 306 C 314 307.105 313.105 308 312 308 L 282 308 C 280.895 308 280 307.105 280 306 L 280 276 C 280 274.895 280.895 274 282 274 Z M 282 273 C 280.343 273 279 274.343 279 276 L 279 306 C 279 307.657 280.343 309 282 309 L 312 309 C 313.657 309 315 307.657 315 306 L 315 276 C 315 274.343 313.657 273 312 273 Z" fill="#6bd699"/>
<path d="M 312 275 C 312.552 275 313 275.448 313 276 L 313 306 C 313 306.552 312.552 307 312 307 L 282 307 C 281.448 307 281 306.552 281 306 L 281 276 C 281 275.448 281.448 275 282 275 Z M 282 274 C 280.895 274 280 274.895 280 276 L 280 306 C 280 307.105 280.895 308 282 308 L 312 308 C 313.105 308 314 307.105 314 306 L 314 276 C 314 274.895 313.105 274 312 274 Z" fill="#95ffcd" opacity="0.5"/>
</g>
<text x="274" y="320" font-family="monospace" font-size="12" fill="#000000">53</text>
<g>
<g opacity="0.5">
<path d="M 330 271 C 327.239 271 325 273.239 325 276 L 325 318 C 325 320.761 327.239 323 330 323 L 372 323 C 374.761 323 377 320.761 377 318 L 377 276 C 377 273.239 374.761 271 372 271 Z" fill="#003366"/>
<path d="M 336 274 C 334.895 274 334 274.895 334 276 L 334 306 C 334 307.105 334.895 308 336 308 L 366 308 C 367.105 308 368 307.105 368 306 L 368 276 C 368 274.895 367.105 274 366 274 Z" fill="#144b83"/>
</g>
<path d="M 372 271 C 374.761 271 377 273.239 377 276 L 377 318 C 377 320.761 374.761 323 372 323 L 330 323 C 327.239 323 325 320.761 325 318 L 325 276 C 325 273.239 327.239 271 330 271 Z M 330 270 C 326.686 270 324 272.686 324 276 L 324 318 C 324 321.314 326.686 324 330 324 L 372 324 C 375.314 324 378 321.314 378 318 L 378 276 C 378 272.686 375.314 270 372 270 Z" fill="#000000"/>
<path d="M 372 272 C 374.209 272 376 273.791 376 276 L 376 318 C 376 320.209 374.209 322 372 322 L 330 322 C 327.791 322 326 320.209 326 318 L 326 276 C 326 273.791 327.791 272 330 272 Z M 330 271 C 327.239 271 325 273.239 325 276 L 325 318 C 325 320.761 327.239 323 330 323 L 372 323 C 374.761 323 377 320.761 377 318 L 377 276 C 377 273.239 374.761 271 372 271 Z" fill="#002e5c"/>
<path d="M 366 274 C 367.105 274 368 274.895 368 276 L 368 306 C 368 307.105 367.105 308 366 308 L 336 308 C 334.895 308 334 307.105 334 306 L 334 276 C 334 274.895 334.895 274 336 274 Z M 336 273 C 334.343 273 333 274.343 333 276 L 333 306 C 333 307.657 334.343 309 336 309 L 366 309 C 367.657 309 369 307.657 369 306 L 369 276 C 369 274.343 367.657 273 366 273 Z" fill="#002e5c"/>
<path d="M 366 275 C 366.552 275 367 275.448 367 276 L 367 306 C 367 306.552 366.552 307 366 307 L 336 307 C 335.448 307 335 306.552 335 306 L 335 276 C 335 275.448 335.448 275 336 275 Z M 336 274 C 334.895 274 334 274.895 334 276 L 334 306 C 334 307.105 334.895 308 336 308 L 366 308 C 367.105 308 368 307.105 368 306 L 368 276 C 368 274.895 367.105 274 366 274 Z" fill="#144b83" opacity="0.5"/>
</g>
<text x="328" y="320" font-family="monospace" font-size="12" fill="#ffffff">54</text>
<g>
<g opacity="0.5">
<path d="M 384 271 C 381.239 271 379 273.239 379 276 L 379 318 C 379 320.761 381.239 323 384 323 L 426 323 C 428.761 323 431 320.761 431 318 L 431 276 C 431 273.239 428.761 271 426 271 Z" fill="#0033cc"/>
<path d="M 390 274 C 388.895 274 388 274.895 388 276 L 388 306 C 388 307.105 388.895 308 390 308 L 420 308 C 421.105 308 422 307.105 422 306 L 422 276 C 422 274.895 421.105 274 420 274 Z" fill="#144bf2"/>
</g>
<path d="M 426 271 C 428.761 271 431 273.239 431 276 L 431 318 C 431 320.761 428.761 323 426 323 L 384 323 C 381.239 323 379 320.761 379 318 L 379 276 C 379 273.239 381.239 271 384 271 Z M 384 270 C 380.686 270 378 272.686 378 276 L 378 318 C 378 321.314 380.686 324 384 324 L 426 324 C 429.314 324 432 321.314 432 318 L 432 276 C 432 272.686 429.314 270 426 270 Z" fill="#000000"/>
<path d="M 426 272 C 428.209 272 430 273.791 430 276 L 430 318 C 430 320.209 428.209 322 426 322 L 384 322 C 381.791 322 380 320.209 380 318 L 380 276 C 380 273.791 381.791 272 384 272 Z M 384 271 C 381.239 271 379 273.239 379 276 L 379 318 C 379 320.761 381.239 323 384 323 L 426 323 C 428.761 323 431 320.761 431 318 L 431 276 C 431 273.239 428.761 271 426 271 Z" fill="#002eb8"/>
<path d="M 420 274 C 421.105 274 422 274.895 422 276 L 422 306 C 422 307.105 421.105 308 420 308 L 390 308 C 388.895 308 388 307.105 388 306 L 388 276 C 388 274.895 388.895 274 390 274 Z M 390 273 C 388.343 273 387 274.343 387 276 L 387 306 C 387 307.657 388.343 309 390 309 L 420 309 C 421.657 309 423 307.657 423 306 L 423 276 C 423 274.343 421.657 273 420 273 Z" fill="#002eb8"/>
<path d="M 420 275 C 420.552 275 421 275.448 421 276 L 421 306 C 421 306.552 420.552 307 420 307 L 390 307 C 389.448 307 389 306.552 389 306 L 389 276 C 389 275.448 389.448 275 390 275 Z M 390 274 C 388.895 274 388 274.895 388 276 L 388 306 C 388 307.105 388.895 308 390 308 L 420 308 C 421.105 308 422 307.105 422 306 L 422 276 C 422 274.895 421.105 274 420 274 Z" fill="#144bf2" opacity="0.5"/>
</g>
<text x="382" y="320" font-family="monospace" font-size="12" fill="#ffffff">55</text>
<g>
<g opacity="0.5">
<path d="M 6 325 C 3.239 325 1 327.239 1 330 L 1 372 C 1 374.761 3.239 377 6 377 L 48 377 C 50.761 377 53 374.761 53 372 L 53 330 C 53 327.239 50.761 325 48 325 Z" fill="#66bbff"/>
<path d="M 12 328 C 10.895 328 10 328.895 10 330 L 10 360 C 10 361.105 10.895 362 12 362 L 42 362 C 43.105 362 44 361.105 44 360 L 44 330 C 44 328.895 43.105 328 42 328 Z" fill="#83dfff"/>
</g>
<path d="M 48 325 C 50.761 325 53 327.239 53 330 L 53 372 C 53 374.761 50.761 377 48 377 L 6 377 C 3.239 377 1 374.761 1 372 L 1 330 C 1 327.239 3.239 325 6 325 Z M 6 324 C 2.686 324 0 326.686 0 330 L 0 372 C 0 375.314 2.686 378 6 378 L 48 378 C 51.314 378 54 375.314 54 372 L 54 330 C 54 326.686 51.314 324 48 324 Z" fill="#000000"/>
<path d="M 48 326 C 50.209 326 52 327.791 52 330 L 52 372 C 52 374.209 50.209 376 48 376 L 6 376 C 3.791 376 2 374.209 2 372 L 2 330 C 2 327.791 3.791 326 6 326 Z M 6 325 C 3.239 325 1 327.239 1 330 L 1 372 C 1 374.761 3.239 377 6 377 L 48 377 C 50.761 377 53 374.761 53 372 L 53 330 C 53 327.239 50.761 325 48 325 Z" fill="#5ca8e6"/>
<path d="M 42 328 C 43.105 328 44 328.895 44 330 L 44 360 C 44 361.105 43.105 362 42 362 L 12 362 C 10.895 362 10 361.105 10 360 L 10 330 C 10 328.895 10.895 328 12 328 Z M 12 327 C 10.343 327 9 328.343 9 330 L 9 360 C 9 361.657 10.343 363 12 363 L 42 363 C 43.657 363 45 361.657 45 360 L 45 330 C 45 328.343 43.657 327 42 327 Z" fill="#5ca8e6"/>
<path d="M 42 329 C 42.552 329 43 329.448 43 330 L 43 360 C 43 360.552 42.552 361 42 361 L 12 361 C 11.448 361 11 360.552 11 360 L 11 330 C 11 329.448 11.448 329 12 329 Z M 12 328 C 10.895 328 10 328.895 10 330 L 10 360 C 10 361.105 10.895 362 12 362 L 42 362 C 43.105 362 44 361.105 44 360 L 44 330 C 44 328.895 43.105 328 42 328 Z" fill="#83dfff" opacity="0.5"/>
</g>
<text x="4" y="374" font-family="monospace" font-size="12" fill="#000000">56</text>
<g>
<g opacity="0.5">
<path d="M 60 325 C 57.239 325 55 327.239 55 330 L 55 372 C 55 374.761 57.239 377 60 377 L 102 377 C 104.761 377 107 374.761 107 372 L 107 330 C 107 327.239 104.761 325 102 325 Z" fill="#330066"/>
<path d="M 66 328 C 64.895 328 64 328.895 64 330 L 64 360 C 64 361.105 64.895 362 66 362 L 96 362 C 97.105 362 98 361.105 98 360 L 98 330 C 98 328.895 97.105 328 96 328 Z" fill="#4b1483"/>
</g>
<path d="M 102 325 C 104.761 325 107 327.239 107 330 L 107 372 C 107 374.761 104.761 377 102 377 L 60 377 C 57.239 377 55 374.761 55 372 L 55 330 C 55 327.239 57.239 325 60 325 Z M 60 324 C 56.686 324 54 326.686 54 330 L 54 372 C 54 375.314 56.686 378 60 378 L 102 378 C 105.314 378 108 375.314 108 372 L 108 330 C 108 326.686 105.314 324 102 324 Z" fill="#000000"/>
<path d="M 102 326 C 104.209 326 106 327.791 106 330 L 106 372 C 106 374.209 104.209 376 102 376 L 60 376 C 57.791 376 56 374.209 56 372 L 56 330 C 56 327.791 57.791 326 60 326 Z M 60 325 C 57.239 325 55 327.239 55 330 L 55 372 C 55 374.761 57.239 377 60 377 L 102 377 C 104.761 377 107 374.761 107 372 L 107 330 C 107 327.239 104.761 325 102 325 Z" fill="#2e005c"/>
<path d="M 96 328 C 97.105 328 98 328.895 98 330 L 98 360 C 98 361.105 97.105 362 96 362 L 66 362 C 64.895 362 64 361.105 64 360 L 64 330 C 64 328.895 64.895 328 66 328 Z M 66 327 C 64.343 327 63 328.343 63 330 L 63 360 C 63 361.657 64.343 363 66 363 L 96 363 C 97.657 363 99 361.657 99 360 L 99 330 C 99 328.343 97.657 327 96 327 Z" fill="#2e005c"/>
<path d="M 96 329 C 96.552 329 97 329.448 97 330 L 97 360 C 97 360.552 96.552 361 96 361 L 66 361 C 65.448 361 65 360.552 65 360 L 65 330 C 65 329.448 65.448 329 66 329 Z M 66 328 C 64.895 328 64 328.895 64 330 L 64 360 C 64 361.105 64.895 362 66 362 L 96 362 C 97.105 362 98 361.105 98 360 L 98 330 C 98 328.895 97.105 328 96 328 Z" fill="#4b1483" opacity="0.5"/>
</g>
<text x="58" y="374" font-family="monospace" font-size="12" fill="#ffffff">57</text>
<g>
<g opacity="0.5">
<path d="M 114 325 C 111.239 325 109 327.239 109 330 L 109 372 C 109 374.761 111.239 377 114 377 L 156 377 C 158.761 377 161 374.761 161 372 L 161 330 C 161 327.239 158.761 325 156 325 Z" fill="#9900ff"/>
<path d="M 120 328 C 118.895 328 118 328.895 118 330 L 118 360 C 118 361.105 118.895 362 120 362 L 150 362 C 151.105 362 152 361.105 152 360 L 152 330 C 152 328.895 151.105 328 150 328 Z" fill="#ba14ff"/>
</g>
<path d="M 156 325 C 158.761 325 161 327.239 161 330 L 161 372 C 161 374.761 158.761 377 156 377 L 114 377 C 111.239 377 109 374.761 109 372 L 109 330 C 109 327.239 111.239 325 114 325 Z M 114 324 C 110.686 324 108 326.686 108 330 L 108 372 C 108 375.314 110.686 378 114 378 L 156 378 C 159.314 378 162 375.314 162 372 L 162 330 C 162 326.686 159.314 324 156 324 Z" fill="#000000"/>
<path d="M 156 326 C 158.209 326 160 327.791 160 330 L 160 372 C 160 374.209 158.209 376 156 376 L 114 376 C 111.791 376 110 374.209 110 372 L 110 330 C 110 327.791 111.791 326 114 326 Z M 114 325 C 111.239 325 109 327.239 109 330 L 109 372 C 109 374.761 111.239 377 114 377 L 156 377 C 158.761 377 161 374.761 161 372 L 161 330 C 161 327.239 158.761 325 156 325 Z" fill="#8a00e6"/>
<path d="M 150 328 C 151.105 328 152 328.895 152 330 L 152 360 C 152 361.105 151.105 362 150 362 L 120 362 C 118.895 362 118 361.105 118 360 L 118 330 C 118 328.895 118.895 328 120 328 Z M 120 327 C 118.343 327 117 328.343 117 330 L 117 360 C 117 361.657 118.343 363 120 363 L 150 363 C 151.657 363 153 361.657 153 360 L 153 330 C 153 328.343 151.657 327 150 327 Z" fill="#8a00e6"/>
<path d="M 150 329 C 150.552 329 151 329.448 151 330 L 151 360 C 151 360.552 150.552 361 150 361 L 120 361 C 119.448 361 119 360.552 119 360 L 119 330 C 119 329.448 119.448 329 120 329 Z M 120 328 C 118.895 328 118 328.895 118 330 L 118 360 C 118 361.105 118.895 362 120 362 L 150 362 C 151.105 362 152 361.105 152 360 L 152 330 C 152 328.895 151.105 328 150 328 Z" fill="#ba14ff" opacity="0.5"/>
</g>
<text x="112" y="374" font-family="monospace" font-size="12" fill="#ffffff">58</text>
<g>
<g opacity="0.5">
<path d="M 168 325 C 165.239 325 163 327.239 163 330 L 163 372 C 163 374.761 165.239 377 168 377 L 210 377 C 212.761 377 215 374.761 215 372 L 215 330 C 215 327.239 212.761 325 210 325 Z" fill="#bb99ff"/>
<path d="M 174 328 C 172.895 328 172 328.895 172 330 L 172 360 C 172 361.105 172.895 362 174 362 L 204 362 C 205.105 362 206 361.105 206 360 L 206 330 C 206 328.895 205.105 328 204 328 Z" fill="#dfbaff"/>
</g>
<path d="M 210 325 C 212.761 325 215 327.239 215 330 L 215 372 C 215 374.761 212.761 377 210 377 L 168 377 C 165.239 377 163 374.761 163 372 L 163 330 C 163 327.239 165.239 325 168 325 Z M 168 324 C 164.686 324 162 326.686 162 330 L 162 372 C 162 375.314 164.686 378 168 378 L 210 378 C 213.314 378 216 375.314 216 372 L 216 330 C 216 326.686 213.314 324 210 324 Z" fill="#000000"/>
<path d="M 210 326 C 212.209 326 214 327.791 214 330 L 214 372 C 214 374.209 212.209 376 210 376 L 168 376 C 165.791 376 164 374.209 164 372 L 164 330 C 164 327.791 165.791 326 168 326 Z M 168 325 C 165.239 325 163 327.239 163 330 L 163 372 C 163 374.761 165.239 377 168 377 L 210 377 C 212.761 377 215 374.761 215 372 L 215 330 C 215 327.239 212.761 325 210 325 Z" fill="#a88ae6"/>
<path d="M 204 328 C 205.105 328 206 328.895 206 330 L 206 360 C 206 361.105 205.105 362 204 362 L 174 362 C 172.895 362 172 361.105 172 360 L 172 330 C 172 328.895 172.895 328 174 328 Z M 174 327 C 172.343 327 171 328.343 171 330 L 171 360 C 171 361.657 172.343 363 174 363 L 204 363 C 205.657 363 207 361.657 207 360 L 207 330 C 207 328.343 205.657 327 204 327 Z" fill="#a88ae6"/>
<path d="M 204 329 C 204.552 329 205 329.448 205 330 L 205 360 C 205 360.552 204.552 361 204 361 L 174 361 C 173.448 361 173 360.552 173 360 L 173 330 C 173 329.448 173.448 329 174 329 Z M 174 328 C 172.895 328 172 328.895 172 330 L 172 360 C 172 361.105 172.895 362 174 362 L 204 362 C 205.105 362 206 361.105 206 360 L 206 330 C 206 328.895 205.105 328 204 328 Z" fill="#dfbaff" opacity="0.5"/>
</g>
<text x="166" y="374" font-family="monospace" font-size="12" fill="#000000">59</text>
<g>
<g opacity="0.5">
<path d="M 222 325 C 219.239 325 217 327.239 217 330 L 217 372 C 217 374.761 219.239 377 222 377 L 264 377 C 266.761 377 269 374.761 269 372 L 269 330 C 269 327.239 266.761 325 264 325 Z" fill="#660033"/>
<path d="M 228 328 C 226.895 328 226 328.895 226 330 L 226 360 C 226 361.105 226.895 362 228 362 L 258 362 C 259.105 362 260 361.105 260 360 L 260 330 C 260 328.895 259.105 328 258 328 Z" fill="#83144b"/>
</g>
<path d="M 264 325 C 266.761 325 269 327.239 269 330 L 269 372 C 269 374.761 266.761 377 264 377 L 222 377 C 219.239 377 217 374.761 217 372 L 217 330 C 217 327.239 219.239 325 222 325 Z M 222 324 C 218.686 324 216 326.686 216 330 L 216 372 C 216 375.314 218.686 378 222 378 L 264 378 C 267.314 378 270 375.314 270 372 L 270 330 C 270 326.686 267.314 324 264 324 Z" fill="#000000"/>
<path d="M 264 326 C 266.209 326 268 327.791 268 330 L 268 372 C 268 374.209 266.209 376 264 376 L 222 376 C 219.791 376 218 374.209 218 372 L 218 330 C 218 327.791 219.791 326 222 326 Z M 222 325 C 219.239 325 217 327.239 217 330 L 217 372 C 217 374.761 219.239 377 222 377 L 264 377 C 266.761 377 269 374.761 269 372 L 269 330 C 269 327.239 266.761 325 264 325 Z" fill="#5c002e"/>
<path d="M 258 328 C 259.105 328 260 328.895 260 330 L 260 360 C 260 361.105 259.105 362 258 362 L 228 362 C 226.895 362 226 361.105 226 360 L 226 330 C 226 328.895 226.895 328 228 328 Z M 228 327 C 226.343 327 225 328.343 225 330 L 225 360 C 225 361.657 226.343 363 228 363 L 258 363 C 259.657 363 261 361.657 261 360 L 261 330 C 261 328.343 259.657 327 258 327 Z" fill="#5c002e"/>
<path d="M 258 329 C 258.552 329 259 329.448 259 330 L 259 360 C 259 360.552 258.552 361 258 361 L 228 361 C 227.448 361 227 360.552 227 360 L 227 330 C 227 329.448 227.448 329 228 329 Z M 228 328 C 226.895 328 226 328.895 226 330 L 226 360 C 226 361.105 226.895 362 228 362 L 258 362 C 259.105 362 260 361.105 260 360 L 260 330 C 260 328.895 259.105 328 258 328 Z" fill="#83144b" opacity="0.5"/>
</g>
<text x="220" y="374" font-family="monospace" font-size="12" fill="#ffffff">60</text>
<g>
<g opacity="0.5">
<path d="M 276 325 C 273.239 325 271 327.239 271 330 L 271 372 C 271 374.761 273.239 377 276 377 L 318 377 C 320.761 377 323 374.761 323 372 L 323 330 C 323 327.239 320.761 325 318 325 Z" fill="#ee00cc"/>
<path d="M 282 328 C 280.895 328 280 328.895 280 330 L 280 360 C 280 361.105 280.895 362 282 362 L 312 362 C 313.105 362 314 361.105 314 360 L 314 330 C 314 328.895 313.105 328 312 328 Z" fill="#ff14f2"/>
</g>
<path d="M 318 325 C 320.761 325 323 327.239 323 330 L 323 372 C 323 374.761 320.761 377 318 377 L 276 377 C 273.239 377 271 374.761 271 372 L 271 330 C 271 327.239 273.239 325 276 325 Z M 276 324 C 272.686 324 270 326.686 270 330 L 270 372 C 270 375.314 272.686 378 276 378 L 318 378 C 321.314 378 324 375.314 324 372 L 324 330 C 324 326.686 321.314 324 318 324 Z" fill="#000000"/>
<path d="M 318 326 C 320.209 326 322 327.791 322 330 L 322 372 C 322 374.209 320.209 376 318 376 L 276 376 C 273.791 376 272 374.209 272 372 L 272 330 C 272 327.791 273.791 326 276 326 Z M 276 325 C 273.239 325 271 327.239 271 330 L 271 372 C 271 374.761 273.239 377 276 377 L 318 377 C 320.761 377 323 374.761 323 372 L 323 330 C 323 327.239 320.761 325 318 325 Z" fill="#d600b8"/>
<path d="M 312 328 C 313.105 328 314 328.895 314 330 L 314 360 C 314 361.105 313.105 362 312 362 L 282 362 C 280.895 362 280 361.105 280 360 L 280 330 C 280 328.895 280.895 328 282 328 Z M 282 327 C 280.343 327 279 328.343 279 330 L 279 360 C 279 361.657 280.343 363 282 363 L 312 363 C 313.657 363 315 361.657 315 360 L 315 330 C 315 328.343 313.657 327 312 327 Z" fill="#d600b8"/>
<path d="M 312 329 C 312.552 329 313 329.448 313 330 L 313 360 C 313 360.552 312.552 361 312 361 L 282 361 C 281.448 361 281 360.552 281 360 L 281 330 C 281 329.448 281.448 329 282 329 Z M 282 328 C 280.895 328 280 328.895 280 330 L 280 360 C 280 361.105 280.895 362 282 362 L 312 362 C 313.105 362 314 361.105 314 360 L 314 330 C 314 328.895 313.105 328 312 328 Z" fill="#ff14f2" opacity="0.5"/>
</g>
<text x="274" y="374" font-family="monospace" font-size="12" fill="#ffffff">61</text>
<g>
<g opacity="0.5">
<path d="M 330 325 C 327.239 325 325 327.239 325 330 L 325 372 C 325 374.761 327.239 377 330 377 L 372 377 C 374.761 377 377 374.761 377 372 L 377 330 C 377 327.239 374.761 325 372 325 Z" fill="#ff99ff"/>
<path d="M 336 328 C 334.895 328 334 328.895 334 330 L 334 360 C 334 361.105 334.895 362 336 362 L 366 362 C 367.105 362 368 361.105 368 360 L 368 330 C 368 328.895 367.105 328 366 328 Z" fill="#ffbaff"/>
</g>
<path d="M 372 325 C 374.761 325 377 327.239 377 330 L 377 372 C 377 374.761 374.761 377 372 377 L 330 377 C 327.239 377 325 374.761 325 372 L 325 330 C 325 327.239 327.239 325 330 325 Z M 330 324 C 326.686 324 324 326.686 324 330 L 324 372 C 324 375.314 326.686 378 330 378 L 372 378 C 375.314 378 378 375.314 378 372 L 378 330 C 378 326.686 375.314 324 372 324 Z" fill="#000000"/>
<path d="M 372 326 C 374.209 326 376 327.791 376 330 L 376 372 C 376 374.209 374.209 376 372 376 L 330 376 C 327.791 376 326 374.209 326 372 L 326 330 C 326 327.791 327.791 326 330 326 Z M 330 325 C 327.239 325 325 327.239 325 330 L 325 372 C 325 374.761 327.239 377 330 377 L 372 377 C 374.761 377 377 374.761 377 372 L 377 330 C 377 327.239 374.761 325 372 325 Z" fill="#e68ae6"/>
<path d="M 366 328 C 367.105 328 368 328.895 368 330 L 368 360 C 368 361.105 367.105 362 366 362 L 336 362 C 334.895 362 334 361.105 334 360 L 334 330 C 334 328.895 334.895 328 336 328 Z M 336 327 C 334.343 327 333 328.343 333 330 L 333 360 C 333 361.657 334.343 363 336 363 L 366 363 C 367.657 363 369 361.657 369 360 L 369 330 C 369 328.343 367.657 327 366 327 Z" fill="#e68ae6"/>
<path d="M 366 329 C 366.552 329 367 329.448 367 330 L 367 360 C 367 360.552 366.552 361 366 361 L 336 361 C 335.448 361 335 360.552 335 360 L 335 330 C 335 329.448 335.448 329 336 329 Z M 336 328 C 334.895 328 334 328.895 334 330 L 334 360 C 334 361.105 334.895 362 336 362 L 366 362 C 367.105 362 368 361.105 368 360 L 368 330 C 368 328.895 367.105 328 366 328 Z" fill="#ffbaff" opacity="0.5"/>
</g>
<text x="328" y="374" font-family="monospace" font-size="12" fill="#000000">62</text>
<g>
<g opacity="0.5">
<path d="M 384 325 C 381.239 325 379 327.239 379 330 L 379 372 C 379 374.761 381.239 377 384 377 L 426 377 C 428.761 377 431 374.761 431 372 L 431 330 C 431 327.239 428.761 325 426 325 Z" fill="#f2f2f2"/>
<path d="M 390 328 C 388.895 328 388 328.895 388 330 L 388 360 C 388 361.105 388.895 362 390 362 L 420 362 C 421.105 362 422 361.105 422 360 L 422 330 C 422 328.895 421.105 328 420 328 Z" fill="#ffffff"/>
</g>
<path d="M 426 325 C 428.761 325 431 327.239 431 330 L 431 372 C 431 374.761 428.761 377 426 377 L 384 377 C 381.239 377 379 374.761 379 372 L 379 330 C 379 327.239 381.239 325 384 325 Z M 384 324 C 380.686 324 378 326.686 378 330 L 378 372 C 378 375.314 380.686 378 384 378 L 426 378 C 429.314 378 432 375.314 432 372 L 432 330 C 432 326.686 429.314 324 426 324 Z" fill="#000000"/>
<path d="M 426 326 C 428.209 326 430 327.791 430 330 L 430 372 C 430 374.209 428.209 376 426 376 L 384 376 C 381.791 376 380 374.209 380 372 L 380 330 C 380 327.791 381.791 326 384 326 Z M 384 325 C 381.239 325 379 327.239 379 330 L 379 372 C 379 374.761 381.239 377 384 377 L 426 377 C 428.761 377 431 374.761 431 372 L 431 330 C 431 327.239 428.761 325 426 325 Z" fill="#dadada"/>
<path d="M 420 328 C 421.105 328 422 328.895 422 330 L 422 360 C 422 361.105 421.105 362 420 362 L 390 362 C 388.895 362 388 361.105 388 360 L 388 330 C 388 328.895 388.895 328 390 328 Z M 390 327 C 388.343 327 387 328.343 387 330 L 387 360 C 387 361.657 388.343 363 390 363 L 420 363 C 421.657 363 423 361.657 423 360 L 423 330 C 423 328.343 421.657 327 420 327 Z" fill="#dadada"/>
<path d="M 420 329 C 420.552 329 421 329.448 421 330 L 421 360 C 421 360.552 420.552 361 420 361 L 390 361 C 389.448 361 389 360.552 389 360 L 389 330 C 389 329.448 389.448 329 390 329 Z M 390 328 C 388.895 328 388 328.895 388 330 L 388 360 C 388 361.105 388.895 362 390 362 L 420 362 C 421.105 362 422 361.105 422 360 L 422 330 C 422 328.895 421.105 328 420 328 Z" fill="#ffffff" opacity="0.5"/>
</g>
<text x="382" y="374" font-family="monospace" font-size="12" fill="#000000">63</text>
</svg>
