<?xml version="1.0"?>
<svg xmlns="http://www.w3.org/2000/svg" xmlns:xlink="http://www.w3.org/1999/xlink" version="1.1" width="738" height="468" viewBox="36 -486 738 468">
<defs>
<g id="shape0">
<path d="M 6 -54 C 2.686 -54 0 -51.314 0 -48 L 0 -6 C 0 -2.686 2.686 0 6 0 L 48 0 C 51.314 0 54 -2.686 54 -6 L 54 -48 C 54 -51.314 51.314 -54 48 -54 Z" fill="#000000"/>
<path d="M 6 -53 C 3.239 -53 1 -50.761 1 -48 L 1 -6 C 1 -3.239 3.239 -1 6 -1 L 48 -1 C 50.761 -1 53 -3.239 53 -6 L 53 -48 C 53 -50.761 50.761 -53 48 -53 Z" fill="#dadada"/>
<path d="M 6 -52 C 3.791 -52 2 -50.209 2 -48 L 2 -6 C 2 -3.791 3.791 -2 6 -2 L 48 -2 C 50.209 -2 52 -3.791 52 -6 L 52 -48 C 52 -50.209 50.209 -52 48 -52 Z" fill="#f2f2f2"/>
<path d="M 12 -51 C 10.343 -51 9 -49.657 9 -48 L 9 -18 C 9 -16.343 10.343 -15 12 -15 L 42 -15 C 43.657 -15 45 -16.343 45 -18 L 45 -48 C 45 -49.657 43.657 -51 42 -51 Z" fill="#dadada"/>
<path d="M 12 -50 C 10.895 -50 10 -49.105 10 -48 L 10 -18 C 10 -16.895 10.895 -16 12 -16 L 42 -16 C 43.105 -16 44 -16.895 44 -18 L 44 -48 C 44 -49.105 43.105 -50 42 -50 Z" fill="#ffffff"/>
</g>
<g id="shape1">
<path d="M 6 -54 C 2.686 -54 0 -51.314 0 -48 L 0 -6 C 0 -2.686 2.686 0 6 0 L 102 0 C 105.314 0 108 -2.686 108 -6 L 108 -48 C 108 -51.314 105.314 -54 102 -54 Z" fill="#000000"/>
<path d="M 6 -53 C 3.239 -53 1 -50.761 1 -48 L 1 -6 C 1 -3.239 3.239 -1 6 -1 L 102 -1 C 104.761 -1 107 -3.239 107 -6 L 107 -48 C 107 -50.761 104.761 -53 102 -53 Z" fill="#dadada"/>
<path d="M 6 -52 C 3.791 -52 2 -50.209 2 -48 L 2 -6 C 2 -3.791 3.791 -2 6 -2 L 102 -2 C 104.209 -2 106 -3.791 106 -6 L 106 -48 C 106 -50.209 104.209 -52 102 -52 Z" fill="#f2f2f2"/>
<path d="M 12 -51 C 10.343 -51 9 -49.657 9 -48 L 9 -18 C 9 -16.343 10.343 -15 12 -15 L 96 -15 C 97.657 -15 99 -16.343 99 -18 L 99 -48 C 99 -49.657 97.657 -51 96 -51 Z" fill="#dadada"/>
<path d="M 12 -50 C 10.895 -50 10 -49.105 10 -48 L 10 -18 C 10 -16.895 10.895 -16 12 -16 L 96 -16 C 97.105 -16 98 -16.895 98 -18 L 98 -48 C 98 -49.105 97.105 -50 96 -50 Z" fill="#ffffff"/>
</g>
<g id="shape2">
<path d="M 6 -108 C 2.686 -108 0 -105.314 0 -102 L 0 -6 C 0 -2.686 2.686 0 6 0 L 48 0 C 51.314 0 54 -2.686 54 -6 L 54 -102 C 54 -105.314 51.314 -108 48 -108 Z" fill="#000000"/>
<path d="M 6 -107 C 3.239 -107 1 -104.761 1 -102 L 1 -6 C 1 -3.239 3.239 -1 6 -1 L 48 -1 C 50.761 -1 53 -3.239 53 -6 L 53 -102 C 53 -104.761 50.761 -107 48 -107 Z" fill="#dadada"/>
<path d="M 6 -106 C 3.791 -106 2 -104.209 2 -102 L 2 -6 C 2 -3.791 3.791 -2 6 -2 L 48 -2 C 50.209 -2 52 -3.791 52 -6 L 52 -102 C 52 -104.209 50.209 -106 48 -106 Z" fill="#f2f2f2"/>
<path d="M 12 -105 C 10.343 -105 9 -103.657 9 -102 L 9 -18 C 9 -16.343 10.343 -15 12 -15 L 42 -15 C 43.657 -15 45 -16.343 45 -18 L 45 -102 C 45 -103.657 43.657 -105 42 -105 Z" fill="#dadada"/>
<path d="M 12 -104 C 10.895 -104 10 -103.105 10 -102 L 10 -18 C 10 -16.895 10.895 -16 12 -16 L 42 -16 C 43.105 -16 44 -16.895 44 -18 L 44 -102 C 44 -103.105 43.105 -104 42 -104 Z" fill="#ffffff"/>
</g>
<g id="shape3">
<path d="M 6 -54 C 2.686 -54 0 -51.314 0 -48 L 0 -6 C 0 -2.686 2.686 0 6 0 L 61.5 0 C 64.814 0 67.5 -2.686 67.5 -6 L 67.5 -48 C 67.5 -51.314 64.814 -54 61.5 -54 Z" fill="#000000"/>
<path d="M 6 -53 C 3.239 -53 1 -50.761 1 -48 L 1 -6 C 1 -3.239 3.239 -1 6 -1 L 61.5 -1 C 64.261 -1 66.5 -3.239 66.5 -6 L 66.5 -48 C 66.5 -50.761 64.261 -53 61.5 -53 Z" fill="#dadada"/>
<path d="M 6 -52 C 3.791 -52 2 -50.209 2 -48 L 2 -6 C 2 -3.791 3.791 -2 6 -2 L 61.5 -2 C 63.709 -2 65.5 -3.791 65.5 -6 L 65.5 -48 C 65.5 -50.209 63.709 -52 61.5 -52 Z" fill="#f2f2f2"/>
<path d="M 12 -51 C 10.343 -51 9 -49.657 9 -48 L 9 -18 C 9 -16.343 10.343 -15 12 -15 L 55.5 -15 C 57.157 -15 58.5 -16.343 58.5 -18 L 58.5 -48 C 58.5 -49.657 57.157 -51 55.5 -51 Z" fill="#dadada"/>
<path d="M 12 -50 C 10.895 -50 10 -49.105 10 -48 L 10 -18 C 10 -16.895 10.895 -16 12 -16 L 55.5 -16 C 56.605 -16 57.5 -16.895 57.5 -18 L 57.5 -48 C 57.5 -49.105 56.605 -50 55.5 -50 Z" fill="#ffffff"/>
</g>
<g id="shape4">
<path d="M 6 -108 C 2.686 -108 0 -105.314 0 -102 L 0 -6 C 0 -2.686 2.686 0 6 0 L 61.5 0 C 64.814 0 67.5 -2.686 67.5 -6 L 67.5 -102 C 67.5 -105.314 64.814 -108 61.5 -108 Z" fill="#000000"/>
<path d="M 6 -107 C 3.239 -107 1 -104.761 1 -102 L 1 -6 C 1 -3.239 3.239 -1 6 -1 L 61.5 -1 C 64.261 -1 66.5 -3.239 66.5 -6 L 66.5 -102 C 66.5 -104.761 64.261 -107 61.5 -107 Z" fill="#dadada"/>
<path d="M 6 -106 C 3.791 -106 2 -104.209 2 -102 L 2 -6 C 2 -3.791 3.791 -2 6 -2 L 61.5 -2 C 63.709 -2 65.5 -3.791 65.5 -6 L 65.5 -102 C 65.5 -104.209 63.709 -106 61.5 -106 Z" fill="#f2f2f2"/>
<path d="M 12 -105 C 10.343 -105 9 -103.657 9 -102 L 9 -18 C 9 -16.343 10.343 -15 12 -15 L 55.5 -15 C 57.157 -15 58.5 -16.343 58.5 -18 L 58.5 -102 C 58.5 -103.657 57.157 -105 55.5 -105 Z" fill="#dadada"/>
<path d="M 12 -104 C 10.895 -104 10 -103.105 10 -102 L 10 -18 C 10 -16.895 10.895 -16 12 -16 L 55.5 -16 C 56.605 -16 57.5 -16.895 57.5 -18 L 57.5 -102 C 57.5 -103.105 56.605 -104 55.5 -104 Z" fill="#ffffff"/>
</g>
<g id="shape5">
<path d="M -7.5 -108 C -10.814 -108 -13.5 -105.314 -13.5 -102 L -13.5 -60 C -13.5 -56.686 -10.814 -54 -7.5 -54 L 0 -54 L 0 -6 C 0 -2.686 2.686 0 6 0 L 61.5 0 C 64.814 0 67.5 -2.686 67.5 -6 L 67.5 -102 C 67.5 -105.314 64.814 -108 61.5 -108 Z" fill="#000000"/>
<path d="M -7.5 -107 C -10.261 -107 -12.5 -104.761 -12.5 -102 L -12.5 -60 C -12.5 -57.239 -10.261 -55 -7.5 -55 L 1 -55 L 1 -54 L 1 -6 C 1 -3.239 3.239 -1 6 -1 L 61.5 -1 C 64.261 -1 66.5 -3.239 66.5 -6 L 66.5 -102 C 66.5 -104.761 64.261 -107 61.5 -107 Z" fill="#dadada"/>
<path d="M -7.5 -106 C -9.709 -106 -11.5 -104.209 -11.5 -102 L -11.5 -60 C -11.5 -57.791 -9.709 -56 -7.5 -56 L 2 -56 L 2 -54 L 2 -6 C 2 -3.791 3.791 -2 6 -2 L 61.5 -2 C 63.709 -2 65.5 -3.791 65.5 -6 L 65.5 -102 C 65.5 -104.209 63.709 -106 61.5 -106 Z" fill="#f2f2f2"/>
<path d="M -1.5 -105 C -3.157 -105 -4.5 -103.657 -4.5 -102 L -4.5 -72 C -4.5 -70.343 -3.157 -69 -1.5 -69 L 9 -69 L 9 -60 L 9 -18 C 9 -16.343 10.343 -15 12 -15 L 55.5 -15 C 57.157 -15 58.5 -16.343 58.5 -18 L 58.5 -102 C 58.5 -103.657 57.157 -105 55.5 -105 Z" fill="#dadada"/>
<path d="M -1.5 -104 C -2.605 -104 -3.5 -103.105 -3.5 -102 L -3.5 -72 C -3.5 -70.895 -2.605 -70 -1.5 -70 L 10 -70 L 10 -60 L 10 -18 C 10 -16.895 10.895 -16 12 -16 L 55.5 -16 C 56.605 -16 57.5 -16.895 57.5 -18 L 57.5 -102 C 57.5 -103.105 56.605 -104 55.5 -104 Z" fill="#ffffff"/>
</g>
</defs>
<text x="54" y="-468" font-family="Arial" font-size="18">Horizontal Keycap</text>
<text x="54" y="-306" font-family="Arial" font-size="18">Vertical Keycap</text>
<text x="54" y="-144" font-family="Arial" font-size="18">ISO Enter Keycap</text>
<g class="keyboard">
<g class="key">
<use xlink:href="#shape0" transform="translate(54 -378)"/>
<circle cx="54" cy="-378" r="4" fill="red"/>
<text x="81" y="-360" text-anchor="middle" font-family="Arial" font-size="12">default shape</text>
</g>
<g class="key">
<use xlink:href="#shape1" transform="translate(162 -378)"/>
<path d="M 162 -378 h 108 m -8 -8 l 8 8 l -8 8" fill="none" stroke="red" stroke-width="3"/>
<circle cx="162" cy="-378" r="4" fill="red"/>
<circle cx="270" cy="-378" r="4" fill="red"/>
<text x="216" y="-360" text-anchor="middle" font-family="monospace" font-size="12">2u</text>
</g>
<g class="key" opacity="0.5">
<use xlink:href="#shape1" transform="translate(324 -378)"/>
<path d="M 324 -378 h 108 m -8 -8 l 8 8 l -8 8" fill="none" stroke="red" stroke-width="3"/>
<path d="M 432 -378 v -54 m -8 8 l 8 -8 l 8 8" fill="none" stroke="red" stroke-width="3"/>
<circle cx="324" cy="-378" r="4" fill="red"/>
<circle cx="432" cy="-378" r="4" fill="red"/>
<circle cx="432" cy="-432" r="4" fill="red"/>
<text x="378" y="-360" text-anchor="middle" font-family="monospace" font-size="12">2+1u</text>
</g>
<g class="key" opacity="0.5">
<use xlink:href="#shape1" transform="translate(486 -378)"/>
<path d="M 486 -378 h 108 m -8 -8 l 8 8 l -8 8" fill="none" stroke="red" stroke-width="3"/>
<path d="M 594 -378 v -54 m -8 8 l 8 -8 l 8 8" fill="none" stroke="red" stroke-width="3"/>
<path d="M 594 -432 h -108 m 8 -8 l -8 8 l 8 8" fill="none" stroke="red" stroke-width="3"/>
<circle cx="486" cy="-378" r="4" fill="red"/>
<circle cx="594" cy="-378" r="4" fill="red"/>
<circle cx="594" cy="-432" r="4" fill="red"/>
<circle cx="486" cy="-432" r="4" fill="red"/>
<text x="540" y="-360" text-anchor="middle" font-family="monospace" font-size="12">2+1+2u</text>
</g>
<g class="key" opacity="0.5">
<use xlink:href="#shape1" transform="translate(648 -378)"/>
<path d="M 648 -378 h 108 m -8 -8 l 8 8 l -8 8" fill="none" stroke="red" stroke-width="3"/>
<path d="M 756 -378 v -54 m -8 8 l 8 -8 l 8 8" fill="none" stroke="red" stroke-width="3"/>
<path d="M 756 -432 h -108 m 8 -8 l -8 8 l 8 8" fill="none" stroke="red" stroke-width="3"/>
<path d="M 648 -432 v 54 m -8 -8 l 8 8 l 8 -8" fill="none" stroke="red" stroke-width="3"/>
<circle cx="648" cy="-378" r="4" fill="red"/>
<circle cx="756" cy="-378" r="4" fill="red"/>
<circle cx="756" cy="-432" r="4" fill="red"/>
<circle cx="648" cy="-432" r="4" fill="red"/>
<text x="702" y="-360" text-anchor="middle" font-family="monospace" font-size="12">2+1+2+1u</text>
</g>
<g class="key">
<use xlink:href="#shape0" transform="translate(54 -216)"/>
<circle cx="54" cy="-216" r="4" fill="red"/>
<text x="81" y="-198" text-anchor="middle" font-family="Arial" font-size="12">default shape</text>
</g>
<g class="key">
<use xlink:href="#shape0" transform="translate(162 -216)"/>
<path d="M 162 -216 h 54 m -8 -8 l 8 8 l -8 8" fill="none" stroke="red" stroke-width="3"/>
<circle cx="162" cy="-216" r="4" fill="red"/>
<circle cx="216" cy="-216" r="4" fill="red"/>
<text x="189" y="-198" text-anchor="middle" font-family="monospace" font-size="12">1u</text>
</g>
<g class="key">
<use xlink:href="#shape2" transform="translate(270 -216)"/>
<path d="M 270 -216 h 54 m -8 -8 l 8 8 l -8 8" fill="none" stroke="red" stroke-width="3"/>
<path d="M 324 -216 v -108 m -8 8 l 8 -8 l 8 8" fill="none" stroke="red" stroke-width="3"/>
<circle cx="270" cy="-216" r="4" fill="red"/>
<circle cx="324" cy="-216" r="4" fill="red"/>
<circle cx="324" cy="-324" r="4" fill="red"/>
<text x="297" y="-198" text-anchor="middle" font-family="monospace" font-size="12">1+2u</text>
</g>
<g class="key" opacity="0.5">
<use xlink:href="#shape2" transform="translate(378 -216)"/>
<path d="M 378 -216 h 54 m -8 -8 l 8 8 l -8 8" fill="none" stroke="red" stroke-width="3"/>
<path d="M 432 -216 v -108 m -8 8 l 8 -8 l 8 8" fill="none" stroke="red" stroke-width="3"/>
<path d="M 432 -324 h -54 m 8 -8 l -8 8 l 8 8" fill="none" stroke="red" stroke-width="3"/>
<circle cx="378" cy="-216" r="4" fill="red"/>
<circle cx="432" cy="-216" r="4" fill="red"/>
<circle cx="432" cy="-324" r="4" fill="red"/>
<circle cx="378" cy="-324" r="4" fill="red"/>
<text x="405" y="-198" text-anchor="middle" font-family="monospace" font-size="12">1+2+1u</text>
</g>
<g class="key" opacity="0.5">
<use xlink:href="#shape2" transform="translate(486 -216)"/>
<path d="M 486 -216 h 54 m -8 -8 l 8 8 l -8 8" fill="none" stroke="red" stroke-width="3"/>
<path d="M 540 -216 v -108 m -8 8 l 8 -8 l 8 8" fill="none" stroke="red" stroke-width="3"/>
<path d="M 540 -324 h -54 m 8 -8 l -8 8 l 8 8" fill="none" stroke="red" stroke-width="3"/>
<path d="M 486 -324 v 108 m -8 -8 l 8 8 l 8 -8" fill="none" stroke="red" stroke-width="3"/>
<circle cx="486" cy="-216" r="4" fill="red"/>
<circle cx="540" cy="-216" r="4" fill="red"/>
<circle cx="540" cy="-324" r="4" fill="red"/>
<circle cx="486" cy="-324" r="4" fill="red"/>
<text x="513" y="-198" text-anchor="middle" font-family="monospace" font-size="12">1+2+1+2u</text>
</g>
<g class="key">
<use xlink:href="#shape0" transform="translate(54 -54)"/>
<circle cx="54" cy="-54" r="4" fill="red"/>
<text x="81" y="-36" text-anchor="middle" font-family="Arial" font-size="12">default shape</text>
</g>
<g class="key">
<use xlink:href="#shape3" transform="translate(148.5 -54)"/>
<path d="M 148.5 -54 h 67.5 m -8 -8 l 8 8 l -8 8" fill="none" stroke="red" stroke-width="3"/>
<circle cx="148.5" cy="-54" r="4" fill="red"/>
<circle cx="216" cy="-54" r="4" fill="red"/>
<text x="182.25" y="-36" text-anchor="middle" font-family="monospace" font-size="12">1.25u</text>
</g>
<g class="key">
<use xlink:href="#shape4" transform="translate(256.5 -54)"/>
<path d="M 256.5 -54 h 67.5 m -8 -8 l 8 8 l -8 8" fill="none" stroke="red" stroke-width="3"/>
<path d="M 324 -54 v -108 m -8 8 l 8 -8 l 8 8" fill="none" stroke="red" stroke-width="3"/>
<circle cx="256.5" cy="-54" r="4" fill="red"/>
<circle cx="324" cy="-54" r="4" fill="red"/>
<circle cx="324" cy="-162" r="4" fill="red"/>
<text x="290.25" y="-36" text-anchor="middle" font-family="monospace" font-size="12">1.25+2u</text>
</g>
<g class="key">
<use xlink:href="#shape5" transform="translate(364.5 -54)"/>
<path d="M 364.5 -54 h 67.5 m -8 -8 l 8 8 l -8 8" fill="none" stroke="red" stroke-width="3"/>
<path d="M 432 -54 v -108 m -8 8 l 8 -8 l 8 8" fill="none" stroke="red" stroke-width="3"/>
<path d="M 432 -162 h -81 m 8 -8 l -8 8 l 8 8" fill="none" stroke="red" stroke-width="3"/>
<circle cx="364.5" cy="-54" r="4" fill="red"/>
<circle cx="432" cy="-54" r="4" fill="red"/>
<circle cx="432" cy="-162" r="4" fill="red"/>
<circle cx="351" cy="-162" r="4" fill="red"/>
<text x="398.25" y="-36" text-anchor="middle" font-family="monospace" font-size="12">1.25+2+1.5u</text>
</g>
<g class="key" opacity="0.5">
<use xlink:href="#shape5" transform="translate(472.5 -54)"/>
<path d="M 472.5 -54 h 67.5 m -8 -8 l 8 8 l -8 8" fill="none" stroke="red" stroke-width="3"/>
<path d="M 540 -54 v -108 m -8 8 l 8 -8 l 8 8" fill="none" stroke="red" stroke-width="3"/>
<path d="M 540 -162 h -81 m 8 -8 l -8 8 l 8 8" fill="none" stroke="red" stroke-width="3"/>
<path d="M 459 -162 v 54 m -8 -8 l 8 8 l 8 -8" fill="none" stroke="red" stroke-width="3"/>
<circle cx="472.5" cy="-54" r="4" fill="red"/>
<circle cx="540" cy="-54" r="4" fill="red"/>
<circle cx="540" cy="-162" r="4" fill="red"/>
<circle cx="459" cy="-162" r="4" fill="red"/>
<circle cx="459" cy="-108" r="4" fill="red"/>
<text x="506.25" y="-36" text-anchor="middle" font-family="monospace" font-size="12">1.25+2+1.5</text>
<text x="506.25" y="-24" text-anchor="middle" font-family="monospace" font-size="12">+1u</text>
</g>
<g class="key" opacity="0.5">
<use xlink:href="#shape5" transform="translate(580.5 -54)"/>
<path d="M 580.5 -54 h 67.5 m -8 -8 l 8 8 l -8 8" fill="none" stroke="red" stroke-width="3"/>
<path d="M 648 -54 v -108 m -8 8 l 8 -8 l 8 8" fill="none" stroke="red" stroke-width="3"/>
<path d="M 648 -162 h -81 m 8 -8 l -8 8 l 8 8" fill="none" stroke="red" stroke-width="3"/>
<path d="M 567 -162 v 54 m -8 -8 l 8 8 l 8 -8" fill="none" stroke="red" stroke-width="3"/>
<path d="M 567 -108 h 13.5 m -8 -8 l 8 8 l -8 8" fill="none" stroke="red" stroke-width="3"/>
<circle cx="580.5" cy="-54" r="4" fill="red"/>
<circle cx="648" cy="-54" r="4" fill="red"/>
<circle cx="648" cy="-162" r="4" fill="red"/>
<circle cx="567" cy="-162" r="4" fill="red"/>
<circle cx="567" cy="-108" r="4" fill="red"/>
<circle cx="580.5" cy="-108" r="4" fill="red"/>
<text x="614.25" y="-36" text-anchor="middle" font-family="monospace" font-size="12">1.25+2+1.5</text>
<text x="614.25" y="-24" text-anchor="middle" font-family="monospace" font-size="12">+1+0.25u</text>
</g>
<g class="key" opacity="0.5">
<use xlink:href="#shape5" transform="translate(688.5 -54)"/>
<path d="M 688.5 -54 h 67.5 m -8 -8 l 8 8 l -8 8" fill="none" stroke="red" stroke-width="3"/>
<path d="M 756 -54 v -108 m -8 8 l 8 -8 l 8 8" fill="none" stroke="red" stroke-width="3"/>
<path d="M 756 -162 h -81 m 8 -8 l -8 8 l 8 8" fill="none" stroke="red" stroke-width="3"/>
<path d="M 675 -162 v 54 m -8 -8 l 8 8 l 8 -8" fill="none" stroke="red" stroke-width="3"/>
<path d="M 675 -108 h 13.5 m -8 -8 l 8 8 l -8 8" fill="none" stroke="red" stroke-width="3"/>
<path d="M 688.5 -108 v 54 m -8 -8 l 8 8 l 8 -8" fill="none" stroke="blue" stroke-width="3"/>
<circle cx="756" cy="-54" r="4" fill="red"/>
<circle cx="756" cy="-162" r="4" fill="red"/>
<circle cx="675" cy="-162" r="4" fill="red"/>
<circle cx="675" cy="-108" r="4" fill="red"/>
<circle cx="688.5" cy="-108" r="4" fill="red"/>
<circle cx="688.5" cy="-54" r="4" fill="blue"/>
<text x="722.25" y="-36" text-anchor="middle" font-family="monospace" font-size="12">1.25+2+1.5</text>
<text x="722.25" y="-24" text-anchor="middle" font-family="monospace" font-size="12">+1+0.25-1u</text>
</g>
</g>
</svg>
