<?xml version="1.0"?>
<svg xmlns="http://www.w3.org/2000/svg" xmlns:xlink="http://www.w3.org/1999/xlink" version="1.1" width="697.5" height="180" viewBox="36 -180 697.5 180">
<defs>
<g id="shape0">
<path d="M 6 -54 C 2.686 -54 0 -51.314 0 -48 L 0 -6 C 0 -2.686 2.686 0 6 0 L 102 0 C 105.314 0 108 -2.686 108 -6 L 108 -48 C 108 -51.314 105.314 -54 102 -54 Z" fill="#000000"/>
<path d="M 6 -53 C 3.239 -53 1 -50.761 1 -48 L 1 -6 C 1 -3.239 3.239 -1 6 -1 L 102 -1 C 104.761 -1 107 -3.239 107 -6 L 107 -48 C 107 -50.761 104.761 -53 102 -53 Z" fill="#dadada"/>
<path d="M 6 -52 C 3.791 -52 2 -50.209 2 -48 L 2 -6 C 2 -3.791 3.791 -2 6 -2 L 102 -2 C 104.209 -2 106 -3.791 106 -6 L 106 -48 C 106 -50.209 104.209 -52 102 -52 Z" fill="#f2f2f2"/>
<path d="M 39 -51 C 37.343 -51 36 -49.657 36 -48 L 36 -18 C 36 -16.343 37.343 -15 39 -15 L 69 -15 C 70.657 -15 72 -16.343 72 -18 L 72 -48 C 72 -49.657 70.657 -51 69 -51 Z M 9 -51 C 7.343 -51 6 -49.657 6 -48 L 6 -12 C 6 -10.343 7.343 -9 9 -9 L 33.354 -9 C 32.524 -9.733 32 -10.805 32 -12 L 32 -48 C 32 -49.195 32.524 -50.267 33.354 -51 Z M 74.646 -51 C 75.476 -50.267 76 -49.195 76 -48 L 76 -12 C 76 -10.805 75.476 -9.733 74.646 -9 L 99 -9 C 100.657 -9 102 -10.343 102 -12 L 102 -48 C 102 -49.657 100.657 -51 99 -51 Z" fill="#dadada"/>
<path d="M 39 -50 C 37.895 -50 37 -49.105 37 -48 L 37 -18 C 37 -16.895 37.895 -16 39 -16 L 69 -16 C 70.105 -16 71 -16.895 71 -18 L 71 -48 C 71 -49.105 70.105 -50 69 -50 Z M 9 -50 C 7.895 -50 7 -49.105 7 -48 L 7 -12 C 7 -10.895 7.895 -10 9 -10 L 31.416 -10 C 31.148 -10.612 31 -11.289 31 -12 L 31 -48 C 31 -48.711 31.148 -49.388 31.416 -50 Z M 76.584 -50 C 76.852 -49.388 77 -48.711 77 -48 L 77 -12 C 77 -11.289 76.852 -10.612 76.584 -10 L 99 -10 C 100.105 -10 101 -10.895 101 -12 L 101 -48 C 101 -49.105 100.105 -50 99 -50 Z" fill="#ffffff"/>
</g>
<g id="shape1">
<path d="M 6 -54 C 2.686 -54 0 -51.314 0 -48 L 0 -6 C 0 -2.686 2.686 0 6 0 L 102 0 C 105.314 0 108 -2.686 108 -6 L 108 -48 C 108 -51.314 105.314 -54 102 -54 Z" fill="#000000"/>
<path d="M 6 -53 C 3.239 -53 1 -50.761 1 -48 L 1 -6 C 1 -3.239 3.239 -1 6 -1 L 102 -1 C 104.761 -1 107 -3.239 107 -6 L 107 -48 C 107 -50.761 104.761 -53 102 -53 Z" fill="#dadada"/>
<path d="M 6 -52 C 3.791 -52 2 -50.209 2 -48 L 2 -6 C 2 -3.791 3.791 -2 6 -2 L 102 -2 C 104.209 -2 106 -3.791 106 -6 L 106 -48 C 106 -50.209 104.209 -52 102 -52 Z" fill="#f2f2f2"/>
<path d="M 12 -51 C 10.343 -51 9 -49.657 9 -48 L 9 -18 C 9 -16.343 10.343 -15 12 -15 L 69 -15 C 70.657 -15 72 -16.343 72 -18 L 72 -48 C 72 -49.657 70.657 -51 69 -51 Z M 74.646 -51 C 75.476 -50.267 76 -49.195 76 -48 L 76 -12 C 76 -10.805 75.476 -9.733 74.646 -9 L 99 -9 C 100.657 -9 102 -10.343 102 -12 L 102 -48 C 102 -49.657 100.657 -51 99 -51 Z" fill="#dadada"/>
<path d="M 12 -50 C 10.895 -50 10 -49.105 10 -48 L 10 -18 C 10 -16.895 10.895 -16 12 -16 L 69 -16 C 70.105 -16 71 -16.895 71 -18 L 71 -48 C 71 -49.105 70.105 -50 69 -50 Z M 76.584 -50 C 76.852 -49.388 77 -48.711 77 -48 L 77 -12 C 77 -11.289 76.852 -10.612 76.584 -10 L 99 -10 C 100.105 -10 101 -10.895 101 -12 L 101 -48 C 101 -49.105 100.105 -50 99 -50 Z" fill="#ffffff"/>
</g>
<g id="shape2">
<path d="M 6 -54 C 2.686 -54 0 -51.314 0 -48 L 0 -6 C 0 -2.686 2.686 0 6 0 L 102 0 C 105.314 0 108 -2.686 108 -6 L 108 -48 C 108 -51.314 105.314 -54 102 -54 Z" fill="#000000"/>
<path d="M 6 -53 C 3.239 -53 1 -50.761 1 -48 L 1 -6 C 1 -3.239 3.239 -1 6 -1 L 102 -1 C 104.761 -1 107 -3.239 107 -6 L 107 -48 C 107 -50.761 104.761 -53 102 -53 Z" fill="#dadada"/>
<path d="M 6 -52 C 3.791 -52 2 -50.209 2 -48 L 2 -6 C 2 -3.791 3.791 -2 6 -2 L 102 -2 C 104.209 -2 106 -3.791 106 -6 L 106 -48 C 106 -50.209 104.209 -52 102 -52 Z" fill="#f2f2f2"/>
<path d="M 39 -51 C 37.343 -51 36 -49.657 36 -48 L 36 -18 C 36 -16.343 37.343 -15 39 -15 L 96 -15 C 97.657 -15 99 -16.343 99 -18 L 99 -48 C 99 -49.657 97.657 -51 96 -51 Z M 9 -51 C 7.343 -51 6 -49.657 6 -48 L 6 -12 C 6 -10.343 7.343 -9 9 -9 L 33.354 -9 C 32.524 -9.733 32 -10.805 32 -12 L 32 -48 C 32 -49.195 32.524 -50.267 33.354 -51 Z" fill="#dadada"/>
<path d="M 39 -50 C 37.895 -50 37 -49.105 37 -48 L 37 -18 C 37 -16.895 37.895 -16 39 -16 L 96 -16 C 97.105 -16 98 -16.895 98 -18 L 98 -48 C 98 -49.105 97.105 -50 96 -50 Z M 9 -50 C 7.895 -50 7 -49.105 7 -48 L 7 -12 C 7 -10.895 7.895 -10 9 -10 L 31.416 -10 C 31.148 -10.612 31 -11.289 31 -12 L 31 -48 C 31 -48.711 31.148 -49.388 31.416 -50 Z" fill="#ffffff"/>
</g>
<g id="shape3">
<path d="M -7.5 -108 C -10.814 -108 -13.5 -105.314 -13.5 -102 L -13.5 -60 C -13.5 -56.686 -10.814 -54 -7.5 -54 L 0 -54 L 0 -6 C 0 -2.686 2.686 0 6 0 L 61.5 0 C 64.814 0 67.5 -2.686 67.5 -6 L 67.5 -102 C 67.5 -105.314 64.814 -108 61.5 -108 Z" fill="#000000"/>
<path d="M -7.5 -107 C -10.261 -107 -12.5 -104.761 -12.5 -102 L -12.5 -60 C -12.5 -57.239 -10.261 -55 -7.5 -55 L 1 -55 L 1 -54 L 1 -6 C 1 -3.239 3.239 -1 6 -1 L 61.5 -1 C 64.261 -1 66.5 -3.239 66.5 -6 L 66.5 -102 C 66.5 -104.761 64.261 -107 61.5 -107 Z" fill="#dadada"/>
<path d="M -7.5 -106 C -9.709 -106 -11.5 -104.209 -11.5 -102 L -11.5 -60 C -11.5 -57.791 -9.709 -56 -7.5 -56 L 2 -56 L 2 -54 L 2 -6 C 2 -3.791 3.791 -2 6 -2 L 61.5 -2 C 63.709 -2 65.5 -3.791 65.5 -6 L 65.5 -102 C 65.5 -104.209 63.709 -106 61.5 -106 Z" fill="#f2f2f2"/>
<path d="M -4.5 -105 C -6.157 -105 -7.5 -103.657 -7.5 -102 L -7.5 -66 C -7.5 -64.343 -6.157 -63 -4.5 -63 L 5 -63 L 5 -102 C 5 -103.195 5.524 -104.267 6.354 -105 Z M 12 -105 C 10.343 -105 9 -103.657 9 -102 L 9 -18 C 9 -16.343 10.343 -15 12 -15 L 55.5 -15 C 57.157 -15 58.5 -16.343 58.5 -18 L 58.5 -102 C 58.5 -103.657 57.157 -105 55.5 -105 Z" fill="#dadada"/>
<path d="M -4.5 -104 C -5.605 -104 -6.5 -103.105 -6.5 -102 L -6.5 -66 C -6.5 -64.895 -5.605 -64 -4.5 -64 L 4 -64 L 4 -102 C 4 -102.711 4.148 -103.388 4.416 -104 Z M 12 -104 C 10.895 -104 10 -103.105 10 -102 L 10 -18 C 10 -16.895 10.895 -16 12 -16 L 55.5 -16 C 56.605 -16 57.5 -16.895 57.5 -18 L 57.5 -102 C 57.5 -103.105 56.605 -104 55.5 -104 Z" fill="#ffffff"/>
</g>
<g id="shape4">
<path d="M 6 -108 C 2.686 -108 0 -105.314 0 -102 L 0 -6 C 0 -2.686 2.686 0 6 0 L 48 0 C 51.314 0 54 -2.686 54 -6 L 54 -102 C 54 -105.314 51.314 -108 48 -108 Z" fill="#000000"/>
<path d="M 6 -107 C 3.239 -107 1 -104.761 1 -102 L 1 -6 C 1 -3.239 3.239 -1 6 -1 L 48 -1 C 50.761 -1 53 -3.239 53 -6 L 53 -102 C 53 -104.761 50.761 -107 48 -107 Z" fill="#dadada"/>
<path d="M 6 -106 C 3.791 -106 2 -104.209 2 -102 L 2 -6 C 2 -3.791 3.791 -2 6 -2 L 48 -2 C 50.209 -2 52 -3.791 52 -6 L 52 -102 C 52 -104.209 50.209 -106 48 -106 Z" fill="#f2f2f2"/>
<path d="M 9 -105 C 7.343 -105 6 -103.657 6 -102 L 6 -77.646 L 6 -77.646 C 6.733 -78.476 7.805 -79 9 -79 L 45 -79 C 46.195 -79 47.267 -78.476 48 -77.646 L 48 -77.646 L 48 -102 C 48 -103.657 46.657 -105 45 -105 Z M 6 -77.646 L 6 -77.646 C 6 -77.646 6 -77.646 6 -77.646 L 6 -77.646 L 6 -77.646 Z M 12 -78 C 10.343 -78 9 -76.657 9 -75 L 9 -45 C 9 -43.343 10.343 -42 12 -42 L 42 -42 C 43.657 -42 45 -43.343 45 -45 L 45 -75 C 45 -76.657 43.657 -78 42 -78 Z M 6 -36.354 L 6 -12 C 6 -10.343 7.343 -9 9 -9 L 45 -9 C 46.657 -9 48 -10.343 48 -12 L 48 -36.354 L 48 -36.354 C 47.267 -35.524 46.195 -35 45 -35 L 9 -35 C 7.805 -35 6.733 -35.524 6 -36.354 Z" fill="#dadada"/>
<path d="M 9 -104 C 7.895 -104 7 -103.105 7 -102 L 7 -79.584 L 7 -79.584 C 7.612 -79.852 8.289 -80 9 -80 L 45 -80 C 45.711 -80 46.388 -79.852 47 -79.584 L 47 -79.584 L 47 -102 C 47 -103.105 46.105 -104 45 -104 Z M 7 -79.584 C 7 -79.584 7 -79.584 7 -79.584 L 7 -79.584 L 7 -79.584 Z M 12 -77 C 10.895 -77 10 -76.105 10 -75 L 10 -45 C 10 -43.895 10.895 -43 12 -43 L 42 -43 C 43.105 -43 44 -43.895 44 -45 L 44 -75 C 44 -76.105 43.105 -77 42 -77 Z M 7 -34.416 L 7 -12 C 7 -10.895 7.895 -10 9 -10 L 45 -10 C 46.105 -10 47 -10.895 47 -12 L 47 -34.416 L 47 -34.416 C 46.388 -34.148 45.711 -34 45 -34 L 9 -34 C 8.289 -34 7.612 -34.148 7 -34.416 Z" fill="#ffffff"/>
</g>
</defs>
<g class="keyboard">
<g class="key">
<use xlink:href="#shape0" transform="translate(54 -54)"/>
</g>
<g class="key">
<use xlink:href="#shape1" transform="translate(216 -54)"/>
</g>
<g class="key">
<use xlink:href="#shape2" transform="translate(378 -54)"/>
</g>
<g class="key">
<use xlink:href="#shape3" transform="translate(540 -54)"/>
</g>
<g class="key">
<use xlink:href="#shape4" transform="translate(661.5 -54)"/>
</g>
</g>
<text x="108" y="-36" text-anchor="middle" font-family="Arial" font-size="12">vs = s</text>
<text x="108" y="-18" text-anchor="middle" font-family="Arial" font-size="12">stepped</text>
<text x="270" y="-36" text-anchor="middle" font-family="Arial" font-size="12">vs = sc</text>
<text x="270" y="-18" text-anchor="middle" font-family="Arial" font-size="12">stepped caps lock</text>
<text x="432" y="-36" text-anchor="middle" font-family="Arial" font-size="12">vs = sb</text>
<text x="432" y="-18" text-anchor="middle" font-family="Arial" font-size="12">stepped backspace</text>
<text x="573.75" y="-36" text-anchor="middle" font-family="Arial" font-size="12">vs = se</text>
<text x="573.75" y="-18" text-anchor="middle" font-family="Arial" font-size="12">stepped enter</text>
<text x="688.5" y="-36" text-anchor="middle" font-family="Arial" font-size="12">vs = s</text>
<text x="688.5" y="-18" text-anchor="middle" font-family="Arial" font-size="12">stepped</text>
</svg>
